<svg width="1440" height="562" viewBox="0 0 1440 562" fill="none" xmlns="http://www.w3.org/2000/svg">
<path fill-rule="evenodd" clip-rule="evenodd" d="M683.093 444.261C593.61 446.506 421.793 467.141 260.173 495.055C247.14 497.306 229.97 500.273 222.018 501.649C114.784 520.202 57.1129 531.902 16.7447 543.295C0.990231 547.741 -0.363271 548.28 0.0536238 549.942C0.6625 552.366 3.22572 551.991 32.459 545.208C62.7092 538.188 89.8227 533.091 164.183 520.445C412.709 478.181 528.789 462.687 658.995 454.399C684.51 452.775 725.264 453.058 725.264 454.859C725.264 457.265 699.703 465.469 640.52 482.06C567.711 502.47 523.387 516.009 519.462 519.038C512.755 524.215 520.132 527.95 536.095 527.46C545.217 527.181 547.289 526.969 589.111 522.043C709.187 507.901 785.929 500.723 889.934 493.907C1048.32 483.526 1149.23 479.696 1338.96 476.866C1407.13 475.849 1410.66 475.707 1423.24 473.481C1428.09 472.623 1433.89 471.784 1436.12 471.617C1441.34 471.226 1441.28 470.725 1435.95 470.356C1433.63 470.195 1428.3 469.428 1424.11 468.65C1413.76 466.732 1406.9 466.632 1347.8 467.535C1149.67 470.561 1045.42 474.432 894.352 484.371C814.903 489.597 779.502 492.437 721.65 498.225C682.1 502.182 577.709 513.7 563.086 515.721C555.107 516.823 589.741 506.423 650.575 489.45C727.527 467.979 742.847 462.148 742.918 454.303C742.999 445.457 729.012 443.11 683.093 444.261Z" fill="white"/>
<path d="M247.577 12.1089C257.194 12.3601 266.52 12.9041 269.368 13.3436C276.317 14.4527 282.617 16.9011 287.975 20.6259C290.822 22.6139 294.543 26.1923 297.188 29.4986C301.201 34.5 304.071 36.4252 309.563 37.8272C323.821 41.4474 332.654 49.3157 337.339 62.6248C338.528 65.9729 339.223 68.798 340.164 74.0295C342.339 86.0621 345.612 98.3666 349.669 109.813C353.794 121.365 357.605 129.881 363.95 141.621C367.447 148.129 368.613 150.64 370.182 155.139C372.805 162.694 374.576 171.378 376.011 183.787C376.885 191.195 377.109 195.694 376.975 201.993C376.616 217.269 373.657 231.394 367.492 247.047C364.443 254.748 359.802 264.353 357.673 267.345C356.35 269.208 354.489 270.819 352.898 271.531C351.709 272.054 351.373 272.096 349.019 272.075C346.083 272.075 345.096 271.824 341.173 270.087C338.371 268.831 335.68 267.45 328.529 263.579C325.592 261.988 323.149 260.712 323.126 260.733C323.081 260.775 323.44 262.491 323.933 264.562C324.965 269.04 326.198 275.737 326.758 279.943C327.072 282.391 327.162 284.505 327.162 290.825C327.162 300.911 326.691 305.703 323.911 324.934C321.893 338.934 321.445 344.019 321.445 353.08C321.445 363.585 322.319 374.446 324.718 394.2C326.175 406.191 326.579 408.116 330.861 423.392C331.6 426.029 332.609 430.088 333.125 432.39C334.694 439.631 335.322 440.321 341.083 440.844C345.903 441.305 348.907 442.414 351.396 444.737C353.929 447.08 354.736 449.152 354.714 453.316C354.714 455.283 354.601 456.183 354.22 457.46C352.561 462.88 348.481 466.814 341.083 470.057C334.918 472.778 329.65 473.803 321.893 473.803C315.168 473.824 311.491 473.364 301.157 471.208C292.346 469.388 289.88 469.095 284.007 469.157L280.083 469.22L278.626 468.571C277.797 468.216 276.721 467.504 276.115 466.939C274.95 465.83 273.56 463.466 272.82 461.373C271.811 458.443 271.654 457.167 271.452 449.173C271.363 444.925 271.228 441.43 271.183 441.388C271.139 441.347 270.511 441.786 269.771 442.372C262.956 447.687 259.481 449.947 254.482 452.312C246.434 456.162 236.659 458.799 227.109 459.699C225.854 459.803 224.486 460.055 224.083 460.243C222.289 461.08 221.46 462.566 221.46 464.93C221.46 466.856 221.012 469.555 220.518 470.622C219.958 471.857 218.658 472.987 217.38 473.322C216.012 473.698 212.313 473.636 208.009 473.175C202.696 472.61 186.465 472.61 177.072 473.196C168.463 473.719 158.824 473.74 154.878 473.238C143.355 471.752 139.701 468.969 142.167 463.528C143.22 461.226 143.512 459.929 143.4 458.067C143.198 455.179 141.92 452.793 138.49 448.943C136.719 446.934 136.63 446.871 136.428 447.373C136.316 447.645 135.621 449.006 134.903 450.387C130.263 459.364 123.067 464.637 113.18 466.311C111.05 466.688 105.827 466.814 100.065 466.625C98.3841 466.584 96.5683 466.688 94.3488 466.981C86.3904 468.048 75.6969 468.32 71.572 467.567C65.7881 466.5 61.4838 464.031 59.78 460.808C57.6503 456.769 59.5334 450.847 64.2636 446.683C67.0435 444.234 70.0027 442.895 76.3695 441.158C78.2974 440.635 80.0012 440.133 80.1581 440.049C80.3375 439.965 80.1581 439.526 79.6201 438.668C78.2974 436.596 74.5312 429.46 72.9843 426.112C62.9634 404.37 59.8249 381.477 63.4118 356.114C65.4742 341.591 69.0836 329.601 74.4191 319.682C78.6561 311.772 84.597 304.322 87.7131 302.983C89.1703 302.355 91.0085 302.083 92.7796 302.25C94.8196 302.418 98.9222 303.276 101.186 304.008C104.034 304.95 104.616 304.824 105.379 303.213C106.23 301.455 108.226 298.379 111.701 293.587C116.476 286.932 118.359 283.333 119.39 278.897C120.04 276.03 119.928 270.987 119.054 264.834C118 257.447 118.045 254.936 119.345 247.842C122.08 232.964 123.963 219.466 124.95 207.748C125.645 199.273 125.779 196.008 125.869 184.206C125.958 172.027 126.115 168.448 126.766 163.593C128.29 152.231 131.967 141.223 137.28 132.204C137.997 130.991 139.163 129.003 139.88 127.789C143.019 122.411 144.319 118.895 145.148 113.475C146.337 105.523 147.368 100.25 149.408 91.6075C151.313 83.5928 156.918 62.6875 157.927 59.8834C162.455 47.2231 170.907 37.5343 185.03 28.7453C190.545 25.3343 199.154 20.7306 204.534 18.345C212.762 14.7038 222.917 12.5484 233.566 12.1927C240.403 11.9625 241.905 11.9625 247.577 12.1089ZM232.288 15.6664C211.573 17.2359 193.437 25.2506 175.592 40.6941C170.01 45.549 167.544 48.2484 165.683 51.6385C164.249 54.2333 164.114 54.5682 160.841 65.0312C153.241 89.1801 150.865 99.4339 149.946 111.906C149.408 119.167 147.906 123.436 142.503 132.937C139.634 138.001 138.064 141.349 136.383 146.099C134.276 152.063 131.787 161.689 131.787 163.928C131.787 165.728 132.886 167.13 135.038 168.093C135.643 168.365 137.123 169.013 138.333 169.537C143.602 171.859 149.072 176.233 152.233 180.648C155.012 184.541 157.344 189.814 158.487 194.815C159.137 197.599 159.182 202.579 158.599 205.132C157.747 208.794 156.178 212.289 153.645 216.139C149.273 222.752 147.099 228.569 145.126 238.928C143.31 248.407 138.109 256.108 129.882 261.507C126.653 263.621 125.734 264.772 125.734 266.697C125.734 267.91 126.384 269.229 127.931 271.259C130.577 274.732 132.28 275.967 134.5 275.967C136.024 275.967 137.235 275.423 141.427 272.891C150.125 267.638 161.783 262.198 174.158 257.615C176.803 256.631 179.829 255.438 180.883 254.978C185.277 252.99 189.918 249.495 192.877 245.938C194.513 243.95 195.5 242.506 197.629 238.823C198.504 237.316 200.432 234.177 201.934 231.813C206.933 223.986 209.623 218.357 210.677 213.461C211.282 210.761 211.663 205.006 211.484 201.679C211.058 193.874 209.937 188.768 206.955 181.088C203.458 172.006 199.356 164.221 192.899 154.323C180.502 135.28 173.889 118.142 171.602 98.9316C170.683 91.3982 170.593 81.3955 171.355 76.7708C172.768 68.2748 176.086 61.8714 181.757 56.6608C187.519 51.3874 194.872 48.2066 204.355 46.8882C207.65 46.4488 216.124 46.386 218.209 46.8045C222.648 47.7043 226.347 50.8643 227.894 55.0913C228.454 56.598 228.522 57.0374 228.522 59.6951C228.522 62.541 228.499 62.6875 227.67 64.9266C226.549 67.9609 223.926 72.9413 221.908 75.8082C219.442 79.3029 217.268 81.7094 212.829 85.8528C210.609 87.9245 208.099 90.4147 207.269 91.3982C196.845 103.473 193.661 117.43 197.046 136.076C197.293 137.457 197.943 140.428 198.481 142.667C198.997 144.906 199.557 147.711 199.714 148.903C199.849 150.075 200.118 151.519 200.297 152.084C201.149 154.763 204.063 156.123 207.314 155.349C209.982 154.7 212.201 153.298 216.281 149.657C221.639 144.865 225.024 140.345 228.925 132.79C232.176 126.45 235.202 123.227 238.968 122.139C243.183 120.904 247.555 122.662 252.89 127.726C256.118 130.802 258.472 133.46 260.647 136.473C263.494 140.407 265.22 141.956 268.65 143.546C270.623 144.467 272.551 145.053 275.264 145.576C278.268 146.162 285.755 147.104 286.226 146.957C287.324 146.643 287.616 145.974 288.288 142.207C289.432 135.992 290.822 131.179 292.996 125.905C294.633 121.909 294.969 120.862 295.193 119.042C296.09 111.404 290.553 103.933 274.031 90.4565C261.095 79.8679 257.732 76.3104 254.28 69.5304C252.442 65.8892 251.881 64.1942 251.769 61.8505C251.657 59.444 252.016 58.2303 253.294 56.6399C254.392 55.2587 256.006 54.1497 258.719 52.8732C263.427 50.6759 269.143 49.2738 274.77 48.96C281.832 48.5414 290.441 49.6505 295.44 51.6176C304.968 55.3424 310.46 66.224 310.46 81.3537C310.46 91.3773 308.756 98.3457 301.829 116.51C297.233 128.605 295.462 134.067 293.983 140.868C292.032 149.824 291.539 154.553 291.539 164.117C291.517 171.713 291.606 173.052 292.548 180.314C293.714 189.228 293.512 198.122 291.718 217.374C290.911 226.016 290.799 230.201 291.27 232.42C292.324 237.254 294.364 239.744 301.829 245.31C311.222 252.341 316.177 254.853 326.22 257.657C328.776 258.368 331.062 259.498 336.106 262.511C346.127 268.538 350.14 269.312 353.391 265.86C355.207 263.934 355.969 262.219 365.093 239.66C369.487 228.799 369.935 227.586 370.048 226.142C370.137 224.677 370.092 224.447 369.532 223.484C369.173 222.856 368.209 221.831 367.111 220.931C362.022 216.725 358.569 211.807 356.44 205.718C354.714 200.8 354.041 196.573 353.727 188.6C353.503 182.574 353.167 180.083 352.046 176.045C350.499 170.415 348.504 166.209 343.437 157.943C339.581 151.645 337.99 146.329 338.505 141.537C338.841 138.398 339.559 136.515 341.756 132.937C343.594 129.944 344.379 129.107 346.172 128.27C348.078 127.37 349.333 126.219 349.692 124.985C350.095 123.666 349.692 122.243 347.831 118.393C344.76 111.99 342.697 105.712 340.725 96.6925C340.478 95.6044 339.514 90.6867 338.595 85.79C334.941 66.6007 333.125 60.9925 328.372 54.2752C323.799 47.7881 317.387 43.6028 308.442 41.2591C302.546 39.6897 299.744 37.9528 296.225 33.642C292.077 28.5779 287.975 25.0832 282.729 22.2163C275.891 18.4496 266.946 16.2105 256.544 15.6664C251.769 15.4153 235.539 15.4153 232.288 15.6664ZM206.888 50.6131C195.657 52.622 189.738 54.9239 184.851 59.1719C181.287 62.2899 178.148 67.0193 176.803 71.3091C175.368 75.9129 174.987 90.4356 176.086 99.6431C177.744 113.706 182.542 128.019 189.828 140.596C191.352 143.232 194.536 148.317 194.648 148.317C194.737 148.317 194.603 147.376 193.303 139.528C191.711 129.672 191.442 127.642 191.218 123.604C190.612 112.366 192.765 104.54 198.75 96.1066C200.947 93.0096 202.83 90.7495 207.314 85.7481C217.918 73.9667 222.85 67.1866 224.038 62.7712C224.688 60.3438 224.464 57.8536 223.433 55.9284C221.662 52.622 218.389 50.4457 214.555 49.9854C212.537 49.7552 211.013 49.8807 206.888 50.6131ZM273.313 52.9987C269.816 53.4381 265.669 54.2124 263.337 54.903C257.194 56.7026 254.818 59.6532 255.849 64.1733C256.298 66.1613 257.15 67.8354 258.853 70.0535C262.126 74.3015 264.167 76.2477 281.406 91.461C288.737 97.9272 291.741 101.045 294.767 105.314C297.188 108.746 298.578 109.562 299.991 108.39C300.193 108.223 300.618 107.365 300.91 106.486C301.201 105.607 301.896 103.786 302.479 102.405C303.712 99.5385 304.878 95.437 305.461 92.026C306.044 88.5941 306.044 78.3403 305.438 74.1341C304.743 69.0909 303.981 65.4707 303.309 63.9641C300.843 58.4604 294.498 54.5472 285.688 53.0824C282.774 52.6011 276.922 52.5592 273.313 52.9987ZM242.623 131.032C239.148 132.518 235.449 135.887 227.266 144.99C219.891 153.214 216.662 155.935 211.439 158.299C209.22 159.304 206.731 160.036 203.57 160.58C203.279 160.643 203.099 160.748 203.167 160.831C203.413 161.208 209.287 174.203 210.184 176.358C215.743 189.709 217.357 200.528 215.497 211.828C213.255 225.347 205.05 240.309 194.356 250.416C186.667 257.698 178.529 262.302 166.199 266.362C161.155 268.036 156.963 269.982 149.385 274.209C139.432 279.755 137.571 280.571 134.926 280.571C132.684 280.571 130.666 279.734 126.227 276.951C124.95 276.155 123.874 275.549 123.829 275.59C123.649 275.758 122.82 280.299 122.596 282.538C122.192 286.116 122.416 293.461 123.022 297.416C124.098 304.322 125.981 311.228 130.308 324.244C131.047 326.483 131.204 327.236 130.98 327.236C130.801 327.236 129.725 326.357 128.581 325.29C126.227 323.135 125.689 322.256 124.277 318.322C122.977 314.701 120.332 305.85 118.673 299.635L117.148 293.88L116.207 294.863C114.884 296.203 113.987 297.521 111.79 301.288C110.737 303.066 109.66 304.866 109.414 305.264C108.876 306.08 108.786 307.419 109.212 308.11C109.369 308.361 110.557 309.512 111.88 310.684C119.95 317.861 124.658 326.692 126.407 337.908C127.348 343.977 127.505 352.557 126.855 361.241C126.564 364.945 126.586 374.299 126.855 378.045C127.214 382.628 128.066 389.554 129.456 398.908C131.003 409.518 131.384 411.338 133.805 420.253C136.428 429.9 136.831 431.637 137.728 436.471C138.535 440.928 138.916 442.037 140.396 444.485C141.831 446.85 145.597 451.454 146.494 451.977C147.749 452.689 148.646 452.416 150.282 450.763C154.25 446.746 155.349 446.013 158.285 445.364C159.989 444.967 164.966 444.695 164.966 444.967C164.966 445.302 162.971 446.62 160.281 448.085C158.891 448.838 157.187 449.822 156.492 450.261C155.237 451.056 152.412 453.672 152.412 454.049C152.412 454.132 152.076 454.404 151.672 454.656C150.91 455.074 148.175 458.966 146.852 461.478C145.507 463.989 145.462 466.27 146.695 467.421C147.256 467.965 147.301 467.965 150.686 467.965C153.443 467.965 154.228 468.027 154.766 468.32C156.739 469.325 159.496 469.492 166.984 469.137C169.876 468.99 170.615 468.885 171.423 468.509C173.126 467.693 173.821 466.437 174.27 463.256C174.516 461.394 175.996 460.117 177.52 460.431C178.484 460.62 178.664 460.996 178.843 463.026C179.022 464.868 179.448 465.935 180.054 465.998C180.188 466.019 181.376 466.019 182.676 465.998C183.999 465.956 186.151 466.102 187.608 466.291C190.343 466.667 192.227 466.604 193.527 466.102C194.782 465.621 196.329 464.135 197.293 462.482C197.764 461.666 198.347 460.913 198.571 460.85C199.669 460.536 200.858 461.645 201.306 463.382C201.44 463.947 201.665 464.805 201.777 465.307C202.158 466.751 203.099 467.944 204.332 468.509C205.677 469.116 208.099 469.157 211.372 468.613C216.057 467.839 217.806 465.433 216.887 461.017C216.371 458.59 215.967 457.836 213.927 455.723C211.775 453.463 208.906 449.466 207.023 446.097C204.31 441.2 202.337 436.241 198.571 424.647C195.006 413.787 193.661 410.46 189.671 402.78C181.757 387.545 176.467 372.311 174.18 358.207C173.395 353.331 173.014 349.062 172.88 343.663C172.521 329.119 175.099 315.35 181.107 299.593C183.147 294.236 183.035 294.424 185.008 293.147C185.972 292.541 186.779 292.08 186.846 292.143C186.913 292.185 185.95 295.993 184.717 300.576C179.291 320.791 177.744 329.203 177.386 340.21C177.206 345.149 177.7 352.766 178.17 352.766C178.507 352.766 181.981 349.439 183.102 348.058C184.761 346.007 185.703 344.04 186.577 340.817C187.452 337.574 187.922 336.486 189.155 334.79C190.814 332.51 193.191 331.045 196.733 330.124C198.369 329.684 198.952 329.643 205.319 329.643C211.013 329.643 212.537 329.705 214.398 330.04C221.034 331.17 225.787 333.388 229.867 337.197C233.476 340.587 236.413 345.17 237.511 349.104C237.982 350.799 238.094 351.699 238.117 353.917C238.139 357.14 237.982 357.893 236.211 363.02C231.414 376.936 230.136 387.148 231.907 397.443C232.557 401.252 232.198 405.291 230.853 409.225C229.149 414.205 226.795 416.716 223.567 416.968C220.989 417.177 219.061 416.026 216.371 412.636C212.224 407.446 209.489 405.374 199.333 399.683C196.822 398.28 193.93 396.627 192.899 396L191.016 394.87L192.585 398.448C194.132 401.984 196.531 407.425 200.544 416.382C204.198 424.564 206.283 430.507 207.449 436.073C208.166 439.61 208.502 440.551 209.713 442.728C210.946 444.904 211.999 446.285 215.071 449.759C216.393 451.245 218.03 453.212 218.702 454.112C219.375 455.011 220.249 455.89 220.63 456.058C221.505 456.476 222.379 456.392 228.297 455.283C247.061 451.789 259.122 446.369 268.448 437.245C270.959 434.797 271.923 433.269 272.506 430.779C272.932 428.916 272.999 422.262 272.708 408.848C272.506 399.18 272.618 396.23 273.47 391.584C274.075 388.361 274.501 386.938 277.281 378.735C281.182 367.184 282.684 362.099 284.119 355.445C285.778 347.66 286.338 342.47 286.338 334.979C286.338 330.375 286.248 328.764 285.8 325.457C285.06 319.996 285.015 313.404 285.733 310.6C286.293 308.424 287.1 306.31 287.369 306.31C287.481 306.31 287.907 306.498 288.333 306.729L289.096 307.147L289.23 310.558C289.32 312.42 289.746 317.15 290.194 321.063C290.822 326.587 291.023 329.433 291.113 333.87C291.248 340.085 291.068 342.575 290.172 346.907C289.477 350.129 289.477 350.443 290.127 351.301C290.777 352.243 291.584 352.641 293.758 353.185C300.215 354.754 304.811 359.421 306.111 365.678C306.604 368.147 306.492 370.302 305.528 376.12C303.04 391.396 302.165 400.206 302.165 410.271C302.165 417.595 301.112 420.253 297.614 421.822C295.126 422.932 294.072 422.994 284.433 422.534C281.249 422.387 280.375 422.534 279.187 423.517C278.111 424.417 277.528 425.861 277.281 428.351C276.81 433.018 276.272 446.139 276.272 452.584C276.272 458.422 276.317 459.552 276.653 460.557C277.416 462.817 279.075 464.303 281.339 464.763C283.76 465.223 285.105 464.512 287.168 461.666C292.526 454.258 301.157 447.499 309.608 444.151C313.89 442.435 317.185 441.619 322.857 440.844C324.561 440.614 326.489 440.237 327.139 440.007C329.471 439.191 330.614 437.454 330.3 435.173C330.21 434.566 329.493 432.202 328.708 429.942C323.799 415.691 320.795 401.357 319.001 383.318C317.567 369.026 316.827 350.318 317.387 341.989C318.015 332.593 318.575 328.178 321.871 307.231C323.081 299.509 323.328 296.265 323.171 289.569C322.992 282.14 322.454 277.244 320.75 267.597C320.257 264.772 319.674 262.093 319.45 261.612C318.889 260.44 317.903 259.791 315.504 259.017C309.496 257.029 305.012 254.246 297.121 247.528C295.395 246.064 293.019 244.076 291.853 243.134C289.163 240.958 288.625 240.372 287.773 238.844C286.697 236.856 286.45 235.37 286.316 229.888C286.181 224.719 286.383 220.785 287.168 213C288.468 199.775 288.58 194.104 287.706 185.21C286.854 176.358 286.674 172.738 286.562 162.359C286.45 151.833 286.405 151.624 285.217 150.891C284.679 150.577 283.895 150.494 279.635 150.368C275.757 150.264 274.3 150.138 272.82 149.803C266.094 148.213 261.162 144.844 255.648 138.043C249.819 130.844 246.837 129.233 242.623 131.032ZM89.7307 307.021C86.9957 308.193 83.7675 312.337 79.3062 320.435C73.0291 331.819 69.2181 344.542 68.1196 357.788C67.9851 359.462 67.5143 362.832 67.0659 365.301L66.2813 369.779L66.6624 376.078C67.335 387.776 68.2765 394.995 70.2717 403.512C72.9395 414.98 77.5576 426.594 83.1397 435.885C85.4713 439.756 86.0317 440.133 91.0085 441.158C104.056 443.858 111.297 448.503 116.319 457.376C117.686 459.803 118.381 460.452 119.368 460.243C120.937 459.929 125.6 455.995 127.886 453.107C132.549 447.206 134.051 440.342 132.482 432.265C130.823 423.769 128.268 419.918 121.811 416.172C117.552 413.703 114.929 411.108 112.978 407.467C111.342 404.412 110.714 402.089 110.131 397.276C109.526 391.898 108.405 388.173 105.132 380.535C102.89 375.304 102.487 372.855 103.204 368.984C104.392 362.622 109.414 357.265 116.027 355.277C117.171 354.942 118.829 354.587 119.704 354.524C122.372 354.273 122.259 354.545 122.259 348.434C122.259 345.505 122.125 342.282 121.968 341.047C120.085 326.671 113.696 315.978 103.63 310.286C100.693 308.612 96.1871 306.833 93.9005 306.436C92.7796 306.247 90.9637 306.498 89.7307 307.021ZM327.767 443.816C322.117 444.381 316.087 446.034 310.729 448.503C305.192 451.056 301.112 453.798 297.009 457.732C294.812 459.845 292.301 462.691 292.301 463.068C292.301 463.256 304.609 467.086 306.649 467.546C310.303 468.32 311.94 467.776 313.262 465.286C313.98 463.884 314.989 460.682 315.616 457.732C315.975 456.1 316.58 455.514 317.948 455.514C319.651 455.514 320.1 456.309 320.1 459.385C320.1 460.18 319.898 461.645 319.651 462.628C318.777 466.207 319.158 467.462 321.4 468.446C322.543 468.948 322.947 469.011 325.032 469.011C327.162 468.99 327.543 468.927 328.977 468.362C329.852 468.006 331.152 467.358 331.892 466.918C333.73 465.788 336.846 462.796 337.877 461.164L338.729 459.803L338.595 457.857C338.438 455.534 338.55 455.304 339.985 455.304C341.195 455.304 342.406 455.744 342.72 456.309C343.303 457.313 342.675 460.871 341.307 464.449C341.128 464.951 341.016 465.349 341.083 465.349C341.375 465.349 347.741 460.201 348.436 459.406C348.885 458.925 349.512 457.962 349.849 457.271C350.409 456.162 350.476 455.807 350.476 453.839C350.476 451.705 350.454 451.559 349.625 450.031C348.705 448.273 347.203 446.829 345.432 445.992C343.482 445.071 339.245 444.088 335.793 443.732C334.066 443.565 329.829 443.607 327.767 443.816ZM80.6065 444.423C75.1589 445.406 71.0564 446.829 68.2317 448.692C66.3037 449.989 64.2188 452.165 63.3445 453.819C62.7392 454.969 62.6271 455.43 62.6271 456.665C62.6271 458.485 63.1876 459.615 64.8465 461.143C67.3798 463.466 70.4062 464.093 75.0244 463.235C76.8178 462.901 76.9523 462.608 76.7506 459.217C76.6161 456.665 76.6385 456.413 77.0196 455.953C77.3335 455.597 77.737 455.43 78.5665 455.367C79.9788 455.242 80.5392 455.639 82.1085 457.899C83.4536 459.845 84.3055 460.578 86.0541 461.352C87.175 461.833 87.601 461.896 90.4257 461.959C93.9677 462.022 94.6403 461.854 94.7524 460.892C94.7972 460.557 94.6627 459.866 94.4833 459.343C93.7436 457.313 94.2144 455.869 95.806 455.304C97.465 454.718 98.5859 455.367 99.8637 457.627C100.379 458.527 101.142 459.469 101.904 460.117C103.608 461.561 105.177 462.001 108.674 461.98C110.109 461.98 111.656 461.917 112.104 461.833L112.934 461.687L112.306 460.201C110.311 455.451 104.146 449.968 97.3977 446.934C91.4569 444.276 85.9644 443.46 80.6065 444.423Z" fill="white"/>
<path d="M126.855 378.046C126.586 374.301 126.564 364.947 126.855 361.243C125.981 361.305 117.171 354.944 116.027 355.279C109.414 357.267 104.392 362.624 103.204 368.985C102.487 372.857 102.89 375.305 105.132 380.537C108.405 388.175 109.526 391.899 110.131 397.277C110.714 402.09 111.342 404.413 112.978 407.469C114.929 411.11 129.546 417.785 133.805 420.254C131.384 411.34 131.003 409.519 129.456 398.91C128.066 389.556 127.214 382.629 126.855 378.046Z" fill="#DAFDA0"/>
<path d="M178.171 352.76C177.7 352.76 190.837 399.802 191.017 394.863L192.9 395.993C193.931 396.621 196.823 398.274 199.334 399.676C209.489 405.368 212.224 407.44 216.372 412.629C219.062 416.02 220.99 417.17 223.568 416.961C226.796 416.71 229.15 414.199 230.854 409.219C232.199 405.284 232.557 401.246 231.907 397.437C230.136 387.141 231.414 376.929 236.212 363.014C237.983 357.887 238.14 357.133 238.117 353.911C238.095 351.692 237.983 350.793 237.512 349.098C236.413 345.164 233.477 340.581 229.867 337.191C225.787 333.382 221.035 331.164 214.399 330.034C212.538 329.699 211.014 329.636 205.319 329.636C198.953 329.636 198.37 329.678 196.733 330.118C193.191 331.038 190.815 332.503 189.156 334.784C187.923 336.479 187.452 337.567 186.578 340.811C185.703 344.034 184.762 346.001 183.103 348.051C181.982 349.432 178.507 352.76 178.171 352.76Z" fill="#DAFDA0"/>
<path d="M249.146 83.7426C253.047 84.4541 255.603 85.9399 256.813 88.1371C257.576 89.5392 257.755 91.7992 257.239 93.7035C255.827 99.0187 246.927 110.068 242.421 112.139C241.143 112.725 240.538 112.872 239.125 112.935C237.556 112.997 237.242 112.935 235.897 112.349C232.871 111.03 228.948 106.448 225.921 100.714C224.173 97.3865 223.612 95.3148 223.747 92.6363C223.836 90.8575 223.948 90.4181 224.666 89.016C226.033 86.3375 228.342 84.7052 231.884 83.9519C234.081 83.4706 246.837 83.3241 249.146 83.7426Z" fill="#DAFDA0"/>
<path d="M201.956 67.9785C205.879 68.5854 208.771 71.2639 209.264 74.7377C209.421 75.8677 208.838 78.4207 208.076 79.8855C207.202 81.5596 205.162 83.4848 203.48 84.1754C199.131 85.9959 192.899 84.0289 190.792 80.1785C188.841 76.621 189.424 73.1263 192.406 70.5106C195.118 68.125 197.943 67.3716 201.956 67.9785ZM199.266 74.5493C198.593 74.8841 198.01 75.6793 197.921 76.4327C197.809 77.3953 197.966 77.8347 198.683 78.5881C199.378 79.2786 199.58 79.3623 200.544 79.3623C201.889 79.3623 202.763 78.8601 203.234 77.8557C203.682 76.8093 203.436 75.784 202.516 74.926C201.911 74.361 201.597 74.2354 200.857 74.2354C200.342 74.2354 199.624 74.3819 199.266 74.5493Z" fill="#DAFDA0"/>
<path d="M277.46 63.8788C281.115 64.6321 283.312 67.0596 283.513 70.5961C283.715 74.2373 281.765 77.6273 278.738 78.841C274.681 80.4523 269.188 79.3851 267.103 76.5601C265.848 74.8441 265.512 73.8606 265.534 71.6215C265.534 68.1687 266.655 66.3272 269.614 64.8623C272.058 63.6486 274.658 63.3138 277.46 63.8788ZM273.874 69.78C272.932 70.6798 272.775 71.9772 273.515 72.9817C274.232 73.9652 274.927 74.2791 276.16 74.1535C276.945 74.0908 277.304 73.9234 277.886 73.3165C278.492 72.6887 278.626 72.3957 278.626 71.6006C278.626 70.7426 278.514 70.5333 277.729 69.8009C276.878 68.9848 276.788 68.9639 275.689 69.0476C274.815 69.1313 274.389 69.2987 273.874 69.78Z" fill="#DAFDA0"/>
<path d="M271.586 200.188C274.097 201.255 277.101 206.675 278.088 211.928C278.67 215.067 278.581 218.938 277.751 224.693C277.37 227.392 276.899 231.054 276.72 232.833C276.339 236.579 276.272 243.275 276.608 245.828C277.348 251.353 279.164 256.438 281.966 260.749C283.513 263.155 284.006 264.641 284.006 266.901C283.984 270.207 282.683 272.781 279.522 275.753C276.473 278.619 273.851 279.603 267.641 280.252C263.673 280.649 260.983 280.649 257.508 280.231C246.523 278.912 238.25 274.183 234.91 267.298C234.081 265.603 233.61 263.867 233.229 261.125C231.929 251.813 233.162 243.15 236.816 236.098C239.887 230.175 244.124 225.76 251.096 221.24C254.481 219.043 256.432 217.557 258.472 215.569C261.902 212.179 263.247 209.605 264.48 203.934C264.637 203.285 265.063 202.344 265.421 201.82C266.699 200.021 269.457 199.288 271.586 200.188Z" fill="#DAFDA0"/>
<path d="M1262.98 361.264C1264.67 360.728 1265.41 359.514 1266.15 358.301C1269.4 352.751 1272.62 347.3 1275.87 341.75C1281.86 331.604 1287.3 321.032 1294.21 311.327C1298.26 305.609 1302.91 300.217 1308.81 295.953C1311.61 293.882 1314.79 292.062 1318.15 290.417C1319.81 289.645 1321.81 289.223 1323.62 288.961C1328.98 288.374 1332.63 291.382 1332.89 296.371C1333.12 299.978 1332.16 303.504 1331.03 306.854C1328.61 313.951 1325.26 320.608 1321.5 327.112C1318.51 332.303 1315.7 337.669 1313 343.073C1309.62 349.829 1306.34 356.622 1303.02 363.515C1301.63 366.316 1300.56 369.231 1300.52 372.29C1300.46 373.633 1300.27 375.274 1301.68 376.004C1303.02 376.597 1304.23 375.436 1305.27 374.672C1309.24 371.539 1313.1 368.368 1317.17 365.273C1320.16 363.042 1323.15 360.811 1326.38 358.892C1328.97 357.317 1331.87 356.191 1334.67 355.028C1336.24 354.454 1337.95 354.154 1339.69 354.091C1344.57 353.787 1347.84 356.208 1348.96 360.593C1350.27 365.725 1348.97 370.38 1346.21 374.739C1341.84 381.824 1335.98 387.469 1328.85 392.085C1323.87 395.311 1318.48 398.049 1312.69 399.964C1311.3 400.378 1309.98 400.929 1308.55 401.442C1298.85 404.574 1290.56 409.918 1282.75 415.886C1278.49 419.141 1275.87 423.439 1273.21 427.836C1269.45 434.341 1267.21 441.277 1264.4 448.123C1262.24 453.382 1260.19 458.679 1258.07 463.839C1257.26 465.823 1256.12 467.693 1255.03 469.465C1254.06 470.938 1252.53 471.985 1250.61 472.208C1245.57 472.91 1240.77 472.443 1236.62 469.481C1233.47 467.335 1232.35 464.43 1233.27 461.003C1233.71 459.339 1234.47 457.791 1235.22 456.241C1236.31 453.897 1237.6 451.63 1238.47 449.211C1241.27 441.792 1244.03 434.474 1246.73 427.017C1248.19 422.874 1249.39 418.753 1250.74 414.571C1251.42 412.312 1251.16 410.283 1249.52 408.333C1246.96 405.369 1244.58 402.244 1241.87 399.341C1235.3 391.875 1232.17 383.473 1231.76 373.77C1231.26 363.694 1232.48 353.891 1235.1 344.245C1236.04 339.576 1237.44 334.387 1240.29 329.829C1241.65 327.699 1243.01 325.569 1244.65 323.652C1246.14 321.796 1248.15 320.466 1250.46 319.586C1254.5 318.07 1258.58 319.415 1260.24 323.082C1261.29 325.277 1261.86 327.756 1262.18 330.257C1262.93 336.443 1262.46 342.645 1261.77 348.771C1261.47 351.281 1261.17 353.791 1260.98 356.339C1260.82 358.216 1261.1 359.909 1262.98 361.264Z" fill="#EE8DB9"/>
<path fill-rule="evenodd" clip-rule="evenodd" d="M1311.22 292.246C1309.55 293.467 1307.91 294.667 1307.18 296.439C1306.22 298.485 1306.54 300.079 1307.89 301.244C1309.28 302.31 1311.84 302.314 1313.48 301.305C1315.82 299.754 1317.01 295.061 1315.64 292.751C1314.88 291.341 1313.18 290.733 1312.09 291.597C1311.8 291.816 1311.51 292.031 1311.22 292.246ZM1328.13 308.899C1327.98 309.096 1327.83 309.284 1327.68 309.456C1327.6 309.822 1327.52 310.157 1327.44 310.467L1327.44 310.468L1327.44 310.468C1327.24 311.317 1327.08 311.986 1327 312.623C1326.85 314.164 1327.29 315.46 1328.77 316.328C1330.34 317.233 1331.87 317.094 1333.42 316.283C1335.12 315.411 1335.98 313.9 1336.42 312.236C1336.76 311.107 1336.81 310.1 1335.55 309.308C1335.16 309.057 1335.01 308.546 1334.96 308.073C1334.6 305.671 1332.62 304.85 1330.53 306.378C1329.54 307.121 1328.77 308.091 1328.13 308.899L1328.13 308.899ZM1244.52 318.415C1245.12 316.327 1246.69 315.082 1248.22 313.86C1248.88 313.331 1249.54 312.807 1250.11 312.222C1251.05 311.419 1252.15 311.7 1252.97 312.676C1253.99 314.063 1253.99 315.542 1253.59 317.107C1253.23 318.572 1253.13 320.013 1253.35 321.569C1253.78 323.773 1251.96 326.423 1249.65 327.303C1246.9 328.367 1243.98 326.868 1243.72 323.932C1243.73 322.721 1243.96 321.49 1244.2 320.259C1244.32 319.644 1244.43 319.028 1244.52 318.415ZM1232.59 391.745C1233.44 390.57 1234.56 389.035 1235.85 387.674C1236.64 386.934 1237.75 386.307 1238.91 386.153C1240.22 385.938 1241.27 385.746 1242.49 385.157C1243.75 384.468 1244.88 384.985 1245.17 386.343C1245.42 387.227 1245.48 388.273 1245.15 389.066C1244.46 390.753 1243.77 392.439 1242.58 393.838C1241.47 395.248 1240.02 396.539 1238.63 397.775C1238.45 397.938 1238.27 398.099 1238.09 398.26C1236.77 399.382 1234.89 399.508 1233.53 398.678C1232.05 397.81 1231.5 396.476 1231.65 394.934C1231.76 394.232 1231.98 393.568 1232.26 392.75L1232.26 392.75C1232.36 392.441 1232.48 392.109 1232.59 391.745ZM1293.84 411.961L1293.84 411.96L1293.84 411.96C1293.75 411.724 1293.66 411.493 1293.58 411.268C1294.86 409.336 1295.02 408.367 1293.92 407.179C1292.95 406.265 1291.45 406.068 1289.94 406.78C1289.87 406.811 1289.78 406.866 1289.7 406.921L1289.7 406.921C1289.61 406.977 1289.53 407.032 1289.46 407.063C1286.43 409.394 1284.7 412.416 1284.89 416.123C1284.94 418.077 1286.38 419.615 1288.16 420.024C1290.05 420.472 1292.32 419.691 1293.44 418.156C1294.52 416.72 1294.81 415.119 1294.31 413.349C1294.2 412.863 1294.02 412.402 1293.84 411.961ZM1353.08 366.999C1352.89 367.286 1352.71 367.591 1352.52 367.903L1352.52 367.903C1352.04 368.696 1351.54 369.532 1350.91 370.206C1349.62 371.565 1347.77 371.926 1346.25 371.158C1344.85 370.427 1344.12 368.918 1344.46 367.217C1344.68 366.385 1345.11 365.629 1345.54 364.873C1345.75 364.354 1345.99 363.863 1346.23 363.376L1346.23 363.376C1346.59 362.652 1346.94 361.934 1347.19 361.141C1347.74 359.515 1348.61 358.576 1350.09 358.536C1351.46 358.458 1352.98 359.226 1353.49 360.66C1353.84 361.582 1354 362.665 1353.96 363.672C1353.91 363.851 1353.85 364.038 1353.8 364.231L1353.8 364.232C1353.57 365.043 1353.3 365.976 1353.08 366.999ZM1256.2 356.495C1258.58 354.272 1257.49 349.788 1254.3 348.648C1253.17 348.131 1251.99 348.048 1251.22 349.026C1249.73 350.881 1248.3 352.874 1247.19 354.981C1246.25 356.691 1246.93 358.3 1248.36 359.266C1249.79 360.233 1251.63 360.208 1253.2 359.062C1254.24 358.297 1255.22 357.396 1256.2 356.495ZM1331.57 394.466C1330.7 395.978 1329.71 397.215 1328.05 397.988C1325.07 399.311 1321.94 397.736 1321.57 394.761C1321.26 392.26 1322.26 390.115 1324.35 388.587C1325.92 387.44 1327.57 387.576 1329.02 388.779C1329.24 388.922 1329.4 389.115 1329.55 389.295C1329.66 389.433 1329.76 389.563 1329.88 389.655C1330.07 389.8 1330.33 389.944 1330.6 390.089C1331.11 390.372 1331.63 390.66 1331.66 390.972C1331.88 391.89 1331.76 392.838 1331.64 393.814C1331.62 394.03 1331.59 394.247 1331.57 394.466ZM1262.72 393.975C1262.86 394.06 1263 394.149 1263.14 394.244C1263.31 394.221 1263.48 394.201 1263.66 394.18C1264.48 394.087 1265.41 393.981 1266.03 393.455C1267.07 392.69 1268.13 391.591 1268.83 390.476C1269.06 390.14 1269.19 389.755 1269.33 389.361C1269.56 388.682 1269.81 387.976 1270.56 387.453C1270.9 387.231 1270.99 386.125 1270.75 385.813C1269.82 384.799 1268.79 383.748 1267.57 382.858C1267.19 382.606 1266.32 382.638 1265.99 382.86C1265.73 383.016 1265.48 383.172 1265.22 383.327L1265.22 383.327L1265.22 383.328L1265.22 383.328L1265.22 383.328C1263.82 384.178 1262.4 385.044 1261.22 386.161C1260.01 387.323 1260.16 391.701 1261.37 392.928C1261.7 393.322 1262.15 393.612 1262.72 393.974L1262.72 393.974L1262.72 393.975ZM1285.03 363.497C1284.36 365.42 1282.83 366.467 1281 367.065C1278.1 368.19 1275.41 366.431 1275.26 363.533C1275.16 361.107 1277.43 357.939 1279.85 357.096C1282.42 356.193 1285.49 358.202 1285.47 360.926C1285.47 361.833 1285.25 362.665 1285.03 363.497ZM1316.16 336.055C1315.55 337.544 1314.41 338.842 1312.68 339.477C1310.66 340.235 1308.24 339.598 1307.14 337.837C1305.99 336.176 1306.36 334.375 1308.1 332.832C1308.89 332.091 1309.57 331.312 1310.26 330.533C1311.4 329.235 1313 328.897 1314.54 329.902C1316.36 331.12 1317.14 333.674 1316.16 336.055ZM1325.62 371.521C1323.35 370.822 1322.38 368.428 1323.87 366.573C1325.1 365.076 1326.75 363.731 1328.49 362.76C1330.52 361.667 1332.02 362.771 1332.73 365.188C1333.25 367.193 1332.17 368.629 1330.78 369.95C1329.15 371.532 1327.32 372.129 1325.62 371.521ZM1295.88 390.814C1294.39 390.282 1292.76 391.291 1291.99 393.176C1290.94 395.42 1291.67 397.502 1293.69 398.224C1295.44 398.732 1297.79 397.752 1298.63 396.005C1299.44 394.02 1298.16 391.513 1295.88 390.814Z" fill="white"/>
<path d="M809.912 57.9058H814.912L823.962 28.5058L827.962 24.2058V23.9058H817.062V24.2058L823.412 28.5058L815.962 52.8558L807.262 24.4558L811.612 24.2058V23.9058H795.262V24.2058L799.612 24.4558L803.412 36.8558L797.912 53.4558L788.112 24.4558L792.612 24.2058V23.9058H777.762V24.2058L780.662 24.4558L791.912 57.9058H796.962L803.662 37.6558L809.912 57.9058ZM860.232 57.9058V57.6058L856.182 57.3558V40.9058C856.182 34.9558 853.482 31.8058 848.032 31.8058C844.332 31.8058 841.282 33.9058 839.632 36.8058V21.4058L829.482 21.6058V21.9058L833.532 22.1058V57.3558L829.482 57.6058V57.9058H843.682V57.6058L839.632 57.3558V38.0558C840.932 34.7058 844.132 32.7558 846.232 32.7558C848.682 32.7558 850.082 34.4058 850.082 38.2558V57.3558L846.032 57.6058V57.9058H860.232ZM887.855 45.1058C887.855 36.9058 881.905 31.8058 875.255 31.8058C868.505 31.8058 862.605 36.9058 862.605 45.1058C862.605 53.4058 868.505 58.4058 875.255 58.4058C881.905 58.4058 887.855 53.4058 887.855 45.1058ZM881.105 45.1058C881.105 55.7058 879.605 57.9558 875.255 57.9558C870.855 57.9558 869.355 55.7058 869.355 45.1058C869.355 34.5058 870.855 32.2558 875.255 32.2558C879.605 32.2558 881.105 34.5058 881.105 45.1058ZM936.279 57.9058H941.279L950.329 28.5058L954.329 24.2058V23.9058H943.429V24.2058L949.779 28.5058L942.329 52.8558L933.629 24.4558L937.979 24.2058V23.9058H921.629V24.2058L925.979 24.4558L929.779 36.8558L924.279 53.4558L914.479 24.4558L918.979 24.2058V23.9058H904.129V24.2058L907.029 24.4558L918.279 57.9058H923.329L930.029 37.6558L936.279 57.9058ZM976.478 51.8558L976.028 51.6558C974.328 55.8558 971.078 57.7558 967.178 57.7558C961.928 57.7558 960.128 55.0058 960.078 44.8058H976.928C976.328 37.0058 971.428 31.8058 965.228 31.8058C958.928 31.8058 953.328 37.2058 953.328 45.1058C953.328 53.0058 958.728 58.4058 966.178 58.4058C971.228 58.4058 974.678 56.4058 976.478 51.8558ZM965.228 32.2558C968.728 32.2558 970.228 34.4558 970.278 44.3058H960.078C960.078 35.3558 961.228 32.2558 965.228 32.2558ZM1003.45 57.6058L997.251 53.3058L999.851 45.6058H1011.5L1015.4 57.3558L1010.9 57.6058V57.9058H1026.25V57.6058L1022.85 57.3558L1011.35 22.7058L1004.7 24.9558V25.2558L1005.45 27.5058L996.751 53.3058L992.551 57.6058V57.9058H1003.45V57.6058ZM1000.05 45.1058L1005.7 28.2558L1011.3 45.1058H1000.05ZM1042.68 57.9058V57.6058L1037.63 57.3558V38.0558C1038.73 34.5058 1041.33 32.7058 1043.23 32.4058L1047.63 40.7058L1048.03 40.6058L1047.43 32.3558C1046.53 32.0058 1045.53 31.8058 1044.33 31.8058C1041.58 31.8058 1038.88 33.7558 1037.48 37.0558L1036.03 32.3058L1027.48 32.5058V32.8058L1031.53 33.0058V57.3558L1027.48 57.6058V57.9058H1042.68ZM1073.16 51.8558L1072.71 51.6558C1071.01 55.8558 1067.76 57.7558 1063.86 57.7558C1058.61 57.7558 1056.81 55.0058 1056.76 44.8058H1073.61C1073.01 37.0058 1068.11 31.8058 1061.91 31.8058C1055.61 31.8058 1050.01 37.2058 1050.01 45.1058C1050.01 53.0058 1055.41 58.4058 1062.86 58.4058C1067.91 58.4058 1071.36 56.4058 1073.16 51.8558ZM1061.91 32.2558C1065.41 32.2558 1066.91 34.4558 1066.96 44.3058H1056.76C1056.76 35.3558 1057.91 32.2558 1061.91 32.2558ZM1085.17 47.9058L1085.32 44.1058L1087.82 42.4558C1095.07 37.6558 1097.02 35.2058 1097.02 31.0058C1097.02 26.2558 1093.17 23.4058 1087.97 23.4058C1085.12 23.4058 1083.22 24.4558 1081.02 26.6058L1077.72 23.9058H1077.47L1076.72 33.5058L1077.02 33.6058L1078.87 30.4558C1080.97 26.9058 1084.07 24.0558 1087.07 24.0558C1089.57 24.0558 1090.37 26.8558 1090.37 31.8558C1090.37 37.7558 1089.62 40.2558 1086.62 42.5058L1084.72 43.9558L1084.87 47.9058H1085.17ZM1088.57 54.7558C1088.57 52.7058 1086.82 51.2058 1084.97 51.2058C1083.07 51.2058 1081.37 52.7058 1081.37 54.7558C1081.37 56.9058 1083.12 58.3058 1084.97 58.3058C1086.82 58.3058 1088.57 56.9058 1088.57 54.7558Z" fill="white"/>
<path d="M1153.92 397.358C1153.92 412.118 1141.09 424.141 1125.19 424.141C1109.29 424.141 1096.46 412.118 1096.46 397.358C1096.46 382.597 1109.29 370.574 1125.19 370.574C1141.09 370.574 1153.92 382.597 1153.92 397.358Z" stroke="#FF8154"/>
<path d="M1133.12 383.514L1139.75 405.198L1116.32 410.686L1134.11 402.162L1133.12 383.514Z" fill="white"/>
<path d="M1135.06 402.667L1110.64 389.507" stroke="white"/>
</svg>
