<svg width="218" height="327" viewBox="0 0 218 327" fill="none" xmlns="http://www.w3.org/2000/svg">
<path d="M125.594 71.2002C130.569 71.3389 135.393 71.6393 136.865 71.882C140.46 72.4944 143.719 73.8464 146.49 75.9032C147.963 77.001 149.888 78.9769 151.257 80.8027C153.332 83.5644 154.817 84.6275 157.658 85.4017C165.033 87.4008 169.602 91.7455 172.026 99.0947C172.64 100.944 173 102.504 173.487 105.392C174.612 112.037 176.305 118.831 178.404 125.152C180.537 131.53 182.509 136.233 185.791 142.716C187.6 146.31 188.203 147.696 189.014 150.181C190.371 154.352 191.287 159.148 192.029 166C192.482 170.09 192.598 172.575 192.528 176.053C192.343 184.488 190.812 192.288 187.623 200.931C186.046 205.184 183.645 210.488 182.544 212.14C181.859 213.169 180.897 214.058 180.074 214.451C179.459 214.74 179.285 214.763 178.067 214.752C176.548 214.752 176.038 214.613 174.009 213.654C172.559 212.961 171.168 212.198 167.468 210.06C165.949 209.182 164.685 208.477 164.674 208.489C164.65 208.512 164.836 209.459 165.091 210.603C165.624 213.076 166.262 216.774 166.552 219.096C166.715 220.448 166.761 221.615 166.761 225.105C166.761 230.675 166.517 233.321 165.079 243.94C164.036 251.671 163.804 254.479 163.804 259.482C163.804 265.283 164.256 271.28 165.497 282.188C166.251 288.81 166.459 289.873 168.674 298.308C169.057 299.764 169.579 302.006 169.846 303.277C170.657 307.275 170.982 307.656 173.962 307.945C176.456 308.199 178.009 308.812 179.297 310.094C180.607 311.389 181.025 312.533 181.013 314.832C181.013 315.918 180.955 316.415 180.758 317.12C179.9 320.113 177.789 322.285 173.962 324.076C170.773 325.578 168.048 326.145 164.036 326.145C160.557 326.156 158.655 325.902 153.309 324.712C148.752 323.706 147.476 323.545 144.438 323.579L142.409 323.614L141.655 323.256C141.226 323.059 140.669 322.667 140.356 322.355C139.753 321.742 139.034 320.436 138.651 319.281C138.129 317.663 138.048 316.958 137.944 312.544C137.898 310.198 137.828 308.269 137.805 308.246C137.782 308.222 137.457 308.465 137.074 308.789C133.549 311.724 131.751 312.972 129.165 314.277C125.002 316.404 119.946 317.86 115.006 318.356C114.357 318.414 113.649 318.553 113.441 318.657C112.513 319.119 112.084 319.939 112.084 321.245C112.084 322.308 111.852 323.799 111.597 324.388C111.307 325.07 110.634 325.694 109.973 325.879C109.266 326.087 107.353 326.052 105.126 325.798C102.378 325.486 93.9819 325.486 89.1231 325.81C84.67 326.098 79.6836 326.11 77.6426 325.833C71.6821 325.012 69.7919 323.475 71.0675 320.471C71.6125 319.2 71.7632 318.483 71.7053 317.455C71.6009 315.86 70.9399 314.543 69.1657 312.417C68.2495 311.308 68.2032 311.273 68.0988 311.55C68.0408 311.701 67.6813 312.452 67.3102 313.214C64.9098 318.171 61.1873 321.083 56.0733 322.008C54.9717 322.216 52.2697 322.285 49.2894 322.181C48.4197 322.158 47.4804 322.216 46.3324 322.378C42.2156 322.967 36.6841 323.117 34.5504 322.701C31.5585 322.112 29.332 320.748 28.4507 318.969C27.349 316.739 28.3231 313.468 30.77 311.169C32.2079 309.817 33.7386 309.077 37.032 308.118C38.0293 307.83 38.9107 307.552 38.9918 307.506C39.0846 307.46 38.9918 307.217 38.7135 306.743C38.0293 305.599 36.0811 301.659 35.281 299.81C30.0974 287.804 28.4739 275.163 30.3293 261.158C31.3962 253.138 33.2632 246.517 36.0231 241.04C38.2149 236.672 41.2879 232.558 42.8998 231.819C43.6536 231.472 44.6045 231.322 45.5206 231.414C46.5759 231.507 48.698 231.981 49.8692 232.385C51.342 232.905 51.6435 232.836 52.0378 231.946C52.4784 230.975 53.5105 229.277 55.308 226.63C57.778 222.956 58.7521 220.968 59.2855 218.519C59.6218 216.936 59.5638 214.151 59.1116 210.753C58.5665 206.674 58.5897 205.288 59.2623 201.371C60.6771 193.155 61.6512 185.702 62.1614 179.231C62.5209 174.551 62.5905 172.748 62.6369 166.231C62.6833 159.506 62.7644 157.53 63.1007 154.849C63.8893 148.574 65.7911 142.496 68.5394 137.516C68.9105 136.846 69.5135 135.748 69.8846 135.078C71.5081 132.108 72.1807 130.167 72.6098 127.174C73.2244 122.783 73.7578 119.871 74.8131 115.099C75.7988 110.673 78.6979 99.1294 79.2197 97.581C81.5622 90.59 85.934 85.2399 93.2398 80.3867C96.0925 78.5032 100.546 75.961 103.329 74.6437C107.585 72.6331 112.838 71.4429 118.346 71.2465C121.883 71.1194 122.66 71.1194 125.594 71.2002ZM117.685 73.1646C106.97 74.0313 97.5884 78.457 88.3577 86.9848C85.4702 89.6656 84.1946 91.1562 83.2321 93.0282C82.4899 94.461 82.4203 94.6459 80.7273 100.424C76.7961 113.758 75.5669 119.42 75.0914 126.307C74.8131 130.317 74.0361 132.674 71.2414 137.92C69.7571 140.717 68.9453 142.566 68.0756 145.189C66.9855 148.482 65.6983 153.797 65.6983 155.034C65.6983 156.028 66.2665 156.802 67.3798 157.333C67.6929 157.484 68.4583 157.842 69.0845 158.131C71.8096 159.413 74.6391 161.828 76.2742 164.267C77.7122 166.416 78.9182 169.328 79.5096 172.089C79.8459 173.626 79.8691 176.376 79.5676 177.786C79.127 179.808 78.3152 181.738 77.0048 183.864C74.7435 187.516 73.6187 190.728 72.5982 196.448C71.6589 201.683 68.9685 205.935 64.7126 208.916C63.0428 210.083 62.5673 210.719 62.5673 211.782C62.5673 212.452 62.9036 213.18 63.7037 214.301C65.0721 216.219 65.9534 216.901 67.1015 216.901C67.89 216.901 68.5163 216.6 70.6848 215.202C75.1842 212.302 81.2143 209.298 87.6155 206.767C88.9839 206.224 90.5494 205.565 91.0944 205.311C93.3673 204.213 95.7678 202.283 97.2985 200.319C98.1451 199.221 98.6553 198.424 99.757 196.39C100.209 195.558 101.207 193.825 101.983 192.519C104.569 188.198 105.961 185.089 106.506 182.385C106.819 180.895 107.016 177.717 106.924 175.88C106.703 171.57 106.123 168.75 104.581 164.509C102.772 159.494 100.65 155.196 97.3101 149.73C90.8973 139.215 87.4764 129.751 86.2935 119.143C85.8181 114.983 85.7717 109.46 86.166 106.906C86.8965 102.215 88.6128 98.6787 91.5467 95.8015C94.527 92.8895 98.3306 91.1331 103.236 90.4051C104.941 90.1625 109.324 90.1278 110.402 90.3589C112.699 90.8558 114.612 92.6006 115.412 94.9348C115.702 95.7668 115.737 96.0094 115.737 97.477C115.737 99.0485 115.725 99.1294 115.296 100.366C114.716 102.041 113.36 104.791 112.316 106.375C111.04 108.304 109.915 109.633 107.619 111.921C106.471 113.065 105.172 114.44 104.743 114.983C99.3511 121.651 97.7044 129.358 99.4554 139.654C99.583 140.416 99.9193 142.057 100.198 143.294C100.464 144.53 100.754 146.079 100.835 146.737C100.905 147.384 101.044 148.182 101.137 148.494C101.578 149.973 103.085 150.724 104.767 150.296C106.147 149.938 107.295 149.164 109.405 147.153C112.177 144.507 113.928 142.011 115.946 137.84C117.627 134.338 119.193 132.559 121.141 131.958C123.321 131.276 125.582 132.247 128.342 135.043C130.012 136.742 131.23 138.209 132.354 139.873C133.827 142.046 134.72 142.901 136.494 143.779C137.515 144.287 138.512 144.611 139.915 144.9C141.469 145.223 145.342 145.743 145.586 145.663C146.154 145.489 146.305 145.119 146.653 143.039C147.244 139.608 147.963 136.95 149.088 134.038C149.935 131.831 150.109 131.253 150.224 130.248C150.688 126.03 147.824 121.905 139.277 114.463C132.586 108.616 130.847 106.652 129.061 102.908C128.11 100.897 127.82 99.9614 127.762 98.6672C127.704 97.3383 127.89 96.6681 128.551 95.7899C129.119 95.0273 129.954 94.4148 131.357 93.71C133.792 92.4967 136.749 91.7224 139.66 91.5491C143.313 91.318 147.766 91.9304 150.352 93.0166C155.281 95.0735 158.122 101.082 158.122 109.437C158.122 114.972 157.24 118.82 153.657 128.85C151.28 135.529 150.364 138.544 149.598 142.3C148.589 147.246 148.334 149.857 148.334 155.138C148.323 159.332 148.369 160.072 148.856 164.082C149.459 169.004 149.355 173.915 148.427 184.546C148.01 189.318 147.952 191.629 148.195 192.854C148.74 195.524 149.795 196.899 153.657 199.972C158.516 203.855 161.079 205.242 166.274 206.79C167.596 207.183 168.779 207.807 171.388 209.471C176.571 212.799 178.647 213.226 180.329 211.32C181.268 210.257 181.662 209.309 186.382 196.852C188.655 190.855 188.887 190.185 188.945 189.388C188.991 188.579 188.968 188.452 188.678 187.92C188.493 187.574 187.994 187.007 187.426 186.51C184.793 184.188 183.007 181.472 181.906 178.11C181.013 175.394 180.665 173.06 180.503 168.658C180.387 165.33 180.213 163.955 179.633 161.724C178.833 158.616 177.801 156.293 175.18 151.729C173.185 148.251 172.362 145.316 172.629 142.67C172.803 140.936 173.174 139.896 174.31 137.92C175.261 136.268 175.667 135.806 176.595 135.344C177.58 134.847 178.23 134.211 178.415 133.529C178.624 132.802 178.415 132.016 177.453 129.89C175.864 126.354 174.797 122.887 173.777 117.907C173.649 117.306 173.151 114.59 172.675 111.886C170.785 101.29 169.846 98.1934 167.387 94.4842C165.021 90.902 161.705 88.591 157.078 87.2968C154.028 86.4301 152.579 85.471 150.758 83.0906C148.613 80.2943 146.49 78.3645 143.777 76.7814C140.24 74.7015 135.613 73.4651 130.232 73.1646C127.762 73.026 119.366 73.026 117.685 73.1646ZM104.546 92.462C98.7365 93.5713 95.675 94.8424 93.147 97.1881C91.3032 98.9098 89.6797 101.521 88.9839 103.89C88.2417 106.432 88.0446 114.452 88.6128 119.536C89.4709 127.301 91.9526 135.205 95.7214 142.15C96.51 143.606 98.1566 146.414 98.2146 146.414C98.261 146.414 98.1914 145.894 97.5188 141.56C96.6955 136.118 96.5563 134.997 96.4404 132.767C96.1273 126.562 97.2405 122.24 100.337 117.583C101.473 115.873 102.447 114.625 104.767 111.863C110.252 105.358 112.803 101.614 113.418 99.1756C113.754 97.8352 113.638 96.4601 113.104 95.397C112.188 93.5713 110.495 92.3695 108.512 92.1153C107.469 91.9882 106.68 92.0576 104.546 92.462ZM138.906 93.7793C137.097 94.0219 134.952 94.4495 133.746 94.8308C130.569 95.8246 129.339 97.4539 129.873 99.9498C130.105 101.048 130.545 101.972 131.427 103.197C133.12 105.543 134.175 106.617 143.093 115.018C146.885 118.589 148.439 120.31 150.004 122.668C151.257 124.563 151.976 125.013 152.706 124.366C152.81 124.274 153.031 123.8 153.182 123.315C153.332 122.829 153.692 121.824 153.993 121.061C154.631 119.478 155.234 117.213 155.536 115.33C155.837 113.435 155.837 107.773 155.524 105.45C155.165 102.665 154.77 100.666 154.422 99.8343C153.147 96.7952 149.865 94.6344 145.308 93.8255C143.8 93.5597 140.773 93.5366 138.906 93.7793ZM123.031 136.869C121.233 137.689 119.32 139.55 115.087 144.576C111.272 149.118 109.602 150.62 106.9 151.926C105.752 152.48 104.465 152.885 102.83 153.185C102.679 153.22 102.586 153.277 102.621 153.324C102.749 153.532 105.787 160.708 106.251 161.898C109.127 169.27 109.962 175.244 108.999 181.484C107.84 188.949 103.595 197.211 98.0639 202.792C94.0863 206.813 89.8768 209.355 83.4988 211.597C80.8896 212.521 78.7211 213.596 74.8015 215.93C69.6527 218.992 68.6902 219.443 67.3218 219.443C66.1622 219.443 65.1185 218.981 62.8224 217.444C62.1614 217.005 61.6048 216.67 61.5816 216.693C61.4888 216.785 61.0598 219.293 60.9438 220.529C60.7351 222.505 60.851 226.561 61.1641 228.745C61.7208 232.558 62.6949 236.372 64.933 243.559C65.3156 244.795 65.3968 245.211 65.2809 245.211C65.1881 245.211 64.6315 244.726 64.04 244.137C62.8224 242.947 62.5441 242.461 61.8135 240.289C61.1409 238.29 59.7726 233.402 58.9144 229.97L58.1259 226.792L57.6388 227.335C56.9547 228.075 56.4908 228.803 55.3543 230.883C54.8093 231.865 54.2527 232.859 54.1251 233.078C53.8468 233.529 53.8004 234.269 54.0208 234.65C54.1019 234.789 54.7165 235.424 55.4007 236.071C59.5754 240.035 62.0107 244.911 62.9152 251.105C63.4023 254.456 63.4834 259.193 63.1471 263.989C62.9964 266.034 63.008 271.199 63.1471 273.268C63.3327 275.798 63.7733 279.623 64.4923 284.788C65.2924 290.647 65.4896 291.652 66.742 296.575C68.0988 301.902 68.3075 302.861 68.7714 305.53C69.1888 307.991 69.386 308.604 70.1513 309.956C70.8935 311.261 72.8417 313.804 73.3056 314.092C73.955 314.485 74.4188 314.335 75.2654 313.422C77.3179 311.204 77.8861 310.799 79.4053 310.441C80.2866 310.221 82.861 310.071 82.861 310.221C82.861 310.406 81.8289 311.134 80.4373 311.943C79.7184 312.359 78.837 312.902 78.4776 313.145C77.8282 313.584 76.367 315.028 76.367 315.236C76.367 315.283 76.1931 315.433 75.9843 315.572C75.59 315.803 74.1753 317.952 73.4911 319.339C72.7953 320.725 72.7721 321.985 73.4099 322.62C73.6998 322.921 73.723 322.921 75.4741 322.921C76.9005 322.921 77.3063 322.955 77.5846 323.117C78.6051 323.672 80.0315 323.764 83.9047 323.568C85.4006 323.487 85.7833 323.429 86.2008 323.221C87.0821 322.771 87.4416 322.077 87.6735 320.321C87.8011 319.292 88.5664 318.587 89.355 318.761C89.8536 318.865 89.9464 319.073 90.0392 320.194C90.1319 321.211 90.3523 321.8 90.6654 321.835C90.735 321.846 91.3496 321.846 92.0221 321.835C92.7063 321.811 93.8196 321.892 94.5734 321.996C95.9881 322.204 96.9622 322.17 97.6348 321.892C98.2842 321.627 99.0844 320.806 99.583 319.893C99.8265 319.443 100.128 319.027 100.244 318.992C100.812 318.819 101.427 319.431 101.659 320.39C101.728 320.702 101.844 321.176 101.902 321.453C102.099 322.251 102.586 322.909 103.224 323.221C103.92 323.556 105.172 323.579 106.866 323.279C109.289 322.851 110.194 321.523 109.718 319.084C109.452 317.744 109.243 317.328 108.188 316.161C107.074 314.913 105.59 312.706 104.616 310.845C103.213 308.142 102.192 305.403 100.244 299.001C98.4002 293.004 97.7044 291.167 95.6402 286.926C91.5467 278.514 88.81 270.101 87.6271 262.313C87.2212 259.621 87.0241 257.264 86.9545 254.282C86.769 246.251 88.1026 238.648 91.2104 229.947C92.2657 226.989 92.2077 227.093 93.2282 226.388C93.7268 226.053 94.1443 225.798 94.1791 225.833C94.2139 225.856 93.7152 227.959 93.0774 230.49C90.2711 241.652 89.4709 246.298 89.2854 252.376C89.1926 255.103 89.4478 259.309 89.6913 259.309C89.8652 259.309 91.6627 257.472 92.2425 256.709C93.1006 255.576 93.5877 254.49 94.0399 252.711C94.4922 250.92 94.7357 250.319 95.3735 249.383C96.2316 248.123 97.4609 247.314 99.2931 246.806C100.14 246.563 100.441 246.54 103.735 246.54C106.68 246.54 107.469 246.575 108.431 246.76C111.864 247.384 114.322 248.609 116.433 250.712C118.3 252.584 119.819 255.114 120.387 257.287C120.63 258.223 120.688 258.72 120.7 259.944C120.712 261.724 120.63 262.14 119.714 264.971C117.233 272.655 116.572 278.294 117.488 283.979C117.824 286.082 117.639 288.313 116.943 290.485C116.061 293.235 114.844 294.622 113.174 294.76C111.84 294.876 110.843 294.24 109.452 292.369C107.306 289.503 105.891 288.359 100.638 285.216C99.3395 284.442 97.8435 283.529 97.3101 283.182L96.336 282.558L97.1478 284.534C97.9479 286.487 99.1887 289.491 101.264 294.437C103.155 298.955 104.233 302.237 104.836 305.31C105.207 307.263 105.381 307.783 106.007 308.985C106.645 310.187 107.19 310.949 108.779 312.868C109.463 313.688 110.31 314.774 110.658 315.271C111.005 315.768 111.458 316.253 111.655 316.346C112.107 316.577 112.559 316.531 115.621 315.918C125.327 313.988 131.566 310.996 136.39 305.958C137.689 304.606 138.187 303.762 138.489 302.387C138.709 301.359 138.744 297.684 138.593 290.277C138.489 284.938 138.547 283.309 138.988 280.744C139.301 278.964 139.521 278.179 140.959 273.649C142.977 267.27 143.754 264.462 144.496 260.788C145.354 256.489 145.644 253.624 145.644 249.487C145.644 246.945 145.598 246.055 145.366 244.229C144.983 241.213 144.96 237.573 145.331 236.025C145.621 234.823 146.038 233.656 146.177 233.656C146.235 233.656 146.456 233.76 146.676 233.887L147.07 234.118L147.14 236.002C147.186 237.03 147.407 239.642 147.638 241.803C147.963 244.853 148.068 246.425 148.114 248.874C148.184 252.306 148.091 253.681 147.627 256.073C147.267 257.853 147.267 258.026 147.604 258.5C147.94 259.02 148.357 259.24 149.482 259.54C152.822 260.407 155.199 262.983 155.872 266.438C156.127 267.802 156.069 268.992 155.57 272.205C154.283 280.64 153.831 285.505 153.831 291.063C153.831 295.107 153.286 296.575 151.477 297.441C150.19 298.054 149.645 298.088 144.658 297.834C143.012 297.753 142.559 297.834 141.945 298.377C141.388 298.874 141.087 299.671 140.959 301.047C140.715 303.623 140.437 310.869 140.437 314.428C140.437 317.652 140.46 318.275 140.634 318.83C141.029 320.078 141.887 320.899 143.058 321.153C144.31 321.407 145.006 321.014 146.073 319.443C148.845 315.352 153.309 311.62 157.681 309.771C159.896 308.823 161.601 308.373 164.534 307.945C165.416 307.818 166.413 307.61 166.749 307.483C167.955 307.032 168.547 306.073 168.384 304.814C168.338 304.478 167.967 303.173 167.561 301.925C165.021 294.056 163.468 286.14 162.54 276.18C161.798 268.287 161.415 257.957 161.705 253.358C162.03 248.17 162.32 245.731 164.024 234.165C164.65 229.901 164.778 228.11 164.697 224.412C164.604 220.31 164.326 217.606 163.444 212.279C163.189 210.719 162.888 209.24 162.772 208.974C162.482 208.327 161.972 207.969 160.731 207.541C157.623 206.443 155.304 204.907 151.222 201.197C150.329 200.388 149.1 199.291 148.497 198.771C147.105 197.569 146.827 197.245 146.386 196.402C145.829 195.304 145.702 194.484 145.632 191.456C145.563 188.602 145.667 186.43 146.073 182.131C146.746 174.828 146.804 171.697 146.351 166.786C145.911 161.898 145.818 159.899 145.76 154.167C145.702 148.355 145.679 148.239 145.064 147.835C144.786 147.662 144.38 147.615 142.177 147.546C140.17 147.488 139.417 147.419 138.651 147.234C135.172 146.356 132.621 144.495 129.768 140.74C126.753 136.765 125.211 135.875 123.031 136.869ZM43.9435 234.049C42.5287 234.696 40.8588 236.984 38.5511 241.456C35.3042 247.742 33.3328 254.768 32.7646 262.082C32.695 263.007 32.4515 264.867 32.2195 266.23L31.8136 268.703L32.0108 272.181C32.3587 278.641 32.8457 282.627 33.8778 287.33C35.2578 293.663 37.6466 300.076 40.5341 305.206C41.7402 307.344 42.0301 307.552 44.6045 308.118C51.3536 309.609 55.0992 312.174 57.6968 317.074C58.4042 318.414 58.7637 318.772 59.2739 318.657C60.0857 318.483 62.4977 316.311 63.6806 314.716C66.0926 311.458 66.8696 307.668 66.0578 303.207C65.1997 298.516 63.8777 296.39 60.5379 294.321C58.3346 292.958 56.9778 291.525 55.9689 289.514C55.1224 287.827 54.7977 286.545 54.4962 283.887C54.1831 280.917 53.6033 278.86 51.9102 274.643C50.7506 271.754 50.5418 270.402 50.9129 268.264C51.5275 264.751 54.1251 261.793 57.5461 260.695C58.1375 260.511 58.9956 260.314 59.4479 260.279C60.8278 260.141 60.7699 260.291 60.7699 256.917C60.7699 255.299 60.7003 253.52 60.6191 252.838C59.645 244.899 56.34 238.995 51.1332 235.852C49.6141 234.927 47.2832 233.945 46.1004 233.725C45.5206 233.621 44.5813 233.76 43.9435 234.049ZM167.074 309.586C164.152 309.898 161.032 310.811 158.261 312.174C155.396 313.584 153.286 315.098 151.164 317.27C150.027 318.437 148.729 320.009 148.729 320.217C148.729 320.321 155.095 322.435 156.15 322.69C158.04 323.117 158.887 322.817 159.571 321.442C159.942 320.667 160.464 318.899 160.789 317.27C160.974 316.369 161.287 316.045 161.995 316.045C162.876 316.045 163.108 316.484 163.108 318.183C163.108 318.622 163.004 319.431 162.876 319.974C162.424 321.95 162.621 322.643 163.781 323.186C164.372 323.464 164.581 323.498 165.659 323.498C166.761 323.487 166.958 323.452 167.7 323.14C168.153 322.944 168.825 322.586 169.208 322.343C170.159 321.719 171.771 320.067 172.304 319.165L172.745 318.414L172.675 317.34C172.594 316.057 172.652 315.93 173.394 315.93C174.02 315.93 174.646 316.172 174.809 316.484C175.11 317.039 174.786 319.003 174.078 320.979C173.985 321.257 173.928 321.476 173.962 321.476C174.113 321.476 177.406 318.634 177.766 318.195C177.998 317.929 178.323 317.397 178.496 317.016C178.786 316.404 178.821 316.207 178.821 315.121C178.821 313.942 178.81 313.861 178.381 313.018C177.905 312.047 177.128 311.25 176.212 310.788C175.203 310.279 173.011 309.736 171.226 309.54C170.333 309.447 168.141 309.47 167.074 309.586ZM39.2238 309.921C36.4058 310.464 34.2837 311.25 32.8225 312.278C31.8253 312.995 30.7468 314.196 30.2945 315.109C29.9814 315.745 29.9234 315.999 29.9234 316.681C29.9234 317.686 30.2133 318.31 31.0715 319.154C32.3819 320.436 33.9474 320.783 36.3362 320.309C37.264 320.124 37.3335 319.963 37.2292 318.091C37.1596 316.681 37.1712 316.542 37.3683 316.288C37.5307 316.092 37.7394 315.999 38.1685 315.964C38.899 315.895 39.189 316.115 40.0007 317.363C40.6965 318.437 41.1372 318.842 42.0417 319.269C42.6215 319.535 42.8418 319.57 44.303 319.604C46.1352 319.639 46.4831 319.547 46.5411 319.015C46.5643 318.83 46.4947 318.449 46.4019 318.16C46.0192 317.039 46.2628 316.242 47.0861 315.93C47.9442 315.606 48.5241 315.964 49.1851 317.212C49.4518 317.709 49.8461 318.229 50.2403 318.587C51.1217 319.385 51.9334 319.627 53.7424 319.616C54.4846 319.616 55.2848 319.581 55.5167 319.535L55.9458 319.454L55.6211 318.634C54.589 316.011 51.4 312.983 47.9095 311.308C44.8364 309.84 41.9953 309.389 39.2238 309.921Z" fill="white"/>
<path d="M63.1472 273.271C63.0081 271.202 62.9965 266.037 63.1472 263.992C62.695 264.026 58.1376 260.514 57.5462 260.698C54.1252 261.796 51.5276 264.754 50.913 268.267C50.542 270.405 50.7507 271.757 51.9103 274.646C53.6034 278.863 54.1832 280.92 54.4963 283.89C54.7978 286.548 55.1225 287.83 55.9691 289.517C56.978 291.528 64.5388 295.214 66.7421 296.578C65.4897 291.655 65.2926 290.65 64.4924 284.791C63.7734 279.626 63.3328 275.801 63.1472 273.271Z" fill="#DAFDA0"/>
<path d="M89.6915 259.306C89.448 259.306 96.2435 285.282 96.3362 282.555L97.3103 283.179C97.8438 283.526 99.3397 284.438 100.639 285.213C105.892 288.356 107.306 289.5 109.452 292.365C110.843 294.237 111.841 294.873 113.174 294.757C114.844 294.619 116.062 293.232 116.943 290.482C117.639 288.309 117.824 286.079 117.488 283.976C116.572 278.291 117.233 272.652 119.715 264.968C120.631 262.137 120.712 261.721 120.7 259.941C120.689 258.716 120.631 258.219 120.387 257.283C119.819 255.111 118.3 252.58 116.433 250.708C114.322 248.605 111.864 247.381 108.431 246.757C107.469 246.572 106.68 246.537 103.735 246.537C100.441 246.537 100.14 246.56 99.2933 246.803C97.4611 247.311 96.2319 248.12 95.3737 249.38C94.7359 250.316 94.4924 250.916 94.0402 252.708C93.5879 254.487 93.1009 255.573 92.2427 256.706C91.6629 257.468 89.8655 259.306 89.6915 259.306Z" fill="#DAFDA0"/>
<path d="M126.405 110.756C128.423 111.149 129.745 111.969 130.371 113.182C130.766 113.957 130.858 115.205 130.592 116.256C129.861 119.191 125.257 125.292 122.927 126.436C122.266 126.76 121.952 126.841 121.222 126.875C120.41 126.91 120.248 126.875 119.552 126.552C117.986 125.824 115.957 123.293 114.392 120.127C113.487 118.29 113.197 117.146 113.267 115.667C113.313 114.685 113.371 114.442 113.742 113.668C114.45 112.189 115.644 111.287 117.476 110.871C118.613 110.606 125.211 110.525 126.405 110.756Z" fill="#DAFDA0"/>
<path d="M101.995 102.051C104.024 102.386 105.52 103.865 105.775 105.784C105.857 106.408 105.555 107.817 105.161 108.626C104.709 109.551 103.653 110.614 102.784 110.995C100.534 112 97.31 110.914 96.22 108.788C95.2111 106.824 95.5126 104.894 97.0549 103.449C98.4581 102.132 99.9192 101.716 101.995 102.051ZM100.603 105.68C100.256 105.864 99.954 106.304 99.9076 106.72C99.8497 107.251 99.9308 107.494 100.302 107.91C100.661 108.291 100.766 108.337 101.264 108.337C101.96 108.337 102.412 108.06 102.656 107.505C102.888 106.928 102.76 106.361 102.285 105.888C101.972 105.576 101.809 105.506 101.427 105.506C101.16 105.506 100.789 105.587 100.603 105.68Z" fill="#DAFDA0"/>
<path d="M141.052 99.7863C142.942 100.202 144.078 101.543 144.183 103.496C144.287 105.506 143.278 107.378 141.713 108.048C139.614 108.938 136.773 108.349 135.694 106.789C135.045 105.841 134.871 105.298 134.882 104.062C134.882 102.155 135.462 101.138 136.993 100.329C138.257 99.6592 139.602 99.4743 141.052 99.7863ZM139.196 103.045C138.709 103.542 138.628 104.258 139.011 104.813C139.382 105.356 139.741 105.529 140.379 105.46C140.785 105.425 140.97 105.333 141.272 104.998C141.585 104.651 141.655 104.489 141.655 104.05C141.655 103.576 141.597 103.461 141.191 103.056C140.75 102.606 140.704 102.594 140.136 102.64C139.683 102.687 139.463 102.779 139.196 103.045Z" fill="#DAFDA0"/>
<path d="M138.013 175.056C139.312 175.646 140.866 178.639 141.376 181.539C141.678 183.272 141.631 185.41 141.202 188.588C141.005 190.078 140.761 192.1 140.669 193.083C140.472 195.151 140.437 198.849 140.611 200.258C140.993 203.309 141.933 206.117 143.382 208.497C144.182 209.826 144.438 210.647 144.438 211.895C144.426 213.72 143.753 215.142 142.118 216.783C140.541 218.366 139.184 218.909 135.972 219.267C133.92 219.486 132.528 219.486 130.731 219.255C125.048 218.527 120.769 215.916 119.041 212.114C118.612 211.178 118.369 210.219 118.172 208.705C117.499 203.563 118.137 198.779 120.027 194.885C121.616 191.615 123.808 189.177 127.414 186.681C129.165 185.468 130.174 184.647 131.229 183.55C133.003 181.678 133.699 180.256 134.337 177.125C134.418 176.767 134.639 176.247 134.824 175.958C135.485 174.964 136.911 174.56 138.013 175.056Z" fill="#DAFDA0"/>
<path d="M21.9823 34.0874H25.3823L31.5363 14.0954L34.2563 11.1714V10.9674H26.8443V11.1714L31.1623 14.0954L26.0963 30.6534L20.1803 11.3414L23.1383 11.1714V10.9674H12.0203V11.1714L14.9783 11.3414L17.5623 19.7734L13.8223 31.0614L7.15827 11.3414L10.2183 11.1714V10.9674H0.120273V11.1714L2.09227 11.3414L9.74227 34.0874H13.1763L17.7323 20.3174L21.9823 34.0874ZM56.2004 34.0874V33.8834L53.4464 33.7134V22.5274C53.4464 18.4814 51.6104 16.3394 47.9044 16.3394C45.3884 16.3394 43.3144 17.7674 42.1924 19.7394V9.2674L35.2904 9.4034V9.6074L38.0444 9.7434V33.7134L35.2904 33.8834V34.0874H44.9464V33.8834L42.1924 33.7134V20.5894C43.0764 18.3114 45.2524 16.9854 46.6804 16.9854C48.3464 16.9854 49.2984 18.1074 49.2984 20.7254V33.7134L46.5444 33.8834V34.0874H56.2004ZM74.984 25.3834C74.984 19.8074 70.938 16.3394 66.416 16.3394C61.826 16.3394 57.814 19.8074 57.814 25.3834C57.814 31.0274 61.826 34.4274 66.416 34.4274C70.938 34.4274 74.984 31.0274 74.984 25.3834ZM70.394 25.3834C70.394 32.5914 69.374 34.1214 66.416 34.1214C63.424 34.1214 62.404 32.5914 62.404 25.3834C62.404 18.1754 63.424 16.6454 66.416 16.6454C69.374 16.6454 70.394 18.1754 70.394 25.3834ZM107.912 34.0874H111.312L117.466 14.0954L120.186 11.1714V10.9674H112.774V11.1714L117.092 14.0954L112.026 30.6534L106.11 11.3414L109.068 11.1714V10.9674H97.95V11.1714L100.908 11.3414L103.492 19.7734L99.752 31.0614L93.088 11.3414L96.148 11.1714V10.9674H86.05V11.1714L88.022 11.3414L95.672 34.0874H99.106L103.662 20.3174L107.912 34.0874ZM135.247 29.9734L134.941 29.8374C133.785 32.6934 131.575 33.9854 128.923 33.9854C125.353 33.9854 124.129 32.1154 124.095 25.1794H135.553C135.145 19.8754 131.813 16.3394 127.597 16.3394C123.313 16.3394 119.505 20.0114 119.505 25.3834C119.505 30.7554 123.177 34.4274 128.243 34.4274C131.677 34.4274 134.023 33.0674 135.247 29.9734ZM127.597 16.6454C129.977 16.6454 130.997 18.1414 131.031 24.8394H124.095C124.095 18.7534 124.877 16.6454 127.597 16.6454ZM153.589 33.8834L149.373 30.9594L151.141 25.7234H159.063L161.715 33.7134L158.655 33.8834V34.0874H169.093V33.8834L166.781 33.7134L158.961 10.1514L154.439 11.6814V11.8854L154.949 13.4154L149.033 30.9594L146.177 33.8834V34.0874H153.589V33.8834ZM151.277 25.3834L155.119 13.9254L158.927 25.3834H151.277ZM180.265 34.0874V33.8834L176.831 33.7134V20.5894C177.579 18.1754 179.347 16.9514 180.639 16.7474L183.631 22.3914L183.903 22.3234L183.495 16.7134C182.883 16.4754 182.203 16.3394 181.387 16.3394C179.517 16.3394 177.681 17.6654 176.729 19.9094L175.743 16.6794L169.929 16.8154V17.0194L172.683 17.1554V33.7134L169.929 33.8834V34.0874H180.265ZM200.99 29.9734L200.684 29.8374C199.528 32.6934 197.318 33.9854 194.666 33.9854C191.096 33.9854 189.872 32.1154 189.838 25.1794H201.296C200.888 19.8754 197.556 16.3394 193.34 16.3394C189.056 16.3394 185.248 20.0114 185.248 25.3834C185.248 30.7554 188.92 34.4274 193.986 34.4274C197.42 34.4274 199.766 33.0674 200.99 29.9734ZM193.34 16.6454C195.72 16.6454 196.74 18.1414 196.774 24.8394H189.838C189.838 18.7534 190.62 16.6454 193.34 16.6454ZM209.156 27.2874L209.258 24.7034L210.958 23.5814C215.888 20.3174 217.214 18.6514 217.214 15.7954C217.214 12.5654 214.596 10.6274 211.06 10.6274C209.122 10.6274 207.83 11.3414 206.334 12.8034L204.09 10.9674H203.92L203.41 17.4954L203.614 17.5634L204.872 15.4214C206.3 13.0074 208.408 11.0694 210.448 11.0694C212.148 11.0694 212.692 12.9734 212.692 16.3734C212.692 20.3854 212.182 22.0854 210.142 23.6154L208.85 24.6014L208.952 27.2874H209.156ZM211.468 31.9454C211.468 30.5514 210.278 29.5314 209.02 29.5314C207.728 29.5314 206.572 30.5514 206.572 31.9454C206.572 33.4074 207.762 34.3594 209.02 34.3594C210.278 34.3594 211.468 33.4074 211.468 31.9454Z" fill="white"/>
</svg>
