<svg width="181" height="181" viewBox="0 0 181 181" fill="none" xmlns="http://www.w3.org/2000/svg">
<circle cx="90.4092" cy="90.2373" r="88.5" stroke="white" stroke-width="3"/>
<path d="M93.5793 22.8544C93.0527 23.0397 92.6285 23.3907 92.1263 24.0685C91.8143 24.4829 91.3852 24.8535 91.0147 25.0387C90.7221 25.1801 90.6392 25.1996 90.2931 25.1996C89.669 25.1948 89.3228 25.0534 88.3574 24.4098C87.6602 23.9466 87.197 23.7174 86.6314 23.5565C86.3096 23.4639 86.134 23.4444 85.5636 23.4444C84.9492 23.4492 84.842 23.459 84.4958 23.5809C83.8083 23.8198 83.4329 24.1075 82.8868 24.7998C82.526 25.263 81.9165 25.8676 81.5752 26.0968C81.2534 26.3162 80.6537 26.6087 80.2734 26.7258C79.7127 26.9062 79.1276 26.9842 78.0159 27.0281C76.9238 27.0671 76.6946 27.1012 76.1193 27.3206C75.5098 27.5498 74.8662 28.1056 74.637 28.6127C74.4615 28.993 74.4274 29.2904 74.5005 29.7926C74.7394 31.3821 74.3591 32.1427 72.8184 33.1617C71.9066 33.7663 71.458 34.132 71.0875 34.566C70.4878 35.2681 70.2586 35.7898 70.2537 36.4382C70.2537 36.8966 70.2099 36.7747 70.7901 37.8961C70.9851 38.2667 71.0339 38.4081 71.0485 38.6518C71.0777 39.1735 70.8632 39.3637 69.8734 39.7148C69.576 39.8171 69.1859 39.9829 69.0104 40.0707C67.9621 40.6265 65.3487 43.04 63.7982 44.8977C61.9601 47.0966 60.1902 49.7685 58.2496 53.2596C57.216 55.1221 55.7728 57.8428 55.6265 58.2085C55.451 58.6522 55.3096 59.3396 55.3096 59.7687C55.3144 60.6951 55.685 61.7288 56.3042 62.5479C56.4261 62.7088 56.6992 63.0647 56.9088 63.3377C57.9717 64.7273 58.3228 65.917 58.0644 67.2676C57.8986 68.1404 57.8352 68.8717 57.8108 70.3003C57.7572 73.138 57.9669 74.1132 58.7909 74.9372C59.3467 75.4881 59.9513 75.7709 61.0532 75.9806C62.16 76.1902 62.6037 76.395 63.1595 76.9557C63.4423 77.2385 63.6276 77.492 63.9786 78.0869C65.4365 80.5638 66.8407 81.6267 69.0689 81.9582C69.5126 82.0216 69.81 82.0314 70.5707 82.007C71.0924 81.9875 71.6384 81.9582 71.7847 81.9339L72.0431 81.8948L72.126 82.0704C72.2187 82.28 72.2235 82.8456 72.1602 85.7564C72.0675 89.8569 72.4186 92.7044 73.3888 95.781C73.7009 96.7561 73.7643 97.1218 73.7594 97.897C73.7545 98.5748 73.7253 98.7308 73.4278 99.6962C72.6721 102.158 72.7647 104.543 73.7399 107.483C74.0958 108.555 74.1738 109.136 74.0812 109.989C74.0519 110.277 73.9642 110.759 73.8862 111.057C73.813 111.354 73.6034 112.251 73.423 113.051C73.2474 113.85 73.028 114.767 72.9354 115.079C72.5453 116.44 71.9993 117.522 71.2728 118.375C70.7657 118.975 70.7218 119.16 70.5463 121.179C70.244 124.723 69.9563 126.566 69.4249 128.336C69.0397 129.628 68.4058 131.057 67.7622 132.076C66.9529 133.358 66.5823 134.348 66.3775 135.757C66.3288 136.118 66.2264 137.118 66.1581 137.976C65.9485 140.633 65.8412 141.525 65.5876 142.754C65.2658 144.304 65.4121 145.621 66.046 146.893C66.5725 147.961 67.4307 148.863 68.4546 149.439C69.225 149.868 71.2386 150.667 72.3942 150.999C73.8667 151.423 75.0661 151.584 76.4898 151.54C77.4747 151.511 77.9282 151.447 78.9569 151.213C79.3763 151.116 79.6152 151.101 81.3704 151.072C83.4573 151.033 83.8619 151.052 84.1789 151.213C84.6079 151.433 84.6713 152.042 84.369 153.066C84.0667 154.1 84.0082 154.782 84.1691 155.421C84.291 155.894 84.3739 156.05 84.6713 156.367C84.998 156.708 85.2808 156.884 85.8074 157.059C86.5534 157.308 87.0556 157.376 88.1234 157.376C91.0683 157.371 93.9401 156.499 98.7866 154.134C100.137 153.476 101.01 152.808 101.532 152.032C101.654 151.852 101.766 151.701 101.785 151.701C101.839 151.701 103.287 152.544 103.628 152.774C103.794 152.886 104.218 153.295 104.628 153.744C105.681 154.895 106.534 155.611 107.587 156.24C109.187 157.191 110.839 157.644 113.024 157.727C114.92 157.8 115.954 157.474 116.495 156.635C116.807 156.143 116.959 155.509 117.037 154.348C117.139 152.837 117.363 151.813 117.826 150.75C118.553 149.097 119.816 147.722 121.62 146.63C123.975 145.202 125.038 143.597 125.379 140.974C125.457 140.384 125.457 137.552 125.379 136.391C125.238 134.29 125.008 132.525 124.643 130.735C124.511 130.106 124.287 129.009 124.14 128.297C123.429 124.85 122.931 121.588 122.059 114.582C121.313 108.629 120.971 106.166 120.669 104.504C119.899 100.291 118.782 96.2881 116.715 90.3055C115.944 88.0675 115.857 87.6336 116.042 86.9949C116.178 86.5268 116.437 86.1855 117.402 85.1957C118.977 83.5721 119.704 82.4946 120.147 81.0952C120.376 80.3882 120.459 79.8129 120.459 79.0035C120.454 78.2088 120.396 77.809 120.108 76.6729C119.596 74.6495 119.513 73.1673 119.816 71.4461C120.03 70.2369 120.113 69.3154 120.142 67.8137C120.191 65.1223 119.903 63.0696 119.079 60.2075C118.236 57.2918 117.129 54.576 115.203 50.7242C114.487 49.2956 114.194 48.7641 113.716 48.0425C113.102 47.1064 112.712 46.375 112.57 45.8728C112.512 45.6632 112.483 45.356 112.473 44.8002C112.463 44.3711 112.448 43.9323 112.429 43.8299C112.351 43.3277 111.824 42.689 111.015 42.1282C110.503 41.7723 110.288 41.5139 110.215 41.158C110.137 40.8118 110.181 40.568 110.459 39.8123C110.83 38.8079 110.947 38.369 110.976 37.8522C111.044 36.6723 110.518 36.0238 108.733 35.1169C108.036 34.761 107.899 34.6684 107.763 34.4489C107.641 34.249 107.656 33.9906 107.841 33.3909C108.192 32.2402 107.773 31.5966 106.442 31.2456C105.53 31.0067 105.169 31.031 103.789 31.4211C103.311 31.5527 102.819 31.6795 102.697 31.6941C102.478 31.7185 102.473 31.7185 102.439 31.5625C102.356 31.1432 102.458 30.8019 102.765 30.4606C103.082 30.1047 103.497 29.4903 103.682 29.0954C103.945 28.5395 104.033 28.13 104.004 27.5888C103.965 26.8379 103.648 26.1797 102.994 25.4971C102.146 24.6048 101.195 24.166 100.035 24.1172C99.3668 24.088 99.0645 24.1319 98.3868 24.3561C98.0845 24.4585 97.8407 24.5024 97.6067 24.5073C97.1142 24.517 96.8899 24.3903 96.3146 23.7954C96.0611 23.5273 95.7198 23.225 95.5637 23.1226C94.9689 22.7325 94.2132 22.6301 93.5793 22.8544ZM95.0567 24.088C95.4418 24.2733 95.6466 24.4439 95.8173 24.7316C95.9392 24.9364 95.9489 24.9997 95.9489 25.4434C95.9489 25.8822 95.9294 25.9749 95.788 26.3308C95.6076 26.7745 95.5881 26.9452 95.6808 27.1694C95.7344 27.3011 95.7685 27.3206 95.9245 27.3206C96.2366 27.3206 96.495 27.1353 96.8997 26.6331C97.8261 25.4824 99.1182 24.9412 100.332 25.1996C101.005 25.341 101.673 25.7457 102.234 26.3503C102.799 26.9647 102.999 27.579 102.824 28.1787C102.716 28.5542 102.575 28.7882 102.122 29.344C101.405 30.2265 101.127 30.8458 101.122 31.5869C101.117 32.1037 101.21 32.3524 101.541 32.6742C101.912 33.0447 102.365 33.1081 103.048 32.9033C103.828 32.6644 103.95 32.6352 104.642 32.5133C105.852 32.3036 106.227 32.3572 106.446 32.7814C106.573 33.035 106.578 33.1959 106.476 33.781C106.383 34.2978 106.412 34.6781 106.559 35.0243C106.71 35.3802 107.168 35.7849 107.704 36.0433C108.494 36.4236 108.723 36.5455 108.957 36.7357C109.859 37.4524 109.928 38.3495 109.167 39.5977C109.074 39.7538 108.938 40.0512 108.87 40.2657C108.753 40.6021 108.738 40.7143 108.758 41.0995C108.772 41.4993 108.797 41.587 108.967 41.9283C109.113 42.2306 109.235 42.3915 109.543 42.6792C110.562 43.6397 110.771 43.8738 110.927 44.1907C111.132 44.6149 111.249 45.0732 111.254 45.4633C111.254 45.8631 111.166 46.0142 110.859 46.1507C110.654 46.2385 110.576 46.2483 109.918 46.2141C108.875 46.1654 108.411 46.3019 107.973 46.7895C107.11 47.7597 106.534 48.2083 105.018 49.0957C103.867 49.7734 103.214 50.2074 102.677 50.6462C102.244 51.0021 102 51.1045 101.761 51.0216C101.678 50.9924 101.381 50.8266 101.098 50.6559C99.9324 49.9636 98.9963 49.6857 97.8017 49.6905C96.4658 49.6905 95.0177 50.183 93.6329 51.1045C91.8972 52.2649 91.0049 53.6399 90.7514 55.5707C90.6685 56.224 90.7221 57.6429 90.8733 58.696C91.0147 59.7004 91.1609 61.0657 91.2536 62.231C91.3511 63.4645 91.3365 66.6289 91.2292 67.6918C91.0293 69.6762 90.6636 71.49 90.2443 72.5675C89.3764 74.825 87.8844 76.0586 85.6465 76.3755C85.1053 76.4486 83.3939 76.4048 82.9453 76.3024C81.8336 76.0439 80.9853 75.5759 80.171 74.7665C79.074 73.6743 78.4742 72.3091 78.3231 70.5685C78.1476 68.5255 78.9082 66.5362 80.6781 64.425C80.956 64.0886 81.7556 63.2256 82.448 62.4991C84.057 60.8267 84.4714 60.383 85.037 59.7199C86.88 57.5795 87.8893 55.7267 88.2794 53.7959C88.4354 53.006 88.4354 51.6213 88.2794 50.8851C87.982 49.5052 87.392 48.418 86.4607 47.5257C85.7781 46.8723 85.0419 46.4433 84.1252 46.1507C81.9555 45.4584 80.1564 45.8289 78.6303 47.277L78.2743 47.6135L78.1768 47.5013C77.9282 47.2088 77.504 46.5164 77.109 45.7656C76.0851 43.8201 75.7292 43.2935 75.0856 42.7816C74.5151 42.3281 74.2226 42.0307 74.1056 41.8016C74.0373 41.6699 73.9544 41.3237 73.8862 40.9239C73.6765 39.6416 73.3937 38.8322 72.9549 38.2569C72.7062 37.9254 72.2284 37.5353 71.8189 37.3208C71.3118 37.0575 71.2923 36.8673 71.697 36.0092C72.1992 34.9365 72.6282 34.4684 73.5059 34.0199C74.6614 33.4299 75.2611 32.8156 75.5537 31.9282C75.6463 31.6405 75.6658 31.4845 75.6609 30.953C75.6609 30.602 75.6414 30.0754 75.6219 29.7829C75.5829 29.2855 75.5878 29.2319 75.6853 29.0222C75.8121 28.7589 75.9779 28.5883 76.2607 28.442C76.6605 28.2372 76.9384 28.1934 78.1524 28.1495C79.347 28.1105 79.8882 28.0422 80.4879 27.8569C81.7166 27.4766 82.7795 26.7355 83.6523 25.6482C84.3495 24.7803 84.6811 24.5755 85.4466 24.5512C85.7684 24.5365 86.017 24.556 86.2267 24.6097C86.6509 24.7169 87.3237 25.0485 87.982 25.4727C88.9327 26.0822 89.6251 26.3454 90.2736 26.3454C91.1122 26.3454 91.8777 25.9213 92.6042 25.0583C93.3892 24.1221 93.7597 23.8881 94.4228 23.9271C94.652 23.9368 94.8324 23.9856 95.0567 24.088ZM72.4966 39.7391C72.6038 40.3827 72.9451 41.3286 73.3255 42.021C73.6424 42.6061 74.5103 43.9079 75.2465 44.8977C76.641 46.7797 77.1237 47.7012 77.3236 48.8617C77.4162 49.3931 77.4162 50.1879 77.3187 50.7729C77.0798 52.26 77.4406 53.3717 78.5133 54.4298C79.6639 55.5756 81.3363 56.2338 83.0818 56.2338C84.135 56.2338 84.8859 56.0485 86.0609 55.5073C86.4168 55.3415 86.7143 55.2099 86.7289 55.2099C86.7728 55.2099 86.1779 56.3801 85.8513 56.9456C85.0419 58.3547 84.5641 58.9301 82.6723 60.7926C80.5806 62.8502 79.7468 63.8058 79.0447 64.9419C78.4206 65.9511 78.1866 66.5557 77.7136 68.3744C77.543 69.0326 77.3236 69.8225 77.2261 70.1297C77.0066 70.8318 76.797 71.6607 76.4459 73.2404C76.0169 75.1858 75.7243 76.1073 75.2221 77.1215C74.247 79.0864 72.7794 80.3297 71.0144 80.6857C70.4 80.8124 69.2835 80.7685 68.7179 80.5979C68.1815 80.437 67.8012 80.2663 67.4063 80.0079C66.6164 79.496 66.1386 78.9694 65.5389 77.9699C64.2566 75.8148 63.0035 74.8738 61.1312 74.6641C60.395 74.5861 59.9464 74.3423 59.6344 73.8694C59.2931 73.3477 59.1029 72.6699 59.0054 71.646C58.9469 71.0024 59.0054 70.1004 59.1614 69.2033C59.4783 67.3992 59.4832 66.1559 59.1858 64.976C58.9371 63.9911 58.5519 63.2695 57.7962 62.3528C56.9771 61.3631 56.6748 60.6317 56.6699 59.6663C56.6699 59.0763 56.7918 58.4913 57.0307 57.9744C57.2306 57.5405 59.1712 54.1421 60.1414 52.5233C62.6817 48.2863 64.6076 45.6875 67.0601 43.196C68.4985 41.7333 68.8154 41.5042 70.8437 40.451C71.4093 40.1536 71.9895 39.8366 72.1358 39.7391C72.282 39.6465 72.4137 39.5636 72.4332 39.5636C72.4527 39.5587 72.482 39.6416 72.4966 39.7391ZM83.4524 47.1356C85.705 47.7061 87.3042 49.7295 87.236 51.9187C87.2213 52.421 87.2067 52.4795 87.0361 52.8403C86.6167 53.7228 85.6123 54.4249 84.2813 54.7759C83.7937 54.9027 82.5748 54.9563 82.0482 54.8686C80.3075 54.5907 78.8741 53.3376 78.4937 51.7627C78.3865 51.3239 78.4157 50.2805 78.5425 49.7978C78.718 49.1396 79.1422 48.3985 79.5762 47.984C80.0637 47.5208 80.7463 47.1746 81.4289 47.043C81.9702 46.9406 82.8429 46.9796 83.4524 47.1356ZM110.601 47.5062C111.308 47.6183 112.151 48.179 112.795 48.9592C113.121 49.359 113.214 49.5199 113.828 50.851C115.744 54.9661 116.529 56.8384 117.285 59.1105C118.216 61.8945 118.724 64.4299 118.889 67.1262C118.938 67.9161 118.933 67.9697 118.821 68.5158C118.426 70.3783 118.411 72.0946 118.748 76.4194C118.943 78.9791 118.972 79.8665 118.87 80.4906C118.455 82.9968 116.432 85.0397 113.794 85.6199C113.199 85.7467 112.18 85.7613 111.429 85.6443C110.386 85.4834 110.347 85.4834 107.992 85.4395C105.671 85.3908 105.374 85.3664 104.584 85.1518C104.374 85.0933 103.999 84.9617 103.755 84.8544C102.936 84.5082 102.375 84.4839 101.502 84.7667C101.088 84.8983 100.947 84.9227 100.483 84.9227C99.9909 84.9276 99.9275 84.9178 99.7033 84.7959C99.1328 84.4936 98.8256 83.9719 98.4599 82.6847C98.065 81.3098 97.4702 80.1786 96.1098 78.2039C95.0859 76.7168 94.9104 76.317 94.8665 75.3467C94.8373 74.6641 94.9153 74.1863 95.1981 73.3623C95.6515 72.0361 96.3195 70.471 97.4604 68.0623C98.143 66.6143 98.4599 65.8488 98.7183 65.0248C99.1962 63.523 99.3034 62.1286 99.045 60.8121C98.9183 60.1588 98.9231 60.0564 99.0694 59.7638C99.201 59.5005 99.4205 59.3153 99.8739 59.0861C100.02 59.013 100.318 58.8374 100.532 58.696C101.771 57.8964 102.478 56.9261 102.78 55.6243C102.902 55.1026 102.907 53.9276 102.785 53.2157C102.682 52.6306 102.707 52.3771 102.887 52.0016C103.121 51.5189 103.575 51.2069 104.701 50.7486C105.969 50.2269 106.622 49.8124 107.543 48.925C108.299 48.2034 108.47 48.062 108.894 47.8329C109.474 47.5159 110.006 47.4136 110.601 47.5062ZM99.0694 50.9387C99.4741 51.0509 100.084 51.3483 100.444 51.6164C101 52.0309 101.468 52.7037 101.688 53.4059C101.849 53.9373 101.849 54.9271 101.688 55.4537C101.327 56.5995 100.566 57.4771 99.4595 58.0134C98.7574 58.3547 98.3722 58.4376 97.5335 58.4376C95.8807 58.4376 93.945 57.7843 92.7309 56.8189C91.7363 56.029 91.5266 55.2976 92.0044 54.2884C92.2434 53.7764 92.531 53.3912 93.043 52.9085C94.1205 51.8797 95.7051 51.1094 97.2166 50.8753C97.6408 50.8071 98.7232 50.8461 99.0694 50.9387ZM93.5111 58.5693C95.081 59.1885 95.8124 59.4225 96.6413 59.5785C97.0118 59.6468 97.397 59.7248 97.4994 59.7492C97.753 59.8175 98.0016 60.0807 98.0943 60.3879C98.2405 60.8804 98.1576 62.3431 97.9187 63.4304C97.6457 64.7078 97.3239 65.5611 96.4365 67.3749C95.2371 69.8322 94.6569 71.1341 94.1693 72.47C93.5257 74.2448 93.4087 75.4735 93.7597 76.7022C93.9304 77.3019 94.1839 77.8138 94.6959 78.5696C95.8173 80.2371 96.6218 81.812 97.3873 83.8305C97.7725 84.8495 97.9772 85.2396 98.3234 85.6102C99.006 86.3464 100.045 86.4585 101.571 85.9758C102.214 85.7662 102.39 85.7808 102.999 86.0734C103.872 86.4878 104.901 86.7657 106.066 86.9022C106.32 86.9315 107.607 86.9754 108.918 86.9998C111.464 87.0436 112.117 87.0924 113.112 87.3167C113.736 87.4581 114.326 87.7262 114.647 88.0139C115.003 88.326 115.12 88.599 115.281 89.4718C115.53 90.8077 115.847 91.7682 116.822 94.1427C117.797 96.527 118.114 97.5119 118.329 98.8624C118.763 101.554 119.099 103.553 119.548 106.113C120.245 110.106 120.367 110.808 120.615 112.402C121.044 115.133 121.356 117.61 121.571 120.057C121.761 122.178 121.912 123.227 122.595 126.981C123.351 131.12 123.414 131.564 123.76 134.977C124.136 138.634 124.219 139.936 124.145 140.999C124.033 142.642 123.107 144.08 121.352 145.338C119.699 146.523 119.04 147.045 118.294 147.742L117.973 148.049L117.919 147.888C117.812 147.542 117.622 146.723 117.505 146.094C117.285 144.899 117.212 144.109 117.217 142.851C117.217 141.584 117.256 141.096 117.475 139.828C117.807 137.898 117.802 137.035 117.451 133.661C117.358 132.773 117.314 131.969 117.28 130.54C117.246 129.321 117.188 128.097 117.11 127.2C117.046 126.42 116.915 124.592 116.817 123.129C116.398 116.644 116.081 114.133 115.311 111.115C115.125 110.384 114.618 108.941 114.506 108.828C114.452 108.775 114.165 109.111 114.072 109.326C113.955 109.613 113.979 109.94 114.174 110.535C114.628 111.959 114.696 112.583 114.842 116.839C114.896 118.453 114.955 118.985 115.233 120.35C115.666 122.505 115.822 124.085 115.915 127.298C116.071 132.622 116.091 133.051 116.237 134.514C116.32 135.357 116.466 136.381 116.583 136.976C116.681 137.469 116.69 138.59 116.603 139.219C116.568 139.448 116.471 140.063 116.378 140.584C116.076 142.3 116.057 142.925 116.256 144.89C116.573 147.961 116.486 150.799 115.988 153.895C115.725 155.494 115.486 156.074 114.969 156.343C114.677 156.499 114.028 156.484 113.258 156.313C112.936 156.24 112.658 156.162 112.639 156.148C112.619 156.128 112.692 155.86 112.8 155.548C113.224 154.295 113.229 153.159 112.814 151.837C112.746 151.628 112.678 151.457 112.653 151.457C112.58 151.457 112.219 151.74 112.127 151.881C111.961 152.11 111.927 152.32 111.873 153.383C111.839 153.944 111.81 154.573 111.795 154.773C111.785 154.973 111.751 155.216 111.722 155.314C111.61 155.699 111.312 155.987 110.922 156.094C110.62 156.177 109.806 156.123 109.43 155.996C108.519 155.684 107.787 154.982 107.446 154.1C107.246 153.573 107.241 153.047 107.431 151.945C107.612 150.906 107.68 149.721 107.582 149.253C107.441 148.585 106.973 148.381 106.632 148.839C106.539 148.961 106.524 149.073 106.495 149.814C106.471 150.575 106.446 150.731 106.266 151.457C106.154 151.901 106.051 152.408 106.037 152.588C106.008 152.886 105.993 152.92 105.9 152.92C105.7 152.915 105.379 152.725 105.028 152.398C104.828 152.218 104.316 151.808 103.882 151.486C103.029 150.862 102.59 150.438 102.404 150.063C102.312 149.877 102.283 149.726 102.273 149.38C102.248 148.839 102.356 148.376 102.819 146.932C103.282 145.494 103.36 145.065 103.36 143.9C103.36 143.081 103.345 142.881 103.248 142.442C103.048 141.55 102.658 140.613 102.161 139.828C101.858 139.346 101.722 139.009 101.693 138.644C101.658 138.215 101.741 137.917 102.112 137.205C102.77 135.918 103.146 134.402 103.282 132.442C103.311 132.052 103.355 131.393 103.384 130.979C103.414 130.565 103.511 129.531 103.604 128.687C103.877 126.215 103.882 126.084 103.896 123.763C103.906 121.515 103.926 121.237 104.135 119.789C104.247 118.999 104.272 118.458 104.213 117.888C104.067 116.42 103.545 115.118 102.565 113.768C102.17 113.226 101.629 112.597 101.556 112.597C101.463 112.597 101.205 112.924 101.176 113.075C101.142 113.246 101.2 113.378 101.527 113.89C102.244 114.996 102.668 116.137 102.882 117.522C103.019 118.409 102.999 120.096 102.833 121.666C102.624 123.675 102.517 125.528 102.409 129.175C102.331 131.764 102.268 132.276 101.678 135.294C101.468 136.367 101.278 137.347 101.263 137.473C101.244 137.605 101.21 137.708 101.19 137.708C101.073 137.708 99.9958 135.957 99.4936 134.948C98.7427 133.446 98.3234 132.291 97.6554 129.858C97.1386 127.99 96.8119 126.971 96.3146 125.684C95.2127 122.856 94.7349 120.847 94.0766 116.23C93.8036 114.338 93.6232 113.758 93.0869 113.066C92.8723 112.783 92.1312 112.129 92.0873 112.178C92.0776 112.188 92.1605 112.632 92.2677 113.163C92.375 113.699 92.6822 115.318 92.9503 116.766C93.7743 121.252 94.2229 123.29 94.8275 125.265C95.1298 126.264 96.1488 129.214 96.8119 131.028C98.2552 134.958 99.6399 138.01 101.103 140.477C101.658 141.413 101.907 141.896 102.048 142.305C102.19 142.71 102.312 143.446 102.312 143.875C102.312 144.29 102.19 145.021 102.044 145.509C101.712 146.616 101.551 147.264 101.259 148.702C100.878 150.599 100.8 150.887 100.552 151.36C100.152 152.135 99.3619 152.837 98.5136 153.173C98.1235 153.329 97.3434 153.334 97.1922 153.183C97.0313 153.027 96.9972 152.764 97.0508 152.164C97.0801 151.872 97.0899 151.477 97.0703 151.296C97.0557 151.106 97.0655 150.775 97.0947 150.541C97.1679 150.024 97.124 149.877 96.8753 149.775C96.6608 149.682 96.4901 149.682 96.2902 149.78C96.0172 149.907 95.9636 150.097 95.9148 151.091C95.866 152.145 95.7783 152.739 95.5784 153.334C95.1883 154.5 94.4277 155.231 93.2916 155.538C92.8236 155.67 91.2975 155.665 91.039 155.538C90.6685 155.353 90.6831 155.465 90.6685 152.856C90.6636 151.579 90.6441 150.531 90.6246 150.531C90.61 150.531 90.493 150.609 90.3662 150.701C89.864 151.072 89.5812 151.511 89.4983 152.067C89.4739 152.228 89.4642 152.832 89.4739 153.407C89.5129 155.099 89.352 155.787 88.8645 156.079C88.6451 156.206 88.6109 156.211 88.0015 156.206C86.9678 156.196 85.9926 155.957 85.6465 155.636C85.2857 155.304 85.2662 154.846 85.5538 153.832C85.7781 153.047 85.8756 152.408 85.9146 151.482C85.9634 150.219 85.822 148.995 85.3637 146.776C84.7055 143.588 84.5982 142.944 84.5153 141.691C84.4812 141.155 84.486 140.691 84.5202 140.18C84.5933 139.18 84.5836 138.897 84.4617 138.507C84.33 138.073 84.1204 137.669 83.5645 136.728C79.7078 130.257 77.3967 124.953 76.1534 119.736C75.9291 118.799 75.7341 118.209 75.149 116.717C74.4956 115.05 74.4518 114.855 74.4469 113.914C74.4469 113.105 74.4615 113.036 74.7638 112.285C75.1344 111.349 75.3391 110.135 75.2806 109.165C75.2319 108.248 75.0612 107.473 74.6858 106.42C74.208 105.064 74.0568 104.25 74.0568 102.968C74.0568 101.876 74.1105 101.525 74.4079 100.559C74.7102 99.5743 74.7687 99.272 74.7979 98.409C74.8321 97.3753 74.7248 96.5952 74.3445 95.113C74.1933 94.523 73.9739 93.6844 73.8618 93.2407C73.4571 91.6853 73.306 90.4128 73.2913 88.4625C73.2669 86.0685 73.3352 81.2708 73.3888 81.1684C73.4181 81.1196 73.7545 80.7685 74.1348 80.3931C75.6024 78.9401 76.5239 77.5408 77.0457 75.9562C77.3284 75.1078 77.543 73.9376 77.543 73.255V72.9869L77.8502 73.5086C79.1617 75.7709 80.7366 76.9801 82.9307 77.4287C83.2866 77.5018 83.5987 77.5164 84.5884 77.5164C85.6709 77.5116 85.8659 77.5018 86.3193 77.4043C87.7918 77.0825 88.8596 76.5218 89.8055 75.571C91.3413 74.0205 92.063 72.0605 92.3994 68.5207C92.5018 67.409 92.5164 63.6547 92.4238 62.2066C92.3067 60.4464 92.1702 58.5498 92.141 58.2865C92.1166 58.0476 92.1215 58.0281 92.1995 58.0573C92.2482 58.0768 92.8382 58.306 93.5111 58.5693ZM73.9691 117.01C74.0276 117.078 74.1007 117.225 74.13 117.342C74.1641 117.454 74.325 117.961 74.4956 118.473C74.6663 118.98 74.9637 119.979 75.1539 120.691C76.0803 124.138 76.3338 124.933 77.0505 126.649C77.7526 128.341 78.1915 129.307 79.0106 130.974C80.0589 133.11 80.6245 134.148 82.0823 136.61C82.5552 137.415 83.0331 138.395 83.2427 138.985C83.5206 139.78 83.545 140.053 83.5109 141.657C83.4573 143.934 83.5889 144.885 84.3495 147.732C84.7006 149.058 84.7445 149.448 84.5592 149.648C84.3349 149.887 83.9985 149.907 83.1013 149.726C81.8921 149.482 80.7512 149.512 78.7132 149.848C75.6366 150.355 74.2275 150.311 72.2089 149.648C70.6584 149.141 68.4741 147.908 67.6452 147.074C67.2747 146.698 66.9626 146.143 66.8066 145.572C66.7188 145.245 66.7042 145.06 66.6993 144.265C66.6993 143.485 66.7237 143.159 66.8602 142.193C66.9431 141.564 67.0796 140.75 67.1576 140.389C67.3624 139.453 67.4014 139.161 67.4014 138.605C67.4014 136.425 68.0889 133.992 69.4931 131.189C70.2586 129.653 70.5999 128.775 70.9266 127.493C71.3215 125.957 71.4971 124.406 71.4971 122.505C71.4971 120.847 71.7457 119.628 72.3015 118.521C72.6331 117.863 73.1841 117.044 73.3693 116.932C73.5644 116.805 73.8228 116.839 73.9691 117.01Z" fill="white"/>
<path d="M93.9011 31.2516C91.3657 32.612 90.2102 33.5432 89.6202 34.6793C88.9425 35.986 88.9864 37.2829 89.7909 39.7062C90.0737 40.5594 90.0932 40.6326 90.0932 41.0958C90.0981 41.5541 90.0883 41.6077 89.9372 41.91C89.7421 42.3147 89.4593 42.5682 88.9327 42.8315C88.5476 43.0168 87.943 43.1923 87.4798 43.246C87.1482 43.2801 87.002 43.4166 87.002 43.6799C87.002 44.1431 87.3676 44.3381 88.2989 44.3723C88.7962 44.3966 88.9425 44.382 89.2692 44.2942C89.8445 44.1333 90.1907 43.9286 90.6344 43.4849C91.2244 42.8998 91.5169 42.2416 91.6144 41.3103C91.6632 40.8081 91.5608 40.2132 91.2682 39.3502C90.8245 38.0533 90.7368 37.6389 90.7319 36.9026C90.7319 36.1469 90.8197 35.8202 91.1902 35.2546C91.629 34.5818 92.6188 33.6554 93.6573 32.9386C94.5496 32.3194 94.9104 31.9342 95.1006 31.3784C95.2517 30.9396 95.242 30.9201 94.8519 30.8616C94.7056 30.8372 94.574 30.8908 93.9011 31.2516Z" fill="#62B2AE"/>
<path d="M80.3758 31.1739C80.2295 31.2276 79.9565 31.3641 79.7663 31.4762C78.8838 31.9979 78.4694 32.7 78.5279 33.5826C78.5718 34.2408 78.8643 34.6503 79.6932 35.1964C79.9565 35.372 80.2637 35.6011 80.3758 35.7133C80.6488 35.9863 80.9219 36.4251 81.0291 36.7615C81.1023 37.0005 81.1072 37.0736 81.0584 37.2637C80.9706 37.5953 80.7317 37.9512 80.0979 38.707C78.5425 40.5549 78.484 40.6475 78.64 41.0571C78.7327 41.3009 78.9423 41.4374 79.1374 41.3886C79.3519 41.335 81.3461 39.8138 81.7605 39.3896C82.4334 38.7021 82.7454 38.0097 82.7942 37.1224C82.8234 36.5568 82.7357 36.1326 82.487 35.6596C82.1554 35.0307 81.663 34.548 80.7854 34.0019C80.1271 33.5923 79.9321 33.3924 79.9321 33.1291C79.9321 32.8805 80.5123 32.4416 81.1267 32.2173C81.2973 32.154 81.4582 32.0613 81.5118 31.9833C81.5947 31.876 81.5996 31.837 81.5509 31.6713C81.39 31.1398 80.9658 30.9594 80.3758 31.1739Z" fill="#62B2AE"/>
<path d="M101.897 37.5155C101.205 37.6081 100.815 37.8324 100.596 38.2566C100.513 38.4224 100.503 38.5101 100.527 38.7734C100.615 39.7047 100.615 40.5238 100.532 40.8944C100.352 41.7232 99.8399 42.4351 99.0695 42.9471C98.5527 43.2932 98.0846 43.5029 97.2216 43.7759C96.4561 44.0197 96.1977 44.1611 95.4761 44.7365C94.457 45.5458 94.2279 46.0627 94.5546 46.8038C94.6521 47.0232 94.6618 47.0281 94.7642 46.9598C95.0324 46.7843 96.1246 46.1651 96.6706 45.8774C97.4361 45.4678 98.1529 45.1558 99.0939 44.7998C101.078 44.0587 101.824 43.42 102.175 42.1572C102.273 41.8159 102.283 41.6404 102.292 40.4312C102.297 39.5487 102.322 39.0465 102.356 38.9782C102.444 38.8173 102.634 38.8027 103.024 38.9148C103.448 39.0416 103.57 39.0465 103.711 38.9489C103.843 38.8563 103.94 38.5345 103.896 38.3395C103.799 37.8909 103.243 37.5252 102.604 37.4911C102.405 37.4765 102.088 37.4911 101.897 37.5155Z" fill="#62B2AE"/>
<path d="M83.2721 65.7288C82.4286 65.8458 81.5119 66.3431 81.0634 66.9282C80.6002 67.523 80.4636 68.1033 80.5807 68.9175C80.8878 70.9946 82.3408 72.979 83.5597 72.979C84.335 72.9741 85.3443 72.3793 86.3682 71.3164C87.4603 70.1852 88.0064 69.0687 87.8797 68.23C87.6895 66.9965 86.4511 66.0262 84.725 65.7678C84.2814 65.6995 83.6085 65.6849 83.2721 65.7288Z" fill="white"/>
<path d="M67.9567 49.0553C66.0844 49.7037 65.5578 51.9222 66.923 53.3849C67.2887 53.775 67.6008 53.9993 68.4979 54.5259C70.5652 55.735 71.0382 56.2226 71.0967 57.2026C71.1211 57.6902 71.0723 58.1388 70.8383 59.4211C70.6579 60.4011 70.6384 60.6791 70.7164 60.9716C70.7749 61.1764 70.8822 61.2544 71.0967 61.2544C72.1645 61.2544 73.3152 59.2553 73.4322 57.2075C73.4956 55.9837 73.2176 55.3547 72.1596 54.3406C71.4429 53.658 70.575 53.1265 69.3999 52.6487C68.4443 52.2586 68.2395 52.1319 68.0542 51.8149C67.7617 51.3127 68.0493 50.6935 68.8392 50.1377C69.1659 49.9085 69.2342 49.7623 69.1318 49.5185C68.9221 49.0211 68.5174 48.8651 67.9567 49.0553Z" fill="#62B2AE"/>
<path d="M63.0327 63.0696C62.7353 63.2695 62.1795 64.0009 62.0625 64.3422C61.9308 64.7225 61.9016 66.2291 62.0137 66.6679C62.2185 67.4627 62.5744 67.8527 63.413 68.2038C64.7977 68.784 65.6266 69.5105 66.1825 70.6417C66.592 71.4705 66.7676 72.236 66.8894 73.7134C66.948 74.435 66.9772 74.6203 67.0698 74.8056C67.3526 75.3614 68.2449 75.4004 68.5911 74.8738C68.7227 74.6788 68.8641 74.1912 68.9714 73.5915C69.0104 73.3721 69.0348 72.8553 69.0348 72.2994C69.0348 71.5095 69.0153 71.2999 68.9226 70.8659C68.4692 68.8425 67.3185 67.4773 65.5242 66.8337C64.8416 66.5899 64.5637 66.4485 64.2907 66.2047C63.7348 65.7025 63.6422 64.8054 64.0615 63.9278C64.3199 63.3963 64.2858 63.172 63.925 63.0062C63.6032 62.8648 63.3106 62.8843 63.0327 63.0696Z" fill="#62B2AE"/>
<path d="M81.0193 49.2676C80.7073 49.3895 80.3806 49.6966 80.2295 50.0184C80.0686 50.35 80.0344 50.9838 80.1515 51.3885C80.3757 52.1638 80.8389 52.6708 81.502 52.8805C81.7215 52.9439 81.9457 52.9683 82.4187 52.9683C83.0184 52.9683 83.0525 52.9634 83.1939 52.8464C83.3743 52.6903 83.4426 52.3978 83.4523 51.7493C83.4572 51.2227 83.3646 50.8132 83.1403 50.3597C82.643 49.3505 81.8531 48.9458 81.0193 49.2676ZM82.3358 50.94C82.6088 51.057 82.7259 51.2276 82.7502 51.5494C82.7697 51.8322 82.7649 51.842 82.5747 52.0516C82.3846 52.2564 82.3651 52.2613 82.0823 52.2613C81.8043 52.2613 81.7751 52.2467 81.6093 52.0809C81.4533 51.9297 81.424 51.8615 81.4045 51.6421C81.3899 51.4275 81.4045 51.3544 81.502 51.213C81.6239 51.0277 81.8872 50.8717 82.0676 50.8717C82.1261 50.8717 82.248 50.9009 82.3358 50.94Z" fill="#62B2AE"/>
<path d="M107.753 53.4828C107.475 53.5852 107.163 53.8583 106.851 54.2776C106.524 54.7213 106.329 55.1357 106.232 55.6087C106.027 56.5789 106.558 57.5395 107.646 58.1587C108.523 58.6609 108.967 58.9778 109.43 59.4459C110.347 60.3625 110.908 61.4206 111.454 63.2295C111.697 64.0437 111.707 64.1412 111.556 64.541C111.327 65.1456 111.41 65.3407 111.922 65.3894C112.599 65.4528 113.058 65.0579 113.292 64.1997C113.38 63.8731 113.394 63.6732 113.399 62.9125C113.404 62.1324 113.389 61.9423 113.292 61.4986C112.985 60.1236 112.37 59.0119 111.415 58.0953C110.873 57.5785 110.298 57.2079 109.533 56.8764C108.387 56.379 108.114 56.1304 108.114 55.5892C108.114 55.3113 108.28 54.9017 108.548 54.5068C108.762 54.1996 108.84 53.8778 108.748 53.7071C108.592 53.4341 108.158 53.3317 107.753 53.4828Z" fill="#62B2AE"/>
<path d="M102.565 65.8799C101.775 66.1091 101.058 66.6259 100.756 67.1964C100.498 67.6889 100.449 67.8936 100.424 68.7225C100.4 69.4051 100.41 69.5221 100.503 69.8244C100.702 70.4924 101.117 70.9459 101.873 71.3213C102.623 71.6967 103.184 72.1648 103.681 72.823C104.218 73.53 104.832 74.9781 105.022 75.9679C105.139 76.5871 105.251 76.709 105.676 76.709C106.275 76.709 106.49 76.3921 106.656 75.2511C106.846 73.9201 106.368 72.3062 105.442 71.1409C104.93 70.5022 104.549 70.1901 103.603 69.6245C102.76 69.1272 102.458 68.8103 102.458 68.4202C102.458 68.1277 102.775 67.7084 103.257 67.3622C103.974 66.8502 104.086 66.5138 103.691 66.0799C103.423 65.7776 103.116 65.7239 102.565 65.8799Z" fill="#62B2AE"/>
<path d="M110.986 71.4906C110.498 71.6515 110.181 72.183 110.362 72.534C110.391 72.5926 110.62 72.8363 110.869 73.0801C111.595 73.792 111.956 74.4307 112 75.1036C112.049 75.7715 111.785 76.4249 111.2 77.1026C110.454 77.9754 110.016 78.8871 109.767 80.111C109.655 80.6668 109.664 80.9593 109.806 81.1982C109.894 81.3494 110.196 81.5396 110.347 81.5396C110.503 81.5396 110.713 81.3299 110.908 80.9691C111.01 80.7887 111.273 80.4084 111.493 80.1256C112.024 79.443 113.507 77.3903 113.711 77.0539C113.799 76.9076 113.926 76.6053 113.999 76.381C114.116 76.0007 114.121 75.9373 114.097 75.2108C114.072 74.3283 113.984 73.948 113.663 73.3337C113.321 72.6754 112.527 71.9246 111.854 71.6174C111.556 71.4809 111.186 71.4273 110.986 71.4906Z" fill="#62B2AE"/>
<path d="M96.3199 53.6021C95.5642 53.763 94.9303 54.1287 94.4964 54.6601C94.1307 55.1136 94.0234 55.3037 94.0234 55.5036C94.0234 55.6499 94.0771 55.723 94.4818 56.1228C95.0278 56.664 95.3838 56.8591 95.9104 56.903C96.9928 56.9907 98.1142 56.1375 98.202 55.1574C98.2556 54.5967 97.9143 53.9678 97.4267 53.7288C97.1342 53.5874 96.6563 53.5338 96.3199 53.6021ZM95.9932 54.743C96.4711 54.9429 96.5491 55.6109 96.1346 55.9278C95.9932 56.0399 95.9055 56.0643 95.7056 56.0643C95.3886 56.0595 95.1887 55.9229 95.0717 55.6401C94.8377 55.0502 95.4033 54.4943 95.9932 54.743Z" fill="#62B2AE"/>
<path d="M81.195 80.6821C80.5368 80.9503 79.7957 81.8279 79.5178 82.6666C79.0692 84.0074 79.5811 85.3336 80.883 86.1966C81.3657 86.5184 81.8045 86.7037 82.609 86.9329C85.0907 87.635 86.6461 88.8588 87.6651 90.9261C87.9528 91.5209 88.338 92.6228 88.4111 93.0958C88.4745 93.481 88.5623 93.6175 88.7963 93.676C89.1864 93.7833 89.6057 93.5249 89.7763 93.0763C89.9275 92.6667 89.9909 92.0816 89.9616 91.3698C89.9226 90.3654 89.7227 89.6048 89.2644 88.7076C88.4404 87.0938 86.807 85.748 84.8323 85.0508C84.5934 84.9679 83.9791 84.7875 83.4769 84.6608C81.5948 84.1683 81.4632 83.9343 82.1214 82.1644C82.2579 81.7987 82.3798 81.4135 82.3944 81.3111C82.4335 81.0429 82.3018 80.8138 82.0288 80.6724C81.7557 80.5359 81.5412 80.5359 81.195 80.6821Z" fill="#62B2AE"/>
<path d="M99.0651 90.874C98.8604 90.9959 98.7043 91.2396 98.7043 91.4347C98.7043 91.6248 98.5532 92.127 98.4118 92.4098C97.9876 93.2485 97.4464 93.6239 95.6326 94.3357C94.5453 94.7599 94.1894 94.9355 93.5945 95.3353C92.5121 96.0569 91.7564 97.0954 91.4443 98.2753C91.2639 98.9677 91.2201 99.5918 91.2883 100.65C91.4005 102.503 91.5126 103.088 91.9124 103.917C92.2683 104.658 92.8339 105.145 93.5555 105.34C93.7603 105.394 93.8042 105.389 93.9602 105.306C94.204 105.175 94.3308 104.984 94.3308 104.76C94.3259 104.658 94.2381 104.165 94.126 103.668C93.3898 100.323 93.4922 99.0652 94.6087 97.9194C95.1889 97.3246 95.93 96.837 97.6365 95.935C98.6897 95.384 98.7433 95.345 99.1724 94.9208C99.5527 94.5454 99.6502 94.4138 99.8453 94.0188C100.094 93.5069 100.269 92.8828 100.382 92.1368C100.489 91.3908 100.382 91.0592 99.9574 90.8545C99.6649 90.7131 99.3187 90.7179 99.0651 90.874Z" fill="#62B2AE"/>
<path d="M111.79 92.1593C111.542 92.2763 111.381 92.4762 111.381 92.6664C111.381 92.759 111.469 92.9443 111.625 93.1783C112.093 93.8804 112.166 94.5045 111.942 95.8502C111.873 96.2549 111.805 96.8449 111.79 97.1667C111.766 97.6786 111.776 97.8346 111.888 98.3856C112.054 99.1901 112.283 99.8581 112.556 100.341C112.961 101.048 113.824 101.833 114.365 101.974C114.667 102.057 114.989 101.964 115.238 101.725C115.462 101.511 115.486 101.321 115.33 100.872C115.179 100.433 114.955 99.5655 114.823 98.8976C114.609 97.8249 114.54 97.1374 114.501 95.5089C114.477 94.5191 114.443 93.8755 114.404 93.7536C114.126 92.8468 113.239 92.1203 112.356 92.0861C112.073 92.0715 111.946 92.091 111.79 92.1593Z" fill="#62B2AE"/>
<path d="M106.032 97.5797C105.451 97.8381 104.652 98.9644 104.354 99.9201C104.213 100.378 104.203 101.1 104.33 101.578C104.535 102.329 105.042 102.987 105.729 103.382C106.724 103.957 107.216 104.367 107.724 105.044C108.343 105.878 109.079 107.643 109.235 108.696C109.269 108.896 109.328 109.135 109.367 109.223C109.567 109.652 110.181 109.623 110.625 109.165C110.824 108.96 110.898 108.843 111 108.526C111.478 107.087 111.098 105.025 110.074 103.479C109.528 102.66 108.967 102.109 108.094 101.539C107.514 101.163 107.226 100.905 107.051 100.608C106.934 100.413 106.919 100.335 106.924 99.9932C106.929 99.6519 106.953 99.5398 107.138 99.0912C107.402 98.4574 107.431 98.0917 107.241 97.8284C107.007 97.5017 106.451 97.3896 106.032 97.5797Z" fill="#62B2AE"/>
<path d="M81.356 99.1397C81.0196 99.3103 80.4686 99.8028 80.1468 100.222C79.8445 100.612 79.5666 101.226 79.4642 101.724C79.235 102.879 79.669 104.147 80.6685 105.21C82.3799 107.038 83.0528 108.491 83.0528 110.364C83.0528 110.656 83.0723 110.9 83.1015 110.915C83.1942 110.973 83.1503 111.29 83.004 111.622C82.8285 112.021 82.8236 112.065 82.9747 112.236C83.0723 112.353 83.1308 112.372 83.4087 112.392C83.8231 112.416 84.023 112.348 84.34 112.056C84.7349 111.695 85.0762 110.958 85.2712 110.037C85.3687 109.574 85.3687 108.301 85.2663 107.633C85.1883 107.097 84.9933 106.419 84.7788 105.932C84.4521 105.195 83.7256 104.318 82.9796 103.762C82.1215 103.123 81.7558 102.626 81.7022 102.031C81.6534 101.5 81.9021 100.817 82.3311 100.305C82.6383 99.9295 82.731 99.7296 82.6578 99.5443C82.5847 99.3493 82.4238 99.1884 82.1995 99.086C81.9216 98.9544 81.6973 98.969 81.356 99.1397Z" fill="#62B2AE"/>
<path d="M83.4382 118.414C83.092 118.56 82.8531 118.741 82.5801 119.077C82.112 119.652 81.9121 120.228 81.9121 120.983C81.917 121.408 81.9365 121.564 82.0486 121.885C82.3948 122.9 83.1262 123.675 84.272 124.25C84.4475 124.338 84.7742 124.528 85.0033 124.679C86.9975 125.971 88.1579 127.907 88.3969 130.325C88.4554 130.954 88.6065 131.13 89.0697 131.135C89.567 131.14 89.8888 130.896 90.1521 130.325C90.391 129.804 90.391 129.048 90.1424 127.761C89.8206 126.059 89.1477 124.733 88.0946 123.714C87.5582 123.192 86.978 122.807 86.0272 122.324C85.1545 121.881 84.7742 121.603 84.5206 121.222C84.2086 120.754 84.1891 120.233 84.4572 119.448C84.5889 119.067 84.6035 118.979 84.5596 118.823C84.506 118.628 84.3012 118.448 84.0331 118.355C83.8088 118.282 83.7503 118.287 83.4382 118.414Z" fill="#62B2AE"/>
<path d="M110.089 118.702C109.796 118.805 109.572 119.097 109.431 119.546C109.343 119.829 108.943 120.614 108.69 121.009C108.568 121.194 108.256 121.633 107.997 121.984C107.476 122.681 107.105 123.378 106.934 123.983C106.832 124.344 106.822 124.461 106.827 125.616C106.827 126.723 106.837 126.898 106.93 127.225C107.183 128.132 107.539 128.834 108.163 129.624C108.529 130.092 110.318 131.901 110.557 132.047C110.796 132.194 111.001 132.179 111.201 132.003C111.454 131.784 111.493 131.638 111.464 131.062C111.425 130.272 111.201 129.736 110.401 128.483C109.86 127.63 109.475 126.859 109.309 126.274C109.138 125.694 109.099 124.992 109.207 124.495C109.314 123.993 109.645 123.329 110.021 122.871C110.65 122.096 110.811 121.881 110.967 121.569C111.21 121.087 111.337 120.623 111.366 120.107C111.41 119.39 111.249 118.975 110.85 118.771C110.664 118.673 110.265 118.634 110.089 118.702Z" fill="#62B2AE"/>
<path d="M107.061 136.733C106.818 136.811 106.515 137.142 106.432 137.435C106.374 137.63 106.369 137.737 106.408 137.932C106.462 138.186 106.564 138.352 107.066 139.01C107.437 139.497 107.749 140.107 107.851 140.565L107.929 140.926L107.749 141.862C107.617 142.53 107.525 142.886 107.427 143.081C107.247 143.437 107.247 143.617 107.412 143.749C107.715 143.988 108.197 144.003 108.573 143.783C109.026 143.515 109.646 142.715 109.914 142.038C110.143 141.472 110.235 140.941 110.231 140.195C110.231 138.942 109.87 138.186 108.904 137.411C108.178 136.825 107.529 136.587 107.061 136.733Z" fill="#62B2AE"/>
<path d="M89.5137 136.796C89.2504 136.864 88.7238 137.39 88.5483 137.761C88.3435 138.195 88.2021 138.804 88.1973 139.243C88.1973 140.033 88.5922 140.862 89.2992 141.54C89.7673 141.983 90.1378 142.242 90.9764 142.705C91.3519 142.91 91.7956 143.178 91.9613 143.295C92.5416 143.709 92.8731 144.226 93.0194 144.943C93.0633 145.157 93.1218 145.357 93.151 145.396C93.229 145.484 93.5118 145.474 93.7117 145.382C93.9506 145.27 94.2481 144.909 94.3456 144.621C94.448 144.314 94.4187 143.88 94.2724 143.505C93.9555 142.685 92.9072 141.51 91.659 140.584C90.8692 139.994 90.562 139.697 90.3865 139.331C90.2695 139.097 90.2597 139.029 90.2792 138.668C90.2987 138.375 90.3377 138.18 90.4352 137.951C90.5376 137.722 90.5669 137.585 90.5474 137.449C90.484 136.995 89.9818 136.674 89.5137 136.796Z" fill="#62B2AE"/>
<path d="M73.9928 132.423C73.8758 132.545 73.8465 132.619 73.8222 132.916C73.7539 133.652 73.4224 134.213 72.7105 134.798C71.1454 136.09 70.5067 136.929 70.3214 137.938C70.1897 138.64 70.5993 139.927 71.2917 141C72.3156 142.594 73.749 143.784 74.9241 144.023C75.6116 144.159 76.065 143.96 76.1576 143.482C76.1967 143.272 76.1089 143.136 75.8115 142.921C75.6896 142.833 75.514 142.658 75.4263 142.536C75.3385 142.414 75.0704 142.097 74.8314 141.829C73.9636 140.854 73.2273 139.869 72.964 139.318C72.8031 138.986 72.7885 138.913 72.7885 138.538C72.7885 138.182 72.808 138.084 72.925 137.85C73.1347 137.441 73.4711 137.021 74.2269 136.222C74.6072 135.817 75.0021 135.359 75.1094 135.198C75.5043 134.598 75.5872 133.935 75.3531 133.316C75.124 132.711 74.7681 132.355 74.3536 132.311C74.1586 132.287 74.1196 132.302 73.9928 132.423Z" fill="#62B2AE"/>
</svg>
