<svg width="37" height="37" viewBox="0 0 37 37" fill="none" xmlns="http://www.w3.org/2000/svg">
<g clip-path="url(#clip0_17_2332)">
<path d="M11.181 18.5518C12.5617 18.5518 13.681 17.4325 13.681 16.0518C13.681 14.671 12.5617 13.5518 11.181 13.5518C9.80032 13.5518 8.68103 14.671 8.68103 16.0518C8.68103 17.4325 9.80032 18.5518 11.181 18.5518Z" fill="#FDF390"/>
<path d="M15.681 14.5518C17.0617 14.5518 18.181 13.4325 18.181 12.0518C18.181 10.671 17.0617 9.55176 15.681 9.55176C14.3003 9.55176 13.181 10.671 13.181 12.0518C13.181 13.4325 14.3003 14.5518 15.681 14.5518Z" fill="#62B2AE"/>
<path d="M21.681 14.5518C23.0617 14.5518 24.181 13.4325 24.181 12.0518C24.181 10.671 23.0617 9.55176 21.681 9.55176C20.3003 9.55176 19.181 10.671 19.181 12.0518C19.181 13.4325 20.3003 14.5518 21.681 14.5518Z" fill="#F490FD"/>
<path d="M26.181 18.5518C27.5617 18.5518 28.681 17.4325 28.681 16.0518C28.681 14.671 27.5617 13.5518 26.181 13.5518C24.8003 13.5518 23.681 14.671 23.681 16.0518C23.681 17.4325 24.8003 18.5518 26.181 18.5518Z" fill="#EF865F"/>
<path d="M24.0211 21.4118C23.1511 20.3918 22.4211 19.5218 21.5411 18.5018C21.0811 17.9618 20.4911 17.4218 19.7911 17.1818C19.6811 17.1418 19.5711 17.1118 19.4611 17.0918C19.2111 17.0518 18.9411 17.0518 18.6811 17.0518C18.4211 17.0518 18.1511 17.0518 17.8911 17.1018C17.7811 17.1218 17.6711 17.1518 17.5611 17.1918C16.8611 17.4318 16.2811 17.9718 15.8111 18.5118C14.9411 19.5318 14.2111 20.4018 13.3311 21.4218C12.0211 22.7318 10.4111 24.1818 10.7111 26.2118C11.0011 27.2318 11.7311 28.2418 13.0411 28.5318C13.7711 28.6818 16.1011 28.0918 18.5811 28.0918H18.7611C21.2411 28.0918 23.5711 28.6718 24.3011 28.5318C25.6111 28.2418 26.3411 27.2218 26.6311 26.2118C26.9411 24.1718 25.3311 22.7218 24.0211 21.4118Z" fill="white"/>
</g>
<path d="M17.2153 36.492C20.8593 36.7897 24.5076 35.9707 27.6746 34.1439C30.8417 32.3172 33.3773 29.5693 34.9442 26.2659C36.5111 22.9626 37.0349 19.2604 36.4459 15.652C35.8569 12.0437 34.1831 8.70019 31.6471 6.06654C29.1111 3.43289 25.8333 1.63394 22.2497 0.909074C18.6662 0.184204 14.9469 0.567784 11.5867 2.00877C8.22651 3.44976 5.38481 5.87983 3.43972 8.97562C1.49463 12.0714 0.538392 15.6861 0.698243 19.3387L1.23773 19.3151C1.08267 15.7721 2.01022 12.2658 3.89696 9.2629C5.78369 6.25999 8.54014 3.90282 11.7995 2.50506C15.0589 1.1073 18.6666 0.735229 22.1427 1.43835C25.6187 2.14148 28.7982 3.88646 31.2581 6.4411C33.718 8.99574 35.3417 12.2389 35.913 15.739C36.4843 19.2391 35.9762 22.8303 34.4563 26.0345C32.9365 29.2388 30.4768 31.9042 27.4048 33.6762C24.3328 35.4481 20.794 36.2426 17.2593 35.9538L17.2153 36.492Z" fill="white"/>
<path d="M17.3782 34.4986C20.6173 34.7633 23.8602 34.0352 26.6753 32.4115C29.4905 30.7877 31.7444 28.3451 33.1372 25.4088C34.53 22.4725 34.9956 19.1817 34.472 15.9742C33.9485 12.7668 32.4606 9.79481 30.2064 7.45379C27.9522 5.11277 25.0386 3.5137 21.8532 2.86937C18.6678 2.22504 15.3618 2.566 12.375 3.84688C9.38812 5.12776 6.86217 7.28782 5.1332 10.0396C3.40423 12.7914 2.55424 16.0045 2.69633 19.2513L3.97511 19.1953C3.84438 16.2083 4.62638 13.2523 6.21702 10.7206C7.80767 8.18894 10.1316 6.20168 12.8794 5.02327C15.6273 3.84486 18.6689 3.53118 21.5994 4.12396C24.53 4.71675 27.2105 6.18789 29.2844 8.34163C31.3583 10.4954 32.7271 13.2296 33.2088 16.1804C33.6904 19.1313 33.2621 22.1588 31.9807 24.8602C30.6993 27.5616 28.6257 29.8088 26.0358 31.3027C23.4458 32.7966 20.4624 33.4663 17.4824 33.2229L17.3782 34.4986Z" fill="white" fill-opacity="0.3"/>
<defs>
<clipPath id="clip0_17_2332">
<rect width="24" height="24" fill="white" transform="translate(6.68103 6.55176)"/>
</clipPath>
</defs>
</svg>
