<svg width="336" height="111" viewBox="0 0 336 111" fill="none" xmlns="http://www.w3.org/2000/svg">
<path d="M32.3443 33.3344C32.3443 42.2183 30.5275 50.2116 27.6371 55.9471C24.7177 61.7402 20.8679 64.95 16.9077 64.95C12.9476 64.95 9.09776 61.7402 6.17836 55.9471C3.28799 50.2116 1.47119 42.2183 1.47119 33.3344C1.47119 24.4505 3.28799 16.4571 6.17836 10.7217C9.09776 4.92862 12.9476 1.71875 16.9077 1.71875C20.8679 1.71875 24.7177 4.92862 27.6371 10.7217C30.5275 16.4571 32.3443 24.4505 32.3443 33.3344Z" stroke="white" stroke-width="2"/>
<mask id="mask0_112_335" style="mask-type:alpha" maskUnits="userSpaceOnUse" x="0" y="0" width="34" height="66">
<ellipse cx="16.9077" cy="33.3344" rx="16.4366" ry="32.6156" fill="white"/>
</mask>
<g mask="url(#mask0_112_335)">
<ellipse cx="16.908" cy="47.0668" rx="15.7219" ry="18.8827" fill="white"/>
</g>
<ellipse cx="23.0175" cy="40.149" rx="5.35975" ry="8.58306" fill="black"/>
<path d="M75.0793 33.3344C75.0793 42.2183 73.2625 50.2116 70.3721 55.9471C67.4527 61.7402 63.6029 64.95 59.6427 64.95C55.6826 64.95 51.8327 61.7402 48.9133 55.9471C46.023 50.2116 44.2062 42.2183 44.2062 33.3344C44.2062 24.4505 46.023 16.4571 48.9133 10.7217C51.8327 4.92862 55.6826 1.71875 59.6427 1.71875C63.6029 1.71875 67.4527 4.92862 70.3721 10.7217C73.2625 16.4571 75.0793 24.4505 75.0793 33.3344Z" stroke="white" stroke-width="2"/>
<mask id="mask1_112_335" style="mask-type:alpha" maskUnits="userSpaceOnUse" x="43" y="0" width="34" height="66">
<ellipse cx="59.6427" cy="33.3344" rx="16.4366" ry="32.6156" fill="white"/>
</mask>
<g mask="url(#mask1_112_335)">
<ellipse cx="59.6429" cy="47.0668" rx="15.7219" ry="18.8827" fill="white"/>
</g>
<ellipse cx="65.7529" cy="40.149" rx="5.35975" ry="8.58306" fill="black"/>
<path d="M113.64 51.645H106.855V27.0356H120.151C121.302 27.0356 122.401 27.1895 123.449 27.4971C124.509 27.8047 125.443 28.2718 126.252 28.8984C127.061 29.5137 127.705 30.2941 128.183 31.2397C128.673 32.174 128.918 33.2734 128.918 34.5381C128.918 35.3356 128.804 36.0876 128.576 36.7939C128.348 37.4889 128.029 38.127 127.619 38.708C127.22 39.2891 126.748 39.8132 126.201 40.2803C125.654 40.7474 125.056 41.1405 124.406 41.4595C123.757 41.7785 123.068 42.0234 122.338 42.1943C121.621 42.3652 120.891 42.4507 120.151 42.4507H113.64V51.645ZM122.048 34.5381C122.048 32.9544 121.643 31.7126 120.834 30.8125C120.037 29.901 118.829 29.4453 117.211 29.4453H113.64V40.1265H117.211C118.077 40.1265 118.812 39.9897 119.416 39.7163C120.031 39.4315 120.533 39.0384 120.92 38.5371C121.307 38.0358 121.592 37.4491 121.774 36.7769C121.957 36.0933 122.048 35.347 122.048 34.5381ZM151.579 51.645H145.803V49.2866C145.119 50.2209 144.293 50.9159 143.325 51.3716C142.368 51.8159 141.314 52.0381 140.163 52.0381C138.659 52.0381 137.315 51.7703 136.13 51.2349C134.945 50.6994 133.942 49.9702 133.122 49.0474C132.302 48.1131 131.675 47.0194 131.242 45.7661C130.809 44.5129 130.593 43.1685 130.593 41.7329C130.593 40.2974 130.809 38.953 131.242 37.6997C131.675 36.4465 132.302 35.3584 133.122 34.4355C133.942 33.5013 134.945 32.7664 136.13 32.231C137.315 31.6955 138.659 31.4277 140.163 31.4277C140.926 31.4277 141.65 31.5417 142.333 31.7695C143.028 31.9974 143.661 32.3221 144.23 32.7437C144.812 33.1538 145.319 33.6551 145.751 34.2476C146.196 34.8286 146.543 35.478 146.794 36.1958L149.357 31.9062H151.579V51.645ZM145.769 41.7329C145.769 41.2202 145.74 40.679 145.683 40.1094C145.638 39.5397 145.552 38.9757 145.427 38.4175C145.301 37.8592 145.125 37.3294 144.897 36.8281C144.681 36.3154 144.396 35.8654 144.042 35.478C143.701 35.0793 143.285 34.766 142.795 34.5381C142.305 34.3102 141.735 34.1963 141.086 34.1963C140.437 34.1963 139.873 34.3159 139.394 34.5552C138.916 34.783 138.505 35.0964 138.164 35.4951C137.822 35.8825 137.537 36.3325 137.309 36.8452C137.093 37.3579 136.922 37.8934 136.796 38.4517C136.671 39.0099 136.58 39.5739 136.523 40.1436C136.477 40.7018 136.455 41.2316 136.455 41.7329C136.455 42.2342 136.477 42.7697 136.523 43.3394C136.58 43.909 136.671 44.473 136.796 45.0312C136.922 45.5895 137.093 46.125 137.309 46.6377C137.537 47.1504 137.822 47.6061 138.164 48.0049C138.505 48.3923 138.916 48.7056 139.394 48.9448C139.873 49.1727 140.437 49.2866 141.086 49.2866C141.678 49.2866 142.202 49.167 142.658 48.9277C143.125 48.6771 143.53 48.3467 143.872 47.9365C144.225 47.5264 144.521 47.0592 144.76 46.5352C145 46.0111 145.193 45.4699 145.341 44.9116C145.489 44.3534 145.598 43.8008 145.666 43.2539C145.734 42.6956 145.769 42.1886 145.769 41.7329ZM165.268 51.645H160.073L154.672 31.9062H160.449L163.833 45.749L166.652 31.9062H171.848L175.3 46.125L178.632 31.9062H182.631L176.65 51.645H171.455L168.532 39.6479L165.268 51.645ZM202.524 45.3389C202.524 46.2048 202.399 46.9738 202.148 47.646C201.897 48.3182 201.556 48.9049 201.123 49.4062C200.69 49.8962 200.177 50.312 199.584 50.6538C198.992 50.9842 198.354 51.252 197.67 51.457C196.998 51.6621 196.292 51.8102 195.551 51.9014C194.811 51.9925 194.076 52.0381 193.347 52.0381C192.367 52.0381 191.501 51.9754 190.749 51.8501C189.997 51.7248 189.279 51.5254 188.596 51.252C187.912 50.9671 187.229 50.6025 186.545 50.1582C185.873 49.7139 185.121 49.1727 184.289 48.5347L187.656 45.7832C187.963 46.3643 188.368 46.894 188.869 47.3726C189.382 47.8397 189.912 48.2441 190.458 48.5859C191.005 48.9277 191.535 49.1898 192.048 49.3721C192.561 49.5544 192.976 49.6455 193.295 49.6455C193.557 49.6455 193.854 49.6398 194.184 49.6284C194.514 49.6056 194.851 49.5715 195.192 49.5259C195.534 49.4689 195.87 49.3892 196.201 49.2866C196.531 49.1841 196.822 49.0474 197.072 48.8765C197.334 48.6942 197.539 48.472 197.688 48.21C197.847 47.9365 197.927 47.6118 197.927 47.2358C197.927 46.8485 197.824 46.5124 197.619 46.2275C197.425 45.9313 197.169 45.675 196.85 45.4585C196.531 45.242 196.167 45.0597 195.756 44.9116C195.346 44.7635 194.93 44.6325 194.509 44.5186C194.099 44.4046 193.7 44.3078 193.312 44.228C192.925 44.1369 192.589 44.0514 192.304 43.9717C191.78 43.8236 191.228 43.6755 190.646 43.5273C190.065 43.3678 189.49 43.1912 188.92 42.9976C188.351 42.7925 187.804 42.5532 187.28 42.2798C186.767 42.0063 186.311 41.6816 185.913 41.3057C185.525 40.9183 185.212 40.4683 184.973 39.9556C184.745 39.4315 184.631 38.8219 184.631 38.127C184.631 36.8509 184.882 35.7856 185.383 34.9312C185.896 34.0653 186.568 33.376 187.399 32.8633C188.231 32.3392 189.177 31.9689 190.236 31.7524C191.296 31.536 192.373 31.4277 193.466 31.4277C194.218 31.4277 195.01 31.5075 195.842 31.667C196.674 31.8151 197.482 32.043 198.269 32.3506C199.055 32.6468 199.79 33.0114 200.473 33.4443C201.157 33.8773 201.726 34.3729 202.182 34.9312L198.815 37.6997C198.565 37.0161 198.234 36.4294 197.824 35.9395C197.425 35.4495 196.987 35.0508 196.508 34.7432C196.041 34.4242 195.557 34.1906 195.056 34.0425C194.566 33.8944 194.11 33.8203 193.688 33.8203C193.278 33.8203 192.817 33.8374 192.304 33.8716C191.792 33.9058 191.307 34.0026 190.852 34.1621C190.407 34.3216 190.026 34.5666 189.707 34.897C189.399 35.216 189.245 35.6603 189.245 36.23C189.245 36.6401 189.336 36.9933 189.519 37.2896C189.712 37.5744 189.963 37.825 190.271 38.0415C190.578 38.2466 190.926 38.4232 191.313 38.5713C191.712 38.708 192.116 38.8333 192.526 38.9473C192.937 39.0498 193.335 39.141 193.723 39.2207C194.11 39.3005 194.458 39.3859 194.765 39.4771C195.289 39.6252 195.842 39.779 196.423 39.9385C197.015 40.0866 197.596 40.2632 198.166 40.4683C198.736 40.6619 199.283 40.8955 199.807 41.1689C200.342 41.431 200.809 41.7557 201.208 42.1431C201.607 42.5304 201.926 42.9862 202.165 43.5103C202.404 44.0229 202.524 44.6325 202.524 45.3389ZM212.248 27.1382C212.248 27.5711 212.163 27.9813 211.992 28.3687C211.832 28.756 211.61 29.0921 211.325 29.377C211.04 29.6618 210.704 29.8896 210.317 30.0605C209.93 30.2201 209.519 30.2998 209.086 30.2998C208.653 30.2998 208.243 30.2201 207.856 30.0605C207.48 29.8896 207.15 29.6618 206.865 29.377C206.58 29.0921 206.352 28.756 206.181 28.3687C206.022 27.9813 205.942 27.5711 205.942 27.1382C205.942 26.7052 206.022 26.3008 206.181 25.9248C206.352 25.5374 206.58 25.2013 206.865 24.9165C207.15 24.6317 207.48 24.4095 207.856 24.25C208.243 24.0791 208.653 23.9937 209.086 23.9937C209.519 23.9937 209.93 24.0791 210.317 24.25C210.704 24.4095 211.04 24.6317 211.325 24.9165C211.61 25.2013 211.832 25.5374 211.992 25.9248C212.163 26.3008 212.248 26.7052 212.248 27.1382ZM211.992 51.645H206.198V31.9233H211.992V51.645ZM224.279 51.645H218.486V34.1963H214.897V31.9062H218.486V24.6431H224.279V31.9062H230.261V34.1963H224.279V51.645ZM239.011 27.1382C239.011 27.5711 238.925 27.9813 238.754 28.3687C238.595 28.756 238.373 29.0921 238.088 29.377C237.803 29.6618 237.467 29.8896 237.08 30.0605C236.692 30.2201 236.282 30.2998 235.849 30.2998C235.416 30.2998 235.006 30.2201 234.619 30.0605C234.243 29.8896 233.912 29.6618 233.627 29.377C233.343 29.0921 233.115 28.756 232.944 28.3687C232.784 27.9813 232.705 27.5711 232.705 27.1382C232.705 26.7052 232.784 26.3008 232.944 25.9248C233.115 25.5374 233.343 25.2013 233.627 24.9165C233.912 24.6317 234.243 24.4095 234.619 24.25C235.006 24.0791 235.416 23.9937 235.849 23.9937C236.282 23.9937 236.692 24.0791 237.08 24.25C237.467 24.4095 237.803 24.6317 238.088 24.9165C238.373 25.2013 238.595 25.5374 238.754 25.9248C238.925 26.3008 239.011 26.7052 239.011 27.1382ZM238.754 51.645H232.961V31.9233H238.754V51.645ZM253.759 51.645H248.564L241.386 31.9062H247.163L252.426 47.6289L257.536 31.9062H261.535L253.759 51.645ZM268.32 42.2798C269.026 42.4393 269.733 42.5646 270.439 42.6558C271.145 42.7469 271.857 42.7925 272.575 42.7925C273.327 42.7925 274.022 42.7241 274.66 42.5874C275.31 42.4393 275.868 42.2 276.335 41.8696C276.813 41.5278 277.189 41.0778 277.463 40.5195C277.736 39.9613 277.873 39.2663 277.873 38.4346C277.873 37.7624 277.782 37.1471 277.6 36.5889C277.417 36.0306 277.144 35.5521 276.779 35.1533C276.426 34.7546 275.987 34.4469 275.463 34.2305C274.939 34.0026 274.33 33.8887 273.635 33.8887C272.985 33.8887 272.399 34.0083 271.875 34.2476C271.362 34.4868 270.906 34.8115 270.507 35.2217C270.12 35.6204 269.784 36.0876 269.499 36.623C269.226 37.1585 268.998 37.7168 268.815 38.2979C268.633 38.8789 268.502 39.4657 268.422 40.0581C268.343 40.6506 268.303 41.2088 268.303 41.7329C268.303 41.8241 268.303 41.9152 268.303 42.0063C268.303 42.0975 268.308 42.1886 268.32 42.2798ZM282.556 38.3833C282.556 39.1922 282.425 39.9157 282.163 40.5537C281.901 41.1803 281.542 41.7329 281.086 42.2114C280.642 42.6899 280.123 43.0944 279.531 43.4248C278.938 43.7552 278.306 44.0286 277.634 44.2451C276.962 44.4502 276.267 44.5983 275.549 44.6895C274.842 44.7806 274.153 44.8262 273.481 44.8262C272.626 44.8262 271.783 44.7692 270.952 44.6553C270.12 44.5299 269.3 44.3363 268.491 44.0742C268.616 44.8262 268.815 45.5439 269.089 46.2275C269.362 46.8997 269.727 47.4922 270.183 48.0049C270.638 48.5062 271.197 48.9049 271.857 49.2012C272.53 49.4974 273.321 49.6455 274.233 49.6455C274.837 49.6455 275.412 49.5544 275.959 49.3721C276.506 49.1898 277.007 48.9334 277.463 48.603C277.919 48.2726 278.317 47.8796 278.659 47.4238C279.012 46.9681 279.297 46.4611 279.514 45.9028L282.009 46.8257C281.633 47.7257 281.114 48.5062 280.454 49.167C279.804 49.8164 279.064 50.3576 278.232 50.7905C277.412 51.2121 276.534 51.5254 275.6 51.7305C274.677 51.9355 273.76 52.0381 272.849 52.0381C271.345 52.0381 269.955 51.7874 268.679 51.2861C267.403 50.7734 266.303 50.0614 265.38 49.1499C264.458 48.2384 263.734 47.1504 263.21 45.8857C262.686 44.6211 262.424 43.2368 262.424 41.7329C262.424 40.229 262.686 38.8447 263.21 37.5801C263.734 36.3154 264.458 35.2274 265.38 34.3159C266.303 33.4045 267.403 32.6981 268.679 32.1968C269.955 31.6841 271.345 31.4277 272.849 31.4277C273.578 31.4277 274.324 31.479 275.087 31.5815C275.851 31.6841 276.591 31.8493 277.309 32.0771C278.027 32.2936 278.705 32.5785 279.343 32.9316C279.981 33.2848 280.533 33.7235 281 34.2476C281.479 34.7603 281.855 35.3584 282.128 36.042C282.413 36.7256 282.556 37.506 282.556 38.3833Z" fill="white"/>
</svg>
