<svg width="76" height="66" viewBox="0 0 76 66" fill="none" xmlns="http://www.w3.org/2000/svg">
<path d="M32.1182 33.0379C32.1182 41.9218 30.3014 49.9151 27.4111 55.6506C24.4917 61.4437 20.6418 64.6535 16.6817 64.6535C12.7215 64.6535 8.87168 61.4437 5.95229 55.6506C3.06191 49.9151 1.24512 41.9218 1.24512 33.0379C1.24512 24.154 3.06191 16.1606 5.95229 10.4252C8.87168 4.63211 12.7215 1.42224 16.6817 1.42224C20.6418 1.42224 24.4917 4.63211 27.4111 10.4252C30.3014 16.1606 32.1182 24.154 32.1182 33.0379Z" stroke="white" stroke-width="2"/>
<mask id="mask0_1_44" style="mask-type:alpha" maskUnits="userSpaceOnUse" x="0" y="0" width="34" height="66">
<ellipse cx="16.6817" cy="33.0379" rx="16.4366" ry="32.6156" fill="white"/>
</mask>
<g mask="url(#mask0_1_44)">
<ellipse cx="16.6819" cy="46.7703" rx="15.7219" ry="18.8827" fill="white"/>
</g>
<ellipse cx="22.7914" cy="39.8525" rx="5.35975" ry="8.58306" fill="black"/>
<path d="M74.8533 33.0379C74.8533 41.9218 73.0365 49.9151 70.1461 55.6506C67.2267 61.4437 63.3769 64.6535 59.4167 64.6535C55.4566 64.6535 51.6067 61.4437 48.6873 55.6506C45.797 49.9151 43.9802 41.9218 43.9802 33.0379C43.9802 24.154 45.797 16.1606 48.6873 10.4252C51.6067 4.63211 55.4566 1.42224 59.4167 1.42224C63.3769 1.42224 67.2267 4.63211 70.1461 10.4252C73.0365 16.1606 74.8533 24.154 74.8533 33.0379Z" stroke="white" stroke-width="2"/>
<mask id="mask1_1_44" style="mask-type:alpha" maskUnits="userSpaceOnUse" x="42" y="0" width="34" height="66">
<ellipse cx="59.4167" cy="33.0379" rx="16.4366" ry="32.6156" fill="white"/>
</mask>
<g mask="url(#mask1_1_44)">
<ellipse cx="59.4169" cy="46.7703" rx="15.7219" ry="18.8827" fill="white"/>
</g>
<ellipse cx="65.5269" cy="39.8525" rx="5.35975" ry="8.58306" fill="black"/>
</svg>
