<svg width="17" height="16" viewBox="0 0 17 16" fill="none" xmlns="http://www.w3.org/2000/svg">
<path d="M13.1835 15.0472C12.5176 15.0472 11.5823 14.8108 10.1816 14.0428C8.47837 13.1052 7.16094 12.2397 5.4669 10.5813C3.83359 8.97919 3.03876 7.9419 1.92635 5.95505C0.669636 3.71172 0.883864 2.53581 1.12333 2.03324C1.40852 1.43256 1.82947 1.07329 2.37356 0.716704C2.68261 0.517963 3.00965 0.347598 3.35055 0.207769C3.38466 0.193371 3.41639 0.179644 3.4447 0.167255C3.61356 0.0925889 3.8694 -0.0202473 4.19348 0.10029C4.40975 0.179978 4.60283 0.343038 4.90507 0.636011C5.52489 1.23602 6.37191 2.57231 6.68438 3.22856C6.89417 3.67087 7.03301 3.96284 7.03335 4.2903C7.03335 4.67367 6.83687 4.96932 6.59842 5.28841C6.55373 5.34834 6.50938 5.4056 6.4664 5.46118C6.2068 5.79601 6.14984 5.89277 6.18736 6.06554C6.26343 6.41275 6.83073 7.44636 7.76302 8.35943C8.69532 9.2725 9.71802 9.79416 10.0731 9.86849C10.2567 9.90699 10.3573 9.84873 10.7093 9.58489C10.7598 9.54706 10.8117 9.50788 10.8659 9.46871C11.2296 9.20319 11.5168 9.01535 11.8982 9.01535H11.9002C12.2321 9.01535 12.5163 9.15665 12.987 9.38969C13.6011 9.69371 15.0034 10.5144 15.6185 11.1234C15.9177 11.4194 16.0845 11.6082 16.166 11.8202C16.2888 12.1393 16.1732 12.3894 16.0978 12.5568C16.0851 12.5846 16.0712 12.6151 16.0565 12.6489C15.9129 12.9829 15.7383 13.3032 15.5349 13.6058C15.1723 14.1382 14.8049 14.5504 14.1916 14.8306C13.8766 14.9768 13.5319 15.0509 13.1835 15.0472Z" fill="#F5F5F5" fill-opacity="0.83"/>
</svg>
