<svg width="15" height="19" viewBox="0 0 15 19" fill="none" xmlns="http://www.w3.org/2000/svg">
<path d="M7.48872 0.818359C3.87366 0.818359 0.94043 3.41028 0.94043 6.60407C0.94043 11.7469 7.48872 18.8184 7.48872 18.8184C7.48872 18.8184 14.037 11.7469 14.037 6.60407C14.037 3.41028 11.1038 0.818359 7.48872 0.818359ZM7.48872 9.81836C6.97067 9.81836 6.46425 9.66755 6.03351 9.385C5.60276 9.10244 5.26704 8.70084 5.06879 8.23097C4.87054 7.76111 4.81867 7.24408 4.91973 6.74527C5.0208 6.24646 5.27027 5.78828 5.63658 5.42866C6.0029 5.06904 6.46962 4.82413 6.97772 4.72491C7.48582 4.62569 8.01247 4.67661 8.49109 4.87124C8.96971 5.06587 9.37879 5.39545 9.6666 5.81832C9.95442 6.24119 10.108 6.73835 10.108 7.24693C10.1073 7.92869 9.83107 8.58231 9.34002 9.06438C8.84897 9.54646 8.18318 9.81761 7.48872 9.81836Z" fill="#F5F5F5" fill-opacity="0.83"/>
</svg>
