<svg width="17" height="13" viewBox="0 0 17 13" fill="none" xmlns="http://www.w3.org/2000/svg">
<path d="M14.3099 0.540039H2.85035C2.34397 0.540571 1.85849 0.738286 1.50043 1.0898C1.14237 1.44132 0.940971 1.91792 0.94043 2.41504V10.4508C0.940971 10.9479 1.14237 11.4245 1.50043 11.776C1.85849 12.1275 2.34397 12.3252 2.85035 12.3258H14.3099C14.8162 12.3252 15.3017 12.1275 15.6598 11.776C16.0178 11.4245 16.2192 10.9479 16.2198 10.4508V2.41504C16.2192 1.91792 16.0178 1.44132 15.6598 1.0898C15.3017 0.738286 14.8162 0.540571 14.3099 0.540039ZM13.8262 3.64149L8.91502 7.39149C8.81925 7.46458 8.70141 7.50426 8.5801 7.50426C8.4588 7.50426 8.34096 7.46458 8.24519 7.39149L3.33397 3.64149C3.27626 3.59871 3.2278 3.5451 3.19138 3.48377C3.15497 3.42245 3.13133 3.35463 3.12185 3.28426C3.11236 3.21388 3.11722 3.14236 3.13613 3.07385C3.15505 3.00534 3.18764 2.9412 3.23203 2.88516C3.27641 2.82912 3.33169 2.78229 3.39467 2.74741C3.45764 2.71253 3.52705 2.69028 3.59886 2.68196C3.67067 2.67364 3.74345 2.67941 3.81296 2.69895C3.88248 2.71848 3.94735 2.75138 4.0038 2.79573L8.5801 6.28993L13.1564 2.79573C13.2708 2.71089 13.4147 2.67369 13.5568 2.69215C13.699 2.71062 13.828 2.78328 13.9161 2.89441C14.0041 3.00555 14.044 3.14623 14.0272 3.28603C14.0104 3.42583 13.9382 3.55353 13.8262 3.64149Z" fill="#F5F5F5" fill-opacity="0.83"/>
</svg>
