<svg width="204" height="47" viewBox="0 0 204 47" fill="none" xmlns="http://www.w3.org/2000/svg">
<path fill-rule="evenodd" clip-rule="evenodd" d="M58.7306 23.6301C58.7306 11.6421 45.5818 1.92188 29.3653 1.92188C13.1488 1.92188 0 11.6421 0 23.6301C0 34.4649 10.7367 43.4457 24.777 45.0757V29.9071H17.319V23.6301H24.777V18.8475C24.777 13.4079 29.1621 10.4007 35.8689 10.4007C39.0821 10.4007 42.4434 10.8252 42.4434 10.8252V16.1679H38.7386C35.0929 16.1679 33.9523 17.8406 33.9523 19.5598V23.6301H42.096L40.7955 29.9071H33.9536V45.0777C47.9939 43.4486 58.7306 34.4678 58.7306 23.6301Z" fill="#F5F5F5"/>
<path d="M115.201 5.40947C117.81 5.41663 120.309 6.37195 122.154 8.06681C123.998 9.76167 125.038 12.0583 125.046 14.4552V32.5448C125.038 34.9417 123.998 37.2383 122.154 38.9332C120.309 40.628 117.81 41.5834 115.201 41.5905H95.513C92.9044 41.5834 90.4048 40.628 88.5601 38.9332C86.7155 37.2383 85.6758 34.9417 85.668 32.5448V14.4552C85.6758 12.0583 86.7155 9.76167 88.5601 8.06681C90.4048 6.37195 92.9044 5.41663 95.513 5.40947H115.201ZM115.201 1.79175H95.513C87.9325 1.79175 81.7306 7.49016 81.7306 14.4552V32.5448C81.7306 39.5098 87.9325 45.2083 95.513 45.2083H115.201C122.781 45.2083 128.983 39.5098 128.983 32.5448V14.4552C128.983 7.49016 122.781 1.79175 115.201 1.79175Z" fill="#F5F5F5"/>
<path d="M118.154 14.4558C117.569 14.4558 116.998 14.2966 116.513 13.9985C116.027 13.7003 115.649 13.2765 115.425 12.7807C115.202 12.2848 115.143 11.7392 115.257 11.2129C115.371 10.6865 115.652 10.203 116.065 9.82349C116.478 9.444 117.005 9.18556 117.577 9.08086C118.15 8.97616 118.744 9.02989 119.284 9.23527C119.823 9.44065 120.285 9.78845 120.609 10.2347C120.934 10.6809 121.107 11.2056 121.107 11.7422C121.108 12.0988 121.032 12.452 120.884 12.7816C120.736 13.1111 120.518 13.4106 120.244 13.6627C119.969 13.9148 119.643 14.1147 119.285 14.2508C118.926 14.3869 118.542 14.4565 118.154 14.4558Z" fill="#F5F5F5"/>
<path d="M105.357 16.2636C106.915 16.2636 108.437 16.688 109.732 17.4831C111.028 18.2783 112.037 19.4085 112.633 20.7307C113.229 22.053 113.385 23.508 113.081 24.9118C112.777 26.3155 112.027 27.6049 110.926 28.6169C109.824 29.6289 108.421 30.3181 106.893 30.5974C105.366 30.8766 103.782 30.7333 102.343 30.1856C100.904 29.6379 99.6738 28.7104 98.8084 27.5203C97.943 26.3303 97.4811 24.9312 97.4811 23.5C97.4833 21.5814 98.3138 19.742 99.7903 18.3854C101.267 17.0287 103.269 16.2656 105.357 16.2636ZM105.357 12.6459C103.02 12.6459 100.737 13.2825 98.7938 14.4751C96.8512 15.6678 95.3371 17.363 94.4429 19.3463C93.5488 21.3296 93.3149 23.512 93.7707 25.6175C94.2265 27.723 95.3516 29.6571 97.0037 31.175C98.6558 32.693 100.761 33.7268 103.052 34.1456C105.344 34.5644 107.719 34.3494 109.878 33.5279C112.036 32.7064 113.881 31.3152 115.179 29.5302C116.477 27.7453 117.17 25.6467 117.17 23.5C117.17 20.6213 115.925 17.8605 113.71 15.825C111.495 13.7894 108.49 12.6459 105.357 12.6459Z" fill="#F5F5F5"/>
<path d="M195.085 9.42073C193.468 10.1726 191.758 10.668 190.007 10.8911C191.847 9.73824 193.23 7.90668 193.898 5.73995C192.159 6.82842 190.259 7.59214 188.281 7.9984C187.447 7.06381 186.445 6.32033 185.335 5.81313C184.225 5.30593 183.03 5.04562 181.823 5.04801C176.937 5.04801 172.982 9.21892 172.982 14.3605C172.979 15.0756 173.055 15.7887 173.21 16.4844C169.706 16.3086 166.275 15.3519 163.136 13.6755C159.997 11.9991 157.22 9.64 154.982 6.74904C154.196 8.16573 153.781 9.78213 153.779 11.4293C153.779 14.6584 155.353 17.5127 157.73 19.1849C156.322 19.1491 154.943 18.7502 153.709 18.022V18.1374C153.709 22.6542 156.762 26.4119 160.803 27.2672C160.043 27.484 159.26 27.5939 158.474 27.594C157.916 27.595 157.359 27.5371 156.812 27.421C157.935 31.121 161.204 33.8119 165.077 33.8888C161.93 36.4845 158.067 37.8874 154.094 37.8771C153.388 37.876 152.684 37.8311 151.983 37.7426C156.025 40.5048 160.724 41.9659 165.519 41.9519C181.805 41.9519 190.701 27.7574 190.701 15.4465C190.701 15.0428 190.692 14.6392 190.674 14.2452C192.4 12.9305 193.894 11.2968 195.085 9.42073Z" fill="#F5F5F5"/>
</svg>
