<svg width="232" height="168" viewBox="0 0 232 168" fill="none" xmlns="http://www.w3.org/2000/svg">
<mask id="mask0_17_2242" style="mask-type:alpha" maskUnits="userSpaceOnUse" x="0" y="0" width="232" height="168">
<rect x="0.795898" y="0.65918" width="231" height="167" fill="#D9D9D9"/>
</mask>
<g mask="url(#mask0_17_2242)">
<g filter="url(#filter0_f_17_2242)">
<circle cx="115.796" cy="76.6592" r="62.5" stroke="white" stroke-width="3"/>
<path d="M110.192 28.6802C108.326 28.7324 106.516 28.8455 105.964 28.9369C104.615 29.1674 103.393 29.6764 102.353 30.4507C101.801 30.864 101.078 31.6079 100.565 32.2952C99.7864 33.3349 99.2296 33.7352 98.1638 34.0266C95.3971 34.7792 93.6831 36.4149 92.7739 39.1816C92.5433 39.8777 92.4085 40.465 92.2257 41.5525C91.8038 44.0539 91.1686 46.6118 90.3813 48.9914C89.5808 51.3927 88.8413 53.1632 87.6102 55.6037C86.9315 56.9566 86.7053 57.4786 86.4008 58.4139C85.8918 59.9844 85.5482 61.7897 85.2697 64.3694C85.1001 65.9094 85.0566 66.8447 85.0827 68.1541C85.1523 71.3297 85.7265 74.2661 86.9228 77.5201C87.5145 79.121 88.415 81.1177 88.8282 81.7398C89.0849 82.127 89.446 82.4619 89.7548 82.6098C89.9854 82.7186 90.0506 82.7273 90.5074 82.7229C91.0773 82.7229 91.2687 82.6707 92.03 82.3097C92.5738 82.0487 93.0958 81.7615 94.4835 80.9568C95.0534 80.6261 95.5276 80.3608 95.5319 80.3651C95.5406 80.3738 95.471 80.7305 95.3753 81.1612C95.1752 82.0922 94.9359 83.4842 94.8272 84.3586C94.7663 84.8676 94.7489 85.307 94.7489 86.6207C94.7489 88.7175 94.8402 89.7137 95.3797 93.7116C95.7712 96.6219 95.8582 97.679 95.8582 99.5626C95.8582 101.746 95.6885 104.004 95.223 108.111C94.9403 110.603 94.862 111.004 94.0311 114.179C93.8875 114.727 93.6918 115.571 93.5917 116.05C93.2872 117.555 93.1654 117.699 92.0474 117.807C91.1121 117.903 90.5292 118.134 90.0463 118.617C89.5547 119.104 89.3981 119.534 89.4025 120.4C89.4025 120.809 89.4242 120.996 89.4982 121.262C89.8201 122.388 90.6118 123.206 92.0474 123.88C93.2437 124.446 94.266 124.659 95.7712 124.659C97.0762 124.663 97.7897 124.568 99.7951 124.12C101.505 123.741 101.983 123.68 103.123 123.693L103.884 123.706L104.167 123.571C104.328 123.498 104.537 123.35 104.654 123.232C104.881 123.002 105.15 122.51 105.294 122.075C105.49 121.466 105.52 121.201 105.559 119.539C105.577 118.656 105.603 117.929 105.611 117.921C105.62 117.912 105.742 118.003 105.885 118.125C107.208 119.23 107.882 119.7 108.852 120.191C110.414 120.992 112.311 121.54 114.164 121.727C114.407 121.749 114.673 121.801 114.751 121.84C115.099 122.014 115.26 122.323 115.26 122.815C115.26 123.215 115.347 123.776 115.443 123.998C115.552 124.254 115.804 124.489 116.052 124.559C116.317 124.637 117.035 124.624 117.87 124.529C118.901 124.411 122.051 124.411 123.874 124.533C125.544 124.642 127.415 124.646 128.18 124.542C130.416 124.233 131.125 123.654 130.647 122.523C130.442 122.045 130.386 121.775 130.408 121.388C130.447 120.787 130.695 120.291 131.36 119.491C131.704 119.073 131.721 119.06 131.761 119.165C131.782 119.221 131.917 119.504 132.056 119.791C132.957 121.657 134.353 122.754 136.272 123.102C136.685 123.18 137.699 123.206 138.817 123.167C139.143 123.158 139.495 123.18 139.926 123.241C141.47 123.463 143.545 123.519 144.346 123.363C145.468 123.141 146.303 122.627 146.634 121.958C147.047 121.118 146.682 119.887 145.764 119.021C145.224 118.512 144.65 118.234 143.415 117.873C143.041 117.764 142.71 117.66 142.68 117.642C142.645 117.625 142.68 117.533 142.784 117.355C143.041 116.924 143.771 115.441 144.072 114.745C146.016 110.225 146.625 105.466 145.929 100.193C145.529 97.1744 144.829 94.6817 143.793 92.6197C142.971 90.9753 141.818 89.4266 141.214 89.1482C140.931 89.0177 140.574 88.9612 140.23 88.996C139.835 89.0308 139.038 89.2091 138.599 89.3614C138.047 89.5571 137.933 89.531 137.786 89.1961C137.62 88.8307 137.233 88.1912 136.559 87.195C135.632 85.8116 135.267 85.0634 135.067 84.1411C134.941 83.5451 134.962 82.4967 135.132 81.2178C135.336 79.6821 135.328 79.1601 135.075 77.6854C134.545 74.5924 134.179 71.7865 133.988 69.3504C133.853 67.5885 133.827 66.9099 133.809 64.4564C133.792 61.9246 133.762 61.1807 133.635 60.1714C133.34 57.8093 132.626 55.521 131.595 53.6461C131.456 53.3938 131.23 52.9805 131.091 52.7282C130.482 51.6102 130.229 50.8794 130.068 49.7527C129.838 48.0996 129.638 47.0033 129.242 45.2067C128.872 43.5406 127.784 39.1947 127.589 38.6117C126.71 35.9799 125.07 33.9657 122.329 32.1386C121.259 31.4296 119.589 30.4725 118.545 29.9766C116.948 29.2196 114.977 28.7716 112.911 28.6976C111.584 28.6498 111.293 28.6498 110.192 28.6802ZM113.159 29.4197C117.179 29.746 120.698 31.4121 124.161 34.6226C125.244 35.6319 125.722 36.193 126.083 36.8978C126.362 37.4372 126.388 37.5068 127.023 39.6819C128.498 44.7021 128.959 46.8337 129.137 49.4264C129.242 50.9359 129.533 51.8234 130.582 53.7984C131.138 54.8511 131.443 55.5471 131.769 56.5346C132.178 57.7745 132.661 59.7756 132.661 60.241C132.661 60.6151 132.448 60.9066 132.03 61.1067C131.913 61.1633 131.626 61.2981 131.391 61.4069C130.368 61.8898 129.307 62.799 128.694 63.7169C128.154 64.526 127.702 65.6222 127.48 66.6619C127.354 67.2405 127.345 68.2759 127.458 68.8066C127.623 69.5679 127.928 70.2944 128.42 71.0948C129.268 72.4695 129.69 73.6788 130.073 75.8322C130.425 77.8029 131.434 79.4037 133.031 80.5261C133.657 80.9655 133.836 81.2047 133.836 81.6049C133.836 81.8573 133.709 82.1313 133.409 82.5533C132.896 83.2754 132.565 83.5321 132.135 83.5321C131.839 83.5321 131.604 83.419 130.79 82.8926C129.103 81.8007 126.84 80.6696 124.439 79.7169C123.926 79.5125 123.338 79.2645 123.134 79.1688C122.281 78.7556 121.381 78.0291 120.807 77.2895C120.489 76.8763 120.298 76.5761 119.884 75.8105C119.715 75.4972 119.341 74.8447 119.049 74.3531C118.079 72.7262 117.557 71.5559 117.353 70.538C117.235 69.9768 117.161 68.7805 117.196 68.0888C117.279 66.4662 117.496 65.4047 118.075 63.8082C118.753 61.9202 119.549 60.3019 120.802 58.2443C123.208 54.2856 124.491 50.7228 124.935 46.7293C125.113 45.1632 125.131 43.0838 124.983 42.1224C124.709 40.3562 124.065 39.025 122.964 37.9418C121.846 36.8456 120.419 36.1843 118.579 35.9103C117.94 35.8189 116.295 35.8059 115.891 35.8929C115.03 36.0799 114.312 36.7368 114.012 37.6156C113.903 37.9288 113.89 38.0201 113.89 38.5726C113.89 39.1642 113.894 39.1947 114.055 39.6602C114.273 40.2909 114.782 41.3263 115.173 41.9223C115.652 42.6488 116.074 43.149 116.935 44.0104C117.366 44.441 117.853 44.9587 118.014 45.1632C120.037 47.6733 120.654 50.5748 119.998 54.4509C119.95 54.738 119.824 55.3557 119.719 55.8212C119.619 56.2867 119.51 56.8696 119.48 57.1176C119.454 57.3612 119.402 57.6613 119.367 57.7788C119.201 58.3356 118.636 58.6184 118.005 58.4574C117.487 58.3226 117.057 58.0311 116.265 57.2742C115.225 56.278 114.568 55.3383 113.812 53.7679C113.181 52.4498 112.593 51.7799 111.863 51.5536C111.045 51.297 110.196 51.6624 109.161 52.7152C108.535 53.3546 108.078 53.9071 107.656 54.5335C107.103 55.3514 106.769 55.6733 106.103 56.0039C105.72 56.1953 105.346 56.3171 104.82 56.4259C104.237 56.5477 102.784 56.7435 102.692 56.713C102.479 56.6477 102.423 56.5085 102.292 55.7255C102.07 54.4335 101.801 53.4329 101.379 52.3367C101.061 51.5058 100.996 51.2883 100.952 50.9098C100.778 49.322 101.853 47.769 105.059 44.9674C107.569 42.7662 108.221 42.0267 108.891 40.6172C109.248 39.8603 109.357 39.5079 109.379 39.0207C109.4 38.5204 109.331 38.2681 109.083 37.9375C108.87 37.6504 108.556 37.4198 108.03 37.1544C107.117 36.6977 106.007 36.4062 104.915 36.3409C103.545 36.2539 101.875 36.4845 100.904 36.8934C99.0556 37.6678 97.9898 39.9299 97.9898 43.0751C97.9898 45.1588 98.3204 46.6075 99.6646 50.3834C100.556 52.8979 100.9 54.0333 101.187 55.4471C101.566 57.309 101.661 58.2921 101.661 60.2802C101.666 61.8593 101.648 62.1377 101.466 63.6472C101.239 65.5004 101.279 67.3493 101.627 71.3515C101.783 73.1481 101.805 74.0182 101.714 74.4793C101.509 75.4842 101.113 76.0019 99.6646 77.159C97.8419 78.6207 96.8805 79.1427 94.9316 79.7257C94.4357 79.8736 93.9919 80.1085 93.0131 80.7349C91.0686 81.9878 90.2899 82.1487 89.6591 81.4309C89.3067 81.0307 89.1588 80.674 87.3883 75.9845C86.5357 73.7267 86.4487 73.4744 86.4269 73.1742C86.4095 72.8697 86.4182 72.8219 86.527 72.6217C86.5966 72.4912 86.7836 72.2781 86.9968 72.091C87.9843 71.2166 88.6542 70.1943 89.0675 68.9284C89.4025 67.9061 89.533 67.0274 89.5939 65.3699C89.6374 64.1171 89.7026 63.5994 89.9201 62.7598C90.2203 61.5896 90.6075 60.7152 91.5906 58.9969C92.3389 57.6875 92.6477 56.5825 92.5477 55.5863C92.4824 54.9338 92.3432 54.5422 91.9169 53.7984C91.5602 53.1763 91.4079 53.0023 91.0599 52.8283C90.6901 52.6412 90.4465 52.4019 90.3769 52.1453C90.2986 51.8712 90.3769 51.5754 90.738 50.775C91.334 49.4438 91.7342 48.1387 92.117 46.2638C92.1648 46.0376 92.3519 45.0153 92.5303 43.9973C93.2393 40.0082 93.5917 38.8423 94.514 37.4459C95.4014 36.0973 96.6456 35.2273 98.3813 34.7401C99.5254 34.4138 100.069 34.0527 100.752 33.1566C101.557 32.1038 102.353 31.3773 103.371 30.7814C104.698 29.9983 106.434 29.5329 108.452 29.4197C109.379 29.3675 112.528 29.3675 113.159 29.4197ZM118.088 36.6846C120.267 37.1022 121.416 37.5808 122.364 38.4639C123.056 39.112 123.665 40.0952 123.926 40.987C124.204 41.944 124.278 44.9631 124.065 46.8772C123.743 49.8005 122.812 52.7761 121.398 55.3905C121.102 55.9387 120.485 56.9958 120.463 56.9958C120.446 56.9958 120.472 56.8 120.724 55.1687C121.033 53.1197 121.085 52.6978 121.129 51.8582C121.246 49.5221 120.828 47.8951 119.667 46.142C119.241 45.4981 118.875 45.0283 118.005 43.9886C115.947 41.5395 114.99 40.13 114.76 39.2121C114.634 38.7075 114.677 38.1898 114.877 37.7896C115.221 37.1022 115.856 36.6498 116.6 36.5541C116.992 36.5062 117.287 36.5324 118.088 36.6846ZM105.198 37.1805C105.877 37.2719 106.682 37.4328 107.134 37.5764C108.326 37.9505 108.787 38.5639 108.587 39.5035C108.5 39.9168 108.335 40.2648 108.004 40.726C107.369 41.6091 106.973 42.0136 103.628 45.1762C102.205 46.5204 101.622 47.1686 101.035 48.0561C100.565 48.7695 100.295 48.9392 100.021 48.6956C99.9822 48.6608 99.8995 48.4824 99.843 48.2997C99.7864 48.117 99.6516 47.7385 99.5385 47.4514C99.2992 46.8554 99.073 46.0028 98.9599 45.2937C98.8468 44.5803 98.8468 42.4486 98.9642 41.5742C99.0991 40.5258 99.247 39.7733 99.3775 39.4601C99.856 38.3159 101.087 37.5024 102.797 37.1979C103.362 37.0979 104.498 37.0892 105.198 37.1805ZM111.154 53.4025C111.828 53.7113 112.546 54.4117 114.133 56.3041C115.565 58.0137 116.191 58.5792 117.205 59.0708C117.635 59.2796 118.118 59.4319 118.732 59.545C118.788 59.558 118.823 59.5798 118.81 59.5972C118.762 59.6755 117.622 62.377 117.448 62.8251C116.369 65.6005 116.056 67.8496 116.417 70.1987C116.852 73.0089 118.444 76.1193 120.52 78.2205C122.012 79.7344 123.591 80.6914 125.983 81.5353C126.962 81.8834 127.776 82.2879 129.246 83.1667C131.178 84.3195 131.539 84.4891 132.052 84.4891C132.487 84.4891 132.879 84.3151 133.74 83.7365C133.988 83.5712 134.197 83.4451 134.205 83.4538C134.24 83.4886 134.401 84.4326 134.445 84.8981C134.523 85.6419 134.479 87.1689 134.362 87.9911C134.153 89.4266 133.788 90.8622 132.948 93.568C132.805 94.0335 132.774 94.1901 132.818 94.1901C132.852 94.1901 133.061 94.0074 133.283 93.7855C133.74 93.3375 133.844 93.1548 134.118 92.3369C134.371 91.5843 134.884 89.7442 135.206 88.4522L135.502 87.2559L135.684 87.4603C135.941 87.7388 136.115 88.0128 136.541 88.7958C136.746 89.1656 136.955 89.5397 137.003 89.6224C137.107 89.7921 137.124 90.0705 137.042 90.214C137.011 90.2662 136.781 90.5055 136.524 90.7491C134.958 92.2412 134.044 94.077 133.705 96.4087C133.522 97.6703 133.492 99.4539 133.618 101.259C133.675 102.029 133.67 103.974 133.618 104.752C133.548 105.705 133.383 107.145 133.113 109.09C132.813 111.295 132.739 111.674 132.269 113.527C131.761 115.532 131.682 115.893 131.508 116.898C131.352 117.825 131.278 118.055 130.991 118.564C130.712 119.056 129.981 120.013 129.807 120.122C129.564 120.27 129.39 120.213 129.072 119.869C128.302 119.034 128.089 118.882 127.519 118.747C127.188 118.664 126.223 118.608 126.223 118.664C126.223 118.734 126.61 119.008 127.132 119.313C127.402 119.469 127.732 119.674 127.867 119.765C128.111 119.93 128.659 120.474 128.659 120.552C128.659 120.57 128.724 120.626 128.802 120.679C128.95 120.766 129.481 121.575 129.738 122.097C129.999 122.619 130.007 123.093 129.768 123.332C129.659 123.445 129.651 123.445 128.994 123.445C128.459 123.445 128.306 123.458 128.202 123.519C127.819 123.728 127.284 123.763 125.831 123.689C125.27 123.658 125.126 123.637 124.97 123.558C124.639 123.389 124.504 123.128 124.417 122.467C124.369 122.079 124.082 121.814 123.787 121.879C123.6 121.918 123.565 121.997 123.53 122.419C123.495 122.801 123.412 123.023 123.295 123.036C123.269 123.041 123.038 123.041 122.786 123.036C122.529 123.028 122.112 123.058 121.829 123.097C121.298 123.176 120.933 123.163 120.681 123.058C120.437 122.958 120.137 122.649 119.95 122.306C119.858 122.136 119.745 121.979 119.702 121.966C119.489 121.901 119.258 122.132 119.171 122.493C119.145 122.61 119.101 122.788 119.08 122.893C119.006 123.193 118.823 123.441 118.584 123.558C118.323 123.685 117.853 123.693 117.218 123.58C116.309 123.419 115.969 122.919 116.148 122.001C116.248 121.496 116.326 121.34 116.722 120.9C117.139 120.431 117.696 119.6 118.062 118.899C118.588 117.881 118.971 116.85 119.702 114.44C120.393 112.183 120.654 111.491 121.429 109.894C122.964 106.727 123.991 103.56 124.435 100.628C124.587 99.6148 124.661 98.7274 124.687 97.605C124.757 94.5816 124.256 91.7192 123.091 88.4435C122.695 87.3298 122.716 87.369 122.334 87.1036C122.147 86.9775 121.99 86.8818 121.977 86.8948C121.964 86.9035 122.151 87.6952 122.39 88.6479C123.443 92.8503 123.743 94.599 123.813 96.8873C123.847 97.9139 123.752 99.4974 123.66 99.4974C123.595 99.4974 122.921 98.8057 122.703 98.5186C122.381 98.0923 122.199 97.6833 122.029 97.0134C121.859 96.3391 121.768 96.1129 121.529 95.7605C121.207 95.2864 120.746 94.9819 120.058 94.7904C119.741 94.6991 119.628 94.6904 118.392 94.6904C117.287 94.6904 116.992 94.7034 116.63 94.7731C115.343 95.008 114.421 95.4691 113.629 96.2608C112.928 96.9656 112.359 97.9183 112.145 98.7361C112.054 99.0885 112.032 99.2755 112.028 99.7366C112.024 100.407 112.054 100.563 112.398 101.629C113.329 104.522 113.577 106.645 113.233 108.785C113.107 109.577 113.176 110.416 113.437 111.234C113.768 112.27 114.225 112.792 114.851 112.844C115.351 112.887 115.726 112.648 116.248 111.943C117.052 110.865 117.583 110.434 119.554 109.251C120.041 108.959 120.602 108.615 120.802 108.485L121.168 108.25L120.863 108.994C120.563 109.729 120.098 110.86 119.319 112.722C118.61 114.423 118.205 115.658 117.979 116.816C117.84 117.551 117.775 117.747 117.54 118.199C117.3 118.651 117.096 118.939 116.5 119.661C116.243 119.97 115.926 120.378 115.795 120.565C115.665 120.753 115.495 120.935 115.421 120.97C115.251 121.057 115.082 121.04 113.933 120.809C110.292 120.083 107.952 118.956 106.142 117.059C105.655 116.55 105.468 116.233 105.355 115.715C105.272 115.328 105.259 113.944 105.316 111.156C105.355 109.146 105.333 108.533 105.168 107.567C105.05 106.897 104.968 106.601 104.428 104.896C103.671 102.495 103.38 101.438 103.101 100.054C102.779 98.4359 102.671 97.3571 102.671 95.7997C102.671 94.8427 102.688 94.5077 102.775 93.8204C102.919 92.6849 102.927 91.3146 102.788 90.7317C102.679 90.2793 102.523 89.8399 102.471 89.8399C102.449 89.8399 102.366 89.8791 102.283 89.9269L102.136 90.0139L102.109 90.723C102.092 91.1102 102.009 92.0933 101.922 92.9068C101.801 94.0553 101.761 94.6469 101.744 95.5691C101.718 96.8612 101.753 97.3788 101.927 98.2793C102.062 98.9493 102.062 99.0145 101.935 99.1929C101.809 99.3886 101.653 99.4713 101.231 99.5844C99.9778 99.9107 99.086 100.881 98.8337 102.181C98.738 102.695 98.7598 103.143 98.9468 104.352C99.4297 107.528 99.5994 109.359 99.5994 111.452C99.5994 112.974 99.8038 113.527 100.482 113.853C100.965 114.084 101.17 114.097 103.04 114.001C103.658 113.971 103.828 114.001 104.058 114.205C104.267 114.393 104.38 114.693 104.428 115.21C104.519 116.18 104.624 118.908 104.624 120.248C104.624 121.462 104.615 121.697 104.55 121.905C104.402 122.375 104.08 122.684 103.641 122.78C103.171 122.875 102.91 122.728 102.51 122.136C101.47 120.596 99.7951 119.191 98.1551 118.495C97.3242 118.138 96.6847 117.968 95.5841 117.807C95.2535 117.76 94.8794 117.681 94.7532 117.633C94.3008 117.464 94.0789 117.103 94.1398 116.629C94.1572 116.502 94.2964 116.011 94.4487 115.541C95.4014 112.578 95.9843 109.599 96.3323 105.849C96.6108 102.878 96.7543 98.9884 96.6456 97.257C96.5238 95.3038 96.415 94.3859 95.7755 90.0313C95.5406 88.4261 95.4928 87.7518 95.5232 86.3597C95.558 84.8154 95.6624 83.7975 95.993 81.792C96.0887 81.2047 96.2018 80.6479 96.2453 80.5478C96.3541 80.3042 96.5455 80.1694 97.011 80.0084C98.1768 79.5951 99.0469 79.0166 100.578 77.6201C100.913 77.3156 101.374 76.9024 101.6 76.7066C102.122 76.2542 102.227 76.1324 102.392 75.8148C102.601 75.4015 102.649 75.0927 102.675 73.9529C102.701 72.8784 102.662 72.0606 102.51 70.4423C102.257 67.6929 102.236 66.514 102.405 64.6652C102.571 62.8251 102.605 62.0725 102.627 59.9148C102.649 57.7266 102.658 57.6831 102.888 57.5308C102.993 57.4656 103.145 57.4482 103.971 57.4221C104.724 57.4003 105.007 57.3742 105.294 57.3046C106.599 56.974 107.556 56.2736 108.626 54.8598C109.757 53.3633 110.336 53.0284 111.154 53.4025ZM140.822 89.9878C141.353 90.2314 141.979 91.0928 142.845 92.7763C144.063 95.1428 144.802 97.7877 145.016 100.541C145.042 100.889 145.133 101.59 145.22 102.103L145.372 103.034L145.298 104.344C145.168 106.775 144.985 108.276 144.598 110.047C144.08 112.431 143.184 114.845 142.101 116.776C141.649 117.581 141.54 117.66 140.574 117.873C138.042 118.434 136.637 119.4 135.663 121.244C135.397 121.749 135.262 121.884 135.071 121.84C134.767 121.775 133.862 120.957 133.418 120.357C132.513 119.13 132.222 117.703 132.526 116.024C132.848 114.258 133.344 113.457 134.597 112.679C135.423 112.165 135.932 111.626 136.311 110.869C136.628 110.234 136.75 109.751 136.863 108.75C136.981 107.632 137.198 106.858 137.833 105.27C138.268 104.183 138.347 103.674 138.208 102.869C137.977 101.546 137.003 100.433 135.719 100.019C135.497 99.9498 135.175 99.8759 135.006 99.8628C134.488 99.8106 134.51 99.8672 134.51 98.5969C134.51 97.9879 134.536 97.3179 134.566 97.0613C134.932 94.0727 136.172 91.8497 138.125 90.6664C138.695 90.3184 139.569 89.9487 140.013 89.866C140.23 89.8269 140.583 89.8791 140.822 89.9878ZM94.6314 118.425C95.7277 118.543 96.8979 118.886 97.9376 119.4C99.0121 119.93 99.8038 120.5 100.6 121.318C101.026 121.757 101.513 122.349 101.513 122.427C101.513 122.467 99.1252 123.263 98.7293 123.358C98.0202 123.519 97.7027 123.406 97.446 122.889C97.3068 122.597 97.111 121.931 96.9892 121.318C96.9196 120.979 96.8022 120.857 96.5368 120.857C96.2062 120.857 96.1192 121.022 96.1192 121.662C96.1192 121.827 96.1583 122.132 96.2062 122.336C96.3759 123.08 96.3019 123.341 95.8669 123.545C95.645 123.65 95.5667 123.663 95.1621 123.663C94.7489 123.658 94.6749 123.645 94.3965 123.528C94.2268 123.454 93.9745 123.319 93.831 123.228C93.4743 122.993 92.8696 122.371 92.6695 122.032L92.5042 121.749L92.5303 121.344C92.5607 120.861 92.539 120.813 92.2605 120.813C92.0256 120.813 91.7907 120.905 91.7298 121.022C91.6167 121.231 91.7385 121.971 92.0039 122.714C92.0387 122.819 92.0604 122.902 92.0474 122.902C91.9908 122.902 90.7554 121.831 90.6205 121.666C90.5335 121.566 90.4117 121.366 90.3465 121.222C90.2377 120.992 90.2246 120.918 90.2246 120.509C90.2246 120.065 90.229 120.035 90.39 119.717C90.5683 119.352 90.8598 119.052 91.2034 118.878C91.5819 118.686 92.4041 118.482 93.074 118.408C93.409 118.373 94.2312 118.382 94.6314 118.425ZM142.593 118.551C143.65 118.756 144.446 119.052 144.994 119.439C145.368 119.708 145.773 120.161 145.942 120.505C146.06 120.744 146.081 120.84 146.081 121.096C146.081 121.475 145.973 121.71 145.651 122.027C145.159 122.51 144.572 122.641 143.676 122.462C143.328 122.393 143.302 122.332 143.341 121.627C143.367 121.096 143.363 121.044 143.289 120.948C143.228 120.874 143.149 120.84 142.988 120.826C142.714 120.8 142.606 120.883 142.301 121.353C142.04 121.757 141.875 121.91 141.535 122.071C141.318 122.171 141.235 122.184 140.687 122.197C140 122.21 139.869 122.175 139.848 121.975C139.839 121.905 139.865 121.762 139.9 121.653C140.043 121.231 139.952 120.931 139.643 120.813C139.321 120.692 139.104 120.826 138.856 121.296C138.756 121.483 138.608 121.679 138.46 121.814C138.129 122.114 137.825 122.206 137.146 122.201C136.868 122.201 136.568 122.188 136.48 122.171L136.32 122.14L136.441 121.831C136.829 120.844 138.025 119.704 139.334 119.073C140.487 118.521 141.553 118.351 142.593 118.551Z" fill="white"/>
<path d="M133.618 104.752C133.67 103.974 133.675 102.029 133.618 101.259C133.788 101.272 135.497 99.9498 135.719 100.019C137.002 100.433 137.977 101.546 138.207 102.869C138.347 103.674 138.268 104.183 137.833 105.27C137.198 106.858 136.981 107.632 136.863 108.75C136.75 109.751 136.628 110.234 136.311 110.869C135.932 111.626 133.096 113.014 132.269 113.527C132.739 111.674 132.813 111.295 133.113 109.09C133.383 107.145 133.548 105.705 133.618 104.752Z" fill="#DAFDA0"/>
<path d="M123.66 99.4965C123.752 99.4965 121.203 109.276 121.168 108.249L120.802 108.484C120.602 108.615 120.041 108.958 119.554 109.25C117.583 110.433 117.052 110.864 116.248 111.942C115.726 112.647 115.352 112.886 114.851 112.843C114.225 112.791 113.768 112.269 113.437 111.233C113.176 110.416 113.107 109.576 113.233 108.784C113.577 106.644 113.329 104.521 112.398 101.628C112.054 100.562 112.024 100.406 112.028 99.7357C112.032 99.2746 112.054 99.0875 112.145 98.7352C112.359 97.9173 112.928 96.9646 113.629 96.2599C114.421 95.4682 115.343 95.007 116.63 94.7721C116.992 94.7025 117.287 94.6895 118.392 94.6895C119.628 94.6895 119.741 94.6982 120.058 94.7895C120.746 94.9809 121.207 95.2854 121.529 95.7596C121.768 96.112 121.859 96.3382 122.029 97.0125C122.199 97.6824 122.381 98.0913 122.703 98.5177C122.921 98.8048 123.595 99.4965 123.66 99.4965Z" fill="#DAFDA0"/>
<path d="M109.888 43.5719C109.131 43.7198 108.635 44.0287 108.4 44.4855C108.252 44.7769 108.217 45.2468 108.317 45.6426C108.591 46.7476 110.318 49.0445 111.193 49.4752C111.441 49.597 111.558 49.6274 111.832 49.6405C112.137 49.6535 112.198 49.6405 112.459 49.5187C113.046 49.2446 113.807 48.2919 114.394 47.1C114.734 46.4083 114.843 45.9776 114.816 45.4208C114.799 45.051 114.777 44.9597 114.638 44.6682C114.373 44.1114 113.925 43.772 113.237 43.6154C112.811 43.5154 110.336 43.4849 109.888 43.5719Z" fill="#DAFDA0"/>
<path d="M119.045 40.2946C118.283 40.4208 117.722 40.9776 117.627 41.6998C117.596 41.9347 117.709 42.4654 117.857 42.7699C118.027 43.1179 118.423 43.5181 118.749 43.6617C119.593 44.0402 120.802 43.6312 121.211 42.8308C121.59 42.0913 121.477 41.3648 120.898 40.821C120.372 40.3251 119.823 40.1685 119.045 40.2946ZM119.567 41.6606C119.697 41.7302 119.81 41.8955 119.828 42.0521C119.85 42.2522 119.819 42.3436 119.68 42.5002C119.545 42.6437 119.506 42.6611 119.319 42.6611C119.058 42.6611 118.888 42.5567 118.797 42.3479C118.71 42.1304 118.758 41.9173 118.936 41.7389C119.053 41.6214 119.114 41.5953 119.258 41.5953C119.358 41.5953 119.497 41.6258 119.567 41.6606Z" fill="#DAFDA0"/>
<path d="M104.393 39.4418C103.684 39.5984 103.258 40.103 103.219 40.8382C103.18 41.5951 103.558 42.2999 104.145 42.5522C104.933 42.8872 105.999 42.6653 106.403 42.078C106.647 41.7213 106.712 41.5168 106.708 41.0514C106.708 40.3336 106.49 39.9508 105.916 39.6463C105.442 39.3939 104.937 39.3243 104.393 39.4418ZM105.089 40.6686C105.272 40.8556 105.302 41.1253 105.159 41.3341C105.02 41.5386 104.885 41.6038 104.646 41.5777C104.493 41.5647 104.424 41.5299 104.311 41.4037C104.193 41.2732 104.167 41.2123 104.167 41.047C104.167 40.8687 104.189 40.8252 104.341 40.6729C104.506 40.5032 104.524 40.4989 104.737 40.5163C104.907 40.5337 104.989 40.5685 105.089 40.6686Z" fill="#DAFDA0"/>
<path d="M105.533 67.779C105.046 68.0009 104.463 69.1276 104.272 70.2195C104.159 70.872 104.176 71.6768 104.337 72.8731C104.411 73.4343 104.502 74.1956 104.537 74.5653C104.611 75.344 104.624 76.7361 104.559 77.2668C104.415 78.4153 104.063 79.4724 103.519 80.3685C103.219 80.8688 103.123 81.1777 103.123 81.6475C103.128 82.3348 103.38 82.8699 103.993 83.4876C104.585 84.0836 105.094 84.2881 106.299 84.4229C107.069 84.5056 107.591 84.5056 108.265 84.4186C110.397 84.1445 112.002 83.1614 112.65 81.7301C112.811 81.3778 112.902 81.0167 112.976 80.4468C113.229 78.511 112.989 76.71 112.28 75.244C111.684 74.0128 110.862 73.095 109.509 72.1553C108.852 71.6985 108.474 71.3897 108.078 70.9764C107.412 70.2717 107.151 69.7366 106.912 68.5577C106.882 68.4228 106.799 68.2271 106.729 68.1183C106.482 67.7442 105.946 67.5919 105.533 67.779Z" fill="#DAFDA0"/>
</g>
</g>
<defs>
<filter id="filter0_f_17_2242" x="37.7959" y="-1.34082" width="156" height="156" filterUnits="userSpaceOnUse" color-interpolation-filters="sRGB">
<feFlood flood-opacity="0" result="BackgroundImageFix"/>
<feBlend mode="normal" in="SourceGraphic" in2="BackgroundImageFix" result="shape"/>
<feGaussianBlur stdDeviation="7" result="effect1_foregroundBlur_17_2242"/>
</filter>
</defs>
</svg>
