<svg width="181" height="181" viewBox="0 0 181 181" fill="none" xmlns="http://www.w3.org/2000/svg">
<circle cx="90.4097" cy="90.2373" r="88.5" stroke="white" stroke-width="3"/>
<path d="M93.5795 22.8544C93.0529 23.0397 92.6287 23.3907 92.1265 24.0685C91.8145 24.4829 91.3854 24.8535 91.0149 25.0387C90.7223 25.1801 90.6394 25.1996 90.2932 25.1996C89.6691 25.1948 89.323 25.0534 88.3576 24.4098C87.6603 23.9466 87.1971 23.7174 86.6316 23.5565C86.3098 23.4639 86.1342 23.4444 85.5638 23.4444C84.9494 23.4492 84.8422 23.459 84.496 23.5809C83.8085 23.8198 83.4331 24.1075 82.887 24.7998C82.5262 25.263 81.9167 25.8676 81.5754 26.0968C81.2536 26.3162 80.6539 26.6087 80.2736 26.7258C79.7129 26.9062 79.1278 26.9842 78.0161 27.0281C76.9239 27.0671 76.6948 27.1012 76.1194 27.3206C75.51 27.5498 74.8664 28.1056 74.6372 28.6127C74.4617 28.993 74.4276 29.2904 74.5007 29.7926C74.7396 31.3821 74.3593 32.1427 72.8186 33.1617C71.9068 33.7663 71.4582 34.132 71.0877 34.566C70.488 35.2681 70.2588 35.7898 70.2539 36.4382C70.2539 36.8966 70.21 36.7747 70.7903 37.8961C70.9853 38.2667 71.034 38.4081 71.0487 38.6518C71.0779 39.1735 70.8634 39.3637 69.8736 39.7148C69.5762 39.8171 69.1861 39.9829 69.0106 40.0707C67.9623 40.6265 65.3489 43.04 63.7984 44.8977C61.9603 47.0966 60.1904 49.7685 58.2498 53.2596C57.2162 55.1221 55.7729 57.8428 55.6267 58.2085C55.4512 58.6522 55.3098 59.3396 55.3098 59.7687C55.3146 60.6951 55.6852 61.7288 56.3044 62.5479C56.4263 62.7088 56.6993 63.0647 56.909 63.3377C57.9719 64.7273 58.323 65.917 58.0646 67.2676C57.8988 68.1404 57.8354 68.8717 57.811 70.3003C57.7574 73.138 57.967 74.1132 58.791 74.9372C59.3469 75.4881 59.9515 75.7709 61.0534 75.9806C62.1602 76.1902 62.6039 76.395 63.1597 76.9557C63.4425 77.2385 63.6278 77.492 63.9788 78.0869C65.4367 80.5638 66.8409 81.6267 69.0691 81.9582C69.5128 82.0216 69.8102 82.0314 70.5708 82.007C71.0925 81.9875 71.6386 81.9582 71.7849 81.9339L72.0433 81.8948L72.1262 82.0704C72.2188 82.28 72.2237 82.8456 72.1603 85.7564C72.0677 89.8569 72.4188 92.7044 73.389 95.781C73.7011 96.7561 73.7645 97.1218 73.7596 97.897C73.7547 98.5748 73.7255 98.7308 73.428 99.6962C72.6723 102.158 72.7649 104.543 73.7401 107.483C74.096 108.555 74.174 109.136 74.0814 109.989C74.0521 110.277 73.9644 110.759 73.8864 111.057C73.8132 111.354 73.6036 112.251 73.4232 113.051C73.2476 113.85 73.0282 114.767 72.9356 115.079C72.5455 116.44 71.9994 117.522 71.273 118.375C70.7659 118.975 70.722 119.16 70.5465 121.179C70.2442 124.723 69.9565 126.566 69.425 128.336C69.0399 129.628 68.406 131.057 67.7624 132.076C66.953 133.358 66.5825 134.348 66.3777 135.757C66.3289 136.118 66.2266 137.118 66.1583 137.976C65.9486 140.633 65.8414 141.525 65.5878 142.754C65.266 144.304 65.4123 145.621 66.0461 146.893C66.5727 147.961 67.4309 148.863 68.4548 149.439C69.2251 149.868 71.2388 150.667 72.3944 150.999C73.8668 151.423 75.0663 151.584 76.49 151.54C77.4749 151.511 77.9283 151.447 78.9571 151.213C79.3764 151.116 79.6154 151.101 81.3706 151.072C83.4574 151.033 83.8621 151.052 84.1791 151.213C84.6081 151.433 84.6715 152.042 84.3692 153.066C84.0669 154.1 84.0084 154.782 84.1693 155.421C84.2912 155.894 84.3741 156.05 84.6715 156.367C84.9982 156.708 85.281 156.884 85.8076 157.059C86.5535 157.308 87.0557 157.376 88.1235 157.376C91.0685 157.371 93.9403 156.499 98.7868 154.134C100.137 153.476 101.01 152.808 101.532 152.032C101.654 151.852 101.766 151.701 101.785 151.701C101.839 151.701 103.287 152.544 103.628 152.774C103.794 152.886 104.218 153.295 104.628 153.744C105.681 154.895 106.534 155.611 107.588 156.24C109.187 157.191 110.84 157.644 113.024 157.727C114.921 157.8 115.954 157.474 116.496 156.635C116.808 156.143 116.959 155.509 117.037 154.348C117.139 152.837 117.363 151.813 117.827 150.75C118.553 149.097 119.816 147.722 121.62 146.63C123.975 145.202 125.038 143.597 125.379 140.974C125.457 140.384 125.457 137.552 125.379 136.391C125.238 134.29 125.009 132.525 124.643 130.735C124.511 130.106 124.287 129.009 124.141 128.297C123.429 124.85 122.931 121.588 122.059 114.582C121.313 108.629 120.971 106.166 120.669 104.504C119.899 100.291 118.782 96.2881 116.715 90.3055C115.945 88.0675 115.857 87.6336 116.042 86.9949C116.179 86.5268 116.437 86.1855 117.402 85.1957C118.977 83.5721 119.704 82.4946 120.147 81.0952C120.377 80.3882 120.459 79.8129 120.459 79.0035C120.455 78.2088 120.396 77.809 120.108 76.6729C119.596 74.6495 119.514 73.1673 119.816 71.4461C120.03 70.2369 120.113 69.3154 120.143 67.8137C120.191 65.1223 119.904 63.0696 119.08 60.2075C118.236 57.2918 117.129 54.576 115.203 50.7242C114.487 49.2956 114.194 48.7641 113.716 48.0425C113.102 47.1064 112.712 46.375 112.571 45.8728C112.512 45.6632 112.483 45.356 112.473 44.8002C112.463 44.3711 112.449 43.9323 112.429 43.8299C112.351 43.3277 111.825 42.689 111.015 42.1282C110.503 41.7723 110.289 41.5139 110.216 41.158C110.138 40.8118 110.181 40.568 110.459 39.8123C110.83 38.8079 110.947 38.369 110.976 37.8522C111.044 36.6723 110.518 36.0238 108.733 35.1169C108.036 34.761 107.9 34.6684 107.763 34.4489C107.641 34.249 107.656 33.9906 107.841 33.3909C108.192 32.2402 107.773 31.5966 106.442 31.2456C105.53 31.0067 105.169 31.031 103.789 31.4211C103.311 31.5527 102.819 31.6795 102.697 31.6941C102.478 31.7185 102.473 31.7185 102.439 31.5625C102.356 31.1432 102.458 30.8019 102.765 30.4606C103.082 30.1047 103.497 29.4903 103.682 29.0954C103.945 28.5395 104.033 28.13 104.004 27.5888C103.965 26.8379 103.648 26.1797 102.995 25.4971C102.146 24.6048 101.195 24.166 100.035 24.1172C99.367 24.088 99.0647 24.1319 98.387 24.3561C98.0847 24.4585 97.8409 24.5024 97.6069 24.5073C97.1144 24.517 96.8901 24.3903 96.3148 23.7954C96.0613 23.5273 95.7199 23.225 95.5639 23.1226C94.9691 22.7325 94.2133 22.6301 93.5795 22.8544ZM95.0568 24.088C95.442 24.2733 95.6468 24.4439 95.8175 24.7316C95.9394 24.9364 95.9491 24.9997 95.9491 25.4434C95.9491 25.8822 95.9296 25.9749 95.7882 26.3308C95.6078 26.7745 95.5883 26.9452 95.6809 27.1694C95.7346 27.3011 95.7687 27.3206 95.9247 27.3206C96.2368 27.3206 96.4952 27.1353 96.8999 26.6331C97.8263 25.4824 99.1183 24.9412 100.332 25.1996C101.005 25.341 101.673 25.7457 102.234 26.3503C102.8 26.9647 102.999 27.579 102.824 28.1787C102.717 28.5542 102.575 28.7882 102.122 29.344C101.405 30.2265 101.127 30.8458 101.122 31.5869C101.117 32.1037 101.21 32.3524 101.542 32.6742C101.912 33.0447 102.366 33.1081 103.048 32.9033C103.828 32.6644 103.95 32.6352 104.643 32.5133C105.852 32.3036 106.227 32.3572 106.447 32.7814C106.573 33.035 106.578 33.1959 106.476 33.781C106.383 34.2978 106.412 34.6781 106.559 35.0243C106.71 35.3802 107.168 35.7849 107.705 36.0433C108.494 36.4236 108.724 36.5455 108.958 36.7357C109.86 37.4524 109.928 38.3495 109.167 39.5977C109.075 39.7538 108.938 40.0512 108.87 40.2657C108.753 40.6021 108.738 40.7143 108.758 41.0995C108.772 41.4993 108.797 41.587 108.967 41.9283C109.114 42.2306 109.236 42.3915 109.543 42.6792C110.562 43.6397 110.771 43.8738 110.927 44.1907C111.132 44.6149 111.249 45.0732 111.254 45.4633C111.254 45.8631 111.166 46.0142 110.859 46.1507C110.654 46.2385 110.576 46.2483 109.918 46.2141C108.875 46.1654 108.412 46.3019 107.973 46.7895C107.11 47.7597 106.534 48.2083 105.018 49.0957C103.867 49.7734 103.214 50.2074 102.678 50.6462C102.244 51.0021 102 51.1045 101.761 51.0216C101.678 50.9924 101.381 50.8266 101.098 50.6559C99.9326 49.9636 98.9965 49.6857 97.8019 49.6905C96.4659 49.6905 95.0178 50.183 93.6331 51.1045C91.8974 52.2649 91.0051 53.6399 90.7516 55.5707C90.6687 56.224 90.7223 57.6429 90.8735 58.696C91.0149 59.7004 91.1611 61.0657 91.2538 62.231C91.3513 63.4645 91.3367 66.6289 91.2294 67.6918C91.0295 69.6762 90.6638 71.49 90.2445 72.5675C89.3766 74.825 87.8846 76.0586 85.6467 76.3755C85.1054 76.4486 83.3941 76.4048 82.9455 76.3024C81.8338 76.0439 80.9854 75.5759 80.1712 74.7665C79.0741 73.6743 78.4744 72.3091 78.3233 70.5685C78.1478 68.5255 78.9084 66.5362 80.6783 64.425C80.9562 64.0886 81.7558 63.2256 82.4482 62.4991C84.0572 60.8267 84.4716 60.383 85.0372 59.7199C86.8802 57.5795 87.8895 55.7267 88.2796 53.7959C88.4356 53.006 88.4356 51.6213 88.2796 50.8851C87.9821 49.5052 87.3922 48.418 86.4609 47.5257C85.7783 46.8723 85.0421 46.4433 84.1254 46.1507C81.9557 45.4584 80.1566 45.8289 78.6305 47.277L78.2745 47.6135L78.177 47.5013C77.9283 47.2088 77.5042 46.5164 77.1092 45.7656C76.0853 43.8201 75.7294 43.2935 75.0858 42.7816C74.5153 42.3281 74.2228 42.0307 74.1058 41.8016C74.0375 41.6699 73.9546 41.3237 73.8864 40.9239C73.6767 39.6416 73.3939 38.8322 72.9551 38.2569C72.7064 37.9254 72.2286 37.5353 71.819 37.3208C71.312 37.0575 71.2925 36.8673 71.6971 36.0092C72.1993 34.9365 72.6284 34.4684 73.506 34.0199C74.6616 33.4299 75.2613 32.8156 75.5539 31.9282C75.6465 31.6405 75.666 31.4845 75.6611 30.953C75.6611 30.602 75.6416 30.0754 75.6221 29.7829C75.5831 29.2855 75.588 29.2319 75.6855 29.0222C75.8123 28.7589 75.978 28.5883 76.2608 28.442C76.6607 28.2372 76.9386 28.1934 78.1526 28.1495C79.3472 28.1105 79.8884 28.0422 80.4881 27.8569C81.7168 27.4766 82.7797 26.7355 83.6525 25.6482C84.3497 24.7803 84.6813 24.5755 85.4467 24.5512C85.7685 24.5365 86.0172 24.556 86.2269 24.6097C86.6511 24.7169 87.3239 25.0485 87.9821 25.4727C88.9329 26.0822 89.6253 26.3454 90.2737 26.3454C91.1124 26.3454 91.8779 25.9213 92.6043 25.0583C93.3893 24.1221 93.7599 23.8881 94.423 23.9271C94.6522 23.9368 94.8326 23.9856 95.0568 24.088ZM72.4968 39.7391C72.604 40.3827 72.9453 41.3286 73.3256 42.021C73.6426 42.6061 74.5104 43.9079 75.2467 44.8977C76.6411 46.7797 77.1238 47.7012 77.3238 48.8617C77.4164 49.3931 77.4164 50.1879 77.3189 50.7729C77.08 52.26 77.4408 53.3717 78.5134 54.4298C79.6641 55.5756 81.3365 56.2338 83.082 56.2338C84.1352 56.2338 84.886 56.0485 86.0611 55.5073C86.417 55.3415 86.7144 55.2099 86.7291 55.2099C86.773 55.2099 86.1781 56.3801 85.8514 56.9456C85.0421 58.3547 84.5642 58.9301 82.6724 60.7926C80.5808 62.8502 79.747 63.8058 79.0449 64.9419C78.4208 65.9511 78.1868 66.5557 77.7138 68.3744C77.5432 69.0326 77.3238 69.8225 77.2262 70.1297C77.0068 70.8318 76.7972 71.6607 76.4461 73.2404C76.0171 75.1858 75.7245 76.1073 75.2223 77.1215C74.2472 79.0864 72.7796 80.3297 71.0145 80.6857C70.4002 80.8124 69.2836 80.7685 68.7181 80.5979C68.1817 80.437 67.8014 80.2663 67.4065 80.0079C66.6166 79.496 66.1388 78.9694 65.5391 77.9699C64.2568 75.8148 63.0037 74.8738 61.1314 74.6641C60.3952 74.5861 59.9466 74.3423 59.6345 73.8694C59.2932 73.3477 59.1031 72.6699 59.0056 71.646C58.9471 71.0024 59.0056 70.1004 59.1616 69.2033C59.4785 67.3992 59.4834 66.1559 59.186 64.976C58.9373 63.9911 58.5521 63.2695 57.7964 62.3528C56.9773 61.3631 56.675 60.6317 56.6701 59.6663C56.6701 59.0763 56.792 58.4913 57.0309 57.9744C57.2308 57.5405 59.1713 54.1421 60.1416 52.5233C62.6819 48.2863 64.6078 45.6875 67.0603 43.196C68.4987 41.7333 68.8156 41.5042 70.8439 40.451C71.4095 40.1536 71.9897 39.8366 72.136 39.7391C72.2822 39.6465 72.4139 39.5636 72.4334 39.5636C72.4529 39.5587 72.4821 39.6416 72.4968 39.7391ZM83.4526 47.1356C85.7052 47.7061 87.3044 49.7295 87.2361 51.9187C87.2215 52.421 87.2069 52.4795 87.0362 52.8403C86.6169 53.7228 85.6125 54.4249 84.2814 54.7759C83.7939 54.9027 82.5749 54.9563 82.0484 54.8686C80.3077 54.5907 78.8742 53.3376 78.4939 51.7627C78.3867 51.3239 78.4159 50.2805 78.5427 49.7978C78.7182 49.1396 79.1424 48.3985 79.5763 47.984C80.0639 47.5208 80.7465 47.1746 81.4291 47.043C81.9703 46.9406 82.8431 46.9796 83.4526 47.1356ZM110.601 47.5062C111.308 47.6183 112.151 48.179 112.795 48.9592C113.121 49.359 113.214 49.5199 113.828 50.851C115.745 54.9661 116.53 56.8384 117.285 59.1105C118.217 61.8945 118.724 64.4299 118.889 67.1262C118.938 67.9161 118.933 67.9697 118.821 68.5158C118.426 70.3783 118.412 72.0946 118.748 76.4194C118.943 78.9791 118.972 79.8665 118.87 80.4906C118.456 82.9968 116.432 85.0397 113.794 85.6199C113.2 85.7467 112.18 85.7613 111.43 85.6443C110.386 85.4834 110.347 85.4834 107.992 85.4395C105.671 85.3908 105.374 85.3664 104.584 85.1518C104.374 85.0933 103.999 84.9617 103.755 84.8544C102.936 84.5082 102.375 84.4839 101.503 84.7667C101.088 84.8983 100.947 84.9227 100.484 84.9227C99.9911 84.9276 99.9277 84.9178 99.7034 84.7959C99.133 84.4936 98.8258 83.9719 98.4601 82.6847C98.0652 81.3098 97.4703 80.1786 96.11 78.2039C95.0861 76.7168 94.9106 76.317 94.8667 75.3467C94.8374 74.6641 94.9155 74.1863 95.1982 73.3623C95.6517 72.0361 96.3197 70.471 97.4606 68.0623C98.1432 66.6143 98.4601 65.8488 98.7185 65.0248C99.1964 63.523 99.3036 62.1286 99.0452 60.8121C98.9184 60.1588 98.9233 60.0564 99.0696 59.7638C99.2012 59.5005 99.4206 59.3153 99.8741 59.0861C100.02 59.013 100.318 58.8374 100.532 58.696C101.771 57.8964 102.478 56.9261 102.78 55.6243C102.902 55.1026 102.907 53.9276 102.785 53.2157C102.683 52.6306 102.707 52.3771 102.887 52.0016C103.121 51.5189 103.575 51.2069 104.701 50.7486C105.969 50.2269 106.622 49.8124 107.544 48.925C108.299 48.2034 108.47 48.062 108.894 47.8329C109.474 47.5159 110.006 47.4136 110.601 47.5062ZM99.0696 50.9387C99.4743 51.0509 100.084 51.3483 100.445 51.6164C101 52.0309 101.468 52.7037 101.688 53.4059C101.849 53.9373 101.849 54.9271 101.688 55.4537C101.327 56.5995 100.566 57.4771 99.4596 58.0134C98.7575 58.3547 98.3724 58.4376 97.5337 58.4376C95.8808 58.4376 93.9452 57.7843 92.7311 56.8189C91.7365 56.029 91.5268 55.2976 92.0046 54.2884C92.2435 53.7764 92.5312 53.3912 93.0432 52.9085C94.1207 51.8797 95.7053 51.1094 97.2168 50.8753C97.641 50.8071 98.7234 50.8461 99.0696 50.9387ZM93.5112 58.5693C95.0812 59.1885 95.8126 59.4225 96.6415 59.5785C97.012 59.6468 97.3972 59.7248 97.4996 59.7492C97.7531 59.8175 98.0018 60.0807 98.0944 60.3879C98.2407 60.8804 98.1578 62.3431 97.9189 63.4304C97.6459 64.7078 97.3241 65.5611 96.4367 67.3749C95.2373 69.8322 94.657 71.1341 94.1695 72.47C93.5259 74.2448 93.4088 75.4735 93.7599 76.7022C93.9305 77.3019 94.1841 77.8138 94.696 78.5696C95.8175 80.2371 96.622 81.812 97.3875 83.8305C97.7726 84.8495 97.9774 85.2396 98.3236 85.6102C99.0062 86.3464 100.045 86.4585 101.571 85.9758C102.214 85.7662 102.39 85.7808 102.999 86.0734C103.872 86.4878 104.901 86.7657 106.066 86.9022C106.32 86.9315 107.607 86.9754 108.919 86.9998C111.464 87.0436 112.117 87.0924 113.112 87.3167C113.736 87.4581 114.326 87.7262 114.648 88.0139C115.004 88.326 115.121 88.599 115.281 89.4718C115.53 90.8077 115.847 91.7682 116.822 94.1427C117.797 96.527 118.114 97.5119 118.329 98.8624C118.763 101.554 119.099 103.553 119.548 106.113C120.245 110.106 120.367 110.808 120.616 112.402C121.045 115.133 121.357 117.61 121.571 120.057C121.761 122.178 121.912 123.227 122.595 126.981C123.351 131.12 123.414 131.564 123.76 134.977C124.136 138.634 124.219 139.936 124.146 140.999C124.033 142.642 123.107 144.08 121.352 145.338C119.699 146.523 119.041 147.045 118.295 147.742L117.973 148.049L117.919 147.888C117.812 147.542 117.622 146.723 117.505 146.094C117.285 144.899 117.212 144.109 117.217 142.851C117.217 141.584 117.256 141.096 117.476 139.828C117.807 137.898 117.802 137.035 117.451 133.661C117.359 132.773 117.315 131.969 117.281 130.54C117.246 129.321 117.188 128.097 117.11 127.2C117.046 126.42 116.915 124.592 116.817 123.129C116.398 116.644 116.081 114.133 115.311 111.115C115.125 110.384 114.618 108.941 114.506 108.828C114.453 108.775 114.165 109.111 114.072 109.326C113.955 109.613 113.98 109.94 114.175 110.535C114.628 111.959 114.696 112.583 114.843 116.839C114.896 118.453 114.955 118.985 115.233 120.35C115.667 122.505 115.823 124.085 115.915 127.298C116.071 132.622 116.091 133.051 116.237 134.514C116.32 135.357 116.466 136.381 116.583 136.976C116.681 137.469 116.691 138.59 116.603 139.219C116.569 139.448 116.471 140.063 116.378 140.584C116.076 142.3 116.057 142.925 116.257 144.89C116.574 147.961 116.486 150.799 115.988 153.895C115.725 155.494 115.486 156.074 114.969 156.343C114.677 156.499 114.028 156.484 113.258 156.313C112.936 156.24 112.658 156.162 112.639 156.148C112.619 156.128 112.692 155.86 112.8 155.548C113.224 154.295 113.229 153.159 112.814 151.837C112.746 151.628 112.678 151.457 112.653 151.457C112.58 151.457 112.219 151.74 112.127 151.881C111.961 152.11 111.927 152.32 111.873 153.383C111.839 153.944 111.81 154.573 111.795 154.773C111.786 154.973 111.751 155.216 111.722 155.314C111.61 155.699 111.313 155.987 110.923 156.094C110.62 156.177 109.806 156.123 109.431 155.996C108.519 155.684 107.787 154.982 107.446 154.1C107.246 153.573 107.241 153.047 107.431 151.945C107.612 150.906 107.68 149.721 107.583 149.253C107.441 148.585 106.973 148.381 106.632 148.839C106.539 148.961 106.525 149.073 106.495 149.814C106.471 150.575 106.447 150.731 106.266 151.457C106.154 151.901 106.052 152.408 106.037 152.588C106.008 152.886 105.993 152.92 105.901 152.92C105.701 152.915 105.379 152.725 105.028 152.398C104.828 152.218 104.316 151.808 103.882 151.486C103.029 150.862 102.59 150.438 102.405 150.063C102.312 149.877 102.283 149.726 102.273 149.38C102.249 148.839 102.356 148.376 102.819 146.932C103.282 145.494 103.36 145.065 103.36 143.9C103.36 143.081 103.346 142.881 103.248 142.442C103.048 141.55 102.658 140.613 102.161 139.828C101.859 139.346 101.722 139.009 101.693 138.644C101.659 138.215 101.741 137.917 102.112 137.205C102.77 135.918 103.146 134.402 103.282 132.442C103.311 132.052 103.355 131.393 103.385 130.979C103.414 130.565 103.511 129.531 103.604 128.687C103.877 126.215 103.882 126.084 103.897 123.763C103.906 121.515 103.926 121.237 104.135 119.789C104.248 118.999 104.272 118.458 104.214 117.888C104.067 116.42 103.546 115.118 102.565 113.768C102.171 113.226 101.629 112.597 101.556 112.597C101.464 112.597 101.205 112.924 101.176 113.075C101.142 113.246 101.2 113.378 101.527 113.89C102.244 114.996 102.668 116.137 102.882 117.522C103.019 118.409 102.999 120.096 102.834 121.666C102.624 123.675 102.517 125.528 102.409 129.175C102.331 131.764 102.268 132.276 101.678 135.294C101.468 136.367 101.278 137.347 101.264 137.473C101.244 137.605 101.21 137.708 101.191 137.708C101.074 137.708 99.996 135.957 99.4938 134.948C98.7429 133.446 98.3236 132.291 97.6556 129.858C97.1388 127.99 96.8121 126.971 96.3148 125.684C95.2129 122.856 94.735 120.847 94.0768 116.23C93.8038 114.338 93.6234 113.758 93.087 113.066C92.8725 112.783 92.1314 112.129 92.0875 112.178C92.0778 112.188 92.1607 112.632 92.2679 113.163C92.3752 113.699 92.6824 115.318 92.9505 116.766C93.7745 121.252 94.2231 123.29 94.8277 125.265C95.13 126.264 96.149 129.214 96.8121 131.028C98.2553 134.958 99.64 138.01 101.103 140.477C101.659 141.413 101.907 141.896 102.049 142.305C102.19 142.71 102.312 143.446 102.312 143.875C102.312 144.29 102.19 145.021 102.044 145.509C101.712 146.616 101.551 147.264 101.259 148.702C100.878 150.599 100.8 150.887 100.552 151.36C100.152 152.135 99.3621 152.837 98.5138 153.173C98.1237 153.329 97.3436 153.334 97.1924 153.183C97.0315 153.027 96.9974 152.764 97.051 152.164C97.0803 151.872 97.09 151.477 97.0705 151.296C97.0559 151.106 97.0657 150.775 97.0949 150.541C97.168 150.024 97.1242 149.877 96.8755 149.775C96.661 149.682 96.4903 149.682 96.2904 149.78C96.0174 149.907 95.9637 150.097 95.915 151.091C95.8662 152.145 95.7785 152.739 95.5786 153.334C95.1885 154.5 94.4279 155.231 93.2918 155.538C92.8238 155.67 91.2976 155.665 91.0392 155.538C90.6687 155.353 90.6833 155.465 90.6687 152.856C90.6638 151.579 90.6443 150.531 90.6248 150.531C90.6102 150.531 90.4931 150.609 90.3664 150.701C89.8642 151.072 89.5814 151.511 89.4985 152.067C89.4741 152.228 89.4644 152.832 89.4741 153.407C89.5131 155.099 89.3522 155.787 88.8646 156.079C88.6452 156.206 88.6111 156.211 88.0016 156.206C86.968 156.196 85.9928 155.957 85.6467 155.636C85.2858 155.304 85.2663 154.846 85.554 153.832C85.7783 153.047 85.8758 152.408 85.9148 151.482C85.9636 150.219 85.8222 148.995 85.3639 146.776C84.7056 143.588 84.5984 142.944 84.5155 141.691C84.4813 141.155 84.4862 140.691 84.5204 140.18C84.5935 139.18 84.5837 138.897 84.4618 138.507C84.3302 138.073 84.1205 137.669 83.5647 136.728C79.708 130.257 77.3969 124.953 76.1536 119.736C75.9293 118.799 75.7343 118.209 75.1492 116.717C74.4958 115.05 74.4519 114.855 74.4471 113.914C74.4471 113.105 74.4617 113.036 74.764 112.285C75.1345 111.349 75.3393 110.135 75.2808 109.165C75.2321 108.248 75.0614 107.473 74.686 106.42C74.2082 105.064 74.057 104.25 74.057 102.968C74.057 101.876 74.1106 101.525 74.4081 100.559C74.7104 99.5743 74.7689 99.272 74.7981 98.409C74.8322 97.3753 74.725 96.5952 74.3447 95.113C74.1935 94.523 73.9741 93.6844 73.862 93.2407C73.4573 91.6853 73.3061 90.4128 73.2915 88.4625C73.2671 86.0685 73.3354 81.2708 73.389 81.1684C73.4183 81.1196 73.7547 80.7685 74.135 80.3931C75.6026 78.9401 76.5241 77.5408 77.0458 75.9562C77.3286 75.1078 77.5432 73.9376 77.5432 73.255V72.9869L77.8503 73.5086C79.1619 75.7709 80.7368 76.9801 82.9309 77.4287C83.2868 77.5018 83.5988 77.5164 84.5886 77.5164C85.671 77.5116 85.8661 77.5018 86.3195 77.4043C87.792 77.0825 88.8598 76.5218 89.8057 75.571C91.3415 74.0205 92.0631 72.0605 92.3996 68.5207C92.502 67.409 92.5166 63.6547 92.4239 62.2066C92.3069 60.4464 92.1704 58.5498 92.1412 58.2865C92.1168 58.0476 92.1216 58.0281 92.1997 58.0573C92.2484 58.0768 92.8384 58.306 93.5112 58.5693ZM73.9692 117.01C74.0277 117.078 74.1009 117.225 74.1301 117.342C74.1643 117.454 74.3252 117.961 74.4958 118.473C74.6665 118.98 74.9639 119.979 75.154 120.691C76.0804 124.138 76.334 124.933 77.0507 126.649C77.7528 128.341 78.1916 129.307 79.0108 130.974C80.059 133.11 80.6246 134.148 82.0825 136.61C82.5554 137.415 83.0333 138.395 83.2429 138.985C83.5208 139.78 83.5452 140.053 83.5111 141.657C83.4574 143.934 83.5891 144.885 84.3497 147.732C84.7008 149.058 84.7446 149.448 84.5594 149.648C84.3351 149.887 83.9987 149.907 83.1015 149.726C81.8923 149.482 80.7514 149.512 78.7133 149.848C75.6367 150.355 74.2277 150.311 72.2091 149.648C70.6586 149.141 68.4743 147.908 67.6454 147.074C67.2748 146.698 66.9628 146.143 66.8068 145.572C66.719 145.245 66.7044 145.06 66.6995 144.265C66.6995 143.485 66.7239 143.159 66.8604 142.193C66.9433 141.564 67.0798 140.75 67.1578 140.389C67.3626 139.453 67.4016 139.161 67.4016 138.605C67.4016 136.425 68.0891 133.992 69.4933 131.189C70.2588 129.653 70.6001 128.775 70.9268 127.493C71.3217 125.957 71.4972 124.406 71.4972 122.505C71.4972 120.847 71.7459 119.628 72.3017 118.521C72.6333 117.863 73.1842 117.044 73.3695 116.932C73.5646 116.805 73.823 116.839 73.9692 117.01Z" fill="white"/>
<path d="M93.9015 31.2516C91.3661 32.612 90.2106 33.5432 89.6206 34.6793C88.9429 35.986 88.9867 37.2829 89.7912 39.7062C90.074 40.5594 90.0935 40.6326 90.0935 41.0958C90.0984 41.5541 90.0887 41.6077 89.9375 41.91C89.7425 42.3147 89.4597 42.5682 88.9331 42.8315C88.5479 43.0168 87.9433 43.1923 87.4801 43.246C87.1486 43.2801 87.0023 43.4166 87.0023 43.6799C87.0023 44.1431 87.368 44.3381 88.2993 44.3723C88.7966 44.3966 88.9429 44.382 89.2695 44.2942C89.8449 44.1333 90.1911 43.9286 90.6348 43.4849C91.2247 42.8998 91.5173 42.2416 91.6148 41.3103C91.6635 40.8081 91.5611 40.2132 91.2686 39.3502C90.8249 38.0533 90.7371 37.6389 90.7323 36.9026C90.7323 36.1469 90.82 35.8202 91.1906 35.2546C91.6294 34.5818 92.6192 33.6554 93.6577 32.9386C94.55 32.3194 94.9108 31.9342 95.1009 31.3784C95.2521 30.9396 95.2423 30.9201 94.8523 30.8616C94.706 30.8372 94.5744 30.8908 93.9015 31.2516Z" fill="#62B2AE"/>
<path d="M80.376 31.1739C80.2297 31.2276 79.9567 31.3641 79.7665 31.4762C78.884 31.9979 78.4696 32.7 78.5281 33.5826C78.572 34.2408 78.8645 34.6503 79.6934 35.1964C79.9567 35.372 80.2638 35.6011 80.376 35.7133C80.649 35.9863 80.9221 36.4251 81.0293 36.7615C81.1025 37.0005 81.1073 37.0736 81.0586 37.2637C80.9708 37.5953 80.7319 37.9512 80.0981 38.707C78.5427 40.5549 78.4842 40.6475 78.6402 41.0571C78.7329 41.3009 78.9425 41.4374 79.1375 41.3886C79.3521 41.335 81.3463 39.8138 81.7607 39.3896C82.4335 38.7021 82.7456 38.0097 82.7944 37.1224C82.8236 36.5568 82.7358 36.1326 82.4872 35.6596C82.1556 35.0307 81.6632 34.548 80.7855 34.0019C80.1273 33.5923 79.9323 33.3924 79.9323 33.1291C79.9323 32.8805 80.5125 32.4416 81.1268 32.2173C81.2975 32.154 81.4584 32.0613 81.512 31.9833C81.5949 31.876 81.5998 31.837 81.551 31.6713C81.3901 31.1398 80.9659 30.9594 80.376 31.1739Z" fill="#62B2AE"/>
<path d="M101.898 37.5155C101.205 37.6081 100.815 37.8324 100.596 38.2566C100.513 38.4224 100.503 38.5101 100.528 38.7734C100.615 39.7047 100.615 40.5238 100.533 40.8944C100.352 41.7232 99.8402 42.4351 99.0698 42.9471C98.553 43.2932 98.0849 43.5029 97.2219 43.7759C96.4564 44.0197 96.198 44.1611 95.4764 44.7365C94.4574 45.5458 94.2282 46.0627 94.5549 46.8038C94.6524 47.0232 94.6621 47.0281 94.7645 46.9598C95.0327 46.7843 96.1249 46.1651 96.6709 45.8774C97.4364 45.4678 98.1532 45.1558 99.0942 44.7998C101.079 44.0587 101.825 43.42 102.176 42.1572C102.273 41.8159 102.283 41.6404 102.293 40.4312C102.298 39.5487 102.322 39.0465 102.356 38.9782C102.444 38.8173 102.634 38.8027 103.024 38.9148C103.448 39.0416 103.57 39.0465 103.712 38.9489C103.843 38.8563 103.941 38.5345 103.897 38.3395C103.799 37.8909 103.243 37.5252 102.605 37.4911C102.405 37.4765 102.088 37.4911 101.898 37.5155Z" fill="#62B2AE"/>
<path d="M83.2721 65.7288C82.4286 65.8458 81.512 66.3431 81.0634 66.9282C80.6002 67.523 80.4637 68.1033 80.5807 68.9175C80.8879 70.9946 82.3409 72.979 83.5598 72.979C84.3351 72.9741 85.3443 72.3793 86.3682 71.3164C87.4604 70.1852 88.0065 69.0687 87.8797 68.23C87.6896 66.9965 86.4511 66.0262 84.7251 65.7678C84.2814 65.6995 83.6086 65.6849 83.2721 65.7288Z" fill="white"/>
<path d="M67.9573 49.0553C66.085 49.7037 65.5584 51.9222 66.9237 53.3849C67.2893 53.775 67.6014 53.9993 68.4985 54.5259C70.5658 55.735 71.0388 56.2226 71.0973 57.2026C71.1217 57.6902 71.0729 58.1388 70.8389 59.4211C70.6585 60.4011 70.639 60.6791 70.717 60.9716C70.7755 61.1764 70.8828 61.2544 71.0973 61.2544C72.1651 61.2544 73.3158 59.2553 73.4328 57.2075C73.4962 55.9837 73.2182 55.3547 72.1602 54.3406C71.4435 53.658 70.5756 53.1265 69.4005 52.6487C68.4449 52.2586 68.2401 52.1319 68.0548 51.8149C67.7623 51.3127 68.05 50.6935 68.8398 50.1377C69.1665 49.9085 69.2348 49.7623 69.1324 49.5185C68.9227 49.0211 68.518 48.8651 67.9573 49.0553Z" fill="#62B2AE"/>
<path d="M63.0331 63.0696C62.7357 63.2695 62.1798 64.0009 62.0628 64.3422C61.9312 64.7225 61.9019 66.2291 62.0141 66.6679C62.2188 67.4627 62.5748 67.8527 63.4134 68.2038C64.7981 68.784 65.627 69.5105 66.1828 70.6417C66.5924 71.4705 66.7679 72.236 66.8898 73.7134C66.9483 74.435 66.9776 74.6203 67.0702 74.8056C67.353 75.3614 68.2453 75.4004 68.5914 74.8738C68.7231 74.6788 68.8645 74.1912 68.9718 73.5915C69.0108 73.3721 69.0351 72.8553 69.0351 72.2994C69.0351 71.5095 69.0156 71.2999 68.923 70.8659C68.4696 68.8425 67.3189 67.4773 65.5246 66.8337C64.842 66.5899 64.5641 66.4485 64.291 66.2047C63.7352 65.7025 63.6426 64.8054 64.0619 63.9278C64.3203 63.3963 64.2862 63.172 63.9254 63.0062C63.6036 62.8648 63.311 62.8843 63.0331 63.0696Z" fill="#62B2AE"/>
<path d="M81.0196 49.2676C80.7075 49.3895 80.3809 49.6966 80.2297 50.0184C80.0688 50.35 80.0347 50.9838 80.1517 51.3885C80.376 52.1638 80.8392 52.6708 81.5023 52.8805C81.7217 52.9439 81.946 52.9683 82.4189 52.9683C83.0186 52.9683 83.0528 52.9634 83.1942 52.8464C83.3746 52.6903 83.4428 52.3978 83.4526 51.7493C83.4575 51.2227 83.3648 50.8132 83.1405 50.3597C82.6432 49.3505 81.8533 48.9458 81.0196 49.2676ZM82.336 50.94C82.6091 51.057 82.7261 51.2276 82.7505 51.5494C82.77 51.8322 82.7651 51.842 82.575 52.0516C82.3848 52.2564 82.3653 52.2613 82.0825 52.2613C81.8046 52.2613 81.7753 52.2467 81.6096 52.0809C81.4535 51.9297 81.4243 51.8615 81.4048 51.6421C81.3901 51.4275 81.4048 51.3544 81.5023 51.213C81.6242 51.0277 81.8875 50.8717 82.0679 50.8717C82.1264 50.8717 82.2483 50.9009 82.336 50.94Z" fill="#62B2AE"/>
<path d="M107.753 53.4828C107.475 53.5852 107.163 53.8583 106.851 54.2776C106.525 54.7213 106.33 55.1357 106.232 55.6087C106.027 56.5789 106.559 57.5395 107.646 58.1587C108.524 58.6609 108.967 58.9778 109.431 59.4459C110.347 60.3625 110.908 61.4206 111.454 63.2295C111.698 64.0437 111.708 64.1412 111.556 64.541C111.327 65.1456 111.41 65.3407 111.922 65.3894C112.6 65.4528 113.058 65.0579 113.292 64.1997C113.38 63.8731 113.395 63.6732 113.399 62.9125C113.404 62.1324 113.39 61.9423 113.292 61.4986C112.985 60.1236 112.371 59.0119 111.415 58.0953C110.874 57.5785 110.298 57.2079 109.533 56.8764C108.387 56.379 108.114 56.1304 108.114 55.5892C108.114 55.3113 108.28 54.9017 108.548 54.5068C108.763 54.1996 108.841 53.8778 108.748 53.7071C108.592 53.4341 108.158 53.3317 107.753 53.4828Z" fill="#62B2AE"/>
<path d="M102.565 65.8799C101.776 66.1091 101.059 66.6259 100.757 67.1964C100.498 67.6889 100.449 67.8936 100.425 68.7225C100.401 69.4051 100.41 69.5221 100.503 69.8244C100.703 70.4924 101.117 70.9459 101.873 71.3213C102.624 71.6967 103.185 72.1648 103.682 72.823C104.218 73.53 104.833 74.9781 105.023 75.9679C105.14 76.5871 105.252 76.709 105.676 76.709C106.276 76.709 106.49 76.3921 106.656 75.2511C106.846 73.9201 106.369 72.3062 105.442 71.1409C104.93 70.5022 104.55 70.1901 103.604 69.6245C102.76 69.1272 102.458 68.8103 102.458 68.4202C102.458 68.1277 102.775 67.7084 103.258 67.3622C103.975 66.8502 104.087 66.5138 103.692 66.0799C103.424 65.7776 103.116 65.7239 102.565 65.8799Z" fill="#62B2AE"/>
<path d="M110.986 71.4906C110.499 71.6515 110.182 72.183 110.362 72.534C110.391 72.5926 110.621 72.8363 110.869 73.0801C111.596 73.792 111.957 74.4307 112 75.1036C112.049 75.7715 111.786 76.4249 111.201 77.1026C110.455 77.9754 110.016 78.8871 109.767 80.111C109.655 80.6668 109.665 80.9593 109.806 81.1982C109.894 81.3494 110.196 81.5396 110.348 81.5396C110.504 81.5396 110.713 81.3299 110.908 80.9691C111.011 80.7887 111.274 80.4084 111.493 80.1256C112.025 79.443 113.507 77.3903 113.712 77.0539C113.8 76.9076 113.926 76.6053 113.999 76.381C114.116 76.0007 114.121 75.9373 114.097 75.2108C114.073 74.3283 113.985 73.948 113.663 73.3337C113.322 72.6754 112.527 71.9246 111.854 71.6174C111.557 71.4809 111.186 71.4273 110.986 71.4906Z" fill="#62B2AE"/>
<path d="M96.32 53.6021C95.5642 53.763 94.9304 54.1287 94.4964 54.6601C94.1308 55.1136 94.0235 55.3037 94.0235 55.5036C94.0235 55.6499 94.0771 55.723 94.4818 56.1228C95.0279 56.664 95.3838 56.8591 95.9104 56.903C96.9928 56.9907 98.1143 56.1375 98.202 55.1574C98.2556 54.5967 97.9143 53.9678 97.4268 53.7288C97.1342 53.5874 96.6564 53.5338 96.32 53.6021ZM95.9933 54.743C96.4711 54.9429 96.5491 55.6109 96.1347 55.9278C95.9933 56.0399 95.9055 56.0643 95.7056 56.0643C95.3887 56.0595 95.1888 55.9229 95.0718 55.6401C94.8377 55.0502 95.4033 54.4943 95.9933 54.743Z" fill="#62B2AE"/>
<path d="M81.1951 80.6821C80.5368 80.9503 79.7957 81.8279 79.5178 82.6666C79.0692 84.0074 79.5812 85.3336 80.883 86.1966C81.3657 86.5184 81.8045 86.7037 82.609 86.9329C85.0908 87.635 86.6462 88.8588 87.6652 90.9261C87.9529 91.5209 88.338 92.6228 88.4112 93.0958C88.4746 93.481 88.5623 93.6175 88.7964 93.676C89.1864 93.7833 89.6057 93.5249 89.7764 93.0763C89.9275 92.6667 89.9909 92.0816 89.9617 91.3698C89.9227 90.3654 89.7228 89.6048 89.2644 88.7076C88.4404 87.0938 86.8071 85.748 84.8324 85.0508C84.5935 84.9679 83.9791 84.7875 83.4769 84.6608C81.5949 84.1683 81.4632 83.9343 82.1215 82.1644C82.258 81.7987 82.3799 81.4135 82.3945 81.3111C82.4335 81.0429 82.3019 80.8138 82.0288 80.6724C81.7558 80.5359 81.5413 80.5359 81.1951 80.6821Z" fill="#62B2AE"/>
<path d="M99.0649 90.874C98.8601 90.9959 98.7041 91.2396 98.7041 91.4347C98.7041 91.6248 98.5529 92.127 98.4115 92.4098C97.9874 93.2485 97.4461 93.6239 95.6324 94.3357C94.5451 94.7599 94.1891 94.9355 93.5943 95.3353C92.5119 96.0569 91.7561 97.0954 91.4441 98.2753C91.2637 98.9677 91.2198 99.5918 91.2881 100.65C91.4002 102.503 91.5124 103.088 91.9122 103.917C92.2681 104.658 92.8337 105.145 93.5553 105.34C93.7601 105.394 93.804 105.389 93.96 105.306C94.2038 105.175 94.3305 104.984 94.3305 104.76C94.3257 104.658 94.2379 104.165 94.1258 103.668C93.3895 100.323 93.4919 99.0652 94.6085 97.9194C95.1887 97.3246 95.9298 96.837 97.6363 95.935C98.6895 95.384 98.7431 95.345 99.1722 94.9208C99.5525 94.5454 99.65 94.4138 99.845 94.0188C100.094 93.5069 100.269 92.8828 100.381 92.1368C100.489 91.3908 100.381 91.0592 99.9572 90.8545C99.6646 90.7131 99.3184 90.7179 99.0649 90.874Z" fill="#62B2AE"/>
<path d="M111.791 92.1593C111.542 92.2763 111.381 92.4762 111.381 92.6664C111.381 92.759 111.469 92.9443 111.625 93.1783C112.093 93.8804 112.166 94.5045 111.942 95.8502C111.873 96.2549 111.805 96.8449 111.791 97.1667C111.766 97.6786 111.776 97.8346 111.888 98.3856C112.054 99.1901 112.283 99.8581 112.556 100.341C112.961 101.048 113.824 101.833 114.365 101.974C114.667 102.057 114.989 101.964 115.238 101.725C115.462 101.511 115.486 101.321 115.33 100.872C115.179 100.433 114.955 99.5655 114.823 98.8976C114.609 97.8249 114.54 97.1374 114.501 95.5089C114.477 94.5191 114.443 93.8755 114.404 93.7536C114.126 92.8468 113.239 92.1203 112.356 92.0861C112.073 92.0715 111.947 92.091 111.791 92.1593Z" fill="#62B2AE"/>
<path d="M106.032 97.5797C105.452 97.8381 104.652 98.9644 104.355 99.9201C104.213 100.378 104.204 101.1 104.33 101.578C104.535 102.329 105.042 102.987 105.73 103.382C106.724 103.957 107.217 104.367 107.724 105.044C108.343 105.878 109.079 107.643 109.235 108.696C109.27 108.896 109.328 109.135 109.367 109.223C109.567 109.652 110.181 109.623 110.625 109.165C110.825 108.96 110.898 108.843 111 108.526C111.478 107.087 111.098 105.025 110.074 103.479C109.528 102.66 108.967 102.109 108.094 101.539C107.514 101.163 107.227 100.905 107.051 100.608C106.934 100.413 106.919 100.335 106.924 99.9932C106.929 99.6519 106.954 99.5398 107.139 99.0912C107.402 98.4574 107.431 98.0917 107.241 97.8284C107.007 97.5017 106.451 97.3896 106.032 97.5797Z" fill="#62B2AE"/>
<path d="M81.3563 99.1397C81.0199 99.3103 80.4689 99.8028 80.1471 100.222C79.8448 100.612 79.5669 101.226 79.4645 101.724C79.2354 102.879 79.6693 104.147 80.6688 105.21C82.3802 107.038 83.0531 108.491 83.0531 110.364C83.0531 110.656 83.0726 110.9 83.1018 110.915C83.1945 110.973 83.1506 111.29 83.0043 111.622C82.8288 112.021 82.8239 112.065 82.975 112.236C83.0726 112.353 83.1311 112.372 83.409 112.392C83.8234 112.416 84.0233 112.348 84.3403 112.056C84.7352 111.695 85.0765 110.958 85.2715 110.037C85.369 109.574 85.369 108.301 85.2667 107.633C85.1886 107.097 84.9936 106.419 84.7791 105.932C84.4524 105.195 83.7259 104.318 82.9799 103.762C82.1218 103.123 81.7561 102.626 81.7025 102.031C81.6537 101.5 81.9024 100.817 82.3315 100.305C82.6386 99.9295 82.7313 99.7296 82.6581 99.5443C82.585 99.3493 82.4241 99.1884 82.1998 99.086C81.9219 98.9544 81.6976 98.969 81.3563 99.1397Z" fill="#62B2AE"/>
<path d="M83.4383 118.414C83.0921 118.56 82.8532 118.741 82.5801 119.077C82.1121 119.652 81.9122 120.228 81.9122 120.983C81.917 121.408 81.9365 121.564 82.0487 121.885C82.3949 122.9 83.1262 123.675 84.272 124.25C84.4476 124.338 84.7742 124.528 85.0034 124.679C86.9976 125.971 88.158 127.907 88.3969 130.325C88.4554 130.954 88.6066 131.13 89.0698 131.135C89.5671 131.14 89.8889 130.896 90.1522 130.325C90.3911 129.804 90.3911 129.048 90.1424 127.761C89.8206 126.059 89.1478 124.733 88.0946 123.714C87.5583 123.192 86.9781 122.807 86.0273 122.324C85.1545 121.881 84.7742 121.603 84.5207 121.222C84.2086 120.754 84.1891 120.233 84.4573 119.448C84.589 119.067 84.6036 118.979 84.5597 118.823C84.5061 118.628 84.3013 118.448 84.0331 118.355C83.8088 118.282 83.7503 118.287 83.4383 118.414Z" fill="#62B2AE"/>
<path d="M110.089 118.702C109.796 118.805 109.572 119.097 109.431 119.546C109.343 119.829 108.943 120.614 108.69 121.009C108.568 121.194 108.256 121.633 107.997 121.984C107.476 122.681 107.105 123.378 106.934 123.983C106.832 124.344 106.822 124.461 106.827 125.616C106.827 126.723 106.837 126.898 106.929 127.225C107.183 128.132 107.539 128.834 108.163 129.624C108.529 130.092 110.318 131.901 110.557 132.047C110.796 132.194 111.001 132.179 111.201 132.003C111.454 131.784 111.493 131.638 111.464 131.062C111.425 130.272 111.201 129.736 110.401 128.483C109.86 127.63 109.475 126.859 109.309 126.274C109.138 125.694 109.099 124.992 109.206 124.495C109.314 123.993 109.645 123.329 110.021 122.871C110.65 122.096 110.811 121.881 110.967 121.569C111.21 121.087 111.337 120.623 111.366 120.107C111.41 119.39 111.249 118.975 110.85 118.771C110.664 118.673 110.264 118.634 110.089 118.702Z" fill="#62B2AE"/>
<path d="M107.061 136.733C106.817 136.811 106.515 137.142 106.432 137.435C106.374 137.63 106.369 137.737 106.408 137.932C106.461 138.186 106.564 138.352 107.066 139.01C107.437 139.497 107.749 140.107 107.851 140.565L107.929 140.926L107.749 141.862C107.617 142.53 107.524 142.886 107.427 143.081C107.246 143.437 107.246 143.617 107.412 143.749C107.715 143.988 108.197 144.003 108.573 143.783C109.026 143.515 109.645 142.715 109.913 142.038C110.143 141.472 110.235 140.941 110.23 140.195C110.23 138.942 109.87 138.186 108.904 137.411C108.178 136.825 107.529 136.587 107.061 136.733Z" fill="#62B2AE"/>
<path d="M89.5137 136.796C89.2504 136.864 88.7238 137.39 88.5483 137.761C88.3435 138.195 88.2021 138.804 88.1972 139.243C88.1972 140.033 88.5921 140.862 89.2991 141.54C89.7672 141.983 90.1378 142.242 90.9764 142.705C91.3518 142.91 91.7955 143.178 91.9613 143.295C92.5415 143.709 92.873 144.226 93.0193 144.943C93.0632 145.157 93.1217 145.357 93.151 145.396C93.229 145.484 93.5118 145.474 93.7117 145.382C93.9506 145.27 94.248 144.909 94.3455 144.621C94.4479 144.314 94.4187 143.88 94.2724 143.505C93.9555 142.685 92.9072 141.51 91.659 140.584C90.8691 139.994 90.5619 139.697 90.3864 139.331C90.2694 139.097 90.2596 139.029 90.2791 138.668C90.2987 138.375 90.3377 138.18 90.4352 137.951C90.5376 137.722 90.5668 137.585 90.5473 137.449C90.4839 136.995 89.9817 136.674 89.5137 136.796Z" fill="#62B2AE"/>
<path d="M73.9934 132.423C73.8763 132.545 73.8471 132.619 73.8227 132.916C73.7545 133.652 73.4229 134.213 72.711 134.798C71.1459 136.09 70.5072 136.929 70.3219 137.938C70.1903 138.64 70.5998 139.927 71.2922 141C72.3161 142.594 73.7496 143.784 74.9246 144.023C75.6121 144.159 76.0656 143.96 76.1582 143.482C76.1972 143.272 76.1094 143.136 75.812 142.921C75.6901 142.833 75.5146 142.658 75.4268 142.536C75.3391 142.414 75.0709 142.097 74.832 141.829C73.9641 140.854 73.2279 139.869 72.9646 139.318C72.8037 138.986 72.7891 138.913 72.7891 138.538C72.7891 138.182 72.8086 138.084 72.9256 137.85C73.1352 137.441 73.4717 137.021 74.2274 136.222C74.6077 135.817 75.0026 135.359 75.1099 135.198C75.5048 134.598 75.5877 133.935 75.3537 133.316C75.1245 132.711 74.7686 132.355 74.3542 132.311C74.1591 132.287 74.1201 132.302 73.9934 132.423Z" fill="#62B2AE"/>
</svg>
