<svg width="280" height="29" viewBox="0 0 280 29" fill="none" xmlns="http://www.w3.org/2000/svg">
<path d="M67.0067 16.4353L68.4194 17.1417C67.4667 18.5216 65.9061 19.4087 63.9676 19.4087C60.6822 19.4087 58.4973 16.846 58.4973 13.6591C58.4973 10.4886 60.6822 7.90956 63.9676 7.90956C65.9061 7.90956 67.4667 8.81306 68.4194 10.193L67.0067 10.8993C66.3003 9.84798 65.1668 9.33874 63.9676 9.33874C61.9799 9.33874 60.1729 10.7679 60.1729 13.6591C60.1729 16.5668 61.9799 17.9959 63.9676 17.9959C65.1668 17.9959 66.3003 17.4867 67.0067 16.4353ZM73.2223 11.3593C75.5221 11.3593 77.017 13.1827 77.017 15.4333C77.017 17.6838 75.5221 19.5073 73.2223 19.5073C70.5117 19.5073 69.2468 17.6838 69.2468 15.4333C69.2468 13.1827 70.6103 11.3593 73.2223 11.3593ZM73.1237 18.2588C74.6022 18.2588 75.6042 17.3881 75.6042 15.4333C75.6042 13.4949 74.6022 12.6078 73.1237 12.6078C71.6617 12.6078 70.6596 13.4949 70.6596 15.4333C70.6596 17.3881 71.6617 18.2588 73.1237 18.2588ZM82.2419 11.3593C83.8518 11.3593 85.5109 12.6078 85.5109 14.2834V19.4087H84.0982V14.5298C84.0982 13.5934 83.3261 12.5585 81.9462 12.5585C80.5827 12.5585 79.8599 13.6756 79.8599 14.5298V19.4087H78.4472V11.4579H79.8599V12.3942C80.3035 11.8685 81.0427 11.3593 82.2419 11.3593ZM90.7092 12.6899H89.1157V17.1089C89.1157 17.5524 89.28 18.0945 90.397 18.0945H90.7092V19.4087H89.8057C88.6722 19.4087 87.703 18.6202 87.703 17.1089V12.6899H86.3888V11.4579H87.703V9.42087L89.1157 9.15804V11.4579H90.7092V12.6899ZM93.4478 19.4087H92.035V11.4579H93.4478V19.4087ZM92.7414 9.78227C92.2321 9.78227 91.8215 9.35516 91.8215 8.84592C91.8215 8.33667 92.2321 7.90956 92.7414 7.90956C93.2506 7.90956 93.6778 8.33667 93.6778 8.84592C93.6778 9.35516 93.2506 9.78227 92.7414 9.78227ZM99.0542 11.3593C100.664 11.3593 102.323 12.6078 102.323 14.2834V19.4087H100.911V14.5298C100.911 13.5934 100.138 12.5585 98.7585 12.5585C97.3951 12.5585 96.6723 13.6756 96.6723 14.5298V19.4087H95.2595V11.4579H96.6723V12.3942C97.1158 11.8685 97.855 11.3593 99.0542 11.3593ZM109.539 11.4414H110.951V19.4087H109.539V18.4723C109.079 18.998 108.356 19.4908 107.157 19.4908C105.53 19.4908 103.888 18.2588 103.888 16.5832V11.4414H105.3V16.3368C105.3 17.2731 106.072 18.3081 107.436 18.3081C108.799 18.3081 109.539 17.191 109.539 16.3368V11.4414ZM120.154 15.959H113.83C113.994 17.6017 114.947 18.3409 116.278 18.3409C117.296 18.3409 118.101 17.9138 118.495 16.961L119.859 17.1417C119.3 18.538 118.052 19.4908 116.376 19.4908C113.666 19.4908 112.401 17.6838 112.401 15.4333C112.401 13.1827 113.764 11.3593 116.376 11.3593C118.676 11.3593 120.171 13.1827 120.171 15.4333C120.171 15.614 120.171 15.7947 120.154 15.959ZM116.278 12.5092C114.996 12.5092 114.076 13.1992 113.863 14.7269H118.709C118.495 13.1992 117.559 12.5092 116.278 12.5092ZM135.177 11.4579H136.672L134.47 19.4087H132.778L131.415 14.0534L130.035 19.4087H128.359L126.158 11.4579H127.653L129.197 17.2074L130.659 11.4579H132.17L133.632 17.2074L135.177 11.4579ZM139.233 19.4087H137.82V11.4579H139.233V19.4087ZM138.526 9.78227C138.017 9.78227 137.606 9.35516 137.606 8.84592C137.606 8.33667 138.017 7.90956 138.526 7.90956C139.035 7.90956 139.463 8.33667 139.463 8.84592C139.463 9.35516 139.035 9.78227 138.526 9.78227ZM144.708 12.6899H143.114V17.1089C143.114 17.5524 143.278 18.0945 144.395 18.0945H144.708V19.4087H143.804C142.671 19.4087 141.701 18.6202 141.701 17.1089V12.6899H140.387V11.4579H141.701V9.42087L143.114 9.15804V11.4579H144.708V12.6899ZM149.91 11.3593C152.062 11.3593 153.459 12.7063 153.459 14.2834V19.4087H152.046V15.0554C152.046 14.1191 151.635 12.5913 149.828 12.5913C148.021 12.5913 147.446 14.2012 147.446 15.0554V19.4087H146.033V7.90956H147.446V12.3942C147.923 11.8685 148.711 11.3593 149.91 11.3593ZM166.175 13.1335H170.281V19.4087H168.77V18.1931C167.899 19.0473 166.667 19.4087 165.435 19.4087C162.15 19.4087 159.965 16.846 159.965 13.6591C159.965 10.4886 162.15 7.90956 165.435 7.90956C167.374 7.90956 168.934 8.81306 169.887 10.193L168.474 10.8993C167.768 9.84798 166.634 9.33874 165.435 9.33874C163.448 9.33874 161.641 10.7679 161.641 13.6591C161.641 16.5668 163.448 17.9959 165.435 17.9959C166.634 17.9959 168.77 17.5688 168.77 14.6448V14.5462H166.175V13.1335ZM175.524 11.3593C177.824 11.3593 179.319 13.1827 179.319 15.4333C179.319 17.6838 177.824 19.5073 175.524 19.5073C172.814 19.5073 171.549 17.6838 171.549 15.4333C171.549 13.1827 172.912 11.3593 175.524 11.3593ZM175.426 18.2588C176.904 18.2588 177.906 17.3881 177.906 15.4333C177.906 13.4949 176.904 12.6078 175.426 12.6078C173.964 12.6078 172.961 13.4949 172.961 15.4333C172.961 17.3881 173.964 18.2588 175.426 18.2588ZM184.379 11.3593C186.679 11.3593 188.174 13.1827 188.174 15.4333C188.174 17.6838 186.679 19.5073 184.379 19.5073C181.669 19.5073 180.404 17.6838 180.404 15.4333C180.404 13.1827 181.768 11.3593 184.379 11.3593ZM184.281 18.2588C185.759 18.2588 186.761 17.3881 186.761 15.4333C186.761 13.4949 185.759 12.6078 184.281 12.6078C182.819 12.6078 181.817 13.4949 181.817 15.4333C181.817 17.3881 182.819 18.2588 184.281 18.2588ZM196.044 11.4414H197.457V19.4087C197.457 21.8564 195.863 22.9406 193.662 22.9406C191.461 22.9406 189.933 21.7085 189.933 20.0822H191.346C191.346 20.2958 191.313 21.7085 193.662 21.7085C195.88 21.7085 196.044 20.345 196.044 19.4087V18.3902C195.37 19.0801 194.401 19.4908 193.268 19.4908C190.886 19.4908 189.243 17.6838 189.243 15.4333C189.243 12.9856 190.886 11.3593 193.268 11.3593C194.401 11.3593 195.37 11.7864 196.044 12.4764V11.4414ZM193.366 18.3409C195.091 18.3409 195.978 17.0924 195.978 15.4333C195.978 13.7741 195.091 12.5092 193.366 12.5092C191.625 12.5092 190.672 13.7741 190.672 15.4333C190.672 17.0924 191.625 18.3409 193.366 18.3409ZM200.659 19.4087H199.246V7.90956H200.659V19.4087ZM209.863 15.959H203.538C203.703 17.6017 204.656 18.3409 205.986 18.3409C207.005 18.3409 207.81 17.9138 208.204 16.961L209.567 17.1417C209.009 18.538 207.76 19.4908 206.085 19.4908C203.374 19.4908 202.109 17.6838 202.109 15.4333C202.109 13.1827 203.473 11.3593 206.085 11.3593C208.385 11.3593 209.879 13.1827 209.879 15.4333C209.879 15.614 209.879 15.7947 209.863 15.959ZM205.986 12.5092C204.705 12.5092 203.785 13.1992 203.571 14.7269H208.417C208.204 13.1992 207.267 12.5092 205.986 12.5092Z" fill="#2A2A2A"/>
<path d="M37.5889 14.5544C37.5889 13.7048 37.4912 12.8505 37.283 12.0146H20.5757V16.8278H30.1432C29.7461 18.3801 28.4705 19.7533 26.6025 20.6259V23.7489H32.3105C35.6624 21.572 37.5889 18.3571 37.5889 14.5544Z" fill="#4285F4"/>
<path d="M20.6471 26.3566C25.2329 26.3566 29.1001 25.3569 31.9178 23.6311L26.4387 20.8101C24.9142 21.4988 22.9462 21.8887 20.6534 21.8887C16.2175 21.8887 12.4565 19.9016 11.107 17.23H5.45288V20.1381C8.33928 23.9505 14.2183 26.3566 20.6471 26.3566Z" fill="#34A853"/>
<path d="M11.1239 16.846C10.4017 15.4035 10.4017 13.8415 11.1239 12.3989V9.40723H5.39663C2.95112 12.6892 2.95112 16.5558 5.39663 19.8377L11.1239 16.846Z" fill="#FBBC04"/>
<path d="M20.5864 7.35446C23.0008 7.32958 25.3343 7.93494 27.0828 9.04613L31.9178 5.82449C28.8563 3.90892 24.7929 2.85577 20.5864 2.88894C14.1833 2.88894 8.32775 5.29377 5.45288 9.10833L11.0782 12.0148C12.416 9.34052 16.1683 7.35446 20.5864 7.35446Z" fill="#EA4335"/>
</svg>
