<svg width="161" height="161" viewBox="0 0 161 161" fill="none" xmlns="http://www.w3.org/2000/svg">
<circle cx="80.602" cy="80.9507" r="78.5" stroke="white" stroke-width="3"/>
<path d="M85.2204 20.747C85.9211 20.8508 86.5284 20.9962 88.101 21.4218C90.1459 21.9772 90.9815 22.1225 92.1026 22.1225C93.0887 22.1225 93.7271 22.3561 95.0402 23.2021C95.4451 23.4617 95.9641 23.7679 96.1924 23.8873C96.7166 24.1468 96.7997 24.2818 96.7166 24.697C96.6492 25.0188 96.6803 25.2368 96.8308 25.486C96.9554 25.6884 97.4017 26.0569 100.22 28.2629C101.014 28.8857 101.948 29.7993 102.28 30.2716C102.706 30.8737 104.383 33.7493 105.12 35.1455C105.628 36.1006 106.163 37.2373 106.505 38.0781C106.64 38.4207 106.905 38.945 107.092 39.246C107.424 39.8014 107.569 40.144 107.523 40.2893C107.445 40.5332 107.113 40.663 106.843 40.5488C106.677 40.4813 106.469 40.2114 106.22 39.7391C105.991 39.3031 105.779 39.0643 105.561 38.9917C105.462 38.9553 105.369 38.9398 105.358 38.9501C105.348 38.9605 105.509 40.0453 105.722 41.3533C105.929 42.6665 106.152 44.0887 106.215 44.5196C106.272 44.9504 106.381 45.459 106.448 45.6511C106.521 45.8483 106.578 46.056 106.578 46.1182C106.578 46.2947 106.386 46.5698 106.204 46.6425C105.991 46.7359 105.877 46.6788 105.649 46.3829C105.472 46.1494 105.301 46.0611 105.145 46.1234C105.062 46.1546 105.057 46.3674 105.083 48.6564C105.109 50.6859 105.099 51.2049 105.042 51.397C105 51.5267 104.839 51.7967 104.663 52.0147C104.076 52.7465 103.858 53.359 103.568 55.0719C103.386 56.1152 103.308 56.3954 103.142 56.5719C102.924 56.8055 102.504 56.8315 102.332 56.629C102.301 56.5875 102.239 56.3954 102.197 56.2034C102.156 56.0062 102.083 55.8089 102.037 55.7622C101.959 55.6843 101.943 55.6895 101.819 55.8349C101.575 56.1255 101.242 56.9197 100.983 57.8384C100.703 58.8246 100.505 59.2917 100.215 59.6758C99.9813 59.9821 99.5038 60.335 99.156 60.4596C98.8394 60.5738 98.7927 60.6257 98.637 61.015C98.4969 61.3783 98.3464 61.4925 98.0868 61.451C97.7599 61.3991 97.6353 61.2122 97.5471 60.6569C97.5159 60.4596 97.4485 60.1793 97.3914 60.034C97.2357 59.6136 97.1838 59.2191 97.1319 58.0356C97.1007 57.3245 97.054 56.8107 96.9969 56.6134C96.8983 56.2449 96.6751 55.8089 96.4416 55.5286L96.2703 55.3314L95.9329 55.6843C95.2945 56.3591 94.8741 56.8211 94.7029 57.0339C94.4382 57.3764 94.2254 57.8228 94.2254 58.0408C94.2254 58.2848 94.407 58.4561 95.1285 58.8869C95.9277 59.3696 96.5142 60.1274 96.3741 60.5219C96.2755 60.8074 95.9122 60.9112 94.8326 60.9735L94.1735 61.0098L94.4226 61.207C94.7132 61.4406 95.0143 61.8143 95.4918 62.541C96.1457 63.5428 96.4675 63.7608 97.3498 63.8023L97.9 63.8283L98.3515 64.2954C98.9225 64.8819 99.1456 65.2245 99.6647 66.2937C99.893 66.7661 100.189 67.3111 100.319 67.5135C100.729 68.1312 100.879 68.7644 100.947 70.1607C100.999 71.178 101.082 71.5881 101.357 72.1331C101.492 72.3926 101.595 72.6469 101.595 72.6988C101.595 72.9428 101.009 73.249 100.531 73.249C100.251 73.249 100.116 73.3528 99.9397 73.7006L99.7944 73.9913L100.028 74.2041C100.293 74.4428 100.438 74.7387 100.609 75.3771C100.832 76.2336 100.941 76.3789 101.855 77.0485C102.431 77.4689 103.344 78.3876 103.812 79.0105C105.011 80.6196 105.779 82.3843 106.765 85.7997C107.549 88.5247 107.616 90.0403 107.149 94.7637C107.035 95.9056 106.905 97.4835 106.863 98.2673C106.775 99.9594 106.713 100.333 106.344 101.299C105.514 103.499 105.504 104.05 106.261 105.996C106.573 106.79 106.573 106.837 106.261 107.262C106.137 107.439 106.059 107.61 106.059 107.698C106.059 107.781 106.189 108.051 106.36 108.342C106.677 108.861 106.952 109.525 107.434 110.906C107.974 112.448 108.4 113.206 109.137 113.943C109.801 114.612 110.003 115.11 110.102 116.351C110.164 117.124 110.237 117.322 110.72 117.991C111.711 119.362 112.173 120.908 112.022 122.351C111.877 123.815 111.908 124.282 112.214 124.895C112.557 125.569 113.092 125.943 114.446 126.447C115.453 126.815 115.899 127.018 116.631 127.438C117.892 128.165 119.226 129.161 121.033 130.734C123.503 132.883 124.017 133.303 125.288 134.201C127.375 135.68 127.52 135.805 127.775 136.309C127.987 136.724 128.065 137.149 128.065 137.897C128.06 138.94 127.967 139.21 127.51 139.433L127.261 139.553L123.991 139.558C120.296 139.568 120.363 139.563 114.182 140.025C109.49 140.373 107.273 140.451 104.632 140.362C103.573 140.326 102.696 140.29 102.68 140.279C102.665 140.269 102.114 140.29 101.46 140.321C100.806 140.352 98.9744 140.383 97.3914 140.388C94.3655 140.399 94.1787 140.409 92.305 140.679C91.8898 140.736 91.0386 140.881 90.4106 141.001C89.2895 141.214 89.248 141.214 88.101 141.219C86.7723 141.219 86.2066 141.136 85.236 140.798C84.5872 140.57 84.2966 140.425 83.8035 140.087C83.1184 139.615 82.5994 138.961 82.2828 138.172C82.1375 137.809 81.9403 137.559 81.8053 137.559C81.769 137.559 81.6133 137.642 81.4576 137.741C81.0268 138.021 80.6739 138.13 80.0355 138.187C78.5822 138.317 77.8556 138.452 75.0996 139.117C71.0046 140.103 70.8178 140.124 65.8871 140.295C62.6069 140.409 57.1936 140.425 56.2594 140.321C54.884 140.165 54.2093 139.755 53.8875 138.873C53.7214 138.411 53.7318 137.471 53.9186 136.667C54.5207 134.051 55.9947 131.492 57.4635 130.526C58.2887 129.981 58.6728 129.436 58.6728 128.813C58.6728 128.04 58.2991 126.862 57.2403 124.282C55.8961 121.017 54.7023 117.851 53.5968 114.643C52.7301 112.126 52.6989 111.97 52.5744 109.271C52.4965 107.579 52.4913 107.517 52.2682 106.001C52.0761 104.662 52.0242 103.857 52.0242 102.264C52.0294 98.859 52.5692 95.1218 53.8252 89.8223C54.4169 87.3205 54.6401 86.08 54.7283 84.8083C54.8321 83.3238 54.884 82.8774 55.0397 82.1767C55.3148 80.9517 55.3511 80.5936 55.429 78.2838C55.4757 76.8461 55.5328 75.9066 55.5847 75.5848C55.704 74.8477 55.8909 74.2093 56.1296 73.6591C56.2542 73.3892 56.3891 73.0362 56.4307 72.8753C56.5137 72.5846 56.5137 72.5743 56.3995 72.4341C56.0725 72.0189 55.9999 71.8372 55.9999 71.4272V71.0379L56.5915 69.87C57.3286 68.427 57.6192 67.9184 58.2316 66.9945C58.4963 66.5948 58.7403 66.2159 58.7714 66.1536C58.9115 65.8785 58.787 65.5048 58.5015 65.3491C58.4392 65.3179 58.2368 65.2868 58.05 65.2816C57.5777 65.2712 57.3701 65.157 57.0223 64.7158C56.8614 64.5134 56.576 64.1812 56.3891 63.984C55.4082 62.9407 54.7958 62.1621 53.9498 60.8956C53.6124 60.3973 53.0882 59.6499 52.782 59.2347C51.6557 57.7035 51.308 56.9405 51.1471 55.6273C51.0692 54.9992 50.9654 54.6099 50.7578 54.1739C50.5139 53.6652 50.2751 53.4057 49.8755 53.2189C49.6938 53.1306 49.4655 52.9801 49.3669 52.8815C49.071 52.5908 49.0503 52.4247 49.0451 50.3329C49.0347 48.4072 49.0087 48.1062 48.8063 47.4574C48.6766 47.0421 48.5468 46.7878 48.2717 46.3933C48.0797 46.1182 48.0641 46.0611 48.0693 45.7964C48.0745 45.6355 48.1212 45.3864 48.1783 45.241C48.4222 44.6338 48.469 44.2289 48.4482 43.0922C48.4015 40.8135 48.4222 40.0972 48.5468 39.5107C48.7181 38.7062 49.1229 37.5435 49.6108 36.4535C50.6125 34.2216 51.1626 33.033 51.5156 32.3374C52.4187 30.5623 53.5501 29.2698 54.7906 28.5847C55.3044 28.3044 55.403 28.1695 55.403 27.7231C55.403 27.1365 55.6262 26.768 56.14 26.5033C56.4826 26.3268 57.4168 25.9998 58.2835 25.7507C59.2489 25.4704 59.4928 25.3458 59.9911 24.8839C61.299 23.6797 62.3526 23.2437 65.6432 22.5637C67.2054 22.2367 67.4701 22.2108 68.586 22.2419C69.9043 22.2782 71.0098 22.4755 72.7226 22.9841C73.0651 23.0828 73.4492 23.1606 73.5945 23.1606C73.8748 23.1606 73.9267 23.1399 74.6844 22.6935C76.0962 21.8682 77.84 21.3387 80.1704 21.0325C82.7447 20.6951 84.2706 20.6121 85.2204 20.747ZM80.4715 21.8889C78.52 22.1433 76.6723 22.8336 74.6844 24.043C74.373 24.235 74.0201 24.4219 73.9111 24.4582C73.553 24.5724 73.2052 24.5361 72.7018 24.3285C71.1084 23.6589 69.8213 23.3734 68.0151 23.2852C67.1431 23.2437 66.9096 23.2956 65.9338 23.7575C64.9737 24.2143 64.709 24.2973 64.0446 24.3596C62.9339 24.4582 62.3526 24.697 60.7696 25.7195C59.6382 26.4462 59.0569 26.7421 58.3977 26.9341C57.9099 27.0795 57.9047 27.0795 57.5569 27.4687C57.3597 27.6815 56.7421 28.3459 56.1815 28.948C54.3961 30.853 53.7058 31.6523 52.9273 32.6956C50.4568 36.0175 49.4188 39.6405 49.6004 44.3535C49.6886 46.7515 50.0571 49.0249 50.7059 51.1738C51.2042 52.84 52.3979 55.8764 53.1453 57.392C54.0951 59.3229 55.6262 61.15 57.9981 63.1846C59.2541 64.2643 61.5378 66.0809 61.7817 66.1951C62.2384 66.4131 62.7834 66.3145 62.9547 65.9823C63.0689 65.7591 63.0585 65.6968 62.7782 65.1259C62.2644 64.0826 61.4288 62.3126 61.3042 62.0116C60.562 60.2157 60.4011 58.0564 60.8267 55.757C60.9617 55.0511 61.3405 53.5822 61.6831 52.461C62.0153 51.3658 62.0983 50.8883 61.9997 50.5354C61.9686 50.416 61.7142 49.9955 61.4132 49.5751C60.1935 47.8467 59.3631 46.4245 58.7766 45.0386C57.7178 42.5524 57.5777 39.9934 58.3614 37.6369C59.1088 35.3946 60.7125 33.6091 62.8301 32.68C64.2782 32.0416 66.4373 31.6834 68.041 31.8184C69.3905 31.9326 70.4545 32.244 71.8817 32.9447C72.9561 33.469 73.2519 33.5624 73.7502 33.5312C74.399 33.4897 74.6014 33.3444 76.0079 31.9326C77.3158 30.609 77.5909 30.365 78.1722 29.9913C78.9767 29.4775 79.7137 29.2543 80.8659 29.1868C81.6392 29.1401 81.6548 29.1349 82.7655 28.7716C84.063 28.3459 84.4471 28.2733 85.1685 28.32C86.0924 28.3823 86.4661 28.5639 86.7256 29.0778C86.8657 29.3581 87.1356 29.6124 87.4159 29.7318C87.5197 29.7733 87.8415 29.8668 88.1269 29.9342C88.8017 30.0951 89.6425 30.3858 90.0992 30.6246C90.3535 30.7543 90.5923 30.9412 90.9037 31.2578C91.2774 31.6315 91.4019 31.8028 91.703 32.3738C91.9002 32.7475 92.2791 33.4378 92.549 33.9154C93.8621 36.2822 94.2721 37.3099 94.5887 39.0124C94.9364 40.9173 94.9831 41.9866 94.7444 42.9313C94.6302 43.4088 94.3292 44.0939 94.0697 44.4677C93.7427 44.94 93.6337 45.2566 93.6285 45.7186C93.6285 46.0975 93.6441 46.1701 93.8205 46.5231C93.9347 46.7463 94.215 47.1511 94.5108 47.5041C96.0834 49.3934 97.1059 51.5475 97.6249 54.0649C97.8066 54.9629 97.8896 55.5857 98.009 57.0287C98.0713 57.7138 98.1284 58.3782 98.1491 58.5028L98.1803 58.726L98.3931 58.6948C98.7564 58.6377 99.3429 58.3263 99.6128 58.0512C99.9242 57.7294 100.075 57.4439 100.376 56.6134C100.936 55.0719 101.492 54.231 102.452 53.4991C102.877 53.1721 103.017 53.006 103.22 52.6168C103.428 52.2067 103.505 51.8589 103.62 50.8779C103.682 50.3796 103.796 49.5128 103.879 48.9574C104.222 46.6425 104.284 45.7549 104.19 44.5507C104.113 43.5801 104.113 43.5905 104.507 43.0662C104.818 42.651 104.824 42.6198 104.761 41.5402C104.637 39.3861 104.611 39.2045 104.19 38.0366C103.978 37.4501 103.988 37.1698 104.232 36.8895C104.652 36.412 104.767 35.8774 104.543 35.4154C104.471 35.2701 104.222 34.9742 103.889 34.6576C102.597 33.4067 101.294 31.8184 99.5453 29.3633C98.6889 28.1539 98.1284 27.4739 97.4173 26.768C96.3222 25.6728 95.0921 24.7904 93.7323 24.1209C92.1234 23.3215 90.748 22.9219 88.6719 22.6416C88.2307 22.5793 87.12 22.408 86.2066 22.2523C84.7014 21.9979 83.5855 21.8474 82.807 21.7903C82.3347 21.7592 81.0528 21.8111 80.4715 21.8889ZM83.6063 29.5449C82.7396 29.6176 82.0596 29.7578 81.224 30.0329C79.5788 30.583 77.9958 31.3045 77.1913 31.8807C76.6359 32.2803 76.0754 32.8305 75.6446 33.4119C75.219 33.9776 75.1308 34.0659 74.7623 34.2475C74.5339 34.3617 74.3886 34.3981 74.0253 34.4136C73.771 34.4292 73.4596 34.4084 73.3246 34.3773C72.8212 34.2527 71.9855 33.8946 71.4873 33.5883C69.5514 32.3997 67.6154 32.3063 64.3301 33.2562C62.799 33.6973 62.145 34.0607 61.2419 34.969C60.5776 35.6334 60.152 36.2355 59.7108 37.149C59.0776 38.4363 58.8389 39.381 58.7974 40.7564C58.7455 42.2617 58.9271 43.0403 59.7056 44.6234C60.4634 46.1701 61.325 47.5716 62.4253 49.0405C63.2713 50.172 63.401 50.172 64.2886 49.0145C66.2245 46.5075 68.7573 45.1061 72.2191 44.6234C72.8523 44.5351 74.4457 44.4417 75.3228 44.4417C76.1117 44.4417 76.7034 44.3016 77.9335 43.824C79.3037 43.2946 80.4092 42.9261 81.3226 42.7029C84.6132 41.8932 87.2394 42.2721 89.793 43.9123C90.8362 44.5767 91.3915 44.805 91.9884 44.805C92.4244 44.805 92.6839 44.6857 92.9694 44.3638C93.3794 43.8967 93.5714 43.1181 93.6545 41.561C93.7219 40.3152 93.6648 39.8637 93.3482 39.1214C93.0628 38.457 93.0316 38.3065 92.9797 37.3411C92.933 36.3497 92.9174 36.2926 92.44 35.3843C91.0594 32.7319 89.2324 30.9152 87.0889 30.0588C86.4972 29.8252 85.563 29.602 84.9609 29.5501C84.6755 29.5294 84.4056 29.5034 84.3589 29.4982C84.3122 29.4982 83.9748 29.519 83.6063 29.5449ZM82.7811 43.4296C81.6808 43.5956 80.9593 43.8344 77.7207 45.1113C77.5857 45.1632 77.456 45.2566 77.4093 45.3397C77.3418 45.459 77.347 45.5109 77.4508 45.8639C77.5131 46.0819 77.565 46.3726 77.565 46.5127C77.565 46.7774 77.648 46.9228 77.8141 46.9435C77.8608 46.9487 78.2968 46.9539 78.7847 46.9591C79.5736 46.9643 79.6981 46.9799 79.9732 47.0837C80.6687 47.3588 81.0216 48.0387 81.006 49.0872C81.0009 49.6218 80.9541 49.8554 80.7258 50.4835C80.3625 51.4904 79.2829 52.9853 78.5667 53.4784C77.8504 53.9715 76.9162 53.9663 76.0079 53.4628C75.3176 53.0787 74.4872 52.3417 73.9578 51.6306C73.117 50.5094 72.925 49.6218 73.3506 48.8329C73.527 48.5059 74.0253 48.0543 74.5132 47.774C74.8661 47.5716 74.9491 47.5508 75.4941 47.4885C75.8211 47.447 76.1377 47.3899 76.2 47.3536C76.4024 47.2498 76.4906 47.0058 76.4647 46.6477C76.4179 46.0975 76.0962 45.6615 75.6342 45.5213C75.3384 45.4331 73.6049 45.4331 72.9198 45.5213C71.0306 45.7757 69.1362 46.4245 67.7296 47.2965C66.0428 48.345 64.4962 49.9229 63.3439 51.7603C62.3319 53.3798 61.9945 54.3296 61.5793 56.7951C61.3613 58.0772 61.3717 58.4301 61.6675 59.0322C61.7817 59.271 61.9841 59.6136 62.1191 59.79C62.6329 60.47 63.5464 61.207 64.4079 61.6379C64.8906 61.8766 65.8664 62.1881 68.1345 62.8213C69.1673 63.1068 70.47 63.4805 71.0254 63.6466C72.2554 64.0151 72.6447 64.0826 73.3609 64.0463C73.7917 64.0255 73.9941 63.984 74.3315 63.8594C75.1152 63.5687 75.3955 63.5376 77.1705 63.5428H78.7847L80.0822 63.2832C83.788 62.5358 85.7914 61.8092 88.319 60.2883C90.2445 59.136 91.6511 58.046 95.0817 55.0771C96.6699 53.6964 96.6855 53.6756 96.5765 53.1358C96.5038 52.8036 96.0004 51.7344 95.5281 50.9039C93.0368 46.549 89.4919 44.0576 84.8935 43.4296C84.2032 43.3361 83.4039 43.3361 82.7811 43.4296ZM92.6528 58.7727C92.3725 58.9128 92.1182 59.1049 90.6182 60.2987C89.9331 60.8489 89.1079 61.5444 88.7861 61.8455C88.0698 62.5254 87.7636 62.6915 86.6841 62.977C86.2118 63.1016 85.6045 63.3144 85.1737 63.5013C84.1409 63.9476 83.4298 64.1916 82.4178 64.4511C80.6998 64.8871 79.7708 64.9961 76.1896 65.1778C74.7623 65.2505 73.2883 65.3335 72.9146 65.3595C72.0945 65.4165 71.8143 65.3698 70.989 65.0273C70.6153 64.8715 70.0548 64.7055 69.3853 64.5497C68.0618 64.2435 66.2764 63.7296 65.3162 63.3871C64.7245 63.1742 63.6553 62.7331 62.8353 62.3645C62.7938 62.3438 62.773 62.4009 62.773 62.567C62.773 63.0912 63.0585 63.7764 63.6605 64.6847C63.837 64.9546 64.0758 65.3283 64.1899 65.5152C64.3041 65.702 64.5169 65.9823 64.6726 66.1432C64.9581 66.4495 65.0515 66.6467 64.9737 66.8128C64.9477 66.8647 64.7972 67.01 64.6415 67.1398C63.9564 67.6952 63.401 67.908 62.9184 67.8094C62.5031 67.7263 61.8128 67.446 61.5378 67.2488C60.1209 66.2315 59.389 66.4339 58.6105 68.0533C58.4392 68.4063 58.1849 68.8734 58.0396 69.081C57.7178 69.5638 57.4946 70.0361 57.4479 70.3216C57.4064 70.6278 57.5102 71.0223 57.7126 71.3233C57.8009 71.4635 57.8943 71.614 57.9099 71.6607C57.9306 71.7126 57.8683 71.9981 57.7697 72.3044C56.7576 75.4809 56.6434 75.8702 56.5396 76.571C56.4566 77.1523 56.5085 78.1385 56.6486 78.6991C56.8043 79.3012 56.768 79.8202 56.4981 80.905C56.1867 82.1663 56.057 83.0124 55.7923 85.6543C55.4809 88.7219 55.2577 89.8431 54.5726 91.883C54.038 93.4713 53.9082 94.1927 53.6643 96.8658C53.5968 97.6496 53.5034 98.6099 53.4619 98.994C53.2906 100.546 53.2491 101.408 53.2543 103.354C53.2543 106.572 53.5294 109.131 54.1885 112.126C55.1694 116.559 56.4151 120.192 58.1694 123.727C58.8596 125.123 58.9738 125.377 59.1451 125.969C59.3319 126.602 59.8146 128.855 59.8146 129.078C59.8146 129.836 59.2437 130.666 58.2576 131.362C57.4635 131.917 56.6694 132.955 56.0103 134.3C55.3563 135.639 55.0293 136.739 55.0189 137.637C55.0137 138.058 55.0345 138.193 55.1175 138.364C55.5535 139.231 57.3182 139.402 58.7247 138.712C59.2126 138.473 59.742 137.985 59.9651 137.559C60.1572 137.201 60.2714 137.118 60.5309 137.165C60.9357 137.227 61.0447 137.513 60.8682 138.063C60.7125 138.561 60.9046 138.79 61.408 138.691C61.6208 138.649 61.8077 138.66 62.3578 138.748C63.1727 138.878 63.3907 138.883 63.645 138.779C64.029 138.613 64.1899 138.385 64.356 137.746C64.4806 137.264 64.6259 137.108 64.8906 137.17C65.1553 137.227 65.3006 137.383 65.4511 137.777C65.6847 138.385 65.8508 138.489 66.292 138.286C66.4165 138.229 66.6708 138.156 66.8629 138.125C67.5843 138.011 67.6622 137.933 67.7089 137.284C67.74 136.859 67.7556 136.802 67.8801 136.693C68.1085 136.495 68.4614 136.563 68.586 136.828C68.6275 136.905 68.6639 137.258 68.6742 137.689C68.7002 138.478 68.7417 138.66 68.913 138.743C69.0324 138.795 70.3922 138.961 70.714 138.961C71.4094 138.961 72.4215 138.348 72.9821 137.596C73.5063 136.89 73.7917 136.075 74.0045 134.694C74.1654 133.677 74.2277 132.987 74.2692 131.85C74.3626 129.208 74.5028 128.315 75.0426 126.867C75.4111 125.891 75.4993 125.486 75.5252 124.687C75.5564 123.815 75.4733 123.384 75.1567 122.741C74.9024 122.227 74.591 121.837 74.1187 121.443C73.3039 120.758 73.0911 120.503 72.8886 119.969C72.7329 119.554 72.7433 118.972 72.9146 118.438C72.9924 118.214 73.0495 118.007 73.0495 117.986C73.0495 117.96 72.9717 117.815 72.8731 117.664C72.4734 117.036 72.2502 116.309 71.9855 114.768C71.7572 113.408 71.6482 112.977 71.3783 112.308C71.0617 111.524 71.0202 111.368 70.989 110.802C70.9579 110.247 71.0513 109.738 71.2745 109.219L71.3731 108.986L71.8714 110.491C72.4786 112.334 72.6395 112.925 72.8419 114.124C73.0651 115.401 73.1689 115.79 73.4907 116.486C73.8851 117.342 73.9059 117.446 73.7969 117.986C73.5893 119.035 73.854 119.886 74.6585 120.758C75.1048 121.246 76.3712 122.325 76.6775 122.476C77.0719 122.678 77.4352 122.73 78.167 122.699C78.6549 122.683 78.9352 122.642 79.1999 122.559C79.7345 122.393 80.3417 122.055 80.6324 121.775C80.8919 121.521 81.1462 121.074 81.1462 120.862C81.1462 120.799 81.2396 120.249 81.3538 119.642C81.468 119.035 81.5873 118.22 81.6133 117.836C81.6444 117.451 81.6911 117.015 81.7223 116.875C81.8209 116.429 82.1427 115.816 82.7603 114.903C83.4039 113.953 83.6063 113.512 83.6686 112.951C83.7049 112.588 83.7983 112.313 83.9385 112.157C84.172 111.898 84.7793 111.783 85.0907 111.944C85.3191 112.064 85.4125 112.292 85.4229 112.738C85.4281 113.081 85.4177 113.133 85.3035 113.221C85.2256 113.289 85.1011 113.32 84.9402 113.32H84.7014L84.6962 113.699C84.6962 114.207 84.5872 114.394 83.871 115.131C83.1392 115.894 83.0717 116.014 83.0146 116.766C82.9679 117.405 82.833 117.846 82.5216 118.349C81.9714 119.258 81.9558 119.559 82.423 120.083C82.6461 120.327 82.6461 120.467 82.4437 120.981C82.0181 122.05 81.8884 122.969 81.8209 125.336C81.7949 126.306 81.7482 127.334 81.7171 127.62C81.6548 128.294 81.6496 129.493 81.7171 130.215C81.8417 131.611 82.0233 132.623 82.7603 136.002C83.1029 137.606 83.2067 137.902 83.6063 138.426C84.1772 139.184 85.48 140.051 86.0405 140.051C86.2844 140.051 86.6633 139.843 86.7204 139.682C86.7567 139.573 86.736 139.475 86.6114 139.205C86.4038 138.764 86.3675 138.598 86.4401 138.338C86.5076 138.089 86.7412 137.912 86.9851 137.933C87.1875 137.954 87.4159 138.26 87.6443 138.816C87.7377 139.049 87.8882 139.314 87.9712 139.397C88.1269 139.553 88.7394 139.833 89.165 139.942C89.5335 140.041 90.0162 140.009 90.3172 139.874C90.6805 139.703 90.7376 139.496 90.5611 139.008C90.5092 138.857 90.4729 138.556 90.4625 138.141C90.4521 137.544 90.4573 137.487 90.5611 137.367C90.7116 137.196 91.0075 137.181 91.1787 137.341C91.3293 137.482 91.4071 137.726 91.4486 138.182C91.5213 138.919 91.6511 139.065 92.2272 139.065C92.9486 139.065 93.4832 138.899 93.888 138.54C94.1631 138.302 94.2357 138.115 94.2617 137.617C94.2773 137.367 94.3188 137.118 94.3603 137.051C94.4485 136.916 94.6613 136.9 94.9157 137.009C95.3153 137.175 95.388 137.487 95.2219 138.338C95.0766 139.085 95.0662 139.21 95.1388 139.241C95.2374 139.277 95.6163 139.324 96.2236 139.371C96.5402 139.397 96.9294 139.459 97.0903 139.506C97.3447 139.589 97.4069 139.589 97.5574 139.532C97.9571 139.366 98.7771 138.416 99.1404 137.7C99.3896 137.196 99.5038 136.506 99.8567 133.225C99.9605 132.281 100.09 131.201 100.142 130.822C100.324 129.587 100.282 128.787 99.9138 126.561C99.701 125.31 99.675 124.62 99.81 124.1C99.8567 123.924 100.044 123.436 100.225 123.016C100.864 121.531 101.076 120.721 101.076 119.73C101.076 118.988 100.962 118.531 100.583 117.763C100.184 116.948 100.069 116.47 100.106 115.739C100.137 114.965 100.298 114.446 100.838 113.346C101.102 112.811 101.377 112.147 101.543 111.659C101.917 110.517 102.13 110.107 102.602 109.593C102.82 109.359 103.007 109.115 103.023 109.048C103.043 108.98 103.007 108.757 102.95 108.544C102.706 107.672 102.851 106.977 103.526 105.819C104.481 104.184 104.704 103.494 105.104 101.013C105.203 100.375 105.369 99.4352 105.462 98.9317C105.991 96.1911 106.235 93.4764 106.235 90.1701C106.241 87.3049 106.251 87.362 105.14 84.1491C104.284 81.6888 103.988 80.9985 103.37 80.0746C102.841 79.2752 102.426 78.8444 101.569 78.1956C100.999 77.77 100.464 77.1834 99.9086 76.3893C99.1872 75.3668 98.6993 74.7076 98.4502 74.4428C97.9675 73.929 98.0142 73.7837 98.8654 73.0985C99.2131 72.8182 99.5764 72.5016 99.6698 72.3926C100.147 71.8424 100.153 71.3701 99.675 70.6174C99.6128 70.5188 99.6231 70.4721 99.7529 70.1762C99.8826 69.9012 99.9034 69.7818 99.9034 69.434C99.9034 68.9098 99.7581 68.5828 99.1716 67.7679C98.5851 66.9581 98.5072 66.8076 98.3256 66.1484C98.2374 65.8214 98.1284 65.484 98.0868 65.3958C97.7028 64.6328 97.2045 64.5342 96.3741 65.0584C95.8914 65.3595 95.798 65.3646 95.2894 65.0999C94.7755 64.8352 94.4953 64.5705 94.4537 64.311C94.4278 64.1708 94.4641 64.0463 94.6146 63.7296C94.9728 63.003 94.8326 62.7798 93.4365 61.7832C93.042 61.5029 92.933 61.1292 93.1302 60.7295C93.2756 60.4285 93.4572 60.3298 94.0022 60.2676C94.4641 60.2105 94.6717 60.1378 94.7911 59.9925C94.8482 59.925 94.7807 59.8368 94.3447 59.3956C93.5766 58.617 93.2237 58.4872 92.6528 58.7727ZM104.668 106.686C104.325 106.816 104.061 107.06 103.988 107.325C103.91 107.61 103.915 107.714 104.045 108.337C104.144 108.82 104.149 108.929 104.097 109.282C104.019 109.806 103.827 110.283 103.35 111.114C102.758 112.142 102.675 112.323 102.275 113.533C101.725 115.204 101.642 115.552 101.611 116.408C101.58 117.285 101.673 117.758 102.031 118.547C102.161 118.827 102.291 119.169 102.327 119.304C102.426 119.699 102.358 120.239 102.14 120.856C101.455 122.792 101.315 123.306 101.149 124.62C101.045 125.429 101.03 127.355 101.123 128.217C101.242 129.327 101.336 129.846 101.434 129.981C101.528 130.106 101.543 130.111 102.094 130.09C102.452 130.08 102.877 130.106 103.256 130.163C103.646 130.22 104.035 130.246 104.377 130.23C104.881 130.21 104.922 130.194 105.379 129.961C106.054 129.618 106.407 129.545 107.123 129.597C108.125 129.67 108.742 129.649 109.074 129.519C109.625 129.307 109.962 128.974 110.185 128.424C110.304 128.123 110.346 127.308 110.263 126.893C110.133 126.265 110.128 126.317 110.377 126.047C110.678 125.725 110.808 125.502 110.912 125.133C111.005 124.812 111.005 124.879 110.907 122.787C110.881 122.279 110.891 122.102 110.964 121.853C111.114 121.344 111.088 121.08 110.849 120.69C110.393 119.948 110.097 119.237 109.484 117.446C108.654 115.017 108.192 114.083 107.336 113.086C106.474 112.095 106.272 111.622 106.267 110.636C106.267 110.071 106.163 109.811 105.618 108.991C105.343 108.576 105.145 108.217 105.088 108.036C104.979 107.652 104.985 107.19 105.109 106.821L105.213 106.52L105.078 106.557C105.005 106.572 104.818 106.634 104.668 106.686ZM79.5528 123.291C79.4646 123.322 79.2985 123.41 79.1843 123.493C78.8885 123.706 78.5874 123.851 78.3591 123.888C78.1982 123.914 78.0632 123.882 77.7414 123.753C77.2899 123.571 76.8851 123.529 76.6723 123.644C76.5996 123.68 76.4854 123.81 76.4179 123.929C76.3038 124.132 76.2934 124.209 76.2622 125.362C76.2259 126.675 76.1636 127.106 75.9041 127.801C75.8263 128.024 75.6706 128.341 75.5616 128.507C75.3332 128.855 75.3176 129.042 75.437 129.644C75.4785 129.867 75.5045 130.313 75.4993 130.812C75.4941 131.611 75.4837 131.705 75.1256 134.03C75.0529 134.487 75.0114 135.058 75.001 135.665C74.9855 136.547 74.9751 136.615 74.8453 136.885C74.5547 137.497 74.7311 137.777 75.4111 137.809C75.6758 137.824 75.9612 137.783 76.475 137.668C76.8591 137.585 77.9231 137.373 78.8366 137.196C80.4818 136.885 81.0995 136.734 81.25 136.61C81.5873 136.34 81.5873 136.018 81.25 134.44C80.9801 133.179 80.7569 131.995 80.5908 130.967C80.4351 129.992 80.4611 127.599 80.6479 125.907C80.8555 124.002 80.8659 123.856 80.7621 123.664C80.5597 123.265 80.1081 123.125 79.5528 123.291ZM111.477 126.54C111.368 126.654 111.405 127.142 111.55 127.521L111.654 127.775L111.509 128.061C111.114 128.85 111.109 129.353 111.498 129.743C111.711 129.961 111.929 130.08 112.765 130.448C113.59 130.817 115.432 132.177 116.169 132.961C116.72 133.552 117.062 134.123 117.275 134.808C117.373 135.13 117.394 135.302 117.389 135.821C117.373 137.305 116.891 138.078 115.79 138.364C115.624 138.405 115.412 138.442 115.329 138.442C115.017 138.442 115.246 138.494 115.925 138.582C116.995 138.717 119.616 138.701 121.811 138.546C122.927 138.468 124.11 138.421 125.211 138.416L126.897 138.4V137.829C126.892 137.279 126.887 137.248 126.7 136.869C126.456 136.371 126.057 135.961 125.288 135.411C124.624 134.933 122.065 132.878 121.084 132.026C120.711 131.71 120.119 131.17 119.756 130.827C118.723 129.846 117.965 129.27 116.828 128.58C116.081 128.133 114.576 127.391 113.714 127.049C112.292 126.483 111.675 126.343 111.477 126.54ZM108.036 130.734C107.766 130.781 107.045 130.931 106.427 131.071C104.948 131.409 104.59 131.455 103.734 131.419C103.152 131.398 102.934 131.367 102.556 131.253C101.699 130.988 101.258 131.082 101.019 131.57C100.915 131.793 100.91 131.85 100.952 132.338C100.973 132.623 100.993 133.132 100.988 133.459C100.983 134.009 100.957 134.149 100.666 135.296C100.267 136.838 100.194 137.399 100.308 138.084C100.407 138.696 100.376 138.774 99.9034 139.054L99.5608 139.262L99.7736 139.298C100.256 139.381 101.097 139.21 101.502 138.95C101.943 138.67 102.187 138.317 102.405 137.637C102.514 137.3 102.524 137.284 102.556 137.43C102.571 137.513 102.613 137.689 102.639 137.814C102.763 138.364 103.158 138.852 103.578 138.966C103.884 139.049 104.486 138.997 105.016 138.836C105.254 138.769 105.467 138.691 105.493 138.665C105.519 138.639 105.597 138.39 105.67 138.104C105.898 137.201 106.121 136.916 106.36 137.222C106.417 137.295 106.542 137.533 106.63 137.757C106.993 138.629 107.133 138.816 107.59 139.023C107.808 139.122 107.959 139.143 108.524 139.158C109.147 139.174 109.22 139.163 109.433 139.054C109.853 138.841 110.107 138.26 110.107 137.528C110.107 137.17 110.195 136.921 110.362 136.833C110.445 136.791 110.491 136.817 110.642 136.983C110.984 137.362 111.021 137.824 110.761 138.442C110.554 138.93 110.356 139.485 110.382 139.511C110.429 139.563 112.23 139.532 112.479 139.48C112.962 139.376 113.33 139.049 113.626 138.463C113.688 138.343 113.855 137.949 114 137.585C114.337 136.739 114.431 136.558 114.602 136.423C114.856 136.22 115.121 136.309 115.624 136.765C115.874 136.988 116.019 136.978 116.138 136.729C116.361 136.246 116.403 136.106 116.424 135.717C116.46 135.104 116.335 134.808 115.806 134.263C115.339 133.77 114.301 132.821 113.766 132.395C112.671 131.518 111.483 130.931 110.408 130.734C109.879 130.64 108.633 130.64 108.036 130.734Z" fill="white"/>
<path d="M79.6173 23.5313C79.6433 23.5417 79.7315 23.5625 79.8094 23.578C80.0014 23.6195 80.3076 23.9465 80.3439 24.149C80.3958 24.4085 80.2972 24.5798 79.9703 24.7874C79.8042 24.8912 79.6537 25.0002 79.6329 25.0314C79.5706 25.1196 79.5862 25.3843 79.6692 25.6075C79.7834 25.9241 79.773 26.3757 79.6433 26.4899C79.4824 26.6352 79.1191 26.6508 78.844 26.521C78.5585 26.3809 78.216 26.0124 78.0758 25.6958C77.9409 25.3947 77.9305 24.9224 78.0551 24.559C78.1589 24.2476 78.4859 23.8531 78.7558 23.713C78.8959 23.6455 79.5395 23.4794 79.5602 23.5105C79.5654 23.5105 79.5862 23.5209 79.6173 23.5313Z" fill="#FDF390"/>
<path d="M88.4664 24.1907C89.0581 24.3152 89.494 24.6163 89.738 25.0575C89.8729 25.2962 89.8937 25.3949 89.8937 25.727C89.8937 26.3914 89.5615 26.9001 89.0633 27.0143C88.7882 27.0714 88.539 27.0039 88.4301 26.8326C88.3678 26.7444 88.3262 26.542 88.3055 26.2876C88.2743 25.8153 88.1861 25.6648 87.8436 25.4727C87.7242 25.4052 87.4699 25.317 87.283 25.2755C87.0962 25.2391 86.899 25.1665 86.8471 25.1198C86.7329 25.0159 86.7225 24.7409 86.8315 24.5332C86.9353 24.3308 87.1377 24.2322 87.5685 24.1699C88.0045 24.1076 88.1031 24.1128 88.4664 24.1907Z" fill="#FDF390"/>
<path d="M66.6314 25.4555C67.1504 25.5801 67.4826 25.9019 67.6331 26.4314C67.82 27.0594 67.6331 27.6044 67.0414 28.1598C66.346 28.8138 65.4481 28.9591 65.1989 28.4505C65.0744 28.1961 65.1366 27.9626 65.4896 27.3501C65.7179 26.9556 65.7595 26.8414 65.775 26.5611C65.7958 26.286 65.775 26.203 65.6557 25.9798C65.5778 25.8345 65.5311 25.6943 65.5467 25.6684C65.583 25.6061 65.9982 25.4659 66.2525 25.4296C66.3511 25.4192 66.5224 25.4296 66.6314 25.4555Z" fill="#FDF390"/>
<path d="M73.8117 27.4846C73.9466 27.5521 74.0504 27.6455 74.0867 27.7442C74.149 27.8843 74.1386 27.9258 74.0296 28.1179C73.9258 28.3047 73.9051 28.4293 73.8791 29.0106C73.8324 29.9813 73.7027 30.1785 73.0798 30.22C72.7736 30.2408 72.7425 30.2304 72.566 30.0747C72.2806 29.8256 72.1456 29.4311 72.1456 28.829C72.1456 28.4137 72.1664 28.2944 72.265 28.0867C72.4155 27.7805 72.6854 27.5521 73.0176 27.4535C73.3653 27.3497 73.5522 27.3549 73.8117 27.4846Z" fill="#FDF390"/>
<path d="M60.3084 28.7611C60.5472 28.8649 60.8015 29.14 60.8015 29.2853C60.8015 29.4566 60.6977 29.659 60.4434 29.9808C60.1112 30.4013 59.9918 30.6452 59.8673 31.1798C59.7012 31.8858 59.6285 31.9844 59.2652 31.9844C58.85 31.9844 58.5801 31.7041 58.4192 31.1176C58.2843 30.6089 58.2843 30.4999 58.414 30.0691C58.5386 29.6486 58.7514 29.3113 59.0888 29.0102C59.4728 28.6624 59.9036 28.5742 60.3084 28.7611Z" fill="#FDF390"/>
<path d="M96.1139 29.6155C96.4979 29.7557 96.6433 29.9737 96.5343 30.2332C96.5031 30.3163 96.3526 30.5498 96.2073 30.7419C95.8492 31.2142 95.8492 31.3388 96.1969 31.8942C96.4045 32.2212 96.4564 32.3458 96.446 32.4911C96.4253 32.7454 96.2696 32.8181 95.8284 32.7818C95.0862 32.7195 94.6087 32.4288 94.3752 31.9097C94.1987 31.5101 94.2039 30.9132 94.3907 30.5083C94.5568 30.145 94.9097 29.7557 95.1848 29.6311C95.434 29.5169 95.8284 29.5117 96.1139 29.6155Z" fill="#FDF390"/>
<path d="M55.7333 34.9851C56.1952 35.1512 56.3613 35.499 56.3613 36.3087C56.3613 36.9212 56.2523 37.1755 55.7955 37.6375C55.235 38.198 54.5966 38.4057 54.1295 38.1773C53.844 38.0423 53.6728 37.7984 53.7195 37.6063C53.735 37.5388 53.8388 37.3831 53.9478 37.2638C54.2177 36.9679 54.5551 36.2879 54.6589 35.826C54.7731 35.3069 54.9028 35.0734 55.1156 34.9799C55.3336 34.8917 55.4737 34.8917 55.7333 34.9851Z" fill="#FDF390"/>
<path d="M101.051 35.3664C101.362 35.5118 101.772 35.9322 101.917 36.2592C102.125 36.7315 102.094 37.261 101.824 37.8734C101.58 38.4392 100.983 38.8856 100.469 38.896C100.09 38.9063 100.07 38.8544 100.07 37.8527L100.064 36.9807L99.8879 36.6537C99.7374 36.3734 99.5506 36.1761 99.208 35.927C99.1405 35.8803 99.7789 35.3508 99.9658 35.2989C100.314 35.2003 100.76 35.2315 101.051 35.3664Z" fill="#FDF390"/>
<path d="M52.8858 41.1566C52.9429 41.1773 53.0467 41.2604 53.1193 41.3382C53.2699 41.4991 53.2802 41.6808 53.1868 43.3106L53.1297 44.2968L53.2543 44.5771C53.3218 44.7276 53.3788 44.9352 53.3788 45.0339C53.3788 45.1948 53.3581 45.2207 53.1401 45.3193C52.6678 45.527 52.4394 45.3816 51.8945 44.52C51.4325 43.7881 51.3028 43.4611 51.2664 42.9161C51.2094 42.1272 51.4741 41.442 51.9256 41.2033C52.1176 41.0995 52.6834 41.0735 52.8858 41.1566Z" fill="#FDF390"/>
<path d="M98.29 42.3759C98.6689 42.516 99.0011 42.8586 99.0011 43.1181C98.9959 43.2842 98.7987 43.6579 98.534 43.9901C98.2174 44.3846 98.1447 44.5507 98.0721 45.049C97.9475 45.8691 97.7139 46.1027 97.1482 45.9885C96.6188 45.8743 96.3853 45.5161 96.2399 44.6026C96.1309 43.9071 96.3801 43.305 97.0288 42.7029C97.4389 42.3188 97.8385 42.215 98.29 42.3759Z" fill="#FDF390"/>
<path d="M56.1008 44.8191C56.5056 44.9073 56.9208 45.2914 57.1492 45.7793C57.2841 46.07 57.2945 46.1375 57.2945 46.7655C57.2945 47.3884 57.2841 47.4558 57.1647 47.6687C56.9883 47.9853 56.8118 48.0995 56.4744 48.1306C56.1527 48.1566 55.8516 48.0424 55.753 47.8607C55.7167 47.8036 55.6752 47.4714 55.6544 47.1288C55.6129 46.4229 55.5766 46.3087 55.343 46.044C55.1198 45.7845 55.0835 45.4835 55.2548 45.2395C55.4779 44.9125 55.7997 44.7516 56.1008 44.8191Z" fill="#FDF390"/>
<path d="M101.848 47.0845C102.268 47.2143 102.533 47.5672 102.684 48.2005C102.772 48.5742 102.756 48.8648 102.626 49.2541C102.383 49.9912 101.983 50.4272 101.453 50.5362C101.158 50.5985 100.976 50.5829 100.53 50.4583C99.9743 50.3026 99.8912 50.0171 100.265 49.5137C100.618 49.0309 100.618 49.0206 100.654 48.1693C100.68 47.4842 100.701 47.3648 100.789 47.2662C101.012 47.0118 101.407 46.9495 101.848 47.0845Z" fill="#FDF390"/>
<path d="M53.7931 49.7953C54.1564 49.9874 54.2187 50.1535 54.2654 51.1812C54.3069 52.1778 54.3225 52.2349 54.5509 52.702C54.774 53.1484 54.7792 53.3145 54.5664 53.491C54.3848 53.6467 54.0837 53.6726 53.8502 53.5533C53.6789 53.4598 53.191 52.9408 52.8693 52.51C52.5682 52.1051 52.4177 51.7989 52.3139 51.394C52.1271 50.6725 52.4748 49.8991 53.0561 49.7331C53.3519 49.6552 53.544 49.6708 53.7931 49.7953Z" fill="#FDF390"/>
<path d="M58.5244 52.4527C59.1887 52.8004 59.4327 53.8645 59.0434 54.7054C58.8514 55.105 58.322 55.6604 57.9172 55.8784L57.6473 56.0186L57.6265 55.022C57.6057 54.0358 57.6006 54.015 57.4397 53.6153C57.2217 53.0859 57.2165 52.8108 57.4241 52.6084C57.7044 52.3229 58.1559 52.2606 58.5244 52.4527Z" fill="#FDF390"/>
<path d="M58.2237 58.1171C58.4936 58.2105 58.6648 58.3818 58.7219 58.605C58.7479 58.7088 58.7842 59.1084 58.7998 59.4925C58.8206 59.8766 58.8465 60.3594 58.8621 60.5618C58.8932 60.894 58.8828 60.9459 58.7842 61.0445C58.6493 61.1795 58.2496 61.195 57.959 61.0756C57.6787 60.9563 57.3933 60.65 57.2791 60.3438C57.1338 59.9649 57.0144 59.3368 57.0144 58.9735C57.0144 58.2312 57.5282 57.8679 58.2237 58.1171Z" fill="#FDF390"/>
<path d="M84.108 32.4637C85.0734 32.552 86.0595 32.8738 86.7913 33.3513C87.3778 33.7354 88.4678 34.8773 88.5456 35.1887C88.6235 35.5054 88.2394 35.8895 87.9228 35.8116C87.8397 35.7908 87.6892 35.6559 87.5491 35.4742C87.4193 35.3081 87.1702 35.0538 86.9937 34.9136C85.9038 34.0364 85.0838 33.7042 84.0042 33.7042C83.0648 33.7042 82.1254 33.7977 81.6427 33.9378C81.3936 34.0105 81.1341 34.0676 81.0614 34.0676C80.7707 34.0676 80.5216 33.8236 80.5216 33.5433C80.5216 33.2682 81.2482 32.8738 82.2603 32.5987C82.5614 32.5156 83.371 32.4014 83.5319 32.4118C83.5734 32.417 83.8329 32.443 84.108 32.4637Z" fill="white"/>
<path d="M68.1422 35.6205C68.8585 35.6516 69.0505 35.7139 69.4034 36.0046C69.6007 36.1759 69.6422 36.3471 69.5488 36.5807C69.4294 36.8558 69.3204 36.8662 68.4796 36.6793C67.9658 36.5651 67.016 36.5651 66.5437 36.6793C65.298 36.9752 64.0679 37.9043 62.8015 39.503C62.4434 39.9597 62.2358 40.0791 61.9919 39.9805C61.7843 39.8923 61.6286 39.6483 61.6286 39.4044C61.6286 39.0358 61.9088 38.6154 62.6355 37.8783C63.7202 36.7935 64.561 36.2226 65.5939 35.8748C66.1855 35.6724 66.798 35.5634 67.2236 35.579C67.3585 35.5841 67.7685 35.5997 68.1422 35.6205Z" fill="white"/>
<path d="M83.7405 36.2939C84.462 36.4289 85.5519 37.2905 85.8944 37.9912C86.1747 38.5673 86.0501 39.0345 85.4585 39.6314C85.0692 40.0207 84.654 40.3062 84.1921 40.5034C83.9222 40.6176 83.7924 40.6436 83.3772 40.6436C82.9101 40.6436 82.8634 40.6332 82.4845 40.4463C81.7527 40.0934 81.0313 39.4186 80.8081 38.8892C80.5953 38.3753 80.8081 37.8407 81.4776 37.2074C82.2302 36.4963 83.045 36.1641 83.7405 36.2939ZM82.6921 37.1348C82.4897 37.2126 82.2509 37.4981 82.1887 37.7265C81.9966 38.4999 82.8997 39.1227 83.5277 38.6556C84.0467 38.2767 84.0208 37.5708 83.4862 37.2074C83.2994 37.0829 82.9205 37.0465 82.6921 37.1348Z" fill="white"/>
<path d="M69.0102 39.1935C69.8718 39.4738 70.4998 40.1797 70.5465 40.9375C70.6088 41.96 69.576 43.2213 68.3303 43.647C67.8995 43.7923 67.6037 43.7975 67.1521 43.6573C66.6747 43.512 66.2387 43.2421 65.8598 42.858C65.4394 42.4272 65.2422 42.0275 65.237 41.5863C65.237 41.088 65.4186 40.7455 65.9896 40.1745C66.3788 39.7852 66.5138 39.6918 66.9809 39.4686C67.2767 39.3233 67.6296 39.1831 67.7646 39.152C68.1227 39.0689 68.6729 39.0897 69.0102 39.1935ZM68.1123 40.0603C67.8113 40.2108 67.6089 40.6416 67.6712 40.979C67.7542 41.4306 68.1227 41.7057 68.5898 41.6798C68.9376 41.6538 69.1659 41.5085 69.3113 41.223C69.7005 40.4548 68.8805 39.6606 68.1123 40.0603Z" fill="white"/>
<path d="M84.9634 47.071C85.3527 47.1748 85.6381 47.3149 86.3388 47.7561C87.2471 48.3219 88.2695 48.8721 89.1155 49.2406C90.1328 49.6922 90.5636 49.9154 90.984 50.2112C91.6639 50.6888 92.4061 51.5296 92.759 52.2148C92.8991 52.4899 92.8991 52.4899 92.3749 52.1058C90.2574 50.5434 87.382 49.1005 84.0811 47.9378C83.6503 47.7873 83.2818 47.6471 83.261 47.6264C83.2039 47.5745 83.5776 47.2838 83.8631 47.1592C84.1641 47.0243 84.6364 46.9879 84.9634 47.071Z" fill="white"/>
<path d="M70.4633 50.406C69.5031 50.9303 69.1346 51.2417 67.2091 53.183C65.5119 54.8855 65.1174 55.2125 64.1313 55.7056C63.8354 55.8509 63.5863 55.9599 63.5759 55.9495C63.5396 55.9132 64.069 55.0723 64.4427 54.574C65.6831 52.9234 67.5153 51.3507 69.0516 50.6189C69.6848 50.3178 70.1104 50.1984 70.5359 50.1984H70.8422L70.4633 50.406Z" fill="white"/>
<path d="M85.0655 51.5511C86.1035 51.8989 86.9184 52.392 88.2678 53.482C88.6986 53.8298 89.2903 54.3073 89.5913 54.5409C90.1155 54.9613 90.1259 54.9717 89.9546 54.9717C89.6588 54.9717 88.9892 54.7744 88.5481 54.5616C88.0706 54.3281 87.3388 53.8609 86.389 53.1758C85.4807 52.5269 85.2212 52.4179 84.4582 52.3764C83.6226 52.3297 83.4358 52.1844 83.5811 51.6965C83.7108 51.2657 84.1001 51.2241 85.0655 51.5511Z" fill="white"/>
<path d="M71.0753 54.14C71.0753 54.1607 70.9767 54.2697 70.8625 54.3787C70.7431 54.4929 70.3072 54.9964 69.892 55.4947C69.0563 56.4964 68.5477 57.0259 68.1169 57.3477C67.8003 57.5813 67.1983 57.929 67.245 57.8512C67.2605 57.8252 67.4318 57.5242 67.6239 57.1816C68.6982 55.2922 69.4871 54.5292 70.6964 54.2022C70.904 54.1451 71.0753 54.1192 71.0753 54.14Z" fill="white"/>
<path d="M80.1848 55.5319C81.2643 55.615 82.2868 55.8122 83.138 56.1081C84.2746 56.5025 84.7366 56.7932 84.9442 57.25C85.0428 57.4784 85.1362 58.1479 85.0635 58.1479C85.0428 58.1479 84.8196 58.0286 84.5705 57.8832C83.6726 57.3694 82.6086 56.9801 81.5654 56.788C80.7505 56.6375 78.9859 56.6271 78.0568 56.7621C74.9168 57.2292 73.0431 58.1064 70.9307 60.0944C70.1937 60.7847 69.9446 60.8678 69.5709 60.5511C69.2855 60.3124 69.3581 60.1151 69.9757 59.43C72.0933 57.0839 75.4825 55.6461 79.1468 55.5371C79.5724 55.5215 80.0395 55.5215 80.1848 55.5319Z" fill="white"/>
<path d="M90.7387 65.1376C91.0241 65.2778 91.3407 65.7449 91.403 66.1187C91.486 66.6585 90.7854 67.7018 90.1158 68.0288C89.7162 68.226 89.3062 68.2831 88.8131 68.2104C88.5951 68.1793 88.4135 68.1378 88.4135 68.117C88.4135 68.0184 88.6678 67.7069 89.1038 67.2761C89.6695 66.7104 89.7162 66.6066 89.6799 65.9681C89.6487 65.4802 89.6954 65.3505 89.9653 65.1688C90.1729 65.0286 90.4895 65.0131 90.7387 65.1376Z" fill="#FDF390"/>
<path d="M85.8607 66.8607C86.2085 67.2085 86.2137 67.6912 85.8659 68.3919L85.6479 68.8383L85.6739 69.3781C85.6998 69.8816 85.7154 69.9335 85.8919 70.219C86.115 70.5823 86.1306 70.7588 85.949 70.9041C85.7517 71.0546 85.5545 71.0806 85.3054 70.982C84.968 70.847 84.667 70.4577 84.2518 69.6169L83.8885 68.8694L83.9092 68.449C83.9507 67.7327 84.3244 67.1462 84.9473 66.8399C85.3313 66.6479 85.6583 66.6531 85.8607 66.8607Z" fill="#FDF390"/>
<path d="M78.1199 67.0013C78.3067 67.0792 78.4468 67.3127 78.4468 67.5307C78.4468 67.7228 78.2392 68.1588 78.0368 68.3872C77.9486 68.4858 77.7565 68.6259 77.606 68.6882C77.3725 68.7869 77.2739 68.8024 76.9417 68.7765C76.7289 68.7609 76.4434 68.709 76.3085 68.6623L76.0646 68.5792L76.2722 68.3924C76.3967 68.2782 76.5524 68.0498 76.6666 67.811C76.9054 67.2972 77.0714 67.0844 77.2842 66.9961C77.5022 66.9027 77.9019 66.9079 78.1199 67.0013Z" fill="#FDF390"/>
<path d="M71.6194 67.0396C71.8633 67.1537 72.1072 67.4237 72.1228 67.5846C72.1384 67.8441 72.0813 67.9998 71.5363 69.0846C71.0796 70.0033 70.9498 70.3096 70.8823 70.647C70.7734 71.1712 70.6644 71.3062 70.3322 71.3062C70.1921 71.3062 70.0156 71.2594 69.8806 71.1868C69.59 71.0311 69.4395 70.7456 69.3668 70.185C69.3097 69.8009 69.3201 69.7075 69.4395 69.1365C69.5121 68.7888 69.6056 68.4098 69.6523 68.2853C69.8443 67.7403 70.1972 67.3458 70.7007 67.1122C71.0796 66.9409 71.3598 66.915 71.6194 67.0396Z" fill="#FDF390"/>
<path d="M95.607 70.1719C96.0222 70.3536 96.2558 70.8778 96.152 71.3917C95.9392 72.4505 94.9686 73.5405 94.2005 73.582C93.8891 73.5976 93.7749 73.5405 93.7074 73.3433C93.6503 73.1772 93.6659 73.1357 93.9617 72.6062C94.3665 71.8796 94.5274 71.4487 94.5845 70.9193C94.6416 70.4106 94.7039 70.229 94.844 70.1563C94.9842 70.0785 95.415 70.0888 95.607 70.1719Z" fill="#FDF390"/>
<path d="M61.0055 70.2399C61.3377 70.4112 61.4726 70.6915 61.4726 71.221C61.4726 72.3629 60.7512 73.2868 59.5263 73.7072C59.2616 73.7954 59.2201 73.8006 58.9813 73.728C58.5557 73.6034 58.5402 73.4477 58.9035 73.0221C59.1526 72.7262 59.3706 72.2383 59.6093 71.4234C59.8533 70.6137 60.0193 70.3178 60.3048 70.1984C60.5539 70.0946 60.7408 70.105 61.0055 70.2399Z" fill="#FDF390"/>
<path d="M65.7564 70.7327C66.3325 70.9403 66.3844 71.1946 66.0678 72.2535C65.9224 72.731 65.7667 73.7795 65.8083 74.0131C65.8498 74.2415 65.7356 74.4231 65.5124 74.4958C65.2218 74.5892 64.9726 74.501 64.682 74.1948C64.3239 73.8107 64.2512 73.5563 64.2512 72.6428C64.2512 71.9888 64.2668 71.8435 64.3758 71.5372C64.5055 71.1583 64.7183 70.8676 64.9571 70.7431C65.1232 70.66 65.528 70.6548 65.7564 70.7327Z" fill="#FDF390"/>
<path d="M79.5616 70.8059C79.7796 70.9045 79.9872 71.164 80.0547 71.4184C80.1377 71.7298 80.0443 71.9478 79.6343 72.3786C79.2762 72.7523 79.0115 73.2143 78.835 73.7385C78.7208 74.0863 78.5807 74.1849 78.2433 74.1538C77.662 74.0967 77.4856 73.7645 77.4856 72.7368C77.4908 72.1087 77.4959 72.0412 77.6361 71.7402C77.8074 71.3613 78.1291 71.0395 78.4873 70.8837C78.7935 70.7488 79.3488 70.7073 79.5616 70.8059Z" fill="#FDF390"/>
<path d="M73.264 72.1292C73.3678 72.1915 73.5079 72.3368 73.5754 72.4562C73.6844 72.643 73.7 72.7365 73.7 73.2399C73.7 73.733 73.6844 73.8524 73.5702 74.1223C73.3678 74.5999 73.0771 75.0047 72.5322 75.5497C71.7952 76.2972 71.2139 76.5359 70.5132 76.3854C70.2174 76.3231 69.7295 76.1311 69.7295 76.074C69.7295 76.0584 69.8904 75.9546 70.0876 75.8456C70.9232 75.394 71.5512 74.7452 71.8523 74.0185C71.9976 73.6759 72.117 73.188 72.1948 72.6275C72.2467 72.2486 72.4387 72.0617 72.7969 72.0357C73.0148 72.0202 73.1187 72.0409 73.264 72.1292Z" fill="#FDF390"/>
<path d="M90.7191 72.3841C90.9319 72.4775 91.1498 72.7422 91.1862 72.955C91.2225 73.1367 91.1343 73.4274 90.7762 74.2838C90.5374 74.8651 90.4647 75.3219 90.5426 75.7527C90.5789 75.9292 90.6049 76.1679 90.6101 76.2821C90.6153 76.469 90.5945 76.5001 90.4336 76.5884C90.1326 76.7493 89.9042 76.6766 89.5409 76.3029C89.3748 76.1316 89.1932 75.9032 89.1361 75.789C88.7831 75.0935 88.7883 74.071 89.1568 73.2665C89.4786 72.5605 90.2 72.1557 90.7191 72.3841Z" fill="#FDF390"/>
<path d="M84.3903 73.9589C84.738 74.1146 84.9197 74.4884 84.8574 74.9347C84.7173 75.9365 84.0841 76.7151 83.0668 77.1251C82.0962 77.5196 81.4371 77.3587 80.669 76.5438L80.3472 76.196L80.8869 76.1649C81.188 76.1441 81.5357 76.1026 81.6655 76.0663C82.309 75.895 82.7917 75.4486 83.1447 74.7012C83.3938 74.1821 83.4405 74.1094 83.6377 73.9745C83.7882 73.8707 84.1671 73.8603 84.3903 73.9589Z" fill="#FDF390"/>
<path d="M96.6775 76.7933C97.0668 76.9075 97.4664 77.3331 97.6688 77.8417C97.8246 78.2466 97.8142 78.9733 97.6429 79.4716C97.3419 80.328 96.7917 80.873 96.0599 81.0495C95.7641 81.117 95.6084 81.091 95.4371 80.9353C95.2243 80.738 95.2347 80.5771 95.4942 80.0477C95.8471 79.3314 95.9146 78.5788 95.6966 77.7846C95.6551 77.6289 95.6343 77.4265 95.6499 77.3383C95.6914 77.1203 95.925 76.9075 96.226 76.814C96.5063 76.731 96.4855 76.7362 96.6775 76.7933Z" fill="#FDF390"/>
<path d="M62.9799 77.4989C63.0785 77.5248 63.2238 77.6131 63.3017 77.7013C63.4782 77.8985 63.4885 78.1217 63.364 79.0301C63.255 79.7775 63.2861 80.0422 63.5145 80.3796C63.9089 80.9713 63.8882 80.9142 63.774 81.0699C63.6235 81.2776 63.3536 81.4021 63.1408 81.3658C62.6789 81.2828 62.1443 80.8571 61.9055 80.3848C61.7446 80.0682 61.5266 79.2273 61.5266 78.9263C61.5266 78.8017 61.5734 78.5474 61.6356 78.3553C61.8484 77.6598 62.3363 77.3483 62.9799 77.4989Z" fill="#FDF390"/>
<path d="M91.5687 79.6009C91.7347 79.684 91.8697 79.793 91.9164 79.8864C92.0669 80.1719 92.0202 80.3795 91.5739 81.293C91.195 82.0768 91.1534 82.1962 91.1119 82.5855C91.0652 83.0889 90.9718 83.2031 90.6396 83.2031C89.9701 83.2031 89.5549 82.6685 89.5549 81.8121C89.5601 80.8414 90.0116 79.9227 90.65 79.6009C90.9977 79.4296 91.2261 79.4296 91.5687 79.6009Z" fill="#FDF390"/>
<path d="M76.8118 79.8779C77.0609 80.0959 77.1492 80.2828 77.1492 80.589C77.1492 81.461 76.0229 82.2552 74.9537 82.1306C74.606 82.0943 74.1752 81.9438 73.9884 81.7984L73.8638 81.705L74.3776 81.4039C74.8032 81.1496 75.0056 80.9835 75.5714 80.4074C76.1942 79.7689 76.2617 79.717 76.4381 79.717C76.5731 79.717 76.6769 79.7585 76.8118 79.8779Z" fill="#FDF390"/>
<path d="M68.1436 79.9768C68.5173 80.1481 68.6574 80.4232 68.7197 81.0876C68.7976 81.9389 68.4446 82.9043 67.8322 83.5323C67.2146 84.1656 66.68 84.259 66.2544 83.8023C66.0831 83.6206 66.1246 83.3351 66.3738 82.9977C66.4776 82.8576 66.597 82.6396 66.6385 82.515C66.7475 82.1984 66.9291 81.2278 66.9758 80.6931C67.0277 80.1948 67.1108 80.008 67.3184 79.9301C67.526 79.8471 67.9153 79.873 68.1436 79.9768Z" fill="#FDF390"/>
<path d="M102.374 83.1589C102.961 83.3614 103.215 83.8493 103.075 84.5136C102.878 85.4583 102.322 86.2109 101.642 86.4601C101.305 86.5847 100.329 86.5899 100.106 86.4653C99.9295 86.3718 99.779 86.1435 99.779 85.9722C99.779 85.8424 99.971 85.6763 100.199 85.6037C100.443 85.5258 100.942 85.0067 101.087 84.6849C101.149 84.5396 101.206 84.2593 101.227 83.9946C101.274 83.46 101.378 83.2316 101.621 83.1278C101.855 83.0292 102.032 83.0395 102.374 83.1589Z" fill="#FDF390"/>
<path d="M97.5389 83.6648C97.6323 83.7063 97.7776 83.8257 97.8658 83.9295C98.115 84.215 98.0683 84.4226 97.5856 85.1441C96.9628 86.0836 96.8226 86.4417 96.8226 87.1165C96.8226 87.485 96.8122 87.5369 96.6877 87.6615C96.5683 87.7757 96.5216 87.7913 96.2725 87.7705C95.7067 87.7238 95.4991 87.2878 95.5043 86.1718C95.5095 84.9521 95.8676 84.1423 96.5839 83.7323C96.8901 83.5506 97.2638 83.5247 97.5389 83.6648Z" fill="#FDF390"/>
<path d="M86.0266 83.3813C86.3899 83.4747 86.8207 83.9159 86.9608 84.3415C87.0854 84.7101 87.0646 85.281 86.9089 85.8779C86.6494 86.8693 86.3588 87.3261 85.8138 87.596C85.3934 87.8036 84.8848 87.8399 84.7031 87.6738C84.537 87.5233 84.5682 87.3209 84.8484 86.7396C84.9938 86.4541 85.1443 86.0648 85.191 85.8779C85.3104 85.4264 85.274 84.6841 85.1131 84.2014C85.0197 83.9107 85.0093 83.8225 85.056 83.7083C85.1702 83.4384 85.6373 83.2827 86.0266 83.3813Z" fill="#FDF390"/>
<path d="M73.9067 85.4584C74.5243 85.6764 74.7994 86.3875 74.5814 87.2076C74.3427 88.1315 73.7354 88.7284 72.8323 88.9256C72.3704 89.0294 71.0261 88.9152 71.0261 88.7751C71.0261 88.7595 71.1196 88.6921 71.2337 88.6246C71.5452 88.4481 72.1109 87.8979 72.3289 87.5605C72.552 87.218 72.7026 86.7871 72.7908 86.2577C72.8946 85.6089 73.0711 85.3961 73.4915 85.4013C73.6316 85.4013 73.8184 85.4272 73.9067 85.4584Z" fill="#FDF390"/>
<path d="M78.9088 86.0551C79.2721 86.2524 79.3032 86.5275 79.0437 87.2801C78.8361 87.8666 78.7739 88.3649 78.8621 88.7075C78.9866 89.1798 78.9866 89.211 78.8621 89.2784C78.7894 89.3148 78.613 89.3355 78.4209 89.32C77.8656 89.2836 77.6061 88.9982 77.5023 88.3026C77.3985 87.5863 77.5542 86.678 77.8448 86.2939C78.0939 85.9721 78.5559 85.8683 78.9088 86.0551Z" fill="#FDF390"/>
<path d="M64.0907 86.9478C64.1685 86.9738 64.2775 87.0308 64.3346 87.0828C64.6045 87.3267 64.7031 88.2766 64.5162 88.8112C64.2567 89.5586 63.3796 89.9635 62.3519 89.8078C61.7395 89.7143 61.7291 89.704 62.1132 89.5431C62.9903 89.1745 63.3069 88.6866 63.281 87.7731C63.2654 87.2385 63.4107 87.0049 63.7844 86.9322C63.8727 86.9167 64.0076 86.9218 64.0907 86.9478Z" fill="#FDF390"/>
<path d="M68.9325 87.1586C69.384 87.3662 69.4204 87.6828 69.1297 88.9545C68.9636 89.6916 68.9429 89.8317 68.974 90.2158C69.0155 90.7089 68.9636 90.8231 68.6574 90.8802C68.1799 90.9684 67.7024 90.4909 67.4637 89.6812C67.3391 89.2711 67.3339 88.2382 67.4585 87.8749C67.6401 87.3195 67.9567 87.06 68.4342 87.06C68.5951 87.06 68.8079 87.1015 68.9325 87.1586Z" fill="#FDF390"/>
<path d="M57.6843 90.3721C57.9386 90.4396 58.1826 90.6939 58.2552 90.9586C58.2916 91.0884 58.3072 91.3946 58.2968 91.6905C58.2812 92.1109 58.2552 92.2562 58.1411 92.5002C57.7103 93.4241 56.5165 93.8238 55.9612 93.2269C55.7484 93.0037 55.7328 92.8739 55.8989 92.7338C56.3453 92.3704 56.3608 92.3393 56.4854 91.7372C56.6307 91.0209 56.6878 90.8392 56.8124 90.6576C56.994 90.4032 57.3625 90.2787 57.6843 90.3721Z" fill="#FDF390"/>
<path d="M103.856 90.4407C104.028 90.5081 104.427 90.9909 104.599 91.3282C104.894 91.92 104.936 92.6051 104.713 93.1916C104.583 93.5446 104.183 94.0065 103.82 94.2245C103.503 94.4218 102.901 94.6294 102.481 94.6865L102.17 94.728L102.481 94.3958C102.652 94.209 102.865 93.9027 102.958 93.7159C103.114 93.3941 103.125 93.3474 103.119 92.8024C103.119 92.3196 103.093 92.1639 102.969 91.7902C102.735 91.0791 102.787 90.721 103.166 90.4926C103.337 90.3836 103.664 90.3628 103.856 90.4407Z" fill="#FDF390"/>
<path d="M99.0547 91.2608C99.5115 91.4165 99.6879 91.702 99.7191 92.3248C99.7658 93.202 99.4959 93.8664 98.7952 94.5775C98.3021 95.081 97.8921 95.3145 97.4146 95.3768C96.8178 95.4495 96.252 95.1484 96.252 94.7488C96.252 94.5827 96.2676 94.5671 96.5219 94.4789C96.8956 94.3491 97.2693 93.9754 97.5132 93.4771C97.7001 93.1034 97.752 92.9061 97.944 92.003C98.053 91.458 98.2399 91.24 98.6187 91.214C98.7589 91.2037 98.9561 91.2244 99.0547 91.2608Z" fill="#FDF390"/>
<path d="M87.6832 92.6144C88.005 92.7753 88.1607 93.0711 88.1918 93.5591C88.2282 94.1975 87.8856 94.9345 87.242 95.5885C86.7957 96.0505 86.4064 96.2529 85.9912 96.2529C85.685 96.2529 85.5189 96.1699 85.3321 95.9104L85.2283 95.7754L85.493 95.4847C85.8251 95.1214 86.012 94.7373 86.2559 93.9016C86.4791 93.1542 86.64 92.7649 86.7957 92.6092C86.9514 92.4535 87.3718 92.4587 87.6832 92.6144Z" fill="#FDF390"/>
<path d="M61.3627 92.933C61.6897 93.0472 61.8194 93.1562 61.8973 93.3897C61.97 93.6181 61.9233 93.8569 61.7105 94.3396C61.4665 94.8898 61.4198 95.1026 61.399 95.7722C61.3887 96.0992 61.3679 96.4106 61.3471 96.4625C61.2797 96.6857 60.7399 96.7532 60.47 96.5663C60.2157 96.3899 59.9821 96.0473 59.8939 95.7151C59.7745 95.2428 59.7849 94.1112 59.9198 93.7323C60.0548 93.3534 60.2572 93.0991 60.5427 92.9486C60.8177 92.8136 60.9994 92.8084 61.3627 92.933Z" fill="#FDF390"/>
<path d="M70.966 93.469C71.3345 93.5728 71.5421 93.8116 71.5421 94.1334C71.5421 94.2216 71.4383 94.559 71.3137 94.8756C70.9452 95.8203 70.8778 96.3861 71.075 96.8273C71.2515 97.2166 71.1944 97.4449 70.883 97.5643C70.665 97.6474 70.4833 97.6162 70.2394 97.4657C69.492 96.9882 69.2636 95.1248 69.8242 94.04C69.9591 93.7804 70.2394 93.5209 70.4574 93.4586C70.665 93.3963 70.7324 93.4015 70.966 93.469Z" fill="#FDF390"/>
<path d="M80.4427 92.9852C80.6866 93.0631 80.8008 93.1461 80.8839 93.3122C81.0032 93.5458 80.9565 93.8572 80.7126 94.4697C80.4531 95.1133 80.3856 95.4196 80.3856 95.9646C80.3856 96.3071 80.4116 96.4421 80.5154 96.6653C80.6814 97.0234 80.6814 97.1688 80.5154 97.2778C80.0638 97.5736 79.358 97.0909 79.1036 96.3123C78.9687 95.9075 78.9687 94.2413 79.0984 93.8157C79.2023 93.4835 79.3631 93.224 79.5656 93.0786C79.7213 92.9593 80.2091 92.9125 80.4427 92.9852Z" fill="#FDF390"/>
<path d="M65.7982 94.8201C66.0733 94.8928 66.3276 95.1523 66.4055 95.4326C66.4885 95.7233 66.4055 96.2683 66.229 96.6524C65.928 97.3064 65.1754 97.7112 64.4177 97.6386C63.9869 97.5919 63.8208 97.5244 63.7326 97.3479C63.5717 97.0417 63.6287 96.9171 64.1062 96.6057C64.4384 96.3825 64.5266 96.2475 64.6772 95.7129C64.8329 95.1523 64.9522 94.9499 65.1806 94.8409C65.3778 94.7475 65.5076 94.7423 65.7982 94.8201Z" fill="#FDF390"/>
<path d="M56.1616 97.0871C56.3537 97.1701 56.5198 97.3726 56.5976 97.6165C56.6703 97.8345 56.608 98.0525 56.3641 98.4678C56.1357 98.8467 56.0267 99.2411 56.0267 99.672C56.0267 99.9886 56.0163 100.03 55.8969 100.108C55.7983 100.17 55.7101 100.186 55.5388 100.16C55.1288 100.098 54.9471 99.8744 54.8122 99.293C54.6409 98.5716 55.0198 97.5179 55.5751 97.1753C55.8139 97.03 55.9748 97.004 56.1616 97.0871Z" fill="#FDF390"/>
<path d="M102.608 98.383C102.863 98.4765 103.029 98.6581 103.101 98.928C103.179 99.2239 103.034 99.525 102.598 99.961C101.96 100.599 101.129 101.056 100.621 101.056C100.294 101.056 100.133 100.963 100.07 100.75C100.029 100.599 100.039 100.532 100.164 100.293C100.345 99.9506 101.337 98.9021 101.778 98.5855C102.157 98.3208 102.323 98.2792 102.608 98.383Z" fill="#FDF390"/>
<path d="M98.048 98.6764C98.24 98.7906 98.3749 99.0241 98.3749 99.2369C98.3749 99.32 98.2348 99.6781 98.0583 100.031C97.4926 101.183 97.285 101.822 97.285 102.439C97.285 102.969 97.1241 103.125 96.7348 102.959C96.3456 102.798 96.1328 102.491 96.0134 101.915C95.9511 101.604 95.9511 101.542 96.0705 101.022C96.138 100.716 96.2314 100.348 96.2781 100.208C96.4857 99.5743 96.9892 98.8269 97.3421 98.6504C97.5445 98.5414 97.8507 98.5518 98.048 98.6764Z" fill="#FDF390"/>
<path d="M87.7591 99.2537C87.8733 99.2953 88.0446 99.3887 88.138 99.4614C88.6726 99.8662 88.6518 100.38 88.0601 101.288C87.837 101.631 87.7124 101.963 87.5307 102.7C87.4373 103.058 87.4269 103.224 87.4529 103.583C87.484 103.998 87.4788 104.034 87.375 104.128C87.2868 104.211 87.1882 104.231 86.9131 104.231C86.6121 104.231 86.5342 104.211 86.3733 104.086C86.1605 103.925 85.9166 103.458 85.7868 102.955C85.7246 102.721 85.6986 102.41 85.6986 101.896C85.6986 100.769 85.8751 100.214 86.4097 99.6482C86.8301 99.1967 87.2608 99.0721 87.7591 99.2537Z" fill="#FDF390"/>
<path d="M92.9913 90.0464C93.2742 89.9878 93.5751 90.0561 93.7604 90.2257C94.199 90.6217 94.1448 91.6541 93.6483 92.3999C93.3527 92.8473 92.724 93.5069 92.4529 93.6602C92.1231 93.8467 91.6962 93.8615 91.2953 93.7006C91.0292 93.5887 90.6439 93.3712 90.6082 93.308C90.6031 93.299 90.685 93.2646 90.7907 93.2406C90.9009 93.214 91.1556 93.1058 91.3544 92.9933C91.6823 92.8139 91.7443 92.755 91.9368 92.4732C92.1746 92.1241 92.263 91.8058 92.2752 91.2264C92.2852 90.7378 92.3676 90.4408 92.5312 90.2767C92.6948 90.1126 92.6994 90.1101 92.9913 90.0464Z" fill="#FDF390"/>
<path d="M60.2177 99.8682C60.4772 99.9979 60.5551 100.2 60.5239 100.631C60.4876 101.155 60.2488 101.602 59.8336 101.918C59.2056 102.391 58.3492 102.515 57.825 102.204C57.6226 102.09 57.0621 101.529 57.0621 101.451C57.0621 101.431 57.2801 101.42 57.5448 101.42C58.1157 101.415 58.4634 101.311 58.7645 101.052C58.9565 100.891 59.2939 100.33 59.2939 100.174C59.2939 100.143 59.3613 100.05 59.4444 99.972C59.6364 99.7851 59.9686 99.7436 60.2177 99.8682Z" fill="#FDF390"/>
<path d="M66.1165 100.262C66.1996 100.304 66.2982 100.381 66.3345 100.433C66.4331 100.563 66.4228 100.932 66.3034 101.378C66.2307 101.664 66.1996 101.939 66.1996 102.421C66.1996 102.982 66.2152 103.127 66.3293 103.454C66.4591 103.838 66.4851 104.046 66.428 104.207C66.3761 104.337 66.1269 104.44 65.8674 104.44C65.6754 104.44 65.5975 104.409 65.447 104.274C65.1719 104.036 65.0422 103.74 64.7827 102.728L64.5491 101.814L64.6218 101.43C64.7308 100.838 64.8346 100.584 65.037 100.387C65.2031 100.226 65.2446 100.21 65.5923 100.195C65.857 100.184 66.0076 100.205 66.1165 100.262Z" fill="#FDF390"/>
<path d="M77.5644 100.982C77.8187 101.159 77.9381 101.413 77.9121 101.714C77.8913 101.979 77.8291 102.078 77.2893 102.716C77.1232 102.913 76.8429 103.282 76.6665 103.541C76.3499 104.003 76.3447 104.014 76.3135 104.444C76.2824 104.964 76.2149 105.041 75.8568 105.005C75.5298 104.969 75.343 104.766 75.2807 104.372C75.1042 103.287 75.4001 102.322 76.1475 101.538C76.7443 100.915 77.2011 100.733 77.5644 100.982Z" fill="#FDF390"/>
<path d="M81.2949 101.457C81.4298 101.503 81.6426 101.649 81.7983 101.804C82.0267 102.028 82.089 102.126 82.1824 102.453C82.3329 102.941 82.3485 103.735 82.2187 104.026C82.0994 104.291 81.8451 104.566 81.5855 104.722C81.3883 104.836 81.3105 104.851 80.9523 104.836L80.5475 104.82L80.5631 104.405C80.5787 104.078 80.5475 103.834 80.4178 103.263C80.1427 102.069 80.1894 101.612 80.5994 101.441C80.8226 101.348 81.0042 101.353 81.2949 101.457Z" fill="#FDF390"/>
<path d="M99.4166 105.52C99.593 105.582 99.8889 105.935 99.9875 106.189C100.288 107.004 100.076 107.736 99.3854 108.229C99.0792 108.447 98.0152 108.837 98.0152 108.733C98.0152 108.717 98.1242 108.535 98.2591 108.333C98.7366 107.591 98.8197 107.087 98.5654 106.485C98.3993 106.091 98.3941 105.956 98.5446 105.769C98.7263 105.535 99.1415 105.421 99.4166 105.52Z" fill="#FDF390"/>
<path d="M61.8002 105.849C62.0649 105.911 62.231 106.025 62.3037 106.202C62.3867 106.404 62.3815 106.57 62.2777 107.188C62.1843 107.743 62.1947 108.366 62.3037 108.75C62.3712 108.989 62.3712 109.767 62.2985 109.902C62.2258 110.037 61.9508 110.152 61.7639 110.115C61.4266 110.048 61.0529 109.477 60.7311 108.537C60.539 107.992 60.4768 107.499 60.5442 107.094C60.6947 106.15 61.1567 105.693 61.8002 105.849Z" fill="#FDF390"/>
<path d="M58.3015 105.997C58.6129 106.148 58.8828 106.61 58.8828 106.988C58.8828 107.461 58.4883 108.234 58.016 108.686C57.7513 108.94 57.1752 109.257 56.8793 109.314C56.5005 109.381 56.1423 109.148 55.8984 108.665C55.8154 108.499 55.8154 108.488 55.9088 108.395C55.9607 108.343 56.1631 108.187 56.3603 108.052C56.8586 107.71 56.9157 107.616 56.9624 107.087C57.0247 106.423 57.2167 106.127 57.6838 105.971C57.9226 105.888 58.099 105.893 58.3015 105.997Z" fill="#FDF390"/>
<path d="M84.3136 106.908C84.5938 107.064 84.7288 107.375 84.7911 108.04C84.9208 109.42 84.6717 109.914 83.8257 109.971C83.2963 110.002 83.26 109.96 83.3067 109.332C83.3326 108.995 83.3222 108.824 83.2755 108.735C83.1873 108.574 83.1821 107.298 83.2652 107.142C83.4157 106.867 84.0022 106.737 84.3136 106.908Z" fill="#FDF390"/>
<path d="M93.9942 107.179C94.2122 107.273 94.4198 107.532 94.4872 107.792C94.5651 108.062 94.5599 108.648 94.4872 108.934C94.2537 109.8 93.4544 110.506 92.4735 110.714C92.0998 110.797 91.2693 110.818 91.2693 110.75C91.2693 110.724 91.342 110.641 91.4302 110.553C91.8403 110.169 92.3541 109.354 92.5357 108.804C92.5825 108.669 92.6655 108.347 92.7226 108.088C92.842 107.537 92.9665 107.304 93.2105 107.19C93.4233 107.091 93.7814 107.086 93.9942 107.179Z" fill="#FDF390"/>
<path d="M68.0429 107.511C68.7851 107.859 68.7592 108.788 67.9858 109.597C67.3526 110.262 66.3873 110.469 65.37 110.158C65.1831 110.101 64.9392 110.007 64.825 109.945L64.6174 109.841L64.7472 109.789C64.8198 109.758 65.1312 109.613 65.4478 109.468C66.3509 109.042 66.7091 108.72 67.0568 108.04C67.3474 107.464 67.6277 107.319 68.0429 107.511Z" fill="#FDF390"/>
<path d="M74.6925 107.714C75.0455 107.818 75.1025 108.124 74.8897 108.784C74.7237 109.313 74.4434 109.78 74.0697 110.149C73.3638 110.849 73.0784 110.683 73.0732 109.578C73.0732 108.659 73.3171 108.135 73.8777 107.854C74.215 107.688 74.4642 107.647 74.6925 107.714Z" fill="#FDF390"/>
<path d="M79.42 107.814C79.6899 107.944 79.7833 108.084 79.8871 108.509C79.965 108.821 79.965 108.873 79.8819 109.194C79.5965 110.378 78.3612 111.66 77.3959 111.779C76.908 111.842 76.4668 111.639 76.3215 111.286C76.2125 111.027 76.2903 110.897 76.7004 110.617C77.4166 110.129 77.7592 109.615 78.1329 108.473C78.2626 108.079 78.3924 107.892 78.6052 107.783C78.818 107.674 79.1657 107.684 79.42 107.814Z" fill="#FDF390"/>
<path d="M90.3092 108.12C90.5064 108.208 90.7296 108.452 90.7711 108.623C90.8178 108.836 90.6932 109.158 90.2884 109.864C89.8317 110.658 89.7123 111.021 89.7123 111.608C89.7123 111.976 89.6967 112.059 89.6085 112.148C89.4839 112.272 89.432 112.277 89.1673 112.153C88.8819 112.023 88.6328 111.763 88.4719 111.421C88.2072 110.855 88.3369 109.931 88.8144 109.023C89.2452 108.198 89.7746 107.881 90.3092 108.12Z" fill="#FDF390"/>
<path d="M68.7983 113.429C69.1564 113.533 69.3277 113.772 69.3225 114.15C69.3173 114.389 69.2706 114.581 68.9903 115.479L68.7776 116.154L68.8658 116.491C68.98 116.943 68.9696 117.047 68.8243 117.14C68.461 117.379 67.9679 117.239 67.7032 116.818C67.2361 116.087 67.2257 115.033 67.6669 114.052C67.9108 113.502 68.3156 113.278 68.7983 113.429Z" fill="#FDF390"/>
<path d="M98.143 113.489C98.3091 113.578 98.5374 113.806 98.6153 113.956C98.8073 114.325 98.6101 114.844 98.0703 115.394C97.6811 115.789 97.323 116.012 96.7936 116.188C96.4925 116.287 96.3316 116.308 95.8541 116.297C95.5323 116.297 95.2261 116.266 95.169 116.235C95.0289 116.157 94.9251 115.851 94.9978 115.716C95.0289 115.664 95.2106 115.508 95.4026 115.379C95.5998 115.254 96.1136 114.813 96.5496 114.403C97.5513 113.469 97.8264 113.313 98.143 113.489Z" fill="#FDF390"/>
<path d="M59.9981 113.464C60.3666 113.594 60.5275 113.916 60.434 114.331C60.4081 114.461 60.3251 114.746 60.2628 114.959C60.1953 115.172 60.0863 115.608 60.0188 115.93C59.9047 116.495 59.9047 116.521 59.9877 116.791C60.1019 117.16 60.0967 117.274 59.9617 117.367C59.7905 117.487 59.3753 117.476 59.1625 117.341C58.8251 117.134 58.5915 116.589 58.5189 115.857C58.4099 114.71 58.6694 113.724 59.1417 113.48C59.313 113.391 59.7645 113.381 59.9981 113.464Z" fill="#FDF390"/>
<path d="M92.5762 114.513C92.7527 114.663 92.8253 114.814 92.8253 115.027C92.8253 115.234 92.7267 115.4 92.3115 115.873C91.725 116.547 91.4914 117.176 91.5485 117.949C91.5641 118.177 91.6056 118.489 91.6472 118.634C91.6887 118.785 91.7042 118.909 91.6835 118.909C91.6056 118.909 91.0555 118.271 90.905 118.011C90.3185 116.999 90.4534 115.925 91.2735 115.047C91.8599 114.419 92.27 114.253 92.5762 114.513Z" fill="#FDF390"/>
<path d="M79.2526 115.6C79.3097 115.626 79.4238 115.709 79.5017 115.792C80.0051 116.296 79.9065 116.805 79.1695 117.495C78.6038 118.029 78.2924 118.175 77.7215 118.175C77.1765 118.175 76.8288 118.081 76.6056 117.869C76.3409 117.619 76.2526 117.121 76.4447 116.997C76.4758 116.976 76.673 116.955 76.8807 116.955C77.244 116.955 77.2803 116.945 77.6125 116.732C77.8305 116.587 78.064 116.374 78.2353 116.156C78.6245 115.668 78.9619 115.486 79.2526 115.6Z" fill="#FDF390"/>
<path d="M65.0312 116.683C65.3841 116.865 65.6229 117.223 65.6281 117.565C65.6281 118.11 64.8703 119.2 64.2734 119.507C63.8323 119.73 63.2146 119.616 63.0589 119.283L62.9759 119.112L63.5468 117.996C64.1852 116.745 64.3098 116.595 64.6575 116.595C64.7769 116.6 64.943 116.636 65.0312 116.683Z" fill="#FDF390"/>
<path d="M87.7582 118.537C88.0489 118.641 88.215 118.776 88.3292 118.999C88.4641 119.269 88.407 119.565 88.1112 120.115C87.5247 121.22 87.4624 121.361 87.4365 121.729C87.4209 121.978 87.4365 122.155 87.4987 122.331C87.5714 122.549 87.5714 122.591 87.5091 122.695C87.3223 122.97 86.9226 122.887 86.5749 122.503C86.279 122.176 86.0974 121.802 86.0195 121.361C85.9624 121.039 85.9676 120.971 86.1233 120.323C86.2116 119.938 86.3413 119.497 86.4088 119.336C86.7098 118.599 87.1718 118.324 87.7582 118.537Z" fill="#FDF390"/>
<path d="M96.601 119.798C96.6633 119.809 96.7931 119.897 96.8917 119.991C97.1408 120.219 97.255 120.634 97.255 121.267C97.255 121.864 97.1149 122.316 96.7671 122.825C96.1755 123.697 95.589 123.998 94.8831 123.79C94.7222 123.743 94.5873 123.691 94.5873 123.676C94.5873 123.665 94.717 123.39 94.8727 123.069C95.2049 122.389 95.3969 121.755 95.4748 121.096C95.5059 120.831 95.5423 120.52 95.5526 120.401C95.6097 119.923 96.0197 119.689 96.601 119.798Z" fill="#FDF390"/>
<path d="M61.8642 120.614C62.1445 120.738 62.3781 121.019 62.4871 121.351C62.6635 121.875 62.4922 123.142 62.1653 123.739C61.9836 124.071 61.5943 124.434 61.3297 124.517C61.0442 124.6 60.7691 124.538 60.5771 124.351L60.4214 124.195L60.4681 123.562C60.494 123.214 60.5096 122.524 60.4992 122.031C60.4888 121.242 60.494 121.112 60.5823 120.915C60.6549 120.754 60.738 120.666 60.8677 120.603C61.1117 120.484 61.5995 120.489 61.8642 120.614Z" fill="#FDF390"/>
<path d="M71.8946 123.933C72.0399 124.016 72.2527 124.322 72.3513 124.603C72.5901 125.288 72.206 126.243 71.5417 126.58C71.2874 126.71 71.2147 126.726 70.8877 126.705C70.4725 126.684 70.2389 126.57 70.0884 126.326C70.0158 126.212 70.0002 126.129 70.0313 126.02C70.0625 125.89 70.104 125.859 70.2857 125.828C70.7735 125.745 70.8358 125.641 70.867 124.784C70.8929 124.13 70.8981 124.115 71.0382 123.99C71.1576 123.892 71.2406 123.866 71.4794 123.866C71.6403 123.871 71.8271 123.897 71.8946 123.933Z" fill="#FDF390"/>
<path d="M86.4795 124.74C86.8116 124.901 87.014 125.16 87.014 125.414C87.014 125.71 86.9258 125.887 86.4846 126.473C86.2718 126.759 86.0642 127.049 86.0279 127.117C85.8307 127.496 85.867 127.818 86.1629 128.217C86.2615 128.352 86.3393 128.508 86.3393 128.57C86.3393 128.705 86.1784 128.871 86.0071 128.918C85.6854 128.996 84.8497 128.389 84.6266 127.916C84.3671 127.366 84.4449 126.624 84.8446 125.84C85.3739 124.792 85.8878 124.444 86.4795 124.74Z" fill="#FDF390"/>
<path d="M97.0614 127.101C97.3053 127.252 97.5856 127.61 97.6894 127.906C97.7984 128.222 97.8088 128.996 97.7102 129.468C97.5026 130.433 96.8019 131.103 95.9974 131.103C95.7587 131.103 95.577 130.999 95.577 130.864C95.577 130.838 95.6912 130.631 95.8365 130.407C96.2517 129.743 96.2984 129.172 96.013 128.15C95.8313 127.485 95.8884 127.267 96.2881 127.06C96.4645 126.971 96.8797 126.992 97.0614 127.101Z" fill="#FDF390"/>
<path d="M93.3196 128.912C93.6777 128.99 93.9632 129.333 93.8905 129.603C93.875 129.67 93.6155 130.002 93.3196 130.345C92.6397 131.118 92.4321 131.456 92.3543 131.933C92.3127 132.156 92.2505 132.338 92.1934 132.395C92.0532 132.535 91.773 132.525 91.5913 132.369L91.446 132.245V131.549C91.446 130.755 91.5083 130.516 91.8404 129.997C92.0636 129.655 92.5722 129.094 92.7435 129.001C92.9096 128.912 93.1483 128.876 93.3196 128.912Z" fill="#FDF390"/>
<path d="M69.0316 129.159C69.6493 129.429 69.8465 130.514 69.4365 131.36C69.1354 131.977 68.331 132.616 67.8587 132.616C67.4901 132.616 67.0127 132.164 67.1372 131.936C67.1632 131.889 67.2774 131.77 67.3967 131.676C67.5421 131.562 67.6666 131.391 67.7756 131.168C67.9209 130.856 67.9365 130.768 67.9625 130.124C67.9936 129.408 68.0351 129.237 68.222 129.138C68.3569 129.065 68.8396 129.076 69.0316 129.159Z" fill="#FDF390"/>
<path d="M63.8788 130.509C64.1019 130.577 64.3563 130.795 64.4549 130.997C64.5587 131.22 64.5016 131.521 64.3251 131.682C64.1331 131.848 63.6296 132.502 63.3701 132.918C63.1625 133.255 63.1158 133.369 63.0847 133.686C63.0328 134.137 62.9186 134.272 62.6176 134.226C62.1764 134.153 62.0311 133.899 62.0051 133.151C61.9688 132.232 62.1868 131.578 62.7162 131.013C63.1106 130.587 63.5414 130.405 63.8788 130.509Z" fill="#FDF390"/>
<path d="M87.9777 131.81C88.3099 132.013 88.4967 132.444 88.4033 132.786C88.341 133.015 88.0192 133.347 87.3964 133.824C86.9293 134.188 86.4518 134.676 86.1923 135.054C86.021 135.298 86.0158 135.304 85.7978 135.283C85.0712 135.2 84.8844 134.297 85.3826 133.31C85.6525 132.776 86.5556 131.987 87.1161 131.79C87.4223 131.681 87.7805 131.691 87.9777 131.81Z" fill="#FDF390"/>
<path d="M94.983 133.447C95.2061 133.556 95.2892 133.737 95.2788 134.096C95.2684 134.568 95.1231 134.994 94.8895 135.258C94.5418 135.653 94.1214 135.803 93.3948 135.803C92.9899 135.798 92.2893 135.699 92.227 135.637C92.2114 135.622 92.419 135.466 92.6889 135.289C93.2443 134.926 93.618 134.521 93.9449 133.924C94.0643 133.706 94.2096 133.514 94.3031 133.457C94.4899 133.343 94.765 133.338 94.983 133.447Z" fill="#FDF390"/>
<path d="M106.872 114.703C107.22 114.864 107.277 115.025 107.277 115.825C107.277 116.447 107.267 116.52 107.142 116.785C106.976 117.133 106.379 117.787 106.104 117.927C105.741 118.114 105.243 118.015 105.103 117.724C105.014 117.543 105.046 117.444 105.305 117.06C105.549 116.707 105.616 116.442 105.689 115.565C105.731 115.062 105.767 114.958 105.969 114.771C106.151 114.6 106.582 114.568 106.872 114.703Z" fill="#FDF390"/>
<path d="M109.414 120.272C109.72 120.485 109.85 120.724 109.85 121.066C109.85 121.575 109.383 122.229 108.682 122.696C108.075 123.101 107.8 123.189 107.115 123.189C106.575 123.195 106.528 123.184 106.404 123.07C106.248 122.925 106.186 122.696 106.264 122.551C106.295 122.494 106.45 122.359 106.611 122.255C106.767 122.151 107.286 121.658 107.764 121.16C108.241 120.662 108.693 120.22 108.77 120.179C108.983 120.065 109.139 120.091 109.414 120.272Z" fill="#FDF390"/>
<path d="M104.917 121.432C105.073 121.536 105.099 121.588 105.115 121.785C105.13 121.977 105.078 122.117 104.767 122.745C104.378 123.534 104.082 124.344 103.978 124.91C103.942 125.107 103.9 125.263 103.879 125.263C103.802 125.263 103.454 124.645 103.36 124.339C103.231 123.913 103.231 123.597 103.366 123.161C103.511 122.688 104.009 121.686 104.186 121.51C104.393 121.302 104.679 121.271 104.917 121.432Z" fill="#FDF390"/>
<path d="M106.732 125.499C106.93 125.576 107.116 125.753 107.184 125.924C107.293 126.173 107.283 126.957 107.168 127.315C107.065 127.637 106.805 127.928 106.572 127.98C106.338 128.031 105.985 127.964 105.788 127.829C105.544 127.663 105.565 127.476 105.871 127.066C106.141 126.708 106.172 126.531 106.001 126.256C105.788 125.909 106.001 125.519 106.431 125.483C106.556 125.473 106.691 125.478 106.732 125.499Z" fill="#FDF390"/>
<path d="M79.2535 125.986C79.4975 126.23 79.5546 126.5 79.5234 127.216C79.4975 127.912 79.3729 128.296 79.1134 128.55C78.911 128.747 78.7189 128.825 78.4542 128.825C78.0857 128.825 78.0131 128.675 78.1325 128.156C78.1636 128.01 78.1636 127.668 78.1376 127.201C78.1117 126.801 78.1065 126.412 78.1221 126.329C78.1792 126.038 78.5321 125.815 78.9317 125.815C79.0304 125.815 79.1393 125.872 79.2535 125.986Z" fill="#FDF390"/>
<path d="M78.1836 130.622C78.4016 130.674 78.6092 130.825 78.6922 130.991C78.796 131.188 78.7701 131.463 78.604 132.112C78.4898 132.543 78.4483 132.828 78.4483 133.14C78.4483 133.7 78.5365 134.313 78.6611 134.645C78.7856 134.972 78.7856 135.008 78.6507 135.133C78.386 135.382 78.0383 135.294 77.6594 134.889C77.1352 134.323 76.9068 133.664 76.8549 132.621C76.8238 131.853 76.8964 131.437 77.1404 131.038C77.3635 130.674 77.758 130.513 78.1836 130.622Z" fill="#FDF390"/>
<path d="M116.743 129.411C117.236 129.582 117.449 129.748 117.537 130.039C117.61 130.288 117.537 130.48 117.345 130.527C117.272 130.542 117.049 130.522 116.847 130.475C116.266 130.345 115.788 130.366 115.477 130.537C115.243 130.662 114.947 130.999 114.864 131.233C114.802 131.414 114.75 131.155 114.75 130.636C114.75 130.138 114.766 130.023 114.864 129.847C115.186 129.24 115.83 129.094 116.743 129.411Z" fill="#FDF390"/>
<path d="M119.339 132.314C119.687 132.387 120.066 132.802 120.2 133.253C120.361 133.798 120.268 134.816 120.003 135.387C119.749 135.942 119.079 136.409 118.55 136.409C118.052 136.409 117.969 136.207 118.285 135.781C118.721 135.184 118.799 134.535 118.545 133.591C118.306 132.688 118.384 132.449 118.96 132.319C119.074 132.298 119.24 132.293 119.339 132.314Z" fill="#FDF390"/>
<path d="M123.988 135.286C124.393 135.691 124.357 137.04 123.921 137.518C123.604 137.871 122.561 138 122.4 137.705C122.359 137.622 122.369 137.554 122.462 137.383C122.551 137.217 122.592 136.999 122.639 136.438C122.675 136.038 122.727 135.654 122.758 135.582C122.862 135.317 123.22 135.115 123.578 135.115C123.781 135.115 123.843 135.141 123.988 135.286Z" fill="#FDF390"/>
<path d="M112.23 132.6C112.77 133.067 112.791 133.747 112.282 134.697C112.08 135.081 111.743 135.398 111.462 135.476C111.026 135.59 110.523 135.325 110.601 135.009C110.621 134.936 110.71 134.765 110.798 134.625C110.948 134.386 110.964 134.329 110.995 133.732C111.052 132.766 111.208 132.512 111.779 132.434C111.981 132.408 112.023 132.424 112.23 132.6Z" fill="#FDF390"/>
<path d="M107.389 132.801C107.606 132.9 107.773 133.087 107.773 133.237C107.773 133.642 106.402 135.531 106.112 135.531C105.837 135.531 105.613 134.882 105.702 134.327C105.8 133.709 106.091 133.253 106.6 132.926C106.932 132.713 107.113 132.682 107.389 132.801Z" fill="#FDF390"/>
</svg>
