<svg width="18" height="14" viewBox="0 0 18 14" fill="none" xmlns="http://www.w3.org/2000/svg">
<path d="M8.61936 0.42334C4.72921 0.42334 1.40703 3.09954 0.0610352 6.8772C1.40703 10.6549 4.72921 13.3311 8.61936 13.3311C12.5095 13.3311 15.8317 10.6549 17.1777 6.8772C15.8317 3.09954 12.5095 0.42334 8.61936 0.42334ZM8.61936 11.1798C6.472 11.1798 4.72921 9.25221 4.72921 6.8772C4.72921 4.50218 6.472 2.57463 8.61936 2.57463C10.7667 2.57463 12.5095 4.50218 12.5095 6.8772C12.5095 9.25221 10.7667 11.1798 8.61936 11.1798ZM8.61936 4.29565C7.32783 4.29565 6.28527 5.44874 6.28527 6.8772C6.28527 8.30565 7.32783 9.45874 8.61936 9.45874C9.91089 9.45874 10.9534 8.30565 10.9534 6.8772C10.9534 5.44874 9.91089 4.29565 8.61936 4.29565Z" fill="#C4C4C4"/>
</svg>
