<svg width="181" height="181" viewBox="0 0 181 181" fill="none" xmlns="http://www.w3.org/2000/svg">
<circle cx="90.2035" cy="90.4556" r="88.5" stroke="white" stroke-width="3"/>
<path d="M116.457 23.0947C109.304 24.3582 104.953 26.1992 103.158 28.732C102.998 28.9607 102.586 29.7154 102.249 30.4072C101.397 32.1338 100.762 33.1115 99.4704 34.6837C98.2926 36.1188 97.698 37.1479 97.212 38.623C96.869 39.6464 96.6403 40.1209 96.2286 40.6069C95.7198 41.2072 95.1138 41.5903 94.1418 41.939C93.2156 42.2649 92.6382 42.6251 92.0378 43.254C91.6491 43.6542 91.4089 44.0087 91.0487 44.7119C90.5914 45.5981 89.9053 46.1756 88.9562 46.4786C88.2987 46.6844 86.8465 46.9646 84.3823 47.3648C81.7123 47.7879 81.6094 47.7993 81.1921 47.6792C80.626 47.5134 80.3459 47.1933 79.9857 46.3071C79.6655 45.5352 79.4082 45.1465 78.7565 44.5004C77.8703 43.6199 76.6125 42.7109 74.2512 41.253C72.6046 40.2296 72.0043 39.8351 71.1924 39.2519C70.1119 38.4686 69.6373 38.1713 68.8312 37.7825C67.1103 36.9478 65.5151 36.6219 63.4912 36.6848C61.9189 36.7305 60.5868 37.0107 59.0431 37.611C57.0763 38.3886 54.7494 39.9208 54.5779 40.5612C54.4978 40.8699 54.5493 41.0414 54.8351 41.3559C55.1267 41.676 55.304 41.8018 56.5675 42.5565C57.0535 42.8481 57.6538 43.2026 57.8939 43.3512C58.1398 43.4941 58.317 43.6314 58.2941 43.6485C58.2713 43.6714 57.8425 43.9287 57.3393 44.2145C56.0987 44.9349 55.7614 45.1808 55.5956 45.4838C55.4183 45.8268 55.4641 45.9926 55.8242 46.2499C56.3674 46.6387 56.4703 47.056 56.1444 47.5191C55.6241 48.251 55.5384 48.4111 55.5384 48.634C55.5384 49.1086 55.7499 49.343 56.4646 49.6632C57.2479 50.0062 57.2764 50.0462 57.3108 50.9553C57.3451 51.6185 57.3622 51.7042 57.5337 52.0702C57.6366 52.2817 57.8825 52.6705 58.0826 52.9335C58.6943 53.7282 58.7344 53.8768 58.5686 54.5629C58.4314 55.1461 58.4199 55.6892 58.5457 56.1123C58.7401 56.7698 58.9516 57.0614 60.0837 58.222C60.8727 59.0339 61.2328 59.4512 61.3986 59.7371C61.5244 59.9601 61.8446 60.366 62.1076 60.6519C62.6622 61.2465 62.788 61.4351 62.9652 61.9097C63.1367 62.3785 63.2854 62.59 64.0343 63.4534C64.7719 64.311 64.9434 64.4768 66.0183 65.3973C66.8244 66.0833 67.196 66.495 67.6877 67.2554C68.0193 67.7642 68.4653 68.2216 68.7569 68.3588C68.8884 68.4217 69.1056 68.456 69.3572 68.456C69.8146 68.456 70.2091 68.2902 70.7865 67.8671L71.141 67.6041L71.0381 67.9072C70.8494 68.4503 70.5235 69.7882 70.4092 70.4971C69.9289 73.4587 70.2262 76.3745 71.3754 79.8564C71.6441 80.6683 72.2559 82.3148 72.4388 82.7208C72.4503 82.7551 72.193 82.9037 71.8671 83.0581C71.141 83.3897 70.3291 83.91 70.0776 84.1958C69.8203 84.4874 69.826 84.7161 70.1004 85.2536C70.2948 85.6366 70.3177 85.7281 70.3348 86.2255C70.3691 87.1574 70.3406 87.2432 68.6597 90.6107C67.8306 92.2744 66.9788 93.9096 66.7729 94.2355C66.0125 95.4361 65.1721 96.3566 64.2402 97.0084C63.5083 97.5229 63.2453 97.9117 63.0567 98.7865C62.8337 99.7985 62.4163 100.793 61.5473 102.377C60.8383 103.675 59.9579 105.436 59.6034 106.288C58.7801 108.249 58.3399 110.135 58.3399 111.725C58.3399 112.514 58.2427 112.702 57.7167 112.994C57.1278 113.314 56.5847 113.829 55.687 114.904C54.7665 116.001 54.332 116.424 53.7832 116.745C53.3258 117.008 52.9141 117.448 52.411 118.203C50.3528 121.273 49.2836 124.692 48.9063 129.403C48.8034 130.683 48.7691 133.719 48.8434 134.834C49.0949 138.539 49.9068 141.038 51.7592 143.828C53.2057 146 54.0976 146.938 55.424 147.681C56.4188 148.236 57.0878 148.367 59.2546 148.447C63.3711 148.602 66.9788 148.327 71.221 147.55C71.8213 147.441 72.4731 147.321 72.6618 147.287C72.8505 147.252 73.0277 147.207 73.0506 147.184C73.0792 147.161 72.9648 147.035 72.7933 146.904C71.9757 146.286 71.2839 146.195 69.7745 146.492C66.8644 147.064 64.5146 147.298 61.6102 147.298C59.146 147.298 57.6538 147.178 56.7447 146.921C55.7385 146.629 54.7494 146.023 54.0976 145.297C53.0571 144.154 51.7535 141.895 51.0846 140.083C50.2041 137.716 49.8782 135.56 49.8782 132.124C49.8782 128.7 50.2784 126.121 51.2561 123.217C52.3996 119.815 53.2514 118.386 54.7665 117.334C55.4183 116.882 55.8128 116.505 56.5275 115.653C57.6481 114.32 58.277 113.743 59.1231 113.274C59.4548 113.091 59.5005 112.885 59.4891 111.559C59.4776 110.238 59.5405 109.684 59.8264 108.609C60.1351 107.454 60.5468 106.482 61.4844 104.704C62.1133 103.52 62.3134 103.074 62.8566 101.674C63.2568 100.633 63.7999 99.524 64.2173 98.9008C64.406 98.615 64.8233 98.089 65.1435 97.7288C65.9611 96.8083 66.5557 96.0765 67.3561 95.013C68.5739 93.395 68.6711 93.2292 69.8146 90.8108C70.0032 90.4163 70.3291 89.8274 70.5349 89.4958C70.958 88.8383 70.9809 88.7468 70.8551 87.9521C70.7694 87.3861 70.838 87.1917 71.2668 86.7858C71.4612 86.6028 71.6498 86.3684 71.6956 86.2598C71.8556 85.8767 71.7699 85.4537 71.4268 84.9677C71.1867 84.6361 71.3068 84.3902 71.7813 84.2416C71.8957 84.2073 72.0843 84.1272 72.2044 84.0643C72.4617 83.9328 72.8162 83.9157 72.9134 84.03C72.9477 84.0701 72.9877 84.3502 72.9934 84.6418C73.022 85.3222 73.1649 85.751 73.7367 86.7972C74.2341 87.712 74.3713 88.055 74.457 88.6211C74.5943 89.5244 74.9259 90.1247 75.8349 91.1538C76.4524 91.8456 76.8011 92.303 77.0127 92.6804C77.3786 93.3264 77.9903 93.7438 78.8422 93.9268C79.1738 94.0011 79.3511 94.0011 79.9571 93.9439C80.8433 93.8639 81.5065 93.921 83.439 94.2412C85.8117 94.6357 87.3896 94.8301 88.4473 94.8587C89.465 94.8815 89.7052 94.8587 90.8429 94.6128C91.8606 94.3899 92.7411 94.2698 94.9022 94.0411C97.7037 93.7495 98.6585 93.5837 100.391 93.0977C101.98 92.6461 103.038 92.4803 104.707 92.4117C106.308 92.343 106.674 92.2458 107.606 91.6341C108.195 91.2453 108.687 90.7079 109.338 89.7588C109.922 88.9012 109.996 88.8097 110.213 88.6725C110.533 88.4553 110.785 88.6897 111.214 89.6159C111.334 89.8789 111.557 90.2448 111.711 90.4277C112.569 91.4797 113.438 92.8576 114.084 94.1955C114.764 95.6134 115.153 96.8369 115.542 98.7579C115.925 100.667 116.228 101.554 116.897 102.709C117.657 104.035 118.183 105.23 118.789 107.048C119.31 108.597 120.241 111.508 120.339 111.891C120.613 112.948 120.699 114.469 120.607 116.453C120.567 117.236 120.527 118.471 120.516 119.197C120.499 120.409 120.487 120.552 120.35 121.027C120.036 122.102 119.361 123.28 118.2 124.772C117.497 125.681 117.148 126.31 116.903 127.099C116.765 127.562 116.748 127.682 116.748 128.602C116.748 129.489 116.765 129.689 116.908 130.346C117.743 134.205 118.4 136.332 119.407 138.425C120.127 139.934 120.367 140.26 121.145 140.815C122.311 141.638 123.769 142.953 125.919 145.125C126.405 145.617 127.337 146.532 127.983 147.161C129.469 148.596 129.927 149.231 130.275 150.328C130.384 150.688 130.407 150.877 130.407 151.529C130.407 152.215 130.395 152.329 130.281 152.541C130.052 152.964 129.938 153.015 129.229 153.015C128.743 153.015 128.417 153.055 127.765 153.198C127.234 153.313 126.748 153.381 126.462 153.381C126.045 153.387 125.964 153.37 125.604 153.187C125.107 152.941 125.05 152.832 124.895 151.883C124.707 150.757 124.226 149.676 123.489 148.687C123.037 148.093 122.728 147.973 122.374 148.259C122.157 148.436 122.202 148.653 122.586 149.276C123.003 149.957 123.117 150.18 123.38 150.831C123.62 151.432 123.975 152.73 123.975 153.027C123.975 153.37 123.889 153.398 122.46 153.473C120.733 153.57 119.824 153.49 119.229 153.187C118.898 153.015 118.686 152.547 118.543 151.643C118.195 149.482 117.983 148.945 117.223 148.379C116.943 148.161 116.405 147.927 116.199 147.927C116.108 147.927 116.131 148.001 116.382 148.51C116.908 149.574 117.491 151.666 117.663 153.084L117.697 153.416H116.925C116.039 153.416 115.525 153.33 114.593 153.038C112.66 152.427 112.397 152.032 112.546 149.991C112.626 148.905 112.586 147.973 112.432 147.201C112.1 145.56 112.197 143.873 112.7 142.473C112.803 142.181 112.849 141.912 112.872 141.524C112.889 141.032 112.878 140.929 112.712 140.409C112.22 138.876 111.523 137.247 110.036 134.148C109.521 133.062 109.03 132.033 108.955 131.861C108.875 131.69 108.058 130.015 107.137 128.145C105.376 124.566 104.776 123.268 104.13 121.633C103.621 120.352 103.004 118.448 102.758 117.414C102.649 116.962 102.535 116.596 102.501 116.596C102.466 116.596 102.363 116.808 102.272 117.065C102.123 117.494 102.106 117.608 102.106 118.254C102.112 119.06 102.186 119.415 102.649 120.833C103.278 122.736 103.987 124.372 105.771 128.065C108.361 133.434 108.784 134.566 108.687 135.846C108.601 137.013 108.052 138.047 106.537 139.946C104.536 142.455 102.398 144.228 99.8763 145.469C98.6985 146.052 97.7494 146.406 96.5145 146.726C94.8793 147.149 93.2556 147.355 91.5633 147.355C89.9624 147.355 89.4021 147.189 89.0019 146.595C88.7161 146.172 88.636 145.691 88.5846 144.096C88.5445 142.77 88.5274 142.621 88.2758 141.266C87.9557 139.574 87.5612 137.71 86.9323 134.977C85.6687 129.466 85.1713 126.962 85.1141 125.807C85.097 125.446 85.1141 124.48 85.1542 123.657C85.2628 121.501 85.1542 120.69 84.5996 119.58L84.3366 119.049L84.4681 118.809C84.5424 118.677 84.6568 118.488 84.7254 118.397C85.0341 117.985 85.0227 117.825 84.6968 117.654C84.2966 117.448 83.9307 117.625 83.5991 118.197C83.3303 118.666 83.1874 119.112 83.2389 119.357C83.2617 119.455 83.3761 119.746 83.4961 119.998C83.862 120.764 83.8964 121.118 83.8106 123.142C83.742 124.8 83.8449 125.767 84.4395 128.974C84.5824 129.757 84.7654 130.906 84.8397 131.518C85.0684 133.336 85.1713 133.794 85.8745 136.235C86.7665 139.3 87.0066 140.632 87.3553 144.382C87.6126 147.132 87.7784 148.504 87.9214 149.042C87.9957 149.322 88.2187 149.939 88.413 150.414C89.465 152.97 89.465 152.975 89.465 154.485C89.4708 155.611 89.465 155.703 89.3564 155.857C89.0877 156.223 88.0414 156.566 87.1552 156.572C86.1433 156.583 85.6001 156.177 85.1484 155.074C85.0227 154.776 84.8855 154.548 84.7368 154.405L84.5195 154.187L84.4109 154.319C84.1594 154.628 84.1594 155.045 84.4109 155.691C84.5653 156.086 84.5596 156.337 84.3995 156.492C84.0907 156.777 83.7591 156.783 83.0216 156.52C82.6328 156.377 82.5242 156.366 81.2092 156.331C79.454 156.286 79.2825 156.229 79.2253 155.685C79.191 155.371 79.3511 154.439 79.5112 154.05L79.6369 153.747L79.4769 153.61C79.1624 153.341 78.7679 153.484 78.4878 153.97C78.2419 154.382 78.1847 154.628 78.1218 155.44C78.059 156.366 78.0304 156.503 77.8932 156.503C77.5044 156.503 74.7543 155.239 74.457 154.925C74.3084 154.765 74.297 154.668 74.1769 151.306C74.0797 148.693 74.1369 147.647 74.4856 145.954C74.5599 145.577 74.6571 145.023 74.6972 144.725C74.7944 144.033 74.7944 142.015 74.6972 141.266C74.5142 139.791 74.0454 137.939 73.4336 136.235C72.6789 134.142 72.3531 133.416 70.9752 130.775C69.4429 127.831 68.9512 126.567 68.6082 124.709C68.4939 124.109 68.3281 123.68 67.8535 122.822C67.1903 121.622 67.1903 121.604 67.1732 119.912C67.1617 118.729 67.1331 118.225 67.0074 117.253C66.6014 114.069 66.8244 112.52 67.8935 111.062C68.0651 110.833 68.2594 110.564 68.3338 110.467C68.6025 110.09 68.4252 109.792 67.9278 109.792C67.7678 109.792 67.602 109.815 67.5676 109.838C67.5333 109.861 67.4304 110.021 67.3447 110.193C67.2589 110.364 66.9616 110.856 66.6872 111.279C65.6238 112.92 65.5151 113.331 65.7324 114.852C65.801 115.315 65.8524 116.19 65.8868 117.539C65.9439 119.609 65.9954 120.158 66.2584 121.364C66.5271 122.622 66.9387 123.891 67.9107 126.476C68.2423 127.362 68.6997 128.614 68.9169 129.254C69.4258 130.758 69.6888 131.335 70.8494 133.485C71.3697 134.457 71.9757 135.646 72.1873 136.126C72.8848 137.693 73.4108 139.454 73.6452 140.992C73.7767 141.855 73.7767 143.57 73.6509 144.468C73.4394 145.943 73.325 147.613 73.1649 151.586C73.0391 154.811 73.0391 155.171 73.1592 155.394C73.2678 155.594 75.1317 156.783 76.0636 157.252C77.0984 157.772 77.8932 157.881 79.0652 157.675C79.9857 157.509 81.3064 157.538 83.2389 157.766C84.611 157.927 85.0341 157.955 86.2119 157.955C87.7784 157.961 88.1386 157.909 89.2535 157.526C90.1225 157.229 90.4484 157.046 90.6371 156.766C90.8258 156.48 90.8258 156.189 90.6542 154.359C90.4084 151.832 90.1568 150.894 89.3736 149.654C88.9505 148.99 88.819 148.442 89.0305 148.253C89.1677 148.127 89.2764 148.133 89.9739 148.276C90.4255 148.373 90.7572 148.402 91.4432 148.402C92.3351 148.396 92.5238 148.379 94.7593 148.013C95.3367 147.916 96.0743 147.847 96.8747 147.813C98.184 147.755 98.5785 147.693 99.3331 147.418C99.9678 147.184 100.362 146.961 101.706 146.069C105.308 143.685 107.194 141.798 108.647 139.128C109.104 138.288 109.253 138.076 109.636 137.716C110.196 137.184 110.116 137.11 110.648 138.596C111.214 140.169 111.374 140.735 111.46 141.495C111.551 142.238 111.471 142.867 111.197 143.679L110.991 144.279L111.025 145.514C111.048 146.2 111.099 147.167 111.145 147.664C111.248 148.847 111.248 149.316 111.128 150.323C110.899 152.295 111.362 153.004 113.501 153.964C114.141 154.25 114.907 154.462 115.656 154.553C116.611 154.673 121.534 154.748 123.603 154.679C126.988 154.565 129.372 154.285 130.367 153.89C130.876 153.684 131.282 153.284 131.465 152.815C131.699 152.204 131.682 151.031 131.43 149.985C131.379 149.779 131.23 149.379 131.093 149.099C130.87 148.63 130.727 148.453 129.452 147.041C126.954 144.268 125.038 142.398 123.403 141.135C121.791 139.888 120.882 138.779 120.213 137.264C119.767 136.252 118.909 133.531 118.435 131.644C118.063 130.163 117.949 129.38 117.989 128.602C118.046 127.568 118.286 126.939 119.012 125.938C119.653 125.058 120.07 124.366 120.522 123.428C121.408 121.593 121.831 120.026 121.985 117.968C122.077 116.687 121.997 115.687 121.602 113.36C120.624 107.608 119.887 105.236 118.166 102.383C117.188 100.753 116.977 100.227 116.479 98.1862C115.416 93.8067 114.375 91.514 112.386 89.1471C111.751 88.3867 111.54 87.9579 111.54 87.409C111.54 86.8773 111.637 86.7 112.294 85.9911C113.592 84.6075 114.301 83.0752 114.627 80.9484C114.776 79.9421 114.85 77.9411 114.787 76.6032C114.718 75.3111 114.753 74.8194 114.93 74.3678C114.993 74.2134 115.124 73.8818 115.227 73.6302C115.502 72.9384 115.725 71.9951 115.833 71.0803C115.953 70.0169 115.919 68.1073 115.736 66.1977C115.622 65.0542 115.605 64.4768 115.605 62.7101C115.599 60.286 115.645 59.9029 116.033 58.7937C116.834 56.5068 117.057 55.4319 117.057 53.7968C117.057 52.1045 116.771 50.8581 115.879 48.7084C115.593 48.0051 115.548 47.3991 115.753 46.9531C116.005 46.4157 116.988 45.5695 118.029 45.0092C119.149 44.3975 119.43 44.1402 119.584 43.557C119.647 43.3169 119.635 43.2026 119.47 42.3678C118.886 39.5263 118.406 38.0684 117.651 36.8563C117.337 36.3532 117.097 35.7757 116.971 35.2269C116.794 34.4779 116.617 33.7918 116.394 33.0371C116.194 32.3396 116.182 32.2424 116.176 31.4935C116.171 30.7845 116.188 30.653 116.308 30.35C116.382 30.1613 116.451 29.9384 116.468 29.8583C116.508 29.6353 116.348 29.3838 116.068 29.218C115.668 28.9836 115.456 28.7034 115.456 28.4175C115.462 28.1088 115.542 27.9373 116.285 26.6623C117.063 25.3359 117.263 25.0386 117.749 24.484C118.212 23.958 118.28 23.8151 118.2 23.5235C118.132 23.2662 117.943 23.0775 117.68 23.0032C117.423 22.9289 117.388 22.9289 116.457 23.0947ZM115.65 25.3016C115.382 25.8162 114.844 26.8739 114.455 27.6514C113.838 28.8806 113.741 29.1093 113.741 29.3495C113.741 29.784 113.855 29.8812 114.433 29.9269C115.376 30.0012 115.445 30.1327 115.022 31.1218C114.793 31.665 114.804 32.1796 115.073 33.1801C115.187 33.6032 115.319 34.1292 115.37 34.3521C115.525 35.0153 115.833 35.7643 116.628 37.4109C117.589 39.4005 117.754 39.8922 117.886 41.1272C117.96 41.8133 117.977 41.8819 118.223 42.3507C118.681 43.2083 118.572 43.4656 117.56 43.9401C116.937 44.2374 116.359 44.6433 115.645 45.2894C114.867 45.9983 114.278 46.6673 114.095 47.0618C113.981 47.3133 113.958 47.4334 113.981 47.7478C114.004 48.2224 114.181 48.6054 114.633 49.16C115.41 50.1263 115.673 51.2411 115.61 53.3909C115.576 54.6658 115.445 55.4777 114.993 57.1643C114.255 59.9201 114.17 60.3431 114.078 61.7953C114.004 62.9216 114.072 64.6025 114.261 66.2606C114.324 66.8209 114.398 67.5012 114.427 67.77C114.501 68.4217 114.496 69.7081 114.421 70.3885C114.295 71.5663 114.038 72.5839 113.484 74.0876C113.209 74.8366 113.181 75.2139 113.335 76.0601C113.809 78.65 113.466 81.1771 112.311 83.5212C111.888 84.3845 111.219 85.4308 110.642 86.134C110.442 86.3742 109.767 87.1974 109.144 87.9636C107.337 90.159 106.897 90.5592 105.879 90.8966C105.479 91.0338 105.285 91.0566 104.307 91.1024C102.466 91.1824 101.443 91.3482 100.019 91.7827C98.2583 92.3202 96.8804 92.5546 93.1584 92.9548C92.1064 93.0691 90.8315 93.2235 90.3284 93.2978C88.8933 93.5151 87.99 93.5723 86.8122 93.538C84.8397 93.4751 83.0559 93.0863 81.5294 92.3888C81.0034 92.1487 80.7347 92.1315 80.1515 92.2973C79.6369 92.446 79.4597 92.4402 79.1453 92.2802C78.4763 91.9428 76.9669 90.5249 76.4524 89.7474C75.8807 88.8898 75.7549 88.5582 74.8573 85.608C74.4856 84.3731 74.1483 83.4297 73.8167 82.6522C73.3707 81.623 73.102 80.6168 72.6904 78.387C72.536 77.5752 72.3759 76.8491 72.3302 76.7805C72.2787 76.7061 72.0901 76.5975 71.89 76.5232C71.4154 76.3459 71.1124 76.0715 71.0038 75.6999C70.8894 75.3225 70.8951 75.1224 71.0324 74.3735C71.0952 74.0247 71.1982 73.19 71.261 72.5153C71.4669 70.4114 71.7127 69.0506 72.0901 67.9415C72.3759 67.0953 72.3416 66.615 71.9528 66.2663C71.5012 65.8604 71.1524 65.9232 70.4606 66.5407C69.3972 67.4898 69.117 67.4326 68.4996 66.1577C68.2194 65.5916 67.8364 65.2029 66.8244 64.471C65.9039 63.8021 65.5437 63.4705 65.2178 62.996C65.092 62.8073 64.8119 62.4471 64.6004 62.1955C64.1658 61.6753 64.0115 61.3951 63.8399 60.8234C63.7713 60.6004 63.6341 60.2802 63.5312 60.1087C63.3425 59.8 63.2854 59.7485 62.4792 59.2511C62.0847 59.0053 61.7245 58.5765 61.2557 57.776C60.7869 56.9756 60.3524 56.4039 60.0494 56.1923C59.5863 55.8607 59.5405 55.7979 59.5405 55.4662C59.5405 55.3004 59.5805 55.0089 59.6263 54.8202C59.672 54.6315 59.7063 54.2542 59.712 53.9797C59.712 53.3508 59.6148 53.0878 59.1231 52.3446C58.5857 51.5384 58.4942 51.2583 58.4828 50.4178C58.4657 49.4802 58.3456 49.2744 57.6138 48.9085C57.042 48.6226 56.9677 48.3367 57.3393 47.8508C57.4823 47.6678 57.4823 47.6507 57.4137 47.2333C57.3393 46.7359 57.4022 46.3071 57.6081 45.884C57.7796 45.5295 58.3227 44.9635 58.9516 44.4947C59.7006 43.9287 59.7864 43.7286 59.4833 43.2083C59.2375 42.7795 58.8773 42.5222 56.8305 41.3273L55.8643 40.7613L56.0587 40.5955C56.4131 40.2924 57.3908 39.6349 57.9682 39.3091C59.9807 38.177 62.5021 37.5767 64.5203 37.7539C66.6472 37.9369 68.3566 38.6115 70.089 39.9551C70.7808 40.4868 70.9695 40.6069 72.1472 41.2415C72.7476 41.5617 73.5194 42.0076 73.8624 42.2363C75.6462 43.4084 77.1671 44.912 78.8308 47.1304C79.6712 48.2567 79.8485 48.4396 80.2944 48.6626C80.6032 48.817 80.6203 48.817 81.6952 48.8113C83.4275 48.8055 85.1256 48.5368 87.9614 47.8222C89.7566 47.3648 90.2998 47.1475 91.0545 46.5758C91.6319 46.1356 92.1179 45.4266 92.3809 44.6433C92.6382 43.8658 93.2499 43.397 94.765 42.8195C95.514 42.5336 96.1829 42.1048 96.7089 41.5903C97.3893 40.9099 97.778 40.2581 98.2754 38.9775C98.7786 37.6796 99.4589 36.5362 100.397 35.4098C101.643 33.9119 102.3 32.9056 103.089 31.2934C104.067 29.298 104.524 28.7148 105.748 27.9144C107.48 26.7881 109.739 25.8505 112.369 25.1758C113.261 24.9471 115.828 24.3925 116.039 24.3811C116.114 24.3754 116.022 24.5927 115.65 25.3016Z" fill="white"/>
<path d="M108.738 33.4767C106.079 35.2262 104.313 37.6389 103.358 40.8235C103.272 41.1151 103.221 41.3723 103.238 41.3952C103.261 41.4124 103.284 41.4181 103.295 41.4066C103.307 41.3952 103.638 40.9435 104.027 40.4118C104.421 39.8744 105.451 38.4851 106.314 37.3245C108.08 34.9518 109.213 33.3852 109.264 33.2594C109.315 33.1222 109.218 33.168 108.738 33.4767Z" fill="white"/>
<path d="M111.74 38.3244C110.625 38.5988 109.333 39.2563 107.583 40.4284C106.8 40.9544 106.394 41.2802 105.393 42.1893C104.473 43.024 104.376 43.2127 104.684 43.5786C104.925 43.8645 105.067 43.8245 105.685 43.2813C106.445 42.6181 106.863 42.3151 108.767 41.0516C110.51 39.8967 111.391 39.2334 112.025 38.5874C112.437 38.1643 112.431 38.1529 111.74 38.3244Z" fill="#66A9FF"/>
<path d="M113.026 43.1574C112.26 43.2546 111.265 43.4662 110.328 43.7349C109.241 44.0436 107.629 44.6039 107.452 44.7297C107.006 45.0442 107.177 45.7017 107.698 45.7017C107.835 45.7017 109.321 45.2729 111.305 44.6611C113.163 44.0894 114.696 43.6148 114.707 43.6091C114.719 43.5977 114.707 43.4719 114.69 43.329L114.65 43.0717L114.153 43.0774C113.878 43.0831 113.375 43.1174 113.026 43.1574Z" fill="white"/>
<path d="M65.8752 44.8269C65.7552 44.8383 65.658 44.8669 65.658 44.8898C65.658 44.9127 65.921 45.067 66.2468 45.2328C68.225 46.2505 70.2318 47.777 73.3078 50.6071C73.7537 51.0245 74.1539 51.3618 74.1825 51.3618C74.3483 51.3618 73.868 50.3098 73.3535 49.538C71.8498 47.2911 68.8368 45.1471 66.7671 44.8441C66.3726 44.7869 66.2697 44.7869 65.8752 44.8269Z" fill="white"/>
<path d="M65.8066 51.3373C65.3835 51.4403 64.8632 51.7147 64.5545 52.0006L64.3143 52.2235L64.8575 52.1835C66.2811 52.0749 67.5332 52.1892 69.0025 52.5609C69.8887 52.7896 71.0722 53.184 71.2952 53.3327C71.3695 53.3784 71.5182 53.4185 71.6325 53.4185C71.7983 53.4185 71.8555 53.3842 71.947 53.2298C72.1242 52.9382 72.0956 52.8467 71.6554 52.4294C70.975 51.789 70.3004 51.5203 69.0883 51.4174C68.7281 51.3831 68.2136 51.3316 67.9448 51.303C67.2588 51.223 66.2011 51.2402 65.8066 51.3373Z" fill="#66A9FF"/>
<path d="M91.7919 51.5206C91.5289 52.4868 91.2487 53.9905 91.1286 55.0768C91.0315 55.9573 91.0143 57.7182 91.1001 58.4786C91.1744 59.1704 91.4488 60.5654 91.5117 60.5654C91.5346 60.5654 91.5574 60.5483 91.5574 60.5197C91.5689 59.8851 91.7061 57.8611 91.8204 56.6662C92.032 54.385 92.0777 51.3034 91.8948 51.3034C91.8719 51.3034 91.8204 51.4005 91.7919 51.5206Z" fill="white"/>
<path d="M86.0687 52.6985C86.0687 52.8414 86.246 53.7276 86.3889 54.3051C86.7377 55.6944 87.3265 57.2438 88.5043 59.9023C89.179 61.4174 89.3848 61.8177 89.3848 61.6004C89.3848 61.5718 89.3448 61.2459 89.299 60.88C89.1218 59.5307 88.5901 57.8098 87.8411 56.1461C87.2865 54.9226 86.1602 52.6185 86.1145 52.6185C86.0859 52.6185 86.0687 52.6528 86.0687 52.6985Z" fill="#66A9FF"/>
<path d="M96.4399 55.4389C95.2221 56.0678 94.5875 56.7425 94.5875 57.4114C94.5875 57.6801 94.719 58.0518 94.8162 58.0518C94.8677 58.0518 97.1603 55.2274 97.1603 55.1588C97.1603 55.0902 96.9659 55.1645 96.4399 55.4389Z" fill="white"/>
<path d="M71.0608 55.4612C70.5348 55.6727 69.3627 56.313 68.751 56.719C68.3565 56.982 67.8591 57.3822 67.4989 57.7309C66.8585 58.3484 66.8528 58.377 67.0815 58.6743L67.1844 58.8115L69.5343 57.4794C72.0956 56.0272 72.1071 56.0157 71.9241 55.6556C71.764 55.3525 71.4896 55.2896 71.0608 55.4612Z" fill="white"/>
<path d="M105.136 55.632C104.376 55.7921 103.495 56.238 103.084 56.6726C102.878 56.8841 102.912 56.8898 103.53 56.7126C104.096 56.5468 104.89 56.421 105.937 56.3352C107.286 56.2209 108.395 56.0951 108.441 56.0494C108.509 55.9865 107.835 55.7292 107.32 55.6263C106.771 55.5119 105.679 55.5119 105.136 55.632Z" fill="white"/>
<path d="M81.0433 57.3995C81.2492 57.6225 81.9867 58.1656 82.5699 58.5258C82.8557 58.703 83.7877 59.2119 84.651 59.6578C85.5086 60.1038 86.3033 60.5154 86.4119 60.5726C86.6635 60.7098 86.7607 60.7098 86.9436 60.5669C87.2295 60.3382 87.178 59.8522 86.835 59.6121C86.5434 59.4063 84.9654 58.5715 84.2908 58.2685C83.1187 57.7425 81.5579 57.2508 81.0719 57.2508H80.9061L81.0433 57.3995Z" fill="white"/>
<path d="M106.766 58.5411C106.463 58.5926 105.908 58.7527 105.908 58.7927C105.908 58.8156 105.999 58.8556 106.108 58.8727C106.451 58.9414 107.109 59.17 108.384 59.6732C109.67 60.1763 110.299 60.3936 110.499 60.3936C110.785 60.3936 109.413 59.2101 108.738 58.8785C108.121 58.5754 107.383 58.4497 106.766 58.5411Z" fill="white"/>
<path d="M99.0642 60.8405C97.9951 61.2236 97.4005 62.2756 97.4576 63.6821C97.4748 64.1166 97.5034 64.2424 97.6463 64.5111C97.9436 65.0542 98.4067 65.3115 99.31 65.4258C100.356 65.5631 101.237 65.1571 101.66 64.3567C101.889 63.9279 101.969 63.5506 101.974 62.9617C101.98 61.9326 101.637 61.3551 100.774 60.9492C100.288 60.7262 99.5273 60.6747 99.0642 60.8405ZM99.4873 62.3614C99.9847 62.9045 99.4015 63.6535 98.704 63.3676C98.4925 63.2818 98.361 63.0474 98.361 62.7673C98.361 62.1555 99.0699 61.904 99.4873 62.3614Z" fill="white"/>
<path d="M78.0075 61.5725C77.2013 61.7841 76.3895 62.3386 75.8349 63.0476C75.4347 63.5679 75.3146 63.5965 77.8931 62.5902C78.7564 62.2586 79.4768 61.9727 79.4883 61.9613C79.4997 61.9499 79.4768 61.8355 79.4368 61.7097L79.3625 61.481L78.8422 61.4868C78.5563 61.4868 78.179 61.5268 78.0075 61.5725Z" fill="white"/>
<path d="M108.584 63.2705L108.372 63.3963L109.424 65.3402C110.002 66.4093 110.505 67.2898 110.539 67.3012C110.625 67.3298 110.608 66.1521 110.51 65.7004C110.345 64.9114 109.916 64.1224 109.293 63.4649C109.121 63.2877 108.938 63.139 108.887 63.139C108.835 63.139 108.698 63.1962 108.584 63.2705Z" fill="white"/>
<path d="M81.838 63.6194C80.8031 63.9167 80.2771 64.6142 80.2771 65.6833C80.2714 66.4037 80.4144 66.7582 80.9175 67.2613C81.4663 67.8102 81.7522 67.9131 82.7527 67.9131C83.3645 67.9131 83.5932 67.8902 83.8619 67.8045C84.3193 67.6558 84.6337 67.4042 84.8396 67.0269C84.9882 66.7467 85.0111 66.6496 85.0282 66.1064C85.074 64.9344 84.6909 64.1797 83.8276 63.728C83.5532 63.5851 83.4617 63.5679 82.8099 63.5565C82.3525 63.5508 82.0038 63.5736 81.838 63.6194ZM83.5246 64.8314C83.7247 64.9286 83.8962 65.2031 83.8962 65.4432C83.8962 65.8148 83.4388 66.1521 83.0672 66.0492C82.484 65.8834 82.3983 65.0601 82.9471 64.82C83.1815 64.7171 83.2959 64.7228 83.5246 64.8314Z" fill="white"/>
<path d="M91.2602 64.2658C91.0829 64.2944 91.0601 64.3973 91.1573 64.7461C91.1858 64.8547 91.3688 65.8495 91.5518 66.9473C91.9062 68.9998 92.112 69.9203 92.4036 70.715L92.5694 71.1724L92.8153 71.1552C92.9525 71.1495 93.0897 71.1209 93.1297 71.098C93.1812 71.0695 92.9982 70.149 92.4494 67.6391L91.7061 64.2258L91.5575 64.2315C91.4774 64.2372 91.3459 64.2544 91.2602 64.2658Z" fill="white"/>
<path d="M76.8926 66.2907C75.9378 66.4508 75.2288 67.0797 74.6571 68.2689C74.5199 68.5548 74.4055 68.8064 74.4055 68.8235C74.4055 68.9665 74.6171 68.8121 76.3837 67.3942C77.0183 66.8796 77.5901 66.4337 77.6587 66.3879C77.7273 66.3479 77.7787 66.2965 77.7787 66.2736C77.7787 66.2164 77.2699 66.2279 76.8926 66.2907Z" fill="white"/>
<path d="M76.6353 70.1478C75.5833 71.0111 74.9773 72.1774 74.8057 73.6696C74.7371 74.2585 74.7371 74.2871 74.8 74.2871C74.8286 74.2871 75.4404 73.3666 76.155 72.246L77.4529 70.2049L77.2585 70.0448C77.1556 69.9591 77.0412 69.8848 77.0069 69.8848C76.9783 69.8848 76.8068 70.0048 76.6353 70.1478Z" fill="white"/>
<path d="M99.0757 70.3145C98.7041 70.3945 98.3896 70.5032 98.424 70.5375C98.4354 70.5546 98.7498 70.6289 99.1272 70.7147C100.511 71.0234 101.877 71.6123 103.158 72.4585C104.244 73.1732 104.867 73.6763 107.143 75.6831C108.298 76.7065 109.275 77.4897 109.384 77.4897C109.441 77.4897 109.447 77.4669 109.413 77.4154C109.378 77.3811 109.161 77.0838 108.915 76.7579C106.948 74.1394 104.604 71.9782 102.655 70.9777C101.351 70.3145 100.116 70.0858 99.0757 70.3145Z" fill="#66A9FF"/>
<path d="M84.7138 73.0365C82.9243 73.9855 81.8037 74.9175 80.1514 76.827C78.9279 78.2392 78.5906 78.6852 78.2933 79.2912C78.036 79.8115 77.8016 80.509 77.8645 80.5662C77.9216 80.6234 78.5677 80.0059 79.7283 78.7938C82.6556 75.7293 83.7419 74.7802 85.3427 73.9169C86.0688 73.5224 86.2289 73.2651 85.9202 72.9507C85.7944 72.8306 85.7144 72.802 85.4628 72.802C85.2227 72.802 85.0797 72.8478 84.7138 73.0365Z" fill="#66A9FF"/>
<path d="M93.3012 73.5459C93.1125 73.5745 92.7409 73.666 92.4722 73.7517C89.8022 74.5693 88.7902 76.113 89.7279 77.9425C90.1624 78.7944 90.9857 79.5605 92.3293 80.3667C93.1869 80.8812 93.6271 81.0413 94.2789 81.0813C94.9592 81.1156 95.4509 80.9784 95.9541 80.6068C96.7831 79.995 97.8293 78.2627 98.1952 76.8848C98.3496 76.3188 98.3611 75.4612 98.2296 75.101C97.9265 74.2949 97.1375 73.7803 95.9541 73.6088C95.3537 73.523 93.7071 73.483 93.3012 73.5459Z" fill="white"/>
<path d="M102.478 76.2663C102.478 76.2891 102.843 76.6836 103.295 77.141C103.741 77.5984 104.662 78.6161 105.336 79.4051C106.6 80.8802 107.983 82.3495 108.052 82.2866C108.098 82.2352 106.525 79.6109 106.062 78.9591C105.153 77.6956 104.204 76.8952 103.072 76.4378C102.62 76.2548 102.478 76.2148 102.478 76.2663Z" fill="white"/>
<path d="M85.6857 77.7699C83.9019 78.3817 81.6779 82.0294 81.655 84.3792C81.6493 84.9223 81.7122 85.334 81.7922 85.3111C81.8265 85.2997 81.9695 85.0081 82.1067 84.665C83.5417 81.126 84.365 79.6338 85.68 78.1702C86.1832 77.6041 86.1832 77.5927 85.6857 77.7699Z" fill="white"/>
<path d="M102.335 82.665C102.163 82.8308 102.169 82.9909 102.357 83.2596C102.415 83.3396 102.918 84.3173 103.484 85.4207C104.044 86.5299 104.524 87.439 104.541 87.439C104.673 87.439 104.684 86.5642 104.564 85.8839C104.421 85.0491 104.055 84.1343 103.501 83.2196C103.146 82.6421 103.015 82.5221 102.735 82.5221C102.558 82.5221 102.455 82.5621 102.335 82.665Z" fill="#66A9FF"/>
<path d="M95.2451 83.6113C94.4047 83.7199 93.5585 84.0229 92.7466 84.5089C92.2092 84.8234 91.9576 85.0864 91.9576 85.3208C91.9576 85.7324 92.4836 85.8525 93.0096 85.5552C93.1697 85.4637 93.4956 85.3151 93.73 85.2179C94.7477 84.8062 95.3023 84.6976 96.5029 84.6518C97.4634 84.6175 97.4749 84.6175 97.6292 84.4575C97.9551 84.1373 97.7722 83.6627 97.2862 83.5827C96.9889 83.537 95.7254 83.5541 95.2451 83.6113Z" fill="white"/>
<path d="M84.2679 85.7894C84.0106 86.3383 83.902 86.7613 83.8448 87.4989C83.7876 88.185 83.8276 89.3799 83.9077 89.3799C83.9991 89.3799 84.6281 88.0134 84.7538 87.5332C84.9139 86.9386 84.8911 86.2068 84.7024 85.7036C84.6338 85.5264 84.548 85.3777 84.5194 85.3777C84.4851 85.3777 84.3765 85.5664 84.2679 85.7894Z" fill="#66A9FF"/>
<path d="M72.9474 95.7976C72.7473 95.9063 72.3414 96.3179 72.1184 96.6438C70.9064 98.4162 70.226 102.155 70.6605 104.688C70.7863 105.403 70.9006 105.734 71.0321 105.734C71.1636 105.734 71.3752 105.471 71.3752 105.311C71.3752 105.157 71.7925 102.475 71.9812 101.418C72.3528 99.3138 72.9589 97.5872 73.6335 96.6896C73.8965 96.3408 73.9365 96.2036 73.8336 96.0092C73.7021 95.7691 73.2104 95.649 72.9474 95.7976Z" fill="#66A9FF"/>
<path d="M101.02 97.3467C100.688 97.6783 100.631 98.2329 100.791 99.5593C101.117 102.184 101.986 104.591 103.364 106.677C104.061 107.735 104.33 107.935 104.999 107.895L105.325 107.878L104.982 107.306C104.084 105.797 103.329 104.042 102.843 102.344C102.472 101.029 102.18 99.2334 102.186 98.2787C102.192 97.3467 102.077 97.1581 101.506 97.1581C101.248 97.1581 101.185 97.1809 101.02 97.3467Z" fill="white"/>
<path d="M110.053 99.9124C109.83 100.032 109.682 100.21 109.647 100.393C109.619 100.547 109.67 100.713 109.927 101.256C110.493 102.462 110.779 103.446 111.105 105.304C111.328 106.579 111.334 106.63 111.397 108.163C111.454 109.535 111.545 110.255 111.751 110.878C111.94 111.467 112.42 112.365 112.546 112.365C112.614 112.365 112.609 104.698 112.54 103.777C112.454 102.594 112.071 101.656 111.225 100.547C110.745 99.9124 110.396 99.7237 110.053 99.9124Z" fill="#66A9FF"/>
<path d="M89.5677 100.397C89.2361 100.466 88.7387 101.272 88.5272 102.089C88.247 103.198 88.1155 105.891 88.2928 107.103C88.4757 108.424 88.813 109.642 89.2304 110.557C89.4477 111.014 89.4648 111.031 89.8364 110.957L90.0137 110.917V110.482C90.0137 110.237 89.9508 109.465 89.8707 108.756C89.4934 105.365 89.5506 103.467 90.1051 101.54C90.3281 100.769 90.3396 100.637 90.2023 100.511C90.088 100.414 89.7678 100.357 89.5677 100.397Z" fill="#66A9FF"/>
<path d="M78.2361 104.058C77.8244 104.189 77.7444 104.372 77.7787 105.075C77.8359 106.213 77.8016 107.877 77.6987 108.62C77.4871 110.169 77.1612 111.553 76.4466 113.937C76.0406 115.292 76.0349 115.315 76.0349 115.967C76.0349 116.613 76.1321 117.167 76.2465 117.167C76.3551 117.167 77.4128 114.806 77.9388 113.383C78.9164 110.764 79.3281 108.117 79.0937 105.99C79.0594 105.704 79.0136 105.207 78.9851 104.875C78.9336 104.332 78.9164 104.263 78.7792 104.149C78.6363 104.023 78.4305 103.989 78.2361 104.058Z" fill="white"/>
<path d="M94.3075 110.457C94.0502 110.668 94.0445 110.851 94.2389 111.88C94.8506 115.082 95.005 118.518 94.6734 121.657C94.6277 122.097 94.5876 122.503 94.5876 122.56C94.5876 122.738 94.8449 122.943 95.0793 122.943C95.5482 122.943 95.794 122.44 96.1313 120.771C96.3829 119.513 96.4744 118.552 96.5144 116.797C96.5487 115.042 96.5087 114.43 96.2685 113.35C95.9998 112.143 95.4224 110.663 95.1308 110.434C94.9021 110.251 94.5362 110.262 94.3075 110.457Z" fill="white"/>
<path d="M110.179 117.098C109.967 117.23 109.813 117.567 109.744 118.053C109.664 118.573 109.664 120.763 109.738 121.518C109.904 123.204 110.487 125.485 111.019 126.532C111.173 126.835 111.442 127.098 111.642 127.138C111.991 127.206 112.123 127.218 112.191 127.178C112.248 127.138 112.22 126.898 112.031 125.966C111.436 122.987 111.271 121.546 111.248 119.225C111.242 118.236 111.231 117.39 111.231 117.35C111.225 117.31 111.162 117.212 111.082 117.138C110.968 117.024 110.888 116.995 110.642 116.995C110.459 116.995 110.276 117.035 110.179 117.098Z" fill="#66A9FF"/>
<path d="M59.7519 120.941C59.5117 121.13 59.3802 121.405 59.0829 122.302C58.5798 123.834 58.3969 125.075 58.3969 126.973C58.3969 128.26 58.4483 128.963 58.6313 130.232C58.8657 131.896 59.4088 134.303 59.6489 134.749C59.8147 135.063 60.255 135.406 60.4951 135.406C60.638 135.406 60.638 135.406 60.598 134.989C60.5752 134.766 60.5008 134.154 60.4265 133.634C59.8548 129.62 59.7633 126.493 60.1464 123.771C60.2893 122.765 60.375 122.468 60.6495 122.022C60.9639 121.519 61.0154 121.33 60.8839 121.136C60.6838 120.833 60.032 120.718 59.7519 120.941Z" fill="white"/>
<path d="M75.7148 126.001C75.3889 126.179 75.0287 126.899 74.9887 127.459C74.9487 128.065 75.5547 131.53 76.035 133.434C76.2522 134.297 76.4237 134.72 76.681 135.012C76.8869 135.246 77.3157 135.492 77.613 135.549L77.8245 135.589L77.6301 134.88C77.0584 132.822 76.7153 131.187 76.5552 129.803C76.4581 128.957 76.4352 127.156 76.5209 126.516C76.5896 125.984 76.5438 125.916 76.1608 125.916C75.9949 125.921 75.7948 125.956 75.7148 126.001Z" fill="#65A9FF"/>
<path d="M90.2997 129.277C89.9395 129.454 89.8881 129.643 89.9281 130.661C90.031 133.222 90.5284 135.109 91.729 137.55C92.3522 138.819 92.8782 139.728 93.6786 140.917C94.1189 141.569 94.2618 141.741 94.4734 141.855C94.6849 141.975 94.7764 141.992 94.9879 141.958C95.1309 141.935 95.2795 141.901 95.3195 141.878C95.371 141.844 95.2338 141.501 94.7992 140.574C93.8788 138.625 93.2613 137.093 92.6781 135.303C91.9806 133.159 91.5003 131.141 91.4489 130.123C91.4089 129.477 91.4032 129.443 91.2545 129.311C91.0544 129.14 90.6027 129.123 90.2997 129.277Z" fill="#66A9FF"/>
<path d="M98.8357 130.226C98.6013 130.335 98.5555 130.506 98.6699 130.889C98.8643 131.547 98.8929 131.901 98.8986 133.633C98.9043 135.166 98.9157 135.4 99.0015 135.554C99.213 135.938 99.7161 135.886 99.9334 135.469C99.9791 135.377 100.122 134.703 100.254 133.971C100.459 132.81 100.488 132.564 100.459 132.09C100.442 131.792 100.385 131.415 100.339 131.261C100.231 130.906 99.9506 130.472 99.7276 130.317C99.516 130.163 99.0758 130.117 98.8357 130.226Z" fill="white"/>
<path d="M114.267 135.788C114.158 135.828 114.009 136.143 113.964 136.434C113.718 137.932 115.507 141.088 117.268 142.266C117.851 142.655 117.931 142.638 117.606 142.192C117.143 141.563 116.502 140.585 116.359 140.294C116.148 139.871 115.376 137.498 115.119 136.475C114.964 135.857 114.884 135.748 114.581 135.754C114.45 135.754 114.307 135.771 114.267 135.788Z" fill="#66A9FF"/>
<path d="M67.0187 136.208C66.75 136.42 66.7157 136.603 66.8243 137.283C67.1159 139.13 67.1044 141.096 66.8014 143.155C66.7385 143.561 66.647 144.064 66.5899 144.264L66.4927 144.63L66.6528 144.761C66.75 144.853 66.8815 144.898 67.013 144.898C67.3274 144.898 67.5275 144.641 67.8362 143.835C68.3851 142.434 68.5109 141.651 68.5223 139.696C68.528 138.038 68.4766 137.695 68.0878 136.911C67.7105 136.151 67.3731 135.928 67.0187 136.208Z" fill="white"/>
<path d="M54.6864 137.457C54.5148 137.858 54.3948 138.406 54.3948 138.807C54.3948 139.533 54.6406 140.185 55.3667 141.379C56.3615 143.026 56.9047 143.529 57.8423 143.666C58.1339 143.712 59.083 143.649 59.083 143.592C59.083 143.569 58.9058 143.455 58.6942 143.34C57.5393 142.717 56.636 141.637 55.9556 140.053C55.807 139.716 55.5154 138.932 55.3038 138.321C55.098 137.709 54.8979 137.2 54.8693 137.194C54.835 137.183 54.755 137.303 54.6864 137.457Z" fill="#66A9FF"/>
<path d="M79.5454 137.916C79.2881 138.173 79.2995 138.442 79.6083 139.128C80.4773 141.072 80.929 143.278 81.1005 146.412C81.1348 147.069 81.1748 147.624 81.192 147.641C81.2434 147.698 81.4321 147.406 81.5522 147.08C81.8838 146.194 82.0381 144.765 81.9524 143.273C81.8094 140.826 81.2377 138.802 80.4659 138.03C80.22 137.784 80.1571 137.75 79.9513 137.75C79.7626 137.75 79.6769 137.784 79.5454 137.916Z" fill="white"/>
</svg>
