<svg width="76" height="66" viewBox="0 0 76 66" fill="none" xmlns="http://www.w3.org/2000/svg">
<path d="M32.265 32.9058C32.265 41.7897 30.4482 49.783 27.5578 55.5185C24.6384 61.3116 20.7885 64.5214 16.8284 64.5214C12.8683 64.5214 9.01841 61.3116 6.09901 55.5185C3.20864 49.783 1.39185 41.7897 1.39185 32.9058C1.39185 24.0219 3.20864 16.0286 6.09901 10.2931C9.01841 4.50003 12.8683 1.29016 16.8284 1.29016C20.7885 1.29016 24.6384 4.50003 27.5578 10.2931C30.4482 16.0286 32.265 24.0219 32.265 32.9058Z" stroke="white" stroke-width="2"/>
<mask id="mask0_1_266" style="mask-type:alpha" maskUnits="userSpaceOnUse" x="0" y="0" width="34" height="66">
<ellipse cx="16.8284" cy="32.9058" rx="16.4366" ry="32.6156" fill="white"/>
</mask>
<g mask="url(#mask0_1_266)">
<ellipse cx="16.8286" cy="46.6383" rx="15.7219" ry="18.8827" fill="white"/>
</g>
<ellipse cx="22.9381" cy="39.7204" rx="5.35975" ry="8.58306" fill="black"/>
<path d="M75 32.9058C75 41.7897 73.1832 49.783 70.2928 55.5185C67.3734 61.3116 63.5236 64.5214 59.5634 64.5214C55.6033 64.5214 51.7535 61.3116 48.8341 55.5185C45.9437 49.783 44.1269 41.7897 44.1269 32.9058C44.1269 24.0219 45.9437 16.0286 48.8341 10.2931C51.7535 4.50003 55.6033 1.29016 59.5634 1.29016C63.5236 1.29016 67.3734 4.50003 70.2928 10.2931C73.1832 16.0286 75 24.0219 75 32.9058Z" stroke="white" stroke-width="2"/>
<mask id="mask1_1_266" style="mask-type:alpha" maskUnits="userSpaceOnUse" x="43" y="0" width="33" height="66">
<ellipse cx="59.5634" cy="32.9058" rx="16.4366" ry="32.6156" fill="white"/>
</mask>
<g mask="url(#mask1_1_266)">
<ellipse cx="59.5637" cy="46.6383" rx="15.7219" ry="18.8827" fill="white"/>
</g>
<ellipse cx="65.6737" cy="39.7204" rx="5.35975" ry="8.58306" fill="black"/>
</svg>
