<svg width="191" height="57" viewBox="0 0 191 57" fill="none" xmlns="http://www.w3.org/2000/svg">
<rect x="1.3877" y="1.23047" width="189" height="54.5334" rx="27.2667" stroke="white"/>
<ellipse cx="29.8877" cy="28.497" rx="23" ry="22.0219" fill="#FF8154"/>
<path d="M19.9939 19.6203L39.4709 19.3243L39.1617 37.973L35.761 22.8764L19.9939 19.6203Z" fill="black"/>
<path d="M36.3806 22.2808L20.3043 37.6734" stroke="black"/>
<path d="M74.7917 28.2104V29.4104H78.2477V29.7304C78.1037 31.2024 76.8717 32.7704 74.6477 32.7704C72.5837 32.7704 71.0957 31.1704 71.0957 28.3704C71.0957 25.8104 72.5837 24.0984 74.8237 24.0984C76.8717 24.0984 77.7357 25.2664 77.9277 26.5464H79.3677C79.1437 24.4664 77.6397 22.8504 74.8077 22.8504C71.7357 22.8504 69.6717 25.0904 69.6717 28.3704C69.6717 31.9064 71.6877 34.0184 74.6317 34.0184C76.4877 34.0184 77.6717 33.1864 78.3277 32.0184V33.9224H79.4157V28.2104H74.7917ZM88.3721 30.0184C88.3721 27.4904 86.9961 26.0024 84.8041 26.0024C82.6121 26.0024 81.0601 27.6664 81.0601 30.0184C81.0601 32.3224 82.3881 34.0024 84.8361 34.0024C86.9321 34.0024 88.0201 32.8664 88.3241 31.4424H86.9001C86.7561 32.0824 86.2281 32.8024 84.8521 32.8024C83.4761 32.8024 82.6281 31.8584 82.5161 30.3704H88.3721V30.0184ZM84.8201 27.2024C86.0041 27.2024 86.7721 27.9224 86.9481 29.3304H82.5481C82.7721 28.0184 83.6201 27.2024 84.8201 27.2024ZM94.5349 32.5784C94.1989 32.7224 93.8629 32.7704 93.5109 32.7704C92.2309 32.7704 91.8629 32.1304 91.8629 31.3464V27.2664H94.4069V26.0824H91.8629V23.7464H90.5349V26.0824H89.2709V27.2984H90.4549V31.3464C90.4549 32.9784 91.5429 34.0024 93.3669 34.0024C93.8629 34.0024 94.3429 33.9224 94.5989 33.8104L94.5349 32.5784ZM100.928 25.7784C100.928 24.7064 101.68 24.0984 103.376 24.0984C104.88 24.0984 105.856 24.6904 105.856 26.0184H107.248C107.264 24.0184 105.776 22.8504 103.424 22.8504C101.072 22.8504 99.5039 24.0024 99.5039 25.8104C99.5039 30.2104 105.968 27.9544 105.968 31.0584C105.984 32.1464 105.024 32.7704 103.456 32.7704C101.6 32.7704 100.608 32.0184 100.608 30.7704H99.2159C99.2159 32.8504 100.768 34.0184 103.344 34.0184C105.76 34.0184 107.392 32.8344 107.392 31.0584C107.392 26.5304 100.928 28.7384 100.928 25.7784ZM113.754 32.5784C113.418 32.7224 113.082 32.7704 112.73 32.7704C111.45 32.7704 111.082 32.1304 111.082 31.3464V27.2664H113.626V26.0824H111.082V23.7464H109.754V26.0824H108.49V27.2984H109.674V31.3464C109.674 32.9784 110.762 34.0024 112.586 34.0024C113.082 34.0024 113.562 33.9224 113.818 33.8104L113.754 32.5784ZM122.363 32.6424C122.203 32.7064 122.107 32.7224 121.963 32.7224C121.707 32.7224 121.515 32.5304 121.515 32.1944V28.9944C121.515 27.1064 120.331 26.0024 118.267 26.0024C116.347 26.0024 115.019 26.9784 114.891 28.6744H116.267C116.363 27.7304 117.051 27.2024 118.171 27.2024C119.435 27.2024 120.107 27.8744 120.107 28.9624V29.4744H118.459C116.283 29.4744 114.715 30.1784 114.715 31.8744C114.715 33.1224 115.595 34.0024 117.371 34.0024C119.115 34.0024 119.835 33.1704 120.123 32.7224C120.219 33.4904 120.763 34.0024 121.579 34.0024C121.915 34.0024 122.203 33.9544 122.475 33.8744L122.363 32.6424ZM117.659 32.8664C116.603 32.8664 116.155 32.4664 116.155 31.8104C116.155 30.9464 116.907 30.4984 118.379 30.4984H120.107V31.0424C120.107 31.7624 119.243 32.8664 117.659 32.8664ZM127.402 26.0024C126.378 26.0024 125.722 26.5784 125.338 27.3464L125.306 26.0824H123.978V33.9224H125.386V29.7944C125.386 28.2104 126.314 27.3784 127.306 27.3784C127.626 27.3784 127.77 27.4104 127.834 27.4424L127.85 26.0504C127.754 26.0344 127.61 26.0024 127.402 26.0024ZM133.769 32.5784C133.433 32.7224 133.097 32.7704 132.745 32.7704C131.465 32.7704 131.097 32.1304 131.097 31.3464V27.2664H133.641V26.0824H131.097V23.7464H129.769V26.0824H128.505V27.2984H129.689V31.3464C129.689 32.9784 130.777 34.0024 132.601 34.0024C133.097 34.0024 133.577 33.9224 133.833 33.8104L133.769 32.5784ZM141.966 30.0184C141.966 27.4904 140.59 26.0024 138.398 26.0024C136.206 26.0024 134.654 27.6664 134.654 30.0184C134.654 32.3224 135.982 34.0024 138.43 34.0024C140.526 34.0024 141.614 32.8664 141.918 31.4424H140.494C140.35 32.0824 139.822 32.8024 138.446 32.8024C137.07 32.8024 136.222 31.8584 136.11 30.3704H141.966V30.0184ZM138.414 27.2024C139.598 27.2024 140.366 27.9224 140.542 29.3304H136.142C136.366 28.0184 137.214 27.2024 138.414 27.2024ZM149.581 22.5624V27.2824C149.117 26.5304 148.285 26.0024 147.005 26.0024C144.813 26.0024 143.341 27.6824 143.341 30.0984C143.341 32.4824 144.781 34.0024 146.909 34.0024C148.189 34.0024 149.085 33.4104 149.581 32.6104L149.613 33.9224H150.989V22.5624H149.581ZM147.069 32.8024C145.661 32.8024 144.781 31.7304 144.781 30.0664C144.781 28.3704 145.693 27.2024 147.101 27.2024C148.813 27.2024 149.581 28.6584 149.581 29.8424V30.1944C149.581 31.3464 148.781 32.8024 147.069 32.8024Z" fill="white"/>
</svg>
