<svg width="36" height="37" viewBox="0 0 36 37" fill="none" xmlns="http://www.w3.org/2000/svg">
<g clip-path="url(#clip0_9_46)">
<path d="M10.5 18.3145C11.8807 18.3145 13 17.1952 13 15.8145C13 14.4337 11.8807 13.3145 10.5 13.3145C9.11929 13.3145 8 14.4337 8 15.8145C8 17.1952 9.11929 18.3145 10.5 18.3145Z" fill="#FDF390"/>
<path d="M15 14.3145C16.3807 14.3145 17.5 13.1952 17.5 11.8145C17.5 10.4337 16.3807 9.31445 15 9.31445C13.6193 9.31445 12.5 10.4337 12.5 11.8145C12.5 13.1952 13.6193 14.3145 15 14.3145Z" fill="#62B2AE"/>
<path d="M21 14.3145C22.3807 14.3145 23.5 13.1952 23.5 11.8145C23.5 10.4337 22.3807 9.31445 21 9.31445C19.6193 9.31445 18.5 10.4337 18.5 11.8145C18.5 13.1952 19.6193 14.3145 21 14.3145Z" fill="#F490FD"/>
<path d="M25.5 18.3145C26.8807 18.3145 28 17.1952 28 15.8145C28 14.4337 26.8807 13.3145 25.5 13.3145C24.1193 13.3145 23 14.4337 23 15.8145C23 17.1952 24.1193 18.3145 25.5 18.3145Z" fill="#EF865F"/>
<path d="M23.3399 21.1745C22.4699 20.1545 21.7399 19.2845 20.8599 18.2645C20.3999 17.7245 19.8099 17.1845 19.1099 16.9445C18.9999 16.9045 18.8899 16.8745 18.7799 16.8545C18.5299 16.8145 18.2599 16.8145 17.9999 16.8145C17.7399 16.8145 17.4699 16.8145 17.2099 16.8645C17.0999 16.8845 16.9899 16.9145 16.8799 16.9545C16.1799 17.1945 15.5999 17.7345 15.1299 18.2745C14.2599 19.2945 13.5299 20.1645 12.6499 21.1845C11.3399 22.4945 9.7299 23.9445 10.0299 25.9745C10.3199 26.9945 11.0499 28.0045 12.3599 28.2945C13.0899 28.4445 15.4199 27.8545 17.8999 27.8545H18.0799C20.5599 27.8545 22.8899 28.4345 23.6199 28.2945C24.9299 28.0045 25.6599 26.9845 25.9499 25.9745C26.2599 23.9345 24.6499 22.4845 23.3399 21.1745Z" fill="white"/>
</g>
<path d="M16.5343 36.2547C20.1783 36.5524 23.8265 35.7334 26.9936 33.9066C30.1606 32.0799 32.6963 29.332 34.2632 26.0286C35.8301 22.7253 36.3539 19.0231 35.7649 15.4147C35.1759 11.8063 33.5021 8.46288 30.9661 5.82924C28.4301 3.19559 25.1523 1.39664 21.5687 0.67177C17.9852 -0.053101 14.2658 0.330479 10.9057 1.77147C7.54548 3.21246 4.70378 5.64253 2.75869 8.73831C0.813601 11.8341 -0.142639 15.4488 0.0172123 19.1014L0.556695 19.0778C0.401639 15.5348 1.32919 12.0285 3.21593 9.0256C5.10266 6.02268 7.85911 3.66552 11.1185 2.26776C14.3779 0.869997 17.9856 0.497925 21.4617 1.20105C24.9377 1.90417 28.1172 3.64915 30.5771 6.20379C33.037 8.75843 34.6606 12.0016 35.2319 15.5017C35.8033 19.0018 35.2952 22.5929 33.7753 25.7972C32.2554 29.0014 29.7958 31.6669 26.7238 33.4389C23.6517 35.2108 20.1129 36.0053 16.5783 35.7165L16.5343 36.2547Z" fill="white"/>
<path d="M16.6972 34.2613C19.9363 34.526 23.1791 33.7979 25.9943 32.1742C28.8095 30.5504 31.0634 28.1078 32.4562 25.1715C33.849 22.2352 34.3146 18.9444 33.791 15.7369C33.2675 12.5295 31.7796 9.5575 29.5254 7.21648C27.2712 4.87546 24.3576 3.2764 21.1722 2.63207C17.9868 1.98774 14.6807 2.3287 11.6939 3.60958C8.70709 4.89046 6.18114 7.05052 4.45217 9.80233C2.7232 12.5541 1.87321 15.7672 2.0153 19.014L3.29408 18.958C3.16335 15.971 3.94534 13.015 5.53599 10.4833C7.12664 7.95163 9.45052 5.96438 12.1984 4.78597C14.9463 3.60756 17.9879 3.29388 20.9184 3.88666C23.849 4.47944 26.5295 5.95058 28.6034 8.10432C30.6772 10.2581 32.0461 12.9923 32.5277 15.9431C33.0094 18.894 32.581 21.9215 31.2997 24.6229C30.0183 27.3243 27.9447 29.5715 25.3548 31.0654C22.7648 32.5593 19.7814 33.229 16.8014 32.9856L16.6972 34.2613Z" fill="white" fill-opacity="0.3"/>
<defs>
<clipPath id="clip0_9_46">
<rect width="24" height="24" fill="white" transform="translate(6 6.31445)"/>
</clipPath>
</defs>
</svg>
