<svg width="161" height="161" viewBox="0 0 161 161" fill="none" xmlns="http://www.w3.org/2000/svg">
<circle cx="80.921" cy="80.7134" r="78.5" stroke="white" stroke-width="3"/>
<path d="M85.5394 20.5096C86.2401 20.6134 86.8473 20.7587 88.42 21.1844C90.4649 21.7398 91.3005 21.8851 92.4216 21.8851C93.4077 21.8851 94.0461 22.1187 95.3592 22.9647C95.764 23.2242 96.283 23.5305 96.5114 23.6499C97.0356 23.9094 97.1187 24.0443 97.0356 24.4596C96.9681 24.7814 96.9993 24.9994 97.1498 25.2485C97.2744 25.451 97.7207 25.8195 100.539 28.0255C101.333 28.6483 102.267 29.5619 102.599 30.0342C103.025 30.6363 104.701 33.5118 105.438 34.9081C105.947 35.8631 106.482 36.9998 106.824 37.8407C106.959 38.1833 107.224 38.7075 107.411 39.0086C107.743 39.564 107.888 39.9065 107.842 40.0519C107.764 40.2958 107.431 40.4256 107.162 40.3114C106.996 40.2439 106.788 39.974 106.539 39.5017C106.31 39.0657 106.098 38.8269 105.88 38.7542C105.781 38.7179 105.688 38.7023 105.677 38.7127C105.667 38.7231 105.828 39.8079 106.041 41.1159C106.248 42.4291 106.471 43.8513 106.534 44.2821C106.591 44.7129 106.7 45.2216 106.767 45.4137C106.84 45.6109 106.897 45.8185 106.897 45.8808C106.897 46.0573 106.705 46.3324 106.523 46.4051C106.31 46.4985 106.196 46.4414 105.968 46.1455C105.791 45.912 105.62 45.8237 105.464 45.886C105.381 45.9171 105.376 46.13 105.402 48.419C105.428 50.4485 105.418 50.9675 105.361 51.1596C105.319 51.2893 105.158 51.5592 104.982 51.7772C104.395 52.5091 104.177 53.1216 103.887 54.8344C103.705 55.8777 103.627 56.158 103.461 56.3345C103.243 56.5681 102.823 56.594 102.651 56.3916C102.62 56.3501 102.558 56.158 102.516 55.966C102.475 55.7687 102.402 55.5715 102.356 55.5248C102.278 55.4469 102.262 55.4521 102.138 55.5974C101.894 55.8881 101.561 56.6823 101.302 57.601C101.022 58.5872 100.824 59.0543 100.534 59.4384C100.3 59.7447 99.8227 60.0976 99.475 60.2222C99.1584 60.3364 99.1117 60.3883 98.956 60.7776C98.8158 61.1409 98.6653 61.2551 98.4058 61.2136C98.0788 61.1617 97.9543 60.9748 97.866 60.4194C97.8349 60.2222 97.7674 59.9419 97.7103 59.7966C97.5546 59.3761 97.5027 58.9817 97.4508 57.7982C97.4197 57.0871 97.373 56.5733 97.3159 56.376C97.2173 56.0075 96.9941 55.5715 96.7605 55.2912L96.5893 55.094L96.2519 55.4469C95.6135 56.1217 95.1931 56.5836 95.0218 56.7965C94.7571 57.139 94.5443 57.5854 94.5443 57.8034C94.5443 58.0474 94.726 58.2187 95.4474 58.6495C96.2467 59.1322 96.8332 59.89 96.6931 60.2845C96.5944 60.57 96.2311 60.6738 95.1516 60.736L94.4924 60.7724L94.7416 60.9696C95.0322 61.2032 95.3332 61.5769 95.8107 62.3036C96.4647 63.3054 96.7865 63.5234 97.6688 63.5649L98.219 63.5908L98.6705 64.058C99.2414 64.6445 99.4646 64.9871 99.9836 66.0563C100.212 66.5287 100.508 67.0737 100.638 67.2761C101.048 67.8938 101.198 68.527 101.266 69.9232C101.317 70.9406 101.401 71.3506 101.676 71.8956C101.811 72.1552 101.914 72.4095 101.914 72.4614C101.914 72.7054 101.328 73.0116 100.85 73.0116C100.57 73.0116 100.435 73.1154 100.259 73.4632L100.113 73.7538L100.347 73.9667C100.612 74.2054 100.757 74.5013 100.928 75.1397C101.151 75.9961 101.26 76.1415 102.174 76.8111C102.75 77.2315 103.663 78.1502 104.131 78.7731C105.329 80.3821 106.098 82.1469 107.084 85.5623C107.867 88.2873 107.935 89.8029 107.468 94.5263C107.354 95.6682 107.224 97.2461 107.182 98.0299C107.094 99.722 107.032 100.096 106.663 101.061C105.833 103.262 105.823 103.812 106.58 105.759C106.892 106.553 106.892 106.599 106.58 107.025C106.456 107.201 106.378 107.373 106.378 107.461C106.378 107.544 106.508 107.814 106.679 108.105C106.996 108.624 107.271 109.288 107.753 110.669C108.293 112.21 108.719 112.968 109.456 113.705C110.12 114.375 110.322 114.873 110.421 116.114C110.483 116.887 110.556 117.084 111.039 117.754C112.03 119.124 112.492 120.671 112.341 122.114C112.196 123.578 112.227 124.045 112.533 124.657C112.876 125.332 113.411 125.706 114.765 126.209C115.772 126.578 116.218 126.78 116.95 127.201C118.211 127.927 119.545 128.924 121.351 130.496C123.822 132.645 124.336 133.066 125.607 133.964C127.694 135.443 127.839 135.568 128.094 136.071C128.306 136.486 128.384 136.912 128.384 137.659C128.379 138.703 128.286 138.973 127.829 139.196L127.58 139.315L124.31 139.32C120.614 139.331 120.682 139.326 114.5 139.788C109.809 140.135 107.592 140.213 104.951 140.125C103.892 140.089 103.015 140.052 102.999 140.042C102.984 140.031 102.433 140.052 101.779 140.083C101.125 140.115 99.2933 140.146 97.7103 140.151C94.6845 140.161 94.4976 140.172 92.624 140.442C92.2088 140.499 91.3576 140.644 90.7296 140.763C89.6085 140.976 89.567 140.976 88.42 140.981C87.0913 140.981 86.5255 140.898 85.555 140.561C84.9062 140.333 84.6156 140.187 84.1225 139.85C83.4374 139.377 82.9184 138.723 82.6018 137.934C82.4565 137.571 82.2592 137.322 82.1243 137.322C82.088 137.322 81.9323 137.405 81.7766 137.504C81.3458 137.784 80.9928 137.893 80.3545 137.95C78.9012 138.08 78.1746 138.215 75.4186 138.879C71.3236 139.865 71.1367 139.886 66.2061 140.057C62.9259 140.172 57.5126 140.187 56.5783 140.083C55.203 139.928 54.5282 139.518 54.2064 138.635C54.0404 138.173 54.0507 137.234 54.2376 136.429C54.8396 133.813 56.3137 131.254 57.7825 130.289C58.6077 129.744 58.9918 129.199 58.9918 128.576C58.9918 127.803 58.6181 126.624 57.5593 124.045C56.215 120.78 55.0213 117.614 53.9158 114.406C53.049 111.889 53.0179 111.733 52.8933 109.034C52.8155 107.342 52.8103 107.279 52.5871 105.764C52.3951 104.425 52.3432 103.62 52.3432 102.027C52.3484 98.6216 52.8881 94.8844 54.1442 89.5849C54.7358 87.0831 54.959 85.8425 55.0472 84.5709C55.1511 83.0864 55.203 82.64 55.3587 81.9393C55.6337 80.7143 55.6701 80.3562 55.7479 78.0464C55.7946 76.6086 55.8517 75.6691 55.9036 75.3473C56.023 74.6103 56.2098 73.9718 56.4486 73.4217C56.5732 73.1517 56.7081 72.7988 56.7496 72.6379C56.8327 72.3472 56.8327 72.3368 56.7185 72.1967C56.3915 71.7815 56.3188 71.5998 56.3188 71.1897V70.8004L56.9105 69.6326C57.6475 68.1896 57.9382 67.6809 58.5506 66.757C58.8153 66.3574 59.0592 65.9785 59.0904 65.9162C59.2305 65.6411 59.106 65.2674 58.8205 65.1116C58.7582 65.0805 58.5558 65.0494 58.3689 65.0442C57.8966 65.0338 57.689 64.9196 57.3413 64.4784C57.1804 64.276 56.895 63.9438 56.7081 63.7465C55.7272 62.7033 55.1147 61.9247 54.2687 60.6582C53.9314 60.1599 53.4072 59.4125 53.1009 58.9972C51.9747 57.466 51.6269 56.703 51.466 55.3898C51.3882 54.7618 51.2844 54.3725 51.0768 53.9365C50.8328 53.4278 50.5941 53.1683 50.1945 52.9814C50.0128 52.8932 49.7844 52.7427 49.6858 52.644C49.39 52.3534 49.3692 52.1873 49.364 50.0955C49.3537 48.1698 49.3277 47.8688 49.1253 47.22C48.9955 46.8047 48.8658 46.5504 48.5907 46.1559C48.3987 45.8808 48.3831 45.8237 48.3883 45.559C48.3935 45.3981 48.4402 45.1489 48.4973 45.0036C48.7412 44.3963 48.7879 43.9915 48.7672 42.8547C48.7205 40.5761 48.7412 39.8598 48.8658 39.2733C49.037 38.4688 49.4419 37.3061 49.9298 36.2161C50.9315 33.9842 51.4816 32.7955 51.8345 32.1C52.7376 30.3249 53.8691 29.0324 55.1095 28.3473C55.6234 28.067 55.722 27.932 55.722 27.4856C55.722 26.8991 55.9452 26.5306 56.459 26.2659C56.8015 26.0894 57.7358 25.7624 58.6025 25.5133C59.5679 25.233 59.8118 25.1084 60.3101 24.6464C61.618 23.4422 62.6716 23.0062 65.9622 22.3263C67.5244 21.9993 67.7891 21.9733 68.905 22.0045C70.2233 22.0408 71.3288 22.238 73.0415 22.7467C73.3841 22.8453 73.7681 22.9232 73.9135 22.9232C74.1937 22.9232 74.2456 22.9024 75.0034 22.456C76.4151 21.6308 78.159 21.1013 80.4894 20.7951C83.0637 20.4577 84.5896 20.3746 85.5394 20.5096ZM80.7904 21.6515C78.8389 21.9058 76.9912 22.5962 75.0034 23.8056C74.692 23.9976 74.3391 24.1845 74.2301 24.2208C73.8719 24.335 73.5242 24.2987 73.0208 24.091C71.4274 23.4215 70.1402 23.136 68.334 23.0478C67.4621 23.0062 67.2285 23.0581 66.2528 23.5201C65.2926 23.9769 65.0279 24.0599 64.3636 24.1222C63.2529 24.2208 62.6716 24.4596 61.0886 25.4821C59.9571 26.2088 59.3758 26.5046 58.7167 26.6967C58.2288 26.842 58.2236 26.842 57.8759 27.2313C57.6787 27.4441 57.061 28.1085 56.5005 28.7106C54.7151 30.6155 54.0248 31.4149 53.2463 32.4582C50.7758 35.7801 49.7377 39.4031 49.9194 44.116C50.0076 46.5141 50.3761 48.7875 51.0249 50.9364C51.5231 52.6025 52.7169 55.639 53.4643 57.1546C54.4141 59.0855 55.9452 60.9125 58.317 62.9472C59.5731 64.0268 61.8567 65.8435 62.1007 65.9577C62.5574 66.1757 63.1024 66.0771 63.2737 65.7449C63.3878 65.5217 63.3774 65.4594 63.0972 64.8885C62.5834 63.8452 61.7477 62.0752 61.6232 61.7741C60.881 59.9782 60.7201 57.819 61.1457 55.5196C61.2806 54.8137 61.6595 53.3448 62.0021 52.2236C62.3342 51.1284 62.4173 50.6509 62.3187 50.2979C62.2875 50.1786 62.0332 49.7581 61.7322 49.3377C60.5125 47.6093 59.6821 46.187 59.0956 44.8012C58.0368 42.3149 57.8966 39.756 58.6804 37.3995C59.4277 35.1572 61.0315 33.3717 63.1491 32.4426C64.5971 31.8041 66.7562 31.446 68.36 31.581C69.7094 31.6951 70.7734 32.0066 72.2007 32.7073C73.2751 33.2315 73.5709 33.325 74.0692 33.2938C74.7179 33.2523 74.9204 33.107 76.3269 31.6951C77.6348 30.3716 77.9099 30.1276 78.4912 29.7539C79.2957 29.24 80.0327 29.0168 81.1849 28.9494C81.9582 28.9027 81.9738 28.8975 83.0845 28.5341C84.382 28.1085 84.7661 28.0358 85.4875 28.0826C86.4114 28.1448 86.7851 28.3265 87.0446 28.8404C87.1847 29.1207 87.4546 29.375 87.7349 29.4944C87.8387 29.5359 88.1604 29.6293 88.4459 29.6968C89.1206 29.8577 89.9614 30.1484 90.4182 30.3871C90.6725 30.5169 90.9112 30.7038 91.2226 31.0204C91.5963 31.3941 91.7209 31.5654 92.0219 32.1363C92.2192 32.5101 92.598 33.2004 92.8679 33.6779C94.181 36.0448 94.591 37.0725 94.9076 38.775C95.2554 40.6799 95.3021 41.7492 95.0634 42.6938C94.9492 43.1714 94.6481 43.8565 94.3886 44.2302C94.0617 44.7026 93.9527 45.0192 93.9475 45.4811C93.9475 45.86 93.963 45.9327 94.1395 46.2857C94.2537 46.5089 94.534 46.9137 94.8298 47.2667C96.4024 49.156 97.4249 51.3101 97.9439 53.8275C98.1255 54.7254 98.2086 55.3483 98.328 56.7913C98.3902 57.4764 98.4473 58.1408 98.4681 58.2654L98.4992 58.4886L98.712 58.4574C99.0753 58.4003 99.6618 58.0889 99.9317 57.8138C100.243 57.492 100.394 57.2065 100.695 56.376C101.255 54.8344 101.811 53.9936 102.771 53.2617C103.196 52.9347 103.336 52.7686 103.539 52.3793C103.746 51.9693 103.824 51.6215 103.939 50.6405C104.001 50.1422 104.115 49.2754 104.198 48.72C104.541 46.4051 104.603 45.5175 104.509 44.3133C104.432 43.3427 104.432 43.353 104.826 42.8288C105.137 42.4136 105.143 42.3824 105.08 41.3028C104.956 39.1487 104.93 38.967 104.509 37.7992C104.297 37.2127 104.307 36.9324 104.551 36.6521C104.971 36.1746 105.086 35.6399 104.862 35.178C104.79 35.0326 104.541 34.7368 104.208 34.4202C102.916 33.1693 101.613 31.581 99.8642 29.1258C99.0079 27.9165 98.4473 27.2365 97.7363 26.5306C96.6412 25.4354 95.4111 24.553 94.0513 23.8834C92.4423 23.0841 91.0669 22.6844 88.9909 22.4041C88.5497 22.3419 87.439 22.1706 86.5255 22.0148C85.0204 21.7605 83.9045 21.61 83.126 21.5529C82.6537 21.5218 81.3717 21.5737 80.7904 21.6515ZM83.9253 29.3075C83.0585 29.3802 82.3786 29.5203 81.543 29.7954C79.8977 30.3456 78.3147 31.0671 77.5102 31.6432C76.9549 32.0429 76.3944 32.5931 75.9636 33.1744C75.538 33.7402 75.4498 33.8284 75.0813 34.0101C74.8529 34.1243 74.7076 34.1606 74.3443 34.1762C74.0899 34.1918 73.7785 34.171 73.6436 34.1399C73.1401 34.0153 72.3045 33.6572 71.8063 33.3509C69.8703 32.1623 67.9344 32.0689 64.649 33.0187C63.1179 33.4599 62.464 33.8233 61.5609 34.7316C60.8966 35.396 60.471 35.9981 60.0298 36.9116C59.3966 38.1989 59.1579 39.1435 59.1163 40.519C59.0644 42.0243 59.2461 42.8028 60.0246 44.3859C60.7824 45.9327 61.6439 47.3342 62.7443 48.8031C63.5902 49.9346 63.72 49.9346 64.6075 48.7771C66.5434 46.2701 69.0762 44.8687 72.5381 44.3859C73.1713 44.2977 74.7647 44.2043 75.6418 44.2043C76.4307 44.2043 77.0224 44.0641 78.2524 43.5866C79.6226 43.0572 80.7281 42.6886 81.6416 42.4655C84.9322 41.6557 87.5584 42.0346 90.1119 43.6748C91.1552 44.3392 91.7105 44.5676 92.3074 44.5676C92.7434 44.5676 93.0029 44.4482 93.2883 44.1264C93.6983 43.6593 93.8904 42.8807 93.9734 41.3235C94.0409 40.0778 93.9838 39.6262 93.6672 38.884C93.3817 38.2196 93.3506 38.0691 93.2987 37.1037C93.252 36.1123 93.2364 36.0552 92.7589 35.1468C91.3783 32.4945 89.5514 30.6778 87.4079 29.8214C86.8162 29.5878 85.882 29.3646 85.2799 29.3127C84.9945 29.2919 84.7246 29.266 84.6779 29.2608C84.6311 29.2608 84.2938 29.2816 83.9253 29.3075ZM83.1 43.1921C81.9997 43.3582 81.2783 43.597 78.0396 44.8738C77.9047 44.9258 77.7749 45.0192 77.7282 45.1022C77.6608 45.2216 77.666 45.2735 77.7698 45.6265C77.832 45.8445 77.8839 46.1351 77.8839 46.2753C77.8839 46.54 77.967 46.6853 78.1331 46.7061C78.1798 46.7113 78.6157 46.7165 79.1036 46.7217C79.8925 46.7269 80.0171 46.7424 80.2922 46.8462C80.9877 47.1213 81.3406 47.8013 81.325 48.8498C81.3198 49.3844 81.2731 49.618 81.0447 50.246C80.6814 51.253 79.6019 52.7479 78.8856 53.241C78.1694 53.7341 77.2352 53.7289 76.3269 53.2254C75.6366 52.8413 74.8062 52.1042 74.2768 51.3931C73.436 50.272 73.2439 49.3844 73.6695 48.5954C73.846 48.2684 74.3443 47.8169 74.8321 47.5366C75.1851 47.3342 75.2681 47.3134 75.8131 47.2511C76.14 47.2096 76.4566 47.1525 76.5189 47.1161C76.7213 47.0123 76.8096 46.7684 76.7836 46.4102C76.7369 45.86 76.4151 45.424 75.9532 45.2839C75.6574 45.1957 73.9238 45.1957 73.2387 45.2839C71.3495 45.5382 69.4551 46.187 68.0486 47.0591C66.3618 48.1075 64.8151 49.6855 63.6629 51.5229C62.6508 53.1423 62.3135 54.0922 61.8983 56.5577C61.6803 57.8397 61.6907 58.1927 61.9865 58.7948C62.1007 59.0336 62.3031 59.3761 62.438 59.5526C62.9519 60.2326 63.8653 60.9696 64.7269 61.4004C65.2096 61.6392 66.1853 61.9506 68.4534 62.5839C69.4863 62.8693 70.789 63.2431 71.3443 63.4092C72.5744 63.7777 72.9637 63.8452 73.6799 63.8088C74.1107 63.7881 74.3131 63.7465 74.6505 63.622C75.4342 63.3313 75.7145 63.3002 77.4895 63.3054H79.1036L80.4012 63.0458C84.1069 62.2984 86.1103 61.5717 88.6379 60.0509C90.5635 58.8986 91.97 57.8086 95.4007 54.8396C96.9889 53.459 97.0045 53.4382 96.8955 52.8984C96.8228 52.5662 96.3194 51.4969 95.8471 50.6665C93.3558 46.3116 89.8109 43.8202 85.2124 43.1921C84.5221 43.0987 83.7229 43.0987 83.1 43.1921ZM92.9717 58.5353C92.6915 58.6754 92.4371 58.8675 90.9372 60.0613C90.2521 60.6115 89.4268 61.307 89.1051 61.6081C88.3888 62.288 88.0826 62.4541 87.003 62.7396C86.5307 62.8642 85.9235 63.077 85.4927 63.2638C84.4599 63.7102 83.7488 63.9542 82.7367 64.2137C81.0188 64.6497 80.0898 64.7587 76.5085 64.9404C75.0813 65.013 73.6073 65.0961 73.2336 65.122C72.4135 65.1791 72.1332 65.1324 71.308 64.7898C70.9343 64.6341 70.3738 64.468 69.7043 64.3123C68.3808 64.0061 66.5953 63.4922 65.6352 63.1496C65.0435 62.9368 63.9743 62.4956 63.1543 62.1271C63.1128 62.1063 63.092 62.1634 63.092 62.3295C63.092 62.8538 63.3774 63.5389 63.9795 64.4473C64.156 64.7172 64.3947 65.0909 64.5089 65.2777C64.6231 65.4646 64.8359 65.7449 64.9916 65.9058C65.2771 66.212 65.3705 66.4093 65.2926 66.5754C65.2667 66.6273 65.1162 66.7726 64.9604 66.9024C64.2754 67.4578 63.72 67.6706 63.2373 67.572C62.8221 67.4889 62.1318 67.2086 61.8567 67.0114C60.4398 65.994 59.708 66.1965 58.9295 67.8159C58.7582 68.1689 58.5039 68.636 58.3586 68.8436C58.0368 69.3263 57.8136 69.7987 57.7669 70.0842C57.7254 70.3904 57.8292 70.7849 58.0316 71.0859C58.1198 71.2261 58.2132 71.3766 58.2288 71.4233C58.2496 71.4752 58.1873 71.7607 58.0887 72.0669C57.0766 75.2435 56.9624 75.6328 56.8586 76.3335C56.7756 76.9149 56.8275 77.9011 56.9676 78.4616C57.1233 79.0637 57.087 79.5828 56.8171 80.6676C56.5057 81.9289 56.3759 82.775 56.1112 85.4169C55.7998 88.4845 55.5766 89.6057 54.8915 91.6455C54.357 93.2338 54.2272 93.9553 53.9833 96.6284C53.9158 97.4122 53.8224 98.3724 53.7809 98.7565C53.6096 100.308 53.5681 101.17 53.5732 103.117C53.5732 106.335 53.8483 108.894 54.5075 111.889C55.4884 116.321 56.7341 119.955 58.4883 123.489C59.1786 124.886 59.2928 125.14 59.4641 125.732C59.6509 126.365 60.1336 128.618 60.1336 128.841C60.1336 129.599 59.5627 130.429 58.5766 131.125C57.7825 131.68 56.9884 132.718 56.3292 134.062C55.6753 135.402 55.3483 136.502 55.3379 137.4C55.3327 137.82 55.3535 137.955 55.4365 138.127C55.8725 138.993 57.6371 139.165 59.0437 138.474C59.5315 138.236 60.0609 137.748 60.2841 137.322C60.4762 136.964 60.5903 136.881 60.8498 136.928C61.2547 136.99 61.3637 137.275 61.1872 137.825C61.0315 138.324 61.2235 138.552 61.727 138.454C61.9398 138.412 62.1266 138.422 62.6768 138.511C63.4916 138.64 63.7096 138.646 63.9639 138.542C64.348 138.376 64.5089 138.147 64.675 137.509C64.7996 137.026 64.9449 136.87 65.2096 136.933C65.4743 136.99 65.6196 137.146 65.7701 137.54C66.0037 138.147 66.1698 138.251 66.6109 138.049C66.7355 137.992 66.9898 137.919 67.1818 137.888C67.9033 137.774 67.9811 137.696 68.0278 137.047C68.059 136.621 68.0745 136.564 68.1991 136.455C68.4275 136.258 68.7804 136.325 68.905 136.59C68.9465 136.668 68.9828 137.021 68.9932 137.452C69.0192 138.241 69.0607 138.422 69.2319 138.505C69.3513 138.557 70.7111 138.723 71.0329 138.723C71.7284 138.723 72.7405 138.111 73.301 137.358C73.8252 136.652 74.1107 135.838 74.3235 134.457C74.4844 133.44 74.5467 132.749 74.5882 131.612C74.6816 128.97 74.8217 128.078 75.3615 126.63C75.73 125.654 75.8183 125.249 75.8442 124.45C75.8753 123.578 75.7923 123.147 75.4757 122.503C75.2214 121.989 74.91 121.6 74.4377 121.205C73.6228 120.52 73.41 120.266 73.2076 119.731C73.0519 119.316 73.0623 118.735 73.2336 118.2C73.3114 117.977 73.3685 117.769 73.3685 117.749C73.3685 117.723 73.2906 117.577 73.192 117.427C72.7924 116.799 72.5692 116.072 72.3045 114.53C72.0762 113.171 71.9672 112.74 71.6973 112.07C71.3807 111.286 71.3392 111.131 71.308 110.565C71.2769 110.01 71.3703 109.501 71.5935 108.982L71.6921 108.748L72.1903 110.254C72.7976 112.096 72.9585 112.688 73.1609 113.887C73.3841 115.164 73.4879 115.553 73.8097 116.249C74.2041 117.105 74.2249 117.209 74.1159 117.749C73.9083 118.797 74.173 119.648 74.9775 120.52C75.4238 121.008 76.6902 122.088 76.9964 122.238C77.3909 122.441 77.7542 122.493 78.486 122.462C78.9739 122.446 79.2541 122.404 79.5188 122.321C80.0534 122.155 80.6607 121.818 80.9513 121.538C81.2108 121.283 81.4651 120.837 81.4651 120.624C81.4651 120.562 81.5586 120.012 81.6728 119.404C81.7869 118.797 81.9063 117.982 81.9323 117.598C81.9634 117.214 82.0101 116.778 82.0413 116.638C82.1399 116.191 82.4617 115.579 83.0793 114.665C83.7229 113.716 83.9253 113.274 83.9876 112.714C84.0239 112.35 84.1173 112.075 84.2575 111.92C84.491 111.66 85.0983 111.546 85.4097 111.707C85.638 111.826 85.7315 112.055 85.7418 112.501C85.747 112.844 85.7366 112.895 85.6225 112.984C85.5446 113.051 85.42 113.082 85.2592 113.082H85.0204L85.0152 113.461C85.0152 113.97 84.9062 114.157 84.19 114.894C83.4582 115.657 83.3907 115.776 83.3336 116.529C83.2869 117.167 83.1519 117.608 82.8405 118.112C82.2904 119.02 82.2748 119.321 82.7419 119.846C82.9651 120.09 82.9651 120.23 82.7627 120.744C82.3371 121.813 82.2073 122.731 82.1399 125.098C82.1139 126.069 82.0672 127.097 82.0361 127.382C81.9738 128.057 81.9686 129.256 82.0361 129.977C82.1606 131.374 82.3423 132.386 83.0793 135.765C83.4218 137.369 83.5256 137.665 83.9253 138.189C84.4962 138.947 85.7989 139.813 86.3595 139.813C86.6034 139.813 86.9823 139.606 87.0394 139.445C87.0757 139.336 87.0549 139.237 86.9304 138.967C86.7228 138.526 86.6864 138.36 86.7591 138.101C86.8266 137.851 87.0601 137.675 87.3041 137.696C87.5065 137.716 87.7349 138.023 87.9632 138.578C88.0566 138.812 88.2072 139.076 88.2902 139.159C88.4459 139.315 89.0583 139.595 89.4839 139.704C89.8524 139.803 90.3351 139.772 90.6362 139.637C90.9995 139.466 91.0566 139.258 90.8801 138.77C90.8282 138.62 90.7919 138.319 90.7815 137.903C90.7711 137.306 90.7763 137.249 90.8801 137.13C91.0306 136.959 91.3264 136.943 91.4977 137.104C91.6482 137.244 91.7261 137.488 91.7676 137.945C91.8403 138.682 91.97 138.827 92.5461 138.827C93.2676 138.827 93.8021 138.661 94.207 138.303C94.4821 138.064 94.5547 137.877 94.5807 137.379C94.5962 137.13 94.6378 136.881 94.6793 136.813C94.7675 136.678 94.9803 136.663 95.2346 136.772C95.6343 136.938 95.7069 137.249 95.5408 138.101C95.3955 138.848 95.3851 138.973 95.4578 139.004C95.5564 139.04 95.9353 139.087 96.5425 139.134C96.8591 139.159 97.2484 139.222 97.4093 139.268C97.6636 139.352 97.7259 139.352 97.8764 139.294C98.2761 139.128 99.0961 138.178 99.4594 137.462C99.7085 136.959 99.8227 136.268 100.176 132.988C100.279 132.043 100.409 130.964 100.461 130.585C100.643 129.349 100.601 128.55 100.233 126.323C100.02 125.072 99.994 124.382 100.129 123.863C100.176 123.687 100.363 123.199 100.544 122.778C101.183 121.294 101.395 120.484 101.395 119.493C101.395 118.75 101.281 118.294 100.902 117.525C100.503 116.711 100.388 116.233 100.425 115.501C100.456 114.728 100.617 114.209 101.157 113.108C101.421 112.574 101.696 111.909 101.862 111.421C102.236 110.279 102.449 109.869 102.921 109.356C103.139 109.122 103.326 108.878 103.342 108.811C103.362 108.743 103.326 108.52 103.269 108.307C103.025 107.435 103.17 106.74 103.845 105.582C104.8 103.947 105.023 103.257 105.423 100.776C105.522 100.137 105.688 99.1977 105.781 98.6942C106.31 95.9537 106.554 93.239 106.554 89.9327C106.56 87.0675 106.57 87.1246 105.459 83.9117C104.603 81.4514 104.307 80.761 103.689 79.8371C103.16 79.0378 102.745 78.607 101.888 77.9582C101.317 77.5325 100.783 76.946 100.228 76.1519C99.5061 75.1293 99.0183 74.4701 98.7691 74.2054C98.2864 73.6916 98.3332 73.5462 99.1843 72.8611C99.5321 72.5808 99.8954 72.2642 99.9888 72.1552C100.466 71.605 100.471 71.1326 99.994 70.38C99.9317 70.2814 99.9421 70.2347 100.072 69.9388C100.202 69.6637 100.222 69.5443 100.222 69.1966C100.222 68.6723 100.077 68.3453 99.4906 67.5304C98.9041 66.7207 98.8262 66.5702 98.6446 65.911C98.5563 65.584 98.4473 65.2466 98.4058 65.1584C98.0217 64.3954 97.5235 64.2967 96.6931 64.821C96.2104 65.122 96.117 65.1272 95.6083 64.8625C95.0945 64.5978 94.8142 64.3331 94.7727 64.0735C94.7468 63.9334 94.7831 63.8088 94.9336 63.4922C95.2917 62.7655 95.1516 62.5423 93.7554 61.5458C93.361 61.2655 93.252 60.8918 93.4492 60.4921C93.5945 60.191 93.7762 60.0924 94.3212 60.0301C94.7831 59.973 94.9907 59.9004 95.1101 59.755C95.1672 59.6876 95.0997 59.5993 94.6637 59.1581C93.8956 58.3796 93.5426 58.2498 92.9717 58.5353ZM104.987 106.449C104.644 106.579 104.38 106.823 104.307 107.087C104.229 107.373 104.234 107.477 104.364 108.099C104.463 108.582 104.468 108.691 104.416 109.044C104.338 109.568 104.146 110.046 103.669 110.876C103.077 111.904 102.994 112.086 102.594 113.295C102.044 114.966 101.961 115.314 101.93 116.171C101.899 117.048 101.992 117.52 102.35 118.309C102.48 118.589 102.61 118.932 102.646 119.067C102.745 119.461 102.677 120.001 102.459 120.619C101.774 122.555 101.634 123.069 101.468 124.382C101.364 125.192 101.349 127.117 101.442 127.979C101.561 129.09 101.655 129.609 101.753 129.744C101.847 129.868 101.862 129.874 102.413 129.853C102.771 129.842 103.196 129.868 103.575 129.926C103.964 129.983 104.354 130.009 104.696 129.993C105.2 129.972 105.241 129.957 105.698 129.723C106.373 129.381 106.726 129.308 107.442 129.36C108.444 129.432 109.061 129.412 109.393 129.282C109.944 129.069 110.281 128.737 110.504 128.187C110.623 127.886 110.665 127.071 110.582 126.656C110.452 126.027 110.447 126.079 110.696 125.809C110.997 125.488 111.127 125.264 111.231 124.896C111.324 124.574 111.324 124.642 111.226 122.55C111.2 122.041 111.21 121.865 111.283 121.616C111.433 121.107 111.407 120.842 111.168 120.453C110.712 119.711 110.416 119 109.803 117.209C108.973 114.78 108.511 113.845 107.655 112.849C106.793 111.857 106.591 111.385 106.586 110.399C106.586 109.833 106.482 109.574 105.937 108.753C105.662 108.338 105.464 107.98 105.407 107.798C105.298 107.414 105.304 106.952 105.428 106.584L105.532 106.283L105.397 106.319C105.324 106.335 105.137 106.397 104.987 106.449ZM79.8718 123.053C79.7835 123.084 79.6175 123.173 79.5033 123.256C79.2074 123.469 78.9064 123.614 78.678 123.65C78.5171 123.676 78.3822 123.645 78.0604 123.515C77.6089 123.334 77.204 123.292 76.9912 123.406C76.9186 123.443 76.8044 123.572 76.7369 123.692C76.6227 123.894 76.6124 123.972 76.5812 125.124C76.5449 126.438 76.4826 126.868 76.2231 127.564C76.1452 127.787 75.9895 128.104 75.8805 128.27C75.6522 128.618 75.6366 128.804 75.756 129.406C75.7975 129.63 75.8234 130.076 75.8183 130.574C75.8131 131.374 75.8027 131.467 75.4446 133.792C75.3719 134.249 75.3304 134.82 75.32 135.427C75.3044 136.31 75.2941 136.377 75.1643 136.647C74.8736 137.26 75.0501 137.54 75.73 137.571C75.9947 137.587 76.2802 137.545 76.794 137.431C77.1781 137.348 78.2421 137.135 79.1555 136.959C80.8008 136.647 81.4184 136.497 81.5689 136.372C81.9063 136.102 81.9063 135.78 81.5689 134.203C81.2991 132.941 81.0759 131.758 80.9098 130.73C80.7541 129.754 80.78 127.361 80.9669 125.669C81.1745 123.764 81.1849 123.619 81.0811 123.427C80.8787 123.027 80.4271 122.887 79.8718 123.053ZM111.796 126.303C111.687 126.417 111.724 126.905 111.869 127.284L111.973 127.538L111.828 127.823C111.433 128.612 111.428 129.116 111.817 129.505C112.03 129.723 112.248 129.842 113.084 130.211C113.909 130.58 115.751 131.939 116.488 132.723C117.038 133.315 117.381 133.886 117.594 134.571C117.692 134.893 117.713 135.064 117.708 135.583C117.692 137.068 117.21 137.841 116.109 138.127C115.943 138.168 115.731 138.204 115.648 138.204C115.336 138.204 115.564 138.256 116.244 138.345C117.314 138.479 119.935 138.464 122.13 138.308C123.246 138.23 124.429 138.184 125.53 138.178L127.216 138.163V137.592C127.211 137.042 127.206 137.011 127.019 136.632C126.775 136.133 126.376 135.723 125.607 135.173C124.943 134.696 122.384 132.64 121.403 131.789C121.03 131.472 120.438 130.932 120.075 130.59C119.042 129.609 118.284 129.033 117.147 128.342C116.4 127.896 114.895 127.154 114.033 126.811C112.611 126.245 111.994 126.105 111.796 126.303ZM108.355 130.496C108.085 130.543 107.364 130.694 106.746 130.834C105.267 131.171 104.909 131.218 104.053 131.182C103.471 131.161 103.253 131.13 102.875 131.016C102.018 130.751 101.577 130.844 101.338 131.332C101.234 131.555 101.229 131.612 101.271 132.1C101.292 132.386 101.312 132.895 101.307 133.222C101.302 133.772 101.276 133.912 100.985 135.059C100.586 136.601 100.513 137.161 100.627 137.846C100.726 138.459 100.695 138.537 100.222 138.817L99.8798 139.025L100.093 139.061C100.575 139.144 101.416 138.973 101.821 138.713C102.262 138.433 102.506 138.08 102.724 137.4C102.833 137.062 102.843 137.047 102.875 137.192C102.89 137.275 102.932 137.452 102.958 137.576C103.082 138.127 103.477 138.614 103.897 138.729C104.203 138.812 104.805 138.76 105.335 138.599C105.573 138.531 105.786 138.454 105.812 138.428C105.838 138.402 105.916 138.152 105.989 137.867C106.217 136.964 106.44 136.678 106.679 136.985C106.736 137.057 106.861 137.296 106.949 137.519C107.312 138.391 107.452 138.578 107.909 138.786C108.127 138.884 108.277 138.905 108.843 138.921C109.466 138.936 109.539 138.926 109.751 138.817C110.172 138.604 110.426 138.023 110.426 137.291C110.426 136.933 110.514 136.684 110.681 136.595C110.764 136.554 110.81 136.58 110.961 136.746C111.303 137.125 111.34 137.587 111.08 138.204C110.873 138.692 110.675 139.248 110.701 139.274C110.748 139.326 112.549 139.294 112.798 139.243C113.281 139.139 113.649 138.812 113.945 138.225C114.007 138.106 114.174 137.711 114.319 137.348C114.656 136.502 114.75 136.32 114.921 136.185C115.175 135.983 115.44 136.071 115.943 136.528C116.192 136.751 116.338 136.741 116.457 136.492C116.68 136.009 116.722 135.869 116.743 135.479C116.779 134.867 116.654 134.571 116.125 134.026C115.658 133.533 114.62 132.583 114.085 132.157C112.99 131.28 111.802 130.694 110.727 130.496C110.198 130.403 108.952 130.403 108.355 130.496Z" fill="white"/>
<path d="M79.9363 23.2939C79.9622 23.3043 80.0505 23.325 80.1283 23.3406C80.3204 23.3821 80.6266 23.7091 80.6629 23.9116C80.7148 24.1711 80.6162 24.3424 80.2892 24.55C80.1231 24.6538 79.9726 24.7628 79.9519 24.7939C79.8896 24.8822 79.9052 25.1469 79.9882 25.3701C80.1024 25.6867 80.092 26.1383 79.9622 26.2525C79.8013 26.3978 79.438 26.4134 79.163 26.2836C78.8775 26.1435 78.5349 25.7749 78.3948 25.4583C78.2599 25.1573 78.2495 24.6849 78.3741 24.3216C78.4779 24.0102 78.8048 23.6157 79.0747 23.4755C79.2149 23.4081 79.8584 23.242 79.8792 23.2731C79.8844 23.2731 79.9052 23.2835 79.9363 23.2939Z" fill="#FDF390"/>
<path d="M88.7854 23.9535C89.377 24.078 89.813 24.3791 90.0569 24.8203C90.1919 25.0591 90.2126 25.1577 90.2126 25.4899C90.2126 26.1543 89.8805 26.6629 89.3822 26.7771C89.1071 26.8342 88.858 26.7667 88.749 26.5954C88.6867 26.5072 88.6452 26.3048 88.6245 26.0504C88.5933 25.5781 88.5051 25.4276 88.1625 25.2355C88.0432 25.1681 87.7888 25.0798 87.602 25.0383C87.4152 25.002 87.2179 24.9293 87.166 24.8826C87.0518 24.7788 87.0415 24.5037 87.1505 24.296C87.2543 24.0936 87.4567 23.995 87.8875 23.9327C88.3234 23.8704 88.422 23.8756 88.7854 23.9535Z" fill="#FDF390"/>
<path d="M66.9504 25.218C67.4694 25.3426 67.8016 25.6644 67.9521 26.1938C68.1389 26.8219 67.9521 27.3669 67.3604 27.9223C66.6649 28.5763 65.767 28.7216 65.5179 28.2129C65.3933 27.9586 65.4556 27.725 65.8085 27.1125C66.0369 26.7181 66.0784 26.6039 66.094 26.3236C66.1148 26.0485 66.094 25.9654 65.9746 25.7422C65.8968 25.5969 65.8501 25.4568 65.8656 25.4308C65.902 25.3685 66.3172 25.2284 66.5715 25.192C66.6701 25.1817 66.8414 25.192 66.9504 25.218Z" fill="#FDF390"/>
<path d="M74.1306 27.2473C74.2656 27.3148 74.3694 27.4082 74.4057 27.5069C74.468 27.647 74.4576 27.6885 74.3486 27.8806C74.2448 28.0674 74.2241 28.192 74.1981 28.7733C74.1514 29.744 74.0216 29.9412 73.3988 29.9827C73.0926 30.0035 73.0615 29.9931 72.885 29.8374C72.5995 29.5882 72.4646 29.1938 72.4646 28.5917C72.4646 28.1764 72.4853 28.057 72.584 27.8494C72.7345 27.5432 73.0044 27.3148 73.3365 27.2162C73.6843 27.1124 73.8711 27.1176 74.1306 27.2473Z" fill="#FDF390"/>
<path d="M60.6274 28.5236C60.8662 28.6275 61.1205 28.9025 61.1205 29.0479C61.1205 29.2192 61.0167 29.4216 60.7624 29.7434C60.4302 30.1638 60.3108 30.4078 60.1863 30.9424C60.0202 31.6483 59.9475 31.7469 59.5842 31.7469C59.169 31.7469 58.8991 31.4667 58.7382 30.8801C58.6033 30.3715 58.6033 30.2625 58.733 29.8316C58.8576 29.4112 59.0704 29.0738 59.4077 28.7728C59.7918 28.425 60.2226 28.3368 60.6274 28.5236Z" fill="#FDF390"/>
<path d="M96.4328 29.3782C96.8169 29.5184 96.9622 29.7364 96.8532 29.9959C96.8221 30.079 96.6716 30.3125 96.5263 30.5046C96.1681 30.9769 96.1681 31.1015 96.5159 31.6569C96.7235 31.9839 96.7754 32.1084 96.765 32.2538C96.7442 32.5081 96.5885 32.5808 96.1474 32.5445C95.4052 32.4822 94.9277 32.1915 94.6941 31.6724C94.5177 31.2728 94.5229 30.6759 94.7097 30.271C94.8758 29.9077 95.2287 29.5184 95.5038 29.3938C95.7529 29.2796 96.1474 29.2744 96.4328 29.3782Z" fill="#FDF390"/>
<path d="M56.0522 34.7479C56.5142 34.914 56.6802 35.2618 56.6802 36.0715C56.6802 36.684 56.5712 36.9383 56.1145 37.4003C55.554 37.9609 54.9156 38.1685 54.4485 37.9401C54.163 37.8051 53.9917 37.5612 54.0384 37.3691C54.054 37.3017 54.1578 37.146 54.2668 37.0266C54.5367 36.7307 54.8741 36.0508 54.9779 35.5888C55.092 35.0697 55.2218 34.8362 55.4346 34.7427C55.6526 34.6545 55.7927 34.6545 56.0522 34.7479Z" fill="#FDF390"/>
<path d="M101.369 35.1289C101.681 35.2742 102.091 35.6946 102.236 36.0216C102.444 36.494 102.413 37.0234 102.143 37.6359C101.899 38.2017 101.302 38.648 100.788 38.6584C100.409 38.6688 100.389 38.6169 100.389 37.6151L100.383 36.7431L100.207 36.4161C100.056 36.1358 99.8695 35.9386 99.527 35.6894C99.4595 35.6427 100.098 35.1133 100.285 35.0614C100.632 34.9628 101.079 34.9939 101.369 35.1289Z" fill="#FDF390"/>
<path d="M53.2047 40.919C53.2618 40.9398 53.3656 41.0228 53.4383 41.1007C53.5888 41.2616 53.5992 41.4432 53.5058 43.0731L53.4487 44.0593L53.5733 44.3395C53.6407 44.4901 53.6978 44.6977 53.6978 44.7963C53.6978 44.9572 53.6771 44.9832 53.4591 45.0818C52.9868 45.2894 52.7584 45.1441 52.2134 44.2825C51.7515 43.5506 51.6217 43.2236 51.5854 42.6786C51.5283 41.8896 51.793 41.2045 52.2446 40.9657C52.4366 40.8619 53.0023 40.836 53.2047 40.919Z" fill="#FDF390"/>
<path d="M98.609 42.1385C98.9879 42.2786 99.3201 42.6212 99.3201 42.8807C99.3149 43.0468 99.1177 43.4205 98.853 43.7527C98.5364 44.1472 98.4637 44.3133 98.391 44.8116C98.2665 45.6317 98.0329 45.8652 97.4672 45.7511C96.9378 45.6369 96.7042 45.2787 96.5589 44.3652C96.4499 43.6697 96.699 43.0676 97.3478 42.4655C97.7578 42.0814 98.1575 41.9776 98.609 42.1385Z" fill="#FDF390"/>
<path d="M56.4197 44.5818C56.8246 44.67 57.2398 45.0541 57.4681 45.542C57.6031 45.8327 57.6135 45.9002 57.6135 46.5282C57.6135 47.1511 57.6031 47.2185 57.4837 47.4314C57.3072 47.748 57.1308 47.8622 56.7934 47.8933C56.4716 47.9193 56.1706 47.8051 56.072 47.6234C56.0357 47.5663 55.9941 47.2341 55.9734 46.8915C55.9319 46.1856 55.8955 46.0714 55.662 45.8067C55.4388 45.5472 55.4025 45.2461 55.5737 45.0022C55.7969 44.6752 56.1187 44.5143 56.4197 44.5818Z" fill="#FDF390"/>
<path d="M102.167 46.8472C102.587 46.977 102.852 47.3299 103.003 47.9632C103.091 48.3369 103.075 48.6275 102.945 49.0168C102.701 49.7539 102.302 50.1899 101.772 50.2989C101.477 50.3612 101.295 50.3456 100.849 50.221C100.293 50.0653 100.21 49.7798 100.584 49.2764C100.937 48.7936 100.937 48.7833 100.973 47.932C100.999 47.2469 101.02 47.1275 101.108 47.0289C101.331 46.7745 101.726 46.7122 102.167 46.8472Z" fill="#FDF390"/>
<path d="M54.1121 49.5582C54.4754 49.7502 54.5377 49.9163 54.5844 50.944C54.6259 51.9406 54.6415 51.9977 54.8698 52.4648C55.093 52.9112 55.0982 53.0773 54.8854 53.2538C54.7037 53.4095 54.4027 53.4355 54.1692 53.3161C53.9979 53.2227 53.51 52.7036 53.1882 52.2728C52.8872 51.8679 52.7367 51.5617 52.6329 51.1568C52.446 50.4354 52.7938 49.662 53.3751 49.4959C53.6709 49.418 53.8629 49.4336 54.1121 49.5582Z" fill="#FDF390"/>
<path d="M58.8434 52.2155C59.5077 52.5633 59.7517 53.6273 59.3624 54.4682C59.1704 54.8678 58.641 55.4232 58.2361 55.6412L57.9662 55.7814L57.9455 54.7848C57.9247 53.7986 57.9195 53.7778 57.7586 53.3782C57.5406 52.8487 57.5355 52.5736 57.7431 52.3712C58.0233 52.0857 58.4749 52.0234 58.8434 52.2155Z" fill="#FDF390"/>
<path d="M58.5427 57.8796C58.8125 57.9731 58.9838 58.1443 59.0409 58.3675C59.0669 58.4713 59.1032 58.871 59.1188 59.2551C59.1395 59.6392 59.1655 60.1219 59.181 60.3244C59.2122 60.6565 59.2018 60.7085 59.1032 60.8071C58.9682 60.942 58.5686 60.9576 58.278 60.8382C57.9977 60.7188 57.7122 60.4126 57.598 60.1064C57.4527 59.7274 57.3333 59.0994 57.3333 58.7361C57.3333 57.9938 57.8472 57.6305 58.5427 57.8796Z" fill="#FDF390"/>
<path d="M84.427 32.2264C85.3924 32.3146 86.3785 32.6365 87.1103 33.114C87.6968 33.4981 88.7867 34.64 88.8646 34.9514C88.9424 35.268 88.5584 35.6521 88.2418 35.5743C88.1587 35.5535 88.0082 35.4186 87.8681 35.2369C87.7383 35.0708 87.4892 34.8165 87.3127 34.6763C86.2228 33.7991 85.4027 33.4669 84.3232 33.4669C83.3838 33.4669 82.4443 33.5604 81.9617 33.7005C81.7125 33.7732 81.453 33.8303 81.3804 33.8303C81.0897 33.8303 80.8406 33.5863 80.8406 33.306C80.8406 33.0309 81.5672 32.6365 82.5793 32.3614C82.8803 32.2783 83.69 32.1641 83.8509 32.1745C83.8924 32.1797 84.1519 32.2056 84.427 32.2264Z" fill="white"/>
<path d="M68.4612 35.3829C69.1774 35.4141 69.3695 35.4764 69.7224 35.767C69.9196 35.9383 69.9611 36.1096 69.8677 36.3432C69.7484 36.6183 69.6394 36.6286 68.7986 36.4418C68.2847 36.3276 67.3349 36.3276 66.8626 36.4418C65.617 36.7376 64.3869 37.6667 63.1205 39.2654C62.7624 39.7222 62.5548 39.8416 62.3108 39.743C62.1032 39.6547 61.9475 39.4108 61.9475 39.1668C61.9475 38.7983 62.2278 38.3778 62.9544 37.6408C64.0392 36.556 64.88 35.985 65.9128 35.6373C66.5045 35.4348 67.1169 35.3258 67.5425 35.3414C67.6775 35.3466 68.0875 35.3622 68.4612 35.3829Z" fill="white"/>
<path d="M84.0595 36.0567C84.7809 36.1917 85.8709 37.0533 86.2134 37.754C86.4937 38.3302 86.3691 38.7973 85.7774 39.3942C85.3882 39.7835 84.973 40.069 84.511 40.2662C84.2411 40.3804 84.1114 40.4064 83.6962 40.4064C83.2291 40.4064 83.1824 40.396 82.8035 40.2091C82.0717 39.8562 81.3502 39.1814 81.127 38.652C80.9143 38.1381 81.127 37.6035 81.7966 36.9703C82.5492 36.2592 83.364 35.927 84.0595 36.0567ZM83.0111 36.8976C82.8087 36.9754 82.5699 37.2609 82.5076 37.4893C82.3156 38.2627 83.2187 38.8856 83.8467 38.4184C84.3657 38.0395 84.3398 37.3336 83.8052 36.9703C83.6183 36.8457 83.2394 36.8093 83.0111 36.8976Z" fill="white"/>
<path d="M69.3292 38.9562C70.1908 39.2365 70.8188 39.9424 70.8655 40.7002C70.9278 41.7227 69.8949 42.984 68.6493 43.4096C68.2185 43.555 67.9227 43.5602 67.4711 43.42C66.9936 43.2747 66.5576 43.0048 66.1788 42.6207C65.7584 42.1899 65.5611 41.7902 65.5559 41.349C65.5559 40.8507 65.7376 40.5082 66.3085 39.9372C66.6978 39.5479 66.8327 39.4545 67.2998 39.2313C67.5957 39.086 67.9486 38.9458 68.0836 38.9147C68.4417 38.8316 68.9918 38.8524 69.3292 38.9562ZM68.4313 39.823C68.1303 39.9735 67.9279 40.4043 67.9901 40.7417C68.0732 41.1933 68.4417 41.4684 68.9088 41.4424C69.2565 41.4165 69.4849 41.2712 69.6302 40.9857C70.0195 40.2175 69.1994 39.4233 68.4313 39.823Z" fill="white"/>
<path d="M85.2824 46.8338C85.6716 46.9376 85.9571 47.0778 86.6578 47.519C87.566 48.0847 88.5885 48.6349 89.4345 49.0034C90.4518 49.455 90.8825 49.6782 91.3029 49.9741C91.9829 50.4516 92.7251 51.2925 93.078 51.9776C93.2181 52.2527 93.2181 52.2527 92.6939 51.8686C90.5763 50.3063 87.701 48.8633 84.4 47.7006C83.9693 47.5501 83.6008 47.41 83.58 47.3892C83.5229 47.3373 83.8966 47.0466 84.1821 46.922C84.4831 46.7871 84.9554 46.7508 85.2824 46.8338Z" fill="white"/>
<path d="M70.7823 50.1685C69.8221 50.6927 69.4536 51.0042 67.528 52.9454C65.8308 54.6479 65.4364 54.9749 64.4503 55.468C64.1544 55.6133 63.9053 55.7223 63.8949 55.712C63.8586 55.6756 64.388 54.8348 64.7617 54.3365C66.0021 52.6859 67.8342 51.1132 69.3705 50.3813C70.0037 50.0803 70.4293 49.9609 70.8549 49.9609H71.1611L70.7823 50.1685Z" fill="white"/>
<path d="M85.3844 51.314C86.4225 51.6617 87.2373 52.1548 88.5868 53.2448C89.0175 53.5926 89.6092 54.0701 89.9103 54.3037C90.4345 54.7241 90.4448 54.7345 90.2736 54.7345C89.9777 54.7345 89.3082 54.5373 88.867 54.3244C88.3895 54.0909 87.6577 53.6237 86.7079 52.9386C85.7996 52.2898 85.5401 52.1808 84.7772 52.1392C83.9416 52.0925 83.7547 51.9472 83.9 51.4593C84.0298 51.0285 84.4191 50.9869 85.3844 51.314Z" fill="white"/>
<path d="M71.3943 53.9028C71.3943 53.9235 71.2957 54.0325 71.1815 54.1415C71.0621 54.2557 70.6261 54.7592 70.2109 55.2575C69.3753 56.2593 68.8667 56.7887 68.4359 57.1105C68.1193 57.3441 67.5172 57.6918 67.5639 57.614C67.5795 57.588 67.7508 57.287 67.9428 56.9444C69.0172 55.0551 69.8061 54.2921 71.0154 53.9651C71.223 53.908 71.3943 53.882 71.3943 53.9028Z" fill="white"/>
<path d="M80.5038 55.2946C81.5833 55.3777 82.6058 55.5749 83.457 55.8708C84.5936 56.2652 85.0555 56.5559 85.2631 57.0127C85.3618 57.2411 85.4552 57.9106 85.3825 57.9106C85.3618 57.9106 85.1386 57.7913 84.8895 57.6459C83.9916 57.1321 82.9276 56.7428 81.8843 56.5507C81.0695 56.4002 79.3048 56.3898 78.3758 56.5248C75.2358 56.9919 73.3621 57.8691 71.2497 59.8571C70.5127 60.5474 70.2636 60.6305 69.8899 60.3138C69.6044 60.0751 69.6771 59.8778 70.2947 59.1927C72.4123 56.8466 75.8015 55.4088 79.4657 55.2998C79.8913 55.2842 80.3584 55.2842 80.5038 55.2946Z" fill="white"/>
<path d="M91.0576 64.9001C91.3431 65.0402 91.6597 65.5074 91.722 65.8811C91.805 66.4209 91.1043 67.4642 90.4348 67.7912C90.0352 67.9884 89.6251 68.0455 89.1321 67.9729C88.9141 67.9417 88.7324 67.9002 88.7324 67.8794C88.7324 67.7808 88.9868 67.4694 89.4227 67.0386C89.9885 66.4728 90.0352 66.369 89.9988 65.7306C89.9677 65.2427 90.0144 65.1129 90.2843 64.9312C90.4919 64.7911 90.8085 64.7755 91.0576 64.9001Z" fill="#FDF390"/>
<path d="M86.1797 66.6234C86.5274 66.9712 86.5326 67.4539 86.1849 68.1546L85.9669 68.601L85.9929 69.1408C86.0188 69.6443 86.0344 69.6962 86.2108 69.9817C86.434 70.345 86.4496 70.5215 86.2679 70.6668C86.0707 70.8173 85.8735 70.8433 85.6244 70.7447C85.287 70.6097 84.986 70.2204 84.5707 69.3796L84.2074 68.6321L84.2282 68.2117C84.2697 67.4954 84.6434 66.9089 85.2662 66.6026C85.6503 66.4106 85.9773 66.4158 86.1797 66.6234Z" fill="#FDF390"/>
<path d="M78.4388 66.7638C78.6257 66.8416 78.7658 67.0752 78.7658 67.2932C78.7658 67.4852 78.5582 67.9213 78.3558 68.1496C78.2676 68.2483 78.0755 68.3884 77.925 68.4507C77.6914 68.5493 77.5928 68.5649 77.2607 68.5389C77.0479 68.5234 76.7624 68.4714 76.6275 68.4247L76.3835 68.3417L76.5911 68.1548C76.7157 68.0406 76.8714 67.8123 76.9856 67.5735C77.2243 67.0596 77.3904 66.8468 77.6032 66.7586C77.8212 66.6651 78.2208 66.6703 78.4388 66.7638Z" fill="#FDF390"/>
<path d="M71.9383 66.8022C72.1823 66.9164 72.4262 67.1863 72.4418 67.3473C72.4573 67.6068 72.4002 67.7625 71.8553 68.8473C71.3985 69.766 71.2688 70.0723 71.2013 70.4097C71.0923 70.9339 70.9833 71.0688 70.6512 71.0688C70.511 71.0688 70.3346 71.0221 70.1996 70.9495C69.909 70.7938 69.7585 70.5083 69.6858 69.9477C69.6287 69.5636 69.6391 69.4702 69.7585 68.8992C69.8311 68.5515 69.9245 68.1725 69.9713 68.048C70.1633 67.503 70.5162 67.1085 71.0197 66.8749C71.3985 66.7036 71.6788 66.6777 71.9383 66.8022Z" fill="#FDF390"/>
<path d="M95.926 69.9343C96.3412 70.116 96.5747 70.6402 96.4709 71.1541C96.2581 72.213 95.2876 73.303 94.5194 73.3445C94.208 73.3601 94.0938 73.303 94.0264 73.1057C93.9693 72.9396 93.9848 72.8981 94.2807 72.3687C94.6855 71.642 94.8464 71.2112 94.9035 70.6818C94.9606 70.1731 95.0229 69.9914 95.163 69.9188C95.3031 69.8409 95.7339 69.8513 95.926 69.9343Z" fill="#FDF390"/>
<path d="M61.3245 70.0024C61.6566 70.1737 61.7916 70.454 61.7916 70.9834C61.7916 72.1253 61.0701 73.0492 59.8453 73.4697C59.5806 73.5579 59.539 73.5631 59.3003 73.4904C58.8747 73.3658 58.8591 73.2101 59.2224 72.7845C59.4716 72.4887 59.6895 72.0007 59.9283 71.1858C60.1722 70.3761 60.3383 70.0803 60.6238 69.9609C60.8729 69.8571 61.0598 69.8674 61.3245 70.0024Z" fill="#FDF390"/>
<path d="M66.0753 70.4953C66.6514 70.7029 66.7033 70.9572 66.3867 72.0161C66.2414 72.4936 66.0857 73.5421 66.1272 73.7757C66.1688 74.004 66.0546 74.1857 65.8314 74.2584C65.5407 74.3518 65.2916 74.2636 65.001 73.9573C64.6428 73.5732 64.5702 73.3189 64.5702 72.4054C64.5702 71.7514 64.5858 71.606 64.6948 71.2998C64.8245 70.9209 65.0373 70.6302 65.276 70.5056C65.4421 70.4226 65.847 70.4174 66.0753 70.4953Z" fill="#FDF390"/>
<path d="M79.8806 70.5687C80.0986 70.6673 80.3062 70.9268 80.3737 71.1812C80.4567 71.4926 80.3633 71.7106 79.9533 72.1414C79.5951 72.5151 79.3304 72.9771 79.154 73.5013C79.0398 73.8491 78.8997 73.9477 78.5623 73.9166C77.981 73.8595 77.8045 73.5273 77.8045 72.4996C77.8097 71.8715 77.8149 71.804 77.9551 71.503C78.1263 71.1241 78.4481 70.8023 78.8062 70.6466C79.1125 70.5116 79.6678 70.4701 79.8806 70.5687Z" fill="#FDF390"/>
<path d="M73.5829 71.8916C73.6868 71.9539 73.8269 72.0992 73.8944 72.2186C74.0034 72.4055 74.0189 72.4989 74.0189 73.0024C74.0189 73.4955 74.0034 73.6149 73.8892 73.8848C73.6868 74.3623 73.3961 74.7672 72.8511 75.3122C72.1141 76.0596 71.5328 76.2984 70.8322 76.1478C70.5363 76.0856 70.0484 75.8935 70.0484 75.8364C70.0484 75.8208 70.2093 75.717 70.4066 75.608C71.2422 75.1565 71.8702 74.5076 72.1712 73.781C72.3165 73.4384 72.4359 72.9505 72.5138 72.3899C72.5657 72.011 72.7577 71.8241 73.1158 71.7982C73.3338 71.7826 73.4376 71.8034 73.5829 71.8916Z" fill="#FDF390"/>
<path d="M91.038 72.1465C91.2508 72.24 91.4688 72.5047 91.5051 72.7175C91.5415 72.8991 91.4532 73.1898 91.0951 74.0462C90.8564 74.6276 90.7837 75.0843 90.8616 75.5152C90.8979 75.6916 90.9239 75.9304 90.929 76.0446C90.9342 76.2315 90.9135 76.2626 90.7526 76.3508C90.4515 76.5117 90.2232 76.4391 89.8599 76.0654C89.6938 75.8941 89.5121 75.6657 89.455 75.5515C89.1021 74.856 89.1073 73.8334 89.4758 73.0289C89.7976 72.323 90.519 71.9181 91.038 72.1465Z" fill="#FDF390"/>
<path d="M84.7093 73.7217C85.057 73.8775 85.2387 74.2512 85.1764 74.6976C85.0362 75.6993 84.403 76.4779 83.3858 76.8879C82.4152 77.2824 81.7561 77.1215 80.9879 76.3066L80.6661 75.9588L81.2059 75.9277C81.5069 75.9069 81.8547 75.8654 81.9844 75.8291C82.628 75.6578 83.1107 75.2114 83.4636 74.464C83.7128 73.9449 83.7595 73.8723 83.9567 73.7373C84.1072 73.6335 84.4861 73.6231 84.7093 73.7217Z" fill="#FDF390"/>
<path d="M96.9965 76.5557C97.3858 76.6699 97.7854 77.0955 97.9878 77.6042C98.1435 78.0091 98.1331 78.7357 97.9619 79.234C97.6608 80.0904 97.1107 80.6354 96.3789 80.8119C96.083 80.8794 95.9273 80.8535 95.756 80.6977C95.5433 80.5005 95.5536 80.3396 95.8131 79.8102C96.1661 79.0939 96.2335 78.3412 96.0156 77.5471C95.974 77.3914 95.9533 77.189 95.9688 77.1007C96.0104 76.8827 96.2439 76.6699 96.545 76.5765C96.8252 76.4934 96.8045 76.4986 96.9965 76.5557Z" fill="#FDF390"/>
<path d="M63.2989 77.2613C63.3975 77.2873 63.5428 77.3755 63.6207 77.4638C63.7971 77.661 63.8075 77.8842 63.6829 78.7925C63.5739 79.54 63.6051 79.8047 63.8335 80.1421C64.2279 80.7338 64.2071 80.6767 64.093 80.8324C63.9424 81.04 63.6726 81.1646 63.4598 81.1283C62.9978 81.0452 62.4632 80.6196 62.2245 80.1472C62.0636 79.8306 61.8456 78.9898 61.8456 78.6887C61.8456 78.5641 61.8923 78.3098 61.9546 78.1178C62.1674 77.4222 62.6553 77.1108 63.2989 77.2613Z" fill="#FDF390"/>
<path d="M91.8876 79.3635C92.0537 79.4465 92.1887 79.5555 92.2354 79.649C92.3859 79.9344 92.3392 80.1421 91.8928 81.0556C91.5139 81.8394 91.4724 81.9587 91.4309 82.348C91.3842 82.8515 91.2908 82.9657 90.9586 82.9657C90.2891 82.9657 89.8738 82.4311 89.8738 81.5746C89.879 80.604 90.3306 79.6853 90.969 79.3635C91.3167 79.1922 91.5451 79.1922 91.8876 79.3635Z" fill="#FDF390"/>
<path d="M77.1308 79.6407C77.3799 79.8587 77.4681 80.0456 77.4681 80.3518C77.4681 81.2239 76.3419 82.018 75.2727 81.8934C74.925 81.8571 74.4942 81.7066 74.3073 81.5612L74.1828 81.4678L74.6966 81.1668C75.1222 80.9124 75.3246 80.7463 75.8903 80.1702C76.5132 79.5317 76.5806 79.4798 76.7571 79.4798C76.892 79.4798 76.9958 79.5214 77.1308 79.6407Z" fill="#FDF390"/>
<path d="M68.4626 79.7395C68.8363 79.9108 68.9764 80.1859 69.0387 80.8503C69.1165 81.7016 68.7636 82.667 68.1512 83.295C67.5335 83.9283 66.999 84.0217 66.5734 83.5649C66.4021 83.3833 66.4436 83.0978 66.6927 82.7604C66.7965 82.6203 66.9159 82.4023 66.9574 82.2777C67.0664 81.9611 67.2481 80.9905 67.2948 80.4558C67.3467 79.9575 67.4297 79.7707 67.6374 79.6928C67.845 79.6098 68.2342 79.6357 68.4626 79.7395Z" fill="#FDF390"/>
<path d="M102.693 82.9216C103.28 83.124 103.534 83.612 103.394 84.2763C103.196 85.221 102.641 85.9736 101.961 86.2228C101.624 86.3474 100.648 86.3525 100.425 86.228C100.248 86.1345 100.098 85.9062 100.098 85.7349C100.098 85.6051 100.29 85.439 100.518 85.3663C100.762 85.2885 101.261 84.7694 101.406 84.4476C101.468 84.3023 101.525 84.022 101.546 83.7573C101.593 83.2227 101.697 82.9943 101.94 82.8905C102.174 82.7919 102.35 82.8022 102.693 82.9216Z" fill="#FDF390"/>
<path d="M97.8578 83.4273C97.9513 83.4688 98.0966 83.5882 98.1848 83.692C98.4339 83.9775 98.3872 84.1851 97.9045 84.9066C97.2817 85.846 97.1416 86.2042 97.1416 86.879C97.1416 87.2475 97.1312 87.2994 97.0066 87.424C96.8873 87.5382 96.8406 87.5537 96.5914 87.533C96.0257 87.4862 95.8181 87.0502 95.8233 85.9343C95.8285 84.7145 96.1866 83.9048 96.9028 83.4947C97.2091 83.3131 97.5828 83.2871 97.8578 83.4273Z" fill="#FDF390"/>
<path d="M86.3456 83.1437C86.7089 83.2372 87.1397 83.6784 87.2798 84.104C87.4044 84.4725 87.3836 85.0435 87.2279 85.6404C86.9684 86.6318 86.6777 87.0885 86.1328 87.3584C85.7124 87.5661 85.2037 87.6024 85.0221 87.4363C84.856 87.2858 84.8871 87.0833 85.1674 86.502C85.3127 86.2165 85.4632 85.8272 85.51 85.6404C85.6293 85.1888 85.593 84.4466 85.4321 83.9638C85.3387 83.6732 85.3283 83.5849 85.375 83.4708C85.4892 83.2008 85.9563 83.0451 86.3456 83.1437Z" fill="#FDF390"/>
<path d="M74.2257 85.2208C74.8433 85.4388 75.1184 86.1499 74.9004 86.97C74.6616 87.8939 74.0544 88.4908 73.1513 88.6881C72.6894 88.7919 71.3451 88.6777 71.3451 88.5376C71.3451 88.522 71.4385 88.4545 71.5527 88.387C71.8641 88.2106 72.4299 87.6604 72.6478 87.323C72.871 86.9804 73.0215 86.5496 73.1098 86.0202C73.2136 85.3713 73.39 85.1585 73.8104 85.1637C73.9506 85.1637 74.1374 85.1897 74.2257 85.2208Z" fill="#FDF390"/>
<path d="M79.2278 85.8176C79.5911 86.0148 79.6222 86.2899 79.3627 87.0425C79.1551 87.6291 79.0928 88.1274 79.1811 88.4699C79.3056 88.9423 79.3056 88.9734 79.1811 89.0409C79.1084 89.0772 78.9319 89.098 78.7399 89.0824C78.1845 89.0461 77.925 88.7606 77.8212 88.0651C77.7174 87.3488 77.8731 86.4404 78.1638 86.0564C78.4129 85.7345 78.8748 85.6307 79.2278 85.8176Z" fill="#FDF390"/>
<path d="M64.4096 86.7103C64.4875 86.7362 64.5965 86.7933 64.6536 86.8452C64.9234 87.0892 65.0221 88.039 64.8352 88.5736C64.5757 89.3211 63.6986 89.7259 62.6709 89.5702C62.0585 89.4768 62.0481 89.4664 62.4322 89.3055C63.3093 88.937 63.6259 88.4491 63.6 87.5355C63.5844 87.0009 63.7297 86.7673 64.1034 86.6947C64.1916 86.6791 64.3266 86.6843 64.4096 86.7103Z" fill="#FDF390"/>
<path d="M69.2514 86.9212C69.703 87.1288 69.7393 87.4454 69.4487 88.7171C69.2826 89.4541 69.2618 89.5943 69.293 89.9784C69.3345 90.4715 69.2826 90.5857 68.9764 90.6428C68.4989 90.731 68.0214 90.2535 67.7826 89.4438C67.6581 89.0337 67.6529 88.0008 67.7774 87.6375C67.9591 87.0821 68.2757 86.8225 68.7532 86.8225C68.9141 86.8225 69.1269 86.8641 69.2514 86.9212Z" fill="#FDF390"/>
<path d="M58.0033 90.1348C58.2576 90.2023 58.5016 90.4566 58.5742 90.7213C58.6105 90.8511 58.6261 91.1573 58.6157 91.4532C58.6002 91.8736 58.5742 92.0189 58.46 92.2629C58.0293 93.1868 56.8355 93.5865 56.2802 92.9896C56.0674 92.7664 56.0518 92.6366 56.2179 92.4965C56.6642 92.1331 56.6798 92.102 56.8044 91.4999C56.9497 90.7836 57.0068 90.6019 57.1314 90.4203C57.313 90.1659 57.6815 90.0414 58.0033 90.1348Z" fill="#FDF390"/>
<path d="M104.175 90.2034C104.347 90.2708 104.746 90.7536 104.917 91.0909C105.213 91.6827 105.255 92.3678 105.032 92.9543C104.902 93.3073 104.502 93.7692 104.139 93.9872C103.822 94.1845 103.22 94.3921 102.8 94.4492L102.488 94.4907L102.8 94.1585C102.971 93.9717 103.184 93.6654 103.277 93.4786C103.433 93.1568 103.443 93.11 103.438 92.565C103.438 92.0823 103.412 91.9266 103.288 91.5529C103.054 90.8418 103.106 90.4837 103.485 90.2553C103.656 90.1463 103.983 90.1255 104.175 90.2034Z" fill="#FDF390"/>
<path d="M99.3737 91.0232C99.8304 91.1789 100.007 91.4644 100.038 92.0873C100.085 92.9645 99.8149 93.6288 99.1142 94.3399C98.6211 94.8434 98.2111 95.077 97.7336 95.1393C97.1367 95.2119 96.571 94.9109 96.571 94.5112C96.571 94.3451 96.5866 94.3296 96.8409 94.2413C97.2146 94.1116 97.5883 93.7378 97.8322 93.2396C98.0191 92.8658 98.071 92.6686 98.263 91.7655C98.372 91.2204 98.5588 91.0024 98.9377 90.9765C99.0778 90.9661 99.2751 90.9869 99.3737 91.0232Z" fill="#FDF390"/>
<path d="M88.0022 92.3772C88.324 92.5381 88.4797 92.834 88.5108 93.3219C88.5471 93.9603 88.2046 94.6974 87.561 95.3514C87.1147 95.8133 86.7254 96.0157 86.3102 96.0157C86.004 96.0157 85.8379 95.9327 85.651 95.6732L85.5472 95.5382L85.8119 95.2476C86.1441 94.8842 86.3309 94.5001 86.5749 93.6644C86.7981 92.917 86.9589 92.5277 87.1147 92.372C87.2704 92.2163 87.6908 92.2215 88.0022 92.3772Z" fill="#FDF390"/>
<path d="M61.6817 92.6958C62.0087 92.81 62.1384 92.919 62.2163 93.1526C62.2889 93.3809 62.2422 93.6197 62.0294 94.1024C61.7855 94.6526 61.7388 94.8654 61.718 95.535C61.7076 95.862 61.6869 96.1734 61.6661 96.2253C61.5986 96.4485 61.0589 96.516 60.789 96.3292C60.5347 96.1527 60.3011 95.8101 60.2129 95.4779C60.0935 95.0056 60.1039 93.874 60.2388 93.4951C60.3738 93.1162 60.5762 92.8619 60.8616 92.7114C61.1367 92.5764 61.3184 92.5712 61.6817 92.6958Z" fill="#FDF390"/>
<path d="M71.285 93.2316C71.6535 93.3354 71.8611 93.5742 71.8611 93.896C71.8611 93.9842 71.7573 94.3216 71.6327 94.6382C71.2642 95.5829 71.1967 96.1487 71.394 96.5898C71.5704 96.9791 71.5133 97.2075 71.2019 97.3269C70.9839 97.4099 70.8023 97.3788 70.5584 97.2283C69.811 96.7507 69.5826 94.8874 70.1431 93.8025C70.2781 93.543 70.5584 93.2835 70.7763 93.2212C70.9839 93.1589 71.0514 93.1641 71.285 93.2316Z" fill="#FDF390"/>
<path d="M80.7617 92.7477C81.0056 92.8255 81.1198 92.9086 81.2028 93.0747C81.3222 93.3082 81.2755 93.6197 81.0316 94.2321C80.7721 94.8758 80.7046 95.182 80.7046 95.727C80.7046 96.0696 80.7305 96.2045 80.8343 96.4277C81.0004 96.7859 81.0004 96.9312 80.8343 97.0402C80.3828 97.3361 79.6769 96.8534 79.4226 96.0748C79.2877 95.6699 79.2877 94.0038 79.4174 93.5781C79.5212 93.2459 79.6821 92.9864 79.8845 92.8411C80.0402 92.7217 80.5281 92.675 80.7617 92.7477Z" fill="#FDF390"/>
<path d="M66.1172 94.5826C66.3923 94.6552 66.6466 94.9148 66.7245 95.1951C66.8075 95.4857 66.7245 96.0307 66.548 96.4148C66.247 97.0688 65.4944 97.4737 64.7366 97.401C64.3058 97.3543 64.1398 97.2868 64.0515 97.1104C63.8906 96.8041 63.9477 96.6795 64.4252 96.3681C64.7574 96.1449 64.8456 96.01 64.9961 95.4753C65.1518 94.9148 65.2712 94.7123 65.4996 94.6033C65.6968 94.5099 65.8266 94.5047 66.1172 94.5826Z" fill="#FDF390"/>
<path d="M56.4806 96.8497C56.6726 96.9327 56.8387 97.1351 56.9166 97.3791C56.9892 97.5971 56.927 97.8151 56.683 98.2303C56.4547 98.6092 56.3457 99.0037 56.3457 99.4345C56.3457 99.7512 56.3353 99.7927 56.2159 99.8705C56.1173 99.9328 56.0291 99.9484 55.8578 99.9224C55.4478 99.8602 55.2661 99.637 55.1312 99.0556C54.9599 98.3341 55.3388 97.2805 55.8941 96.9379C56.1329 96.7926 56.2938 96.7666 56.4806 96.8497Z" fill="#FDF390"/>
<path d="M102.927 98.1457C103.182 98.2392 103.348 98.4208 103.42 98.6907C103.498 98.9866 103.353 99.2876 102.917 99.7237C102.279 100.362 101.448 100.819 100.94 100.819C100.613 100.819 100.452 100.725 100.389 100.513C100.348 100.362 100.358 100.295 100.483 100.056C100.664 99.7133 101.656 98.6648 102.097 98.3482C102.476 98.0835 102.642 98.0419 102.927 98.1457Z" fill="#FDF390"/>
<path d="M98.3669 98.4388C98.559 98.553 98.6939 98.7866 98.6939 98.9994C98.6939 99.0824 98.5538 99.4406 98.3773 99.7935C97.8116 100.946 97.604 101.584 97.604 102.202C97.604 102.731 97.4431 102.887 97.0538 102.721C96.6646 102.56 96.4518 102.254 96.3324 101.678C96.2701 101.366 96.2701 101.304 96.3895 100.785C96.4569 100.479 96.5504 100.11 96.5971 99.97C96.8047 99.3368 97.3081 98.5894 97.6611 98.4129C97.8635 98.3039 98.1697 98.3143 98.3669 98.4388Z" fill="#FDF390"/>
<path d="M88.0781 99.0162C88.1923 99.0577 88.3635 99.1512 88.457 99.2238C88.9915 99.6287 88.9708 100.143 88.3791 101.051C88.1559 101.393 88.0314 101.726 87.8497 102.463C87.7563 102.821 87.7459 102.987 87.7719 103.345C87.803 103.76 87.7978 103.797 87.694 103.89C87.6058 103.973 87.5072 103.994 87.2321 103.994C86.931 103.994 86.8532 103.973 86.6923 103.849C86.4795 103.688 86.2356 103.221 86.1058 102.717C86.0435 102.483 86.0176 102.172 86.0176 101.658C86.0176 100.532 86.194 99.9764 86.7286 99.4107C87.149 98.9591 87.5798 98.8345 88.0781 99.0162Z" fill="#FDF390"/>
<path d="M93.3102 89.809C93.5931 89.7504 93.8941 89.8187 94.0794 89.9882C94.518 90.3842 94.4638 91.4166 93.9673 92.1625C93.6717 92.6099 93.043 93.2695 92.7719 93.4227C92.4421 93.6092 92.0152 93.624 91.6142 93.4632C91.3482 93.3512 90.9629 93.1338 90.9271 93.0706C90.922 93.0615 91.0039 93.0271 91.1096 93.0031C91.2198 92.9766 91.4746 92.8683 91.6734 92.7559C92.0012 92.5765 92.0633 92.5176 92.2558 92.2358C92.4936 91.8867 92.582 91.5684 92.5942 90.989C92.6041 90.5004 92.6866 90.2034 92.8502 90.0393C93.0138 89.8752 93.0183 89.8727 93.3102 89.809Z" fill="#FDF390"/>
<path d="M60.5367 99.6308C60.7962 99.7605 60.874 99.9629 60.8429 100.394C60.8066 100.918 60.5678 101.364 60.1526 101.681C59.5246 102.153 58.6682 102.278 58.144 101.966C57.9416 101.852 57.3811 101.292 57.3811 101.214C57.3811 101.193 57.599 101.183 57.8637 101.183C58.4347 101.178 58.7824 101.074 59.0834 100.814C59.2755 100.653 59.6128 100.093 59.6128 99.937C59.6128 99.9058 59.6803 99.8124 59.7633 99.7346C59.9554 99.5477 60.2875 99.5062 60.5367 99.6308Z" fill="#FDF390"/>
<path d="M66.4355 100.025C66.5186 100.066 66.6172 100.144 66.6535 100.196C66.7521 100.326 66.7417 100.694 66.6224 101.141C66.5497 101.426 66.5186 101.701 66.5186 102.184C66.5186 102.745 66.5341 102.89 66.6483 103.217C66.7781 103.601 66.804 103.809 66.7469 103.97C66.695 104.099 66.4459 104.203 66.1864 104.203C65.9944 104.203 65.9165 104.172 65.766 104.037C65.4909 103.798 65.3612 103.503 65.1016 102.49L64.8681 101.577L64.9408 101.193C65.0497 100.601 65.1535 100.347 65.356 100.149C65.5221 99.9886 65.5636 99.973 65.9113 99.9574C66.176 99.947 66.3265 99.9678 66.4355 100.025Z" fill="#FDF390"/>
<path d="M77.8833 100.745C78.1377 100.921 78.257 101.176 78.2311 101.477C78.2103 101.741 78.148 101.84 77.6083 102.478C77.4422 102.676 77.1619 103.044 76.9854 103.304C76.6688 103.766 76.6636 103.776 76.6325 104.207C76.6014 104.726 76.5339 104.804 76.1758 104.767C75.8488 104.731 75.6619 104.529 75.5997 104.134C75.4232 103.049 75.719 102.084 76.4664 101.3C77.0633 100.677 77.52 100.496 77.8833 100.745Z" fill="#FDF390"/>
<path d="M81.6139 101.219C81.7488 101.266 81.9616 101.411 82.1173 101.567C82.3457 101.79 82.408 101.889 82.5014 102.216C82.6519 102.704 82.6675 103.498 82.5377 103.788C82.4183 104.053 82.164 104.328 81.9045 104.484C81.7073 104.598 81.6294 104.614 81.2713 104.598L80.8665 104.583L80.8821 104.167C80.8976 103.84 80.8665 103.596 80.7367 103.025C80.4617 101.832 80.5084 101.375 80.9184 101.204C81.1416 101.11 81.3232 101.115 81.6139 101.219Z" fill="#FDF390"/>
<path d="M99.7355 105.282C99.912 105.345 100.208 105.698 100.306 105.952C100.607 106.767 100.395 107.499 99.7044 107.992C99.3982 108.21 98.3342 108.599 98.3342 108.495C98.3342 108.48 98.4432 108.298 98.5781 108.096C99.0556 107.353 99.1387 106.85 98.8843 106.248C98.7182 105.853 98.7131 105.718 98.8636 105.532C99.0452 105.298 99.4604 105.184 99.7355 105.282Z" fill="#FDF390"/>
<path d="M62.1192 105.611C62.3839 105.673 62.55 105.788 62.6227 105.964C62.7057 106.166 62.7005 106.333 62.5967 106.95C62.5033 107.506 62.5137 108.128 62.6227 108.513C62.6901 108.751 62.6901 109.53 62.6175 109.665C62.5448 109.8 62.2697 109.914 62.0829 109.878C61.7455 109.81 61.3718 109.239 61.05 108.3C60.858 107.755 60.7957 107.262 60.8632 106.857C61.0137 105.912 61.4756 105.455 62.1192 105.611Z" fill="#FDF390"/>
<path d="M58.6204 105.759C58.9318 105.91 59.2017 106.372 59.2017 106.751C59.2017 107.223 58.8073 107.997 58.335 108.448C58.0703 108.703 57.4942 109.019 57.1983 109.076C56.8194 109.144 56.4613 108.91 56.2174 108.427C56.1343 108.261 56.1343 108.251 56.2278 108.158C56.2797 108.106 56.4821 107.95 56.6793 107.815C57.1776 107.472 57.2346 107.379 57.2814 106.85C57.3436 106.185 57.5357 105.889 58.0028 105.734C58.2415 105.65 58.418 105.656 58.6204 105.759Z" fill="#FDF390"/>
<path d="M84.6325 106.671C84.9128 106.827 85.0477 107.138 85.11 107.802C85.2398 109.183 84.9907 109.676 84.1447 109.733C83.6153 109.764 83.5789 109.723 83.6256 109.095C83.6516 108.758 83.6412 108.586 83.5945 108.498C83.5063 108.337 83.5011 107.06 83.5841 106.904C83.7346 106.629 84.3211 106.5 84.6325 106.671Z" fill="#FDF390"/>
<path d="M94.3131 106.942C94.5311 107.035 94.7387 107.295 94.8062 107.554C94.8841 107.824 94.8789 108.411 94.8062 108.696C94.5727 109.563 93.7734 110.269 92.7924 110.477C92.4187 110.56 91.5883 110.58 91.5883 110.513C91.5883 110.487 91.661 110.404 91.7492 110.316C92.1592 109.932 92.6731 109.117 92.8547 108.566C92.9014 108.432 92.9845 108.11 93.0416 107.85C93.1609 107.3 93.2855 107.066 93.5294 106.952C93.7422 106.854 94.1003 106.848 94.3131 106.942Z" fill="#FDF390"/>
<path d="M68.3619 107.274C69.1041 107.621 69.0781 108.55 68.3048 109.36C67.6716 110.025 66.7062 110.232 65.689 109.921C65.5021 109.864 65.2582 109.77 65.144 109.708L64.9364 109.604L65.0661 109.552C65.1388 109.521 65.4502 109.376 65.7668 109.23C66.6699 108.805 67.028 108.483 67.3758 107.803C67.6664 107.227 67.9467 107.082 68.3619 107.274Z" fill="#FDF390"/>
<path d="M75.0115 107.477C75.3644 107.581 75.4215 107.887 75.2087 108.546C75.0426 109.075 74.7624 109.543 74.3887 109.911C73.6828 110.612 73.3974 110.446 73.3922 109.34C73.3922 108.421 73.6361 107.897 74.1966 107.617C74.534 107.451 74.7831 107.409 75.0115 107.477Z" fill="#FDF390"/>
<path d="M79.739 107.576C80.0089 107.706 80.1023 107.846 80.2061 108.272C80.284 108.583 80.284 108.635 80.2009 108.957C79.9154 110.141 78.6802 111.423 77.7148 111.542C77.2269 111.604 76.7858 111.402 76.6405 111.049C76.5315 110.789 76.6093 110.66 77.0193 110.379C77.7356 109.891 78.0781 109.378 78.4518 108.236C78.5816 107.841 78.7113 107.654 78.9241 107.545C79.1369 107.436 79.4847 107.447 79.739 107.576Z" fill="#FDF390"/>
<path d="M90.6281 107.882C90.8254 107.971 91.0485 108.215 91.0901 108.386C91.1368 108.599 91.0122 108.921 90.6074 109.626C90.1507 110.421 90.0313 110.784 90.0313 111.37C90.0313 111.739 90.0157 111.822 89.9275 111.91C89.8029 112.035 89.751 112.04 89.4863 111.915C89.2009 111.786 88.9517 111.526 88.7908 111.184C88.5261 110.618 88.6559 109.694 89.1334 108.786C89.5642 107.96 90.0936 107.644 90.6281 107.882Z" fill="#FDF390"/>
<path d="M69.1173 113.191C69.4754 113.295 69.6467 113.534 69.6415 113.913C69.6363 114.152 69.5896 114.344 69.3093 115.242L69.0965 115.916L69.1848 116.254C69.2989 116.705 69.2886 116.809 69.1432 116.903C68.7799 117.141 68.2869 117.001 68.0222 116.581C67.555 115.849 67.5447 114.795 67.9858 113.814C68.2298 113.264 68.6346 113.041 69.1173 113.191Z" fill="#FDF390"/>
<path d="M98.462 113.252C98.6281 113.34 98.8564 113.569 98.9343 113.719C99.1263 114.088 98.9291 114.607 98.3893 115.157C98 115.552 97.6419 115.775 97.1125 115.951C96.8115 116.05 96.6506 116.071 96.1731 116.06C95.8513 116.06 95.5451 116.029 95.488 115.998C95.3479 115.92 95.2441 115.614 95.3167 115.479C95.3479 115.427 95.5295 115.271 95.7216 115.141C95.9188 115.017 96.4326 114.576 96.8686 114.166C97.8703 113.231 98.1454 113.076 98.462 113.252Z" fill="#FDF390"/>
<path d="M60.317 113.226C60.6855 113.356 60.8464 113.678 60.753 114.093C60.7271 114.223 60.644 114.509 60.5817 114.721C60.5143 114.934 60.4053 115.37 60.3378 115.692C60.2236 116.258 60.2236 116.284 60.3067 116.554C60.4208 116.922 60.4157 117.036 60.2807 117.13C60.1094 117.249 59.6942 117.239 59.4814 117.104C59.1441 116.896 58.9105 116.351 58.8378 115.619C58.7289 114.472 58.9884 113.486 59.4607 113.242C59.6319 113.154 60.0835 113.143 60.317 113.226Z" fill="#FDF390"/>
<path d="M92.8952 114.276C93.0716 114.426 93.1443 114.577 93.1443 114.789C93.1443 114.997 93.0457 115.163 92.6305 115.636C92.044 116.31 91.8104 116.938 91.8675 117.712C91.8831 117.94 91.9246 118.252 91.9661 118.397C92.0076 118.547 92.0232 118.672 92.0025 118.672C91.9246 118.672 91.3744 118.034 91.2239 117.774C90.6374 116.762 90.7724 115.687 91.5924 114.81C92.1789 114.182 92.5889 114.016 92.8952 114.276Z" fill="#FDF390"/>
<path d="M79.5715 115.363C79.6286 115.389 79.7428 115.472 79.8207 115.555C80.3241 116.059 80.2255 116.567 79.4885 117.258C78.9228 117.792 78.6113 117.938 78.0404 117.938C77.4955 117.938 77.1477 117.844 76.9245 117.631C76.6598 117.382 76.5716 116.884 76.7637 116.759C76.7948 116.739 76.992 116.718 77.1996 116.718C77.5629 116.718 77.5993 116.707 77.9314 116.495C78.1494 116.349 78.383 116.137 78.5543 115.919C78.9435 115.431 79.2809 115.249 79.5715 115.363Z" fill="#FDF390"/>
<path d="M65.3502 116.445C65.7031 116.627 65.9418 116.985 65.947 117.328C65.947 117.873 65.1893 118.963 64.5924 119.269C64.1512 119.492 63.5336 119.378 63.3779 119.046L63.2948 118.875L63.8658 117.759C64.5042 116.508 64.6287 116.357 64.9765 116.357C65.0958 116.362 65.2619 116.399 65.3502 116.445Z" fill="#FDF390"/>
<path d="M88.0772 118.299C88.3679 118.403 88.5339 118.538 88.6481 118.761C88.7831 119.031 88.726 119.327 88.4301 119.877C87.8437 120.983 87.7814 121.123 87.7554 121.492C87.7399 121.741 87.7554 121.917 87.8177 122.094C87.8904 122.312 87.8904 122.353 87.8281 122.457C87.6412 122.732 87.2416 122.649 86.8939 122.265C86.598 121.938 86.4164 121.564 86.3385 121.123C86.2814 120.801 86.2866 120.734 86.4423 120.085C86.5305 119.701 86.6603 119.26 86.7278 119.099C87.0288 118.362 87.4907 118.087 88.0772 118.299Z" fill="#FDF390"/>
<path d="M96.92 119.561C96.9823 119.572 97.1121 119.66 97.2107 119.753C97.4598 119.982 97.574 120.397 97.574 121.03C97.574 121.627 97.4338 122.079 97.0861 122.587C96.4944 123.459 95.9079 123.76 95.2021 123.553C95.0412 123.506 94.9062 123.454 94.9062 123.438C94.9062 123.428 95.036 123.153 95.1917 122.831C95.5239 122.151 95.7159 121.518 95.7937 120.859C95.8249 120.594 95.8612 120.283 95.8716 120.163C95.9287 119.686 96.3387 119.452 96.92 119.561Z" fill="#FDF390"/>
<path d="M62.1832 120.376C62.4635 120.501 62.697 120.781 62.806 121.113C62.9825 121.638 62.8112 122.904 62.4842 123.501C62.3026 123.833 61.9133 124.197 61.6486 124.28C61.3632 124.363 61.0881 124.3 60.896 124.113L60.7403 123.958L60.7871 123.325C60.813 122.977 60.8286 122.286 60.8182 121.793C60.8078 121.004 60.813 120.875 60.9012 120.677C60.9739 120.516 61.0569 120.428 61.1867 120.366C61.4306 120.247 61.9185 120.252 62.1832 120.376Z" fill="#FDF390"/>
<path d="M72.2136 123.696C72.3589 123.779 72.5717 124.085 72.6703 124.365C72.9091 125.05 72.525 126.006 71.8606 126.343C71.6063 126.473 71.5337 126.488 71.2067 126.467C70.7915 126.447 70.5579 126.333 70.4074 126.089C70.3347 125.974 70.3192 125.891 70.3503 125.782C70.3815 125.653 70.423 125.621 70.6046 125.59C71.0925 125.507 71.1548 125.403 71.1859 124.547C71.2119 123.893 71.2171 123.877 71.3572 123.753C71.4766 123.654 71.5596 123.628 71.7984 123.628C71.9593 123.633 72.1461 123.659 72.2136 123.696Z" fill="#FDF390"/>
<path d="M86.7984 124.502C87.1306 124.663 87.333 124.923 87.333 125.177C87.333 125.473 87.2448 125.65 86.8036 126.236C86.5908 126.522 86.3832 126.812 86.3469 126.88C86.1497 127.259 86.186 127.58 86.4818 127.98C86.5804 128.115 86.6583 128.271 86.6583 128.333C86.6583 128.468 86.4974 128.634 86.3261 128.681C86.0043 128.759 85.1687 128.151 84.9455 127.679C84.686 127.129 84.7639 126.387 85.1635 125.603C85.6929 124.554 86.2067 124.207 86.7984 124.502Z" fill="#FDF390"/>
<path d="M97.3804 126.864C97.6243 127.014 97.9046 127.373 98.0084 127.668C98.1174 127.985 98.1277 128.758 98.0291 129.231C97.8215 130.196 97.1209 130.866 96.3164 130.866C96.0776 130.866 95.896 130.762 95.896 130.627C95.896 130.601 96.0102 130.393 96.1555 130.17C96.5707 129.506 96.6174 128.935 96.332 127.912C96.1503 127.248 96.2074 127.03 96.607 126.822C96.7835 126.734 97.1987 126.755 97.3804 126.864Z" fill="#FDF390"/>
<path d="M93.6386 128.675C93.9967 128.753 94.2822 129.096 94.2095 129.365C94.1939 129.433 93.9344 129.765 93.6386 130.108C92.9587 130.881 92.7511 131.218 92.6732 131.696C92.6317 131.919 92.5694 132.101 92.5123 132.158C92.3722 132.298 92.0919 132.288 91.9103 132.132L91.7649 132.007V131.312C91.7649 130.518 91.8272 130.279 92.1594 129.76C92.3826 129.417 92.8912 128.857 93.0625 128.763C93.2286 128.675 93.4673 128.639 93.6386 128.675Z" fill="#FDF390"/>
<path d="M69.3506 128.921C69.9682 129.191 70.1655 130.276 69.7554 131.122C69.4544 131.74 68.6499 132.378 68.1776 132.378C67.8091 132.378 67.3316 131.927 67.4562 131.698C67.4821 131.652 67.5963 131.532 67.7157 131.439C67.861 131.325 67.9856 131.153 68.0946 130.93C68.2399 130.619 68.2555 130.53 68.2814 129.887C68.3126 129.17 68.3541 128.999 68.5409 128.901C68.6759 128.828 69.1586 128.838 69.3506 128.921Z" fill="#FDF390"/>
<path d="M64.1977 130.272C64.4209 130.339 64.6752 130.557 64.7738 130.76C64.8776 130.983 64.8206 131.284 64.6441 131.445C64.4521 131.611 63.9486 132.265 63.6891 132.68C63.4815 133.018 63.4348 133.132 63.4036 133.448C63.3517 133.9 63.2376 134.035 62.9365 133.988C62.4954 133.916 62.35 133.661 62.3241 132.914C62.2878 131.995 62.5057 131.341 63.0351 130.775C63.4296 130.35 63.8604 130.168 64.1977 130.272Z" fill="#FDF390"/>
<path d="M88.2967 131.573C88.6288 131.776 88.8157 132.206 88.7223 132.549C88.66 132.777 88.3382 133.109 87.7154 133.587C87.2482 133.95 86.7708 134.438 86.5112 134.817C86.34 135.061 86.3348 135.066 86.1168 135.046C85.3902 134.962 85.2033 134.059 85.7016 133.073C85.9715 132.539 86.8746 131.75 87.4351 131.552C87.7413 131.443 88.0994 131.454 88.2967 131.573Z" fill="#FDF390"/>
<path d="M95.3019 133.209C95.5251 133.318 95.6082 133.5 95.5978 133.858C95.5874 134.33 95.4421 134.756 95.2085 135.021C94.8608 135.415 94.4404 135.566 93.7137 135.566C93.3089 135.56 92.6082 135.462 92.546 135.4C92.5304 135.384 92.738 135.228 93.0079 135.052C93.5632 134.688 93.9369 134.284 94.2639 133.687C94.3833 133.469 94.5286 133.277 94.622 133.22C94.8089 133.105 95.084 133.1 95.3019 133.209Z" fill="#FDF390"/>
<path d="M107.191 114.466C107.539 114.627 107.596 114.788 107.596 115.587C107.596 116.21 107.586 116.282 107.461 116.547C107.295 116.895 106.698 117.549 106.423 117.689C106.06 117.876 105.562 117.777 105.422 117.487C105.333 117.305 105.364 117.206 105.624 116.822C105.868 116.469 105.935 116.205 106.008 115.327C106.05 114.824 106.086 114.72 106.288 114.533C106.47 114.362 106.901 114.331 107.191 114.466Z" fill="#FDF390"/>
<path d="M109.733 120.035C110.039 120.248 110.169 120.487 110.169 120.829C110.169 121.338 109.702 121.992 109.001 122.459C108.394 122.864 108.119 122.952 107.434 122.952C106.894 122.957 106.847 122.947 106.723 122.833C106.567 122.687 106.505 122.459 106.583 122.314C106.614 122.257 106.769 122.122 106.93 122.018C107.086 121.914 107.605 121.421 108.083 120.923C108.56 120.424 109.012 119.983 109.089 119.942C109.302 119.827 109.458 119.853 109.733 120.035Z" fill="#FDF390"/>
<path d="M105.236 121.194C105.392 121.298 105.418 121.35 105.434 121.547C105.449 121.739 105.397 121.88 105.086 122.508C104.697 123.297 104.401 124.106 104.297 124.672C104.261 124.869 104.219 125.025 104.198 125.025C104.121 125.025 103.773 124.407 103.679 124.101C103.55 123.676 103.55 123.359 103.685 122.923C103.83 122.451 104.328 121.449 104.505 121.272C104.712 121.065 104.998 121.034 105.236 121.194Z" fill="#FDF390"/>
<path d="M107.051 125.261C107.249 125.339 107.435 125.515 107.503 125.687C107.612 125.936 107.602 126.719 107.487 127.078C107.384 127.399 107.124 127.69 106.89 127.742C106.657 127.794 106.304 127.726 106.107 127.591C105.863 127.425 105.884 127.238 106.19 126.828C106.46 126.47 106.491 126.294 106.32 126.019C106.107 125.671 106.32 125.282 106.75 125.245C106.875 125.235 107.01 125.24 107.051 125.261Z" fill="#FDF390"/>
<path d="M79.5725 125.748C79.8164 125.992 79.8735 126.262 79.8424 126.979C79.8164 127.674 79.6919 128.058 79.4324 128.312C79.23 128.51 79.0379 128.588 78.7732 128.588C78.4047 128.588 78.3321 128.437 78.4514 127.918C78.4826 127.773 78.4826 127.43 78.4566 126.963C78.4307 126.563 78.4255 126.174 78.441 126.091C78.4981 125.8 78.8511 125.577 79.2507 125.577C79.3493 125.577 79.4583 125.634 79.5725 125.748Z" fill="#FDF390"/>
<path d="M78.5025 130.385C78.7205 130.437 78.9281 130.587 79.0112 130.753C79.115 130.951 79.089 131.226 78.9229 131.874C78.8088 132.305 78.7672 132.591 78.7672 132.902C78.7672 133.463 78.8555 134.075 78.98 134.407C79.1046 134.734 79.1046 134.771 78.9697 134.895C78.705 135.145 78.3572 135.056 77.9783 134.651C77.4541 134.086 77.2258 133.426 77.1739 132.383C77.1427 131.615 77.2154 131.2 77.4593 130.8C77.6825 130.437 78.077 130.276 78.5025 130.385Z" fill="#FDF390"/>
<path d="M117.062 129.174C117.555 129.345 117.768 129.511 117.856 129.802C117.929 130.051 117.856 130.243 117.664 130.29C117.591 130.305 117.368 130.284 117.166 130.238C116.585 130.108 116.107 130.129 115.796 130.3C115.562 130.424 115.266 130.762 115.183 130.995C115.121 131.177 115.069 130.918 115.069 130.399C115.069 129.9 115.085 129.786 115.183 129.61C115.505 129.002 116.149 128.857 117.062 129.174Z" fill="#FDF390"/>
<path d="M119.658 132.077C120.006 132.149 120.384 132.565 120.519 133.016C120.68 133.561 120.587 134.578 120.322 135.149C120.068 135.705 119.398 136.172 118.869 136.172C118.371 136.172 118.288 135.97 118.604 135.544C119.04 134.947 119.118 134.298 118.864 133.353C118.625 132.45 118.703 132.212 119.279 132.082C119.393 132.061 119.559 132.056 119.658 132.077Z" fill="#FDF390"/>
<path d="M124.307 135.049C124.712 135.453 124.676 136.803 124.24 137.28C123.923 137.633 122.88 137.763 122.719 137.467C122.678 137.384 122.688 137.317 122.781 137.146C122.87 136.979 122.911 136.761 122.958 136.201C122.994 135.801 123.046 135.417 123.077 135.344C123.181 135.08 123.539 134.877 123.897 134.877C124.1 134.877 124.162 134.903 124.307 135.049Z" fill="#FDF390"/>
<path d="M112.549 132.363C113.089 132.83 113.11 133.51 112.601 134.46C112.399 134.844 112.061 135.161 111.781 135.239C111.345 135.353 110.842 135.088 110.92 134.771C110.94 134.699 111.029 134.528 111.117 134.387C111.267 134.149 111.283 134.092 111.314 133.495C111.371 132.529 111.527 132.275 112.098 132.197C112.3 132.171 112.342 132.187 112.549 132.363Z" fill="#FDF390"/>
<path d="M107.707 132.564C107.925 132.662 108.092 132.849 108.092 133C108.092 133.404 106.721 135.294 106.431 135.294C106.156 135.294 105.932 134.645 106.021 134.09C106.119 133.472 106.41 133.015 106.919 132.688C107.251 132.475 107.432 132.444 107.707 132.564Z" fill="#FDF390"/>
</svg>
