<svg width="201" height="201" viewBox="0 0 201 201" fill="none" xmlns="http://www.w3.org/2000/svg">
<circle cx="100.106" cy="100.906" r="98.5" stroke="white" stroke-width="3"/>
<path d="M103.628 26.0359C103.043 26.2418 102.571 26.6318 102.013 27.3848C101.667 27.8453 101.19 28.2571 100.778 28.4629C100.453 28.62 100.361 28.6417 99.9765 28.6417C99.2831 28.6363 98.8984 28.4792 97.8258 27.7641C97.051 27.2494 96.5364 26.9948 95.908 26.816C95.5504 26.7131 95.3554 26.6914 94.7215 26.6914C94.0389 26.6968 93.9197 26.7077 93.5351 26.8431C92.7712 27.1086 92.3541 27.4282 91.7473 28.1975C91.3464 28.7121 90.6692 29.3839 90.29 29.6385C89.9325 29.8823 89.2661 30.2074 88.8435 30.3374C88.2205 30.5378 87.5704 30.6245 86.3352 30.6733C85.1217 30.7166 84.8671 30.7545 84.2278 30.9983C83.5506 31.2529 82.8355 31.8705 82.5809 32.434C82.3859 32.8565 82.348 33.187 82.4292 33.745C82.6947 35.5111 82.2721 36.3562 80.5602 37.4885C79.5471 38.1602 79.0487 38.5666 78.637 39.0487C77.9706 39.8288 77.716 40.4085 77.7106 41.129C77.7106 41.6383 77.6618 41.5029 78.3065 42.7489C78.5232 43.1606 78.5774 43.3177 78.5936 43.5886C78.6261 44.1683 78.3878 44.3795 77.288 44.7696C76.9576 44.8834 76.5242 45.0676 76.3291 45.1651C75.1644 45.7827 72.2606 48.4643 70.5378 50.5284C68.4954 52.9717 66.5289 55.9405 64.3727 59.8194C63.2242 61.8889 61.6206 64.9118 61.4581 65.3182C61.2631 65.8112 61.106 66.575 61.106 67.0518C61.1114 68.0811 61.5231 69.2296 62.2111 70.1397C62.3466 70.3185 62.6499 70.714 62.8829 71.0174C64.0639 72.5614 64.454 73.8832 64.1668 75.3839C63.9826 76.3536 63.9122 77.1662 63.8851 78.7536C63.8255 81.9065 64.0585 82.99 64.974 83.9056C65.5916 84.5178 66.2634 84.832 67.4878 85.0649C68.7175 85.2979 69.2105 85.5254 69.8281 86.1484C70.1423 86.4627 70.3482 86.7444 70.7383 87.4053C72.3581 90.1574 73.9183 91.3384 76.3941 91.7068C76.8871 91.7772 77.2176 91.7881 78.0627 91.761C78.6424 91.7393 79.2492 91.7068 79.4117 91.6797L79.6988 91.6364L79.7909 91.8314C79.8938 92.0644 79.8993 92.6928 79.8288 95.927C79.7259 100.483 80.116 103.647 81.194 107.065C81.5408 108.149 81.6112 108.555 81.6058 109.417C81.6003 110.17 81.5678 110.343 81.2374 111.416C80.3977 114.151 80.5006 116.801 81.5841 120.067C81.9796 121.259 82.0663 121.904 81.9633 122.852C81.9308 123.172 81.8333 123.708 81.7466 124.038C81.6654 124.369 81.4324 125.366 81.232 126.254C81.0369 127.143 80.7931 128.161 80.6902 128.508C80.2568 130.019 79.65 131.222 78.8428 132.17C78.2794 132.836 78.2307 133.042 78.0356 135.285C77.6998 139.224 77.3801 141.271 76.7896 143.238C76.3616 144.674 75.6574 146.261 74.9422 147.393C74.0429 148.818 73.6312 149.918 73.4037 151.483C73.3495 151.884 73.2357 152.995 73.1599 153.948C72.9269 156.901 72.8078 157.892 72.526 159.258C72.1685 160.98 72.331 162.443 73.0353 163.857C73.6204 165.043 74.5739 166.046 75.7115 166.685C76.5675 167.162 78.8049 168.05 80.0889 168.419C81.725 168.89 83.0577 169.069 84.6396 169.02C85.7339 168.987 86.2377 168.917 87.3808 168.657C87.8467 168.549 88.1122 168.532 90.0625 168.5C92.3812 168.456 92.8308 168.478 93.183 168.657C93.6597 168.901 93.7301 169.578 93.3942 170.716C93.0584 171.864 92.9933 172.623 93.1721 173.332C93.3076 173.858 93.3997 174.031 93.7301 174.383C94.0931 174.762 94.4073 174.957 94.9924 175.153C95.8213 175.429 96.3793 175.505 97.5657 175.505C100.838 175.499 104.029 174.529 109.414 171.902C110.914 171.171 111.884 170.428 112.464 169.567C112.599 169.367 112.724 169.199 112.746 169.199C112.805 169.199 114.414 170.136 114.793 170.391C114.978 170.515 115.449 170.97 115.904 171.469C117.074 172.747 118.022 173.544 119.192 174.242C120.969 175.299 122.806 175.803 125.233 175.895C127.34 175.976 128.489 175.613 129.09 174.681C129.437 174.134 129.605 173.43 129.691 172.14C129.805 170.461 130.054 169.323 130.569 168.142C131.376 166.306 132.779 164.778 134.784 163.564C137.401 161.977 138.582 160.195 138.961 157.28C139.047 156.625 139.047 153.477 138.961 152.188C138.804 149.853 138.549 147.892 138.143 145.903C137.996 145.205 137.747 143.986 137.585 143.195C136.794 139.365 136.241 135.74 135.271 127.955C134.443 121.341 134.063 118.605 133.728 116.757C132.872 112.077 131.631 107.629 129.334 100.982C128.478 98.4949 128.38 98.0128 128.586 97.3031C128.738 96.783 129.025 96.4038 130.098 95.304C131.848 93.5 132.655 92.3027 133.148 90.7479C133.402 89.9624 133.495 89.3231 133.495 88.4238C133.489 87.5407 133.424 87.0965 133.104 85.8342C132.536 83.586 132.444 81.939 132.779 80.0267C133.018 78.6831 133.11 77.6592 133.142 75.9906C133.197 73.0002 132.877 70.7194 131.961 67.5393C131.024 64.2997 129.794 61.2821 127.654 57.0023C126.858 55.415 126.533 54.8245 126.002 54.0227C125.32 52.9825 124.886 52.1699 124.729 51.6119C124.664 51.3789 124.632 51.0376 124.621 50.4201C124.61 49.9433 124.594 49.4557 124.572 49.342C124.485 48.784 123.9 48.0743 123.001 47.4513C122.432 47.0558 122.194 46.7687 122.112 46.3732C122.026 45.9885 122.074 45.7177 122.383 44.8779C122.795 43.7619 122.925 43.2744 122.958 42.7001C123.033 41.3891 122.448 40.6685 120.465 39.6609C119.691 39.2654 119.539 39.1625 119.387 38.9187C119.252 38.6966 119.268 38.4095 119.474 37.7431C119.864 36.4646 119.398 35.7495 117.919 35.3594C116.906 35.0939 116.505 35.121 114.972 35.5544C114.441 35.7007 113.894 35.8416 113.759 35.8578C113.515 35.8849 113.509 35.8849 113.471 35.7115C113.379 35.2456 113.493 34.8664 113.834 34.4872C114.187 34.0917 114.647 33.4091 114.853 32.9703C115.145 32.3527 115.243 31.8976 115.21 31.2963C115.167 30.462 114.815 29.7306 114.089 28.9722C113.146 27.9808 112.09 27.4932 110.801 27.439C110.058 27.4065 109.723 27.4553 108.97 27.7045C108.634 27.8183 108.363 27.867 108.103 27.8724C107.556 27.8833 107.306 27.7424 106.667 27.0815C106.385 26.7835 106.006 26.4476 105.833 26.3339C105.172 25.9005 104.332 25.7867 103.628 26.0359ZM105.269 27.4065C105.697 27.6124 105.925 27.802 106.115 28.1216C106.25 28.3492 106.261 28.4196 106.261 28.9126C106.261 29.4002 106.239 29.5031 106.082 29.8986C105.882 30.3916 105.86 30.5812 105.963 30.8304C106.022 30.9767 106.06 30.9983 106.234 30.9983C106.58 30.9983 106.868 30.7924 107.317 30.2345C108.347 28.9559 109.782 28.3546 111.131 28.6417C111.879 28.7988 112.621 29.2485 113.244 29.9202C113.872 30.6028 114.094 31.2854 113.899 31.9518C113.78 32.3689 113.623 32.629 113.119 33.2466C112.323 34.2271 112.014 34.9152 112.009 35.7386C112.003 36.3129 112.106 36.5892 112.475 36.9467C112.886 37.3585 113.39 37.4289 114.149 37.2014C115.015 36.9359 115.151 36.9034 115.92 36.768C117.264 36.535 117.681 36.5946 117.925 37.0659C118.066 37.3476 118.071 37.5264 117.957 38.1765C117.854 38.7508 117.887 39.1733 118.049 39.558C118.217 39.9534 118.726 40.4031 119.322 40.6902C120.2 41.1128 120.455 41.2482 120.715 41.4595C121.717 42.2559 121.793 43.2527 120.948 44.6396C120.845 44.8129 120.693 45.1434 120.617 45.3818C120.487 45.7556 120.471 45.8802 120.493 46.3082C120.509 46.7524 120.536 46.8499 120.726 47.2291C120.888 47.565 121.023 47.7438 121.365 48.0634C122.497 49.1307 122.73 49.3907 122.903 49.7429C123.131 50.2142 123.261 50.7234 123.266 51.1568C123.266 51.6011 123.169 51.769 122.827 51.9207C122.6 52.0182 122.513 52.029 121.782 51.9911C120.623 51.937 120.108 52.0886 119.62 52.6304C118.661 53.7085 118.022 54.2069 116.337 55.1929C115.059 55.9459 114.333 56.4281 113.737 56.9156C113.255 57.3111 112.984 57.4249 112.718 57.3328C112.626 57.3003 112.296 57.1161 111.982 56.9265C110.687 56.1572 109.647 55.8484 108.319 55.8538C106.835 55.8538 105.226 56.401 103.687 57.4249C101.759 58.7142 100.767 60.242 100.486 62.3873C100.394 63.1132 100.453 64.6897 100.621 65.8599C100.778 66.9759 100.941 68.4928 101.044 69.7876C101.152 71.1582 101.136 74.6742 101.017 75.8552C100.795 78.0601 100.388 80.0754 99.9223 81.2727C98.958 83.781 97.3003 85.1516 94.8136 85.5038C94.2123 85.585 92.3107 85.5363 91.8123 85.4225C90.5771 85.1354 89.6345 84.6153 88.7298 83.716C87.5108 82.5025 86.8445 80.9856 86.6765 79.0515C86.4815 76.7816 87.3266 74.5713 89.2932 72.2255C89.602 71.8517 90.4905 70.8928 91.2597 70.0856C93.0475 68.2274 93.508 67.7344 94.1364 66.9976C96.1842 64.6193 97.3057 62.5607 97.7391 60.4153C97.9124 59.5377 97.9124 57.9991 97.7391 57.1811C97.4086 55.6479 96.7531 54.4398 95.7183 53.4484C94.9599 52.7225 94.1419 52.2457 93.1234 51.9207C90.7126 51.1514 88.7135 51.5631 87.0178 53.1721L86.6224 53.5459L86.514 53.4213C86.2377 53.0963 85.7664 52.327 85.3276 51.4927C84.1899 49.3311 83.7944 48.746 83.0793 48.1772C82.4455 47.6734 82.1204 47.3429 81.9904 47.0883C81.9146 46.942 81.8225 46.5574 81.7466 46.1131C81.5137 44.6883 81.1995 43.789 80.7119 43.1498C80.4356 42.7814 79.9047 42.348 79.4496 42.1096C78.8862 41.8171 78.8645 41.6058 79.3142 40.6523C79.8722 39.4604 80.3489 38.9404 81.3241 38.442C82.608 37.7864 83.2744 37.1038 83.5994 36.1179C83.7023 35.7982 83.724 35.6249 83.7186 35.0344C83.7186 34.6443 83.6969 34.0592 83.6752 33.7342C83.6319 33.1816 83.6373 33.122 83.7457 32.889C83.8865 32.5965 84.0707 32.4069 84.3849 32.2443C84.8292 32.0168 85.138 31.968 86.4869 31.9193C87.8142 31.876 88.4156 31.8001 89.0819 31.5942C90.4471 31.1717 91.6281 30.3482 92.5979 29.1401C93.3726 28.1758 93.741 27.9483 94.5915 27.9212C94.9491 27.9049 95.2254 27.9266 95.4583 27.9862C95.9296 28.1054 96.6772 28.4738 97.4086 28.9451C98.465 29.6223 99.2343 29.9148 99.9548 29.9148C100.887 29.9148 101.737 29.4435 102.544 28.4846C103.417 27.4444 103.828 27.1844 104.565 27.2277C104.82 27.2386 105.02 27.2928 105.269 27.4065ZM80.2026 44.7967C80.3218 45.5118 80.701 46.5628 81.1236 47.3321C81.4757 47.9822 82.4401 49.4286 83.2581 50.5284C84.8075 52.6196 85.3438 53.6435 85.566 54.9328C85.6689 55.5233 85.6689 56.4064 85.5605 57.0565C85.2951 58.7088 85.696 59.944 86.8878 61.1196C88.1664 62.3927 90.0246 63.1241 91.964 63.1241C93.1342 63.1241 93.9685 62.9182 95.2741 62.3169C95.6696 62.1327 96.0001 61.9864 96.0163 61.9864C96.0651 61.9864 95.4041 63.2866 95.0412 63.915C94.1419 65.4807 93.6109 66.12 91.5089 68.1894C89.1848 70.4756 88.2585 71.5375 87.4783 72.7997C86.7849 73.9212 86.5249 74.5929 85.9994 76.6136C85.8097 77.345 85.566 78.2226 85.4576 78.5639C85.2138 79.3441 84.9809 80.265 84.5908 82.0203C84.1141 84.1819 83.789 85.2058 83.231 86.3326C82.1475 88.5159 80.5168 89.8974 78.5557 90.2928C77.8731 90.4337 76.6325 90.3849 76.0041 90.1953C75.4081 90.0165 74.9856 89.8269 74.5468 89.5398C73.6691 88.971 73.1382 88.3859 72.4719 87.2753C71.0471 84.8808 69.6548 83.8352 67.5744 83.6022C66.7564 83.5155 66.258 83.2447 65.9113 82.7192C65.5321 82.1395 65.3208 81.3865 65.2124 80.2488C65.1474 79.5337 65.2124 78.5314 65.3858 77.5346C65.7379 75.5302 65.7433 74.1487 65.4129 72.8377C65.1366 71.7433 64.7086 70.9415 63.8689 69.923C62.9587 68.8233 62.6229 68.0107 62.6174 66.938C62.6174 66.2825 62.7529 65.6324 63.0183 65.0581C63.2405 64.576 65.3966 60.8 66.4747 59.0014C69.2972 54.2936 71.4371 51.406 74.1621 48.6377C75.7603 47.0124 76.1124 46.7578 78.3661 45.5876C78.9945 45.2572 79.6392 44.905 79.8017 44.7967C79.9643 44.6938 80.1105 44.6017 80.1322 44.6017C80.1539 44.5962 80.1864 44.6883 80.2026 44.7967ZM92.3757 53.015C94.8786 53.6489 96.6556 55.8971 96.5797 58.3296C96.5635 58.8876 96.5472 58.9526 96.3576 59.3535C95.8917 60.3341 94.7757 61.1142 93.2967 61.5042C92.755 61.6451 91.4006 61.7047 90.8155 61.6072C88.8815 61.2984 87.2887 59.9061 86.8662 58.1562C86.747 57.6687 86.7795 56.5093 86.9203 55.973C87.1154 55.2416 87.5867 54.4182 88.0688 53.9577C88.6106 53.443 89.369 53.0584 90.1275 52.9121C90.7288 52.7983 91.6986 52.8417 92.3757 53.015ZM122.54 53.4268C123.326 53.5514 124.263 54.1744 124.978 55.0412C125.341 55.4854 125.444 55.6642 126.127 57.1432C128.256 61.7155 129.128 63.7959 129.968 66.3204C131.003 69.4138 131.566 72.2309 131.75 75.2268C131.804 76.1044 131.799 76.164 131.674 76.7708C131.235 78.8402 131.219 80.7472 131.593 85.5525C131.81 88.3967 131.842 89.3827 131.728 90.0761C131.268 92.8607 129.02 95.1307 126.089 95.7753C125.428 95.9162 124.296 95.9324 123.461 95.8024C122.302 95.6236 122.259 95.6236 119.642 95.5749C117.063 95.5207 116.733 95.4936 115.855 95.2553C115.622 95.1902 115.205 95.044 114.934 94.9248C114.024 94.5401 113.401 94.5131 112.431 94.8273C111.971 94.9735 111.814 95.0006 111.299 95.0006C110.752 95.0061 110.681 94.9952 110.432 94.8598C109.798 94.5239 109.457 93.9442 109.051 92.514C108.612 90.9863 107.951 89.7294 106.44 87.5353C105.302 85.883 105.107 85.4388 105.058 84.3607C105.026 83.6022 105.112 83.0713 105.426 82.1557C105.93 80.6822 106.673 78.9432 107.94 76.2669C108.699 74.6579 109.051 73.8074 109.338 72.8918C109.869 71.2232 109.988 69.6738 109.701 68.2111C109.56 67.4852 109.565 67.3714 109.728 67.0463C109.874 66.7538 110.118 66.5479 110.622 66.2933C110.784 66.2121 111.115 66.017 111.353 65.8599C112.729 64.9714 113.515 63.8934 113.851 62.4469C113.986 61.8672 113.992 60.5616 113.856 59.7706C113.742 59.1206 113.769 58.8388 113.97 58.4217C114.23 57.8854 114.734 57.5386 115.985 57.0294C117.394 56.4497 118.12 55.9892 119.144 55.0033C119.983 54.2015 120.173 54.0444 120.644 53.7897C121.289 53.4376 121.879 53.3238 122.54 53.4268ZM109.728 57.2407C110.178 57.3653 110.855 57.6957 111.256 57.9937C111.873 58.4542 112.393 59.2018 112.637 59.9819C112.816 60.5724 112.816 61.6722 112.637 62.2573C112.236 63.5304 111.391 64.5055 110.161 65.1015C109.381 65.4807 108.953 65.5728 108.021 65.5728C106.185 65.5728 104.034 64.8468 102.685 63.7742C101.58 62.8965 101.347 62.0839 101.878 60.9625C102.143 60.3937 102.463 59.9657 103.032 59.4293C104.229 58.2863 105.99 57.4303 107.669 57.1702C108.141 57.0944 109.343 57.1377 109.728 57.2407ZM103.552 65.7191C105.296 66.4071 106.109 66.6671 107.03 66.8405C107.442 66.9163 107.87 67.003 107.984 67.0301C108.265 67.1059 108.542 67.3985 108.644 67.7398C108.807 68.287 108.715 69.9122 108.449 71.1203C108.146 72.5397 107.789 73.4878 106.803 75.5031C105.47 78.2335 104.825 79.68 104.283 81.1643C103.568 83.1363 103.438 84.5015 103.828 85.8667C104.018 86.5331 104.3 87.1019 104.868 87.9416C106.115 89.7944 107.008 91.5443 107.859 93.7871C108.287 94.9194 108.514 95.3528 108.899 95.7645C109.658 96.5825 110.811 96.7071 112.507 96.1708C113.222 95.9379 113.417 95.9541 114.094 96.2792C115.064 96.7396 116.207 97.0484 117.502 97.2001C117.784 97.2326 119.214 97.2814 120.671 97.3085C123.499 97.3572 124.225 97.4114 125.33 97.6606C126.024 97.8177 126.679 98.1157 127.037 98.4353C127.432 98.782 127.562 99.0854 127.741 100.055C128.017 101.54 128.37 102.607 129.453 105.245C130.537 107.894 130.889 108.989 131.127 110.489C131.609 113.48 131.983 115.701 132.481 118.545C133.256 122.982 133.392 123.762 133.668 125.534C134.145 128.567 134.491 131.32 134.73 134.039C134.941 136.396 135.109 137.56 135.867 141.732C136.707 146.331 136.778 146.824 137.162 150.617C137.579 154.68 137.671 156.126 137.59 157.307C137.466 159.133 136.436 160.731 134.486 162.129C132.649 163.445 131.918 164.025 131.089 164.8L130.732 165.141L130.672 164.962C130.553 164.578 130.342 163.667 130.212 162.969C129.968 161.641 129.886 160.764 129.892 159.366C129.892 157.957 129.935 157.416 130.179 156.007C130.547 153.862 130.542 152.903 130.152 149.154C130.049 148.168 130 147.274 129.962 145.687C129.924 144.332 129.859 142.973 129.773 141.976C129.702 141.109 129.556 139.077 129.448 137.452C128.982 130.247 128.63 127.457 127.774 124.103C127.568 123.291 127.004 121.687 126.88 121.563C126.82 121.503 126.501 121.877 126.398 122.115C126.268 122.435 126.295 122.798 126.511 123.459C127.015 125.041 127.091 125.734 127.254 130.464C127.313 132.257 127.378 132.847 127.687 134.364C128.169 136.759 128.343 138.514 128.445 142.084C128.619 148 128.64 148.477 128.803 150.102C128.895 151.039 129.058 152.177 129.188 152.838C129.296 153.385 129.307 154.631 129.209 155.33C129.171 155.585 129.063 156.267 128.96 156.847C128.624 158.754 128.603 159.447 128.825 161.63C129.177 165.043 129.079 168.196 128.527 171.637C128.234 173.413 127.969 174.058 127.394 174.356C127.069 174.529 126.349 174.513 125.493 174.324C125.135 174.242 124.827 174.156 124.805 174.139C124.783 174.118 124.864 173.82 124.984 173.473C125.455 172.081 125.46 170.819 125 169.35C124.924 169.117 124.848 168.928 124.821 168.928C124.74 168.928 124.339 169.242 124.236 169.399C124.052 169.654 124.014 169.887 123.954 171.068C123.916 171.691 123.884 172.39 123.868 172.612C123.857 172.834 123.819 173.105 123.786 173.213C123.662 173.641 123.331 173.961 122.898 174.08C122.562 174.172 121.657 174.112 121.24 173.971C120.227 173.625 119.414 172.845 119.035 171.864C118.813 171.279 118.808 170.694 119.019 169.47C119.219 168.316 119.295 166.999 119.187 166.479C119.03 165.737 118.51 165.509 118.131 166.019C118.028 166.154 118.011 166.279 117.979 167.102C117.952 167.947 117.925 168.121 117.724 168.928C117.6 169.421 117.486 169.984 117.47 170.185C117.437 170.515 117.421 170.553 117.318 170.553C117.096 170.548 116.738 170.336 116.348 169.973C116.126 169.773 115.557 169.318 115.075 168.96C114.127 168.267 113.639 167.796 113.434 167.378C113.331 167.173 113.298 167.005 113.287 166.62C113.26 166.019 113.379 165.504 113.894 163.9C114.409 162.302 114.495 161.825 114.495 160.531C114.495 159.621 114.479 159.398 114.371 158.911C114.149 157.919 113.715 156.879 113.163 156.007C112.827 155.471 112.675 155.097 112.643 154.691C112.605 154.214 112.697 153.883 113.109 153.092C113.84 151.662 114.257 149.977 114.409 147.8C114.441 147.366 114.49 146.635 114.522 146.174C114.555 145.714 114.663 144.565 114.766 143.628C115.07 140.881 115.075 140.735 115.091 138.156C115.102 135.659 115.124 135.35 115.357 133.741C115.481 132.864 115.508 132.262 115.443 131.628C115.281 129.998 114.701 128.551 113.612 127.051C113.174 126.449 112.572 125.75 112.491 125.75C112.388 125.75 112.101 126.113 112.068 126.281C112.03 126.471 112.095 126.617 112.458 127.186C113.255 128.416 113.726 129.683 113.964 131.222C114.116 132.208 114.094 134.082 113.91 135.827C113.677 138.059 113.558 140.118 113.439 144.17C113.352 147.047 113.282 147.615 112.626 150.969C112.393 152.161 112.182 153.25 112.166 153.39C112.144 153.537 112.106 153.65 112.085 153.65C111.955 153.65 110.757 151.706 110.199 150.584C109.365 148.916 108.899 147.632 108.157 144.928C107.583 142.853 107.22 141.721 106.667 140.291C105.443 137.149 104.912 134.917 104.18 129.786C103.877 127.684 103.677 127.04 103.081 126.27C102.842 125.956 102.019 125.23 101.97 125.284C101.959 125.295 102.051 125.788 102.171 126.379C102.29 126.975 102.631 128.773 102.929 130.382C103.845 135.366 104.343 137.631 105.015 139.825C105.351 140.936 106.483 144.213 107.22 146.228C108.823 150.595 110.362 153.986 111.987 156.728C112.605 157.768 112.881 158.304 113.038 158.759C113.195 159.209 113.331 160.027 113.331 160.504C113.331 160.964 113.195 161.777 113.033 162.318C112.664 163.548 112.485 164.269 112.16 165.867C111.738 167.974 111.651 168.294 111.375 168.819C110.931 169.681 110.053 170.461 109.11 170.835C108.677 171.008 107.81 171.014 107.642 170.846C107.463 170.672 107.426 170.38 107.485 169.713C107.518 169.388 107.528 168.949 107.507 168.749C107.491 168.538 107.501 168.169 107.534 167.909C107.615 167.335 107.566 167.173 107.29 167.059C107.052 166.956 106.862 166.956 106.64 167.064C106.337 167.205 106.277 167.416 106.223 168.521C106.169 169.692 106.071 170.353 105.849 171.014C105.416 172.308 104.571 173.121 103.308 173.462C102.788 173.609 101.093 173.603 100.805 173.462C100.394 173.256 100.41 173.381 100.394 170.483C100.388 169.063 100.367 167.898 100.345 167.898C100.329 167.898 100.199 167.985 100.058 168.088C99.4998 168.5 99.1855 168.987 99.0934 169.605C99.0664 169.784 99.0555 170.456 99.0664 171.095C99.1097 172.975 98.9309 173.739 98.3892 174.064C98.1454 174.204 98.1075 174.21 97.4303 174.204C96.2818 174.194 95.1983 173.928 94.8136 173.571C94.4127 173.202 94.3911 172.693 94.7107 171.566C94.9599 170.694 95.0682 169.984 95.1116 168.955C95.1658 167.552 95.0087 166.192 94.4994 163.727C93.768 160.184 93.6489 159.469 93.5568 158.077C93.5188 157.481 93.5243 156.966 93.5622 156.397C93.6434 155.287 93.6326 154.972 93.4972 154.539C93.3509 154.057 93.1179 153.607 92.5004 152.562C88.2151 145.373 85.6472 139.478 84.2658 133.682C84.0166 132.641 83.7999 131.986 83.1498 130.328C82.4238 128.475 82.375 128.259 82.3696 127.213C82.3696 126.314 82.3859 126.238 82.7218 125.404C83.1335 124.363 83.361 123.015 83.296 121.936C83.2418 120.918 83.0522 120.057 82.6351 118.886C82.1042 117.38 81.9362 116.476 81.9362 115.051C81.9362 113.837 81.9958 113.447 82.3263 112.375C82.6622 111.28 82.7272 110.944 82.7597 109.985C82.7976 108.837 82.6784 107.97 82.2559 106.323C82.0879 105.668 81.8441 104.736 81.7195 104.243C81.2699 102.515 81.1019 101.101 81.0857 98.9337C81.0586 96.2737 81.1344 90.9429 81.194 90.8292C81.2265 90.775 81.6003 90.3849 82.0229 89.9678C83.6536 88.3534 84.6775 86.7985 85.2572 85.0379C85.5714 84.0952 85.8097 82.795 85.8097 82.0366V81.7386L86.151 82.3183C87.6084 84.832 89.3582 86.1755 91.7961 86.6739C92.1916 86.7552 92.5383 86.7715 93.638 86.7715C94.8407 86.766 95.0574 86.7552 95.5612 86.6469C97.1973 86.2893 98.3838 85.6663 99.4347 84.6099C101.141 82.8871 101.943 80.7093 102.317 76.7762C102.431 75.541 102.447 71.3695 102.344 69.7605C102.214 67.8048 102.062 65.6974 102.03 65.4048C102.003 65.1394 102.008 65.1177 102.095 65.1502C102.149 65.1719 102.804 65.4265 103.552 65.7191ZM81.8387 130.653C81.9037 130.729 81.985 130.892 82.0175 131.022C82.0554 131.146 82.2342 131.71 82.4238 132.278C82.6134 132.842 82.9439 133.952 83.1552 134.743C84.1845 138.574 84.4662 139.457 85.2626 141.364C86.0427 143.243 86.5303 144.316 87.4404 146.169C88.6052 148.542 89.2336 149.696 90.8534 152.432C91.3789 153.325 91.9098 154.414 92.1428 155.07C92.4516 155.953 92.4787 156.256 92.4408 158.039C92.3812 160.569 92.5274 161.625 93.3726 164.789C93.7626 166.262 93.8114 166.696 93.6055 166.918C93.3563 167.183 92.9825 167.205 91.9857 167.005C90.6422 166.734 89.3745 166.766 87.1099 167.14C83.6915 167.703 82.1258 167.655 79.883 166.918C78.1602 166.354 75.7332 164.984 74.8122 164.057C74.4005 163.64 74.0538 163.023 73.8804 162.389C73.7829 162.026 73.7666 161.82 73.7612 160.937C73.7612 160.07 73.7883 159.707 73.94 158.635C74.0321 157.936 74.1838 157.031 74.2705 156.63C74.498 155.59 74.5413 155.265 74.5413 154.647C74.5413 152.226 75.3052 149.522 76.8655 146.407C77.716 144.701 78.0952 143.726 78.4582 142.301C78.897 140.594 79.092 138.872 79.092 136.759C79.092 134.917 79.3683 133.562 79.9859 132.333C80.3543 131.601 80.9665 130.691 81.1724 130.567C81.3891 130.426 81.6762 130.464 81.8387 130.653Z" fill="white"/>
<path d="M103.985 35.3667C101.168 36.8782 99.8844 37.9129 99.2289 39.1752C98.4759 40.6271 98.5246 42.0681 99.4185 44.7606C99.7327 45.7087 99.7544 45.79 99.7544 46.3046C99.7598 46.8139 99.749 46.8735 99.581 47.2093C99.3643 47.659 99.0501 47.9407 98.465 48.2333C98.037 48.4391 97.3653 48.6341 96.8506 48.6937C96.4822 48.7317 96.3197 48.8834 96.3197 49.1759C96.3197 49.6906 96.726 49.9073 97.7608 49.9452C98.3133 49.9723 98.4759 49.956 98.8388 49.8585C99.4781 49.6797 99.8627 49.4522 100.356 48.9592C101.011 48.3091 101.336 47.5777 101.445 46.543C101.499 45.985 101.385 45.3241 101.06 44.3652C100.567 42.9241 100.47 42.4636 100.464 41.6456C100.464 40.8059 100.562 40.4429 100.973 39.8145C101.461 39.0668 102.561 38.0375 103.715 37.2412C104.706 36.5531 105.107 36.1251 105.318 35.5076C105.486 35.02 105.475 34.9983 105.042 34.9333C104.879 34.9062 104.733 34.9658 103.985 35.3667Z" fill="#EF5F5F"/>
<path d="M88.9573 35.2778C88.7947 35.3373 88.4914 35.489 88.2801 35.6136C87.2995 36.1933 86.839 36.9734 86.904 37.954C86.9528 38.6854 87.2779 39.1404 88.1988 39.7472C88.4914 39.9422 88.8327 40.1968 88.9573 40.3214C89.2607 40.6248 89.564 41.1124 89.6832 41.4862C89.7645 41.7517 89.7699 41.8329 89.7157 42.0442C89.6182 42.4126 89.3528 42.8081 88.6485 43.6478C86.9203 45.701 86.8553 45.8039 87.0286 46.259C87.1316 46.5299 87.3645 46.6816 87.5812 46.6274C87.8196 46.5678 90.0354 44.8776 90.4958 44.4062C91.2435 43.6424 91.5902 42.8731 91.6444 41.8871C91.6769 41.2587 91.5793 40.7873 91.3031 40.2618C90.9347 39.563 90.3875 39.0267 89.4123 38.4199C88.681 37.9648 88.4643 37.7427 88.4643 37.4502C88.4643 37.1739 89.109 36.6863 89.7916 36.4371C89.9812 36.3667 90.16 36.2637 90.2196 36.1771C90.3116 36.0579 90.3171 36.0145 90.2629 35.8303C90.0841 35.2398 89.6128 35.0394 88.9573 35.2778Z" fill="#EF5F5F"/>
<path d="M112.87 42.3264C112.101 42.4294 111.667 42.6786 111.424 43.1499C111.332 43.3341 111.321 43.4316 111.348 43.7241C111.445 44.7589 111.445 45.669 111.353 46.0808C111.153 47.0017 110.584 47.7927 109.728 48.3615C109.154 48.7462 108.634 48.9791 107.675 49.2825C106.824 49.5534 106.537 49.7105 105.735 50.3497C104.603 51.249 104.348 51.8233 104.711 52.6468C104.82 52.8905 104.831 52.896 104.944 52.8201C105.242 52.6251 106.456 51.9371 107.063 51.6174C107.913 51.1624 108.71 50.8156 109.755 50.4202C111.96 49.5967 112.789 48.887 113.179 47.4839C113.287 47.1047 113.298 46.9096 113.309 45.5661C113.314 44.5855 113.341 44.0275 113.379 43.9517C113.477 43.7729 113.688 43.7566 114.122 43.8813C114.593 44.0221 114.728 44.0275 114.885 43.9192C115.032 43.8162 115.14 43.4587 115.091 43.242C114.983 42.7436 114.365 42.3373 113.656 42.2993C113.434 42.2831 113.081 42.2993 112.87 42.3264Z" fill="#EF5F5F"/>
<path d="M92.1752 73.6739C91.238 73.8039 90.2195 74.3565 89.7211 75.0066C89.2065 75.6675 89.0548 76.3122 89.1848 77.2169C89.5261 79.5248 91.1405 81.7297 92.4949 81.7297C93.3563 81.7243 94.4777 81.0633 95.6154 79.8823C96.8289 78.6255 97.4356 77.3848 97.2948 76.453C97.0835 75.0824 95.7075 74.0043 93.7897 73.7172C93.2967 73.6414 92.5491 73.6251 92.1752 73.6739Z" fill="white"/>
<path d="M75.1587 55.1492C73.0784 55.8697 72.4933 58.3346 74.0102 59.9599C74.4165 60.3933 74.7632 60.6425 75.7601 61.2276C78.0571 62.5711 78.5826 63.1129 78.6476 64.2018C78.6747 64.7435 78.6205 65.242 78.3605 66.6668C78.16 67.7557 78.1383 68.0645 78.225 68.3895C78.29 68.6171 78.4092 68.7037 78.6476 68.7037C79.834 68.7037 81.1125 66.4826 81.2426 64.2072C81.313 62.8474 81.0042 62.1486 79.8286 61.0217C79.0322 60.2633 78.0679 59.6728 76.7623 59.1419C75.7005 58.7085 75.4729 58.5676 75.2671 58.2155C74.942 57.6575 75.2616 56.9694 76.1393 56.3518C76.5022 56.0972 76.5781 55.9347 76.4643 55.6638C76.2314 55.1112 75.7817 54.9379 75.1587 55.1492Z" fill="#EF5F5F"/>
<path d="M69.6874 70.7198C69.3569 70.9419 68.7393 71.7545 68.6093 72.1338C68.463 72.5563 68.4305 74.2303 68.5551 74.7179C68.7826 75.601 69.1781 76.0344 70.1099 76.4244C71.6485 77.0691 72.5695 77.8763 73.1871 79.1332C73.6421 80.0542 73.8372 80.9047 73.9726 82.5462C74.0376 83.348 74.0701 83.5539 74.1731 83.7597C74.4873 84.3773 75.4787 84.4207 75.8633 83.8356C76.0096 83.6189 76.1667 83.0771 76.2859 82.4108C76.3292 82.167 76.3563 81.5927 76.3563 80.9751C76.3563 80.0975 76.3346 79.8645 76.2317 79.3824C75.7279 77.1341 74.4493 75.6172 72.4557 74.9021C71.6973 74.6312 71.3885 74.4741 71.0851 74.2033C70.4675 73.6453 70.3646 72.6484 70.8305 71.6733C71.1176 71.0828 71.0797 70.8336 70.6788 70.6494C70.3212 70.4923 69.9962 70.5139 69.6874 70.7198Z" fill="#EF5F5F"/>
<path d="M89.6724 55.3821C89.3257 55.5176 88.9627 55.8589 88.7948 56.2164C88.616 56.5848 88.5781 57.2891 88.7081 57.7387C88.9573 58.6001 89.472 59.1636 90.2088 59.3965C90.4526 59.4669 90.7018 59.494 91.2273 59.494C91.8936 59.494 91.9315 59.4886 92.0886 59.3586C92.2891 59.1852 92.3649 58.8602 92.3758 58.1396C92.3812 57.5546 92.2783 57.0995 92.0291 56.5957C91.4765 55.4742 90.5988 55.0246 89.6724 55.3821ZM91.1352 57.2403C91.4385 57.3704 91.5686 57.56 91.5957 57.9175C91.6173 58.2317 91.6119 58.2426 91.4006 58.4755C91.1893 58.7031 91.1677 58.7085 90.8535 58.7085C90.5447 58.7085 90.5122 58.6922 90.328 58.508C90.1546 58.3401 90.1221 58.2642 90.1004 58.0205C90.0842 57.7821 90.1004 57.7008 90.2088 57.5437C90.3442 57.3379 90.6368 57.1645 90.8372 57.1645C90.9022 57.1645 91.0377 57.197 91.1352 57.2403Z" fill="#EF5F5F"/>
<path d="M119.376 60.0686C119.068 60.1824 118.721 60.4857 118.374 60.9516C118.011 61.4446 117.795 61.9051 117.686 62.4306C117.459 63.5087 118.049 64.5759 119.257 65.264C120.232 65.822 120.725 66.1741 121.24 66.6942C122.259 67.7127 122.882 68.8883 123.488 70.8982C123.759 71.8029 123.77 71.9112 123.602 72.3555C123.347 73.0272 123.44 73.2439 124.008 73.2981C124.761 73.3685 125.271 72.9297 125.531 71.9762C125.628 71.6133 125.645 71.3912 125.65 70.546C125.655 69.6792 125.639 69.4679 125.531 68.975C125.189 67.4472 124.507 66.212 123.445 65.1935C122.844 64.6193 122.204 64.2076 121.354 63.8392C120.081 63.2866 119.777 63.0103 119.777 62.4089C119.777 62.1002 119.962 61.6451 120.26 61.2063C120.498 60.865 120.585 60.5074 120.482 60.3178C120.308 60.0144 119.826 59.9006 119.376 60.0686Z" fill="#EF5F5F"/>
<path d="M113.612 73.8441C112.735 74.0987 111.938 74.673 111.602 75.3068C111.315 75.854 111.261 76.0815 111.234 77.0025C111.207 77.7609 111.218 77.891 111.321 78.2268C111.543 78.969 112.003 79.4729 112.843 79.89C113.677 80.3072 114.3 80.8272 114.853 81.5586C115.449 82.3441 116.131 83.9531 116.343 85.0529C116.473 85.7409 116.597 85.8763 117.069 85.8763C117.735 85.8763 117.973 85.5242 118.158 84.2565C118.369 82.7775 117.838 80.9843 116.809 79.6896C116.24 78.9799 115.817 78.6331 114.766 78.0047C113.829 77.4521 113.493 77.1 113.493 76.6666C113.493 76.3415 113.845 75.8756 114.382 75.491C115.178 74.9222 115.303 74.5484 114.864 74.0662C114.566 73.7303 114.225 73.6707 113.612 73.8441Z" fill="#EF5F5F"/>
<path d="M122.969 80.0751C122.427 80.2539 122.075 80.8444 122.275 81.2345C122.308 81.2995 122.562 81.5704 122.839 81.8412C123.646 82.6322 124.047 83.3419 124.095 84.0895C124.15 84.8317 123.857 85.5576 123.207 86.3107C122.378 87.2804 121.89 88.2935 121.614 89.6533C121.49 90.2709 121.5 90.5959 121.657 90.8614C121.755 91.0293 122.091 91.2406 122.259 91.2406C122.432 91.2406 122.665 91.0076 122.882 90.6068C122.996 90.4063 123.288 89.9837 123.532 89.6695C124.122 88.9111 125.769 86.6303 125.997 86.2565C126.094 86.094 126.235 85.7581 126.317 85.5089C126.447 85.0863 126.452 85.0159 126.425 84.2087C126.398 83.2281 126.3 82.8056 125.943 82.123C125.564 81.3916 124.68 80.5573 123.933 80.216C123.602 80.0643 123.191 80.0047 122.969 80.0751Z" fill="#EF5F5F"/>
<path d="M106.673 60.1985C105.833 60.3773 105.129 60.7836 104.646 61.3741C104.24 61.8779 104.121 62.0892 104.121 62.3113C104.121 62.4738 104.181 62.5551 104.63 62.9993C105.237 63.6007 105.632 63.8174 106.218 63.8661C107.42 63.9636 108.666 63.0156 108.764 61.9267C108.823 61.3037 108.444 60.6048 107.902 60.3393C107.577 60.1822 107.046 60.1226 106.673 60.1985ZM106.31 61.4662C106.841 61.6883 106.927 62.4305 106.467 62.7826C106.31 62.9072 106.212 62.9343 105.99 62.9343C105.638 62.9289 105.416 62.7772 105.286 62.463C105.026 61.8075 105.654 61.1899 106.31 61.4662Z" fill="#EF5F5F"/>
<path d="M89.8674 90.2896C89.136 90.5876 88.3125 91.5628 88.0037 92.4946C87.5053 93.9844 88.0742 95.4579 89.5206 96.4168C90.057 96.7744 90.5445 96.9803 91.4384 97.2349C94.1959 98.015 95.9241 99.3748 97.0564 101.672C97.376 102.333 97.804 103.557 97.8853 104.083C97.9557 104.511 98.0532 104.662 98.3132 104.727C98.7466 104.846 99.2125 104.559 99.4022 104.061C99.5701 103.606 99.6405 102.956 99.608 102.165C99.5647 101.049 99.3426 100.204 98.8333 99.2068C97.9178 97.4137 96.1029 95.9184 93.9088 95.1437C93.6434 95.0516 92.9607 94.8512 92.4027 94.7103C90.3116 94.1632 90.1653 93.9031 90.8967 91.9366C91.0484 91.5303 91.1838 91.1023 91.2001 90.9885C91.2434 90.6905 91.0971 90.4359 90.7937 90.2788C90.4904 90.1271 90.252 90.1271 89.8674 90.2896Z" fill="#EF5F5F"/>
<path d="M109.723 101.615C109.495 101.75 109.322 102.021 109.322 102.238C109.322 102.449 109.154 103.007 108.997 103.321C108.525 104.253 107.924 104.67 105.909 105.461C104.701 105.933 104.305 106.128 103.644 106.572C102.441 107.374 101.602 108.528 101.255 109.839C101.055 110.608 101.006 111.301 101.082 112.477C101.206 114.536 101.331 115.186 101.775 116.107C102.171 116.93 102.799 117.472 103.601 117.689C103.828 117.748 103.877 117.743 104.05 117.651C104.321 117.504 104.462 117.293 104.462 117.044C104.457 116.93 104.359 116.383 104.235 115.83C103.417 112.114 103.53 110.716 104.771 109.443C105.416 108.782 106.239 108.24 108.135 107.238C109.305 106.626 109.365 106.583 109.842 106.111C110.264 105.694 110.373 105.548 110.589 105.109C110.866 104.54 111.061 103.847 111.185 103.018C111.304 102.189 111.185 101.821 110.714 101.593C110.389 101.436 110.004 101.441 109.723 101.615Z" fill="#EF5F5F"/>
<path d="M123.862 103.042C123.586 103.172 123.407 103.394 123.407 103.605C123.407 103.708 123.504 103.914 123.678 104.174C124.198 104.954 124.279 105.648 124.03 107.143C123.954 107.593 123.878 108.248 123.862 108.606C123.835 109.174 123.846 109.348 123.97 109.96C124.155 110.854 124.409 111.596 124.713 112.132C125.162 112.918 126.121 113.79 126.722 113.947C127.058 114.039 127.416 113.936 127.692 113.671C127.941 113.433 127.969 113.221 127.795 112.723C127.627 112.235 127.378 111.271 127.232 110.529C126.993 109.337 126.918 108.573 126.874 106.764C126.847 105.664 126.809 104.949 126.766 104.813C126.457 103.806 125.471 102.998 124.49 102.961C124.176 102.944 124.035 102.966 123.862 103.042Z" fill="#EF5F5F"/>
<path d="M117.464 109.064C116.82 109.351 115.931 110.603 115.601 111.664C115.443 112.174 115.433 112.975 115.573 113.506C115.801 114.341 116.364 115.072 117.128 115.511C118.233 116.15 118.781 116.605 119.344 117.358C120.032 118.285 120.85 120.246 121.024 121.416C121.061 121.638 121.126 121.903 121.17 122.001C121.392 122.478 122.074 122.445 122.567 121.936C122.79 121.708 122.871 121.578 122.985 121.226C123.516 119.628 123.093 117.337 121.955 115.619C121.349 114.709 120.726 114.097 119.756 113.463C119.111 113.046 118.791 112.759 118.596 112.428C118.466 112.212 118.45 112.125 118.456 111.746C118.461 111.366 118.488 111.242 118.694 110.743C118.987 110.039 119.019 109.633 118.808 109.34C118.548 108.977 117.93 108.853 117.464 109.064Z" fill="#EF5F5F"/>
<path d="M90.0464 110.797C89.6726 110.987 89.0604 111.534 88.7028 112C88.367 112.433 88.0582 113.116 87.9444 113.668C87.6898 114.952 88.1719 116.361 89.2825 117.542C91.1841 119.573 91.9317 121.188 91.9317 123.268C91.9317 123.593 91.9533 123.864 91.9858 123.88C92.0888 123.945 92.04 124.297 91.8775 124.666C91.6825 125.11 91.677 125.159 91.845 125.348C91.9533 125.478 92.0183 125.5 92.3271 125.522C92.7876 125.549 93.0097 125.473 93.3619 125.148C93.8007 124.747 94.1799 123.929 94.3966 122.905C94.505 122.39 94.505 120.977 94.3912 120.234C94.3045 119.638 94.0878 118.885 93.8495 118.344C93.4865 117.526 92.6793 116.55 91.8504 115.933C90.8969 115.223 90.4906 114.671 90.431 114.01C90.3768 113.419 90.6531 112.661 91.1299 112.092C91.4712 111.675 91.5741 111.453 91.4928 111.247C91.4116 111.03 91.2328 110.851 90.9836 110.737C90.6748 110.591 90.4256 110.607 90.0464 110.797Z" fill="#EF5F5F"/>
<path d="M92.3595 132.214C91.9749 132.377 91.7094 132.577 91.406 132.951C90.8859 133.59 90.6638 134.23 90.6638 135.069C90.6692 135.541 90.6909 135.714 90.8155 136.072C91.2002 137.199 92.0128 138.06 93.2859 138.699C93.4809 138.797 93.8439 139.008 94.0985 139.176C96.3143 140.612 97.6036 142.762 97.8691 145.449C97.9341 146.148 98.102 146.343 98.6167 146.349C99.1693 146.354 99.5268 146.083 99.8194 145.449C100.085 144.87 100.085 144.03 99.8086 142.6C99.451 140.709 98.7034 139.236 97.5332 138.103C96.9373 137.524 96.2926 137.096 95.2362 136.559C94.2665 136.066 93.8439 135.757 93.5622 135.335C93.2155 134.815 93.1938 134.235 93.4918 133.363C93.638 132.94 93.6543 132.843 93.6055 132.669C93.5459 132.453 93.3184 132.252 93.0204 132.149C92.7712 132.068 92.7062 132.074 92.3595 132.214Z" fill="#EF5F5F"/>
<path d="M121.971 132.533C121.646 132.647 121.397 132.972 121.24 133.47C121.142 133.784 120.698 134.656 120.417 135.095C120.281 135.301 119.934 135.789 119.647 136.179C119.068 136.953 118.656 137.728 118.466 138.4C118.352 138.801 118.342 138.931 118.347 140.215C118.347 141.445 118.358 141.64 118.461 142.003C118.743 143.01 119.138 143.79 119.831 144.668C120.238 145.188 122.226 147.198 122.491 147.361C122.757 147.523 122.984 147.507 123.207 147.312C123.488 147.068 123.532 146.905 123.499 146.266C123.456 145.389 123.207 144.793 122.318 143.4C121.717 142.452 121.289 141.596 121.105 140.946C120.915 140.302 120.872 139.521 120.991 138.969C121.11 138.411 121.478 137.674 121.896 137.165C122.594 136.303 122.773 136.065 122.947 135.718C123.217 135.182 123.358 134.667 123.391 134.093C123.439 133.297 123.261 132.836 122.816 132.609C122.611 132.5 122.166 132.457 121.971 132.533Z" fill="#EF5F5F"/>
<path d="M118.607 152.566C118.336 152.653 118.001 153.021 117.908 153.346C117.843 153.563 117.838 153.682 117.881 153.899C117.941 154.181 118.055 154.365 118.613 155.096C119.024 155.638 119.371 156.315 119.485 156.824L119.572 157.225L119.371 158.265C119.225 159.008 119.122 159.403 119.014 159.62C118.813 160.015 118.813 160.216 118.997 160.362C119.333 160.627 119.87 160.644 120.287 160.4C120.791 160.102 121.479 159.214 121.777 158.461C122.031 157.832 122.134 157.242 122.129 156.413C122.129 155.02 121.728 154.181 120.655 153.319C119.848 152.669 119.127 152.404 118.607 152.566Z" fill="#EF5F5F"/>
<path d="M99.11 152.637C98.8174 152.713 98.2323 153.298 98.0373 153.71C97.8098 154.192 97.6527 154.869 97.6472 155.357C97.6472 156.235 98.0861 157.156 98.8716 157.909C99.3917 158.402 99.8034 158.689 100.735 159.203C101.152 159.431 101.645 159.729 101.83 159.859C102.474 160.319 102.843 160.894 103.005 161.69C103.054 161.928 103.119 162.151 103.151 162.194C103.238 162.291 103.552 162.281 103.774 162.178C104.04 162.053 104.37 161.652 104.479 161.332C104.592 160.991 104.56 160.509 104.397 160.092C104.045 159.182 102.881 157.876 101.494 156.847C100.616 156.191 100.275 155.861 100.08 155.454C99.9497 155.194 99.9388 155.119 99.9605 154.718C99.9822 154.393 100.026 154.176 100.134 153.921C100.248 153.667 100.28 153.515 100.258 153.363C100.188 152.859 99.6301 152.502 99.11 152.637Z" fill="#EF5F5F"/>
<path d="M81.8656 147.778C81.7356 147.914 81.7031 147.995 81.676 148.325C81.6001 149.144 81.2318 149.767 80.4408 150.417C78.7018 151.852 77.9921 152.784 77.7862 153.905C77.64 154.686 78.095 156.116 78.8643 157.308C80.002 159.079 81.5947 160.401 82.9003 160.667C83.6642 160.818 84.168 160.596 84.271 160.065C84.3143 159.832 84.2168 159.681 83.8863 159.442C83.7509 159.345 83.5559 159.15 83.4583 159.014C83.3608 158.879 83.0629 158.527 82.7974 158.229C81.8331 157.145 81.0151 156.051 80.7225 155.439C80.5437 155.07 80.5275 154.989 80.5275 154.572C80.5275 154.176 80.5492 154.068 80.6792 153.808C80.9121 153.353 81.2859 152.887 82.1256 151.999C82.5482 151.549 82.987 151.04 83.1062 150.861C83.545 150.195 83.6371 149.458 83.3771 148.77C83.1225 148.098 82.727 147.702 82.2665 147.654C82.0498 147.627 82.0065 147.643 81.8656 147.778Z" fill="#EF5F5F"/>
</svg>
