<svg width="180" height="180" viewBox="0 0 180 180" fill="none" xmlns="http://www.w3.org/2000/svg">
<circle cx="90" cy="90" r="88.5" stroke="white" stroke-width="3"/>
<path d="M93.1698 22.6171C92.6432 22.8024 92.219 23.1534 91.7168 23.8312C91.4047 24.2456 90.9757 24.6162 90.6051 24.8014C90.3126 24.9428 90.2297 24.9623 89.8835 24.9623C89.2594 24.9575 88.9132 24.8161 87.9478 24.1725C87.2506 23.7093 86.7874 23.4801 86.2218 23.3192C85.9 23.2266 85.7245 23.2071 85.154 23.2071C84.5397 23.2119 84.4324 23.2217 84.0862 23.3436C83.3988 23.5825 83.0233 23.8702 82.4773 24.5625C82.1164 25.0257 81.507 25.6303 81.1657 25.8595C80.8439 26.0789 80.2442 26.3714 79.8639 26.4884C79.3031 26.6689 78.7181 26.7469 77.6064 26.7908C76.5142 26.8298 76.2851 26.8639 75.7097 27.0833C75.1002 27.3125 74.4566 27.8683 74.2275 28.3754C74.052 28.7557 74.0178 29.0531 74.091 29.5553C74.3299 31.1448 73.9496 31.9054 72.4088 32.9244C71.4971 33.529 71.0485 33.8947 70.6779 34.3287C70.0782 35.0308 69.8491 35.5525 69.8442 36.2009C69.8442 36.6593 69.8003 36.5374 70.3805 37.6588C70.5756 38.0294 70.6243 38.1707 70.6389 38.4145C70.6682 38.9362 70.4537 39.1264 69.4639 39.4774C69.1665 39.5798 68.7764 39.7456 68.6009 39.8334C67.5526 40.3892 64.9392 42.8027 63.3887 44.6604C61.5505 46.8593 59.7806 49.5312 57.8401 53.0223C56.8064 54.8848 55.3632 57.6055 55.2169 57.9712C55.0414 58.4148 54.9 59.1023 54.9 59.5314C54.9049 60.4578 55.2755 61.4914 55.8947 62.3106C56.0166 62.4715 56.2896 62.8274 56.4993 63.1004C57.5622 64.49 57.9132 65.6797 57.6548 67.0303C57.489 67.9031 57.4257 68.6344 57.4013 70.063C57.3476 72.9007 57.5573 73.8758 58.3813 74.6999C58.9371 75.2508 59.5417 75.5336 60.6437 75.7433C61.7504 75.9529 62.1941 76.1577 62.75 76.7184C63.0328 77.0012 63.2181 77.2547 63.5691 77.8496C65.027 80.3265 66.4312 81.3894 68.6594 81.7209C69.1031 81.7843 69.4005 81.7941 70.1611 81.7697C70.6828 81.7502 71.2289 81.7209 71.3752 81.6965L71.6336 81.6575L71.7165 81.8331C71.8091 82.0427 71.814 82.6083 71.7506 85.5191C71.658 89.6196 72.009 92.4671 72.9793 95.5437C73.2913 96.5188 73.3547 96.8845 73.3499 97.6597C73.345 98.3375 73.3157 98.4935 73.0183 99.4589C72.2626 101.921 72.3552 104.305 73.3303 107.245C73.6863 108.318 73.7643 108.898 73.6717 109.752C73.6424 110.039 73.5546 110.522 73.4766 110.819C73.4035 111.117 73.1938 112.014 73.0134 112.814C72.8379 113.613 72.6185 114.53 72.5259 114.842C72.1358 116.202 71.5897 117.285 70.8632 118.138C70.3561 118.738 70.3123 118.923 70.1367 120.941C69.8344 124.486 69.5468 126.329 69.0153 128.099C68.6301 129.391 67.9963 130.82 67.3527 131.839C66.5433 133.121 66.1728 134.111 65.968 135.52C65.9192 135.881 65.8168 136.88 65.7486 137.738C65.5389 140.396 65.4316 141.288 65.1781 142.517C64.8563 144.067 65.0026 145.384 65.6364 146.656C66.163 147.724 67.0211 148.626 68.045 149.201C68.8154 149.63 70.8291 150.43 71.9846 150.762C73.4571 151.186 74.6566 151.347 76.0803 151.303C77.0652 151.273 77.5186 151.21 78.5474 150.976C78.9667 150.879 79.2056 150.864 80.9609 150.835C83.0477 150.796 83.4524 150.815 83.7693 150.976C84.1984 151.195 84.2618 151.805 83.9595 152.829C83.6572 153.862 83.5987 154.545 83.7596 155.184C83.8815 155.657 83.9644 155.813 84.2618 156.13C84.5885 156.471 84.8712 156.647 85.3978 156.822C86.1438 157.071 86.646 157.139 87.7138 157.139C90.6588 157.134 93.5306 156.261 98.3771 153.897C99.7276 153.238 100.6 152.57 101.122 151.795C101.244 151.615 101.356 151.464 101.376 151.464C101.429 151.464 102.877 152.307 103.219 152.536C103.384 152.648 103.809 153.058 104.218 153.507C105.271 154.657 106.125 155.374 107.178 156.003C108.777 156.954 110.43 157.407 112.614 157.49C114.511 157.563 115.545 157.237 116.086 156.398C116.398 155.905 116.549 155.272 116.627 154.111C116.729 152.6 116.954 151.576 117.417 150.513C118.143 148.86 119.406 147.485 121.21 146.393C123.565 144.964 124.628 143.36 124.969 140.737C125.047 140.147 125.047 137.314 124.969 136.154C124.828 134.052 124.599 132.287 124.233 130.498C124.102 129.869 123.877 128.772 123.731 128.06C123.019 124.613 122.522 121.351 121.649 114.345C120.903 108.391 120.562 105.929 120.259 104.266C119.489 100.054 118.373 96.0507 116.305 90.0682C115.535 87.8302 115.447 87.3963 115.632 86.7576C115.769 86.2895 116.027 85.9482 116.993 84.9584C118.568 83.3348 119.294 82.2573 119.738 80.8579C119.967 80.1509 120.05 79.5756 120.05 78.7662C120.045 77.9715 119.986 77.5717 119.699 76.4356C119.187 74.4122 119.104 72.93 119.406 71.2088C119.621 69.9996 119.704 69.0781 119.733 67.5764C119.782 64.885 119.494 62.8323 118.67 59.9702C117.826 57.0545 116.72 54.3387 114.794 50.4869C114.077 49.0583 113.784 48.5268 113.307 47.8052C112.692 46.8691 112.302 46.1377 112.161 45.6355C112.102 45.4259 112.073 45.1187 112.063 44.5629C112.054 44.1338 112.039 43.695 112.019 43.5926C111.941 43.0904 111.415 42.4517 110.605 41.8909C110.093 41.535 109.879 41.2766 109.806 40.9207C109.728 40.5745 109.772 40.3307 110.05 39.575C110.42 38.5706 110.537 38.1317 110.566 37.6149C110.635 36.435 110.108 35.7865 108.324 34.8796C107.626 34.5237 107.49 34.431 107.353 34.2116C107.231 34.0117 107.246 33.7533 107.431 33.1536C107.782 32.0029 107.363 31.3593 106.032 31.0083C105.12 30.7694 104.759 30.7937 103.38 31.1838C102.902 31.3154 102.409 31.4422 102.287 31.4568C102.068 31.4812 102.063 31.4812 102.029 31.3252C101.946 30.9059 102.049 30.5646 102.356 30.2233C102.673 29.8673 103.087 29.253 103.272 28.8581C103.536 28.3022 103.623 27.8927 103.594 27.3515C103.555 26.6006 103.238 25.9424 102.585 25.2598C101.736 24.3675 100.786 23.9287 99.6253 23.8799C98.9573 23.8507 98.655 23.8946 97.9773 24.1188C97.675 24.2212 97.4312 24.2651 97.1971 24.27C96.7047 24.2797 96.4804 24.153 95.9051 23.5581C95.6515 23.29 95.3102 22.9877 95.1542 22.8853C94.5594 22.4952 93.8036 22.3928 93.1698 22.6171ZM94.6471 23.8507C95.0323 24.0359 95.2371 24.2066 95.4077 24.4943C95.5296 24.6991 95.5394 24.7624 95.5394 25.2061C95.5394 25.6449 95.5199 25.7376 95.3785 26.0935C95.1981 26.5372 95.1786 26.7079 95.2712 26.9321C95.3248 27.0638 95.359 27.0833 95.515 27.0833C95.827 27.0833 96.0855 26.898 96.4902 26.3958C97.4165 25.2451 98.7086 24.7039 99.9227 24.9623C100.596 25.1037 101.264 25.5084 101.824 26.113C102.39 26.7274 102.59 27.3417 102.414 27.9414C102.307 28.3169 102.166 28.5509 101.712 29.1067C100.995 29.9892 100.717 30.6085 100.713 31.3496C100.708 31.8664 100.8 32.1151 101.132 32.4369C101.502 32.8074 101.956 32.8708 102.638 32.666C103.419 32.4271 103.54 32.3979 104.233 32.276C105.442 32.0663 105.817 32.1199 106.037 32.5441C106.164 32.7977 106.169 32.9586 106.066 33.5437C105.973 34.0605 106.003 34.4408 106.149 34.787C106.3 35.1429 106.758 35.5476 107.295 35.806C108.085 36.1863 108.314 36.3082 108.548 36.4984C109.45 37.2151 109.518 38.1122 108.758 39.3604C108.665 39.5164 108.528 39.8139 108.46 40.0284C108.343 40.3648 108.328 40.477 108.348 40.8622C108.363 41.262 108.387 41.3497 108.558 41.691C108.704 41.9933 108.826 42.1542 109.133 42.4419C110.152 43.4024 110.362 43.6365 110.518 43.9534C110.722 44.3776 110.839 44.8359 110.844 45.226C110.844 45.6258 110.757 45.7769 110.449 45.9134C110.245 46.0012 110.167 46.0109 109.508 45.9768C108.465 45.9281 108.002 46.0646 107.563 46.5522C106.7 47.5224 106.125 47.971 104.608 48.8584C103.458 49.5361 102.804 49.9701 102.268 50.4089C101.834 50.7648 101.59 50.8672 101.351 50.7843C101.268 50.7551 100.971 50.5893 100.688 50.4186C99.5229 49.7263 98.5867 49.4483 97.3922 49.4532C96.0562 49.4532 94.6081 49.9457 93.2234 50.8672C91.4876 52.0276 90.5954 53.4026 90.3418 55.3334C90.2589 55.9867 90.3126 57.4056 90.4637 58.4587C90.6051 59.4631 90.7514 60.8283 90.844 61.9937C90.9416 63.2272 90.9269 66.3916 90.8197 67.4545C90.6198 69.4389 90.2541 71.2527 89.8348 72.3302C88.9669 74.5877 87.4749 75.8213 85.2369 76.1382C84.6957 76.2113 82.9843 76.1674 82.5358 76.0651C81.4241 75.8066 80.5757 75.3386 79.7615 74.5292C78.6644 73.437 78.0647 72.0718 77.9136 70.3312C77.738 68.2882 78.4986 66.2989 80.2685 64.1877C80.5465 63.8513 81.3461 62.9883 82.0384 62.2618C83.6474 60.5894 84.0619 60.1457 84.6275 59.4826C86.4705 57.3422 87.4798 55.4894 87.8698 53.5586C88.0259 52.7687 88.0259 51.384 87.8698 50.6478C87.5724 49.2679 86.9824 48.1807 86.0512 47.2884C85.3686 46.635 84.6323 46.206 83.7157 45.9134C81.546 45.2211 79.7468 45.5916 78.2207 47.0397L77.8648 47.3762L77.7673 47.264C77.5186 46.9715 77.0944 46.2791 76.6995 45.5283C75.6756 43.5828 75.3197 43.0562 74.6761 42.5443C74.1056 42.0908 73.813 41.7934 73.696 41.5643C73.6278 41.4326 73.5449 41.0864 73.4766 40.6866C73.267 39.4043 72.9842 38.5949 72.5454 38.0196C72.2967 37.688 71.8189 37.298 71.4093 37.0835C70.9022 36.8202 70.8827 36.63 71.2874 35.7719C71.7896 34.6992 72.2187 34.2311 73.0963 33.7826C74.2519 33.1926 74.8516 32.5783 75.1441 31.6909C75.2368 31.4032 75.2563 31.2472 75.2514 30.7157C75.2514 30.3647 75.2319 29.8381 75.2124 29.5455C75.1734 29.0482 75.1783 28.9946 75.2758 28.7849C75.4025 28.5216 75.5683 28.351 75.8511 28.2047C76.2509 27.9999 76.5288 27.9561 77.7429 27.9122C78.9375 27.8732 79.4787 27.8049 80.0784 27.6196C81.3071 27.2393 82.37 26.4982 83.2427 25.4109C83.94 24.543 84.2715 24.3382 85.037 24.3139C85.3588 24.2992 85.6075 24.3187 85.8171 24.3724C86.2413 24.4796 86.9142 24.8112 87.5724 25.2354C88.5232 25.8448 89.2155 26.1081 89.864 26.1081C90.7026 26.1081 91.4681 25.684 92.1946 24.821C92.9796 23.8848 93.3502 23.6508 94.0133 23.6898C94.2424 23.6995 94.4228 23.7483 94.6471 23.8507ZM72.087 39.5018C72.1943 40.1454 72.5356 41.0913 72.9159 41.7837C73.2328 42.3688 74.1007 43.6706 74.837 44.6604C76.2314 46.5424 76.7141 47.4639 76.914 48.6244C77.0067 49.1558 77.0067 49.9506 76.9091 50.5356C76.6702 52.0227 77.031 53.1344 78.1037 54.1925C79.2544 55.3383 80.9268 55.9965 82.6723 55.9965C83.7254 55.9965 84.4763 55.8112 85.6514 55.27C86.0073 55.1042 86.3047 54.9726 86.3193 54.9726C86.3632 54.9726 85.7684 56.1428 85.4417 56.7083C84.6323 58.1174 84.1545 58.6928 82.2627 60.5553C80.171 62.6129 79.3373 63.5685 78.6352 64.7046C78.0111 65.7138 77.777 66.3184 77.3041 68.1371C77.1334 68.7953 76.914 69.5852 76.8165 69.8924C76.5971 70.5945 76.3874 71.4233 76.0364 73.0031C75.6073 74.9485 75.3148 75.87 74.8126 76.8842C73.8374 78.8491 72.3698 80.0924 70.6048 80.4484C69.9905 80.5751 68.8739 80.5312 68.3083 80.3606C67.772 80.1997 67.3917 80.029 66.9968 79.7706C66.2069 79.2587 65.7291 78.7321 65.1293 77.7326C63.847 75.5775 62.594 74.6365 60.7217 74.4268C59.9854 74.3488 59.5369 74.105 59.2248 73.6321C58.8835 73.1104 58.6934 72.4326 58.5958 71.4087C58.5373 70.7651 58.5958 69.8631 58.7519 68.966C59.0688 67.1619 59.0737 65.9186 58.7762 64.7387C58.5276 63.7538 58.1424 63.0322 57.3867 62.1155C56.5675 61.1258 56.2652 60.3944 56.2604 59.429C56.2604 58.839 56.3823 58.254 56.6212 57.7371C56.8211 57.3032 58.7616 53.9048 59.7319 52.286C62.2722 48.049 64.1981 45.4502 66.6506 42.9587C68.0889 41.496 68.4058 41.2668 70.4342 40.2137C70.9997 39.9163 71.58 39.5993 71.7262 39.5018C71.8725 39.4092 72.0041 39.3263 72.0236 39.3263C72.0432 39.3214 72.0724 39.4043 72.087 39.5018ZM83.0428 46.8983C85.2954 47.4688 86.8947 49.4922 86.8264 51.6814C86.8118 52.1836 86.7972 52.2422 86.6265 52.603C86.2072 53.4855 85.2028 54.1876 83.8717 54.5386C83.3841 54.6654 82.1652 54.719 81.6386 54.6313C79.898 54.3534 78.4645 53.1003 78.0842 51.5254C77.9769 51.0866 78.0062 50.0432 78.133 49.5605C78.3085 48.9023 78.7327 48.1612 79.1666 47.7467C79.6542 47.2835 80.3368 46.9373 81.0194 46.8057C81.5606 46.7033 82.4334 46.7423 83.0428 46.8983ZM110.191 47.2689C110.898 47.381 111.741 47.9417 112.385 48.7219C112.712 49.1217 112.804 49.2826 113.419 50.6137C115.335 54.7288 116.12 56.6011 116.876 58.8732C117.807 61.6572 118.314 64.1926 118.48 66.8889C118.529 67.6788 118.524 67.7324 118.412 68.2785C118.017 70.141 118.002 71.8573 118.338 76.1821C118.533 78.7418 118.563 79.6292 118.46 80.2533C118.046 82.7595 116.022 84.8024 113.385 85.3826C112.79 85.5094 111.771 85.524 111.02 85.407C109.976 85.2461 109.937 85.2461 107.582 85.2022C105.262 85.1535 104.964 85.1291 104.174 84.9145C103.965 84.856 103.589 84.7244 103.345 84.6171C102.526 84.2709 101.966 84.2466 101.093 84.5294C100.678 84.661 100.537 84.6854 100.074 84.6854C99.5814 84.6903 99.518 84.6805 99.2937 84.5586C98.7232 84.2563 98.4161 83.7346 98.0504 82.4474C97.6555 81.0724 97.0606 79.9413 95.7003 77.9666C94.6764 76.4795 94.5008 76.0797 94.457 75.1094C94.4277 74.4268 94.5057 73.949 94.7885 73.125C95.242 71.7988 95.9099 70.2337 97.0509 67.825C97.7335 66.3769 98.0504 65.6115 98.3088 64.7875C98.7866 63.2857 98.8939 61.8913 98.6355 60.5748C98.5087 59.9215 98.5136 59.8191 98.6599 59.5265C98.7915 59.2632 99.0109 59.0779 99.4644 58.8488C99.6106 58.7757 99.9081 58.6001 100.123 58.4587C101.361 57.6591 102.068 56.6888 102.37 55.387C102.492 54.8653 102.497 53.6902 102.375 52.9784C102.273 52.3933 102.297 52.1398 102.478 51.7643C102.712 51.2816 103.165 50.9696 104.291 50.5113C105.559 49.9896 106.212 49.5751 107.134 48.6877C107.89 47.9661 108.06 47.8247 108.484 47.5956C109.065 47.2786 109.596 47.1763 110.191 47.2689ZM98.6599 50.7014C99.0645 50.8136 99.674 51.111 100.035 51.3791C100.591 51.7936 101.059 52.4664 101.278 53.1685C101.439 53.7 101.439 54.6898 101.278 55.2164C100.917 56.3622 100.157 57.2398 99.0499 57.7761C98.3478 58.1174 97.9626 58.2003 97.124 58.2003C95.4711 58.2003 93.5354 57.547 92.3214 56.5816C91.3267 55.7917 91.1171 55.0603 91.5949 54.0511C91.8338 53.5391 92.1215 53.1539 92.6334 52.6712C93.711 51.6424 95.2956 50.8721 96.8071 50.638C97.2313 50.5698 98.3137 50.6088 98.6599 50.7014ZM93.1015 58.332C94.6715 58.9512 95.4029 59.1852 96.2317 59.3412C96.6023 59.4095 96.9875 59.4875 97.0899 59.5119C97.3434 59.5802 97.5921 59.8434 97.6847 60.1506C97.831 60.6431 97.7481 62.1058 97.5092 63.1931C97.2361 64.4705 96.9143 65.3238 96.027 67.1376C94.8275 69.5949 94.2473 70.8968 93.7597 72.2327C93.1161 74.0075 92.9991 75.2362 93.3502 76.4649C93.5208 77.0646 93.7744 77.5765 94.2863 78.3323C95.4077 79.9998 96.2122 81.5747 96.9777 83.5932C97.3629 84.6122 97.5677 85.0023 97.9139 85.3729C98.5965 86.1091 99.635 86.2212 101.161 85.7385C101.805 85.5289 101.98 85.5435 102.59 85.8361C103.462 86.2505 104.491 86.5284 105.657 86.6649C105.91 86.6942 107.197 86.7381 108.509 86.7625C111.054 86.8063 111.707 86.8551 112.702 87.0794C113.326 87.2208 113.916 87.4889 114.238 87.7766C114.594 88.0887 114.711 88.3617 114.872 89.2345C115.12 90.5704 115.437 91.5309 116.412 93.9054C117.388 96.2897 117.705 97.2746 117.919 98.6251C118.353 101.317 118.689 103.316 119.138 105.875C119.835 109.869 119.957 110.571 120.206 112.165C120.635 114.896 120.947 117.372 121.161 119.82C121.352 121.941 121.503 122.989 122.185 126.744C122.941 130.883 123.004 131.327 123.351 134.74C123.726 138.397 123.809 139.698 123.736 140.761C123.624 142.404 122.697 143.843 120.942 145.101C119.289 146.286 118.631 146.807 117.885 147.505L117.563 147.812L117.509 147.651C117.402 147.305 117.212 146.485 117.095 145.857C116.876 144.662 116.803 143.872 116.807 142.614C116.807 141.346 116.846 140.859 117.066 139.591C117.397 137.66 117.392 136.797 117.041 133.423C116.949 132.536 116.905 131.731 116.871 130.303C116.837 129.084 116.778 127.86 116.7 126.963C116.637 126.183 116.505 124.354 116.408 122.892C115.988 116.407 115.671 113.896 114.901 110.878C114.716 110.147 114.209 108.703 114.096 108.591C114.043 108.538 113.755 108.874 113.663 109.088C113.546 109.376 113.57 109.703 113.765 110.298C114.218 111.721 114.287 112.345 114.433 116.602C114.487 118.216 114.545 118.747 114.823 120.113C115.257 122.268 115.413 123.847 115.506 127.061C115.662 132.385 115.681 132.814 115.827 134.277C115.91 135.12 116.057 136.144 116.174 136.739C116.271 137.231 116.281 138.353 116.193 138.982C116.159 139.211 116.061 139.825 115.969 140.347C115.666 142.063 115.647 142.687 115.847 144.652C116.164 147.724 116.076 150.562 115.579 153.658C115.315 155.257 115.076 155.837 114.56 156.105C114.267 156.261 113.619 156.247 112.848 156.076C112.526 156.003 112.249 155.925 112.229 155.91C112.21 155.891 112.283 155.623 112.39 155.311C112.814 154.058 112.819 152.921 112.405 151.6C112.336 151.39 112.268 151.22 112.244 151.22C112.171 151.22 111.81 151.503 111.717 151.644C111.551 151.873 111.517 152.083 111.464 153.146C111.429 153.706 111.4 154.335 111.386 154.535C111.376 154.735 111.342 154.979 111.312 155.077C111.2 155.462 110.903 155.749 110.513 155.857C110.211 155.94 109.396 155.886 109.021 155.759C108.109 155.447 107.378 154.745 107.036 153.862C106.836 153.336 106.832 152.809 107.022 151.707C107.202 150.669 107.27 149.484 107.173 149.016C107.032 148.348 106.563 148.143 106.222 148.602C106.13 148.723 106.115 148.836 106.086 149.577C106.061 150.337 106.037 150.493 105.856 151.22C105.744 151.664 105.642 152.171 105.627 152.351C105.598 152.648 105.583 152.683 105.491 152.683C105.291 152.678 104.969 152.488 104.618 152.161C104.418 151.98 103.906 151.571 103.472 151.249C102.619 150.625 102.18 150.201 101.995 149.825C101.902 149.64 101.873 149.489 101.863 149.143C101.839 148.602 101.946 148.138 102.409 146.695C102.873 145.257 102.951 144.828 102.951 143.662C102.951 142.843 102.936 142.643 102.838 142.205C102.638 141.312 102.248 140.376 101.751 139.591C101.449 139.108 101.312 138.772 101.283 138.406C101.249 137.977 101.332 137.68 101.702 136.968C102.361 135.681 102.736 134.164 102.873 132.204C102.902 131.814 102.946 131.156 102.975 130.742C103.004 130.327 103.102 129.294 103.194 128.45C103.467 125.978 103.472 125.846 103.487 123.526C103.497 121.278 103.516 121 103.726 119.552C103.838 118.762 103.862 118.221 103.804 117.65C103.657 116.183 103.136 114.881 102.156 113.53C101.761 112.989 101.22 112.36 101.146 112.36C101.054 112.36 100.795 112.687 100.766 112.838C100.732 113.009 100.791 113.14 101.117 113.652C101.834 114.759 102.258 115.9 102.473 117.285C102.609 118.172 102.59 119.859 102.424 121.429C102.214 123.438 102.107 125.291 102 128.938C101.922 131.527 101.858 132.039 101.268 135.057C101.059 136.129 100.869 137.109 100.854 137.236C100.834 137.368 100.8 137.47 100.781 137.47C100.664 137.47 99.5863 135.72 99.084 134.711C98.3332 133.209 97.9139 132.053 97.2459 129.62C96.7291 127.753 96.4024 126.734 95.9051 125.447C94.8031 122.619 94.3253 120.61 93.6671 115.993C93.3941 114.101 93.2136 113.521 92.6773 112.828C92.4628 112.545 91.7217 111.892 91.6778 111.941C91.668 111.951 91.7509 112.394 91.8582 112.926C91.9655 113.462 92.2726 115.081 92.5408 116.529C93.3648 121.015 93.8134 123.053 94.418 125.027C94.7203 126.027 95.7393 128.977 96.4024 130.79C97.8456 134.72 99.2303 137.773 100.693 140.24C101.249 141.176 101.498 141.658 101.639 142.068C101.78 142.473 101.902 143.209 101.902 143.638C101.902 144.052 101.78 144.784 101.634 145.271C101.303 146.378 101.142 147.027 100.849 148.465C100.469 150.362 100.391 150.649 100.142 151.122C99.7423 151.898 98.9524 152.6 98.104 152.936C97.714 153.092 96.9338 153.097 96.7827 152.946C96.6218 152.79 96.5877 152.527 96.6413 151.927C96.6706 151.634 96.6803 151.239 96.6608 151.059C96.6462 150.869 96.6559 150.537 96.6852 150.303C96.7583 149.786 96.7144 149.64 96.4658 149.538C96.2512 149.445 96.0806 149.445 95.8807 149.543C95.6076 149.669 95.554 149.86 95.5052 150.854C95.4565 151.907 95.3687 152.502 95.1688 153.097C94.7788 154.262 94.0181 154.994 92.8821 155.301C92.414 155.432 90.8879 155.428 90.6295 155.301C90.2589 155.116 90.2736 155.228 90.2589 152.619C90.2541 151.342 90.2346 150.293 90.2151 150.293C90.2004 150.293 90.0834 150.371 89.9566 150.464C89.4544 150.835 89.1717 151.273 89.0888 151.829C89.0644 151.99 89.0546 152.595 89.0644 153.17C89.1034 154.862 88.9425 155.55 88.4549 155.842C88.2355 155.969 88.2014 155.974 87.5919 155.969C86.5583 155.959 85.5831 155.72 85.2369 155.398C84.8761 155.067 84.8566 154.608 85.1443 153.594C85.3686 152.809 85.4661 152.171 85.5051 151.244C85.5538 149.981 85.4125 148.758 84.9541 146.539C84.2959 143.35 84.1886 142.707 84.1058 141.454C84.0716 140.917 84.0765 140.454 84.1106 139.942C84.1838 138.943 84.174 138.66 84.0521 138.27C83.9205 137.836 83.7108 137.431 83.155 136.49C79.2983 130.02 76.9872 124.715 75.7438 119.498C75.5196 118.562 75.3245 117.972 74.7394 116.48C74.0861 114.813 74.0422 114.618 74.0373 113.677C74.0373 112.867 74.052 112.799 74.3543 112.048C74.7248 111.112 74.9296 109.898 74.8711 108.928C74.8223 108.011 74.6517 107.236 74.2762 106.183C73.7984 104.827 73.6473 104.013 73.6473 102.731C73.6473 101.638 73.7009 101.287 73.9983 100.322C74.3006 99.337 74.3591 99.0347 74.3884 98.1717C74.4225 97.138 74.3153 96.3579 73.9349 94.8757C73.7838 94.2857 73.5644 93.4471 73.4522 93.0034C73.0476 91.448 72.8964 90.1755 72.8818 88.2252C72.8574 85.8312 72.9257 81.0334 72.9793 80.9311C73.0086 80.8823 73.345 80.5312 73.7253 80.1558C75.1929 78.7028 76.1144 77.3035 76.6361 75.7189C76.9189 74.8705 77.1334 73.7003 77.1334 73.0177V72.7495L77.4406 73.2713C78.7522 75.5336 80.327 76.7428 82.5211 77.1914C82.8771 77.2645 83.1891 77.2791 84.1789 77.2791C85.2613 77.2742 85.4563 77.2645 85.9098 77.167C87.3823 76.8452 88.45 76.2845 89.3959 75.3337C90.9318 73.7832 91.6534 71.8232 91.9898 68.2834C92.0922 67.1717 92.1069 63.4174 92.0142 61.9693C91.8972 60.2091 91.7607 58.3125 91.7314 58.0492C91.707 57.8103 91.7119 57.7908 91.7899 57.82C91.8387 57.8395 92.4287 58.0687 93.1015 58.332ZM73.5595 116.773C73.618 116.841 73.6912 116.987 73.7204 117.104C73.7545 117.216 73.9154 117.723 74.0861 118.235C74.2567 118.742 74.5542 119.742 74.7443 120.454C75.6707 123.901 75.9242 124.696 76.641 126.412C77.3431 128.104 77.7819 129.069 78.601 130.737C79.6493 132.872 80.2149 133.911 81.6728 136.373C82.1457 137.178 82.6235 138.158 82.8332 138.748C83.1111 139.542 83.1355 139.815 83.1013 141.42C83.0477 143.697 83.1794 144.647 83.94 147.495C84.291 148.821 84.3349 149.211 84.1496 149.411C83.9253 149.65 83.5889 149.669 82.6918 149.489C81.4826 149.245 80.3417 149.274 78.3036 149.611C75.227 150.118 73.8179 150.074 71.7994 149.411C70.2489 148.904 68.0645 147.67 67.2357 146.837C66.8651 146.461 66.5531 145.905 66.397 145.335C66.3093 145.008 66.2946 144.823 66.2898 144.028C66.2898 143.248 66.3141 142.921 66.4507 141.956C66.5336 141.327 66.6701 140.513 66.7481 140.152C66.9529 139.216 66.9919 138.923 66.9919 138.367C66.9919 136.188 67.6794 133.755 69.0836 130.951C69.8491 129.415 70.1904 128.538 70.517 127.256C70.912 125.72 71.0875 124.169 71.0875 122.268C71.0875 120.61 71.3362 119.391 71.892 118.284C72.2236 117.626 72.7745 116.807 72.9598 116.695C73.1548 116.568 73.4132 116.602 73.5595 116.773Z" fill="white"/>
<path d="M93.4918 31.0145C90.9564 32.3748 89.8008 33.3061 89.2109 34.4422C88.5331 35.7488 88.577 37.0458 89.3815 39.469C89.6643 40.3223 89.6838 40.3954 89.6838 40.8586C89.6887 41.317 89.6789 41.3706 89.5278 41.6729C89.3328 42.0776 89.05 42.3311 88.5234 42.5944C88.1382 42.7797 87.5336 42.9552 87.0704 43.0088C86.7389 43.043 86.5926 43.1795 86.5926 43.4428C86.5926 43.906 86.9583 44.101 87.8895 44.1351C88.3869 44.1595 88.5331 44.1449 88.8598 44.0571C89.4352 43.8962 89.7813 43.6914 90.225 43.2477C90.815 42.6627 91.1075 42.0044 91.205 41.0732C91.2538 40.571 91.1514 39.9761 90.8589 39.1131C90.4152 37.8162 90.3274 37.4017 90.3225 36.6655C90.3225 35.9097 90.4103 35.5831 90.7809 35.0175C91.2197 34.3446 92.2095 33.4182 93.248 32.7015C94.1402 32.0823 94.5011 31.6971 94.6912 31.1413C94.8424 30.7025 94.8326 30.6829 94.4425 30.6244C94.2963 30.6001 94.1646 30.6537 93.4918 31.0145Z" fill="#62B2AE"/>
<path d="M79.9663 30.9365C79.82 30.9901 79.5469 31.1266 79.3568 31.2387C78.4743 31.7605 78.0598 32.4626 78.1183 33.3451C78.1622 34.0033 78.4548 34.4129 79.2836 34.9589C79.5469 35.1345 79.8541 35.3636 79.9663 35.4758C80.2393 35.7488 80.5123 36.1876 80.6196 36.5241C80.6927 36.763 80.6976 36.8361 80.6489 37.0263C80.5611 37.3578 80.3222 37.7137 79.6883 38.4695C78.133 40.3174 78.0745 40.41 78.2305 40.8196C78.3231 41.0634 78.5328 41.1999 78.7278 41.1511C78.9423 41.0975 80.9365 39.5763 81.351 39.1521C82.0238 38.4646 82.3359 37.7722 82.3846 36.8849C82.4139 36.3193 82.3261 35.8951 82.0775 35.4221C81.7459 34.7932 81.2535 34.3105 80.3758 33.7644C79.7176 33.3548 79.5226 33.1549 79.5226 32.8916C79.5226 32.643 80.1028 32.2041 80.7171 31.9799C80.8878 31.9165 81.0487 31.8238 81.1023 31.7458C81.1852 31.6386 81.1901 31.5996 81.1413 31.4338C80.9804 30.9023 80.5562 30.7219 79.9663 30.9365Z" fill="#62B2AE"/>
<path d="M101.488 37.2783C100.796 37.3709 100.406 37.5952 100.186 38.0194C100.103 38.1852 100.094 38.2729 100.118 38.5362C100.206 39.4675 100.206 40.2866 100.123 40.6572C99.9424 41.4861 99.4304 42.1979 98.6601 42.7099C98.1433 43.0561 97.6752 43.2657 96.8122 43.5388C96.0467 43.7825 95.7883 43.9239 95.0667 44.4993C94.0476 45.3087 93.8185 45.8255 94.1451 46.5666C94.2427 46.786 94.2524 46.7909 94.3548 46.7226C94.623 46.5471 95.7151 45.9279 96.2612 45.6402C97.0267 45.2306 97.7434 44.9186 98.6845 44.5627C100.669 43.8215 101.415 43.1828 101.766 41.92C101.863 41.5787 101.873 41.4032 101.883 40.194C101.888 39.3115 101.912 38.8093 101.946 38.741C102.034 38.5801 102.224 38.5655 102.614 38.6776C103.039 38.8044 103.16 38.8093 103.302 38.7118C103.433 38.6191 103.531 38.2973 103.487 38.1023C103.39 37.6537 102.834 37.288 102.195 37.2539C101.995 37.2393 101.678 37.2539 101.488 37.2783Z" fill="#62B2AE"/>
<path d="M82.8624 65.4916C82.0189 65.6086 81.1023 66.1059 80.6537 66.691C80.1905 67.2859 80.054 67.8661 80.171 68.6803C80.4782 70.7574 81.9311 72.7418 83.1501 72.7418C83.9253 72.7369 84.9346 72.1421 85.9585 71.0792C87.0507 69.948 87.5968 68.8315 87.47 67.9928C87.2798 66.7593 86.0414 65.789 84.3154 65.5306C83.8717 65.4623 83.1988 65.4477 82.8624 65.4916Z" fill="white"/>
<path d="M67.5476 48.8181C65.6753 49.4666 65.1487 51.685 66.5139 53.1478C66.8796 53.5378 67.1917 53.7621 68.0888 54.2887C70.1561 55.4979 70.6291 55.9854 70.6876 56.9655C70.7119 57.453 70.6632 57.9016 70.4292 59.1839C70.2488 60.164 70.2292 60.4419 70.3073 60.7344C70.3658 60.9392 70.473 61.0172 70.6876 61.0172C71.7554 61.0172 72.906 59.0182 73.0231 56.9703C73.0864 55.7465 72.8085 55.1176 71.7505 54.1034C71.0337 53.4208 70.1659 52.8893 68.9908 52.4115C68.0352 52.0215 67.8304 51.8947 67.6451 51.5778C67.3526 51.0756 67.6402 50.4563 68.4301 49.9005C68.7568 49.6713 68.825 49.5251 68.7226 49.2813C68.513 48.784 68.1083 48.6279 67.5476 48.8181Z" fill="#62B2AE"/>
<path d="M62.6234 62.8324C62.3259 63.0323 61.7701 63.7637 61.6531 64.105C61.5214 64.4853 61.4922 65.9919 61.6043 66.4307C61.8091 67.2255 62.165 67.6156 63.0037 67.9666C64.3884 68.5468 65.2173 69.2733 65.7731 70.4045C66.1827 71.2334 66.3582 71.9988 66.4801 73.4762C66.5386 74.1978 66.5678 74.3831 66.6605 74.5684C66.9433 75.1242 67.8355 75.1632 68.1817 74.6366C68.3134 74.4416 68.4548 73.954 68.562 73.3543C68.601 73.1349 68.6254 72.6181 68.6254 72.0622C68.6254 71.2724 68.6059 71.0627 68.5133 70.6288C68.0598 68.6053 66.9091 67.2401 65.1149 66.5965C64.4323 66.3527 64.1544 66.2113 63.8813 65.9675C63.3255 65.4653 63.2328 64.5682 63.6521 63.6906C63.9106 63.1591 63.8764 62.9348 63.5156 62.7691C63.1938 62.6277 62.9013 62.6472 62.6234 62.8324Z" fill="#62B2AE"/>
<path d="M80.6099 49.0301C80.2978 49.152 79.9711 49.4592 79.82 49.781C79.6591 50.1126 79.625 50.7464 79.742 51.1511C79.9663 51.9263 80.4295 52.4334 81.0926 52.6431C81.312 52.7065 81.5363 52.7308 82.0092 52.7308C82.6089 52.7308 82.643 52.726 82.7844 52.6089C82.9648 52.4529 83.0331 52.1604 83.0429 51.5119C83.0477 50.9853 82.9551 50.5758 82.7308 50.1223C82.2335 49.113 81.4436 48.7083 80.6099 49.0301ZM81.9263 50.7025C82.1994 50.8195 82.3164 50.9902 82.3408 51.312C82.3603 51.5948 82.3554 51.6045 82.1652 51.8142C81.9751 52.019 81.9556 52.0239 81.6728 52.0239C81.3949 52.0239 81.3656 52.0092 81.1998 51.8434C81.0438 51.6923 81.0145 51.624 80.995 51.4046C80.9804 51.1901 80.995 51.117 81.0926 50.9756C81.2145 50.7903 81.4777 50.6343 81.6581 50.6343C81.7167 50.6343 81.8385 50.6635 81.9263 50.7025Z" fill="#62B2AE"/>
<path d="M107.344 53.2454C107.066 53.3478 106.754 53.6209 106.442 54.0402C106.115 54.4839 105.92 54.8983 105.822 55.3712C105.618 56.3415 106.149 57.302 107.236 57.9213C108.114 58.4235 108.558 58.7404 109.021 59.2085C109.937 60.1251 110.498 61.1831 111.044 62.992C111.288 63.8063 111.298 63.9038 111.147 64.3036C110.917 64.9082 111 65.1032 111.512 65.152C112.19 65.2154 112.648 64.8204 112.882 63.9623C112.97 63.6356 112.985 63.4357 112.99 62.6751C112.995 61.895 112.98 61.7048 112.882 61.2612C112.575 59.8862 111.961 58.7745 111.005 57.8579C110.464 57.3411 109.889 56.9705 109.123 56.6389C107.977 56.1416 107.704 55.893 107.704 55.3517C107.704 55.0738 107.87 54.6643 108.138 54.2693C108.353 53.9622 108.431 53.6404 108.338 53.4697C108.182 53.1967 107.748 53.0943 107.344 53.2454Z" fill="#62B2AE"/>
<path d="M102.156 65.6428C101.366 65.872 100.649 66.3888 100.347 66.9593C100.088 67.4517 100.04 67.6565 100.015 68.4854C99.9909 69.168 100.001 69.285 100.093 69.5873C100.293 70.2553 100.708 70.7087 101.463 71.0842C102.214 71.4596 102.775 71.9277 103.272 72.5859C103.809 73.2929 104.423 74.741 104.613 75.7307C104.73 76.35 104.842 76.4719 105.266 76.4719C105.866 76.4719 106.081 76.1549 106.246 75.014C106.437 73.6829 105.959 72.0691 105.032 70.9038C104.52 70.265 104.14 69.953 103.194 69.3874C102.351 68.8901 102.048 68.5732 102.048 68.1831C102.048 67.8905 102.365 67.4712 102.848 67.1251C103.565 66.6131 103.677 66.2767 103.282 65.8427C103.014 65.5404 102.707 65.4868 102.156 65.6428Z" fill="#62B2AE"/>
<path d="M110.577 71.2535C110.089 71.4144 109.772 71.9458 109.952 72.2969C109.982 72.3554 110.211 72.5992 110.46 72.8429C111.186 73.5548 111.547 74.1935 111.591 74.8664C111.639 75.5344 111.376 76.1877 110.791 76.8654C110.045 77.7382 109.606 78.65 109.358 79.8738C109.245 80.4296 109.255 80.7222 109.397 80.9611C109.484 81.1122 109.787 81.3024 109.938 81.3024C110.094 81.3024 110.303 81.0927 110.499 80.7319C110.601 80.5515 110.864 80.1712 111.084 79.8884C111.615 79.2058 113.097 77.1531 113.302 76.8167C113.39 76.6704 113.517 76.3681 113.59 76.1438C113.707 75.7635 113.712 75.7001 113.687 74.9736C113.663 74.0911 113.575 73.7108 113.253 73.0965C112.912 72.4383 112.117 71.6874 111.444 71.3802C111.147 71.2437 110.776 71.1901 110.577 71.2535Z" fill="#62B2AE"/>
<path d="M95.9102 53.3648C95.1545 53.5257 94.5207 53.8914 94.0867 54.4228C93.721 54.8763 93.6138 55.0664 93.6138 55.2663C93.6138 55.4126 93.6674 55.4857 94.0721 55.8855C94.6182 56.4267 94.9741 56.6218 95.5007 56.6657C96.5831 56.7534 97.7045 55.9002 97.7923 54.9201C97.8459 54.3594 97.5046 53.7305 97.017 53.4915C96.7245 53.3501 96.2467 53.2965 95.9102 53.3648ZM95.5836 54.5057C96.0614 54.7056 96.1394 55.3736 95.725 55.6905C95.5836 55.8026 95.4958 55.827 95.2959 55.827C94.979 55.8221 94.7791 55.6856 94.6621 55.4028C94.428 54.8129 94.9936 54.257 95.5836 54.5057Z" fill="#62B2AE"/>
<path d="M80.7853 80.4448C80.1271 80.713 79.386 81.5906 79.1081 82.4293C78.6595 83.7701 79.1715 85.0963 80.4733 85.9593C80.956 86.2811 81.3948 86.4664 82.1993 86.6955C84.6811 87.3977 86.2364 88.6215 87.2555 90.6888C87.5431 91.2836 87.9283 92.3855 88.0014 92.8585C88.0648 93.2437 88.1526 93.3802 88.3866 93.4387C88.7767 93.546 89.196 93.2876 89.3667 92.839C89.5178 92.4294 89.5812 91.8443 89.5519 91.1325C89.5129 90.1281 89.313 89.3675 88.8547 88.4703C88.0307 86.8564 86.3973 85.5107 84.4227 84.8135C84.1837 84.7306 83.5694 84.5502 83.0672 84.4234C81.1852 83.931 81.0535 83.697 81.7117 81.9271C81.8483 81.5614 81.9701 81.1762 81.9848 81.0738C82.0238 80.8056 81.8921 80.5765 81.6191 80.4351C81.3461 80.2986 81.1315 80.2986 80.7853 80.4448Z" fill="#62B2AE"/>
<path d="M98.6552 90.6368C98.4504 90.7587 98.2944 91.0025 98.2944 91.1975C98.2944 91.3876 98.1432 91.8898 98.0018 92.1726C97.5776 93.0113 97.0364 93.3867 95.2226 94.0986C94.1353 94.5228 93.7794 94.6983 93.1846 95.0981C92.1022 95.8197 91.3464 96.8582 91.0344 98.0382C90.854 98.7305 90.8101 99.3546 90.8783 100.413C90.9905 102.265 91.1026 102.851 91.5024 103.679C91.8584 104.421 92.424 104.908 93.1456 105.103C93.3504 105.157 93.3942 105.152 93.5503 105.069C93.794 104.937 93.9208 104.747 93.9208 104.523C93.9159 104.421 93.8282 103.928 93.716 103.431C92.9798 100.086 93.0822 98.828 94.1987 97.6822C94.7789 97.0874 95.5201 96.5998 97.2266 95.6978C98.2797 95.1468 98.3334 95.1078 98.7624 94.6837C99.1427 94.3082 99.2403 94.1766 99.4353 93.7816C99.6839 93.2697 99.8595 92.6456 99.9716 91.8996C100.079 91.1536 99.9716 90.8221 99.5474 90.6173C99.2549 90.4759 98.9087 90.4808 98.6552 90.6368Z" fill="#62B2AE"/>
<path d="M111.381 91.9222C111.132 92.0392 110.971 92.2391 110.971 92.4292C110.971 92.5219 111.059 92.7071 111.215 92.9412C111.683 93.6433 111.756 94.2674 111.532 95.6131C111.464 96.0178 111.395 96.6077 111.381 96.9295C111.356 97.4415 111.366 97.5975 111.478 98.1485C111.644 98.953 111.873 99.621 112.146 100.104C112.551 100.811 113.414 101.596 113.955 101.737C114.258 101.82 114.579 101.727 114.828 101.488C115.052 101.274 115.077 101.084 114.921 100.635C114.769 100.196 114.545 99.3284 114.414 98.6604C114.199 97.5878 114.131 96.9003 114.092 95.2718C114.067 94.282 114.033 93.6384 113.994 93.5165C113.716 92.6096 112.829 91.8831 111.946 91.849C111.664 91.8344 111.537 91.8539 111.381 91.9222Z" fill="#62B2AE"/>
<path d="M105.622 97.3426C105.042 97.601 104.242 98.7273 103.945 99.683C103.804 100.141 103.794 100.863 103.921 101.341C104.125 102.092 104.633 102.75 105.32 103.145C106.315 103.72 106.807 104.13 107.314 104.807C107.933 105.641 108.67 107.406 108.826 108.459C108.86 108.659 108.918 108.898 108.957 108.986C109.157 109.415 109.772 109.386 110.215 108.927C110.415 108.723 110.488 108.606 110.591 108.289C111.069 106.85 110.688 104.788 109.664 103.242C109.118 102.423 108.558 101.872 107.685 101.302C107.105 100.926 106.817 100.668 106.641 100.37C106.524 100.175 106.51 100.097 106.515 99.7561C106.519 99.4148 106.544 99.3027 106.729 98.8541C106.992 98.2202 107.022 97.8546 106.832 97.5913C106.597 97.2646 106.042 97.1525 105.622 97.3426Z" fill="#62B2AE"/>
<path d="M80.9466 98.9022C80.6101 99.0728 80.0592 99.5653 79.7374 99.9846C79.4351 100.375 79.1572 100.989 79.0548 101.486C78.8256 102.642 79.2596 103.91 80.2591 104.972C81.9705 106.801 82.6433 108.254 82.6433 110.126C82.6433 110.419 82.6628 110.662 82.6921 110.677C82.7847 110.736 82.7408 111.053 82.5946 111.384C82.419 111.784 82.4142 111.828 82.5653 111.998C82.6628 112.115 82.7213 112.135 82.9993 112.154C83.4137 112.179 83.6136 112.111 83.9305 111.818C84.3255 111.457 84.6668 110.721 84.8618 109.799C84.9593 109.336 84.9593 108.064 84.8569 107.396C84.7789 106.859 84.5839 106.182 84.3693 105.694C84.0427 104.958 83.3162 104.08 82.5702 103.524C81.7121 102.886 81.3464 102.388 81.2928 101.793C81.244 101.262 81.4927 100.579 81.9217 100.067C82.2289 99.692 82.3215 99.4921 82.2484 99.3069C82.1753 99.1118 82.0144 98.9509 81.7901 98.8485C81.5122 98.7169 81.2879 98.7315 80.9466 98.9022Z" fill="#62B2AE"/>
<path d="M83.0286 118.176C82.6824 118.323 82.4435 118.503 82.1704 118.839C81.7023 119.415 81.5024 119.99 81.5024 120.746C81.5073 121.17 81.5268 121.326 81.639 121.648C81.9851 122.662 82.7165 123.437 83.8623 124.013C84.0378 124.1 84.3645 124.291 84.5937 124.442C86.5878 125.734 87.7483 127.669 87.9872 130.088C88.0457 130.717 88.1968 130.892 88.66 130.897C89.1574 130.902 89.4792 130.658 89.7425 130.088C89.9814 129.566 89.9814 128.81 89.7327 127.523C89.4109 125.822 88.738 124.495 87.6849 123.476C87.1486 122.955 86.5683 122.569 85.6176 122.087C84.7448 121.643 84.3645 121.365 84.111 120.985C83.7989 120.517 83.7794 119.995 84.0476 119.21C84.1792 118.83 84.1939 118.742 84.15 118.586C84.0963 118.391 83.8916 118.211 83.6234 118.118C83.3991 118.045 83.3406 118.05 83.0286 118.176Z" fill="#62B2AE"/>
<path d="M109.679 118.465C109.387 118.568 109.162 118.86 109.021 119.309C108.933 119.591 108.533 120.376 108.28 120.771C108.158 120.957 107.846 121.395 107.587 121.747C107.066 122.444 106.695 123.141 106.525 123.746C106.422 124.106 106.412 124.223 106.417 125.379C106.417 126.486 106.427 126.661 106.52 126.988C106.773 127.895 107.129 128.597 107.753 129.387C108.119 129.855 109.908 131.664 110.147 131.81C110.386 131.956 110.591 131.942 110.791 131.766C111.044 131.547 111.083 131.4 111.054 130.825C111.015 130.035 110.791 129.499 109.991 128.246C109.45 127.393 109.065 126.622 108.899 126.037C108.728 125.457 108.689 124.755 108.797 124.258C108.904 123.755 109.235 123.092 109.611 122.634C110.24 121.859 110.401 121.644 110.557 121.332C110.801 120.849 110.927 120.386 110.957 119.869C111.001 119.153 110.84 118.738 110.44 118.533C110.255 118.436 109.855 118.397 109.679 118.465Z" fill="#62B2AE"/>
<path d="M106.651 136.496C106.408 136.574 106.105 136.905 106.022 137.198C105.964 137.393 105.959 137.5 105.998 137.695C106.052 137.949 106.154 138.114 106.656 138.773C107.027 139.26 107.339 139.87 107.441 140.328L107.519 140.689L107.339 141.625C107.207 142.293 107.115 142.649 107.017 142.844C106.837 143.2 106.837 143.38 107.003 143.512C107.305 143.751 107.788 143.765 108.163 143.546C108.616 143.278 109.236 142.478 109.504 141.8C109.733 141.235 109.826 140.703 109.821 139.957C109.821 138.704 109.46 137.949 108.494 137.173C107.768 136.588 107.12 136.349 106.651 136.496Z" fill="#62B2AE"/>
<path d="M89.1039 136.558C88.8406 136.627 88.3141 137.153 88.1385 137.524C87.9337 137.958 87.7924 138.567 87.7875 139.006C87.7875 139.796 88.1824 140.625 88.8894 141.303C89.3575 141.746 89.728 142.005 90.5667 142.468C90.9421 142.673 91.3858 142.941 91.5516 143.058C92.1318 143.472 92.4633 143.989 92.6096 144.706C92.6535 144.92 92.712 145.12 92.7412 145.159C92.8192 145.247 93.102 145.237 93.3019 145.145C93.5409 145.032 93.8383 144.672 93.9358 144.384C94.0382 144.077 94.0089 143.643 93.8627 143.267C93.5457 142.448 92.4974 141.273 91.2493 140.347C90.4594 139.757 90.1522 139.46 89.9767 139.094C89.8597 138.86 89.8499 138.792 89.8694 138.431C89.8889 138.138 89.9279 137.943 90.0254 137.714C90.1278 137.485 90.1571 137.348 90.1376 137.212C90.0742 136.758 89.572 136.437 89.1039 136.558Z" fill="#62B2AE"/>
<path d="M73.5836 132.186C73.4666 132.308 73.4374 132.381 73.413 132.679C73.3447 133.415 73.0132 133.976 72.3013 134.561C70.7362 135.853 70.0975 136.691 69.9122 137.701C69.7806 138.403 70.1901 139.69 70.8825 140.763C71.9064 142.357 73.3398 143.547 74.5149 143.786C75.2024 143.922 75.6558 143.722 75.7485 143.244C75.7875 143.035 75.6997 142.898 75.4023 142.684C75.2804 142.596 75.1049 142.42 75.0171 142.299C74.9293 142.177 74.6612 141.86 74.4223 141.592C73.5544 140.616 72.8181 139.632 72.5549 139.081C72.394 138.749 72.3793 138.676 72.3793 138.3C72.3793 137.945 72.3988 137.847 72.5158 137.613C72.7255 137.203 73.0619 136.784 73.8177 135.985C74.198 135.58 74.5929 135.122 74.7002 134.961C75.0951 134.361 75.178 133.698 74.944 133.079C74.7148 132.474 74.3589 132.118 73.9444 132.074C73.7494 132.05 73.7104 132.064 73.5836 132.186Z" fill="#62B2AE"/>
</svg>
