<svg width="181" height="181" viewBox="0 0 181 181" fill="none" xmlns="http://www.w3.org/2000/svg">
<circle cx="90.9209" cy="90.7012" r="88.5" stroke="white" stroke-width="3"/>
<path d="M120.302 23.2918C118.885 23.5088 117.504 23.9791 115.961 24.7628C112.543 26.499 109.625 28.7839 107.78 31.1592C107.165 31.955 106.954 32.166 106.592 32.3408L106.255 32.5096H102.909C100.015 32.5096 99.4665 32.5277 98.8395 32.6181C97.9051 32.7568 97.055 32.9316 96.4401 33.1185C95.8011 33.3114 95.5238 33.3054 95.1379 33.0944C94.9691 33.004 94.1432 32.3167 93.3052 31.5692C90.1462 28.7296 88.5606 27.4636 87.0535 26.5714C84.1597 24.8593 81.6096 24.7387 78.7641 26.1795C76.2742 27.4335 74.0316 29.4893 72.6269 31.7862C71.174 34.1796 69.6668 38.5443 68.5756 43.536C68.0089 46.1223 67.605 48.5639 66.6766 54.9664C65.8025 61.0011 65.5794 62.3877 65.079 64.8835C64.5364 67.5783 64.452 68.2174 64.4098 69.7185L64.3797 70.882L64.5304 71.0328C64.6932 71.1955 65.0187 71.2377 65.2418 71.1172C65.3985 71.0328 65.718 70.3334 66.0195 69.3809C66.4174 68.139 66.6585 67.5663 66.978 67.0599C67.1468 66.8006 67.2976 66.6017 67.3156 66.6198C67.3337 66.6379 67.3036 66.9453 67.2554 67.307C67.0082 69.0312 66.9298 70.8941 67.0383 72.4194C67.0745 72.98 67.1288 73.7939 67.1529 74.228C67.2011 75.084 67.2795 75.3312 67.5508 75.4518C67.9245 75.6266 68.3164 75.4699 68.4912 75.078C68.5515 74.9393 68.6299 74.5656 68.6661 74.2521C68.7324 73.6492 69.0338 71.9009 69.1845 71.2438C69.4016 70.2912 69.9562 68.9046 70.0527 69.0734C70.1853 69.3086 70.2275 70.4842 70.2637 74.4992C70.2817 77.0192 70.3239 78.9002 70.3601 79.0328C70.4747 79.4669 70.969 79.6477 71.2825 79.3644C71.4453 79.2137 71.6925 78.5445 71.8311 77.8632C71.8793 77.6221 71.9879 77.2001 72.0723 76.9288C72.1506 76.6515 72.3194 75.9763 72.434 75.4216C72.9102 73.2332 73.3383 71.714 73.5734 71.3885C73.6518 71.286 73.6638 71.292 73.7543 71.509C74.1461 72.4495 74.2124 72.8896 74.2727 75.0418C74.3029 76.0848 74.3571 77.1277 74.3933 77.3508C74.5018 78.0562 74.749 78.9725 74.8515 79.0871C75.0564 79.3161 75.4483 79.1895 75.6292 78.8399C75.6774 78.7434 75.8703 77.9235 76.0512 77.0192C76.2381 76.1149 76.431 75.1564 76.4913 74.8911L76.5877 74.4088L76.6299 74.7404C76.7867 75.9702 76.9133 79.6357 76.9374 83.3915L76.9555 86.3456L76.7927 86.6771C76.7023 86.858 76.4069 87.2499 76.1356 87.5513C73.8145 90.1014 72.3556 91.9341 70.8062 94.2431C66.7429 100.296 64.5063 106.783 64.1144 113.655C64.0541 114.747 63.9095 115.072 63.4151 115.277C63.2945 115.325 62.7519 115.428 62.2094 115.494C59.0865 115.892 57.0428 116.41 55.2523 117.267C54.2576 117.743 53.6848 118.099 52.6479 118.894C46.9629 123.217 43.0744 128.697 40.9101 135.449C40.0058 138.264 39.5416 140.646 39.632 142.05C39.6803 142.822 39.9274 144.046 40.0661 144.197C40.2048 144.353 40.2349 144.347 40.7413 144.088C41.3562 143.775 41.4286 143.823 41.724 144.673C41.8446 145.023 42.0917 145.631 42.2786 146.029C42.8272 147.217 42.8755 147.416 42.9116 148.411C42.9478 149.689 43.0322 149.803 44.4007 150.521C46.6494 151.702 47.0654 151.871 47.7466 151.859C47.9636 151.859 49.4829 151.841 51.1227 151.829C53.6065 151.811 54.2274 151.793 54.8303 151.702C56.0903 151.509 57.085 151.172 58.0436 150.599L58.6042 150.267L59.0986 150.298C59.3699 150.316 59.8642 150.37 60.1958 150.424C60.5274 150.478 61.7331 150.611 62.8785 150.726C65.296 150.973 66.4294 151.154 67.6412 151.485C69.3352 151.943 70.5108 152.052 72.0662 151.883C73.5071 151.726 73.8266 151.757 73.9653 152.07C74.0497 152.257 74.0497 152.806 73.9592 153.897C73.8809 154.879 73.917 155.169 74.122 155.38C74.2968 155.555 74.5802 155.567 75.2373 155.428C76.3285 155.205 77.9743 155.217 79.5116 155.464C79.9276 155.537 80.9344 155.735 81.7483 155.91C83.6292 156.32 84.0392 156.387 84.5878 156.356C85.4077 156.314 85.9502 155.94 86.8847 154.777C87.156 154.445 87.4695 154.09 87.59 153.999C88.0422 153.637 87.9879 153.644 90.2125 153.625C92.2321 153.607 92.2864 153.613 93.3534 153.782C95.4574 154.12 96.0362 154.168 98.1764 154.168C99.985 154.168 100.292 154.15 101.552 153.999C106.707 153.378 109.872 152.757 113.332 151.684C114.731 151.256 114.815 151.244 115.039 151.552C115.147 151.696 115.165 151.865 115.207 153.24C115.262 154.861 115.346 155.494 115.599 156.17C115.973 157.152 116.672 157.743 117.848 158.075C118.264 158.189 118.463 158.201 119.819 158.201C121.26 158.201 121.375 158.195 122.381 158.008C125.739 157.387 125.408 157.43 127.054 157.423C127.886 157.423 128.621 157.399 128.699 157.369C128.772 157.345 128.892 157.212 128.965 157.074C129.079 156.863 129.097 156.724 129.103 156.248C129.103 155.042 128.531 153.873 127.427 152.836C126.674 152.13 126.011 151.769 125.094 151.576C124.558 151.461 124.286 151.341 124.16 151.148C124.033 150.949 123.37 148.296 123.316 147.778C123.292 147.506 123.31 147.139 123.37 146.741C123.491 145.945 123.491 144.594 123.37 143.775C123.244 142.912 123.111 142.316 122.641 140.573C122.038 138.325 122.044 138.029 122.743 136.233C123.617 133.972 124.106 132.284 124.763 129.239C126.131 122.879 126.547 120.088 126.632 116.67C126.674 115.042 126.74 114.716 127.12 114.294C127.271 114.126 127.5 113.951 127.675 113.878C128.338 113.589 128.392 113.27 128.169 110.798C127.687 105.45 127.144 102.255 126.155 98.9756C125.968 98.3607 125.818 97.8121 125.818 97.7518C125.818 97.6915 125.89 97.2996 125.981 96.8776C126.125 96.1904 126.143 95.9854 126.143 94.8158C126.143 93.8512 126.107 93.1459 125.999 92.0728C125.86 90.7405 125.848 90.3908 125.854 87.6719C125.854 85.9778 125.884 84.2174 125.932 83.5422C126.011 82.2762 126.198 80.335 126.306 79.5995C126.366 79.1895 126.39 79.1413 126.505 79.1413C126.644 79.1413 127.017 79.491 127.138 79.7261C127.174 79.7984 127.235 80.0697 127.271 80.329C127.355 80.9258 127.458 81.173 127.657 81.2513C127.861 81.3297 128.29 81.2272 128.47 81.0584C128.76 80.7871 128.76 80.8112 128.766 76.4586C128.772 74.2099 128.784 72.353 128.796 72.341C128.844 72.2988 129.296 72.6243 129.465 72.8172C129.676 73.0765 129.779 73.2995 129.857 73.7215C129.941 74.1677 130.068 74.2822 130.436 74.24C130.629 74.2219 130.761 74.1616 130.888 74.0411C131.207 73.7336 131.256 73.4442 131.286 71.5693L131.316 69.8692L131.623 70.2129C132.003 70.6288 132.311 70.882 132.449 70.882C132.612 70.882 132.956 70.6228 133.046 70.4359C133.094 70.3274 133.149 69.8994 133.179 69.3508C133.203 68.8504 133.269 67.9642 133.317 67.3854C133.685 63.099 133.842 59.1141 133.842 54.0319C133.842 47.8164 133.565 42.3665 133.076 38.8397C132.564 35.1803 131.497 31.2798 130.4 29.0974C129.254 26.8186 127.687 25.1185 125.872 24.1659C125.118 23.7681 124.19 23.4546 123.358 23.3099C122.538 23.1712 121.133 23.1652 120.302 23.2918ZM105.001 33.4622C105.109 33.5164 105.23 33.6249 105.266 33.6973C105.381 33.9083 105.29 34.3966 105.019 35.0417C103.554 38.5142 103.252 39.5873 103.259 41.3717C103.259 42.7523 103.572 44.0907 104.199 45.417C104.772 46.6167 105.278 47.2738 106.918 48.9076C108.546 50.5413 109.263 51.4577 109.842 52.6453C110.445 53.8752 110.698 55.087 110.704 56.7147C110.71 58.5052 110.354 59.7712 109.498 61.0674C108.986 61.8511 107.979 62.7132 107.038 63.1834C105.791 63.8044 103.994 64.1058 102.366 63.9551C101.39 63.8647 100.974 63.7743 99.8162 63.4005C98.2186 62.888 97.1274 62.2611 96.1809 61.3266C95.2283 60.3861 94.6194 59.295 94.2999 57.9506C94.0889 57.0402 94.0769 55.6295 94.2758 54.6348C94.5833 53.0734 95.2283 51.6627 96.205 50.4147C96.6752 49.8119 97.7182 48.7629 99.0505 47.5572C100.136 46.5745 100.558 46.0862 100.865 45.4712C101.185 44.8201 101.281 44.3921 101.281 43.6566C101.281 42.1856 100.733 40.6785 99.569 38.9422C99.0807 38.2067 97.2962 35.7952 96.3617 34.6016C96.1748 34.3604 96.0302 34.1494 96.0482 34.1374C96.1387 34.0409 99.7438 33.5224 101.432 33.3597C101.564 33.3476 102.378 33.3416 103.24 33.3476C104.615 33.3536 104.832 33.3657 105.001 33.4622ZM108.455 34.6618C111.084 35.5239 113.031 36.6875 114.761 38.4117C115.931 39.5873 116.817 40.8292 117.613 42.4328C118.439 44.0907 118.915 45.5737 119.385 47.943C119.855 50.3062 120.072 51.8857 120.603 56.775C121.007 60.555 121.061 60.977 121.332 62.3515C121.742 64.4555 121.869 65.7999 121.742 66.7464L121.7 67.0297L121.031 66.3666C120.663 65.9988 120.175 65.5467 119.94 65.3598C117.89 63.72 115.298 62.6469 112.169 62.1405C111.735 62.0681 111.301 61.9777 111.192 61.9295C110.776 61.7547 110.704 61.3869 110.963 60.7117C111.705 58.7403 111.952 57.613 111.952 56.2143C111.952 55.0086 111.741 53.9596 111.271 52.7961C110.704 51.4034 109.95 50.3725 108.305 48.7267C106.562 46.9844 105.869 46.1223 105.266 44.9106C104.693 43.7712 104.476 42.7885 104.476 41.3416C104.476 39.4124 104.898 37.8992 106.08 35.5481C106.809 34.1072 106.785 34.1132 108.455 34.6618ZM95.4514 35.2707C95.5358 35.325 95.9397 35.8073 96.3617 36.3499C96.7837 36.8925 97.3806 37.6581 97.7001 38.056C99.4605 40.2745 100.317 42.0771 100.317 43.5782C100.317 44.79 99.8282 45.5918 98.1945 47.0206C95.6142 49.2874 94.4506 50.8548 93.7152 53.0432C93.3595 54.1163 93.2449 54.9845 93.2811 56.2625C93.3173 57.4622 93.4378 58.1194 93.8297 59.3372C93.9503 59.6989 94.0467 60.1088 94.0467 60.2475C94.0467 60.7298 93.7272 60.9589 92.7506 61.1759C90.0256 61.7848 87.7347 63.0568 85.5523 65.185C83.8824 66.8127 82.5018 68.6454 81.067 71.1352C80.5064 72.1119 80.44 72.2084 80.2893 72.2084C80.1929 72.2084 80.1205 72.1903 80.1205 72.1722C80.1205 72.0697 80.856 63.2437 80.9344 62.4419C80.9826 61.9295 81.1152 60.2716 81.2358 58.7644C81.9713 49.2874 82.526 46.1766 84.0211 43.1804C85.3474 40.5217 87.2102 38.689 90.2487 37.0492C91.2072 36.5307 92.9375 35.7772 94.2517 35.3009C94.7882 35.108 95.1922 35.1019 95.4514 35.2707ZM94.9691 61.8692C95.0837 61.9174 95.4333 62.1284 95.7468 62.3455C99.6413 65.0041 102.987 65.6853 106.369 64.5098C107.129 64.2445 108.039 63.8044 108.733 63.3643C109.583 62.8278 109.751 62.7735 110.595 62.7795C111.259 62.7856 111.409 62.8097 112.404 63.0689C114.809 63.7019 115.78 64.0455 117.136 64.7449C119.675 66.0471 121.357 68.0064 122.243 70.7012L122.496 71.4548L122.514 78.0562C122.532 84.8324 122.52 85.3086 122.285 87.4729C122.213 88.13 122.146 88.4375 121.947 89.0102C121.568 90.1014 121.622 90.5053 122.17 90.6982C122.713 90.8912 123.135 90.5536 123.69 89.4986C124.6 87.7683 124.6 87.7623 124.835 87.7623C124.974 87.7623 124.98 87.7744 124.932 88.0456C124.853 88.5038 124.889 90.5174 124.998 91.7714C125.112 93.0916 125.124 95.0871 125.028 95.5513C124.932 95.9974 124.727 96.3833 124.437 96.6425C124.112 96.9319 123.973 97.0042 123.195 97.2213C121.531 97.6975 120.856 98.3064 120.693 99.4519C120.627 99.9462 120.639 100.163 120.826 101.266C120.916 101.803 120.959 102.291 120.959 102.955C120.965 103.997 120.886 104.48 120.543 105.547C120.121 106.855 120.006 107.838 120.175 108.796C120.362 109.863 120.778 110.623 121.676 111.569C122.05 111.955 122.267 112.239 122.333 112.42C122.604 113.143 123.075 115.325 123.28 116.82C123.521 118.599 123.557 119.214 123.551 121.583C123.551 124.712 123.412 126.165 122.773 129.933C122.4 132.133 122.225 133.411 122.164 134.448C122.122 135.154 122.116 135.178 121.893 135.527C121.483 136.16 121.236 136.998 121.236 137.776C121.236 138.397 121.387 139.193 121.748 140.453C122.273 142.261 122.333 142.635 122.406 144.432C122.55 147.802 122.647 149.14 122.84 150.37C123.093 151.949 123.449 152.365 124.715 152.564C125.854 152.739 126.65 153.342 127.301 154.506C127.53 154.916 128.109 156.145 128.109 156.212C128.109 156.23 128.024 156.29 127.916 156.344C127.663 156.477 127.409 156.429 126.553 156.091C125.498 155.669 125.016 155.669 124.407 156.079C123.864 156.447 123.774 156.483 123.569 156.423C123.286 156.344 123.008 156.091 122.46 155.428C121.821 154.65 120.718 153.493 120.663 153.547C120.639 153.565 120.621 153.8 120.621 154.059C120.621 154.59 120.736 154.97 121.194 155.977C121.351 156.308 121.489 156.7 121.513 156.839L121.556 157.104L119.934 157.08C118.589 157.062 118.276 157.038 118.083 156.959C117.661 156.766 117.649 156.441 118.041 155.464C118.493 154.355 118.499 153.475 118.071 152.179C117.697 151.045 117.601 150.334 117.601 148.772C117.601 148.025 117.643 146.777 117.697 145.999C117.824 144.221 117.83 142.846 117.709 142.334C117.589 141.827 117.48 141.634 117.1 141.237C116.684 140.802 116.63 140.646 116.751 140.314C117.227 139.03 117.323 138.542 117.498 136.516C117.571 135.696 117.697 134.677 117.8 134.147C118.077 132.712 118.035 132.206 117.559 131.301C117.227 130.674 117.233 130.475 117.619 129.36C118.071 128.07 118.216 126.882 118.005 126.267C117.818 125.719 117.118 125.261 116.467 125.261C115.786 125.261 115.25 125.586 113.839 126.852L112.862 127.732L112.802 127.509C112.368 125.875 112.151 123.615 112.217 121.3C112.32 117.562 112.844 111.774 113.435 107.928C113.845 105.27 114.032 104.359 114.333 103.642C114.773 102.587 114.797 102.346 114.454 102.231C113.917 102.056 113.465 102.587 113.284 103.618C112.066 110.641 111.53 115.717 111.512 120.438C111.5 123.078 111.632 129.619 111.711 130.029C111.783 130.421 112.03 130.686 112.32 130.686C112.585 130.686 113.314 130.427 113.941 130.114C114.237 129.963 114.49 129.842 114.502 129.842C114.544 129.842 113.875 136.866 113.724 138.011C113.598 138.988 113.555 139.53 113.555 140.362C113.549 141.586 113.562 141.652 114.038 143.316C114.484 144.848 114.544 145.42 114.399 146.469C114.291 147.235 114.291 147.518 114.399 148.899C114.43 149.285 114.418 149.393 114.315 149.598C113.899 150.412 112.488 150.913 109.209 151.425C107.69 151.66 107.292 151.732 105.953 152.064C103.693 152.613 102.222 152.781 99.7137 152.781C97.8327 152.775 97.043 152.727 95.373 152.492C93.9563 152.299 92.3225 152.317 89.887 152.558C88.844 152.667 87.8372 152.763 87.6563 152.781C87.4755 152.799 87.2946 152.793 87.2585 152.769C87.1198 152.673 87.0053 152.335 86.734 151.274C86.2517 149.393 85.908 147.518 85.7151 145.728C85.6126 144.763 85.6126 141.303 85.7151 140.453C85.9382 138.662 86.3421 136.866 86.752 135.883C86.8847 135.564 87.2765 134.768 87.6202 134.123C88.3436 132.76 88.4642 132.495 89.0309 130.988C89.26 130.373 89.8387 128.896 90.309 127.702C91.5509 124.561 92.0995 123.084 92.6782 121.312C93.1485 119.871 93.3293 119.19 94.1311 115.91C94.2818 115.295 94.7159 113.734 95.0957 112.444C95.8131 109.99 95.9518 109.363 95.8855 108.845C95.8312 108.392 95.5418 107.826 95.2163 107.542C94.7822 107.163 94.4506 107.024 93.9503 107.024C93.5825 107.024 93.468 107.054 93.0761 107.247C92.835 107.374 92.4672 107.597 92.2683 107.747C91.2916 108.495 90.5863 108.73 88.8802 108.863C86.0467 109.086 84.7988 110.243 84.5154 112.89C84.425 113.764 84.3466 113.975 83.8342 114.765C83.2554 115.645 82.8214 116.531 82.6164 117.236C82.4777 117.725 82.4596 117.875 82.4838 118.382C82.5199 119.063 82.6586 119.461 83.1228 120.154C83.587 120.86 83.593 121.306 83.159 122.319C82.1703 124.628 82.2547 126.828 83.4122 129.143C83.7799 129.885 84.6902 131.283 85.1967 131.892C85.4921 132.242 85.5644 132.296 85.8839 132.386C86.0768 132.441 86.3662 132.567 86.523 132.67C87.2705 133.146 87.1982 133.658 86.2155 134.876C85.6609 135.564 85.5403 135.823 85.3353 136.836C85.2509 137.215 85.1183 137.854 85.0339 138.252C84.2321 141.96 84.437 146.15 85.6488 150.852C85.8357 151.588 85.8417 152.1 85.6729 153.017C85.6006 153.384 85.5463 153.915 85.5463 154.204C85.5463 154.928 85.5523 154.922 84.5817 154.922C83.8523 154.922 83.792 154.916 83.6413 154.777C83.4785 154.644 83.4725 154.608 83.4303 153.891C83.4061 153.481 83.3459 153.035 83.2976 152.896C83.165 152.54 82.96 152.148 82.8997 152.148C82.7912 152.148 82.5139 152.42 82.4355 152.607C82.3813 152.733 82.3511 153.035 82.3511 153.426C82.3511 154.156 82.2607 154.409 81.9291 154.578C81.7603 154.662 81.6337 154.68 81.3263 154.656C80.4581 154.584 79.8673 154.277 79.6141 153.764C79.3971 153.324 79.3911 152.552 79.6021 152.028C79.8854 151.335 79.8492 151.105 79.4272 150.961C79.1258 150.858 78.9148 150.9 78.7219 151.111C78.5229 151.322 78.4566 151.54 78.3421 152.42C78.1431 153.903 77.697 154.361 76.7023 154.108C76.0271 153.939 75.8944 153.939 75.5749 154.072L75.2795 154.204L75.3217 153.523C75.4664 151.142 75.9005 149.128 77.2569 144.492C77.9442 142.147 78.9088 138.379 79.1499 137.131C79.3187 136.257 79.3971 135.166 79.3368 134.515C79.3067 134.213 79.1378 132.989 78.951 131.784C78.6194 129.619 78.3601 127.666 78.2818 126.738C78.2396 126.225 78.125 125.785 77.9803 125.598C77.9201 125.52 77.7754 125.466 77.5282 125.429C76.9434 125.351 76.5335 125.086 76.3828 124.694C76.3405 124.579 76.3225 124.133 76.3345 123.458C76.3526 122.475 76.3405 122.379 76.226 122.126C76.0029 121.667 75.9607 121.414 75.8944 120.293C75.8161 118.84 75.7437 118.539 75.3941 118.213C75.1107 117.948 74.532 118.05 73.8567 118.472C73.7241 118.557 73.6035 118.629 73.5975 118.629C73.5855 118.629 73.5734 117.755 73.5674 116.682C73.5553 114.71 73.489 113.414 73.3322 112.058C73.284 111.642 73.2177 111.057 73.1876 110.75C73.1273 110.074 72.9766 109.713 72.5907 109.315C72.4279 109.146 72.2652 108.953 72.229 108.881C72.1145 108.658 72.1567 108.121 72.3375 107.41C72.446 107.006 72.657 105.734 72.856 104.311C73.3503 100.79 73.7663 98.6802 74.3029 96.9379C74.4476 96.4737 74.4656 96.4436 74.6284 96.4436C74.8635 96.4436 75.0504 96.6666 75.1529 97.0826C75.4121 98.0653 76.3345 99.1685 77.3172 99.681C77.8598 99.9583 80.006 100.766 81.7181 101.333C82.7912 101.682 82.8997 101.713 83.4363 101.713C83.9125 101.719 84.0633 101.695 84.3225 101.574C84.6902 101.411 85.0158 101.074 85.1243 100.754C85.275 100.308 85.1846 99.9161 84.7144 98.9394C84.208 97.8844 83.8703 96.8957 83.4061 95.1173C82.526 91.7292 81.9894 90.5837 80.5968 89.1127C80.0904 88.5701 79.795 88.0517 79.596 87.3403C79.4996 86.9906 79.4875 86.7193 79.4996 84.748C79.5418 78.5204 79.7889 76.6756 80.9344 73.8662C82.1823 70.8157 83.7618 68.3802 85.8417 66.3003C86.8485 65.2935 87.7046 64.5881 88.85 63.8225C90.1884 62.9242 91.0023 62.5745 92.8953 62.0802C94.095 61.7667 94.6014 61.7125 94.9691 61.8692ZM73.8447 95.2197C72.9585 97.8362 72.4882 100.181 71.7166 105.776C71.3609 108.32 71.1499 109.658 70.9811 110.46C70.8906 110.882 70.8846 110.967 70.963 111.123C71.1077 111.431 71.3307 111.491 71.8613 111.383C72.1084 111.334 72.3435 111.304 72.3797 111.316C72.4219 111.334 72.4581 112.076 72.4822 113.673C72.5244 116.175 72.5787 117.116 72.7716 118.539C72.9163 119.654 73.0248 120.046 73.2117 120.166C73.3925 120.287 73.5975 120.215 74.2727 119.799C74.7128 119.527 74.7912 119.497 74.8274 119.582C74.8515 119.636 75.0745 121.095 75.3277 122.819C75.5749 124.543 75.8161 126.074 75.8522 126.219C75.9487 126.587 76.1597 126.707 76.7204 126.707C76.9675 126.707 77.1725 126.738 77.2147 126.78C77.2569 126.822 77.287 127.021 77.287 127.238C77.287 127.449 77.4076 128.371 77.5583 129.288C77.9201 131.53 78.0587 132.64 78.1431 134.02C78.2577 135.931 78.0708 137.824 77.6126 139.368C77.3715 140.188 77.1363 141.074 76.7987 142.472C76.5696 143.443 76.1537 144.594 75.9969 144.727C75.9366 144.775 75.8161 144.377 75.4845 143.057C74.6284 139.693 74.0376 138.228 72.856 136.54L72.5847 136.16V135.515C72.5847 133.773 72.1747 132.441 70.6616 129.233C69.8115 127.425 69.492 126.653 68.9976 125.188C68.1295 122.644 67.5809 120.106 67.2976 117.363C67.1408 115.82 67.1529 112.649 67.3277 111.051C67.5508 108.989 67.9607 106.843 68.5455 104.703C69.4618 101.339 70.7098 98.5958 72.434 96.1723C72.7414 95.7382 73.0368 95.3102 73.0971 95.2197C73.2117 95.0389 73.7543 94.6953 73.9231 94.6953C74.0135 94.6953 74.0014 94.7616 73.8447 95.2197ZM63.8311 118.448C63.9034 118.514 63.9878 118.671 64.018 118.798C64.0481 118.918 64.1205 119.901 64.1687 120.98C64.3194 124.157 64.8137 132.688 64.8559 132.917C64.8921 133.104 64.9223 133.128 65.1092 133.146C65.2538 133.158 65.4468 133.098 65.7361 132.953C66.134 132.754 66.3028 132.73 66.3209 132.881C66.3269 132.917 66.339 133.122 66.3511 133.339C66.3752 133.888 66.5621 134.72 67.0142 136.227C67.7075 138.554 67.7316 138.68 67.7316 140.423C67.7316 141.701 67.7497 141.984 67.8462 142.292C68.0089 142.834 68.3285 143.407 68.7324 143.871C68.9313 144.094 69.492 144.769 69.9863 145.366C71.7527 147.512 72.5907 148.151 74.0919 148.525C74.8756 148.724 74.9901 148.893 74.755 149.496C74.6887 149.665 74.6344 149.845 74.6344 149.894C74.6344 150.147 74.4415 150.394 74.1642 150.503C73.911 150.599 73.6518 150.611 71.59 150.611C68.3827 150.605 67.6954 150.509 67.4302 150.014C67.3398 149.845 67.3277 149.749 67.3699 149.429C67.4 149.218 67.4242 148.827 67.4242 148.561C67.4302 148.151 67.4061 148.031 67.2614 147.741C67.0082 147.217 66.6766 146.891 65.5372 146.035C63.7648 144.703 63.1438 144.317 62.0526 143.859C61.4678 143.618 61.3051 143.515 60.877 143.13C60.2561 142.569 59.7798 142.249 59.3337 142.081C58.6525 141.821 58.1099 142.032 57.3141 142.858C56.6751 143.527 56.3314 143.992 55.6381 145.131C55.3246 145.643 55.0594 146.053 55.0413 146.053C55.0232 146.053 54.8484 145.848 54.6494 145.601C54.2154 145.059 53.3291 144.191 52.871 143.847C52.0149 143.22 51.2673 142.931 50.3691 142.882C48.8318 142.798 47.3909 143.539 45.1784 145.547L44.8046 145.879L44.4067 145.059C43.8883 143.986 43.5748 143.521 43.0141 143.009C42.4655 142.49 42.4534 142.418 42.8453 141.924C43.0081 141.731 43.4602 141.08 43.8581 140.483C44.7504 139.139 45.311 138.548 46.2394 137.981L46.8725 137.589L47.3246 136.685C47.8491 135.642 48.042 135.347 48.452 134.955C48.9584 134.484 49.5914 134.243 50.3269 134.243C50.8273 134.243 51.0865 134.117 51.2794 133.791C51.5145 133.381 51.611 132.784 51.5929 131.802C51.5748 131 51.5869 130.921 51.7014 130.765C51.8823 130.524 52.1596 130.469 52.7745 130.566C53.6246 130.698 54.1008 130.56 54.5409 130.059C54.8544 129.704 54.9569 129.348 55.0413 128.335C55.1257 127.346 55.3367 126.165 55.6261 125.08C55.7406 124.634 55.9034 124.025 55.9818 123.729C56.0601 123.44 56.1264 123.132 56.1264 123.054C56.1264 122.97 56.03 122.662 55.9154 122.367C55.5055 121.312 55.7044 120.769 56.669 120.323C57.3503 120.01 63.0654 118.34 63.4874 118.334C63.6201 118.328 63.7467 118.37 63.8311 118.448ZM51.7979 144.269C52.4791 144.607 52.9915 145.173 53.6125 146.283C54.3781 147.639 54.7097 149.074 54.5108 150.189C54.4686 150.412 54.4505 150.43 54.2877 150.406C54.0405 150.382 53.5281 150.177 53.3834 150.05C53.3171 149.996 53.1362 149.785 52.9795 149.586C52.1837 148.537 51.7496 148.507 51.3337 149.466C51.1166 149.972 51.1046 149.99 50.9297 150.117C50.7127 150.28 49.9712 150.273 49.4286 150.105C48.8499 149.924 48.5786 149.701 48.4098 149.279C48.0179 148.29 47.7285 148.242 46.9026 149.044C46.3118 149.616 46.0827 149.749 45.6969 149.749C45.3653 149.749 45.1121 149.634 44.7624 149.309C44.2681 148.851 44.262 148.543 44.7323 147.928C44.9011 147.711 45.1844 147.319 45.3713 147.06C45.7994 146.463 46.565 145.662 47.0835 145.27C48.1626 144.456 49.5251 143.998 50.7429 144.034C51.3156 144.046 51.3939 144.07 51.7979 144.269Z" fill="white"/>
<path d="M101.353 50.8362C100.564 50.9568 100.166 51.1376 99.7377 51.5596C99.4604 51.8309 99.3338 52.0118 99.2373 52.2771C98.8334 53.3743 99.1409 54.2846 100.31 55.4421C100.931 56.057 101.57 56.479 102.107 56.6297C102.734 56.8046 102.855 57.0035 102.734 57.6667C102.601 58.372 102.402 58.6373 101.763 58.9448C101.546 59.0472 101.281 59.1799 101.166 59.2341C100.835 59.4029 100.509 59.8189 100.377 60.259C100.196 60.8438 100.208 60.898 100.485 60.6991C100.576 60.6388 100.817 60.5001 101.022 60.3977C102.228 59.7948 103.548 59.9274 105.356 60.8438L106.116 61.2296L106.08 61.0367C106.007 60.675 105.706 60.1203 105.429 59.8491C105.278 59.6983 104.946 59.4572 104.681 59.3125C103.982 58.9206 103.843 58.8001 103.668 58.4504C103.548 58.2093 103.512 58.0465 103.512 57.739C103.512 57.1542 103.692 56.8287 104.313 56.3042C104.928 55.7857 105.513 55.201 105.724 54.8754C105.815 54.7428 106.032 54.4413 106.2 54.2123C106.839 53.3502 106.936 52.9101 106.616 52.3193C106.218 51.5958 105.471 51.011 104.717 50.8422C104.199 50.7217 102.101 50.7217 101.353 50.8362Z" fill="#EF865F"/>
<path d="M109.878 44.3875C108.991 44.7492 108.509 45.6957 108.696 46.6905C108.871 47.5887 109.57 48.1012 110.655 48.1193C111.041 48.1253 111.198 48.0951 111.439 47.9866C112.108 47.6792 112.494 47.0462 112.542 46.1901C112.597 45.1954 112.241 44.6106 111.439 44.3634C110.878 44.1886 110.336 44.2006 109.878 44.3875ZM110.589 45.7681C110.86 45.8826 110.987 46.0816 110.987 46.3951C110.987 46.8171 110.571 47.1486 110.167 47.0462C110.077 47.022 109.932 46.9256 109.836 46.8291C109.516 46.5096 109.625 45.955 110.047 45.7681C110.288 45.6656 110.342 45.6656 110.589 45.7681Z" fill="#EF865F"/>
<path d="M94.9146 44.597C94.0827 44.7719 93.5582 45.3205 93.3833 46.2067C93.3231 46.5142 93.3231 46.6227 93.4075 46.906C93.6004 47.5752 94.0103 47.8585 94.8423 47.9007C96.2048 47.9671 96.9764 47.322 96.9704 46.1042C96.9644 45.1637 96.464 44.6272 95.5416 44.5669C95.3306 44.5548 95.0533 44.5669 94.9146 44.597ZM96.042 45.8992C96.3856 46.2308 96.3012 46.7794 95.8732 46.9784C95.5959 47.111 95.3185 47.0567 95.0955 46.8216C94.776 46.49 94.9026 45.9294 95.3427 45.7365C95.5416 45.6521 95.8611 45.7244 96.042 45.8992Z" fill="#EF865F"/>
<path d="M101.673 70.7247C101.13 70.8513 100.184 71.2191 99.4721 71.5808C97.0546 72.8106 95.3003 74.7519 93.6484 78.0254C93.0878 79.1468 92.4487 80.5876 92.286 81.088C92.0629 81.8175 92.1835 82.3299 92.6899 82.8182C93.0998 83.2101 93.2023 83.4452 93.2023 83.9878C93.2023 84.7112 92.9552 85.8446 92.2679 88.2983C91.8218 89.9139 91.6047 90.9087 91.5143 91.825C91.3998 92.9464 91.5444 94.2847 91.8218 94.7369C92.0267 95.0685 92.2438 95.177 92.8888 95.2734C93.5701 95.3759 93.9981 95.5568 94.3056 95.8642C94.6613 96.2199 94.8361 96.6238 95.2159 98.0044C95.5234 99.1077 96.0479 99.8914 96.9401 100.609C97.5188 101.073 97.9288 101.555 98.2061 102.11C98.5739 102.839 98.6281 103.141 99.4118 108.53C99.9966 112.57 100.533 115.711 100.762 116.482C101.003 117.29 101.835 117.748 102.631 117.519C103.005 117.411 103.349 117.115 103.415 116.856C103.487 116.573 103.976 115.475 104.265 114.951C104.663 114.234 105.248 113.371 106.315 111.937C108.346 109.206 108.798 108.313 110.167 104.359C110.511 103.37 110.963 102.128 111.174 101.597L111.56 100.633L111.566 98.4626C111.572 95.4362 111.716 94.4415 112.44 92.5726C112.789 91.6623 112.868 91.1257 112.789 90.2093C112.729 89.5341 112.597 88.5213 112.458 87.7979C112.325 87.0564 112.343 86.6283 112.548 86.1219C113.67 83.2643 113.175 80.3585 111.089 77.5552C110.836 77.2176 110.649 76.88 110.505 76.4881C110.022 75.2342 109.612 74.571 108.786 73.721C107.623 72.5213 106.212 71.7194 103.933 70.9538C103.005 70.6463 102.33 70.574 101.673 70.7247Z" fill="#EF865F"/>
<path d="M103.343 123.898C102.595 124.145 102.131 124.76 101.679 126.128C101.275 127.328 100.805 128.082 99.9368 128.919C99.2857 129.546 98.8697 129.848 97.8448 130.445C96.3557 131.307 95.5358 131.91 94.7702 132.712C93.9322 133.586 93.4077 134.466 93.1183 135.473C92.8953 136.226 92.841 136.859 92.8832 138.119C92.9616 140.591 92.4914 142.448 91.2917 144.413C91.0204 144.853 90.6526 145.794 90.4356 146.571C90.3391 146.921 90.3572 147.5 90.4657 147.831C90.5923 148.205 91.0746 148.724 91.4725 148.917C92.1116 149.224 92.5637 149.188 93.7514 148.736C94.722 148.374 95.0475 148.344 95.7348 148.555C96.8139 148.886 98.1282 148.965 100.148 148.832C101.812 148.718 102.8 148.531 103.458 148.193C103.91 147.97 104.314 147.536 104.476 147.108C104.597 146.807 104.621 146.644 104.615 146.059C104.615 145.336 104.5 144.703 104.199 143.696C103.976 142.936 103.91 142.267 104.018 141.676C104.121 141.073 104.356 140.579 104.874 139.843C106.448 137.631 106.954 136.534 107.129 134.954C107.25 133.869 107.051 132.892 106.436 131.59C105.935 130.523 105.893 130.288 105.953 128.95C105.984 128.365 106.008 127.352 106.008 126.707C106.014 125.206 105.941 124.916 105.441 124.41C105.218 124.181 105.013 124.042 104.808 123.97C104.398 123.825 103.669 123.789 103.343 123.898Z" fill="#EF865F"/>
</svg>
