<svg width="200" height="199" viewBox="0 0 200 199" fill="none" xmlns="http://www.w3.org/2000/svg">
<g filter="url(#filter0_f_1_168)">
<circle cx="100.388" cy="99.9819" r="84" stroke="white" stroke-width="3"/>
<path d="M77.0592 35.8898C74.5247 36.1593 72.5062 37.3406 70.2928 39.8522C66.8809 43.7228 65.3384 47.1002 65.3327 50.7128C65.3327 52.7542 65.7972 54.6178 66.8465 56.7911C67.0472 57.1982 67.2365 57.634 67.2766 57.7487C67.4257 58.2017 67.8615 58.3737 68.2457 58.1386C68.4579 58.0067 68.5668 57.7888 68.6241 57.3645C68.6471 57.2039 68.7274 56.8312 68.8019 56.533C68.8764 56.2348 69.0599 55.369 69.2033 54.612C69.6276 52.4273 69.6964 52.3528 70.6139 53.1785C71.5371 54.0157 72.3571 54.5834 73.395 55.1224C74.0889 55.4779 74.1061 55.5181 73.9455 56.3782C73.8767 56.7337 73.7563 57.4333 73.676 57.9379C73.4638 59.2625 73.2574 60.0424 72.5291 62.273C71.2734 66.0977 71.1587 66.8374 71.1587 71.0693C71.1587 72.9386 71.1759 73.5006 71.2561 74.1084C71.5601 76.339 72.1392 78.1166 73.0452 79.5788C73.5441 80.3874 74.0086 80.9722 74.7712 81.7636C75.1554 82.1592 75.4995 82.5434 75.5339 82.6122C75.6486 82.8301 75.5339 83.0136 74.9088 83.5928C72.5062 85.8177 71.1128 88.7937 70.8376 92.2801C70.763 93.232 70.763 95.9615 70.8376 97.2804C70.9866 99.9181 71.2504 102.229 71.8697 106.478C72.3743 109.913 72.4087 110.297 72.4087 112.327C72.4145 114.724 72.3284 115.251 71.5658 117.86C70.8203 120.418 70.935 122.952 71.9271 125.516C72.9535 128.176 73.0338 129.931 72.4431 136.955C72.3514 138.056 72.2482 139.501 72.2138 140.167C72.0704 143.097 71.9901 143.682 71.6059 144.834C71.2332 145.958 70.6598 146.967 69.7423 148.108C68.1425 150.104 67.1046 151.962 66.319 154.25C65.9692 155.265 65.6366 156.555 65.5678 157.191C65.3327 159.25 66.5713 160.718 68.5496 160.724C68.7847 160.724 69.3925 160.661 69.8971 160.58C71.1357 160.385 71.8869 160.351 73.1026 160.431C75.4077 160.586 77.3459 160.259 81.4975 159.003C83.4528 158.413 83.9517 158.218 84.5366 157.834C85.4254 157.243 85.8956 156.469 86.0332 155.379C86.0963 154.875 86.2053 154.64 86.4518 154.451C86.6067 154.336 86.6869 154.33 87.9714 154.324C89.5426 154.324 89.8981 154.261 90.9417 153.814C92.8168 153.011 94.755 152.633 96.9569 152.627C98.5969 152.627 100.008 152.788 101.779 153.183C102.445 153.332 104.027 153.757 104.067 153.797C104.079 153.808 103.924 154.307 103.723 154.904C103.093 156.796 102.875 158 102.88 159.663C102.88 160.643 102.892 160.81 103.024 161.309C103.477 163.023 104.727 164.107 106.258 164.107C106.533 164.107 107.101 164.055 107.508 163.998C108.414 163.866 109.073 163.826 111.809 163.763C114.062 163.711 114.446 163.671 116.402 163.304C117.778 163.046 118.191 162.874 118.667 162.347C118.971 162.014 119.085 161.796 119.429 160.924C119.819 159.932 119.957 159.422 120.037 158.7C120.158 157.576 120.427 157.398 121.557 157.713C121.843 157.794 122.17 157.857 122.291 157.857C122.732 157.857 123.46 157.65 126.156 156.767C127.675 156.263 129.481 155.695 130.17 155.506C133.117 154.68 133.679 154.422 134.694 153.413C135.674 152.444 136.208 151.274 136.385 149.685C136.534 148.309 136.294 146.973 135.325 143.871C135.055 143.005 134.831 142.26 134.831 142.219C134.831 142.059 136.643 142.185 137.504 142.409C139.373 142.89 141.724 143.928 144.465 145.471C150.211 148.711 152.625 149.92 154.815 150.666C155.985 151.062 156.702 151.107 157.47 150.838C158.474 150.482 159.047 149.41 158.955 148.074C158.869 146.899 158.411 145.895 157.556 145.052C156.799 144.301 153.588 142.059 151.449 140.78C147.785 138.595 144.471 137.242 141.07 136.554C139.189 136.17 138.008 136.055 135.864 136.038C134.636 136.032 134.075 136.009 133.988 135.958C133.719 135.814 133.696 135.677 133.662 133.968C133.616 131.565 133.375 129.73 132.796 127.442C132.205 125.103 131.379 122.809 129.9 119.437C128.185 115.521 127.383 113.342 126.781 110.968C126.224 108.755 126.018 107.315 125.943 104.987C125.857 102.493 125.725 101.197 125.37 99.5167C124.877 97.2001 124.172 95.3422 122.778 92.6872C119.619 86.6549 117.371 82.6409 115.106 78.9538C113.959 77.0959 113.752 76.7289 113.328 75.8459C112.932 75.0144 112.583 74.0109 112.411 73.1909C112.227 72.325 112.193 70.8628 112.33 69.6586C112.485 68.3283 112.485 64.7616 112.336 63.5001C112.198 62.3532 111.992 61.1892 111.751 60.1513C111.516 59.1478 111.487 58.6145 111.665 58.3278C111.745 58.1902 111.929 58.064 112.336 57.8576C114.171 56.9344 115.725 55.4722 116.958 53.5111C117.124 53.2473 117.273 53.0351 117.29 53.0351C117.359 53.0351 118.185 54.7153 118.391 55.2715C118.844 56.4929 118.976 57.2727 119.062 59.1994C119.143 61.1204 119.343 62.445 119.59 62.7088C119.768 62.898 120.094 62.9725 120.387 62.898C120.725 62.8062 121.035 62.4565 121.482 61.6594C123.013 58.9471 123.719 56.1259 123.719 52.7484C123.719 51.2977 123.655 50.5522 123.438 49.5946C123.019 47.6966 122.073 45.7928 120.685 44.0553C119.607 42.7078 117.864 40.9818 117.004 40.4141C114.71 38.8946 111.55 38.4817 109.005 39.3705C108.305 39.6113 107.99 39.7719 107.393 40.1618C106.573 40.7066 105.868 41.4922 105.409 42.381C105.163 42.8512 104.968 43.0576 104.761 43.0576C104.698 43.0576 104.474 42.9773 104.274 42.8856C103.087 42.3236 101.831 42.0312 99.4226 41.7674C97.4787 41.5552 97.0257 41.4807 94.9786 41.0506C92.7881 40.5862 92.3638 40.5059 91.4807 40.3969C90.3396 40.2478 89.3648 40.2249 88.3384 40.3281C86.9679 40.4657 86.3085 40.3683 85.3853 39.898C84.8807 39.6457 84.4965 39.3476 83.7395 38.6136C82.3805 37.3062 81.4975 36.7213 80.1843 36.2683C79.2152 35.93 78.0397 35.7866 77.0592 35.8898ZM90.3052 41.1653C90.5575 41.1997 91.1654 41.3029 91.6528 41.3947C92.9716 41.6413 94.3421 41.8649 96.8996 42.2548C99.7609 42.6849 101.699 43.0232 102.525 43.2296C104.761 43.7916 106.722 45.099 108.374 47.1289C109.446 48.4478 110.897 50.9364 111.132 51.8654C111.281 52.4617 111.264 53.987 111.097 54.8988C111.023 55.2772 110.92 55.8564 110.857 56.189C110.633 57.4276 110.65 58.9242 110.92 61.2351C111.837 69.0279 111.39 74.8366 109.538 79.3724C108.706 81.4023 107.238 83.8336 106.218 84.8658C105.707 85.3819 105.415 85.5998 105.501 85.3991C105.53 85.336 105.811 84.516 106.132 83.5698C107.577 79.2979 107.932 76.3505 107.416 72.9329C107.049 70.536 106.034 67.8409 104.664 65.6504C104.039 64.6469 103.867 64.257 103.867 63.8499C103.867 63.2822 104.021 63.0471 104.95 62.2156C105.77 61.4816 106.298 60.6444 106.573 59.6524C106.671 59.2854 106.694 59.0331 106.699 58.3106C106.705 57.3645 106.665 57.0835 106.384 56.189C105.874 54.5146 104.652 53.4537 102.863 53.1212C102.158 52.9893 100.678 53.0294 99.9387 53.2072C99.6577 53.2702 99.2449 53.3391 99.0212 53.3563C98.551 53.3907 98.3561 53.3046 98.0808 52.9147C97.8572 52.6108 97.8056 52.3356 97.9145 52.0947C98.0407 51.8367 98.832 50.9307 99.2105 50.6096C99.6119 50.2712 100.311 49.9157 100.885 49.7552C101.263 49.652 101.55 49.6348 103.265 49.5946C105.375 49.5487 105.484 49.5373 106.16 49.1932C106.453 49.0441 107.049 48.5739 107.003 48.528C106.992 48.5166 106.625 48.5338 106.183 48.5625C105.747 48.5911 104.291 48.6714 102.949 48.7345C100.38 48.8549 100.111 48.8893 99.5488 49.1703C98.9065 49.4971 98.184 50.2082 97.6336 51.074C97.3182 51.5614 97.0601 51.6016 96.6415 51.2231C96.3319 50.9421 96.2745 50.7242 96.3204 50.0304C96.3892 48.9352 96.7333 47.6736 97.1805 46.8823C97.4156 46.458 97.7769 45.9534 98.1439 45.5405C98.293 45.38 98.4249 45.1678 98.4478 45.0703C98.4879 44.8811 98.3905 44.4912 98.2987 44.4912C98.2643 44.4912 97.9088 44.818 97.5074 45.2194C96.1828 46.5325 95.8215 47.2952 95.7527 48.9122C95.7355 49.3882 95.6897 49.7953 95.6438 49.9043C95.5176 50.2024 95.2997 50.3401 94.9442 50.3401C94.4453 50.3401 94.2332 50.0992 93.8776 49.09C93.6655 48.4822 93.5393 48.2299 92.9716 47.278C92.2032 45.9878 91.9911 45.4774 91.8821 44.7148C91.8248 44.3306 91.8764 43.6081 91.9796 43.2984C92.0312 43.1264 91.7674 43.5335 91.5725 43.9177C91.2628 44.5198 91.1711 44.8696 91.1711 45.38C91.1768 45.9878 91.3087 46.3261 91.842 47.1346C92.3007 47.8399 92.7767 48.6714 93.115 49.3824C93.4074 49.9903 93.3501 50.1795 92.7881 50.4089C92.295 50.6096 91.7789 50.5121 91.5667 50.1852C91.3603 49.8698 90.8156 49.3423 90.4486 49.1072C89.7949 48.6829 89.1756 48.4592 87.8624 48.1897C87.3406 48.0808 86.7901 47.9546 86.6296 47.903C86.0963 47.7253 85.0871 47.192 84.1696 46.6013C83.665 46.2745 83.1489 45.9476 83.0285 45.8731L82.8049 45.7355L83.0285 46.1598C83.1891 46.4637 83.3955 46.7332 83.7682 47.106C84.7144 48.0578 85.6777 48.4764 88.4129 49.1301C89.3705 49.3595 89.9898 49.6577 90.483 50.1336C90.6779 50.3286 90.8614 50.5522 90.8786 50.6382C90.9475 50.902 90.7582 51.183 90.2823 51.5328C90.0414 51.7105 89.4049 52.2897 88.8602 52.823L87.8739 53.7978L87.4266 53.3735C85.0355 51.0912 82.5239 51.2002 79.3873 53.7232C78.4354 54.4859 78.0913 55.0823 78.0225 56.0456C77.9824 56.6592 78.0856 57.0491 78.573 58.0813C79.2611 59.532 79.4618 60.4609 79.3242 61.539C79.1636 62.8464 78.5902 63.9818 77.2484 65.6562C76.4399 66.6654 75.9697 67.3707 75.5683 68.1735C73.957 71.3904 73.8652 75.0488 75.2816 79.9745C75.5167 80.7887 75.574 81.0697 75.5281 81.15C75.4765 81.2532 75.4536 81.2475 75.2414 81.0411C74.1061 79.9401 73.0624 78.0765 72.6152 76.3505C72.294 75.1004 72.1908 74.1485 72.0991 71.7688C71.9443 67.5943 72.4087 64.5781 73.6703 61.6021C74.1634 60.438 74.2896 59.899 74.6221 57.5652C74.7196 56.8885 74.8515 56.0972 74.9203 55.8162C75.035 55.3231 75.9238 52.7312 76.589 50.9651C77.6498 48.1438 78.7565 46.2286 80.1786 44.7607C82.2085 42.6619 84.766 41.3947 87.5528 41.108C88.1606 41.0506 89.6515 41.0793 90.3052 41.1653ZM77.8218 46.1655C76.5832 49.004 75.4536 51.6417 74.9777 52.7943C74.6623 53.5627 74.3584 54.2393 74.301 54.3024C74.2494 54.3597 74.1405 54.4114 74.0717 54.4114C73.9168 54.4114 72.3112 53.3505 71.6059 52.7828C70.6426 52.0087 70.1666 51.3321 70.2183 50.8275C70.2699 50.3859 70.4878 50.0591 71.2103 49.3366C73.051 47.4902 75.1898 46.2401 77.3344 45.7527C78.12 45.5749 78.0913 45.552 77.8218 46.1655ZM112.204 50.0017C112.359 50.0304 112.669 50.1279 112.892 50.2196C113.563 50.4892 115.513 51.4754 115.811 51.6933C116.551 52.2324 116.482 52.7197 115.501 54.0386C114.572 55.283 113.477 56.2291 112.485 56.642C111.946 56.8656 111.78 56.9 111.78 56.7911C111.78 56.7394 111.837 56.2692 111.906 55.7417C112.004 54.9848 112.032 54.4802 112.032 53.3505C112.038 51.8138 111.992 51.4181 111.694 50.4203C111.614 50.1623 111.55 49.9329 111.55 49.9157C111.55 49.8813 111.688 49.9043 112.204 50.0017ZM94.5715 51.4009C95.208 51.55 95.6495 51.8023 96.1312 52.284C96.6645 52.8172 96.848 53.1785 97.1347 54.2393C97.8572 56.9401 98.941 58.9873 101.676 62.8292C103.236 65.0082 103.809 65.9199 104.526 67.342C106.132 70.5245 106.762 73.4604 106.567 76.8493C106.35 80.6454 105.352 83.6788 103.345 86.6376C102.078 88.507 100.208 90.4337 98.0808 92.0508C97.3239 92.6242 95.9936 93.5187 95.4316 93.8284C95.099 94.0119 95.0417 94.0233 94.9499 93.9545C94.841 93.88 94.8467 93.8628 95.0818 93.5416C95.5922 92.8306 96.8766 90.8752 97.3067 90.1642C97.8629 89.2295 98.7747 87.4634 99.1818 86.523C100.22 84.1203 101.045 80.9952 101.355 78.2944C101.47 77.2679 101.441 75.2896 101.298 74.332C100.833 71.3044 99.371 68.5749 97.2608 66.8145C96.2917 66.0059 94.3077 64.8591 93.5278 64.6584C92.9372 64.5036 92.7595 64.2971 92.834 63.8441C92.9716 62.9955 93.5508 62.3303 94.1586 62.3246C94.2561 62.3246 94.6575 62.3991 95.0474 62.4966C95.8559 62.6973 96.3376 62.7145 96.6702 62.5597C97.192 62.3246 97.5074 61.711 97.5475 60.8509C97.5877 59.9735 97.301 59.2625 96.6415 58.5916C96.2 58.1443 95.7183 57.8691 94.9786 57.634C93.935 57.3071 93.5565 57.2498 92.3982 57.2555C91.4463 57.2613 91.28 57.2727 90.7812 57.4103C89.296 57.806 88.0861 58.5056 87.7879 59.1363C87.6445 59.4345 87.6044 60.0137 87.6962 60.3463C87.742 60.5068 87.8682 60.7247 88.0287 60.8968C88.2466 61.1376 88.4301 61.2523 89.2387 61.6422C89.7605 61.8945 90.3224 62.2042 90.4887 62.3303C90.9876 62.703 91.2628 63.2134 91.3374 63.8843L91.3718 64.2054L91.0392 64.2455C89.0494 64.4577 87.7191 64.9394 86.4002 65.9142C84.5653 67.2675 82.9769 69.716 81.9562 72.7666C81.2681 74.8309 80.9871 76.5856 80.9871 78.8563C80.9871 81.6317 81.4459 84.0802 82.587 87.3774C82.9023 88.2891 82.9253 88.3923 82.8565 88.5529L82.7877 88.7249L81.6121 87.5551C79.4389 85.3819 78.2175 83.7419 77.1165 81.5055C76.1761 79.5903 75.7174 78.0937 75.4479 76.0007C75.3102 74.9571 75.3102 73.0246 75.4479 72.1014C75.8951 69.1139 77.2771 66.4417 79.7313 63.804C80.0524 63.4599 81.0387 62.5138 81.9275 61.7053C85.2648 58.6547 86.5837 57.2613 88.2696 55.0134C89.1584 53.8207 89.3935 53.5627 90.0644 52.995C91.0908 52.1349 92.0828 51.5729 92.8799 51.4009C93.3558 51.2977 94.1242 51.2977 94.5715 51.4009ZM84.5137 52.7542C85.6146 52.9549 87.008 54.0845 87.008 54.7669C87.008 55.002 86.8704 55.3288 86.7787 55.3288C86.75 55.3288 86.4633 55.1855 86.1479 55.0077C85.4082 54.5948 84.5595 54.2221 83.923 54.0272C83.5216 53.9067 83.298 53.8781 82.7934 53.8723C82.197 53.8666 82.1397 53.8781 81.7842 54.0444C81.2452 54.3024 80.8208 54.7497 80.4882 55.4263C80.2474 55.9023 80.2187 56.0055 80.2187 56.3495C80.2187 56.6362 80.2531 56.8025 80.3564 57.0147C80.6201 57.5537 81.3656 58.2418 82.587 59.0561L83.1317 59.4173L82.931 59.5951C82.4379 60.0366 81.0158 61.2752 80.9011 61.3612L80.775 61.4587L80.1901 59.9506C79.8689 59.1191 79.5536 58.2762 79.4848 58.0755C79.3127 57.5193 79.0375 56.2635 79.0375 56.0227C79.0375 55.7016 79.3758 55.0651 79.7887 54.6178C80.4252 53.9239 81.1362 53.5053 82.4321 53.0638C83.4987 52.6968 83.8944 52.6395 84.5137 52.7542ZM102.777 54.1017C104.193 54.4515 105.272 55.5582 105.57 56.9573C105.69 57.525 105.644 58.6948 105.478 59.3141C105.22 60.2717 104.566 61.3727 103.913 61.9461C103.574 62.2443 102.966 62.6113 102.806 62.6113C102.634 62.6113 102.307 62.2042 101.986 61.5963L101.688 61.0172L102.502 60.9942C103.179 60.9713 103.385 60.9426 103.666 60.8337C104.308 60.5928 104.744 60.0022 104.905 59.1478C105.065 58.3049 104.824 57.4792 104.182 56.6592C103.798 56.166 103.339 55.8105 102.863 55.6385C102.095 55.3575 101.395 55.3976 100.243 55.7876C99.8756 55.9137 99.5086 56.0169 99.4284 56.0169C99.2449 56.0169 99.0728 55.7933 98.9582 55.4034C98.8091 54.8873 98.918 54.6178 99.371 54.3941C99.5889 54.2852 100.323 54.0845 100.799 54.01C101.263 53.9411 102.318 53.987 102.777 54.1017ZM83.837 55.5353C84.2499 55.8449 84.3703 56.3438 84.1352 56.7624C83.8198 57.3186 83.1202 57.4161 82.673 56.9688C82.2142 56.5101 82.3232 55.7646 82.8909 55.4779C83.1374 55.3518 83.6306 55.3804 83.837 55.5353ZM102.318 57.3473C102.989 57.6971 103.041 58.4998 102.41 58.9643C102.187 59.1306 101.648 59.1306 101.418 58.9643C100.994 58.6489 100.862 58.0755 101.131 57.6741C101.269 57.462 101.688 57.2211 101.917 57.2211C101.997 57.2211 102.181 57.2785 102.318 57.3473ZM92.014 65.163C93.9809 65.4612 96.1541 66.7858 97.8457 68.7182C99.3137 70.3926 100.002 71.9523 100.323 74.3091C100.432 75.1233 100.415 77.7382 100.288 78.8104C99.7265 83.6731 97.8572 88.0024 94.1299 93.0887C93.7859 93.5589 93.4246 94.052 93.3329 94.1782C93.1035 94.4935 92.9028 94.5107 92.553 94.2412C91.9968 93.8169 91.5151 93.6965 91.1482 93.8857C90.936 94.0004 90.5518 94.4075 90.3454 94.7458L90.1791 95.0211L89.7203 94.2871C89.468 93.88 89.1354 93.3008 88.9806 93.0026C88.5161 92.0966 88.1033 91.7583 87.6445 91.9189C87.4266 91.9992 87.2489 92.2859 87.0424 92.9166C86.8876 93.3811 86.8016 93.5646 86.7615 93.5187C86.6984 93.4442 85.9472 92.1368 85.5573 91.4257C83.579 87.7845 82.4551 84.4644 82.0651 81.1041C81.9734 80.2899 81.9734 77.6865 82.0709 76.8321C82.111 76.4709 82.1913 75.8401 82.2544 75.4387C82.7475 72.1473 83.9976 69.4579 85.9415 67.5083C87.8452 65.6103 89.8465 64.8362 92.014 65.163ZM112.135 76.0179C112.439 76.3505 112.663 76.7002 113.145 77.5891C113.391 78.0421 114.177 79.4011 114.888 80.6167C118.489 86.781 122.64 94.5107 123.455 96.5578C123.793 97.4122 124.149 98.519 124.344 99.2988C124.67 100.635 124.745 101.323 124.797 103.611C124.825 104.781 124.883 106.082 124.94 106.564C125.399 110.825 126.523 114.638 128.931 120.085C130.083 122.689 130.651 124.208 131.248 126.267C132.199 129.575 132.652 132.781 132.652 136.21C132.652 136.932 132.681 137.827 132.715 138.188C132.842 139.628 133.203 141.25 133.736 142.776C135.021 146.48 135.175 147.134 135.175 148.768C135.175 150.643 134.665 152.059 133.685 152.942C133.048 153.516 132.715 153.653 130.645 154.238C129.969 154.428 128.805 154.777 128.065 155.018C122.772 156.71 122.583 156.767 121.975 156.767C121.557 156.767 121.276 156.675 121.041 156.475C120.542 156.033 120.513 155.225 120.914 152.811C121.373 150.064 121.66 147.948 121.826 146.13C121.895 145.322 121.906 143.613 121.866 139.163C121.849 137.558 121.866 136.629 121.918 136.153C122.314 132.339 122.967 129.547 124.349 125.716C125.399 122.815 125.645 121.846 125.697 120.366C125.748 118.95 125.588 117.975 125.244 117.62C124.992 117.356 124.625 117.063 124.59 117.098C124.579 117.115 124.607 117.448 124.659 117.838C124.768 118.686 124.739 120.154 124.596 121.1C124.441 122.092 124.04 123.555 123.449 125.258C122.595 127.718 122.342 128.497 122.044 129.598C121.161 132.81 120.708 136.451 120.806 139.593C120.823 140.253 120.857 141.388 120.874 142.116C120.955 144.88 120.656 147.959 119.859 152.782C119.705 153.728 119.447 155.391 119.292 156.48C118.85 159.577 118.661 160.494 118.334 161.154C118.156 161.509 117.789 161.899 117.485 162.06C117.262 162.175 116.654 162.347 116.608 162.306C116.597 162.295 116.631 161.974 116.677 161.595C116.728 161.217 116.769 160.764 116.769 160.598C116.769 160.242 116.642 159.783 116.493 159.588C116.402 159.468 116.384 159.468 116.27 159.548C116.195 159.6 116.069 159.755 115.989 159.898C115.851 160.133 115.828 160.236 115.794 160.942C115.754 161.813 115.691 161.997 115.375 162.238C114.825 162.656 113.993 162.845 113.122 162.736C112.846 162.702 112.611 162.662 112.594 162.645C112.554 162.605 112.967 161.068 113.162 160.529C113.374 159.95 113.374 159.737 113.179 159.583C112.967 159.416 112.669 159.37 112.497 159.485C112.348 159.583 112.296 159.737 112.158 160.489C111.906 161.911 111.097 162.536 109.274 162.736C108.483 162.822 108.098 162.771 107.863 162.559C107.691 162.404 107.68 162.375 107.686 162.031C107.691 161.819 107.772 161.423 107.875 161.068C108.104 160.288 108.11 159.984 107.886 159.737C107.749 159.583 107.68 159.554 107.376 159.531C107.026 159.508 107.015 159.508 106.803 159.726C106.545 159.984 106.395 160.351 106.235 161.096C106.132 161.572 106.132 161.653 106.206 162.094C106.304 162.696 106.275 162.828 106.006 162.943C105.541 163.132 104.973 162.88 104.606 162.312C103.993 161.366 103.723 159.307 104.004 157.713C104.251 156.343 104.624 155.328 105.713 153.069C106.82 150.786 107.21 149.76 107.485 148.418C107.582 147.936 107.605 147.501 107.651 145.528C107.72 142.466 107.806 141.227 108.311 136.21C108.649 132.861 108.775 131.433 108.884 129.816C108.993 128.165 109.045 127.534 109.257 125.487C109.847 119.776 109.836 118.205 109.159 116.261C108.861 115.4 108.511 114.724 107.829 113.686C106.826 112.178 106.413 111.392 106.057 110.349C105.736 109.42 105.627 108.732 105.621 107.74C105.621 106.851 105.621 106.851 105.862 106.082C106.114 105.28 106.258 104.66 106.2 104.609C106.137 104.546 105.661 104.804 105.455 105.016C105.168 105.314 105.042 105.692 104.927 106.598C104.796 107.608 104.836 109.23 105.002 110.022C105.266 111.215 105.725 112.275 106.367 113.158C107.02 114.053 107.307 114.517 107.623 115.165C108.683 117.35 108.855 119.466 108.351 124.025C107.926 127.798 107.347 134.817 106.992 140.511C106.596 146.858 106.189 149.978 105.604 151.262C105.386 151.738 105.157 152.013 104.813 152.197C104.606 152.312 104.497 152.323 103.781 152.317C103.041 152.312 102.852 152.289 101.401 151.991C99.3423 151.572 98.5166 151.474 97.0429 151.474C94.8926 151.474 93.3501 151.778 91.2456 152.616C89.8178 153.178 88.8373 153.367 87.5299 153.315C86.7672 153.281 86.5493 153.223 86.4346 153.011C86.3543 152.862 86.3658 152.736 86.5378 151.75C86.6066 151.371 86.7156 150.534 86.7787 149.886C86.9335 148.372 87.031 147.719 87.2259 146.904C87.3578 146.342 87.3808 146.124 87.3808 145.413C87.375 144.702 87.3464 144.416 87.1629 143.464C86.7328 141.176 86.6353 139.937 86.6812 137.156C86.7041 135.9 86.7729 134.266 86.8647 132.884C87.0482 130.195 87.0367 129.484 86.8131 128.813C86.6353 128.297 86.4633 127.981 86.3486 127.981C86.3085 127.981 86.2167 128.033 86.1422 128.09C86.0046 128.199 86.0046 128.205 85.9644 129.942C85.9472 130.894 85.8899 132.517 85.8383 133.544C85.5974 138.653 85.6892 141.411 86.1881 144.095C86.3199 144.811 86.3429 145.075 86.3429 145.987C86.3429 147.145 86.2913 147.587 85.9243 149.611C85.7981 150.287 85.6548 151.188 85.6089 151.612C85.4311 153.155 85.391 153.539 85.3451 154.17C85.282 154.984 85.2018 155.391 85.0011 155.821C84.6226 156.658 83.8772 157.226 82.65 157.616C81.9791 157.822 81.6752 157.885 81.6752 157.799C81.6752 157.736 82.1798 155.58 82.22 155.454C82.2429 155.391 82.1913 155.379 81.9562 155.402C81.4401 155.454 81.2394 155.695 81.0101 156.549C80.7004 157.708 80.127 158.258 78.8425 158.625C78.1946 158.814 77.9308 158.82 77.7473 158.636C77.5638 158.453 77.5236 158.195 77.5638 157.381C77.5982 156.612 77.5581 156.457 77.3057 156.371C76.956 156.251 76.675 156.515 76.5775 157.06C76.4112 158.011 75.9066 158.562 74.9834 158.797C74.5533 158.912 72.8847 159.061 71.9844 159.072C71.2734 159.084 71.021 159.015 70.8892 158.763C70.7745 158.55 70.872 157.931 71.1873 156.91C71.3479 156.371 71.497 155.878 71.5085 155.815C71.5371 155.678 71.3708 155.276 71.2848 155.276C71.1759 155.276 70.6197 155.855 70.4763 156.125C70.2412 156.561 70.1494 157.008 70.0978 157.977C70.0462 159.015 69.9487 159.307 69.5703 159.56C68.9969 159.938 67.7239 159.72 67.0415 159.124C66.4107 158.568 66.2846 157.897 66.5942 156.738C67.397 153.711 68.1769 151.905 69.3237 150.414C70.6655 148.67 70.9178 148.315 71.4052 147.426C72.231 145.941 72.7987 144.198 73.0739 142.346C73.1542 141.778 73.2115 140.878 73.2746 139.249C73.4065 135.7 73.5269 133.641 73.7677 131.107C73.9627 129.025 73.8652 128.308 73.0166 125.602C72.2424 123.142 72.1278 122.563 72.1335 121.014C72.1335 119.541 72.2998 118.543 72.8159 116.897C73.2975 115.372 73.4466 114.15 73.4007 112.08C73.3663 110.515 73.3377 110.194 72.9592 107.51C72.6438 105.228 72.1278 101.111 71.9901 99.7403C71.7837 97.6932 71.7378 96.598 71.7722 94.5337C71.8353 90.4337 72.3112 88.4898 73.8136 86.2076C74.387 85.3417 75.4135 84.1031 75.769 83.8566C76.4341 83.3921 76.9158 83.6043 77.6211 84.6593C78.5558 86.0528 79.1923 86.7753 82.2945 89.9406C85.1215 92.8306 85.2706 92.9912 85.8039 93.8054C86.0218 94.138 86.2683 94.505 86.3486 94.6197C86.5149 94.8777 86.7213 94.9465 86.9163 94.8146C86.9966 94.7688 87.2145 94.4993 87.4037 94.2183C87.5987 93.9373 87.8051 93.6621 87.8682 93.6047C87.9829 93.5015 87.9886 93.5015 88.218 93.7251C88.39 93.8914 88.585 94.2183 88.9577 94.9867C89.4852 96.0647 89.6974 96.3801 89.9898 96.5005C90.3396 96.6439 90.6034 96.4202 90.9819 95.669C91.0908 95.4454 91.2399 95.216 91.3087 95.153C91.4865 94.9924 91.7846 95.0211 92.2835 95.2447C92.6849 95.4282 92.7537 95.4397 93.3157 95.4397C94.0611 95.4339 94.4568 95.3078 95.6954 94.6885C97.7654 93.6506 98.9754 92.7905 100.598 91.1964C101.934 89.889 102.324 89.5392 104.153 88.0196C106.487 86.0757 107.657 84.797 108.804 82.9047C109.727 81.3851 110.69 79.2233 111.493 76.8436C111.694 76.2702 111.872 75.8 111.895 75.8C111.917 75.8 112.026 75.8975 112.135 76.0179ZM137.446 136.984C141.959 137.34 146.237 138.819 151.002 141.675C152.963 142.844 155.767 144.765 156.449 145.39C157.321 146.199 157.826 147.277 157.826 148.338C157.826 148.923 157.711 149.295 157.441 149.559C156.954 150.047 156.163 150.058 154.764 149.588C153.634 149.209 152.751 148.762 148.513 146.423C144.367 144.123 142.114 142.948 140.703 142.34C138.857 141.549 136.999 141.113 135.445 141.113C135.095 141.113 134.814 141.084 134.694 141.032C134.269 140.855 134.075 140.459 134 139.65C133.977 139.427 133.925 138.997 133.88 138.693C133.719 137.592 133.794 137.231 134.212 137.041C134.43 136.944 134.591 136.927 135.583 136.927C136.202 136.927 137.039 136.955 137.446 136.984Z" fill="white"/>
<path d="M87.7364 68.6368C86.6068 69.3822 85.7696 71.825 85.4255 75.3974C85.3051 76.6246 85.2879 79.5949 85.3969 80.9023C85.609 83.5458 86.062 85.9484 86.6985 87.8063C86.9623 88.5632 87.7708 90.3064 87.8683 90.3064C87.9429 90.3064 88.0002 89.5896 87.9601 89.1366C87.9371 88.913 87.8224 88.3052 87.6963 87.7833C87.335 86.2638 86.7502 83.11 86.5208 81.4184C86.1423 78.5971 86.1079 75.9766 86.4348 73.832C86.6813 72.2207 87.1458 70.6094 87.7766 69.2045C87.9543 68.8088 88.0977 68.482 88.0977 68.4762C88.0977 68.4246 87.9658 68.482 87.7364 68.6368Z" fill="#F490FD"/>
<path d="M91.5726 69.0512C90.5634 70.7715 89.7319 78.7707 89.8351 85.8353C89.881 88.7655 89.9957 90.285 90.2767 91.5867C90.443 92.3551 90.4774 92.3608 90.5863 91.6498C90.9762 89.0522 90.9934 88.5304 90.9762 81.85C90.9648 78.1342 90.982 75.399 91.0221 74.7109C91.1311 72.7097 91.326 71.0525 91.6242 69.5616C91.7045 69.1659 91.7618 68.8333 91.7446 68.8219C91.7332 68.8047 91.6529 68.9079 91.5726 69.0512Z" fill="white"/>
<path d="M94.1414 70.3057C94.2676 70.8677 94.4396 72.6338 94.5256 74.1362C94.6002 75.4551 94.5658 78.3566 94.4625 79.6697C94.1816 83.3568 93.5737 87.107 92.49 91.9352C92.1803 93.3343 92.1803 93.4204 92.5186 92.7609C94.1242 89.6071 95.5406 81.4473 95.4202 76.0285C95.3628 73.4538 95.0417 71.6934 94.4281 70.5982C94.2102 70.2082 94.0956 70.0878 94.1414 70.3057Z" fill="#F490FD"/>
<path d="M109.538 90.0736C109.274 90.3431 109.309 90.5381 109.676 90.8363C110.616 91.6104 111.642 92.9121 112.239 94.0933C112.841 95.2975 113.082 96.3698 113.024 97.6715C112.984 98.5316 112.973 98.6061 112.566 100.172C112.107 101.938 111.952 103.079 111.952 104.736C111.952 105.992 112.015 106.76 112.216 107.855C112.468 109.255 112.738 110.138 113.5 112.099C114.527 114.731 115.043 116.566 115.421 118.882C115.691 120.557 115.76 121.411 115.76 123.309C115.76 125.976 115.599 127.226 114.819 130.649C114.251 133.143 113.833 135.856 113.603 138.562C113.512 139.652 113.506 143.981 113.598 144.898C113.638 145.26 113.718 146.149 113.787 146.877C113.948 148.643 114.091 149.503 114.349 150.266C114.555 150.874 115.014 151.78 115.117 151.78C115.14 151.78 115.152 151.682 115.135 151.562C115.123 151.447 115.094 150.833 115.077 150.203C115.06 149.572 114.98 148.167 114.899 147.077C114.567 142.444 114.624 138.855 115.083 135.678C115.232 134.634 115.393 133.797 115.817 131.91C116.264 129.921 116.551 128.172 116.752 126.205C116.901 124.754 116.895 121.004 116.752 119.668C116.425 116.732 115.771 114.157 114.63 111.342C113.615 108.842 113.277 107.334 113.231 105.069C113.191 103.297 113.305 102.253 113.712 100.688C114.229 98.7036 114.2 98.8642 114.211 97.6485C114.217 96.6967 114.194 96.4329 114.085 95.8824C113.609 93.5314 112.439 91.5932 110.805 90.4464C109.934 89.8385 109.813 89.8041 109.538 90.0736Z" fill="#F490FD"/>
<path d="M103.58 92.4114C103.414 92.4744 103.236 92.6809 103.236 92.807C103.236 92.8758 103.305 93.1109 103.385 93.3231C103.609 93.9023 103.638 94.6764 103.466 95.2441C103.316 95.7487 103.207 95.9666 102.777 96.6432C101.883 98.0538 101.378 99.4473 101.229 100.915C101.195 101.305 101.189 102.16 101.212 103.335C101.258 105.055 101.264 105.159 101.378 105.313C101.533 105.52 101.751 105.6 101.957 105.526C102.221 105.434 102.261 105.267 102.198 104.556C102.135 103.897 102.17 102.595 102.267 101.661C102.468 99.7856 103.127 97.8359 104.068 96.3565C104.498 95.6856 104.595 95.4562 104.67 94.9746C104.744 94.4814 104.647 93.8679 104.389 93.2027C104.131 92.5433 103.884 92.2967 103.58 92.4114Z" fill="#F490FD"/>
<path d="M79.2383 92.4976C78.7394 92.6754 78.5559 92.9678 78.2463 94.0631C77.9309 95.1698 77.8334 95.8005 77.7933 96.8728C77.7417 98.3178 77.9079 99.6195 78.3782 101.489C79.1752 104.66 79.4791 106.707 79.5365 109.316C79.5995 112.097 79.3358 114.139 78.5444 117.029C77.8105 119.724 77.5467 121.295 77.5467 122.946C77.5467 124.495 77.9022 126.656 78.814 130.676C79.0032 131.513 79.2211 132.465 79.2956 132.798C79.5135 133.773 79.6339 134.036 80.0525 134.449C80.259 134.65 80.4367 134.799 80.4539 134.782C80.4998 134.736 80.2418 132.551 80.1214 132.006C79.2956 128.119 79.1064 126.685 79.0548 123.961C78.9974 120.905 79.2612 118.617 79.9837 115.939C80.7005 113.267 80.9356 110.973 80.7579 108.456C80.626 106.638 80.3679 105.136 79.7773 102.808C79.2899 100.87 79.0204 99.6596 78.8828 98.7938C78.7451 97.8763 78.7451 95.9897 78.8828 95.2672C79.0319 94.5046 79.3014 93.6789 79.611 93.0137L79.892 92.4288L79.6511 92.4345C79.5193 92.4345 79.3358 92.4632 79.2383 92.4976Z" fill="#F490FD"/>
<path d="M118.346 98.6331C117.99 98.8223 118.002 99.1033 118.386 99.6882C119.418 101.277 119.596 102.257 119.355 105.13C119.08 108.404 119.011 110.509 119.114 112.298C119.212 113.955 119.367 114.551 119.831 115.062C120.037 115.291 120.479 115.629 120.519 115.589C120.531 115.578 120.479 115.331 120.41 115.044C120.032 113.553 120.055 112.361 120.622 105.124C120.737 103.65 120.743 103.375 120.68 102.773C120.599 101.942 120.399 101.173 120.095 100.531C119.848 100.009 119.137 98.9026 118.908 98.6904C118.759 98.5528 118.529 98.5298 118.346 98.6331Z" fill="#F490FD"/>
<path d="M86.6354 101.396C86.5953 101.763 86.6067 101.832 86.8533 102.572C87.249 103.747 87.3178 104.189 87.3235 105.502C87.3235 107.205 87.0368 108.484 86.2512 110.319C85.6319 111.747 85.3911 112.372 85.2019 113.008C84.1812 116.5 84.4507 119.969 86.0448 123.909C86.4691 124.953 87.163 126.38 87.3292 126.552C87.4669 126.696 87.9485 126.885 88.0116 126.822C88.0518 126.782 87.0081 122.946 86.6354 121.759C86.0448 119.878 85.8728 118.983 85.8212 117.515C85.781 116.277 85.8957 115.222 86.2053 114.017C86.4347 113.111 86.6526 112.475 87.5414 110.089C88.2009 108.323 88.3041 107.985 88.413 107.314C88.522 106.643 88.522 105.278 88.413 104.613C88.1894 103.231 87.6962 102.084 87.0081 101.356L86.6755 101.001L86.6354 101.396Z" fill="#F490FD"/>
<path d="M93.4306 101.41C93.4306 101.427 93.6943 101.719 94.0097 102.052C95.5866 103.709 96.3378 104.902 96.9514 106.737C97.4732 108.279 97.6796 109.495 97.714 111.307C97.7656 113.698 97.5191 115.269 96.6188 118.24C95.535 121.824 95.1336 124.284 95.1336 127.409C95.1279 130.087 95.3917 131.933 96.1543 134.577C97.003 137.518 97.1865 138.717 97.1865 141.228C97.1808 142.656 97.1635 143.029 97.0202 144.181C96.8138 145.913 96.7679 147.341 96.894 148.213C96.9456 148.568 97.0087 148.901 97.0259 148.952C97.0947 149.124 97.7771 146.636 98.0696 145.15C98.3964 143.51 98.4882 142.645 98.5168 140.942C98.5627 138.522 98.4308 137.587 97.5363 134.055C96.5557 130.184 96.4984 129.817 96.4984 127.38C96.4984 125.453 96.5385 124.886 96.7908 123.223C97.0661 121.434 97.4388 119.805 98.1097 117.477C98.7749 115.149 98.8781 114.707 99.0214 113.475C99.1304 112.546 99.1304 110.883 99.0214 109.977C98.7519 107.821 97.9893 105.647 96.7736 103.612C96.269 102.763 95.5465 102.012 94.9616 101.725C94.5086 101.507 93.4306 101.284 93.4306 101.41Z" fill="#F490FD"/>
<path d="M127.922 133.085C127.652 133.188 127.629 133.297 127.773 133.704C127.899 134.042 127.91 134.174 127.916 135.201C127.922 136.502 127.887 136.709 127.486 137.701C126.821 139.358 126.568 140.757 126.568 142.804C126.568 144.14 126.614 144.828 126.861 146.933C126.947 147.718 127.05 148.624 127.079 148.945C127.119 149.364 127.176 149.611 127.285 149.84C127.429 150.138 127.819 150.574 127.95 150.574C128.008 150.574 128.145 150.144 128.237 149.662C128.329 149.181 128.306 148.16 128.186 147.156C127.893 144.777 127.813 143.292 127.893 141.881C127.985 140.258 128.18 139.226 128.667 137.729C128.971 136.795 129.04 136.405 129.04 135.596C129.04 134.897 128.902 133.738 128.788 133.463C128.639 133.102 128.266 132.941 127.922 133.085Z" fill="#F490FD"/>
<path d="M78.6019 138.589C78.447 138.652 78.2922 138.864 78.2922 139.019C78.2922 139.088 78.4184 139.398 78.5732 139.713C79.0147 140.607 79.1065 140.963 79.1409 141.835C79.1581 142.465 79.1466 142.66 79.0434 143.067C78.8828 143.727 78.4012 144.673 77.8105 145.499C76.3082 147.603 75.9412 149.346 76.1763 153.326C76.2164 153.94 76.2623 154.461 76.2795 154.479C76.2967 154.502 76.4171 154.53 76.5433 154.547L76.7726 154.582L76.9619 153.59C77.1052 152.839 77.1626 152.328 77.2027 151.514C77.2945 149.536 77.6041 148.234 78.3094 146.795C78.5847 146.239 78.7911 145.9 79.6225 144.685C80.4884 143.423 80.5859 141.989 79.9265 140.223C79.6512 139.484 79.29 138.79 79.1065 138.646C78.9574 138.526 78.8026 138.509 78.6019 138.589Z" fill="#F490FD"/>
</g>
<defs>
<filter id="filter0_f_1_168" x="0.887695" y="0.481934" width="199" height="199" filterUnits="userSpaceOnUse" color-interpolation-filters="sRGB">
<feFlood flood-opacity="0" result="BackgroundImageFix"/>
<feBlend mode="normal" in="SourceGraphic" in2="BackgroundImageFix" result="shape"/>
<feGaussianBlur stdDeviation="7" result="effect1_foregroundBlur_1_168"/>
</filter>
</defs>
</svg>
