<svg width="158" height="158" viewBox="0 0 158 158" fill="none" xmlns="http://www.w3.org/2000/svg">
<circle cx="78.6482" cy="79.3345" r="77" stroke="white" stroke-width="3"/>
<path d="M108.868 20.5072C108.186 20.6659 106.899 21.1805 105.608 21.8153C101.903 23.6338 98.4844 26.4389 95.422 30.1788C94.5857 31.1996 93.8823 32.1432 93.7236 32.4563C93.4577 32.9838 93.2732 33.031 92.5184 32.7522C90.9443 32.1775 89.6147 31.9459 85.6646 31.5556C81.2812 31.1224 78.1803 31.5427 75.4182 32.9452C74.8477 33.2326 74.7062 33.2712 74.5432 33.1554C74.4917 33.1211 74.2816 32.838 74.08 32.5249C72.6603 30.3504 70.8675 28.8235 67.7795 27.1594C66.823 26.6404 62.9329 24.719 62.6498 24.6203C62.5083 24.5731 62.2939 24.5431 62.0966 24.5431C61.8135 24.5388 61.732 24.5603 61.4875 24.6804C60.9986 24.9205 60.5225 25.4824 60.3424 26.0314C60.1322 26.679 60.115 27.2366 60.2737 28.3346C61.0672 33.8416 62.7013 37.899 65.4334 41.1372C65.6307 41.3731 66.0682 41.8578 66.407 42.2138L67.016 42.8571L67.0418 43.3289C67.1233 44.74 67.6637 45.5978 69.4951 47.2319C70.3357 47.9782 70.4773 48.1283 70.756 48.5314C71.3222 49.3549 71.4466 50.2213 71.1463 51.2335C70.9061 52.0527 70.9061 52.8419 71.1463 53.5624C71.438 54.4331 71.7725 54.8663 73.4367 56.5561C74.8477 57.9801 75.148 58.3361 75.4825 58.9708C75.8685 59.7085 76.4775 61.6944 76.6748 62.8824C76.8164 63.7016 76.8507 64.1176 76.8507 64.9497C76.8507 65.8375 76.7778 66.4852 76.5934 67.2829C76.5247 67.5788 76.4261 68.1364 76.3789 68.5267C76.1602 70.3109 76.0701 70.7355 75.7784 71.3146C75.5897 71.692 75.4911 71.825 74.7705 72.6699C74.5132 72.9744 74.0757 73.4934 73.8055 73.8236C72.7075 75.1532 71.8583 75.848 70.7946 76.2855C70.2414 76.5128 69.9926 76.7144 69.1262 77.6151C67.282 79.5366 65.9395 81.2221 64.4341 83.491C63.1817 85.3782 62.5169 86.5233 61.0243 89.3669C59.3945 92.4722 58.6396 93.7503 57.6231 95.1142C56.7739 96.255 56.0705 97.0185 54.8696 98.095C51.7429 100.9 49.9287 103.469 48.9079 106.544C48.7578 106.99 48.5648 107.685 48.479 108.088C48.226 109.285 48.1745 109.457 47.8314 110.169C47.1108 111.695 46.7248 113.008 46.5189 114.629C46.4846 114.921 46.4632 115.564 46.4632 116.452C46.4675 117.97 46.5189 118.575 46.742 119.69C47.484 123.349 49.7271 126.287 53.0468 127.942C54.3035 128.568 55.4572 128.929 56.9069 129.156C57.6189 129.267 59.5189 129.267 60.188 129.156C60.4496 129.113 60.7841 129.057 60.9385 129.032C61.346 128.963 62.607 128.976 63.0187 129.049C63.2074 129.087 63.7478 129.194 64.2196 129.289C65.8194 129.619 66.9131 129.722 67.9639 129.641C69.9797 129.495 70.9662 128.894 71.3222 127.603C71.4937 126.977 71.4466 126.355 71.1764 125.78C71.0177 125.442 70.5159 124.923 70.1427 124.708C69.6967 124.455 69.5122 124.249 69.4222 123.893C69.4007 123.812 69.3664 121.736 69.345 119.283C69.3021 114.2 69.2334 112.48 69.019 110.812C68.826 109.332 68.3456 107.934 67.668 106.909C67.149 106.12 66.184 105.275 65.3433 104.876C64.9144 104.674 64.2453 104.447 63.8122 104.357C62.341 104.048 59.802 104.691 57.4216 105.97C56.4694 106.48 55.4143 107.239 54.9082 107.771C54.6895 108.003 54.2906 108.526 54.2906 108.577C54.2906 108.59 54.3378 108.659 54.3978 108.723C54.4836 108.813 54.5479 108.839 54.6809 108.839C54.9082 108.839 54.9854 108.796 55.3628 108.436C56.4994 107.355 58.7726 106.133 60.6297 105.605C63.023 104.923 64.7729 105.206 66.0467 106.476C66.4971 106.93 66.763 107.308 67.0761 107.93C67.7151 109.229 68.1355 111.275 68.3199 114.007C68.3585 114.535 68.3756 116.195 68.3756 119.244L68.3799 123.709L68.1526 123.632C68.0282 123.589 67.728 123.507 67.4878 123.456C66.8616 123.314 65.7636 123.314 65.0688 123.456C64.5113 123.567 63.5763 123.859 62.9801 124.108C62.7528 124.202 62.5598 124.279 62.5512 124.279C62.5383 124.279 62.637 124.099 62.7699 123.885C63.0873 123.349 63.6406 122.212 63.8293 121.697C64.567 119.707 64.597 117.962 63.9194 116.152C63.7693 115.744 63.409 114.998 63.2074 114.672L63.1131 114.522L63.0144 114.779C62.8557 115.195 62.8729 115.53 63.0873 116.057C63.825 117.889 63.7521 119.849 62.8686 121.886C62.7699 122.105 62.4268 122.795 62.0966 123.422C61.376 124.798 61.0543 125.519 60.7241 126.488C60.4367 127.346 60.3509 127.522 60.115 127.779C59.7548 128.169 59.2701 128.29 58.2922 128.221C55.5087 128.028 53.2398 127.222 51.417 125.776C50.9195 125.382 50.126 124.562 49.7357 124.039C48.063 121.787 47.2524 118.686 47.4282 115.195C47.5183 113.385 47.6212 112.986 48.5391 111.009C49.2682 109.435 49.3197 109.289 49.7271 107.531C50.2246 105.378 51.1596 103.491 52.6093 101.724C53.0725 101.157 54.0161 100.201 54.6981 99.6176C56.5209 98.0436 58.0006 96.3494 59.3773 94.2564C60.2866 92.871 60.7412 92.069 61.7878 90.0103C63.3704 86.8879 64.67 84.7434 66.7029 81.9041C68.6759 79.142 69.8425 77.8467 71.142 76.9717C71.5795 76.6801 72.3001 76.2855 72.3987 76.2855C72.5317 76.2855 72.6132 76.5 72.6475 76.916C72.6818 77.4092 72.7461 77.5036 73.0549 77.495C73.4538 77.4907 73.5825 77.3149 73.6425 76.6844C73.7583 75.3977 74.0586 74.8058 75.3281 73.3475C75.7012 72.9229 76.0873 72.4554 76.1945 72.3053C76.4347 71.9708 76.529 71.9408 76.7992 72.1166C77.7685 72.7471 79.66 73.592 81.3756 74.1625C83.2928 74.7972 85.0813 75.1575 87.0928 75.3033C87.9978 75.3677 90.2881 75.3334 91.133 75.239C93.2432 75.0031 95.2548 74.5527 97.2706 73.8622C97.7252 73.7078 98.1284 73.5749 98.1627 73.5706C98.2227 73.562 99.9769 78.0011 100.715 80.0384C101.5 82.1914 101.963 84.0186 102.134 85.6569C102.207 86.3646 102.216 87.8615 102.151 88.7579C101.847 92.9783 100.547 96.7826 98.1884 100.347C96.5071 102.89 94.1439 105.425 91.3904 107.634C90.035 108.723 88.9628 109.349 87.4016 109.967C85.7246 110.632 84.2406 111.001 80.3033 111.734C78.6692 112.034 78.4205 112.094 78.2489 112.232C78.0302 112.403 77.9744 112.596 77.8586 113.544C77.5284 116.353 77.5155 117.16 77.7514 119.69C77.7986 120.196 77.8843 121.354 77.9444 122.263C78.2403 126.78 78.3819 128.217 78.7207 130.241C78.8408 130.97 79.1625 132.501 79.2783 132.892C79.304 132.977 79.274 132.969 79.0252 132.793C78.6606 132.54 78.0302 132.244 77.6227 132.132C76.5633 131.845 75.4825 131.939 73.8184 132.463L73.4281 132.587L73.4023 132.368C73.2351 130.953 72.8019 123.868 72.5831 118.961C72.4159 115.114 72.3515 112.823 72.3044 108.56C72.2486 103.461 72.1285 101.616 71.6825 98.867C71.438 97.3702 71.2793 96.6496 70.7003 94.4279C70.3228 92.974 70.1642 91.8717 70.1298 90.4821C70.1041 89.4527 70.1427 88.8565 70.2928 87.9601C70.5845 86.2016 71.335 84.4903 72.5531 82.8048C72.7247 82.5646 72.7633 82.3587 72.6732 82.1486C72.596 81.9555 72.5274 81.9513 72.2357 82.1185C71.957 82.2772 71.7725 82.4874 71.245 83.2465C70.4901 84.3359 70.0698 85.1637 69.7095 86.2574C69.3064 87.4841 69.1562 88.4448 69.1562 89.8816C69.1562 91.2369 69.2377 91.8717 69.6666 93.7417C70.5244 97.4946 70.9834 100.84 71.2836 105.494C71.3222 106.077 71.3393 107.835 71.3393 111.348C71.3436 114.655 71.3608 116.688 71.3951 117.31C71.5409 119.935 71.6524 121.47 72.0041 125.566C72.1199 126.921 72.2272 128.165 72.24 128.332C72.2572 128.495 72.3172 129.113 72.3773 129.705C72.5188 131.039 72.536 132.476 72.4245 133.093C72.3001 133.749 72.1414 134.225 71.8111 134.916C71.4466 135.679 71.4037 135.817 71.4037 136.211C71.4037 136.94 71.9055 137.515 72.7118 137.717C72.8534 137.755 73.278 137.802 73.6597 137.828C74.0371 137.854 74.8263 137.935 75.4182 138.004C78.0302 138.317 79.0209 138.283 80.3891 137.828C80.9896 137.627 81.2126 137.507 81.4957 137.236C81.8345 136.906 81.9374 136.52 81.8045 136.018C81.723 135.701 81.5986 135.461 81.1268 134.702C80.4191 133.569 80.3419 133.346 80.0074 131.571C79.5956 129.387 79.2868 126.66 78.9909 122.714C78.8579 120.904 78.8923 120.552 79.2439 120.192C79.4798 119.947 79.7329 119.836 80.5521 119.621C83.6273 118.815 86.1235 117.481 88.4567 115.397C89.9707 114.05 91.5147 112.15 92.75 110.126C92.913 109.855 93.1317 109.474 93.2303 109.281C93.4362 108.886 93.6764 108.59 93.8951 108.462L94.041 108.376L94.0667 108.616C94.1396 109.315 94.1868 110.868 94.1868 112.57C94.1868 115.067 94.1139 116.576 93.8351 119.754C93.6464 121.933 93.6206 122.336 93.5906 123.765C93.5434 126.158 93.7365 128.079 94.2082 129.958C94.5385 131.275 94.783 131.832 95.2505 132.304C95.5764 132.634 95.8724 132.793 96.3013 132.862C96.5586 132.904 96.6873 132.9 97.2448 132.823C98.4672 132.647 98.8232 132.626 100.076 132.626C101.036 132.626 101.487 132.643 102.049 132.707C103.301 132.853 103.665 132.802 104.043 132.433C104.305 132.184 104.373 131.961 104.296 131.644C104.232 131.378 103.828 130.58 103.502 130.078C102.769 128.95 102.164 128.35 100.766 127.359C100.402 127.097 100.174 126.758 100.076 126.325C99.9469 125.776 99.9812 123.13 100.14 121.148C100.384 118.137 100.852 115.32 102.113 109.311C103.623 102.114 104.073 98.9614 104.159 95.0069C104.232 91.3527 103.743 87.0552 102.833 83.4267C102.181 80.8233 101.452 78.7731 100.286 76.2598C99.8097 75.2347 99.6681 74.8616 99.4751 74.1196C99.192 73.043 99.0891 72.2324 99.0248 70.4996C98.969 69.0585 98.8789 67.4845 98.746 65.6488C98.4286 61.3212 98.36 59.8501 98.3943 57.9286C98.4458 54.8749 98.6516 53.6997 99.7325 50.3157C100.479 47.9739 100.762 46.8544 100.929 45.5677C100.968 45.2718 101.028 44.9973 101.079 44.8987C101.126 44.8086 101.405 44.5169 101.731 44.2253C103.777 42.3724 105.583 39.8677 106.788 37.1956C108.225 34.0132 109.245 30.3418 109.854 26.1515C110.18 23.8998 110.343 21.7338 110.219 21.2106C110.146 20.8932 110.013 20.6702 109.842 20.5629C109.657 20.4514 109.224 20.4257 108.868 20.5072ZM109.074 21.6437C109.267 21.7939 109.301 22.0855 109.215 22.8533C108.439 29.9215 107.187 34.4421 104.888 38.4566C103.451 40.9614 101.825 42.8571 99.7024 44.4955C98.9261 45.096 98.7932 45.3147 99.0677 45.5506C99.1878 45.6492 99.5566 45.7908 99.6939 45.7908C99.7239 45.7908 99.8011 45.8122 99.8654 45.8422C99.9769 45.8937 99.9769 45.9023 99.9555 46.1982C99.9212 46.6314 99.6209 47.6608 98.939 49.6938C98.3214 51.538 98.0769 52.3915 97.8925 53.3823C97.3478 56.2688 97.2577 58.9837 97.6094 61.8745C97.7381 62.9253 97.811 64.0833 97.8925 66.1635C97.9997 68.9427 97.9997 68.9256 97.8539 69.2172C97.6308 69.6762 97.2062 69.9378 96.3956 70.1308C95.3491 70.3753 93.9938 70.6026 92.7843 70.7313C91.9093 70.8256 89.4646 70.8642 88.5511 70.7999C85.3129 70.564 82.3106 69.7319 79.3855 68.2651C78.3733 67.759 78.0345 67.4802 77.7814 66.9441L77.6442 66.6567L77.657 65.1556C77.6742 63.4914 77.6356 62.9982 77.4083 61.8745C77.2067 60.8709 76.8207 59.6871 76.3575 58.6492C76.2288 58.3618 76.1301 58.1216 76.1344 58.1173C76.1387 58.113 76.5505 58.1516 77.0437 58.2074C79.2997 58.4605 81.0282 58.469 82.4693 58.2417C83.2327 58.1216 83.4386 58.1559 83.9704 58.4948C85.6474 59.567 87.5517 59.8029 90.2109 59.2754C91.3989 59.0395 93.4105 58.5291 93.6335 58.4133C93.9166 58.2546 94.0152 58.0959 93.9938 57.83C93.9552 57.3968 93.7107 57.3196 93.0974 57.5469C92.4583 57.7828 89.559 58.4647 88.3666 58.662C87.7404 58.765 86.9641 58.7821 86.6725 58.7049C86.5653 58.6749 86.3208 58.5548 86.1278 58.439C85.2571 57.9115 84.3007 57.5898 83.1984 57.4611C82.4564 57.3753 81.723 57.3625 80.2175 57.4139C78.5062 57.4697 77.9701 57.4482 77.1037 57.2681C76.1473 57.0665 74.7319 56.539 74.2087 56.183C74.0714 56.0886 73.857 55.9042 73.7326 55.7713C73.471 55.4968 73.145 55.0078 73.1922 54.9649C73.278 54.8877 74.0757 54.7977 74.6805 54.7977C75.4482 54.7977 75.8814 54.8534 77.2539 55.1193C78.9137 55.4367 79.4884 55.501 80.7537 55.501C81.9246 55.5053 82.3835 55.4582 83.2627 55.248C84.1934 55.0293 85.6217 54.4417 85.9691 54.1414C86.1321 53.9999 86.2436 53.7897 86.2436 53.6268C86.2436 53.5581 85.9176 53.4595 85.6817 53.4595C85.4287 53.4595 85.3257 53.4938 84.4465 53.897C83.1512 54.4846 82.0318 54.699 80.4577 54.6561C79.4756 54.6304 79.1582 54.5875 77.8329 54.3044C76.0444 53.9184 75.0879 53.8069 73.5482 53.794C72.5488 53.7855 72.4373 53.7812 72.2615 53.6997C71.8669 53.5195 71.6224 53.0563 71.6825 52.5974C71.7253 52.2886 72.1199 51.2935 72.2229 51.2378C72.3086 51.1906 72.4802 51.2549 72.6818 51.4136C72.8019 51.5037 73.4495 51.7224 73.8913 51.8211C74.0757 51.8597 74.4231 51.894 74.7062 51.894C75.4696 51.9026 75.9757 51.7182 76.4561 51.2635C76.7349 51.0019 76.9794 50.5987 77.1252 50.1655C77.3911 49.3678 77.2839 48.6858 76.7778 47.9224C76.499 47.5021 75.8342 46.8459 75.401 46.5671C75.2037 46.4384 75.0236 46.2969 75.0021 46.2497C74.9206 46.1039 75.0364 45.9409 75.4525 45.6235C76.9665 44.4741 77.7986 42.9557 78.2446 40.5282C78.3004 40.2194 78.4162 39.4945 78.502 38.9198C78.7593 37.1356 78.9652 36.2606 79.364 35.2527C80.0589 33.4942 80.7622 32.7694 82.0618 32.482C82.4607 32.3963 82.5937 32.3877 83.949 32.392C86.175 32.3963 88.1736 32.5807 90.1895 32.971C91.459 33.2155 92.364 33.58 93.1103 34.1419C93.8094 34.6694 94.264 35.2399 94.8216 36.2692C95.2161 37.0026 95.3748 37.2471 95.6665 37.6117C96.0525 38.0835 96.5801 38.4309 97.1719 38.6024C97.3649 38.6582 97.3992 38.6582 97.3821 38.611C97.3392 38.5038 96.0268 36.488 95.2333 35.3128C94.1482 33.7087 94.2082 33.8116 94.1868 33.55C94.1611 33.2498 94.2597 33.0696 94.8773 32.2676C98.716 27.2924 102.683 24.0327 107.272 22.0684C108.448 21.5623 108.851 21.4679 109.074 21.6437ZM62.8514 25.8084C63.5977 26.0571 66.3169 27.451 67.8352 28.3603C68.4528 28.7335 69.6709 29.5269 70.1813 29.8958C71.7725 31.0366 72.9606 32.4434 73.8656 34.2405C74.0929 34.7037 74.5775 35.866 74.5775 35.9604C74.5775 36.0719 74.6547 36.0033 74.6805 35.8703C74.6933 35.7974 74.7705 35.583 74.852 35.4028C75.4739 33.9746 76.7349 32.9881 78.4033 32.6279C78.8408 32.5335 79.9731 32.4306 80.1103 32.4735C80.1789 32.4949 80.1446 32.5549 79.8744 32.9152C78.815 34.3306 78.1545 35.9261 77.7771 37.9848C77.6613 38.6196 77.6141 38.9841 77.5155 40.0221C77.4211 41.0471 77.241 41.7119 76.8507 42.4883C76.1859 43.8178 75.0407 44.9844 73.1836 46.2325C71.5838 47.3048 70.7346 47.2533 69.5508 46.0138C68.4614 44.8686 67.9467 43.9294 67.7838 42.7928L67.7537 42.6041L68.2813 43.1102C69.212 44.0066 69.5122 44.1738 70.2028 44.1781C70.5201 44.1781 70.6745 44.1567 70.8976 44.0838C71.6267 43.835 72.2572 43.1788 72.5188 42.4025C72.6389 42.0551 72.6217 41.6648 72.4759 41.3517C72.343 41.0643 71.8883 40.6225 71.4551 40.3566L71.1077 40.1422L71.2364 39.9878C71.4251 39.7562 71.6996 39.5846 72.2615 39.3358C72.9263 39.0442 73.2865 38.8469 73.3637 38.7268C73.4452 38.6067 73.4152 38.3537 73.308 38.2379C73.2136 38.1349 73.0764 38.1349 72.7547 38.2421C72.6132 38.2893 72.3044 38.3837 72.0685 38.4523C71.0477 38.7568 70.0484 39.3787 68.7445 40.5325C68.0625 41.1286 67.7452 41.3517 67.4664 41.4117C66.9388 41.5232 66.5614 41.2444 65.9352 40.2751C63.6234 36.7281 62.1738 33.3999 61.5218 30.166C61.2045 28.5876 61.0715 27.0007 61.213 26.4474C61.3589 25.8813 61.599 25.6797 62.1309 25.6754C62.3711 25.6754 62.5426 25.7054 62.8514 25.8084ZM70.0355 41.3088C70.8761 41.609 70.8075 42.8228 69.9368 43.0544C69.5465 43.1573 69.1219 42.9515 68.9289 42.574C68.7402 42.2052 68.8346 41.7248 69.1477 41.4761C69.435 41.2487 69.7095 41.1973 70.0355 41.3088ZM102.966 94.0205C102.979 96.6325 102.748 99.5576 102.344 101.955C102.31 102.165 101.971 103.885 101.598 105.772C100.307 112.266 99.874 114.728 99.4794 117.846C99.162 120.329 99.0334 121.869 98.9819 123.872C98.9304 125.969 98.9905 126.492 99.3765 127.282C99.5223 127.578 99.6338 127.723 99.9683 128.058C100.243 128.337 100.483 128.53 100.697 128.654C101.534 129.13 102.053 129.593 102.49 130.262C102.773 130.687 103.254 131.644 103.211 131.686C103.146 131.751 102.482 131.721 102.229 131.639C102.006 131.566 101.868 131.485 101.285 131.073C100.998 130.867 100.916 130.897 100.449 131.39C100.016 131.841 99.8397 131.957 99.5609 131.957C99.1878 131.957 98.8661 131.686 98.3943 130.979C98.0597 130.477 97.8839 130.314 97.6995 130.335C97.4807 130.361 97.3521 130.739 97.3521 131.348C97.3521 131.592 97.3392 131.635 97.2277 131.746C97.1119 131.858 97.0733 131.871 96.8074 131.871C96.3313 131.871 95.9581 131.639 95.7394 131.215C95.6279 131 95.3877 130.271 95.2462 129.722C94.8516 128.161 94.6114 125.527 94.6672 123.336C94.71 121.642 94.783 120.655 95.0918 117.653L95.2676 115.894V113.879C95.2676 112.506 95.2419 111.455 95.1947 110.576C95.0918 108.813 95.0532 106.677 95.1175 106.266C95.1904 105.772 95.392 105.408 95.8638 104.906C97.811 102.817 99.1492 100.977 100.419 98.6311C101.294 97.0185 102.194 94.8611 102.722 93.1069L102.906 92.4893L102.932 92.7638C102.949 92.9096 102.962 93.4758 102.966 94.0205ZM92.5355 108.59C89.5418 113.939 85.5616 117.271 80.3548 118.789C79.2225 119.12 78.8923 119.12 78.7078 118.777C78.6435 118.652 78.6306 118.429 78.6178 116.521C78.6006 113.728 78.6392 113.42 79.0681 113.042C79.3855 112.768 79.7458 112.682 81.3112 112.51C82.8253 112.343 83.8246 112.167 84.9998 111.858C87.4874 111.206 89.8206 110.104 91.8064 108.642C92.0766 108.44 92.7628 108.058 92.7972 108.088C92.8014 108.093 92.6856 108.32 92.5355 108.59ZM67.1233 124.447C68.0282 124.682 69.5036 125.424 69.924 125.849C70.2628 126.196 70.4344 126.776 70.3314 127.252C70.2285 127.753 69.924 128.041 69.1648 128.354L68.7659 128.521L68.7402 128.041C68.6887 127.187 68.3714 126.441 68.0454 126.415C67.5307 126.381 67.372 126.565 67.4792 127.08C67.5779 127.556 67.565 127.908 67.4364 128.165C67.2519 128.538 67.0117 128.607 66.1582 128.53C65.5406 128.474 65.2232 128.35 64.9702 128.066C64.8072 127.882 64.7557 127.758 64.6099 127.23C64.4898 126.797 64.2196 126.595 63.8422 126.655C63.5076 126.711 63.4562 126.844 63.5763 127.346C63.6363 127.586 63.632 127.612 63.5634 127.711C63.5205 127.766 63.4004 127.861 63.2932 127.916C63.1216 128.006 63.0659 128.015 62.6756 127.998C62.1652 127.976 61.672 127.869 61.5433 127.749C61.4146 127.629 61.4275 127.457 61.6076 127.054C61.8435 126.514 62.0408 126.218 62.4182 125.841C63.1559 125.094 64.2067 124.571 65.3348 124.387C65.8537 124.305 66.6858 124.331 67.1233 124.447ZM76.6362 132.96C78.1974 133.243 79.6557 134.294 80.5564 135.795C80.6765 135.988 80.7108 136.095 80.7108 136.25C80.7108 136.43 80.6893 136.473 80.5521 136.61C80.1532 136.996 79.2482 137.228 78.9523 137.018C78.8022 136.91 78.6735 136.58 78.6049 136.147C78.5792 135.98 78.5277 135.778 78.4891 135.709C78.4548 135.637 78.3819 135.465 78.3347 135.328C78.2189 135.002 78.0859 134.895 77.8457 134.937C77.7471 134.95 77.6184 135.015 77.5584 135.07C77.4297 135.191 77.4297 135.272 77.5498 135.774C77.8114 136.863 77.8457 137.03 77.79 137.061C77.7642 137.082 77.4683 137.108 77.1338 137.125C75.8685 137.185 75.6412 136.996 75.238 135.559C75.1523 135.242 75.0622 134.963 75.045 134.942C74.9335 134.813 74.4917 135.165 74.4103 135.452C74.3674 135.589 74.2859 136.417 74.2773 136.726C74.2773 136.765 74.2344 136.85 74.1786 136.915C74.0929 137.013 74.05 137.026 73.8441 137.022C73.6082 137.022 73.085 136.863 72.8619 136.726C72.6861 136.619 72.5145 136.447 72.4416 136.31C72.3472 136.126 72.3601 135.688 72.4759 135.345C72.9906 133.788 74.9635 132.66 76.6362 132.96Z" fill="white"/>
<path d="M69.6017 47.3254C69.5675 47.295 69.532 47.2634 69.4952 47.2308C69.5288 47.2659 69.5643 47.2974 69.6017 47.3254C70.3485 47.9907 70.4896 48.1448 70.7562 48.5303C71.3164 49.3452 71.4441 50.2021 71.1557 51.2008C71.1519 51.2097 71.149 51.2195 71.1472 51.23C71.1501 51.2203 71.1529 51.2105 71.1557 51.2008C71.2623 50.9543 72.1242 51.2902 72.223 51.2367C72.3088 51.1895 72.4804 51.2538 72.6819 51.4125C72.802 51.5026 73.4497 51.7213 73.8914 51.82C74.0759 51.8586 74.4233 51.8929 74.7063 51.8929C75.4698 51.9015 75.9759 51.7171 76.4563 51.2624C76.735 51.0008 76.9795 50.5976 77.1253 50.1644C77.3913 49.3667 77.284 48.6847 76.7779 47.9213C76.4991 47.501 75.8343 46.8448 75.4012 46.566C75.2039 46.4373 75.0237 46.2958 75.0023 46.2486C74.9208 46.1028 75.0366 45.9398 75.4526 45.6224C74.3627 45.1996 70.8839 48.2872 69.6017 47.3254Z" fill="#A090FD"/>
<path d="M84.4337 38.1598C84.1592 38.1984 83.6789 38.3185 83.5888 38.37C83.5545 38.3872 84.1892 38.563 85.1457 38.7989C86.0335 39.0134 86.8313 39.2106 86.9128 39.2364L87.0629 39.275L86.7884 39.4851C85.7376 40.2829 85.4888 41.2822 86.1193 42.2258C86.441 42.7062 86.8742 42.9978 87.5518 43.1823C87.8563 43.2637 88.0065 43.2766 88.86 43.2766C89.8722 43.2766 90.2239 43.238 90.5756 43.0836C91.0645 42.8692 91.2361 42.5046 91.116 41.9384C90.8844 40.819 89.9579 39.7382 88.5898 38.9748C87.9464 38.6188 86.9728 38.2971 86.1793 38.177C85.7247 38.1084 84.8369 38.0998 84.4337 38.1598ZM88.7484 40.0942C89.0959 40.2014 89.3746 40.6003 89.3746 40.9949C89.3746 41.2093 89.1773 41.5739 88.9929 41.694C88.5855 41.9642 88.1137 41.9127 87.8006 41.5739C87.3803 41.1192 87.5046 40.4287 88.0493 40.1542C88.2981 40.0298 88.4825 40.017 88.7484 40.0942Z" fill="#A090FD"/>
<path d="M76.5934 67.2839C76.7779 66.4862 76.8508 65.8385 76.8508 64.9507L77.6442 66.6577L77.7815 66.9451C78.0345 67.4812 78.3734 67.76 79.3856 68.2661C82.3107 69.7329 85.3129 70.565 88.5511 70.8009C89.4647 70.8652 91.9094 70.8266 92.7844 70.7323C93.9939 70.6036 95.3492 70.3763 96.3957 70.1318C97.2063 69.9388 97.6309 69.6772 97.854 69.2182C97.9998 68.9266 98.8541 68.44 98.7469 65.6608C98.8794 67.4917 98.9692 69.0624 99.0248 70.5007C99.0892 72.2334 99.1921 73.044 99.4752 74.1206C99.6682 74.8626 98.6658 73.4484 98.1628 73.5716C98.1285 73.5759 97.7253 73.7088 97.2707 73.8632C95.2548 74.5538 93.2433 75.0041 91.1331 75.24C90.2882 75.3343 87.9979 75.3687 87.0929 75.3043C85.0813 75.1585 83.2928 74.7982 81.3757 74.1634C79.6601 73.593 77.7686 72.7481 76.7993 72.1176C76.5291 71.9418 76.0187 70.981 75.7785 71.3156C76.0702 70.7365 76.1602 70.3119 76.379 68.5277C76.4262 68.1374 76.5248 67.5798 76.5934 67.2839Z" fill="#A090FD"/>
<path d="M84.4338 38.1612C84.1593 38.1998 83.6789 38.3199 83.5888 38.3713C83.5545 38.3885 84.1893 38.5644 85.1457 38.8002C86.0336 39.0147 86.8313 39.212 86.9128 39.2377L87.0629 39.2763L86.7884 39.4865C85.7376 40.2842 85.4889 41.2836 86.1193 42.2272C86.441 42.7075 86.8742 42.9992 87.5519 43.1836C87.8564 43.2651 88.0065 43.278 88.86 43.278C89.8722 43.278 90.2239 43.2394 90.5756 43.0849C91.0645 42.8705 91.2361 42.5059 91.116 41.9398C90.8844 40.8204 89.958 39.7395 88.5898 38.9761C87.9464 38.6201 86.9728 38.2984 86.1794 38.1783C85.7247 38.1097 84.8369 38.1011 84.4338 38.1612ZM88.7485 40.0955C89.0959 40.2027 89.3747 40.6016 89.3747 40.9962C89.3747 41.2107 89.1774 41.5752 88.993 41.6953C88.5855 41.9655 88.1137 41.9141 87.8006 41.5752C87.3803 41.1206 87.5047 40.4301 88.0494 40.1556C88.2981 40.0312 88.4826 40.0183 88.7485 40.0955Z" fill="#A090FD"/>
</svg>
