<svg width="232" height="167" viewBox="0 0 232 167" fill="none" xmlns="http://www.w3.org/2000/svg">
<mask id="mask0_1_192" style="mask-type:alpha" maskUnits="userSpaceOnUse" x="0" y="0" width="232" height="167">
<rect x="0.148193" width="231" height="167" fill="#D9D9D9"/>
</mask>
<g mask="url(#mask0_1_192)">
<g filter="url(#filter0_f_1_192)">
<circle cx="115.148" cy="76" r="62.5" stroke="white" stroke-width="3"/>
<path d="M109.544 28.021C107.678 28.0732 105.868 28.1863 105.316 28.2777C103.967 28.5082 102.745 29.0172 101.705 29.7916C101.153 30.2048 100.431 30.9487 99.9174 31.6361C99.1387 32.6758 98.5819 33.076 97.5161 33.3674C94.7493 34.12 93.0354 35.7557 92.1262 38.5225C91.8956 39.2185 91.7607 39.8058 91.578 40.8933C91.1561 43.3947 90.5209 45.9526 89.7335 48.3322C88.9331 50.7335 88.1936 52.504 86.9625 54.9445C86.2838 56.2974 86.0576 56.8195 85.7531 57.7548C85.2441 59.3252 84.9005 61.1305 84.622 63.7102C84.4524 65.2502 84.4089 66.1855 84.435 67.4949C84.5046 70.6706 85.0788 73.6069 86.2751 76.8609C86.8668 78.4618 87.7672 80.4585 88.1805 81.0806C88.4372 81.4678 88.7983 81.8028 89.1071 81.9507C89.3377 82.0594 89.4029 82.0681 89.8597 82.0638C90.4296 82.0638 90.621 82.0116 91.3823 81.6505C91.9261 81.3895 92.4481 81.1024 93.8358 80.2976C94.4057 79.967 94.8799 79.7016 94.8842 79.706C94.8929 79.7147 94.8233 80.0714 94.7276 80.502C94.5275 81.433 94.2882 82.8251 94.1795 83.6995C94.1186 84.2084 94.1012 84.6478 94.1012 85.9616C94.1012 88.0584 94.1925 89.0546 94.7319 93.0524C95.1235 95.9627 95.2105 97.0198 95.2105 98.9035C95.2105 101.087 95.0408 103.345 94.5753 107.452C94.2926 109.944 94.2143 110.345 93.3834 113.52C93.2398 114.068 93.0441 114.912 92.944 115.391C92.6395 116.896 92.5177 117.04 91.3997 117.148C90.4644 117.244 89.8815 117.475 89.3986 117.957C88.907 118.445 88.7504 118.875 88.7547 119.741C88.7547 120.15 88.7765 120.337 88.8505 120.602C89.1724 121.729 89.9641 122.547 91.3997 123.221C92.596 123.787 93.6183 124 95.1235 124C96.4285 124.004 97.142 123.909 99.1474 123.46C100.857 123.082 101.336 123.021 102.475 123.034L103.237 123.047L103.519 122.912C103.68 122.838 103.889 122.69 104.007 122.573C104.233 122.342 104.503 121.851 104.646 121.416C104.842 120.807 104.872 120.541 104.911 118.88C104.929 117.997 104.955 117.27 104.964 117.261C104.972 117.253 105.094 117.344 105.238 117.466C106.56 118.571 107.234 119.041 108.205 119.532C109.766 120.333 111.663 120.881 113.516 121.068C113.76 121.09 114.025 121.142 114.103 121.181C114.451 121.355 114.612 121.664 114.612 122.155C114.612 122.556 114.699 123.117 114.795 123.339C114.904 123.595 115.156 123.83 115.404 123.9C115.67 123.978 116.387 123.965 117.223 123.869C118.254 123.752 121.403 123.752 123.226 123.874C124.896 123.982 126.767 123.987 127.533 123.882C129.769 123.574 130.478 122.995 129.999 121.864C129.795 121.385 129.738 121.116 129.76 120.728C129.799 120.128 130.047 119.632 130.713 118.832C131.056 118.414 131.074 118.401 131.113 118.506C131.135 118.562 131.269 118.845 131.409 119.132C132.309 120.998 133.706 122.094 135.624 122.442C136.037 122.521 137.051 122.547 138.169 122.508C138.495 122.499 138.847 122.521 139.278 122.582C140.822 122.804 142.898 122.86 143.698 122.703C144.82 122.482 145.656 121.968 145.986 121.298C146.399 120.459 146.034 119.228 145.116 118.362C144.577 117.853 144.003 117.575 142.767 117.214C142.393 117.105 142.062 117 142.032 116.983C141.997 116.966 142.032 116.874 142.136 116.696C142.393 116.265 143.124 114.782 143.424 114.086C145.368 109.566 145.977 104.807 145.281 99.5342C144.881 96.5152 144.181 94.0225 143.146 91.9605C142.323 90.3161 141.171 88.7675 140.566 88.489C140.283 88.3585 139.926 88.302 139.583 88.3368C139.187 88.3716 138.391 88.5499 137.951 88.7022C137.399 88.898 137.286 88.8719 137.138 88.5369C136.973 88.1715 136.585 87.532 135.911 86.5358C134.985 85.1524 134.619 84.4042 134.419 83.4819C134.293 82.886 134.315 81.8376 134.484 80.5586C134.689 79.023 134.68 78.5009 134.428 77.0262C133.897 73.9332 133.532 71.1273 133.34 68.6912C133.205 66.9294 133.179 66.2507 133.162 63.7972C133.144 61.2654 133.114 60.5215 132.988 59.5122C132.692 57.1501 131.979 54.8619 130.947 52.9869C130.808 52.7346 130.582 52.3213 130.443 52.069C129.834 50.951 129.582 50.2202 129.421 49.0935C129.19 47.4404 128.99 46.3441 128.594 44.5475C128.224 42.8814 127.137 38.5355 126.941 37.9526C126.062 35.3207 124.422 33.3065 121.682 31.4795C120.611 30.7704 118.941 29.8133 117.897 29.3174C116.3 28.5605 114.33 28.1124 112.263 28.0384C110.937 27.9906 110.645 27.9906 109.544 28.021ZM112.511 28.7606C116.531 29.0868 120.05 30.753 123.513 33.9634C124.596 34.9727 125.075 35.5339 125.436 36.2386C125.714 36.778 125.74 36.8476 126.375 39.0227C127.85 44.0429 128.311 46.1745 128.49 48.7672C128.594 50.2767 128.885 51.1642 129.934 53.1392C130.491 54.1919 130.795 54.888 131.122 55.8755C131.53 57.1153 132.013 59.1164 132.013 59.5818C132.013 59.956 131.8 60.2474 131.383 60.4475C131.265 60.5041 130.978 60.639 130.743 60.7477C129.721 61.2306 128.659 62.1398 128.046 63.0577C127.506 63.8668 127.054 64.9631 126.832 66.0028C126.706 66.5813 126.697 67.6167 126.81 68.1474C126.976 68.9087 127.28 69.6352 127.772 70.4356C128.62 71.8103 129.042 73.0197 129.425 75.173C129.777 77.1437 130.787 78.7446 132.383 79.8669C133.01 80.3063 133.188 80.5455 133.188 80.9458C133.188 81.1981 133.062 81.4721 132.762 81.8941C132.248 82.6162 131.918 82.8729 131.487 82.8729C131.191 82.8729 130.956 82.7598 130.143 82.2334C128.455 81.1415 126.193 80.0105 123.791 79.0578C123.278 78.8533 122.691 78.6053 122.486 78.5096C121.634 78.0964 120.733 77.3699 120.159 76.6303C119.841 76.2171 119.65 75.9169 119.237 75.1513C119.067 74.8381 118.693 74.1855 118.401 73.694C117.431 72.067 116.909 70.8968 116.705 69.8788C116.587 69.3176 116.513 68.1213 116.548 67.4296C116.631 65.807 116.848 64.7456 117.427 63.149C118.106 61.261 118.902 59.6428 120.155 57.5851C122.56 53.6264 123.844 50.0636 124.287 46.0701C124.466 44.504 124.483 42.4246 124.335 41.4632C124.061 39.697 123.417 38.3658 122.317 37.2826C121.199 36.1864 119.772 35.5251 117.932 35.2511C117.292 35.1597 115.648 35.1467 115.243 35.2337C114.382 35.4207 113.664 36.0776 113.364 36.9564C113.255 37.2696 113.242 37.3609 113.242 37.9134C113.242 38.5051 113.246 38.5355 113.407 39.001C113.625 39.6318 114.134 40.6671 114.525 41.2631C115.004 41.9896 115.426 42.4899 116.287 43.3512C116.718 43.7819 117.205 44.2995 117.366 44.504C119.389 47.0141 120.007 49.9157 119.35 53.7917C119.302 54.0788 119.176 54.6966 119.071 55.162C118.971 55.6275 118.863 56.2104 118.832 56.4584C118.806 56.702 118.754 57.0022 118.719 57.1196C118.554 57.6765 117.988 57.9592 117.357 57.7983C116.84 57.6634 116.409 57.3719 115.617 56.615C114.578 55.6188 113.921 54.6792 113.164 53.1087C112.533 51.7906 111.946 51.1207 111.215 50.8945C110.397 50.6378 109.549 51.0032 108.513 52.056C107.887 52.6955 107.43 53.2479 107.008 53.8744C106.456 54.6922 106.121 55.0141 105.455 55.3447C105.072 55.5361 104.698 55.658 104.172 55.7667C103.589 55.8885 102.136 56.0843 102.045 56.0538C101.831 55.9886 101.775 55.8494 101.644 55.0663C101.423 53.7743 101.153 52.7738 100.731 51.6775C100.413 50.8466 100.348 50.6291 100.305 50.2506C100.131 48.6628 101.205 47.1098 104.411 44.3082C106.921 42.107 107.574 41.3675 108.244 39.958C108.6 39.2011 108.709 38.8487 108.731 38.3615C108.753 37.8612 108.683 37.6089 108.435 37.2783C108.222 36.9912 107.909 36.7606 107.382 36.4953C106.469 36.0385 105.36 35.747 104.268 35.6818C102.897 35.5948 101.227 35.8253 100.257 36.2342C98.4079 37.0086 97.3421 39.2707 97.3421 42.4159C97.3421 44.4996 97.6727 45.9483 99.0169 49.7243C99.9087 52.2387 100.252 53.3741 100.539 54.7879C100.918 56.6498 101.014 57.6329 101.014 59.621C101.018 61.2001 101.001 61.4785 100.818 62.9881C100.592 64.8413 100.631 66.6901 100.979 70.6923C101.135 72.4889 101.157 73.359 101.066 73.8201C100.861 74.825 100.466 75.3427 99.0169 76.4998C97.1942 77.9615 96.2328 78.4835 94.2839 79.0665C93.7879 79.2144 93.3442 79.4493 92.3654 80.0757C90.4209 81.3286 89.6422 81.4895 89.0114 80.7718C88.659 80.3715 88.5111 80.0148 86.7406 75.3253C85.888 73.0675 85.801 72.8152 85.7792 72.515C85.7618 72.2105 85.7705 72.1627 85.8793 71.9626C85.9489 71.8321 86.1359 71.6189 86.3491 71.4318C87.3366 70.5574 88.0065 69.5351 88.4198 68.2692C88.7547 67.2469 88.8853 66.3682 88.9462 64.7108C88.9897 63.4579 89.0549 62.9402 89.2724 62.1006C89.5726 60.9304 89.9598 60.056 90.9429 58.3377C91.6911 57.0283 92 55.9233 91.9 54.9271C91.8347 54.2746 91.6955 53.8831 91.2692 53.1392C90.9125 52.5171 90.7602 52.3431 90.4122 52.1691C90.0424 51.982 89.7988 51.7428 89.7292 51.4861C89.6509 51.212 89.7292 50.9162 90.0903 50.1158C90.6862 48.7846 91.0865 47.4796 91.4693 45.6046C91.5171 45.3784 91.7042 44.3561 91.8826 43.3381C92.5916 39.349 92.944 38.1831 93.8663 36.7867C94.7537 35.4382 95.9979 34.5681 97.7336 34.0809C98.8777 33.7546 99.4215 33.3935 100.104 32.4974C100.909 31.4446 101.705 30.7182 102.723 30.1222C104.05 29.3391 105.786 28.8737 107.804 28.7606C108.731 28.7084 111.88 28.7084 112.511 28.7606ZM117.44 36.0254C119.62 36.4431 120.768 36.9216 121.716 37.8047C122.408 38.4529 123.017 39.436 123.278 40.3278C123.556 41.2848 123.63 44.3039 123.417 46.218C123.095 49.1413 122.164 52.1169 120.751 54.7314C120.455 55.2795 119.837 56.3366 119.815 56.3366C119.798 56.3366 119.824 56.1408 120.076 54.5095C120.385 52.4605 120.437 52.0386 120.481 51.199C120.598 48.8629 120.181 47.2359 119.019 45.4828C118.593 44.839 118.227 44.3691 117.357 43.3294C115.3 40.8803 114.343 39.4708 114.112 38.5529C113.986 38.0483 114.03 37.5306 114.23 37.1304C114.573 36.443 115.208 35.9906 115.952 35.8949C116.344 35.8471 116.64 35.8732 117.44 36.0254ZM104.55 36.5213C105.229 36.6127 106.034 36.7737 106.486 36.9172C107.678 37.2913 108.139 37.9047 107.939 38.8444C107.852 39.2576 107.687 39.6057 107.356 40.0668C106.721 40.9499 106.325 41.3544 102.98 44.5171C101.557 45.8613 100.975 46.5095 100.387 47.3969C99.9174 48.1103 99.6477 48.28 99.3736 48.0364C99.3345 48.0016 99.2518 47.8232 99.1953 47.6405C99.1387 47.4578 99.0039 47.0793 98.8908 46.7922C98.6515 46.1962 98.4253 45.3436 98.3122 44.6345C98.1991 43.9211 98.1991 41.7895 98.3165 40.9151C98.4514 39.8667 98.5993 39.1141 98.7298 38.8009C99.2083 37.6568 100.439 36.8433 102.149 36.5387C102.715 36.4387 103.85 36.43 104.55 36.5213ZM110.506 52.7433C111.18 53.0522 111.898 53.7526 113.486 55.6449C114.917 57.3545 115.543 57.9201 116.557 58.4116C116.988 58.6205 117.471 58.7727 118.084 58.8858C118.14 58.8989 118.175 58.9206 118.162 58.938C118.114 59.0163 116.975 61.7178 116.801 62.1659C115.722 64.9413 115.409 67.1904 115.77 69.5395C116.205 72.3497 117.797 75.4601 119.872 77.5613C121.364 79.0752 122.943 80.0322 125.336 80.8762C126.315 81.2242 127.128 81.6287 128.598 82.5075C130.53 83.6603 130.891 83.83 131.404 83.83C131.839 83.83 132.231 83.6559 133.092 83.0774C133.34 82.9121 133.549 82.7859 133.558 82.7946C133.592 82.8294 133.753 83.7734 133.797 84.2389C133.875 84.9828 133.832 86.5097 133.714 87.3319C133.505 88.7675 133.14 90.203 132.3 92.9089C132.157 93.3743 132.126 93.5309 132.17 93.5309C132.205 93.5309 132.414 93.3482 132.635 93.1264C133.092 92.6783 133.197 92.4956 133.471 91.6777C133.723 90.9252 134.236 89.085 134.558 87.793L134.854 86.5967L135.037 86.8012C135.293 87.0796 135.467 87.3536 135.894 88.1367C136.098 88.5064 136.307 88.8806 136.355 88.9632C136.459 89.1329 136.477 89.4113 136.394 89.5548C136.364 89.607 136.133 89.8463 135.876 90.0899C134.31 91.582 133.397 93.4178 133.057 95.7496C132.875 97.0111 132.844 98.7947 132.97 100.6C133.027 101.37 133.023 103.315 132.97 104.093C132.901 105.046 132.735 106.486 132.466 108.43C132.166 110.636 132.092 111.014 131.622 112.868C131.113 114.873 131.035 115.234 130.86 116.239C130.704 117.166 130.63 117.396 130.343 117.905C130.064 118.397 129.334 119.354 129.16 119.463C128.916 119.61 128.742 119.554 128.424 119.21C127.654 118.375 127.441 118.223 126.871 118.088C126.541 118.005 125.575 117.949 125.575 118.005C125.575 118.075 125.962 118.349 126.484 118.653C126.754 118.81 127.085 119.015 127.219 119.106C127.463 119.271 128.011 119.815 128.011 119.893C128.011 119.911 128.076 119.967 128.155 120.019C128.303 120.106 128.833 120.916 129.09 121.438C129.351 121.96 129.36 122.434 129.12 122.673C129.012 122.786 129.003 122.786 128.346 122.786C127.811 122.786 127.659 122.799 127.554 122.86C127.172 123.069 126.636 123.104 125.183 123.03C124.622 122.999 124.479 122.978 124.322 122.899C123.992 122.73 123.857 122.469 123.77 121.807C123.722 121.42 123.435 121.155 123.139 121.22C122.952 121.259 122.917 121.338 122.882 121.759C122.847 122.142 122.765 122.364 122.647 122.377C122.621 122.382 122.391 122.382 122.138 122.377C121.882 122.369 121.464 122.399 121.181 122.438C120.651 122.516 120.285 122.503 120.033 122.399C119.789 122.299 119.489 121.99 119.302 121.646C119.211 121.477 119.098 121.32 119.054 121.307C118.841 121.242 118.61 121.472 118.523 121.833C118.497 121.951 118.454 122.129 118.432 122.234C118.358 122.534 118.175 122.782 117.936 122.899C117.675 123.025 117.205 123.034 116.57 122.921C115.661 122.76 115.322 122.26 115.5 121.342C115.6 120.837 115.678 120.681 116.074 120.241C116.492 119.771 117.049 118.941 117.414 118.24C117.94 117.222 118.323 116.191 119.054 113.781C119.746 111.523 120.007 110.832 120.781 109.235C122.317 106.068 123.343 102.901 123.787 99.9693C123.939 98.9557 124.013 98.0682 124.039 96.9459C124.109 93.9225 123.609 91.06 122.443 87.7843C122.047 86.6707 122.069 86.7098 121.686 86.4444C121.499 86.3183 121.342 86.2226 121.329 86.2356C121.316 86.2443 121.503 87.0361 121.742 87.9888C122.795 92.1911 123.095 93.9399 123.165 96.2281C123.2 97.2547 123.104 98.8382 123.013 98.8382C122.947 98.8382 122.273 98.1465 122.056 97.8594C121.734 97.4331 121.551 97.0242 121.381 96.3542C121.212 95.6799 121.12 95.4537 120.881 95.1014C120.559 94.6272 120.098 94.3227 119.411 94.1313C119.093 94.0399 118.98 94.0312 117.745 94.0312C116.64 94.0312 116.344 94.0443 115.983 94.1139C114.695 94.3488 113.773 94.8099 112.981 95.6016C112.281 96.3064 111.711 97.2591 111.498 98.0769C111.406 98.4293 111.385 98.6163 111.38 99.0775C111.376 99.7474 111.406 99.904 111.75 100.97C112.681 103.863 112.929 105.986 112.585 108.126C112.459 108.918 112.529 109.757 112.79 110.575C113.12 111.61 113.577 112.132 114.204 112.185C114.704 112.228 115.078 111.989 115.6 111.284C116.405 110.205 116.935 109.775 118.906 108.591C119.393 108.3 119.955 107.956 120.155 107.826L120.52 107.591L120.216 108.335C119.915 109.07 119.45 110.201 118.671 112.063C117.962 113.764 117.558 114.999 117.331 116.156C117.192 116.892 117.127 117.087 116.892 117.54C116.653 117.992 116.448 118.279 115.852 119.001C115.596 119.31 115.278 119.719 115.148 119.906C115.017 120.093 114.847 120.276 114.773 120.311C114.604 120.398 114.434 120.38 113.286 120.15C109.644 119.423 107.304 118.297 105.494 116.4C105.007 115.891 104.82 115.573 104.707 115.056C104.624 114.669 104.611 113.285 104.668 110.497C104.707 108.487 104.685 107.874 104.52 106.908C104.402 106.238 104.32 105.942 103.78 104.237C103.023 101.836 102.732 100.778 102.454 99.395C102.132 97.7768 102.023 96.6979 102.023 95.1405C102.023 94.1835 102.04 93.8485 102.127 93.1612C102.271 92.0258 102.28 90.6554 102.14 90.0725C102.032 89.6201 101.875 89.1807 101.823 89.1807C101.801 89.1807 101.718 89.2199 101.636 89.2677L101.488 89.3547L101.462 90.0638C101.444 90.451 101.362 91.4341 101.275 92.2476C101.153 93.3961 101.114 93.9877 101.096 94.91C101.07 96.202 101.105 96.7197 101.279 97.6201C101.414 98.2901 101.414 98.3553 101.288 98.5337C101.162 98.7295 101.005 98.8121 100.583 98.9252C99.3301 99.2515 98.4383 100.222 98.186 101.522C98.0903 102.036 98.1121 102.484 98.2991 103.693C98.782 106.869 98.9517 108.7 98.9517 110.793C98.9517 112.315 99.1561 112.868 99.8348 113.194C100.318 113.424 100.522 113.438 102.393 113.342C103.01 113.311 103.18 113.342 103.411 113.546C103.619 113.733 103.733 114.034 103.78 114.551C103.872 115.521 103.976 118.249 103.976 119.589C103.976 120.802 103.967 121.037 103.902 121.246C103.754 121.716 103.432 122.025 102.993 122.121C102.523 122.216 102.262 122.068 101.862 121.477C100.822 119.937 99.1474 118.532 97.5074 117.836C96.6765 117.479 96.037 117.309 94.9364 117.148C94.6058 117.1 94.2317 117.022 94.1055 116.974C93.6531 116.805 93.4312 116.444 93.4921 115.969C93.5095 115.843 93.6487 115.352 93.801 114.882C94.7537 111.919 95.3366 108.939 95.6846 105.19C95.9631 102.218 96.1066 98.3292 95.9979 96.5978C95.8761 94.6446 95.7673 93.7267 95.1278 89.3721C94.8929 87.7669 94.8451 87.0926 94.8755 85.7006C94.9103 84.1562 95.0147 83.1383 95.3453 81.1328C95.441 80.5455 95.5541 79.9887 95.5976 79.8887C95.7064 79.645 95.8978 79.5102 96.3633 79.3492C97.5291 78.936 98.3992 78.3574 99.9305 76.961C100.265 76.6564 100.727 76.2432 100.953 76.0474C101.475 75.595 101.579 75.4732 101.744 75.1556C101.953 74.7424 102.001 74.4335 102.027 73.2937C102.053 72.2192 102.014 71.4014 101.862 69.7831C101.61 67.0338 101.588 65.8549 101.758 64.006C101.923 62.1659 101.958 61.4133 101.979 59.2556C102.001 57.0674 102.01 57.0239 102.24 56.8717C102.345 56.8064 102.497 56.789 103.324 56.7629C104.076 56.7412 104.359 56.7151 104.646 56.6455C105.951 56.3148 106.908 55.6144 107.978 54.2006C109.109 52.7042 109.688 52.3692 110.506 52.7433ZM140.174 89.3286C140.705 89.5722 141.331 90.4336 142.197 92.1171C143.415 94.4836 144.155 97.1286 144.368 99.8823C144.394 100.23 144.485 100.931 144.572 101.444L144.725 102.375L144.651 103.684C144.52 106.116 144.337 107.617 143.95 109.387C143.433 111.771 142.536 114.186 141.453 116.117C141.001 116.922 140.892 117 139.926 117.214C137.395 117.775 135.989 118.74 135.015 120.585C134.75 121.09 134.615 121.224 134.423 121.181C134.119 121.116 133.214 120.298 132.77 119.697C131.865 118.471 131.574 117.044 131.878 115.365C132.2 113.598 132.696 112.798 133.949 112.019C134.776 111.506 135.285 110.967 135.663 110.21C135.981 109.575 136.103 109.092 136.216 108.091C136.333 106.973 136.551 106.199 137.186 104.611C137.621 103.523 137.699 103.014 137.56 102.21C137.329 100.887 136.355 99.7735 135.072 99.3602C134.85 99.2906 134.528 99.2167 134.358 99.2036C133.84 99.1514 133.862 99.208 133.862 97.9377C133.862 97.3287 133.888 96.6587 133.919 96.4021C134.284 93.4135 135.524 91.1905 137.477 90.0073C138.047 89.6592 138.921 89.2895 139.365 89.2068C139.583 89.1677 139.935 89.2199 140.174 89.3286ZM93.9837 117.766C95.08 117.883 96.2502 118.227 97.2899 118.74C98.3644 119.271 99.1561 119.841 99.9522 120.659C100.379 121.098 100.866 121.69 100.866 121.768C100.866 121.807 98.4775 122.603 98.0816 122.699C97.3725 122.86 97.055 122.747 96.7983 122.229C96.6591 121.938 96.4633 121.272 96.3415 120.659C96.2719 120.32 96.1545 120.198 95.8891 120.198C95.5585 120.198 95.4715 120.363 95.4715 121.003C95.4715 121.168 95.5106 121.472 95.5585 121.677C95.7281 122.421 95.6542 122.682 95.2192 122.886C94.9973 122.991 94.919 123.004 94.5144 123.004C94.1012 122.999 94.0272 122.986 93.7488 122.869C93.5791 122.795 93.3268 122.66 93.1833 122.569C92.8266 122.334 92.2219 121.712 92.0218 121.372L91.8565 121.09L91.8826 120.685C91.913 120.202 91.8913 120.154 91.6128 120.154C91.3779 120.154 91.143 120.246 91.0821 120.363C90.969 120.572 91.0908 121.311 91.3562 122.055C91.391 122.16 91.4127 122.242 91.3997 122.242C91.3431 122.242 90.1077 121.172 89.9728 121.007C89.8858 120.907 89.764 120.707 89.6987 120.563C89.59 120.333 89.5769 120.259 89.5769 119.85C89.5769 119.406 89.5813 119.376 89.7422 119.058C89.9206 118.693 90.2121 118.392 90.5557 118.218C90.9342 118.027 91.7564 117.823 92.4263 117.749C92.7613 117.714 93.5835 117.722 93.9837 117.766ZM141.945 117.892C143.002 118.097 143.798 118.392 144.346 118.78C144.72 119.049 145.125 119.502 145.295 119.845C145.412 120.085 145.434 120.18 145.434 120.437C145.434 120.816 145.325 121.05 145.003 121.368C144.511 121.851 143.924 121.981 143.028 121.803C142.68 121.733 142.654 121.672 142.693 120.968C142.719 120.437 142.715 120.385 142.641 120.289C142.58 120.215 142.502 120.18 142.341 120.167C142.067 120.141 141.958 120.224 141.653 120.694C141.392 121.098 141.227 121.251 140.888 121.411C140.67 121.512 140.588 121.525 140.039 121.538C139.352 121.551 139.222 121.516 139.2 121.316C139.191 121.246 139.217 121.103 139.252 120.994C139.396 120.572 139.304 120.272 138.995 120.154C138.673 120.032 138.456 120.167 138.208 120.637C138.108 120.824 137.96 121.02 137.812 121.155C137.482 121.455 137.177 121.546 136.498 121.542C136.22 121.542 135.92 121.529 135.833 121.512L135.672 121.481L135.794 121.172C136.181 120.185 137.377 119.045 138.687 118.414C139.839 117.862 140.905 117.692 141.945 117.892Z" fill="white"/>
<path d="M132.97 104.093C133.023 103.314 133.027 101.37 132.97 100.6C133.14 100.613 134.85 99.2904 135.071 99.36C136.355 99.7733 137.329 100.887 137.56 102.209C137.699 103.014 137.621 103.523 137.186 104.611C136.551 106.199 136.333 106.973 136.216 108.091C136.102 109.091 135.981 109.574 135.663 110.209C135.285 110.966 132.448 112.354 131.622 112.867C132.092 111.014 132.166 110.636 132.466 108.43C132.735 106.486 132.901 105.046 132.97 104.093Z" fill="#DAFDA0"/>
<path d="M123.013 98.837C123.104 98.837 120.555 108.616 120.52 107.59L120.155 107.825C119.954 107.955 119.393 108.299 118.906 108.59C116.935 109.773 116.405 110.204 115.6 111.283C115.078 111.988 114.704 112.227 114.203 112.183C113.577 112.131 113.12 111.609 112.79 110.574C112.529 109.756 112.459 108.916 112.585 108.125C112.929 105.984 112.681 103.862 111.75 100.969C111.406 99.9028 111.376 99.7462 111.38 99.0763C111.385 98.6152 111.406 98.4281 111.498 98.0757C111.711 97.2579 112.281 96.3052 112.981 95.6005C113.773 94.8087 114.695 94.3476 115.983 94.1127C116.344 94.0431 116.64 94.03 117.745 94.03C118.98 94.03 119.093 94.0387 119.411 94.1301C120.098 94.3215 120.559 94.626 120.881 95.1002C121.12 95.4526 121.212 95.6788 121.381 96.3531C121.551 97.023 121.734 97.4319 122.056 97.8582C122.273 98.1453 122.947 98.837 123.013 98.837Z" fill="#DAFDA0"/>
<path d="M109.24 42.9125C108.483 43.0604 107.987 43.3693 107.752 43.8261C107.604 44.1175 107.569 44.5873 107.67 44.9832C107.944 46.0882 109.671 48.3851 110.545 48.8158C110.793 48.9376 110.91 48.968 111.184 48.9811C111.489 48.9941 111.55 48.9811 111.811 48.8593C112.398 48.5852 113.159 47.6325 113.747 46.4405C114.086 45.7489 114.195 45.3182 114.169 44.7614C114.151 44.3916 114.13 44.3002 113.99 44.0088C113.725 43.4519 113.277 43.1126 112.59 42.956C112.163 42.856 109.688 42.8255 109.24 42.9125Z" fill="#DAFDA0"/>
<path d="M118.397 39.6355C117.636 39.7616 117.075 40.3184 116.979 41.0406C116.948 41.2755 117.062 41.8062 117.209 42.1107C117.379 42.4587 117.775 42.859 118.101 43.0025C118.945 43.381 120.155 42.9721 120.563 42.1716C120.942 41.4321 120.829 40.7056 120.25 40.1618C119.724 39.6659 119.176 39.5093 118.397 39.6355ZM118.919 41.0014C119.05 41.071 119.163 41.2363 119.18 41.3929C119.202 41.593 119.171 41.6844 119.032 41.841C118.897 41.9846 118.858 42.002 118.671 42.002C118.41 42.002 118.24 41.8976 118.149 41.6888C118.062 41.4712 118.11 41.2581 118.288 41.0797C118.406 40.9623 118.467 40.9362 118.61 40.9362C118.71 40.9362 118.849 40.9666 118.919 41.0014Z" fill="#DAFDA0"/>
<path d="M103.746 38.7829C103.037 38.9395 102.61 39.4441 102.571 40.1793C102.532 40.9362 102.91 41.6409 103.498 41.8933C104.285 42.2282 105.351 42.0064 105.755 41.4191C105.999 41.0624 106.064 40.8579 106.06 40.3924C106.06 39.6747 105.842 39.2918 105.268 38.9873C104.794 38.735 104.289 38.6654 103.746 38.7829ZM104.442 40.0096C104.624 40.1967 104.655 40.4664 104.511 40.6752C104.372 40.8797 104.237 40.9449 103.998 40.9188C103.846 40.9058 103.776 40.871 103.663 40.7448C103.546 40.6143 103.519 40.5534 103.519 40.3881C103.519 40.2097 103.541 40.1662 103.693 40.014C103.859 39.8443 103.876 39.84 104.089 39.8574C104.259 39.8748 104.342 39.9096 104.442 40.0096Z" fill="#DAFDA0"/>
<path d="M104.885 67.1196C104.398 67.3414 103.815 68.4681 103.624 69.56C103.511 70.2126 103.528 71.0174 103.689 72.2137C103.763 72.7748 103.854 73.5361 103.889 73.9059C103.963 74.6846 103.976 76.0767 103.911 76.6074C103.767 77.7558 103.415 78.8129 102.871 79.7091C102.571 80.2094 102.475 80.5182 102.475 80.9881C102.48 81.6754 102.732 82.2105 103.346 82.8282C103.937 83.4242 104.446 83.6286 105.651 83.7635C106.421 83.8461 106.943 83.8461 107.617 83.7591C109.749 83.4851 111.354 82.5019 112.002 81.0707C112.163 80.7183 112.255 80.3573 112.329 79.7874C112.581 77.8515 112.342 76.0506 111.633 74.5845C111.037 73.3534 110.215 72.4355 108.862 71.4959C108.205 71.0391 107.826 70.7302 107.43 70.317C106.765 69.6122 106.504 69.0772 106.265 67.8983C106.234 67.7634 106.151 67.5676 106.082 67.4589C105.834 67.0848 105.299 66.9325 104.885 67.1196Z" fill="#DAFDA0"/>
</g>
</g>
<defs>
<filter id="filter0_f_1_192" x="37.1482" y="-2" width="156" height="156" filterUnits="userSpaceOnUse" color-interpolation-filters="sRGB">
<feFlood flood-opacity="0" result="BackgroundImageFix"/>
<feBlend mode="normal" in="SourceGraphic" in2="BackgroundImageFix" result="shape"/>
<feGaussianBlur stdDeviation="7" result="effect1_foregroundBlur_1_192"/>
</filter>
</defs>
</svg>
