<svg width="181" height="181" viewBox="0 0 181 181" fill="none" xmlns="http://www.w3.org/2000/svg">
<circle cx="90.9271" cy="90.5" r="88.5" stroke="white" stroke-width="3"/>
<path d="M117.18 23.1391C110.028 24.4027 105.677 26.2437 103.882 28.7764C103.722 29.0051 103.31 29.7598 102.973 30.4516C102.121 32.1782 101.486 33.1559 100.194 34.7282C99.0163 36.1632 98.4217 37.1923 97.9357 38.6674C97.5926 39.6908 97.3639 40.1654 96.9523 40.6513C96.4435 41.2516 95.8374 41.6347 94.8655 41.9835C93.9393 42.3094 93.3618 42.6695 92.7615 43.2985C92.3727 43.6987 92.1326 44.0531 91.7724 44.7564C91.315 45.6426 90.6289 46.22 89.6799 46.523C89.0224 46.7289 87.5702 47.009 85.106 47.4092C82.436 47.8323 82.3331 47.8437 81.9157 47.7237C81.3497 47.5579 81.0696 47.2377 80.7094 46.3515C80.3892 45.5797 80.1319 45.1909 79.4801 44.5448C78.5939 43.6644 77.3361 42.7553 74.9749 41.2974C73.3283 40.274 72.728 39.8795 71.9161 39.2963C70.8355 38.513 70.361 38.2157 69.5548 37.827C67.8339 36.9922 66.2388 36.6664 64.2149 36.7292C62.6426 36.775 61.3104 37.0551 59.7668 37.6554C57.8 38.433 55.4731 39.9652 55.3015 40.6056C55.2215 40.9143 55.2729 41.0858 55.5588 41.4003C55.8504 41.7205 56.0276 41.8463 57.2912 42.6009C57.7771 42.8925 58.3775 43.247 58.6176 43.3957C58.8634 43.5386 59.0407 43.6758 59.0178 43.693C58.9949 43.7158 58.5661 43.9731 58.063 44.259C56.8223 44.9794 56.485 45.2252 56.3192 45.5282C56.142 45.8713 56.1877 46.0371 56.5479 46.2943C57.0911 46.6831 57.194 47.1005 56.8681 47.5636C56.3478 48.2954 56.262 48.4555 56.262 48.6785C56.262 49.153 56.4736 49.3874 57.1883 49.7076C57.9715 50.0506 58.0001 50.0906 58.0344 50.9997C58.0687 51.6629 58.0859 51.7487 58.2574 52.1146C58.3603 52.3261 58.6061 52.7149 58.8063 52.9779C59.418 53.7726 59.458 53.9213 59.2922 54.6073C59.155 55.1905 59.1436 55.7337 59.2694 56.1567C59.4637 56.8142 59.6753 57.1058 60.8073 58.2664C61.5963 59.0783 61.9565 59.4957 62.1223 59.7815C62.2481 60.0045 62.5683 60.4104 62.8313 60.6963C63.3858 61.2909 63.5116 61.4796 63.6889 61.9541C63.8604 62.4229 64.009 62.6345 64.758 63.4978C65.4955 64.3554 65.6671 64.5212 66.7419 65.4417C67.5481 66.1278 67.9197 66.5394 68.4114 67.2998C68.743 67.8087 69.1889 68.2661 69.4805 68.4033C69.612 68.4662 69.8293 68.5005 70.0808 68.5005C70.5382 68.5005 70.9327 68.3347 71.5102 67.9116L71.8646 67.6486L71.7617 67.9516C71.5731 68.4947 71.2472 69.8326 71.1328 70.5415C70.6526 73.5031 70.9499 76.419 72.0991 79.9008C72.3678 80.7127 72.9795 82.3593 73.1625 82.7652C73.1739 82.7995 72.9166 82.9482 72.5907 83.1025C71.8646 83.4341 71.0528 83.9544 70.8012 84.2403C70.5439 84.5319 70.5497 84.7606 70.8241 85.298C71.0185 85.681 71.0413 85.7725 71.0585 86.2699C71.0928 87.2019 71.0642 87.2876 69.3833 90.6551C68.5543 92.3189 67.7024 93.954 67.4966 94.2799C66.7362 95.4806 65.8958 96.401 64.9638 97.0528C64.232 97.5674 63.969 97.9562 63.7803 98.8309C63.5574 99.8429 63.14 100.838 62.271 102.421C61.562 103.719 60.6815 105.48 60.3271 106.332C59.5038 108.293 59.0635 110.18 59.0635 111.769C59.0635 112.558 58.9663 112.747 58.4403 113.038C57.8515 113.359 57.3083 113.873 56.4107 114.948C55.4902 116.046 55.0557 116.469 54.5068 116.789C54.0494 117.052 53.6378 117.492 53.1347 118.247C51.0764 121.317 50.0073 124.736 49.6299 129.447C49.527 130.728 49.4927 133.764 49.567 134.879C49.8186 138.584 50.6305 141.082 52.4829 143.872C53.9294 146.045 54.8213 146.982 56.1477 147.726C57.1425 148.28 57.8114 148.412 59.9783 148.492C64.0948 148.646 67.7024 148.372 71.9447 147.594C72.545 147.485 73.1968 147.365 73.3855 147.331C73.5741 147.297 73.7514 147.251 73.7742 147.228C73.8028 147.205 73.6885 147.079 73.517 146.948C72.6994 146.331 72.0076 146.239 70.4982 146.536C67.5881 147.108 65.2383 147.342 62.3339 147.342C59.8697 147.342 58.3775 147.222 57.4684 146.965C56.4622 146.674 55.4731 146.068 54.8213 145.341C53.7807 144.198 52.4772 141.94 51.8082 140.127C50.9278 137.76 50.6019 135.605 50.6019 132.169C50.6019 128.744 51.0021 126.165 51.9798 123.261C53.1232 119.859 53.9751 118.43 55.4902 117.378C56.142 116.926 56.5365 116.549 57.2511 115.697C58.3717 114.365 59.0006 113.787 59.8468 113.319C60.1784 113.136 60.2242 112.93 60.2127 111.603C60.2013 110.283 60.2642 109.728 60.55 108.653C60.8588 107.498 61.2704 106.526 62.2081 104.748C62.837 103.565 63.0371 103.119 63.5802 101.718C63.9804 100.678 64.5236 99.5685 64.941 98.9453C65.1296 98.6594 65.547 98.1334 65.8672 97.7732C66.6847 96.8527 67.2793 96.1209 68.0798 95.0575C69.2976 93.4395 69.3948 93.2737 70.5382 90.8552C70.7269 90.4607 71.0528 89.8719 71.2586 89.5402C71.6817 88.8828 71.7046 88.7913 71.5788 87.9966C71.493 87.4305 71.5616 87.2362 71.9904 86.8302C72.1848 86.6473 72.3735 86.4129 72.4192 86.3042C72.5793 85.9212 72.4936 85.4981 72.1505 85.0121C71.9104 84.6805 72.0304 84.4347 72.505 84.286C72.6193 84.2517 72.808 84.1717 72.9281 84.1088C73.1853 83.9773 73.5398 83.9601 73.637 84.0745C73.6713 84.1145 73.7113 84.3946 73.7171 84.6862C73.7456 85.3666 73.8886 85.7954 74.4603 86.8417C74.9577 87.7564 75.0949 88.0995 75.1807 88.6655C75.3179 89.5688 75.6495 90.1692 76.5586 91.1983C77.176 91.8901 77.5248 92.3475 77.7363 92.7248C78.1023 93.3709 78.714 93.7882 79.5659 93.9712C79.8975 94.0455 80.0747 94.0455 80.6808 93.9883C81.567 93.9083 82.2302 93.9655 84.1626 94.2856C86.5353 94.6801 88.1133 94.8745 89.171 94.9031C90.1887 94.926 90.4288 94.9031 91.5666 94.6573C92.5843 94.4343 93.4647 94.3142 95.6259 94.0855C98.4274 93.7939 99.3822 93.6281 101.115 93.1422C102.704 92.6905 103.762 92.5247 105.431 92.4561C107.032 92.3875 107.398 92.2903 108.33 91.6785C108.919 91.2897 109.41 90.7523 110.062 89.8032C110.645 88.9456 110.72 88.8542 110.937 88.7169C111.257 88.4997 111.509 88.7341 111.937 89.6603C112.057 89.9233 112.28 90.2892 112.435 90.4722C113.292 91.5242 114.161 92.902 114.808 94.2399C115.488 95.6578 115.877 96.8813 116.265 98.8023C116.649 100.712 116.952 101.598 117.62 102.753C118.381 104.079 118.907 105.274 119.513 107.092C120.033 108.642 120.965 111.552 121.062 111.935C121.337 112.993 121.422 114.514 121.331 116.497C121.291 117.281 121.251 118.516 121.24 119.242C121.222 120.454 121.211 120.597 121.074 121.071C120.759 122.146 120.085 123.324 118.924 124.816C118.221 125.725 117.872 126.354 117.626 127.143C117.489 127.606 117.472 127.726 117.472 128.647C117.472 129.533 117.489 129.733 117.632 130.391C118.467 134.25 119.124 136.377 120.13 138.469C120.851 139.979 121.091 140.304 121.868 140.859C123.035 141.682 124.493 142.997 126.642 145.17C127.128 145.662 128.06 146.576 128.706 147.205C130.193 148.64 130.65 149.275 130.999 150.373C131.108 150.733 131.131 150.922 131.131 151.573C131.131 152.259 131.119 152.374 131.005 152.585C130.776 153.008 130.662 153.06 129.953 153.06C129.467 153.06 129.141 153.1 128.489 153.243C127.957 153.357 127.471 153.426 127.186 153.426C126.768 153.431 126.688 153.414 126.328 153.231C125.831 152.985 125.773 152.877 125.619 151.928C125.43 150.801 124.95 149.721 124.213 148.732C123.761 148.137 123.452 148.017 123.098 148.303C122.88 148.48 122.926 148.697 123.309 149.321C123.727 150.001 123.841 150.224 124.104 150.876C124.344 151.476 124.699 152.774 124.699 153.071C124.699 153.414 124.613 153.443 123.183 153.517C121.457 153.614 120.548 153.534 119.953 153.231C119.622 153.06 119.41 152.591 119.267 151.688C118.918 149.527 118.707 148.989 117.946 148.423C117.666 148.206 117.129 147.971 116.923 147.971C116.831 147.971 116.854 148.046 117.106 148.555C117.632 149.618 118.215 151.711 118.387 153.128L118.421 153.46H117.649C116.763 153.46 116.248 153.374 115.316 153.083C113.384 152.471 113.121 152.076 113.27 150.035C113.35 148.949 113.31 148.017 113.155 147.245C112.824 145.604 112.921 143.918 113.424 142.517C113.527 142.225 113.573 141.957 113.595 141.568C113.613 141.076 113.601 140.973 113.435 140.453C112.944 138.921 112.246 137.291 110.76 134.193C110.245 133.106 109.753 132.077 109.679 131.906C109.599 131.734 108.781 130.059 107.861 128.189C106.1 124.61 105.5 123.313 104.854 121.677C104.345 120.397 103.727 118.493 103.481 117.458C103.373 117.006 103.259 116.64 103.224 116.64C103.19 116.64 103.087 116.852 102.996 117.109C102.847 117.538 102.83 117.652 102.83 118.298C102.835 119.105 102.91 119.459 103.373 120.877C104.002 122.781 104.711 124.416 106.495 128.109C109.084 133.478 109.508 134.61 109.41 135.891C109.325 137.057 108.776 138.092 107.261 139.99C105.26 142.5 103.121 144.272 100.6 145.513C99.4222 146.096 98.4731 146.451 97.2382 146.771C95.603 147.194 93.9793 147.4 92.287 147.4C90.6861 147.4 90.1258 147.234 89.7256 146.639C89.4397 146.216 89.3597 145.736 89.3082 144.141C89.2682 142.814 89.2511 142.666 88.9995 141.311C88.6793 139.618 88.2848 137.755 87.6559 135.022C86.3924 129.51 85.895 127.006 85.8378 125.851C85.8207 125.491 85.8378 124.525 85.8778 123.701C85.9865 121.546 85.8778 120.734 85.3232 119.625L85.0602 119.093L85.1917 118.853C85.2661 118.722 85.3804 118.533 85.449 118.441C85.7578 118.03 85.7463 117.87 85.4204 117.698C85.0202 117.492 84.6543 117.67 84.3227 118.241C84.054 118.71 83.9111 119.156 83.9625 119.402C83.9854 119.499 84.0997 119.791 84.2198 120.042C84.5857 120.808 84.62 121.163 84.5343 123.187C84.4656 124.845 84.5686 125.811 85.1632 129.018C85.3061 129.802 85.4891 130.951 85.5634 131.563C85.7921 133.381 85.895 133.838 86.5982 136.279C87.4901 139.344 87.7302 140.676 88.079 144.427C88.3363 147.177 88.5021 148.549 88.645 149.086C88.7193 149.366 88.9423 149.984 89.1367 150.458C90.1887 153.014 90.1887 153.02 90.1887 154.529C90.1944 155.655 90.1887 155.747 90.0801 155.901C89.8114 156.267 88.7651 156.61 87.8789 156.616C86.8669 156.627 86.3238 156.222 85.8721 155.118C85.7463 154.821 85.6091 154.592 85.4605 154.449L85.2432 154.232L85.1346 154.363C84.883 154.672 84.883 155.089 85.1346 155.736C85.2889 156.13 85.2832 156.382 85.1231 156.536C84.8144 156.822 84.4828 156.828 83.7453 156.565C83.3565 156.422 83.2479 156.41 81.9329 156.376C80.1776 156.33 80.0061 156.273 79.949 155.73C79.9147 155.415 80.0747 154.483 80.2348 154.095L80.3606 153.792L80.2005 153.654C79.8861 153.386 79.4916 153.529 79.2114 154.015C78.9656 154.426 78.9084 154.672 78.8455 155.484C78.7826 156.41 78.754 156.547 78.6168 156.547C78.228 156.547 75.478 155.284 75.1807 154.969C75.032 154.809 75.0206 154.712 74.9006 151.35C74.8034 148.738 74.8605 147.691 75.2093 145.999C75.2836 145.622 75.3808 145.067 75.4208 144.77C75.518 144.078 75.518 142.06 75.4208 141.311C75.2379 139.836 74.7691 137.983 74.1573 136.279C73.4026 134.187 73.0767 133.461 71.6988 130.819C70.1666 127.875 69.6749 126.611 69.3319 124.753C69.2175 124.153 69.0517 123.724 68.5772 122.867C67.914 121.666 67.914 121.649 67.8968 119.956C67.8854 118.773 67.8568 118.27 67.731 117.298C67.3251 114.113 67.5481 112.564 68.6172 111.106C68.7887 110.877 68.9831 110.609 69.0574 110.511C69.3261 110.134 69.1489 109.837 68.6515 109.837C68.4914 109.837 68.3256 109.86 68.2913 109.883C68.257 109.905 68.1541 110.065 68.0683 110.237C67.9826 110.409 67.6853 110.9 67.4108 111.323C66.3474 112.964 66.2388 113.376 66.456 114.897C66.5247 115.36 66.5761 116.234 66.6104 117.584C66.6676 119.653 66.719 120.202 66.982 121.409C67.2508 122.666 67.6624 123.936 68.6344 126.52C68.966 127.406 69.4233 128.658 69.6406 129.299C70.1494 130.802 70.4124 131.38 71.5731 133.529C72.0933 134.501 72.6994 135.691 72.9109 136.171C73.6084 137.737 74.1344 139.498 74.3688 141.036C74.5003 141.9 74.5003 143.615 74.3746 144.512C74.163 145.987 74.0487 147.657 73.8886 151.63C73.7628 154.855 73.7628 155.215 73.8829 155.438C73.9915 155.638 75.8553 156.828 76.7873 157.296C77.8221 157.817 78.6168 157.925 79.7889 157.719C80.7094 157.554 82.0301 157.582 83.9625 157.811C85.3347 157.971 85.7578 158 86.9355 158C88.5021 158.005 88.8623 157.954 89.9772 157.571C90.8462 157.273 91.1721 157.091 91.3608 156.81C91.5494 156.525 91.5494 156.233 91.3779 154.403C91.1321 151.876 90.8805 150.939 90.0972 149.698C89.6741 149.035 89.5426 148.486 89.7542 148.297C89.8914 148.172 90 148.177 90.6975 148.32C91.1492 148.417 91.4808 148.446 92.1669 148.446C93.0588 148.44 93.2475 148.423 95.4829 148.057C96.0604 147.96 96.7979 147.891 97.5984 147.857C98.9076 147.8 99.3021 147.737 100.057 147.463C100.691 147.228 101.086 147.005 102.43 146.113C106.031 143.729 107.918 141.842 109.37 139.172C109.828 138.332 109.976 138.12 110.359 137.76C110.92 137.229 110.84 137.154 111.371 138.641C111.937 140.213 112.098 140.779 112.183 141.539C112.275 142.283 112.195 142.912 111.92 143.723L111.714 144.324L111.749 145.559C111.772 146.245 111.823 147.211 111.869 147.708C111.972 148.892 111.972 149.361 111.852 150.367C111.623 152.339 112.086 153.048 114.224 154.009C114.865 154.295 115.631 154.506 116.38 154.598C117.335 154.718 122.257 154.792 124.327 154.724C127.712 154.609 130.096 154.329 131.09 153.935C131.599 153.729 132.005 153.329 132.188 152.86C132.423 152.248 132.405 151.076 132.154 150.03C132.102 149.824 131.954 149.424 131.817 149.143C131.594 148.675 131.451 148.497 130.176 147.085C127.677 144.312 125.762 142.443 124.127 141.179C122.514 139.933 121.605 138.824 120.937 137.309C120.491 136.297 119.633 133.575 119.158 131.688C118.787 130.208 118.672 129.424 118.712 128.647C118.77 127.612 119.01 126.983 119.736 125.983C120.376 125.102 120.794 124.41 121.245 123.473C122.131 121.637 122.555 120.071 122.709 118.013C122.8 116.732 122.72 115.731 122.326 113.404C121.348 107.653 120.611 105.28 118.89 102.427C117.912 100.798 117.701 100.272 117.203 98.2306C116.14 93.8511 115.099 91.5585 113.109 89.1915C112.475 88.4311 112.263 88.0023 112.263 87.4534C112.263 86.9217 112.361 86.7445 113.018 86.0355C114.316 84.6519 115.025 83.1197 115.351 80.9928C115.499 79.9866 115.574 77.9855 115.511 76.6477C115.442 75.3555 115.476 74.8639 115.654 74.4122C115.717 74.2578 115.848 73.9262 115.951 73.6746C116.225 72.9828 116.448 72.0395 116.557 71.1247C116.677 70.0613 116.643 68.1517 116.46 66.2421C116.345 65.0986 116.328 64.5212 116.328 62.7545C116.323 60.3304 116.368 59.9473 116.757 58.8382C117.558 56.5512 117.781 55.4764 117.781 53.8412C117.781 52.1489 117.495 50.9025 116.603 48.7528C116.317 48.0496 116.271 47.4435 116.477 46.9976C116.729 46.4601 117.712 45.614 118.752 45.0537C119.873 44.4419 120.153 44.1846 120.308 43.6015C120.37 43.3613 120.359 43.247 120.193 42.4123C119.61 39.5708 119.13 38.1128 118.375 36.9008C118.061 36.3976 117.821 35.8202 117.695 35.2713C117.518 34.5223 117.34 33.8363 117.117 33.0816C116.917 32.3841 116.906 32.2869 116.9 31.5379C116.894 30.8289 116.912 30.6974 117.032 30.3944C117.106 30.2058 117.175 29.9828 117.192 29.9027C117.232 29.6798 117.072 29.4282 116.791 29.2624C116.391 29.028 116.18 28.7478 116.18 28.462C116.185 28.1532 116.265 27.9817 117.009 26.7068C117.786 25.3803 117.986 25.083 118.472 24.5284C118.935 24.0025 119.004 23.8595 118.924 23.5679C118.855 23.3107 118.667 23.122 118.404 23.0477C118.146 22.9733 118.112 22.9733 117.18 23.1391ZM116.374 25.346C116.105 25.8606 115.568 26.9183 115.179 27.6958C114.562 28.9251 114.464 29.1538 114.464 29.3939C114.464 29.8284 114.579 29.9256 115.156 29.9713C116.1 30.0457 116.168 30.1772 115.745 31.1663C115.516 31.7094 115.528 32.224 115.797 33.2245C115.911 33.6476 116.042 34.1736 116.094 34.3966C116.248 35.0598 116.557 35.8087 117.352 37.4553C118.312 39.445 118.478 39.9367 118.61 41.1716C118.684 41.8577 118.701 41.9263 118.947 42.3951C119.404 43.2527 119.296 43.51 118.284 43.9845C117.66 44.2818 117.083 44.6878 116.368 45.3338C115.591 46.0428 115.002 46.7117 114.819 47.1062C114.705 47.3578 114.682 47.4778 114.705 47.7923C114.727 48.2668 114.905 48.6499 115.356 49.2045C116.134 50.1707 116.397 51.2856 116.334 53.4353C116.3 54.7103 116.168 55.5221 115.717 57.2087C114.979 59.9645 114.893 60.3876 114.802 61.8398C114.727 62.9661 114.796 64.647 114.985 66.305C115.048 66.8653 115.122 67.5457 115.151 67.8144C115.225 68.4662 115.219 69.7526 115.145 70.4329C115.019 71.6107 114.762 72.6284 114.207 74.132C113.933 74.881 113.904 75.2583 114.059 76.1045C114.533 78.6945 114.19 81.2215 113.035 83.5656C112.612 84.429 111.943 85.4752 111.366 86.1785C111.166 86.4186 110.491 87.2419 109.868 88.008C108.061 90.2035 107.621 90.6037 106.603 90.941C106.203 91.0782 106.009 91.1011 105.031 91.1468C103.19 91.2269 102.167 91.3927 100.743 91.8272C98.982 92.3646 97.6041 92.599 93.8821 92.9992C92.8301 93.1136 91.5551 93.268 91.052 93.3423C89.617 93.5595 88.7136 93.6167 87.5359 93.5824C85.5634 93.5195 83.7796 93.1307 82.253 92.4332C81.727 92.1931 81.4583 92.1759 80.8752 92.3417C80.3606 92.4904 80.1834 92.4847 79.8689 92.3246C79.2 91.9873 77.6906 90.5694 77.176 89.7918C76.6043 88.9342 76.4785 88.6026 75.5809 85.6525C75.2093 84.4175 74.872 83.4742 74.5404 82.6966C74.0944 81.6675 73.8257 80.6612 73.414 78.4315C73.2597 77.6196 73.0996 76.8935 73.0539 76.8249C73.0024 76.7506 72.8137 76.6419 72.6136 76.5676C72.1391 76.3904 71.8361 76.116 71.7274 75.7443C71.6131 75.367 71.6188 75.1669 71.756 74.4179C71.8189 74.0691 71.9218 73.2344 71.9847 72.5598C72.1905 70.4558 72.4364 69.0951 72.8137 67.9859C73.0996 67.1397 73.0653 66.6595 72.6765 66.3107C72.2248 65.9048 71.8761 65.9677 71.1843 66.5852C70.1209 67.5342 69.8407 67.4771 69.2232 66.2021C68.9431 65.6361 68.56 65.2473 67.5481 64.5155C66.6276 63.8465 66.2674 63.5149 65.9415 63.0404C65.8157 62.8517 65.5356 62.4915 65.324 62.24C64.8895 61.7197 64.7351 61.4396 64.5636 60.8678C64.495 60.6448 64.3578 60.3247 64.2549 60.1532C64.0662 59.8444 64.009 59.793 63.2029 59.2956C62.8084 59.0497 62.4482 58.6209 61.9794 57.8205C61.5106 57.0201 61.076 56.4483 60.773 56.2368C60.3099 55.9052 60.2642 55.8423 60.2642 55.5107C60.2642 55.3449 60.3042 55.0533 60.3499 54.8646C60.3957 54.6759 60.43 54.2986 60.4357 54.0242C60.4357 53.3953 60.3385 53.1323 59.8468 52.389C59.3094 51.5829 59.2179 51.3027 59.2065 50.4623C59.1893 49.5246 59.0693 49.3188 58.3374 48.9529C57.7657 48.667 57.6914 48.3812 58.063 47.8952C58.2059 47.7122 58.2059 47.6951 58.1373 47.2777C58.063 46.7803 58.1259 46.3515 58.3317 45.9284C58.5032 45.574 59.0464 45.0079 59.6753 44.5391C60.4243 43.9731 60.51 43.773 60.207 43.2527C59.9612 42.8239 59.601 42.5666 57.5542 41.3717L56.5879 40.8057L56.7823 40.6399C57.1368 40.3369 58.1145 39.6794 58.6919 39.3535C60.7044 38.2215 63.2258 37.6211 65.244 37.7984C67.3708 37.9813 69.0803 38.656 70.8127 39.9996C71.5045 40.5313 71.6931 40.6513 72.8709 41.286C73.4712 41.6061 74.2431 42.0521 74.5861 42.2808C76.3699 43.4528 77.8907 44.9565 79.5545 47.1748C80.3949 48.3011 80.5721 48.4841 81.0181 48.7071C81.3268 48.8614 81.344 48.8614 82.4188 48.8557C84.1512 48.85 85.8492 48.5813 88.685 47.8666C90.4803 47.4092 91.0234 47.192 91.7781 46.6202C92.3556 46.18 92.8415 45.471 93.1045 44.6878C93.3618 43.9102 93.9736 43.4414 95.4887 42.8639C96.2376 42.5781 96.9066 42.1493 97.4326 41.6347C98.1129 40.9543 98.5017 40.3026 98.9991 39.0219C99.5022 37.7241 100.183 36.5806 101.12 35.4543C102.367 33.9563 103.024 32.9501 103.813 31.3378C104.791 29.3424 105.248 28.7593 106.472 27.9588C108.204 26.8325 110.462 25.8949 113.092 25.2202C113.984 24.9915 116.551 24.437 116.763 24.4255C116.837 24.4198 116.746 24.6371 116.374 25.346Z" fill="white"/>
<path d="M109.462 33.5211C106.803 35.2706 105.036 37.6834 104.082 40.8679C103.996 41.1595 103.944 41.4168 103.962 41.4396C103.984 41.4568 104.007 41.4625 104.019 41.4511C104.03 41.4396 104.362 40.988 104.751 40.4563C105.145 39.9188 106.174 38.5295 107.038 37.3689C108.804 34.9962 109.936 33.4297 109.988 33.3039C110.039 33.1667 109.942 33.2124 109.462 33.5211Z" fill="white"/>
<path d="M112.463 38.3689C111.348 38.6434 110.056 39.3009 108.307 40.4729C107.524 40.9989 107.118 41.3248 106.117 42.2339C105.197 43.0686 105.099 43.2573 105.408 43.6232C105.648 43.909 105.791 43.869 106.409 43.3259C107.169 42.6627 107.586 42.3596 109.49 41.0961C111.234 39.9412 112.115 39.278 112.749 38.6319C113.161 38.2089 113.155 38.1974 112.463 38.3689Z" fill="#66A9FF"/>
<path d="M113.75 43.2019C112.984 43.2991 111.989 43.5106 111.051 43.7793C109.965 44.0881 108.353 44.6484 108.175 44.7741C107.729 45.0886 107.901 45.7461 108.421 45.7461C108.558 45.7461 110.045 45.3173 112.029 44.7055C113.887 44.1338 115.419 43.6593 115.431 43.6535C115.442 43.6421 115.431 43.5163 115.414 43.3734L115.373 43.1161L114.876 43.1218C114.602 43.1276 114.099 43.1619 113.75 43.2019Z" fill="white"/>
<path d="M66.5989 44.8713C66.4788 44.8828 66.3816 44.9114 66.3816 44.9342C66.3816 44.9571 66.6446 45.1115 66.9705 45.2773C68.9487 46.295 70.9555 47.8215 74.0314 50.6516C74.4773 51.0689 74.8775 51.4062 74.9061 51.4062C75.0719 51.4062 74.5917 50.3543 74.0771 49.5824C72.5735 47.3355 69.5604 45.1915 67.4908 44.8885C67.0963 44.8313 66.9933 44.8313 66.5989 44.8713Z" fill="white"/>
<path d="M66.5302 51.3818C66.1071 51.4847 65.5868 51.7591 65.2781 52.045L65.038 52.268L65.5811 52.2279C67.0047 52.1193 68.2568 52.2337 69.7262 52.6053C70.6124 52.834 71.7959 53.2285 72.0188 53.3771C72.0932 53.4229 72.2418 53.4629 72.3561 53.4629C72.522 53.4629 72.5791 53.4286 72.6706 53.2742C72.8478 52.9826 72.8193 52.8912 72.379 52.4738C71.6987 51.8335 71.024 51.5647 69.8119 51.4618C69.4517 51.4275 68.9372 51.3761 68.6685 51.3475C67.9824 51.2674 66.9247 51.2846 66.5302 51.3818Z" fill="#66A9FF"/>
<path d="M92.5156 51.5653C92.2526 52.5315 91.9724 54.0352 91.8523 55.1215C91.7551 56.0019 91.738 57.7629 91.8238 58.5233C91.8981 59.2151 92.1725 60.6101 92.2354 60.6101C92.2583 60.6101 92.2811 60.593 92.2811 60.5644C92.2926 59.9297 92.4298 57.9058 92.5441 56.7109C92.7557 54.4297 92.8014 51.348 92.6185 51.348C92.5956 51.348 92.5441 51.4452 92.5156 51.5653Z" fill="white"/>
<path d="M86.7924 52.7432C86.7924 52.8861 86.9697 53.7723 87.1126 54.3498C87.4614 55.7391 88.0503 57.2885 89.228 59.947C89.9027 61.4621 90.1085 61.8623 90.1085 61.6451C90.1085 61.6165 90.0685 61.2906 90.0227 60.9247C89.8455 59.5754 89.3138 57.8545 88.5648 56.1907C88.0102 54.9672 86.8839 52.6631 86.8382 52.6631C86.8096 52.6631 86.7924 52.6974 86.7924 52.7432Z" fill="#66A9FF"/>
<path d="M97.1637 55.4836C95.9459 56.1125 95.3112 56.7872 95.3112 57.4561C95.3112 57.7248 95.4427 58.0964 95.5399 58.0964C95.5914 58.0964 97.884 55.2721 97.884 55.2035C97.884 55.1349 97.6897 55.2092 97.1637 55.4836Z" fill="white"/>
<path d="M71.7844 55.5055C71.2585 55.717 70.0864 56.3574 69.4746 56.7633C69.0801 57.0263 68.5827 57.4265 68.2225 57.7753C67.5822 58.3927 67.5765 58.4213 67.8052 58.7186L67.9081 58.8558L70.2579 57.5237C72.8193 56.0715 72.8307 56.0601 72.6478 55.6999C72.4877 55.3968 72.2132 55.334 71.7844 55.5055Z" fill="white"/>
<path d="M105.86 55.6767C105.099 55.8368 104.219 56.2827 103.807 56.7172C103.601 56.9288 103.636 56.9345 104.253 56.7573C104.819 56.5915 105.614 56.4657 106.66 56.3799C108.009 56.2656 109.119 56.1398 109.164 56.094C109.233 56.0312 108.558 55.7739 108.044 55.671C107.495 55.5566 106.403 55.5566 105.86 55.6767Z" fill="white"/>
<path d="M81.7669 57.4438C81.9728 57.6668 82.7103 58.2099 83.2935 58.5701C83.5793 58.7473 84.5113 59.2562 85.3746 59.7021C86.2322 60.1481 87.0269 60.5597 87.1355 60.6169C87.3871 60.7541 87.4843 60.7541 87.6672 60.6112C87.9531 60.3825 87.9016 59.8965 87.5586 59.6564C87.267 59.4506 85.689 58.6158 85.0144 58.3128C83.8423 57.7868 82.2815 57.2951 81.7955 57.2951H81.6297L81.7669 57.4438Z" fill="white"/>
<path d="M107.489 58.5855C107.186 58.6369 106.632 58.797 106.632 58.837C106.632 58.8599 106.723 58.8999 106.832 58.9171C107.175 58.9857 107.832 59.2144 109.107 59.7175C110.394 60.2206 111.022 60.4379 111.223 60.4379C111.508 60.4379 110.136 59.2544 109.462 58.9228C108.844 58.6198 108.107 58.494 107.489 58.5855Z" fill="white"/>
<path d="M99.7879 60.8852C98.7188 61.2683 98.1242 62.3203 98.1814 63.7267C98.1985 64.1613 98.2271 64.287 98.37 64.5557C98.6673 65.0989 99.1304 65.3562 100.034 65.4705C101.08 65.6077 101.961 65.2018 102.384 64.4014C102.612 63.9726 102.692 63.5952 102.698 63.0063C102.704 61.9772 102.361 61.3998 101.497 60.9938C101.011 60.7709 100.251 60.7194 99.7879 60.8852ZM100.211 62.406C100.708 62.9492 100.125 63.6981 99.4277 63.4123C99.2162 63.3265 99.0847 63.0921 99.0847 62.812C99.0847 62.2002 99.7936 61.9486 100.211 62.406Z" fill="white"/>
<path d="M78.7312 61.617C77.925 61.8285 77.1132 62.3831 76.5586 63.092C76.1584 63.6123 76.0383 63.6409 78.6168 62.6346C79.4801 62.303 80.2005 62.0172 80.212 62.0057C80.2234 61.9943 80.2005 61.8799 80.1605 61.7542L80.0862 61.5255L79.5659 61.5312C79.28 61.5312 78.9027 61.5712 78.7312 61.617Z" fill="white"/>
<path d="M109.307 63.3148L109.096 63.4406L110.148 65.3845C110.725 66.4537 111.228 67.3341 111.263 67.3456C111.348 67.3741 111.331 66.1964 111.234 65.7447C111.068 64.9557 110.639 64.1667 110.016 63.5092C109.845 63.332 109.662 63.1833 109.61 63.1833C109.559 63.1833 109.422 63.2405 109.307 63.3148Z" fill="white"/>
<path d="M82.5617 63.664C81.5268 63.9613 81.0008 64.6589 81.0008 65.728C80.9951 66.4484 81.1381 66.8029 81.6412 67.306C82.19 67.8549 82.4759 67.9578 83.4764 67.9578C84.0882 67.9578 84.3169 67.9349 84.5856 67.8491C85.043 67.7005 85.3574 67.4489 85.5633 67.0716C85.7119 66.7914 85.7348 66.6942 85.7519 66.1511C85.7977 64.979 85.4146 64.2243 84.5513 63.7727C84.2769 63.6297 84.1854 63.6126 83.5336 63.6012C83.0762 63.5954 82.7275 63.6183 82.5617 63.664ZM84.2483 64.8761C84.4484 64.9733 84.6199 65.2477 84.6199 65.4879C84.6199 65.8595 84.1625 66.1968 83.7909 66.0939C83.2077 65.9281 83.122 65.1048 83.6708 64.8647C83.9052 64.7618 84.0196 64.7675 84.2483 64.8761Z" fill="white"/>
<path d="M91.9838 64.3103C91.8065 64.3388 91.7837 64.4418 91.8809 64.7905C91.9094 64.8991 92.0924 65.894 92.2754 66.9917C92.6298 69.0442 92.8357 69.9647 93.1272 70.7594L93.293 71.2168L93.5389 71.1996C93.6761 71.1939 93.8133 71.1653 93.8533 71.1425C93.9048 71.1139 93.7218 70.1934 93.173 67.6835L92.4297 64.2702L92.2811 64.276C92.201 64.2817 92.0695 64.2988 91.9838 64.3103Z" fill="white"/>
<path d="M77.6162 66.3351C76.6614 66.4951 75.9524 67.1241 75.3807 68.3133C75.2435 68.5991 75.1291 68.8507 75.1291 68.8678C75.1291 69.0108 75.3407 68.8564 77.1073 67.4385C77.7419 66.9239 78.3137 66.478 78.3823 66.4323C78.4509 66.3922 78.5023 66.3408 78.5023 66.3179C78.5023 66.2607 77.9935 66.2722 77.6162 66.3351Z" fill="white"/>
<path d="M77.3589 70.1923C76.3069 71.0556 75.7009 72.222 75.5294 73.7142C75.4608 74.3031 75.4608 74.3317 75.5236 74.3317C75.5522 74.3317 76.164 73.4112 76.8787 72.2906L78.1765 70.2495L77.9821 70.0894C77.8792 70.0036 77.7648 69.9293 77.7305 69.9293C77.702 69.9293 77.5304 70.0494 77.3589 70.1923Z" fill="white"/>
<path d="M99.7994 70.3591C99.4277 70.4392 99.1133 70.5478 99.1476 70.5821C99.159 70.5992 99.4735 70.6736 99.8508 70.7593C101.234 71.0681 102.601 71.6569 103.882 72.5031C104.968 73.2178 105.591 73.7209 107.867 75.7277C109.021 76.7511 109.999 77.5344 110.108 77.5344C110.165 77.5344 110.171 77.5115 110.136 77.46C110.102 77.4257 109.885 77.1284 109.639 76.8025C107.672 74.184 105.328 72.0229 103.378 71.0223C102.075 70.3591 100.84 70.1304 99.7994 70.3591Z" fill="#66A9FF"/>
<path d="M85.4374 73.0807C83.6479 74.0298 82.5273 74.9617 80.875 76.8713C79.6515 78.2835 79.3142 78.7294 79.0169 79.3355C78.7596 79.8557 78.5252 80.5533 78.5881 80.6104C78.6452 80.6676 79.2913 80.0501 80.4519 78.8381C83.3792 75.7736 84.4655 74.8245 86.0663 73.9612C86.7924 73.5667 86.9525 73.3094 86.6438 72.9949C86.518 72.8749 86.438 72.8463 86.1864 72.8463C85.9463 72.8463 85.8033 72.892 85.4374 73.0807Z" fill="#66A9FF"/>
<path d="M94.0249 73.5903C93.8363 73.6189 93.4646 73.7104 93.1959 73.7962C90.5259 74.6137 89.514 76.1574 90.4516 77.987C90.8861 78.8388 91.7094 79.605 93.053 80.4111C93.9106 80.9257 94.3508 81.0858 95.0026 81.1258C95.683 81.1601 96.1747 81.0229 96.6778 80.6512C97.5068 80.0395 98.5531 78.3071 98.919 76.9293C99.0733 76.3632 99.0848 75.5056 98.9533 75.1454C98.6503 74.3393 97.8613 73.8247 96.6778 73.6532C96.0775 73.5675 94.4309 73.5274 94.0249 73.5903Z" fill="white"/>
<path d="M103.201 76.3109C103.201 76.3338 103.567 76.7283 104.019 77.1856C104.465 77.643 105.385 78.6607 106.06 79.4497C107.323 80.9248 108.707 82.3941 108.776 82.3312C108.821 82.2798 107.249 79.6555 106.786 79.0038C105.877 77.7402 104.928 76.9398 103.796 76.4824C103.344 76.2995 103.201 76.2594 103.201 76.3109Z" fill="white"/>
<path d="M86.4094 77.8146C84.6256 78.4263 82.4016 82.074 82.3787 84.4238C82.373 84.9669 82.4359 85.3786 82.5159 85.3557C82.5502 85.3443 82.6932 85.0527 82.8304 84.7097C84.2654 81.1706 85.0887 79.6784 86.4037 78.2148C86.9068 77.6488 86.9068 77.6373 86.4094 77.8146Z" fill="white"/>
<path d="M103.058 82.7096C102.887 82.8754 102.892 83.0355 103.081 83.3042C103.138 83.3843 103.641 84.3619 104.207 85.4654C104.768 86.5745 105.248 87.4836 105.265 87.4836C105.397 87.4836 105.408 86.6088 105.288 85.9285C105.145 85.0937 104.779 84.179 104.225 83.2642C103.87 82.6867 103.739 82.5667 103.458 82.5667C103.281 82.5667 103.178 82.6067 103.058 82.7096Z" fill="#66A9FF"/>
<path d="M95.9688 83.6555C95.1284 83.7642 94.2822 84.0672 93.4703 84.5532C92.9329 84.8676 92.6813 85.1306 92.6813 85.365C92.6813 85.7767 93.2073 85.8967 93.7333 85.5994C93.8934 85.508 94.2193 85.3593 94.4537 85.2621C95.4714 84.8505 96.026 84.7418 97.2266 84.6961C98.1871 84.6618 98.1986 84.6618 98.3529 84.5017C98.6788 84.1815 98.4959 83.707 98.0099 83.627C97.7126 83.5812 96.4491 83.5984 95.9688 83.6555Z" fill="white"/>
<path d="M84.9916 85.8337C84.7343 86.3826 84.6256 86.8057 84.5685 87.5432C84.5113 88.2293 84.5513 89.4242 84.6314 89.4242C84.7228 89.4242 85.3517 88.0578 85.4775 87.5775C85.6376 86.9829 85.6147 86.2511 85.4261 85.7479C85.3575 85.5707 85.2717 85.4221 85.2431 85.4221C85.2088 85.4221 85.1002 85.6107 84.9916 85.8337Z" fill="#66A9FF"/>
<path d="M73.6711 95.8422C73.471 95.9508 73.0651 96.3625 72.8421 96.6884C71.63 98.4607 70.9497 102.2 71.3842 104.733C71.51 105.447 71.6243 105.779 71.7558 105.779C71.8873 105.779 72.0989 105.516 72.0989 105.356C72.0989 105.201 72.5162 102.52 72.7049 101.462C73.0765 99.3584 73.6826 97.6317 74.3572 96.7341C74.6202 96.3854 74.6602 96.2481 74.5573 96.0537C74.4258 95.8136 73.9341 95.6936 73.6711 95.8422Z" fill="#66A9FF"/>
<path d="M101.743 97.3913C101.412 97.723 101.355 98.2775 101.515 99.604C101.841 102.228 102.71 104.635 104.087 106.722C104.785 107.78 105.054 107.98 105.723 107.94L106.049 107.923L105.705 107.351C104.808 105.842 104.053 104.086 103.567 102.388C103.196 101.073 102.904 99.2781 102.91 98.3233C102.915 97.3913 102.801 97.2027 102.229 97.2027C101.972 97.2027 101.909 97.2255 101.743 97.3913Z" fill="white"/>
<path d="M110.777 99.957C110.554 100.077 110.405 100.254 110.371 100.437C110.342 100.592 110.394 100.757 110.651 101.301C111.217 102.507 111.503 103.49 111.829 105.348C112.052 106.623 112.058 106.675 112.12 108.207C112.178 109.579 112.269 110.3 112.475 110.923C112.664 111.512 113.144 112.409 113.27 112.409C113.338 112.409 113.332 104.742 113.264 103.822C113.178 102.638 112.795 101.701 111.949 100.592C111.469 99.957 111.12 99.7683 110.777 99.957Z" fill="#66A9FF"/>
<path d="M90.2914 100.442C89.9598 100.51 89.4624 101.316 89.2509 102.134C88.9707 103.243 88.8392 105.936 89.0165 107.148C89.1994 108.469 89.5368 109.686 89.9541 110.601C90.1714 111.059 90.1885 111.076 90.5602 111.001L90.7374 110.961V110.527C90.7374 110.281 90.6745 109.509 90.5945 108.8C90.2171 105.41 90.2743 103.512 90.8289 101.585C91.0518 100.813 91.0633 100.682 90.9261 100.556C90.8117 100.459 90.4915 100.402 90.2914 100.442Z" fill="#66A9FF"/>
<path d="M78.9598 104.102C78.5482 104.233 78.4681 104.416 78.5024 105.12C78.5596 106.257 78.5253 107.921 78.4224 108.664C78.2108 110.214 77.885 111.597 77.1703 113.981C76.7644 115.336 76.7586 115.359 76.7586 116.011C76.7586 116.657 76.8558 117.212 76.9702 117.212C77.0788 117.212 78.1365 114.85 78.6625 113.427C79.6402 110.808 80.0518 108.161 79.8174 106.034C79.7831 105.748 79.7374 105.251 79.7088 104.919C79.6573 104.376 79.6402 104.308 79.503 104.193C79.36 104.068 79.1542 104.033 78.9598 104.102Z" fill="white"/>
<path d="M95.0311 110.501C94.7738 110.713 94.7681 110.896 94.9625 111.925C95.5743 115.127 95.7286 118.563 95.397 121.702C95.3513 122.142 95.3113 122.548 95.3113 122.605C95.3113 122.782 95.5686 122.988 95.803 122.988C96.2718 122.988 96.5176 122.485 96.855 120.815C97.1065 119.558 97.198 118.597 97.238 116.842C97.2723 115.087 97.2323 114.475 96.9922 113.394C96.7235 112.188 96.146 110.707 95.8544 110.478C95.6257 110.295 95.2598 110.307 95.0311 110.501Z" fill="white"/>
<path d="M110.902 117.143C110.691 117.274 110.536 117.611 110.468 118.097C110.388 118.618 110.388 120.807 110.462 121.562C110.628 123.249 111.211 125.53 111.743 126.576C111.897 126.879 112.166 127.142 112.366 127.182C112.715 127.251 112.846 127.262 112.915 127.222C112.972 127.182 112.943 126.942 112.755 126.01C112.16 123.031 111.994 121.591 111.972 119.269C111.966 118.28 111.954 117.434 111.954 117.394C111.949 117.354 111.886 117.257 111.806 117.183C111.691 117.068 111.611 117.04 111.365 117.04C111.183 117.04 111 117.08 110.902 117.143Z" fill="#66A9FF"/>
<path d="M60.4755 120.986C60.2354 121.175 60.1039 121.449 59.8066 122.347C59.3035 123.879 59.1205 125.12 59.1205 127.018C59.1205 128.304 59.172 129.007 59.3549 130.277C59.5893 131.94 60.1325 134.347 60.3726 134.793C60.5384 135.108 60.9786 135.451 61.2188 135.451C61.3617 135.451 61.3617 135.451 61.3217 135.033C61.2988 134.81 61.2245 134.199 61.1502 133.678C60.5784 129.665 60.487 126.537 60.87 123.816C61.013 122.81 61.0987 122.512 61.3731 122.067C61.6876 121.563 61.7391 121.375 61.6076 121.18C61.4074 120.877 60.7557 120.763 60.4755 120.986Z" fill="white"/>
<path d="M76.4385 126.046C76.1126 126.223 75.7524 126.943 75.7124 127.504C75.6724 128.11 76.2784 131.574 76.7587 133.478C76.976 134.341 77.1475 134.765 77.4048 135.056C77.6106 135.291 78.0394 135.536 78.3367 135.594L78.5482 135.634L78.3538 134.925C77.7821 132.866 77.4391 131.231 77.279 129.848C77.1818 129.001 77.1589 127.201 77.2447 126.56C77.3133 126.028 77.2675 125.96 76.8845 125.96C76.7187 125.966 76.5186 126 76.4385 126.046Z" fill="#65A9FF"/>
<path d="M91.0234 129.321C90.6632 129.499 90.6117 129.687 90.6517 130.705C90.7547 133.266 91.2521 135.153 92.4527 137.594C93.0759 138.864 93.6019 139.773 94.4023 140.962C94.8425 141.614 94.9855 141.785 95.197 141.899C95.4086 142.019 95.5 142.037 95.7116 142.002C95.8545 141.979 96.0032 141.945 96.0432 141.922C96.0946 141.888 95.9574 141.545 95.5229 140.619C94.6024 138.669 93.9849 137.137 93.4018 135.347C92.7043 133.203 92.224 131.185 92.1726 130.167C92.1325 129.521 92.1268 129.487 91.9782 129.356C91.7781 129.184 91.3264 129.167 91.0234 129.321Z" fill="#66A9FF"/>
<path d="M99.5594 130.271C99.325 130.379 99.2792 130.551 99.3936 130.934C99.588 131.591 99.6165 131.946 99.6223 133.678C99.628 135.21 99.6394 135.445 99.7252 135.599C99.9367 135.982 100.44 135.931 100.657 135.513C100.703 135.422 100.846 134.747 100.977 134.015C101.183 132.855 101.212 132.609 101.183 132.134C101.166 131.837 101.109 131.46 101.063 131.305C100.954 130.951 100.674 130.516 100.451 130.362C100.24 130.208 99.7995 130.162 99.5594 130.271Z" fill="white"/>
<path d="M114.99 135.833C114.882 135.873 114.733 136.187 114.687 136.479C114.441 137.977 116.231 141.133 117.992 142.311C118.575 142.7 118.655 142.682 118.329 142.236C117.866 141.607 117.226 140.63 117.083 140.338C116.871 139.915 116.099 137.542 115.842 136.519C115.688 135.902 115.608 135.793 115.305 135.799C115.173 135.799 115.03 135.816 114.99 135.833Z" fill="#66A9FF"/>
<path d="M67.7423 136.253C67.4736 136.464 67.4393 136.647 67.5479 137.328C67.8395 139.174 67.8281 141.141 67.5251 143.199C67.4622 143.605 67.3707 144.108 67.3135 144.308L67.2163 144.674L67.3764 144.806C67.4736 144.897 67.6051 144.943 67.7366 144.943C68.0511 144.943 68.2512 144.686 68.5599 143.88C69.1088 142.479 69.2346 141.696 69.246 139.74C69.2517 138.082 69.2003 137.739 68.8115 136.956C68.4341 136.195 68.0968 135.972 67.7423 136.253Z" fill="white"/>
<path d="M55.41 137.502C55.2385 137.902 55.1184 138.451 55.1184 138.851C55.1184 139.577 55.3643 140.229 56.0904 141.424C57.0852 143.07 57.6283 143.574 58.566 143.711C58.8575 143.757 59.8066 143.694 59.8066 143.636C59.8066 143.614 59.6294 143.499 59.4178 143.385C58.2629 142.762 57.3596 141.681 56.6792 140.097C56.5306 139.76 56.239 138.977 56.0275 138.365C55.8216 137.753 55.6215 137.245 55.5929 137.239C55.5586 137.227 55.4786 137.347 55.41 137.502Z" fill="#66A9FF"/>
<path d="M80.269 137.96C80.0117 138.217 80.0231 138.486 80.3319 139.172C81.2009 141.116 81.6526 143.323 81.8241 146.456C81.8584 147.113 81.8984 147.668 81.9156 147.685C81.967 147.742 82.1557 147.451 82.2758 147.125C82.6074 146.239 82.7617 144.809 82.676 143.317C82.533 140.87 81.9613 138.846 81.1895 138.074C80.9436 137.828 80.8807 137.794 80.6749 137.794C80.4862 137.794 80.4005 137.828 80.269 137.96Z" fill="white"/>
</svg>
